M48
; DRILL file {KiCad (5.1.6)-1} date 08/02/21 23:36:51
; FORMAT={-:-/ absolute / inch / decimal}
; #@! TF.CreationDate,2021-08-02T23:36:51+08:00
; #@! TF.GenerationSoftware,Kicad,Pcbnew,(5.1.6)-1
FMAT,2
INCH
T1C0.0157
T2C0.0394
T3C0.0866
T4C0.0354
%
G90
G05
T1
X4.7343Y-3.5531
X4.8228Y-3.189
X4.9606Y-3.3366
X4.9902Y-3.2776
X5.0394Y-3.189
X5.3346Y-3.3366
X5.3445Y-3.2874
X5.4429Y-3.5531
X5.5413Y-3.0807
X5.5413Y-3.2382
X5.5709Y-3.3366
X5.6102Y-2.9921
X5.6393Y-3.0212
X5.6653Y-3.0541
X5.748Y-3.0827
X5.9941Y-3.5531
X6.1614Y-3.3465
X6.1909Y-3.3858
X6.2795Y-3.4843
X6.3189Y-3.0512
X6.437Y-3.189
X6.5354Y-3.0217
X6.5354Y-3.1299
X6.5768Y-3.374
X6.5846Y-3.6024
X6.7815Y-3.3858
T2
X6.8996Y-3.0217
X6.8996Y-3.1217
X6.8996Y-3.2217
X6.8996Y-3.3217
X6.8996Y-3.4217
X6.8996Y-3.5217
X6.8996Y-3.6217
X6.8996Y-3.7217
X5.5512Y-3.6811
X5.6512Y-3.6811
X5.7512Y-3.6811
X5.9154Y-3.6811
X6.0154Y-3.6811
T3
X6.6929Y-3.0413
X6.6929Y-3.7008
T4
X6.2146Y-3.7106
X6.4823Y-3.7106
T0
M30
