M48
; DRILL file {KiCad (5.1.6)-1} date 07/28/21 23:36:24
; FORMAT={-:-/ absolute / inch / decimal}
; #@! TF.CreationDate,2021-07-28T23:36:24+08:00
; #@! TF.GenerationSoftware,Kicad,Pcbnew,(5.1.6)-1
FMAT,2
INCH
T1C0.0157
T2C0.0394
%
G90
G05
T1
X4.7343Y-3.5531
X4.9606Y-3.3366
X4.9902Y-3.2776
X5.0394Y-3.189
X5.3346Y-3.3366
X5.3445Y-3.2874
X5.5413Y-3.2382
X5.5512Y-3.5531
X5.6102Y-2.9921
X5.6393Y-3.0212
X5.6653Y-3.0541
X5.748Y-3.0827
X5.9941Y-3.5531
X6.1614Y-3.3465
X6.1909Y-3.3858
X6.3189Y-3.0512
X6.4567Y-3.1004
X6.498Y-3.3976
X6.7028Y-3.4154
T2
X6.8996Y-3.0217
X6.8996Y-3.1217
X6.8996Y-3.2217
X6.8996Y-3.3217
X6.8996Y-3.4217
X6.8996Y-3.5217
X6.8996Y-3.6217
X6.8996Y-3.7217
X6.1319Y-3.6811
X6.2319Y-3.6811
X5.7252Y-3.6811
X5.8252Y-3.6811
X5.9252Y-3.6811
T0
M30
