%TF.GenerationSoftware,KiCad,Pcbnew,(5.1.10-1-10_14)*%
%TF.CreationDate,2021-08-31T12:45:11-05:00*%
%TF.ProjectId,wireless_measurement_ard,77697265-6c65-4737-935f-6d6561737572,rev?*%
%TF.SameCoordinates,Original*%
%TF.FileFunction,Copper,L2,Bot*%
%TF.FilePolarity,Positive*%
%FSLAX46Y46*%
G04 Gerber Fmt 4.6, Leading zero omitted, Abs format (unit mm)*
G04 Created by KiCad (PCBNEW (5.1.10-1-10_14)) date 2021-08-31 12:45:11*
%MOMM*%
%LPD*%
G01*
G04 APERTURE LIST*
%TA.AperFunction,SMDPad,CuDef*%
%ADD10R,2.900000X2.900000*%
%TD*%
%TA.AperFunction,SMDPad,CuDef*%
%ADD11R,1.560000X0.650000*%
%TD*%
%TA.AperFunction,SMDPad,CuDef*%
%ADD12R,3.600000X1.500000*%
%TD*%
%TA.AperFunction,SMDPad,CuDef*%
%ADD13R,1.400000X0.300000*%
%TD*%
%TA.AperFunction,SMDPad,CuDef*%
%ADD14R,1.250000X2.500000*%
%TD*%
%TA.AperFunction,ComponentPad*%
%ADD15O,1.700000X1.700000*%
%TD*%
%TA.AperFunction,ComponentPad*%
%ADD16R,1.700000X1.700000*%
%TD*%
%TA.AperFunction,ViaPad*%
%ADD17C,0.800000*%
%TD*%
%TA.AperFunction,Conductor*%
%ADD18C,0.210000*%
%TD*%
%TA.AperFunction,Conductor*%
%ADD19C,0.250000*%
%TD*%
%TA.AperFunction,Conductor*%
%ADD20C,0.500000*%
%TD*%
%TA.AperFunction,Conductor*%
%ADD21C,0.254000*%
%TD*%
%TA.AperFunction,Conductor*%
%ADD22C,0.100000*%
%TD*%
G04 APERTURE END LIST*
%TO.P,U1,1*%
%TO.N,Net-(U1-Pad1)*%
%TA.AperFunction,SMDPad,CuDef*%
G36*
G01*
X122862000Y-86424000D02*
X122762000Y-86424000D01*
G75*
G02*
X122712000Y-86374000I0J50000D01*
G01*
X122712000Y-85774000D01*
G75*
G02*
X122762000Y-85724000I50000J0D01*
G01*
X122862000Y-85724000D01*
G75*
G02*
X122912000Y-85774000I0J-50000D01*
G01*
X122912000Y-86374000D01*
G75*
G02*
X122862000Y-86424000I-50000J0D01*
G01*
G37*
%TD.AperFunction*%
%TO.P,U1,2*%
%TO.N,+3V3*%
%TA.AperFunction,SMDPad,CuDef*%
G36*
G01*
X122462000Y-86424000D02*
X122362000Y-86424000D01*
G75*
G02*
X122312000Y-86374000I0J50000D01*
G01*
X122312000Y-85774000D01*
G75*
G02*
X122362000Y-85724000I50000J0D01*
G01*
X122462000Y-85724000D01*
G75*
G02*
X122512000Y-85774000I0J-50000D01*
G01*
X122512000Y-86374000D01*
G75*
G02*
X122462000Y-86424000I-50000J0D01*
G01*
G37*
%TD.AperFunction*%
%TO.P,U1,3*%
%TA.AperFunction,SMDPad,CuDef*%
G36*
G01*
X122062000Y-86424000D02*
X121962000Y-86424000D01*
G75*
G02*
X121912000Y-86374000I0J50000D01*
G01*
X121912000Y-85774000D01*
G75*
G02*
X121962000Y-85724000I50000J0D01*
G01*
X122062000Y-85724000D01*
G75*
G02*
X122112000Y-85774000I0J-50000D01*
G01*
X122112000Y-86374000D01*
G75*
G02*
X122062000Y-86424000I-50000J0D01*
G01*
G37*
%TD.AperFunction*%
%TO.P,U1,4*%
%TO.N,C2CK*%
%TA.AperFunction,SMDPad,CuDef*%
G36*
G01*
X121662000Y-86424000D02*
X121562000Y-86424000D01*
G75*
G02*
X121512000Y-86374000I0J50000D01*
G01*
X121512000Y-85774000D01*
G75*
G02*
X121562000Y-85724000I50000J0D01*
G01*
X121662000Y-85724000D01*
G75*
G02*
X121712000Y-85774000I0J-50000D01*
G01*
X121712000Y-86374000D01*
G75*
G02*
X121662000Y-86424000I-50000J0D01*
G01*
G37*
%TD.AperFunction*%
%TO.P,U1,5*%
%TO.N,C2D*%
%TA.AperFunction,SMDPad,CuDef*%
G36*
G01*
X121262000Y-86424000D02*
X121162000Y-86424000D01*
G75*
G02*
X121112000Y-86374000I0J50000D01*
G01*
X121112000Y-85774000D01*
G75*
G02*
X121162000Y-85724000I50000J0D01*
G01*
X121262000Y-85724000D01*
G75*
G02*
X121312000Y-85774000I0J-50000D01*
G01*
X121312000Y-86374000D01*
G75*
G02*
X121262000Y-86424000I-50000J0D01*
G01*
G37*
%TD.AperFunction*%
%TO.P,U1,6*%
%TO.N,Net-(U1-Pad6)*%
%TA.AperFunction,SMDPad,CuDef*%
G36*
G01*
X120862000Y-86424000D02*
X120762000Y-86424000D01*
G75*
G02*
X120712000Y-86374000I0J50000D01*
G01*
X120712000Y-85774000D01*
G75*
G02*
X120762000Y-85724000I50000J0D01*
G01*
X120862000Y-85724000D01*
G75*
G02*
X120912000Y-85774000I0J-50000D01*
G01*
X120912000Y-86374000D01*
G75*
G02*
X120862000Y-86424000I-50000J0D01*
G01*
G37*
%TD.AperFunction*%
%TO.P,U1,7*%
%TO.N,Net-(U1-Pad7)*%
%TA.AperFunction,SMDPad,CuDef*%
G36*
G01*
X120462000Y-86424000D02*
X120362000Y-86424000D01*
G75*
G02*
X120312000Y-86374000I0J50000D01*
G01*
X120312000Y-85774000D01*
G75*
G02*
X120362000Y-85724000I50000J0D01*
G01*
X120462000Y-85724000D01*
G75*
G02*
X120512000Y-85774000I0J-50000D01*
G01*
X120512000Y-86374000D01*
G75*
G02*
X120462000Y-86424000I-50000J0D01*
G01*
G37*
%TD.AperFunction*%
%TO.P,U1,8*%
%TO.N,Net-(U1-Pad8)*%
%TA.AperFunction,SMDPad,CuDef*%
G36*
G01*
X120062000Y-86424000D02*
X119962000Y-86424000D01*
G75*
G02*
X119912000Y-86374000I0J50000D01*
G01*
X119912000Y-85774000D01*
G75*
G02*
X119962000Y-85724000I50000J0D01*
G01*
X120062000Y-85724000D01*
G75*
G02*
X120112000Y-85774000I0J-50000D01*
G01*
X120112000Y-86374000D01*
G75*
G02*
X120062000Y-86424000I-50000J0D01*
G01*
G37*
%TD.AperFunction*%
%TO.P,U1,9*%
%TO.N,Net-(U1-Pad9)*%
%TA.AperFunction,SMDPad,CuDef*%
G36*
G01*
X119712000Y-85574000D02*
X119112000Y-85574000D01*
G75*
G02*
X119062000Y-85524000I0J50000D01*
G01*
X119062000Y-85424000D01*
G75*
G02*
X119112000Y-85374000I50000J0D01*
G01*
X119712000Y-85374000D01*
G75*
G02*
X119762000Y-85424000I0J-50000D01*
G01*
X119762000Y-85524000D01*
G75*
G02*
X119712000Y-85574000I-50000J0D01*
G01*
G37*
%TD.AperFunction*%
%TO.P,U1,10*%
%TO.N,Net-(U1-Pad10)*%
%TA.AperFunction,SMDPad,CuDef*%
G36*
G01*
X119712000Y-85174000D02*
X119112000Y-85174000D01*
G75*
G02*
X119062000Y-85124000I0J50000D01*
G01*
X119062000Y-85024000D01*
G75*
G02*
X119112000Y-84974000I50000J0D01*
G01*
X119712000Y-84974000D01*
G75*
G02*
X119762000Y-85024000I0J-50000D01*
G01*
X119762000Y-85124000D01*
G75*
G02*
X119712000Y-85174000I-50000J0D01*
G01*
G37*
%TD.AperFunction*%
%TO.P,U1,11*%
%TO.N,Net-(U1-Pad11)*%
%TA.AperFunction,SMDPad,CuDef*%
G36*
G01*
X119712000Y-84774000D02*
X119112000Y-84774000D01*
G75*
G02*
X119062000Y-84724000I0J50000D01*
G01*
X119062000Y-84624000D01*
G75*
G02*
X119112000Y-84574000I50000J0D01*
G01*
X119712000Y-84574000D01*
G75*
G02*
X119762000Y-84624000I0J-50000D01*
G01*
X119762000Y-84724000D01*
G75*
G02*
X119712000Y-84774000I-50000J0D01*
G01*
G37*
%TD.AperFunction*%
%TO.P,U1,12*%
%TO.N,Net-(U1-Pad12)*%
%TA.AperFunction,SMDPad,CuDef*%
G36*
G01*
X119712000Y-84374000D02*
X119112000Y-84374000D01*
G75*
G02*
X119062000Y-84324000I0J50000D01*
G01*
X119062000Y-84224000D01*
G75*
G02*
X119112000Y-84174000I50000J0D01*
G01*
X119712000Y-84174000D01*
G75*
G02*
X119762000Y-84224000I0J-50000D01*
G01*
X119762000Y-84324000D01*
G75*
G02*
X119712000Y-84374000I-50000J0D01*
G01*
G37*
%TD.AperFunction*%
%TO.P,U1,13*%
%TO.N,Net-(U1-Pad13)*%
%TA.AperFunction,SMDPad,CuDef*%
G36*
G01*
X119712000Y-83974000D02*
X119112000Y-83974000D01*
G75*
G02*
X119062000Y-83924000I0J50000D01*
G01*
X119062000Y-83824000D01*
G75*
G02*
X119112000Y-83774000I50000J0D01*
G01*
X119712000Y-83774000D01*
G75*
G02*
X119762000Y-83824000I0J-50000D01*
G01*
X119762000Y-83924000D01*
G75*
G02*
X119712000Y-83974000I-50000J0D01*
G01*
G37*
%TD.AperFunction*%
%TO.P,U1,14*%
%TO.N,Net-(U1-Pad14)*%
%TA.AperFunction,SMDPad,CuDef*%
G36*
G01*
X119712000Y-83574000D02*
X119112000Y-83574000D01*
G75*
G02*
X119062000Y-83524000I0J50000D01*
G01*
X119062000Y-83424000D01*
G75*
G02*
X119112000Y-83374000I50000J0D01*
G01*
X119712000Y-83374000D01*
G75*
G02*
X119762000Y-83424000I0J-50000D01*
G01*
X119762000Y-83524000D01*
G75*
G02*
X119712000Y-83574000I-50000J0D01*
G01*
G37*
%TD.AperFunction*%
%TO.P,U1,15*%
%TO.N,Net-(U1-Pad15)*%
%TA.AperFunction,SMDPad,CuDef*%
G36*
G01*
X119712000Y-83174000D02*
X119112000Y-83174000D01*
G75*
G02*
X119062000Y-83124000I0J50000D01*
G01*
X119062000Y-83024000D01*
G75*
G02*
X119112000Y-82974000I50000J0D01*
G01*
X119712000Y-82974000D01*
G75*
G02*
X119762000Y-83024000I0J-50000D01*
G01*
X119762000Y-83124000D01*
G75*
G02*
X119712000Y-83174000I-50000J0D01*
G01*
G37*
%TD.AperFunction*%
%TO.P,U1,16*%
%TO.N,Net-(U1-Pad16)*%
%TA.AperFunction,SMDPad,CuDef*%
G36*
G01*
X119712000Y-82774000D02*
X119112000Y-82774000D01*
G75*
G02*
X119062000Y-82724000I0J50000D01*
G01*
X119062000Y-82624000D01*
G75*
G02*
X119112000Y-82574000I50000J0D01*
G01*
X119712000Y-82574000D01*
G75*
G02*
X119762000Y-82624000I0J-50000D01*
G01*
X119762000Y-82724000D01*
G75*
G02*
X119712000Y-82774000I-50000J0D01*
G01*
G37*
%TD.AperFunction*%
%TO.P,U1,17*%
%TO.N,Net-(U1-Pad17)*%
%TA.AperFunction,SMDPad,CuDef*%
G36*
G01*
X120062000Y-82424000D02*
X119962000Y-82424000D01*
G75*
G02*
X119912000Y-82374000I0J50000D01*
G01*
X119912000Y-81774000D01*
G75*
G02*
X119962000Y-81724000I50000J0D01*
G01*
X120062000Y-81724000D01*
G75*
G02*
X120112000Y-81774000I0J-50000D01*
G01*
X120112000Y-82374000D01*
G75*
G02*
X120062000Y-82424000I-50000J0D01*
G01*
G37*
%TD.AperFunction*%
%TO.P,U1,18*%
%TO.N,A0*%
%TA.AperFunction,SMDPad,CuDef*%
G36*
G01*
X120462000Y-82424000D02*
X120362000Y-82424000D01*
G75*
G02*
X120312000Y-82374000I0J50000D01*
G01*
X120312000Y-81774000D01*
G75*
G02*
X120362000Y-81724000I50000J0D01*
G01*
X120462000Y-81724000D01*
G75*
G02*
X120512000Y-81774000I0J-50000D01*
G01*
X120512000Y-82374000D01*
G75*
G02*
X120462000Y-82424000I-50000J0D01*
G01*
G37*
%TD.AperFunction*%
%TO.P,U1,19*%
%TO.N,A1*%
%TA.AperFunction,SMDPad,CuDef*%
G36*
G01*
X120862000Y-82424000D02*
X120762000Y-82424000D01*
G75*
G02*
X120712000Y-82374000I0J50000D01*
G01*
X120712000Y-81774000D01*
G75*
G02*
X120762000Y-81724000I50000J0D01*
G01*
X120862000Y-81724000D01*
G75*
G02*
X120912000Y-81774000I0J-50000D01*
G01*
X120912000Y-82374000D01*
G75*
G02*
X120862000Y-82424000I-50000J0D01*
G01*
G37*
%TD.AperFunction*%
%TO.P,U1,20*%
%TO.N,A2*%
%TA.AperFunction,SMDPad,CuDef*%
G36*
G01*
X121262000Y-82424000D02*
X121162000Y-82424000D01*
G75*
G02*
X121112000Y-82374000I0J50000D01*
G01*
X121112000Y-81774000D01*
G75*
G02*
X121162000Y-81724000I50000J0D01*
G01*
X121262000Y-81724000D01*
G75*
G02*
X121312000Y-81774000I0J-50000D01*
G01*
X121312000Y-82374000D01*
G75*
G02*
X121262000Y-82424000I-50000J0D01*
G01*
G37*
%TD.AperFunction*%
%TO.P,U1,21*%
%TO.N,A3*%
%TA.AperFunction,SMDPad,CuDef*%
G36*
G01*
X121662000Y-82424000D02*
X121562000Y-82424000D01*
G75*
G02*
X121512000Y-82374000I0J50000D01*
G01*
X121512000Y-81774000D01*
G75*
G02*
X121562000Y-81724000I50000J0D01*
G01*
X121662000Y-81724000D01*
G75*
G02*
X121712000Y-81774000I0J-50000D01*
G01*
X121712000Y-82374000D01*
G75*
G02*
X121662000Y-82424000I-50000J0D01*
G01*
G37*
%TD.AperFunction*%
%TO.P,U1,22*%
%TO.N,STATUS*%
%TA.AperFunction,SMDPad,CuDef*%
G36*
G01*
X122062000Y-82424000D02*
X121962000Y-82424000D01*
G75*
G02*
X121912000Y-82374000I0J50000D01*
G01*
X121912000Y-81774000D01*
G75*
G02*
X121962000Y-81724000I50000J0D01*
G01*
X122062000Y-81724000D01*
G75*
G02*
X122112000Y-81774000I0J-50000D01*
G01*
X122112000Y-82374000D01*
G75*
G02*
X122062000Y-82424000I-50000J0D01*
G01*
G37*
%TD.AperFunction*%
%TO.P,U1,23*%
%TO.N,PWRC*%
%TA.AperFunction,SMDPad,CuDef*%
G36*
G01*
X122462000Y-82424000D02*
X122362000Y-82424000D01*
G75*
G02*
X122312000Y-82374000I0J50000D01*
G01*
X122312000Y-81774000D01*
G75*
G02*
X122362000Y-81724000I50000J0D01*
G01*
X122462000Y-81724000D01*
G75*
G02*
X122512000Y-81774000I0J-50000D01*
G01*
X122512000Y-82374000D01*
G75*
G02*
X122462000Y-82424000I-50000J0D01*
G01*
G37*
%TD.AperFunction*%
%TO.P,U1,24*%
%TO.N,Net-(U1-Pad24)*%
%TA.AperFunction,SMDPad,CuDef*%
G36*
G01*
X122862000Y-82424000D02*
X122762000Y-82424000D01*
G75*
G02*
X122712000Y-82374000I0J50000D01*
G01*
X122712000Y-81774000D01*
G75*
G02*
X122762000Y-81724000I50000J0D01*
G01*
X122862000Y-81724000D01*
G75*
G02*
X122912000Y-81774000I0J-50000D01*
G01*
X122912000Y-82374000D01*
G75*
G02*
X122862000Y-82424000I-50000J0D01*
G01*
G37*
%TD.AperFunction*%
%TO.P,U1,25*%
%TO.N,LED*%
%TA.AperFunction,SMDPad,CuDef*%
G36*
G01*
X123712000Y-82774000D02*
X123112000Y-82774000D01*
G75*
G02*
X123062000Y-82724000I0J50000D01*
G01*
X123062000Y-82624000D01*
G75*
G02*
X123112000Y-82574000I50000J0D01*
G01*
X123712000Y-82574000D01*
G75*
G02*
X123762000Y-82624000I0J-50000D01*
G01*
X123762000Y-82724000D01*
G75*
G02*
X123712000Y-82774000I-50000J0D01*
G01*
G37*
%TD.AperFunction*%
%TO.P,U1,26*%
%TO.N,A4*%
%TA.AperFunction,SMDPad,CuDef*%
G36*
G01*
X123712000Y-83174000D02*
X123112000Y-83174000D01*
G75*
G02*
X123062000Y-83124000I0J50000D01*
G01*
X123062000Y-83024000D01*
G75*
G02*
X123112000Y-82974000I50000J0D01*
G01*
X123712000Y-82974000D01*
G75*
G02*
X123762000Y-83024000I0J-50000D01*
G01*
X123762000Y-83124000D01*
G75*
G02*
X123712000Y-83174000I-50000J0D01*
G01*
G37*
%TD.AperFunction*%
%TO.P,U1,27*%
%TO.N,Net-(U1-Pad27)*%
%TA.AperFunction,SMDPad,CuDef*%
G36*
G01*
X123712000Y-83574000D02*
X123112000Y-83574000D01*
G75*
G02*
X123062000Y-83524000I0J50000D01*
G01*
X123062000Y-83424000D01*
G75*
G02*
X123112000Y-83374000I50000J0D01*
G01*
X123712000Y-83374000D01*
G75*
G02*
X123762000Y-83424000I0J-50000D01*
G01*
X123762000Y-83524000D01*
G75*
G02*
X123712000Y-83574000I-50000J0D01*
G01*
G37*
%TD.AperFunction*%
%TO.P,U1,28*%
%TO.N,ARD_RX*%
%TA.AperFunction,SMDPad,CuDef*%
G36*
G01*
X123712000Y-83974000D02*
X123112000Y-83974000D01*
G75*
G02*
X123062000Y-83924000I0J50000D01*
G01*
X123062000Y-83824000D01*
G75*
G02*
X123112000Y-83774000I50000J0D01*
G01*
X123712000Y-83774000D01*
G75*
G02*
X123762000Y-83824000I0J-50000D01*
G01*
X123762000Y-83924000D01*
G75*
G02*
X123712000Y-83974000I-50000J0D01*
G01*
G37*
%TD.AperFunction*%
%TO.P,U1,29*%
%TO.N,ARD_TX*%
%TA.AperFunction,SMDPad,CuDef*%
G36*
G01*
X123712000Y-84374000D02*
X123112000Y-84374000D01*
G75*
G02*
X123062000Y-84324000I0J50000D01*
G01*
X123062000Y-84224000D01*
G75*
G02*
X123112000Y-84174000I50000J0D01*
G01*
X123712000Y-84174000D01*
G75*
G02*
X123762000Y-84224000I0J-50000D01*
G01*
X123762000Y-84324000D01*
G75*
G02*
X123712000Y-84374000I-50000J0D01*
G01*
G37*
%TD.AperFunction*%
%TO.P,U1,30*%
%TO.N,Net-(U1-Pad30)*%
%TA.AperFunction,SMDPad,CuDef*%
G36*
G01*
X123712000Y-84774000D02*
X123112000Y-84774000D01*
G75*
G02*
X123062000Y-84724000I0J50000D01*
G01*
X123062000Y-84624000D01*
G75*
G02*
X123112000Y-84574000I50000J0D01*
G01*
X123712000Y-84574000D01*
G75*
G02*
X123762000Y-84624000I0J-50000D01*
G01*
X123762000Y-84724000D01*
G75*
G02*
X123712000Y-84774000I-50000J0D01*
G01*
G37*
%TD.AperFunction*%
%TO.P,U1,31*%
%TO.N,Net-(U1-Pad31)*%
%TA.AperFunction,SMDPad,CuDef*%
G36*
G01*
X123712000Y-85174000D02*
X123112000Y-85174000D01*
G75*
G02*
X123062000Y-85124000I0J50000D01*
G01*
X123062000Y-85024000D01*
G75*
G02*
X123112000Y-84974000I50000J0D01*
G01*
X123712000Y-84974000D01*
G75*
G02*
X123762000Y-85024000I0J-50000D01*
G01*
X123762000Y-85124000D01*
G75*
G02*
X123712000Y-85174000I-50000J0D01*
G01*
G37*
%TD.AperFunction*%
%TO.P,U1,32*%
%TO.N,Net-(U1-Pad32)*%
%TA.AperFunction,SMDPad,CuDef*%
G36*
G01*
X123712000Y-85574000D02*
X123112000Y-85574000D01*
G75*
G02*
X123062000Y-85524000I0J50000D01*
G01*
X123062000Y-85424000D01*
G75*
G02*
X123112000Y-85374000I50000J0D01*
G01*
X123712000Y-85374000D01*
G75*
G02*
X123762000Y-85424000I0J-50000D01*
G01*
X123762000Y-85524000D01*
G75*
G02*
X123712000Y-85574000I-50000J0D01*
G01*
G37*
%TD.AperFunction*%
D10*
%TO.P,U1,33*%
%TO.N,GND*%
X121412000Y-84074000D03*
%TD*%
D11*
%TO.P,U4,5*%
%TO.N,A0*%
X129176800Y-78740000D03*
%TO.P,U4,6*%
%TO.N,+3V3*%
X129176800Y-77790000D03*
%TO.P,U4,4*%
%TO.N,C1_OUT*%
X129176800Y-79690000D03*
%TO.P,U4,3*%
%TO.N,C1_IN*%
X131876800Y-79690000D03*
%TO.P,U4,2*%
%TO.N,GND*%
X131876800Y-78740000D03*
%TO.P,U4,1*%
%TO.N,+3V3*%
X131876800Y-77790000D03*
%TD*%
D12*
%TO.P,L1,2*%
%TO.N,Net-(L1-Pad2)*%
X130810000Y-89155000D03*
%TO.P,L1,1*%
%TO.N,VIN*%
X130810000Y-86105000D03*
%TD*%
D13*
%TO.P,U3,10*%
%TO.N,VIN*%
X127422000Y-91932000D03*
%TO.P,U3,9*%
X127422000Y-91432000D03*
%TO.P,U3,8*%
%TO.N,GND*%
X127422000Y-90932000D03*
%TO.P,U3,7*%
X127422000Y-90432000D03*
%TO.P,U3,6*%
%TO.N,Net-(L1-Pad2)*%
X127422000Y-89932000D03*
%TO.P,U3,5*%
%TO.N,+3V3*%
X123022000Y-89932000D03*
%TO.P,U3,4*%
%TO.N,VFB*%
X123022000Y-90432000D03*
%TO.P,U3,3*%
%TO.N,PGT*%
X123022000Y-90932000D03*
%TO.P,U3,2*%
%TO.N,LBO*%
X123022000Y-91432000D03*
%TO.P,U3,1*%
%TO.N,VIN*%
X123022000Y-91932000D03*
%TD*%
%TO.P,R6,2*%
%TO.N,C2CK*%
%TA.AperFunction,SMDPad,CuDef*%
G36*
G01*
X125924500Y-93963500D02*
X125924500Y-93488500D01*
G75*
G02*
X126162000Y-93251000I237500J0D01*
G01*
X126662000Y-93251000D01*
G75*
G02*
X126899500Y-93488500I0J-237500D01*
G01*
X126899500Y-93963500D01*
G75*
G02*
X126662000Y-94201000I-237500J0D01*
G01*
X126162000Y-94201000D01*
G75*
G02*
X125924500Y-93963500I0J237500D01*
G01*
G37*
%TD.AperFunction*%
%TO.P,R6,1*%
%TO.N,+3V3*%
%TA.AperFunction,SMDPad,CuDef*%
G36*
G01*
X124099500Y-93963500D02*
X124099500Y-93488500D01*
G75*
G02*
X124337000Y-93251000I237500J0D01*
G01*
X124837000Y-93251000D01*
G75*
G02*
X125074500Y-93488500I0J-237500D01*
G01*
X125074500Y-93963500D01*
G75*
G02*
X124837000Y-94201000I-237500J0D01*
G01*
X124337000Y-94201000D01*
G75*
G02*
X124099500Y-93963500I0J237500D01*
G01*
G37*
%TD.AperFunction*%
%TD*%
D14*
%TO.P,SW1,3*%
%TO.N,Net-(SW1-Pad3)*%
X112562000Y-93008000D03*
%TO.P,SW1,2*%
%TO.N,VIN*%
X115062000Y-93008000D03*
%TO.P,SW1,1*%
%TO.N,BATT*%
X117562000Y-93008000D03*
%TD*%
%TO.P,C6,2*%
%TO.N,GND*%
%TA.AperFunction,SMDPad,CuDef*%
G36*
G01*
X126701000Y-87994500D02*
X126701000Y-87519500D01*
G75*
G02*
X126938500Y-87282000I237500J0D01*
G01*
X127513500Y-87282000D01*
G75*
G02*
X127751000Y-87519500I0J-237500D01*
G01*
X127751000Y-87994500D01*
G75*
G02*
X127513500Y-88232000I-237500J0D01*
G01*
X126938500Y-88232000D01*
G75*
G02*
X126701000Y-87994500I0J237500D01*
G01*
G37*
%TD.AperFunction*%
%TO.P,C6,1*%
%TO.N,+3V3*%
%TA.AperFunction,SMDPad,CuDef*%
G36*
G01*
X124951000Y-87994500D02*
X124951000Y-87519500D01*
G75*
G02*
X125188500Y-87282000I237500J0D01*
G01*
X125763500Y-87282000D01*
G75*
G02*
X126001000Y-87519500I0J-237500D01*
G01*
X126001000Y-87994500D01*
G75*
G02*
X125763500Y-88232000I-237500J0D01*
G01*
X125188500Y-88232000D01*
G75*
G02*
X124951000Y-87994500I0J237500D01*
G01*
G37*
%TD.AperFunction*%
%TD*%
%TO.P,C5,2*%
%TO.N,GND*%
%TA.AperFunction,SMDPad,CuDef*%
G36*
G01*
X126701000Y-86216500D02*
X126701000Y-85741500D01*
G75*
G02*
X126938500Y-85504000I237500J0D01*
G01*
X127513500Y-85504000D01*
G75*
G02*
X127751000Y-85741500I0J-237500D01*
G01*
X127751000Y-86216500D01*
G75*
G02*
X127513500Y-86454000I-237500J0D01*
G01*
X126938500Y-86454000D01*
G75*
G02*
X126701000Y-86216500I0J237500D01*
G01*
G37*
%TD.AperFunction*%
%TO.P,C5,1*%
%TO.N,+3V3*%
%TA.AperFunction,SMDPad,CuDef*%
G36*
G01*
X124951000Y-86216500D02*
X124951000Y-85741500D01*
G75*
G02*
X125188500Y-85504000I237500J0D01*
G01*
X125763500Y-85504000D01*
G75*
G02*
X126001000Y-85741500I0J-237500D01*
G01*
X126001000Y-86216500D01*
G75*
G02*
X125763500Y-86454000I-237500J0D01*
G01*
X125188500Y-86454000D01*
G75*
G02*
X124951000Y-86216500I0J237500D01*
G01*
G37*
%TD.AperFunction*%
%TD*%
%TO.P,R5,2*%
%TO.N,VFB*%
%TA.AperFunction,SMDPad,CuDef*%
G36*
G01*
X121395500Y-90582000D02*
X120920500Y-90582000D01*
G75*
G02*
X120683000Y-90344500I0J237500D01*
G01*
X120683000Y-89769500D01*
G75*
G02*
X120920500Y-89532000I237500J0D01*
G01*
X121395500Y-89532000D01*
G75*
G02*
X121633000Y-89769500I0J-237500D01*
G01*
X121633000Y-90344500D01*
G75*
G02*
X121395500Y-90582000I-237500J0D01*
G01*
G37*
%TD.AperFunction*%
%TO.P,R5,1*%
%TO.N,GND*%
%TA.AperFunction,SMDPad,CuDef*%
G36*
G01*
X121395500Y-92332000D02*
X120920500Y-92332000D01*
G75*
G02*
X120683000Y-92094500I0J237500D01*
G01*
X120683000Y-91519500D01*
G75*
G02*
X120920500Y-91282000I237500J0D01*
G01*
X121395500Y-91282000D01*
G75*
G02*
X121633000Y-91519500I0J-237500D01*
G01*
X121633000Y-92094500D01*
G75*
G02*
X121395500Y-92332000I-237500J0D01*
G01*
G37*
%TD.AperFunction*%
%TD*%
%TO.P,R4,2*%
%TO.N,+3V3*%
%TA.AperFunction,SMDPad,CuDef*%
G36*
G01*
X119269500Y-91282000D02*
X119744500Y-91282000D01*
G75*
G02*
X119982000Y-91519500I0J-237500D01*
G01*
X119982000Y-92094500D01*
G75*
G02*
X119744500Y-92332000I-237500J0D01*
G01*
X119269500Y-92332000D01*
G75*
G02*
X119032000Y-92094500I0J237500D01*
G01*
X119032000Y-91519500D01*
G75*
G02*
X119269500Y-91282000I237500J0D01*
G01*
G37*
%TD.AperFunction*%
%TO.P,R4,1*%
%TO.N,VFB*%
%TA.AperFunction,SMDPad,CuDef*%
G36*
G01*
X119269500Y-89532000D02*
X119744500Y-89532000D01*
G75*
G02*
X119982000Y-89769500I0J-237500D01*
G01*
X119982000Y-90344500D01*
G75*
G02*
X119744500Y-90582000I-237500J0D01*
G01*
X119269500Y-90582000D01*
G75*
G02*
X119032000Y-90344500I0J237500D01*
G01*
X119032000Y-89769500D01*
G75*
G02*
X119269500Y-89532000I237500J0D01*
G01*
G37*
%TD.AperFunction*%
%TD*%
D15*
%TO.P,J1,8*%
%TO.N,GND*%
X136956800Y-95453200D03*
%TO.P,J1,7*%
%TO.N,+3V3*%
X136956800Y-92913200D03*
%TO.P,J1,6*%
%TO.N,A4*%
X136956800Y-90373200D03*
%TO.P,J1,5*%
%TO.N,VHIGH*%
X136956800Y-87833200D03*
%TO.P,J1,4*%
%TO.N,A2*%
X136956800Y-85293200D03*
%TO.P,J1,3*%
%TO.N,A1*%
X136956800Y-82753200D03*
%TO.P,J1,2*%
%TO.N,C1_OUT*%
X136956800Y-80213200D03*
D16*
%TO.P,J1,1*%
%TO.N,C1_IN*%
X136956800Y-77673200D03*
%TD*%
%TO.P,C3,2*%
%TO.N,GND*%
%TA.AperFunction,SMDPad,CuDef*%
G36*
G01*
X131334500Y-92566000D02*
X131809500Y-92566000D01*
G75*
G02*
X132047000Y-92803500I0J-237500D01*
G01*
X132047000Y-93378500D01*
G75*
G02*
X131809500Y-93616000I-237500J0D01*
G01*
X131334500Y-93616000D01*
G75*
G02*
X131097000Y-93378500I0J237500D01*
G01*
X131097000Y-92803500D01*
G75*
G02*
X131334500Y-92566000I237500J0D01*
G01*
G37*
%TD.AperFunction*%
%TO.P,C3,1*%
%TO.N,VIN*%
%TA.AperFunction,SMDPad,CuDef*%
G36*
G01*
X131334500Y-90816000D02*
X131809500Y-90816000D01*
G75*
G02*
X132047000Y-91053500I0J-237500D01*
G01*
X132047000Y-91628500D01*
G75*
G02*
X131809500Y-91866000I-237500J0D01*
G01*
X131334500Y-91866000D01*
G75*
G02*
X131097000Y-91628500I0J237500D01*
G01*
X131097000Y-91053500D01*
G75*
G02*
X131334500Y-90816000I237500J0D01*
G01*
G37*
%TD.AperFunction*%
%TD*%
%TO.P,C2,2*%
%TO.N,GND*%
%TA.AperFunction,SMDPad,CuDef*%
G36*
G01*
X117491500Y-89363000D02*
X117966500Y-89363000D01*
G75*
G02*
X118204000Y-89600500I0J-237500D01*
G01*
X118204000Y-90175500D01*
G75*
G02*
X117966500Y-90413000I-237500J0D01*
G01*
X117491500Y-90413000D01*
G75*
G02*
X117254000Y-90175500I0J237500D01*
G01*
X117254000Y-89600500D01*
G75*
G02*
X117491500Y-89363000I237500J0D01*
G01*
G37*
%TD.AperFunction*%
%TO.P,C2,1*%
%TO.N,+3V3*%
%TA.AperFunction,SMDPad,CuDef*%
G36*
G01*
X117491500Y-87613000D02*
X117966500Y-87613000D01*
G75*
G02*
X118204000Y-87850500I0J-237500D01*
G01*
X118204000Y-88425500D01*
G75*
G02*
X117966500Y-88663000I-237500J0D01*
G01*
X117491500Y-88663000D01*
G75*
G02*
X117254000Y-88425500I0J237500D01*
G01*
X117254000Y-87850500D01*
G75*
G02*
X117491500Y-87613000I237500J0D01*
G01*
G37*
%TD.AperFunction*%
%TD*%
D15*
%TO.P,Battery1,2*%
%TO.N,GND*%
X124968000Y-95758000D03*
D16*
%TO.P,Battery1,1*%
%TO.N,BATT*%
X122428000Y-95758000D03*
%TD*%
%TO.P,C4,2*%
%TO.N,GND*%
%TA.AperFunction,SMDPad,CuDef*%
G36*
G01*
X129556500Y-92552000D02*
X130031500Y-92552000D01*
G75*
G02*
X130269000Y-92789500I0J-237500D01*
G01*
X130269000Y-93364500D01*
G75*
G02*
X130031500Y-93602000I-237500J0D01*
G01*
X129556500Y-93602000D01*
G75*
G02*
X129319000Y-93364500I0J237500D01*
G01*
X129319000Y-92789500D01*
G75*
G02*
X129556500Y-92552000I237500J0D01*
G01*
G37*
%TD.AperFunction*%
%TO.P,C4,1*%
%TO.N,VIN*%
%TA.AperFunction,SMDPad,CuDef*%
G36*
G01*
X129556500Y-90802000D02*
X130031500Y-90802000D01*
G75*
G02*
X130269000Y-91039500I0J-237500D01*
G01*
X130269000Y-91614500D01*
G75*
G02*
X130031500Y-91852000I-237500J0D01*
G01*
X129556500Y-91852000D01*
G75*
G02*
X129319000Y-91614500I0J237500D01*
G01*
X129319000Y-91039500D01*
G75*
G02*
X129556500Y-90802000I237500J0D01*
G01*
G37*
%TD.AperFunction*%
%TD*%
%TO.P,C1,2*%
%TO.N,GND*%
%TA.AperFunction,SMDPad,CuDef*%
G36*
G01*
X115713500Y-89363000D02*
X116188500Y-89363000D01*
G75*
G02*
X116426000Y-89600500I0J-237500D01*
G01*
X116426000Y-90175500D01*
G75*
G02*
X116188500Y-90413000I-237500J0D01*
G01*
X115713500Y-90413000D01*
G75*
G02*
X115476000Y-90175500I0J237500D01*
G01*
X115476000Y-89600500D01*
G75*
G02*
X115713500Y-89363000I237500J0D01*
G01*
G37*
%TD.AperFunction*%
%TO.P,C1,1*%
%TO.N,+3V3*%
%TA.AperFunction,SMDPad,CuDef*%
G36*
G01*
X115713500Y-87613000D02*
X116188500Y-87613000D01*
G75*
G02*
X116426000Y-87850500I0J-237500D01*
G01*
X116426000Y-88425500D01*
G75*
G02*
X116188500Y-88663000I-237500J0D01*
G01*
X115713500Y-88663000D01*
G75*
G02*
X115476000Y-88425500I0J237500D01*
G01*
X115476000Y-87850500D01*
G75*
G02*
X115713500Y-87613000I237500J0D01*
G01*
G37*
%TD.AperFunction*%
%TD*%
%TO.P,R1,2*%
%TO.N,C1_IN*%
%TA.AperFunction,SMDPad,CuDef*%
G36*
G01*
X135070001Y-78281000D02*
X134169999Y-78281000D01*
G75*
G02*
X133920000Y-78031001I0J249999D01*
G01*
X133920000Y-77380999D01*
G75*
G02*
X134169999Y-77131000I249999J0D01*
G01*
X135070001Y-77131000D01*
G75*
G02*
X135320000Y-77380999I0J-249999D01*
G01*
X135320000Y-78031001D01*
G75*
G02*
X135070001Y-78281000I-249999J0D01*
G01*
G37*
%TD.AperFunction*%
%TO.P,R1,1*%
%TO.N,C1_OUT*%
%TA.AperFunction,SMDPad,CuDef*%
G36*
G01*
X135070001Y-80331000D02*
X134169999Y-80331000D01*
G75*
G02*
X133920000Y-80081001I0J249999D01*
G01*
X133920000Y-79430999D01*
G75*
G02*
X134169999Y-79181000I249999J0D01*
G01*
X135070001Y-79181000D01*
G75*
G02*
X135320000Y-79430999I0J-249999D01*
G01*
X135320000Y-80081001D01*
G75*
G02*
X135070001Y-80331000I-249999J0D01*
G01*
G37*
%TD.AperFunction*%
%TD*%
D17*
%TO.N,GND*%
X121412000Y-84074000D03*
X124714000Y-84909000D03*
X132374991Y-84455000D03*
X133349976Y-75946000D03*
%TO.N,A3*%
X135382000Y-86614000D03*
%TO.N,+3V3*%
X130556000Y-77089000D03*
X119507000Y-88138000D03*
X124079000Y-86360000D03*
X120142000Y-93345000D03*
%TO.N,ARD_RX*%
X126746000Y-83185010D03*
%TO.N,PWRC*%
X123444000Y-80772000D03*
%TO.N,ARD_TX*%
X125755774Y-84429226D03*
%TO.N,VIN*%
X115062000Y-95758000D03*
X128143000Y-93980010D03*
X123063000Y-93599000D03*
%TO.N,STATUS*%
X125984000Y-80136990D03*
%TO.N,C2D*%
X128437642Y-97388021D03*
%TO.N,C2CK*%
X127248771Y-97054980D03*
%TO.N,LED*%
X133476996Y-82677000D03*
%TD*%
D18*
%TO.N,A2*%
X137160000Y-85852000D02*
X136398000Y-85852000D01*
X135509000Y-83845400D02*
X136956800Y-85293200D01*
X134493000Y-81280000D02*
X135509000Y-82296000D01*
X126537021Y-78404021D02*
X127381000Y-79248000D01*
X123271979Y-78404021D02*
X126537021Y-78404021D01*
X128397000Y-81280000D02*
X134493000Y-81280000D01*
X127381000Y-80264000D02*
X128397000Y-81280000D01*
X127381000Y-79248000D02*
X127381000Y-80264000D01*
X121212000Y-80464000D02*
X123271979Y-78404021D01*
X135509000Y-82296000D02*
X135509000Y-83845400D01*
X121212000Y-82074000D02*
X121212000Y-80464000D01*
%TO.N,GND*%
X131876800Y-78740000D02*
X132454802Y-78740000D01*
X126786227Y-85064227D02*
X125069227Y-85064227D01*
X127226000Y-85979000D02*
X127226000Y-85504000D01*
X124914000Y-84909000D02*
X124714000Y-84909000D01*
X125069227Y-85064227D02*
X124914000Y-84909000D01*
X127422000Y-90432000D02*
X127422000Y-90932000D01*
X131558000Y-93077000D02*
X131572000Y-93091000D01*
X129794000Y-93077000D02*
X131558000Y-93077000D01*
X115951000Y-89888000D02*
X117729000Y-89888000D01*
X121158000Y-91807000D02*
X120890000Y-91807000D01*
X120129990Y-91046990D02*
X118351990Y-91046990D01*
X120890000Y-91807000D02*
X120129990Y-91046990D01*
X117729000Y-90424000D02*
X117729000Y-89888000D01*
X118351990Y-91046990D02*
X117729000Y-90424000D01*
X124968000Y-95758000D02*
X123571000Y-94361000D01*
X123571000Y-94361000D02*
X122555000Y-94361000D01*
X121158000Y-92964000D02*
X121158000Y-91807000D01*
X122555000Y-94361000D02*
X121158000Y-92964000D01*
X127226000Y-85979000D02*
X127226000Y-87757000D01*
X126238000Y-88745000D02*
X127226000Y-87757000D01*
X126238000Y-90021002D02*
X126238000Y-88745000D01*
X126648998Y-90432000D02*
X126238000Y-90021002D01*
X127422000Y-90432000D02*
X126648998Y-90432000D01*
X128016000Y-84455000D02*
X127096500Y-85374500D01*
X127096500Y-85374500D02*
X126786227Y-85064227D01*
X132374991Y-84455000D02*
X128016000Y-84455000D01*
X127226000Y-85504000D02*
X127096500Y-85374500D01*
X133136990Y-78469810D02*
X133136990Y-77937010D01*
X132866800Y-78740000D02*
X133136990Y-78469810D01*
X131876800Y-78740000D02*
X132866800Y-78740000D01*
X133349976Y-77724024D02*
X133349976Y-75946000D01*
X133136990Y-77937010D02*
X133349976Y-77724024D01*
%TO.N,A3*%
X128102009Y-81620009D02*
X133944009Y-81620009D01*
X127000000Y-80518000D02*
X128102009Y-81620009D01*
X126365000Y-78867000D02*
X127000000Y-79502000D01*
X123317000Y-78867000D02*
X126365000Y-78867000D01*
X133944009Y-81620009D02*
X134747000Y-82423000D01*
X121612000Y-80572000D02*
X123317000Y-78867000D01*
X127000000Y-79502000D02*
X127000000Y-80518000D01*
X121612000Y-82074000D02*
X121612000Y-80572000D01*
X134747000Y-82423000D02*
X134747000Y-85979000D01*
X134747000Y-85979000D02*
X135382000Y-86614000D01*
%TO.N,+3V3*%
X129176800Y-77790000D02*
X129321600Y-77790000D01*
X131876800Y-77790000D02*
X131681200Y-77790000D01*
X129176800Y-77790000D02*
X129176800Y-77706200D01*
X131876800Y-77790000D02*
X131765000Y-77790000D01*
X129176800Y-77790000D02*
X129728000Y-77790000D01*
X130429000Y-77089000D02*
X130556000Y-77089000D01*
X129728000Y-77790000D02*
X130429000Y-77089000D01*
X131257000Y-77790000D02*
X130556000Y-77089000D01*
X131876800Y-77790000D02*
X131257000Y-77790000D01*
X125476000Y-87757000D02*
X124206000Y-87757000D01*
X123022000Y-89875000D02*
X122301000Y-89154000D01*
X123022000Y-89932000D02*
X123022000Y-89875000D01*
D19*
X123022000Y-89932000D02*
X124190000Y-89932000D01*
X124587000Y-90329000D02*
X124587000Y-93726000D01*
X124190000Y-89932000D02*
X124587000Y-90329000D01*
D18*
X115951000Y-88138000D02*
X117729000Y-88138000D01*
X122174000Y-89154000D02*
X122301000Y-89154000D01*
X121158000Y-88138000D02*
X122174000Y-89154000D01*
X119380000Y-88138000D02*
X119507000Y-88138000D01*
X117729000Y-88138000D02*
X119380000Y-88138000D01*
X119380000Y-88138000D02*
X121158000Y-88138000D01*
X125095000Y-86360000D02*
X125476000Y-85979000D01*
X124079000Y-86360000D02*
X125095000Y-86360000D01*
X123317000Y-86868000D02*
X122555000Y-86868000D01*
X122142000Y-86455000D02*
X122142000Y-86074000D01*
X122555000Y-86868000D02*
X122142000Y-86455000D01*
X122142000Y-86074000D02*
X122012000Y-86074000D01*
X122412000Y-86074000D02*
X122142000Y-86074000D01*
X124079000Y-87503000D02*
X124015500Y-87566500D01*
X124079000Y-86360000D02*
X124079000Y-87503000D01*
X124015500Y-87566500D02*
X123317000Y-86868000D01*
X124206000Y-87757000D02*
X124015500Y-87566500D01*
X119507000Y-92710000D02*
X120142000Y-93345000D01*
X119507000Y-91807000D02*
X119507000Y-92710000D01*
%TO.N,ARD_RX*%
X123412000Y-83874000D02*
X125364325Y-83874000D01*
X125364325Y-83874000D02*
X126053315Y-83185010D01*
X126053315Y-83185010D02*
X126746000Y-83185010D01*
%TO.N,A1*%
X120812000Y-80356000D02*
X120812000Y-82074000D01*
X122872500Y-78295500D02*
X120812000Y-80356000D01*
X123103989Y-78064011D02*
X122872500Y-78295500D01*
X126746000Y-77978000D02*
X123190000Y-77978000D01*
X127762000Y-78994000D02*
X126746000Y-77978000D01*
X123190000Y-77978000D02*
X122872500Y-78295500D01*
X136956800Y-82753200D02*
X134975599Y-80771999D01*
X134975599Y-80771999D02*
X128523999Y-80771999D01*
X128523999Y-80771999D02*
X127762000Y-80010000D01*
X127762000Y-80010000D02*
X127762000Y-78994000D01*
%TO.N,A0*%
X120412000Y-79994000D02*
X120412000Y-82074000D01*
X128186800Y-78740000D02*
X126916800Y-77470000D01*
X129176800Y-78740000D02*
X128186800Y-78740000D01*
X122682000Y-77724000D02*
X122555000Y-77851000D01*
X122936000Y-77470000D02*
X126916800Y-77470000D01*
X122555000Y-77851000D02*
X122936000Y-77470000D01*
X122555000Y-77851000D02*
X120412000Y-79994000D01*
%TO.N,PWRC*%
X122412000Y-82074000D02*
X122412000Y-81042000D01*
X122412000Y-81042000D02*
X122682000Y-80772000D01*
X122682000Y-80772000D02*
X123444000Y-80772000D01*
%TO.N,ARD_TX*%
X123412000Y-84274000D02*
X125600548Y-84274000D01*
X125600548Y-84274000D02*
X125755774Y-84429226D01*
D20*
%TO.N,VIN*%
X115062000Y-93008000D02*
X115062000Y-95758000D01*
D18*
X127422000Y-91432000D02*
X127422000Y-91932000D01*
X127438000Y-91948000D02*
X127422000Y-91932000D01*
X129689000Y-91432000D02*
X129794000Y-91327000D01*
X127422000Y-91432000D02*
X129689000Y-91432000D01*
X131445000Y-91327000D02*
X131572000Y-91454000D01*
X129794000Y-91327000D02*
X131445000Y-91327000D01*
D20*
X127422000Y-93259010D02*
X128143000Y-93980010D01*
X127422000Y-91932000D02*
X127422000Y-93259010D01*
X123022000Y-93558000D02*
X123063000Y-93599000D01*
X123022000Y-91962001D02*
X123022000Y-93558000D01*
D18*
X131572000Y-91341000D02*
X132306000Y-91341000D01*
X132306000Y-91341000D02*
X133477000Y-90170000D01*
X133477000Y-88772000D02*
X130810000Y-86105000D01*
X133477000Y-90170000D02*
X133477000Y-88772000D01*
%TO.N,C1_OUT*%
X133635999Y-80250001D02*
X134112000Y-79774000D01*
X129736801Y-80250001D02*
X133635999Y-80250001D01*
X129176800Y-79690000D02*
X129736801Y-80250001D01*
X135077200Y-80213200D02*
X134620000Y-79756000D01*
X136956800Y-80213200D02*
X135077200Y-80213200D01*
%TO.N,C1_IN*%
X132735090Y-79690000D02*
X131876800Y-79690000D01*
X133477000Y-78948090D02*
X132735090Y-79690000D01*
X133477000Y-78359000D02*
X133477000Y-78948090D01*
X134130000Y-77706000D02*
X133477000Y-78359000D01*
X134620000Y-77706000D02*
X134130000Y-77706000D01*
X134747000Y-77673200D02*
X134670800Y-77673200D01*
X134652800Y-77673200D02*
X134620000Y-77706000D01*
X136956800Y-77673200D02*
X134652800Y-77673200D01*
%TO.N,Net-(L1-Pad2)*%
X128199000Y-89155000D02*
X127422000Y-89932000D01*
X130810000Y-89155000D02*
X128199000Y-89155000D01*
%TO.N,VFB*%
X120904000Y-90057000D02*
X118872000Y-90057000D01*
X121533000Y-90432000D02*
X121158000Y-90057000D01*
X123022000Y-90432000D02*
X121533000Y-90432000D01*
%TO.N,STATUS*%
X122012000Y-82074000D02*
X122012000Y-80934000D01*
X122012000Y-80934000D02*
X122809010Y-80136990D01*
X122809010Y-80136990D02*
X125984000Y-80136990D01*
%TO.N,C2D*%
X128135673Y-97689990D02*
X128437642Y-97388021D01*
X126843959Y-97689990D02*
X128135673Y-97689990D01*
X126053001Y-96899032D02*
X126843959Y-97689990D01*
X125488801Y-94672999D02*
X126053001Y-95237199D01*
X125488801Y-90282649D02*
X125488801Y-94672999D01*
X122033934Y-88011000D02*
X123217152Y-88011000D01*
X126053001Y-95237199D02*
X126053001Y-96899032D01*
X121212000Y-87189066D02*
X122033934Y-88011000D01*
X123217152Y-88011000D02*
X125488801Y-90282649D01*
X121212000Y-86074000D02*
X121212000Y-87189066D01*
%TO.N,C2CK*%
X126412000Y-93726000D02*
X126412000Y-96218209D01*
X126412000Y-96218209D02*
X127248771Y-97054980D01*
X125857000Y-90170000D02*
X125857000Y-93171000D01*
X123279437Y-87592437D02*
X125857000Y-90170000D01*
X125857000Y-93171000D02*
X126412000Y-93726000D01*
X122390437Y-87592437D02*
X123279437Y-87592437D01*
X121612000Y-86814000D02*
X122390437Y-87592437D01*
X121612000Y-86074000D02*
X121612000Y-86814000D01*
D20*
%TO.N,BATT*%
X120312000Y-95758000D02*
X117562000Y-93008000D01*
X122428000Y-95758000D02*
X120312000Y-95758000D01*
D18*
%TO.N,LED*%
X132841996Y-82042000D02*
X133476996Y-82677000D01*
X124044000Y-82042000D02*
X132841996Y-82042000D01*
X123412000Y-82674000D02*
X124044000Y-82042000D01*
D20*
%TO.N,VHIGH*%
X136445000Y-87630000D02*
X136398000Y-87677000D01*
D18*
%TO.N,A4*%
X134112000Y-84927773D02*
X134112000Y-87528400D01*
X124289066Y-82550000D02*
X131734227Y-82550000D01*
X123765066Y-83074000D02*
X124289066Y-82550000D01*
X131734227Y-82550000D02*
X134112000Y-84927773D01*
X134112000Y-87528400D02*
X136956800Y-90373200D01*
X123412000Y-83074000D02*
X123765066Y-83074000D01*
%TD*%
D21*
%TO.N,GND*%
X116347498Y-94502180D02*
X116406463Y-94612494D01*
X116485815Y-94709185D01*
X116582506Y-94788537D01*
X116692820Y-94847502D01*
X116812518Y-94883812D01*
X116937000Y-94896072D01*
X117799017Y-94896072D01*
X117770353Y-94915225D01*
X117619225Y-95066353D01*
X117500485Y-95244060D01*
X117418696Y-95441517D01*
X117377000Y-95651137D01*
X117377000Y-95864863D01*
X117418696Y-96074483D01*
X117500485Y-96271940D01*
X117619225Y-96449647D01*
X117770353Y-96600775D01*
X117948060Y-96719515D01*
X118145517Y-96801304D01*
X118355137Y-96843000D01*
X118568863Y-96843000D01*
X118778483Y-96801304D01*
X118975940Y-96719515D01*
X119153647Y-96600775D01*
X119304775Y-96449647D01*
X119423515Y-96271940D01*
X119467697Y-96165276D01*
X119655470Y-96353049D01*
X119683183Y-96386817D01*
X119716951Y-96414530D01*
X119716953Y-96414532D01*
X119759741Y-96449647D01*
X119817941Y-96497411D01*
X119971687Y-96579589D01*
X120138510Y-96630195D01*
X120268523Y-96643000D01*
X120268533Y-96643000D01*
X120311999Y-96647281D01*
X120355465Y-96643000D01*
X120943375Y-96643000D01*
X120952188Y-96732482D01*
X120988498Y-96852180D01*
X121047463Y-96962494D01*
X121126815Y-97059185D01*
X121223506Y-97138537D01*
X121333820Y-97197502D01*
X121453518Y-97233812D01*
X121578000Y-97246072D01*
X123278000Y-97246072D01*
X123402482Y-97233812D01*
X123522180Y-97197502D01*
X123632494Y-97138537D01*
X123729185Y-97059185D01*
X123808537Y-96962494D01*
X123867502Y-96852180D01*
X123891966Y-96771534D01*
X123967731Y-96855588D01*
X124201080Y-97029641D01*
X124463901Y-97154825D01*
X124611110Y-97199476D01*
X124841000Y-97078155D01*
X124841000Y-95885000D01*
X124821000Y-95885000D01*
X124821000Y-95631000D01*
X124841000Y-95631000D01*
X124841000Y-95611000D01*
X125095000Y-95611000D01*
X125095000Y-95631000D01*
X125115000Y-95631000D01*
X125115000Y-95885000D01*
X125095000Y-95885000D01*
X125095000Y-97078155D01*
X125324890Y-97199476D01*
X125367593Y-97186524D01*
X125373461Y-97197502D01*
X125422902Y-97290000D01*
X110710000Y-97290000D01*
X110710000Y-96286180D01*
X110819225Y-96449647D01*
X110970353Y-96600775D01*
X111148060Y-96719515D01*
X111345517Y-96801304D01*
X111555137Y-96843000D01*
X111768863Y-96843000D01*
X111978483Y-96801304D01*
X112175940Y-96719515D01*
X112353647Y-96600775D01*
X112504775Y-96449647D01*
X112623515Y-96271940D01*
X112705304Y-96074483D01*
X112747000Y-95864863D01*
X112747000Y-95651137D01*
X112705304Y-95441517D01*
X112623515Y-95244060D01*
X112504775Y-95066353D01*
X112353647Y-94915225D01*
X112324983Y-94896072D01*
X113187000Y-94896072D01*
X113311482Y-94883812D01*
X113431180Y-94847502D01*
X113541494Y-94788537D01*
X113638185Y-94709185D01*
X113717537Y-94612494D01*
X113776502Y-94502180D01*
X113812000Y-94385159D01*
X113847498Y-94502180D01*
X113906463Y-94612494D01*
X113985815Y-94709185D01*
X114082506Y-94788537D01*
X114177001Y-94839046D01*
X114177001Y-95219544D01*
X114144795Y-95267744D01*
X114066774Y-95456102D01*
X114027000Y-95656061D01*
X114027000Y-95859939D01*
X114066774Y-96059898D01*
X114144795Y-96248256D01*
X114258063Y-96417774D01*
X114402226Y-96561937D01*
X114571744Y-96675205D01*
X114760102Y-96753226D01*
X114960061Y-96793000D01*
X115163939Y-96793000D01*
X115363898Y-96753226D01*
X115552256Y-96675205D01*
X115721774Y-96561937D01*
X115865937Y-96417774D01*
X115979205Y-96248256D01*
X116057226Y-96059898D01*
X116097000Y-95859939D01*
X116097000Y-95656061D01*
X116057226Y-95456102D01*
X115979205Y-95267744D01*
X115947000Y-95219546D01*
X115947000Y-94839046D01*
X116041494Y-94788537D01*
X116138185Y-94709185D01*
X116217537Y-94612494D01*
X116276502Y-94502180D01*
X116312000Y-94385159D01*
X116347498Y-94502180D01*
%TA.AperFunction,Conductor*%
D22*
G36*
X116347498Y-94502180D02*
G01*
X116406463Y-94612494D01*
X116485815Y-94709185D01*
X116582506Y-94788537D01*
X116692820Y-94847502D01*
X116812518Y-94883812D01*
X116937000Y-94896072D01*
X117799017Y-94896072D01*
X117770353Y-94915225D01*
X117619225Y-95066353D01*
X117500485Y-95244060D01*
X117418696Y-95441517D01*
X117377000Y-95651137D01*
X117377000Y-95864863D01*
X117418696Y-96074483D01*
X117500485Y-96271940D01*
X117619225Y-96449647D01*
X117770353Y-96600775D01*
X117948060Y-96719515D01*
X118145517Y-96801304D01*
X118355137Y-96843000D01*
X118568863Y-96843000D01*
X118778483Y-96801304D01*
X118975940Y-96719515D01*
X119153647Y-96600775D01*
X119304775Y-96449647D01*
X119423515Y-96271940D01*
X119467697Y-96165276D01*
X119655470Y-96353049D01*
X119683183Y-96386817D01*
X119716951Y-96414530D01*
X119716953Y-96414532D01*
X119759741Y-96449647D01*
X119817941Y-96497411D01*
X119971687Y-96579589D01*
X120138510Y-96630195D01*
X120268523Y-96643000D01*
X120268533Y-96643000D01*
X120311999Y-96647281D01*
X120355465Y-96643000D01*
X120943375Y-96643000D01*
X120952188Y-96732482D01*
X120988498Y-96852180D01*
X121047463Y-96962494D01*
X121126815Y-97059185D01*
X121223506Y-97138537D01*
X121333820Y-97197502D01*
X121453518Y-97233812D01*
X121578000Y-97246072D01*
X123278000Y-97246072D01*
X123402482Y-97233812D01*
X123522180Y-97197502D01*
X123632494Y-97138537D01*
X123729185Y-97059185D01*
X123808537Y-96962494D01*
X123867502Y-96852180D01*
X123891966Y-96771534D01*
X123967731Y-96855588D01*
X124201080Y-97029641D01*
X124463901Y-97154825D01*
X124611110Y-97199476D01*
X124841000Y-97078155D01*
X124841000Y-95885000D01*
X124821000Y-95885000D01*
X124821000Y-95631000D01*
X124841000Y-95631000D01*
X124841000Y-95611000D01*
X125095000Y-95611000D01*
X125095000Y-95631000D01*
X125115000Y-95631000D01*
X125115000Y-95885000D01*
X125095000Y-95885000D01*
X125095000Y-97078155D01*
X125324890Y-97199476D01*
X125367593Y-97186524D01*
X125373461Y-97197502D01*
X125422902Y-97290000D01*
X110710000Y-97290000D01*
X110710000Y-96286180D01*
X110819225Y-96449647D01*
X110970353Y-96600775D01*
X111148060Y-96719515D01*
X111345517Y-96801304D01*
X111555137Y-96843000D01*
X111768863Y-96843000D01*
X111978483Y-96801304D01*
X112175940Y-96719515D01*
X112353647Y-96600775D01*
X112504775Y-96449647D01*
X112623515Y-96271940D01*
X112705304Y-96074483D01*
X112747000Y-95864863D01*
X112747000Y-95651137D01*
X112705304Y-95441517D01*
X112623515Y-95244060D01*
X112504775Y-95066353D01*
X112353647Y-94915225D01*
X112324983Y-94896072D01*
X113187000Y-94896072D01*
X113311482Y-94883812D01*
X113431180Y-94847502D01*
X113541494Y-94788537D01*
X113638185Y-94709185D01*
X113717537Y-94612494D01*
X113776502Y-94502180D01*
X113812000Y-94385159D01*
X113847498Y-94502180D01*
X113906463Y-94612494D01*
X113985815Y-94709185D01*
X114082506Y-94788537D01*
X114177001Y-94839046D01*
X114177001Y-95219544D01*
X114144795Y-95267744D01*
X114066774Y-95456102D01*
X114027000Y-95656061D01*
X114027000Y-95859939D01*
X114066774Y-96059898D01*
X114144795Y-96248256D01*
X114258063Y-96417774D01*
X114402226Y-96561937D01*
X114571744Y-96675205D01*
X114760102Y-96753226D01*
X114960061Y-96793000D01*
X115163939Y-96793000D01*
X115363898Y-96753226D01*
X115552256Y-96675205D01*
X115721774Y-96561937D01*
X115865937Y-96417774D01*
X115979205Y-96248256D01*
X116057226Y-96059898D01*
X116097000Y-95859939D01*
X116097000Y-95656061D01*
X116057226Y-95456102D01*
X115979205Y-95267744D01*
X115947000Y-95219546D01*
X115947000Y-94839046D01*
X116041494Y-94788537D01*
X116138185Y-94709185D01*
X116217537Y-94612494D01*
X116276502Y-94502180D01*
X116312000Y-94385159D01*
X116347498Y-94502180D01*
G37*
%TD.AperFunction*%
D21*
X139290001Y-97290000D02*
X134432485Y-97290000D01*
X134481961Y-97240524D01*
X134605659Y-97055398D01*
X134690863Y-96849696D01*
X134734300Y-96631325D01*
X134734300Y-96408675D01*
X134690863Y-96190304D01*
X134605659Y-95984602D01*
X134489054Y-95810090D01*
X135515324Y-95810090D01*
X135559975Y-95957299D01*
X135685159Y-96220120D01*
X135859212Y-96453469D01*
X136075445Y-96648378D01*
X136325548Y-96797357D01*
X136599909Y-96894681D01*
X136829800Y-96774014D01*
X136829800Y-95580200D01*
X137083800Y-95580200D01*
X137083800Y-96774014D01*
X137313691Y-96894681D01*
X137588052Y-96797357D01*
X137838155Y-96648378D01*
X138054388Y-96453469D01*
X138228441Y-96220120D01*
X138353625Y-95957299D01*
X138398276Y-95810090D01*
X138276955Y-95580200D01*
X137083800Y-95580200D01*
X136829800Y-95580200D01*
X135636645Y-95580200D01*
X135515324Y-95810090D01*
X134489054Y-95810090D01*
X134481961Y-95799476D01*
X134324524Y-95642039D01*
X134139398Y-95518341D01*
X134104776Y-95504000D01*
X134139398Y-95489659D01*
X134324524Y-95365961D01*
X134481961Y-95208524D01*
X134605659Y-95023398D01*
X134690863Y-94817696D01*
X134734300Y-94599325D01*
X134734300Y-94376675D01*
X134690863Y-94158304D01*
X134605659Y-93952602D01*
X134481961Y-93767476D01*
X134324524Y-93610039D01*
X134139398Y-93486341D01*
X133933696Y-93401137D01*
X133715325Y-93357700D01*
X133492675Y-93357700D01*
X133274304Y-93401137D01*
X133068602Y-93486341D01*
X132883476Y-93610039D01*
X132726039Y-93767476D01*
X132602341Y-93952602D01*
X132517137Y-94158304D01*
X132473700Y-94376675D01*
X132473700Y-94599325D01*
X132517137Y-94817696D01*
X132602341Y-95023398D01*
X132726039Y-95208524D01*
X132883476Y-95365961D01*
X133068602Y-95489659D01*
X133103224Y-95504000D01*
X133068602Y-95518341D01*
X132883476Y-95642039D01*
X132726039Y-95799476D01*
X132602341Y-95984602D01*
X132517137Y-96190304D01*
X132473700Y-96408675D01*
X132473700Y-96631325D01*
X132517137Y-96849696D01*
X132602341Y-97055398D01*
X132726039Y-97240524D01*
X132775515Y-97290000D01*
X129472642Y-97290000D01*
X129472642Y-97286082D01*
X129432868Y-97086123D01*
X129354847Y-96897765D01*
X129241579Y-96728247D01*
X129097416Y-96584084D01*
X129010412Y-96525950D01*
X129059398Y-96505659D01*
X129244524Y-96381961D01*
X129401961Y-96224524D01*
X129525659Y-96039398D01*
X129610863Y-95833696D01*
X129654300Y-95615325D01*
X129654300Y-95392675D01*
X129610863Y-95174304D01*
X129525659Y-94968602D01*
X129401961Y-94783476D01*
X129244524Y-94626039D01*
X129059398Y-94502341D01*
X129043244Y-94495650D01*
X129060205Y-94470266D01*
X129138226Y-94281908D01*
X129151577Y-94214786D01*
X129194518Y-94227812D01*
X129319000Y-94240072D01*
X129508250Y-94237000D01*
X129667000Y-94078250D01*
X129667000Y-93204000D01*
X129921000Y-93204000D01*
X129921000Y-94078250D01*
X130079750Y-94237000D01*
X130269000Y-94240072D01*
X130393482Y-94227812D01*
X130513180Y-94191502D01*
X130623494Y-94132537D01*
X130674470Y-94090702D01*
X130742506Y-94146537D01*
X130852820Y-94205502D01*
X130972518Y-94241812D01*
X131097000Y-94254072D01*
X131286250Y-94251000D01*
X131445000Y-94092250D01*
X131445000Y-93218000D01*
X131699000Y-93218000D01*
X131699000Y-94092250D01*
X131857750Y-94251000D01*
X132047000Y-94254072D01*
X132171482Y-94241812D01*
X132291180Y-94205502D01*
X132401494Y-94146537D01*
X132498185Y-94067185D01*
X132577537Y-93970494D01*
X132636502Y-93860180D01*
X132672812Y-93740482D01*
X132685072Y-93616000D01*
X132682000Y-93376750D01*
X132523250Y-93218000D01*
X131699000Y-93218000D01*
X131445000Y-93218000D01*
X130759250Y-93218000D01*
X130745250Y-93204000D01*
X129921000Y-93204000D01*
X129667000Y-93204000D01*
X128842750Y-93204000D01*
X128836726Y-93210025D01*
X128802774Y-93176073D01*
X128633256Y-93062805D01*
X128444898Y-92984784D01*
X128388044Y-92973475D01*
X128307000Y-92892432D01*
X128307000Y-92689454D01*
X128366180Y-92671502D01*
X128476494Y-92612537D01*
X128573185Y-92533185D01*
X128652537Y-92436494D01*
X128711502Y-92326180D01*
X128747812Y-92206482D01*
X128751208Y-92172000D01*
X128809395Y-92172000D01*
X128788463Y-92197506D01*
X128729498Y-92307820D01*
X128693188Y-92427518D01*
X128680928Y-92552000D01*
X128684000Y-92791250D01*
X128842750Y-92950000D01*
X129667000Y-92950000D01*
X129667000Y-92930000D01*
X129921000Y-92930000D01*
X129921000Y-92950000D01*
X130606750Y-92950000D01*
X130620750Y-92964000D01*
X131445000Y-92964000D01*
X131445000Y-92944000D01*
X131699000Y-92944000D01*
X131699000Y-92964000D01*
X132523250Y-92964000D01*
X132682000Y-92805250D01*
X132685072Y-92566000D01*
X132672812Y-92441518D01*
X132636502Y-92321820D01*
X132577537Y-92211506D01*
X132517901Y-92138839D01*
X132537512Y-92114942D01*
X132582725Y-92030353D01*
X132590556Y-92027978D01*
X132719111Y-91959264D01*
X132831790Y-91866790D01*
X132854962Y-91838555D01*
X133974561Y-90718957D01*
X134002790Y-90695790D01*
X134034200Y-90657518D01*
X134070119Y-90613750D01*
X134095264Y-90583111D01*
X134163978Y-90454556D01*
X134193791Y-90356276D01*
X134206292Y-90315066D01*
X134208596Y-90291668D01*
X134217000Y-90206347D01*
X134217000Y-90206341D01*
X134220579Y-90170001D01*
X134217000Y-90133661D01*
X134217000Y-88808340D01*
X134220579Y-88772000D01*
X134217000Y-88735660D01*
X134217000Y-88735653D01*
X134210911Y-88673828D01*
X135520283Y-89983201D01*
X135471800Y-90226940D01*
X135471800Y-90519460D01*
X135528868Y-90806358D01*
X135640810Y-91076611D01*
X135803325Y-91319832D01*
X136010168Y-91526675D01*
X136184560Y-91643200D01*
X136010168Y-91759725D01*
X135803325Y-91966568D01*
X135640810Y-92209789D01*
X135528868Y-92480042D01*
X135471800Y-92766940D01*
X135471800Y-93059460D01*
X135528868Y-93346358D01*
X135640810Y-93616611D01*
X135803325Y-93859832D01*
X136010168Y-94066675D01*
X136192334Y-94188395D01*
X136075445Y-94258022D01*
X135859212Y-94452931D01*
X135685159Y-94686280D01*
X135559975Y-94949101D01*
X135515324Y-95096310D01*
X135636645Y-95326200D01*
X136829800Y-95326200D01*
X136829800Y-95306200D01*
X137083800Y-95306200D01*
X137083800Y-95326200D01*
X138276955Y-95326200D01*
X138398276Y-95096310D01*
X138353625Y-94949101D01*
X138228441Y-94686280D01*
X138054388Y-94452931D01*
X137838155Y-94258022D01*
X137721266Y-94188395D01*
X137903432Y-94066675D01*
X138110275Y-93859832D01*
X138272790Y-93616611D01*
X138384732Y-93346358D01*
X138441800Y-93059460D01*
X138441800Y-92766940D01*
X138384732Y-92480042D01*
X138272790Y-92209789D01*
X138110275Y-91966568D01*
X137903432Y-91759725D01*
X137729040Y-91643200D01*
X137903432Y-91526675D01*
X138110275Y-91319832D01*
X138272790Y-91076611D01*
X138384732Y-90806358D01*
X138441800Y-90519460D01*
X138441800Y-90226940D01*
X138384732Y-89940042D01*
X138272790Y-89669789D01*
X138110275Y-89426568D01*
X137903432Y-89219725D01*
X137729040Y-89103200D01*
X137903432Y-88986675D01*
X138110275Y-88779832D01*
X138272790Y-88536611D01*
X138384732Y-88266358D01*
X138441800Y-87979460D01*
X138441800Y-87686940D01*
X138384732Y-87400042D01*
X138272790Y-87129789D01*
X138110275Y-86886568D01*
X137903432Y-86679725D01*
X137729040Y-86563200D01*
X137903432Y-86446675D01*
X138110275Y-86239832D01*
X138272790Y-85996611D01*
X138384732Y-85726358D01*
X138441800Y-85439460D01*
X138441800Y-85146940D01*
X138384732Y-84860042D01*
X138272790Y-84589789D01*
X138110275Y-84346568D01*
X137903432Y-84139725D01*
X137729040Y-84023200D01*
X137903432Y-83906675D01*
X138110275Y-83699832D01*
X138272790Y-83456611D01*
X138384732Y-83186358D01*
X138441800Y-82899460D01*
X138441800Y-82606940D01*
X138384732Y-82320042D01*
X138272790Y-82049789D01*
X138110275Y-81806568D01*
X137903432Y-81599725D01*
X137729040Y-81483200D01*
X137903432Y-81366675D01*
X138110275Y-81159832D01*
X138272790Y-80916611D01*
X138384732Y-80646358D01*
X138441800Y-80359460D01*
X138441800Y-80066940D01*
X138384732Y-79780042D01*
X138272790Y-79509789D01*
X138110275Y-79266568D01*
X137978420Y-79134713D01*
X138050980Y-79112702D01*
X138161294Y-79053737D01*
X138257985Y-78974385D01*
X138337337Y-78877694D01*
X138396302Y-78767380D01*
X138432612Y-78647682D01*
X138444872Y-78523200D01*
X138444872Y-76823200D01*
X138432612Y-76698718D01*
X138396302Y-76579020D01*
X138337337Y-76468706D01*
X138257985Y-76372015D01*
X138161294Y-76292663D01*
X138050980Y-76233698D01*
X137931282Y-76197388D01*
X137806800Y-76185128D01*
X136106800Y-76185128D01*
X135982318Y-76197388D01*
X135862620Y-76233698D01*
X135752306Y-76292663D01*
X135655615Y-76372015D01*
X135576263Y-76468706D01*
X135517298Y-76579020D01*
X135507134Y-76612527D01*
X135409851Y-76560528D01*
X135243255Y-76509992D01*
X135070001Y-76492928D01*
X134169999Y-76492928D01*
X133996745Y-76509992D01*
X133830149Y-76560528D01*
X133676613Y-76642595D01*
X133542038Y-76753038D01*
X133431595Y-76887613D01*
X133349528Y-77041149D01*
X133298992Y-77207745D01*
X133284263Y-77357286D01*
X133282612Y-77340518D01*
X133246302Y-77220820D01*
X133187337Y-77110506D01*
X133107985Y-77013815D01*
X133011294Y-76934463D01*
X132900980Y-76875498D01*
X132781282Y-76839188D01*
X132656800Y-76826928D01*
X131559148Y-76826928D01*
X131551226Y-76787102D01*
X131473205Y-76598744D01*
X131359937Y-76429226D01*
X131215774Y-76285063D01*
X131046256Y-76171795D01*
X130857898Y-76093774D01*
X130657939Y-76054000D01*
X130454061Y-76054000D01*
X130254102Y-76093774D01*
X130065744Y-76171795D01*
X129896226Y-76285063D01*
X129752063Y-76429226D01*
X129638795Y-76598744D01*
X129560774Y-76787102D01*
X129552852Y-76826928D01*
X128396800Y-76826928D01*
X128272318Y-76839188D01*
X128152620Y-76875498D01*
X128042306Y-76934463D01*
X127945615Y-77013815D01*
X127866263Y-77110506D01*
X127807298Y-77220820D01*
X127785615Y-77292298D01*
X127465762Y-76972445D01*
X127442590Y-76944210D01*
X127329911Y-76851736D01*
X127201356Y-76783022D01*
X127061865Y-76740708D01*
X126953147Y-76730000D01*
X126953140Y-76730000D01*
X126916800Y-76726421D01*
X126880460Y-76730000D01*
X122972336Y-76730000D01*
X122935999Y-76726421D01*
X122899662Y-76730000D01*
X122899653Y-76730000D01*
X122790935Y-76740708D01*
X122651444Y-76783022D01*
X122522889Y-76851736D01*
X122410210Y-76944210D01*
X122387038Y-76972445D01*
X122057448Y-77302035D01*
X122057442Y-77302040D01*
X119914445Y-79445038D01*
X119886210Y-79468210D01*
X119793736Y-79580890D01*
X119728428Y-79703072D01*
X119725022Y-79709445D01*
X119682708Y-79848935D01*
X119682363Y-79852434D01*
X119672000Y-79957654D01*
X119672000Y-79957660D01*
X119668421Y-79994000D01*
X119672000Y-80030340D01*
X119672001Y-81152568D01*
X119579728Y-81201889D01*
X119475460Y-81287460D01*
X119389889Y-81391728D01*
X119326304Y-81510686D01*
X119287149Y-81639764D01*
X119273928Y-81774000D01*
X119273928Y-81935928D01*
X119112000Y-81935928D01*
X118977764Y-81949149D01*
X118848686Y-81988304D01*
X118729728Y-82051889D01*
X118625460Y-82137460D01*
X118539889Y-82241728D01*
X118476304Y-82360686D01*
X118437149Y-82489764D01*
X118423928Y-82624000D01*
X118423928Y-82724000D01*
X118437149Y-82858236D01*
X118441931Y-82874000D01*
X118437149Y-82889764D01*
X118423928Y-83024000D01*
X118423928Y-83124000D01*
X118437149Y-83258236D01*
X118441931Y-83274000D01*
X118437149Y-83289764D01*
X118423928Y-83424000D01*
X118423928Y-83524000D01*
X118437149Y-83658236D01*
X118441931Y-83674000D01*
X118437149Y-83689764D01*
X118423928Y-83824000D01*
X118423928Y-83924000D01*
X118437149Y-84058236D01*
X118441931Y-84074000D01*
X118437149Y-84089764D01*
X118423928Y-84224000D01*
X118423928Y-84324000D01*
X118437149Y-84458236D01*
X118441931Y-84474000D01*
X118437149Y-84489764D01*
X118423928Y-84624000D01*
X118423928Y-84724000D01*
X118437149Y-84858236D01*
X118441931Y-84874000D01*
X118437149Y-84889764D01*
X118423928Y-85024000D01*
X118423928Y-85124000D01*
X118437149Y-85258236D01*
X118441931Y-85274000D01*
X118437149Y-85289764D01*
X118423928Y-85424000D01*
X118423928Y-85524000D01*
X118437149Y-85658236D01*
X118476304Y-85787314D01*
X118539889Y-85906272D01*
X118625460Y-86010540D01*
X118729728Y-86096111D01*
X118848686Y-86159696D01*
X118977764Y-86198851D01*
X119112000Y-86212072D01*
X119273928Y-86212072D01*
X119273928Y-86374000D01*
X119287149Y-86508236D01*
X119326304Y-86637314D01*
X119389889Y-86756272D01*
X119475460Y-86860540D01*
X119579728Y-86946111D01*
X119698686Y-87009696D01*
X119827764Y-87048851D01*
X119962000Y-87062072D01*
X120062000Y-87062072D01*
X120196236Y-87048851D01*
X120212000Y-87044069D01*
X120227764Y-87048851D01*
X120362000Y-87062072D01*
X120462000Y-87062072D01*
X120472001Y-87061087D01*
X120472001Y-87152717D01*
X120468421Y-87189066D01*
X120482708Y-87334131D01*
X120502083Y-87398000D01*
X120230711Y-87398000D01*
X120166774Y-87334063D01*
X119997256Y-87220795D01*
X119808898Y-87142774D01*
X119608939Y-87103000D01*
X119405061Y-87103000D01*
X119205102Y-87142774D01*
X119016744Y-87220795D01*
X118847226Y-87334063D01*
X118783289Y-87398000D01*
X118712654Y-87398000D01*
X118694512Y-87364058D01*
X118585623Y-87231377D01*
X118452942Y-87122488D01*
X118301567Y-87041577D01*
X118137316Y-86991752D01*
X117966500Y-86974928D01*
X117729000Y-86974928D01*
X117729000Y-75710000D01*
X139290000Y-75710000D01*
X139290001Y-97290000D01*
%TA.AperFunction,Conductor*%
D22*
G36*
X139290001Y-97290000D02*
G01*
X134432485Y-97290000D01*
X134481961Y-97240524D01*
X134605659Y-97055398D01*
X134690863Y-96849696D01*
X134734300Y-96631325D01*
X134734300Y-96408675D01*
X134690863Y-96190304D01*
X134605659Y-95984602D01*
X134489054Y-95810090D01*
X135515324Y-95810090D01*
X135559975Y-95957299D01*
X135685159Y-96220120D01*
X135859212Y-96453469D01*
X136075445Y-96648378D01*
X136325548Y-96797357D01*
X136599909Y-96894681D01*
X136829800Y-96774014D01*
X136829800Y-95580200D01*
X137083800Y-95580200D01*
X137083800Y-96774014D01*
X137313691Y-96894681D01*
X137588052Y-96797357D01*
X137838155Y-96648378D01*
X138054388Y-96453469D01*
X138228441Y-96220120D01*
X138353625Y-95957299D01*
X138398276Y-95810090D01*
X138276955Y-95580200D01*
X137083800Y-95580200D01*
X136829800Y-95580200D01*
X135636645Y-95580200D01*
X135515324Y-95810090D01*
X134489054Y-95810090D01*
X134481961Y-95799476D01*
X134324524Y-95642039D01*
X134139398Y-95518341D01*
X134104776Y-95504000D01*
X134139398Y-95489659D01*
X134324524Y-95365961D01*
X134481961Y-95208524D01*
X134605659Y-95023398D01*
X134690863Y-94817696D01*
X134734300Y-94599325D01*
X134734300Y-94376675D01*
X134690863Y-94158304D01*
X134605659Y-93952602D01*
X134481961Y-93767476D01*
X134324524Y-93610039D01*
X134139398Y-93486341D01*
X133933696Y-93401137D01*
X133715325Y-93357700D01*
X133492675Y-93357700D01*
X133274304Y-93401137D01*
X133068602Y-93486341D01*
X132883476Y-93610039D01*
X132726039Y-93767476D01*
X132602341Y-93952602D01*
X132517137Y-94158304D01*
X132473700Y-94376675D01*
X132473700Y-94599325D01*
X132517137Y-94817696D01*
X132602341Y-95023398D01*
X132726039Y-95208524D01*
X132883476Y-95365961D01*
X133068602Y-95489659D01*
X133103224Y-95504000D01*
X133068602Y-95518341D01*
X132883476Y-95642039D01*
X132726039Y-95799476D01*
X132602341Y-95984602D01*
X132517137Y-96190304D01*
X132473700Y-96408675D01*
X132473700Y-96631325D01*
X132517137Y-96849696D01*
X132602341Y-97055398D01*
X132726039Y-97240524D01*
X132775515Y-97290000D01*
X129472642Y-97290000D01*
X129472642Y-97286082D01*
X129432868Y-97086123D01*
X129354847Y-96897765D01*
X129241579Y-96728247D01*
X129097416Y-96584084D01*
X129010412Y-96525950D01*
X129059398Y-96505659D01*
X129244524Y-96381961D01*
X129401961Y-96224524D01*
X129525659Y-96039398D01*
X129610863Y-95833696D01*
X129654300Y-95615325D01*
X129654300Y-95392675D01*
X129610863Y-95174304D01*
X129525659Y-94968602D01*
X129401961Y-94783476D01*
X129244524Y-94626039D01*
X129059398Y-94502341D01*
X129043244Y-94495650D01*
X129060205Y-94470266D01*
X129138226Y-94281908D01*
X129151577Y-94214786D01*
X129194518Y-94227812D01*
X129319000Y-94240072D01*
X129508250Y-94237000D01*
X129667000Y-94078250D01*
X129667000Y-93204000D01*
X129921000Y-93204000D01*
X129921000Y-94078250D01*
X130079750Y-94237000D01*
X130269000Y-94240072D01*
X130393482Y-94227812D01*
X130513180Y-94191502D01*
X130623494Y-94132537D01*
X130674470Y-94090702D01*
X130742506Y-94146537D01*
X130852820Y-94205502D01*
X130972518Y-94241812D01*
X131097000Y-94254072D01*
X131286250Y-94251000D01*
X131445000Y-94092250D01*
X131445000Y-93218000D01*
X131699000Y-93218000D01*
X131699000Y-94092250D01*
X131857750Y-94251000D01*
X132047000Y-94254072D01*
X132171482Y-94241812D01*
X132291180Y-94205502D01*
X132401494Y-94146537D01*
X132498185Y-94067185D01*
X132577537Y-93970494D01*
X132636502Y-93860180D01*
X132672812Y-93740482D01*
X132685072Y-93616000D01*
X132682000Y-93376750D01*
X132523250Y-93218000D01*
X131699000Y-93218000D01*
X131445000Y-93218000D01*
X130759250Y-93218000D01*
X130745250Y-93204000D01*
X129921000Y-93204000D01*
X129667000Y-93204000D01*
X128842750Y-93204000D01*
X128836726Y-93210025D01*
X128802774Y-93176073D01*
X128633256Y-93062805D01*
X128444898Y-92984784D01*
X128388044Y-92973475D01*
X128307000Y-92892432D01*
X128307000Y-92689454D01*
X128366180Y-92671502D01*
X128476494Y-92612537D01*
X128573185Y-92533185D01*
X128652537Y-92436494D01*
X128711502Y-92326180D01*
X128747812Y-92206482D01*
X128751208Y-92172000D01*
X128809395Y-92172000D01*
X128788463Y-92197506D01*
X128729498Y-92307820D01*
X128693188Y-92427518D01*
X128680928Y-92552000D01*
X128684000Y-92791250D01*
X128842750Y-92950000D01*
X129667000Y-92950000D01*
X129667000Y-92930000D01*
X129921000Y-92930000D01*
X129921000Y-92950000D01*
X130606750Y-92950000D01*
X130620750Y-92964000D01*
X131445000Y-92964000D01*
X131445000Y-92944000D01*
X131699000Y-92944000D01*
X131699000Y-92964000D01*
X132523250Y-92964000D01*
X132682000Y-92805250D01*
X132685072Y-92566000D01*
X132672812Y-92441518D01*
X132636502Y-92321820D01*
X132577537Y-92211506D01*
X132517901Y-92138839D01*
X132537512Y-92114942D01*
X132582725Y-92030353D01*
X132590556Y-92027978D01*
X132719111Y-91959264D01*
X132831790Y-91866790D01*
X132854962Y-91838555D01*
X133974561Y-90718957D01*
X134002790Y-90695790D01*
X134034200Y-90657518D01*
X134070119Y-90613750D01*
X134095264Y-90583111D01*
X134163978Y-90454556D01*
X134193791Y-90356276D01*
X134206292Y-90315066D01*
X134208596Y-90291668D01*
X134217000Y-90206347D01*
X134217000Y-90206341D01*
X134220579Y-90170001D01*
X134217000Y-90133661D01*
X134217000Y-88808340D01*
X134220579Y-88772000D01*
X134217000Y-88735660D01*
X134217000Y-88735653D01*
X134210911Y-88673828D01*
X135520283Y-89983201D01*
X135471800Y-90226940D01*
X135471800Y-90519460D01*
X135528868Y-90806358D01*
X135640810Y-91076611D01*
X135803325Y-91319832D01*
X136010168Y-91526675D01*
X136184560Y-91643200D01*
X136010168Y-91759725D01*
X135803325Y-91966568D01*
X135640810Y-92209789D01*
X135528868Y-92480042D01*
X135471800Y-92766940D01*
X135471800Y-93059460D01*
X135528868Y-93346358D01*
X135640810Y-93616611D01*
X135803325Y-93859832D01*
X136010168Y-94066675D01*
X136192334Y-94188395D01*
X136075445Y-94258022D01*
X135859212Y-94452931D01*
X135685159Y-94686280D01*
X135559975Y-94949101D01*
X135515324Y-95096310D01*
X135636645Y-95326200D01*
X136829800Y-95326200D01*
X136829800Y-95306200D01*
X137083800Y-95306200D01*
X137083800Y-95326200D01*
X138276955Y-95326200D01*
X138398276Y-95096310D01*
X138353625Y-94949101D01*
X138228441Y-94686280D01*
X138054388Y-94452931D01*
X137838155Y-94258022D01*
X137721266Y-94188395D01*
X137903432Y-94066675D01*
X138110275Y-93859832D01*
X138272790Y-93616611D01*
X138384732Y-93346358D01*
X138441800Y-93059460D01*
X138441800Y-92766940D01*
X138384732Y-92480042D01*
X138272790Y-92209789D01*
X138110275Y-91966568D01*
X137903432Y-91759725D01*
X137729040Y-91643200D01*
X137903432Y-91526675D01*
X138110275Y-91319832D01*
X138272790Y-91076611D01*
X138384732Y-90806358D01*
X138441800Y-90519460D01*
X138441800Y-90226940D01*
X138384732Y-89940042D01*
X138272790Y-89669789D01*
X138110275Y-89426568D01*
X137903432Y-89219725D01*
X137729040Y-89103200D01*
X137903432Y-88986675D01*
X138110275Y-88779832D01*
X138272790Y-88536611D01*
X138384732Y-88266358D01*
X138441800Y-87979460D01*
X138441800Y-87686940D01*
X138384732Y-87400042D01*
X138272790Y-87129789D01*
X138110275Y-86886568D01*
X137903432Y-86679725D01*
X137729040Y-86563200D01*
X137903432Y-86446675D01*
X138110275Y-86239832D01*
X138272790Y-85996611D01*
X138384732Y-85726358D01*
X138441800Y-85439460D01*
X138441800Y-85146940D01*
X138384732Y-84860042D01*
X138272790Y-84589789D01*
X138110275Y-84346568D01*
X137903432Y-84139725D01*
X137729040Y-84023200D01*
X137903432Y-83906675D01*
X138110275Y-83699832D01*
X138272790Y-83456611D01*
X138384732Y-83186358D01*
X138441800Y-82899460D01*
X138441800Y-82606940D01*
X138384732Y-82320042D01*
X138272790Y-82049789D01*
X138110275Y-81806568D01*
X137903432Y-81599725D01*
X137729040Y-81483200D01*
X137903432Y-81366675D01*
X138110275Y-81159832D01*
X138272790Y-80916611D01*
X138384732Y-80646358D01*
X138441800Y-80359460D01*
X138441800Y-80066940D01*
X138384732Y-79780042D01*
X138272790Y-79509789D01*
X138110275Y-79266568D01*
X137978420Y-79134713D01*
X138050980Y-79112702D01*
X138161294Y-79053737D01*
X138257985Y-78974385D01*
X138337337Y-78877694D01*
X138396302Y-78767380D01*
X138432612Y-78647682D01*
X138444872Y-78523200D01*
X138444872Y-76823200D01*
X138432612Y-76698718D01*
X138396302Y-76579020D01*
X138337337Y-76468706D01*
X138257985Y-76372015D01*
X138161294Y-76292663D01*
X138050980Y-76233698D01*
X137931282Y-76197388D01*
X137806800Y-76185128D01*
X136106800Y-76185128D01*
X135982318Y-76197388D01*
X135862620Y-76233698D01*
X135752306Y-76292663D01*
X135655615Y-76372015D01*
X135576263Y-76468706D01*
X135517298Y-76579020D01*
X135507134Y-76612527D01*
X135409851Y-76560528D01*
X135243255Y-76509992D01*
X135070001Y-76492928D01*
X134169999Y-76492928D01*
X133996745Y-76509992D01*
X133830149Y-76560528D01*
X133676613Y-76642595D01*
X133542038Y-76753038D01*
X133431595Y-76887613D01*
X133349528Y-77041149D01*
X133298992Y-77207745D01*
X133284263Y-77357286D01*
X133282612Y-77340518D01*
X133246302Y-77220820D01*
X133187337Y-77110506D01*
X133107985Y-77013815D01*
X133011294Y-76934463D01*
X132900980Y-76875498D01*
X132781282Y-76839188D01*
X132656800Y-76826928D01*
X131559148Y-76826928D01*
X131551226Y-76787102D01*
X131473205Y-76598744D01*
X131359937Y-76429226D01*
X131215774Y-76285063D01*
X131046256Y-76171795D01*
X130857898Y-76093774D01*
X130657939Y-76054000D01*
X130454061Y-76054000D01*
X130254102Y-76093774D01*
X130065744Y-76171795D01*
X129896226Y-76285063D01*
X129752063Y-76429226D01*
X129638795Y-76598744D01*
X129560774Y-76787102D01*
X129552852Y-76826928D01*
X128396800Y-76826928D01*
X128272318Y-76839188D01*
X128152620Y-76875498D01*
X128042306Y-76934463D01*
X127945615Y-77013815D01*
X127866263Y-77110506D01*
X127807298Y-77220820D01*
X127785615Y-77292298D01*
X127465762Y-76972445D01*
X127442590Y-76944210D01*
X127329911Y-76851736D01*
X127201356Y-76783022D01*
X127061865Y-76740708D01*
X126953147Y-76730000D01*
X126953140Y-76730000D01*
X126916800Y-76726421D01*
X126880460Y-76730000D01*
X122972336Y-76730000D01*
X122935999Y-76726421D01*
X122899662Y-76730000D01*
X122899653Y-76730000D01*
X122790935Y-76740708D01*
X122651444Y-76783022D01*
X122522889Y-76851736D01*
X122410210Y-76944210D01*
X122387038Y-76972445D01*
X122057448Y-77302035D01*
X122057442Y-77302040D01*
X119914445Y-79445038D01*
X119886210Y-79468210D01*
X119793736Y-79580890D01*
X119728428Y-79703072D01*
X119725022Y-79709445D01*
X119682708Y-79848935D01*
X119682363Y-79852434D01*
X119672000Y-79957654D01*
X119672000Y-79957660D01*
X119668421Y-79994000D01*
X119672000Y-80030340D01*
X119672001Y-81152568D01*
X119579728Y-81201889D01*
X119475460Y-81287460D01*
X119389889Y-81391728D01*
X119326304Y-81510686D01*
X119287149Y-81639764D01*
X119273928Y-81774000D01*
X119273928Y-81935928D01*
X119112000Y-81935928D01*
X118977764Y-81949149D01*
X118848686Y-81988304D01*
X118729728Y-82051889D01*
X118625460Y-82137460D01*
X118539889Y-82241728D01*
X118476304Y-82360686D01*
X118437149Y-82489764D01*
X118423928Y-82624000D01*
X118423928Y-82724000D01*
X118437149Y-82858236D01*
X118441931Y-82874000D01*
X118437149Y-82889764D01*
X118423928Y-83024000D01*
X118423928Y-83124000D01*
X118437149Y-83258236D01*
X118441931Y-83274000D01*
X118437149Y-83289764D01*
X118423928Y-83424000D01*
X118423928Y-83524000D01*
X118437149Y-83658236D01*
X118441931Y-83674000D01*
X118437149Y-83689764D01*
X118423928Y-83824000D01*
X118423928Y-83924000D01*
X118437149Y-84058236D01*
X118441931Y-84074000D01*
X118437149Y-84089764D01*
X118423928Y-84224000D01*
X118423928Y-84324000D01*
X118437149Y-84458236D01*
X118441931Y-84474000D01*
X118437149Y-84489764D01*
X118423928Y-84624000D01*
X118423928Y-84724000D01*
X118437149Y-84858236D01*
X118441931Y-84874000D01*
X118437149Y-84889764D01*
X118423928Y-85024000D01*
X118423928Y-85124000D01*
X118437149Y-85258236D01*
X118441931Y-85274000D01*
X118437149Y-85289764D01*
X118423928Y-85424000D01*
X118423928Y-85524000D01*
X118437149Y-85658236D01*
X118476304Y-85787314D01*
X118539889Y-85906272D01*
X118625460Y-86010540D01*
X118729728Y-86096111D01*
X118848686Y-86159696D01*
X118977764Y-86198851D01*
X119112000Y-86212072D01*
X119273928Y-86212072D01*
X119273928Y-86374000D01*
X119287149Y-86508236D01*
X119326304Y-86637314D01*
X119389889Y-86756272D01*
X119475460Y-86860540D01*
X119579728Y-86946111D01*
X119698686Y-87009696D01*
X119827764Y-87048851D01*
X119962000Y-87062072D01*
X120062000Y-87062072D01*
X120196236Y-87048851D01*
X120212000Y-87044069D01*
X120227764Y-87048851D01*
X120362000Y-87062072D01*
X120462000Y-87062072D01*
X120472001Y-87061087D01*
X120472001Y-87152717D01*
X120468421Y-87189066D01*
X120482708Y-87334131D01*
X120502083Y-87398000D01*
X120230711Y-87398000D01*
X120166774Y-87334063D01*
X119997256Y-87220795D01*
X119808898Y-87142774D01*
X119608939Y-87103000D01*
X119405061Y-87103000D01*
X119205102Y-87142774D01*
X119016744Y-87220795D01*
X118847226Y-87334063D01*
X118783289Y-87398000D01*
X118712654Y-87398000D01*
X118694512Y-87364058D01*
X118585623Y-87231377D01*
X118452942Y-87122488D01*
X118301567Y-87041577D01*
X118137316Y-86991752D01*
X117966500Y-86974928D01*
X117729000Y-86974928D01*
X117729000Y-75710000D01*
X139290000Y-75710000D01*
X139290001Y-97290000D01*
G37*
%TD.AperFunction*%
D21*
X121285000Y-91680000D02*
X121305000Y-91680000D01*
X121305000Y-91934000D01*
X121285000Y-91934000D01*
X121285000Y-92808250D01*
X121443750Y-92967000D01*
X121633000Y-92970072D01*
X121757482Y-92957812D01*
X121877180Y-92921502D01*
X121987494Y-92862537D01*
X122084185Y-92783185D01*
X122137000Y-92718829D01*
X122137001Y-93129975D01*
X122067774Y-93297102D01*
X122028000Y-93497061D01*
X122028000Y-93700939D01*
X122067774Y-93900898D01*
X122145795Y-94089256D01*
X122259063Y-94258774D01*
X122270217Y-94269928D01*
X121578000Y-94269928D01*
X121453518Y-94282188D01*
X121333820Y-94318498D01*
X121223506Y-94377463D01*
X121126815Y-94456815D01*
X121047463Y-94553506D01*
X120988498Y-94663820D01*
X120952188Y-94783518D01*
X120943375Y-94873000D01*
X120678579Y-94873000D01*
X120185579Y-94380000D01*
X120243939Y-94380000D01*
X120443898Y-94340226D01*
X120632256Y-94262205D01*
X120801774Y-94148937D01*
X120945937Y-94004774D01*
X121059205Y-93835256D01*
X121137226Y-93646898D01*
X121177000Y-93446939D01*
X121177000Y-93243061D01*
X121137226Y-93043102D01*
X121059205Y-92854744D01*
X121029285Y-92809965D01*
X121031000Y-92808250D01*
X121031000Y-91934000D01*
X121011000Y-91934000D01*
X121011000Y-91680000D01*
X121031000Y-91680000D01*
X121031000Y-91660000D01*
X121285000Y-91660000D01*
X121285000Y-91680000D01*
%TA.AperFunction,Conductor*%
D22*
G36*
X121285000Y-91680000D02*
G01*
X121305000Y-91680000D01*
X121305000Y-91934000D01*
X121285000Y-91934000D01*
X121285000Y-92808250D01*
X121443750Y-92967000D01*
X121633000Y-92970072D01*
X121757482Y-92957812D01*
X121877180Y-92921502D01*
X121987494Y-92862537D01*
X122084185Y-92783185D01*
X122137000Y-92718829D01*
X122137001Y-93129975D01*
X122067774Y-93297102D01*
X122028000Y-93497061D01*
X122028000Y-93700939D01*
X122067774Y-93900898D01*
X122145795Y-94089256D01*
X122259063Y-94258774D01*
X122270217Y-94269928D01*
X121578000Y-94269928D01*
X121453518Y-94282188D01*
X121333820Y-94318498D01*
X121223506Y-94377463D01*
X121126815Y-94456815D01*
X121047463Y-94553506D01*
X120988498Y-94663820D01*
X120952188Y-94783518D01*
X120943375Y-94873000D01*
X120678579Y-94873000D01*
X120185579Y-94380000D01*
X120243939Y-94380000D01*
X120443898Y-94340226D01*
X120632256Y-94262205D01*
X120801774Y-94148937D01*
X120945937Y-94004774D01*
X121059205Y-93835256D01*
X121137226Y-93646898D01*
X121177000Y-93446939D01*
X121177000Y-93243061D01*
X121137226Y-93043102D01*
X121059205Y-92854744D01*
X121029285Y-92809965D01*
X121031000Y-92808250D01*
X121031000Y-91934000D01*
X121011000Y-91934000D01*
X121011000Y-91680000D01*
X121031000Y-91680000D01*
X121031000Y-91660000D01*
X121285000Y-91660000D01*
X121285000Y-91680000D01*
G37*
%TD.AperFunction*%
D21*
X118014750Y-91048000D02*
X118204000Y-91051072D01*
X118328482Y-91038812D01*
X118448180Y-91002502D01*
X118558494Y-90943537D01*
X118603548Y-90906562D01*
X118624425Y-90932000D01*
X118541488Y-91033058D01*
X118460669Y-91184261D01*
X118431180Y-91168498D01*
X118311482Y-91132188D01*
X118187000Y-91119928D01*
X117729000Y-91119928D01*
X117729000Y-91048000D01*
X117856002Y-91048000D01*
X117856002Y-90889252D01*
X118014750Y-91048000D01*
%TA.AperFunction,Conductor*%
D22*
G36*
X118014750Y-91048000D02*
G01*
X118204000Y-91051072D01*
X118328482Y-91038812D01*
X118448180Y-91002502D01*
X118558494Y-90943537D01*
X118603548Y-90906562D01*
X118624425Y-90932000D01*
X118541488Y-91033058D01*
X118460669Y-91184261D01*
X118431180Y-91168498D01*
X118311482Y-91132188D01*
X118187000Y-91119928D01*
X117729000Y-91119928D01*
X117729000Y-91048000D01*
X117856002Y-91048000D01*
X117856002Y-90889252D01*
X118014750Y-91048000D01*
G37*
%TD.AperFunction*%
D21*
X117856000Y-89761000D02*
X117876000Y-89761000D01*
X117876000Y-90015000D01*
X117856000Y-90015000D01*
X117856000Y-90035000D01*
X117729000Y-90035000D01*
X117729000Y-89741000D01*
X117856000Y-89741000D01*
X117856000Y-89761000D01*
%TA.AperFunction,Conductor*%
D22*
G36*
X117856000Y-89761000D02*
G01*
X117876000Y-89761000D01*
X117876000Y-90015000D01*
X117856000Y-90015000D01*
X117856000Y-90035000D01*
X117729000Y-90035000D01*
X117729000Y-89741000D01*
X117856000Y-89741000D01*
X117856000Y-89761000D01*
G37*
%TD.AperFunction*%
D21*
X132959506Y-84821797D02*
X132854180Y-84765498D01*
X132734482Y-84729188D01*
X132610000Y-84716928D01*
X129010000Y-84716928D01*
X128885518Y-84729188D01*
X128765820Y-84765498D01*
X128655506Y-84824463D01*
X128558815Y-84903815D01*
X128479463Y-85000506D01*
X128420498Y-85110820D01*
X128384188Y-85230518D01*
X128371928Y-85355000D01*
X128371928Y-85363418D01*
X128340502Y-85259820D01*
X128281537Y-85149506D01*
X128202185Y-85052815D01*
X128105494Y-84973463D01*
X127995180Y-84914498D01*
X127875482Y-84878188D01*
X127751000Y-84865928D01*
X127511750Y-84869000D01*
X127353000Y-85027750D01*
X127353000Y-85852000D01*
X127373000Y-85852000D01*
X127373000Y-86106000D01*
X127353000Y-86106000D01*
X127353000Y-87630000D01*
X128227250Y-87630000D01*
X128386000Y-87471250D01*
X128389072Y-87282000D01*
X128376812Y-87157518D01*
X128340502Y-87037820D01*
X128281537Y-86927506D01*
X128232702Y-86868000D01*
X128281537Y-86808494D01*
X128340502Y-86698180D01*
X128371928Y-86594582D01*
X128371928Y-86855000D01*
X128384188Y-86979482D01*
X128420498Y-87099180D01*
X128479463Y-87209494D01*
X128558815Y-87306185D01*
X128655506Y-87385537D01*
X128765820Y-87444502D01*
X128885518Y-87480812D01*
X129010000Y-87493072D01*
X131151555Y-87493072D01*
X131425411Y-87766928D01*
X129010000Y-87766928D01*
X128885518Y-87779188D01*
X128765820Y-87815498D01*
X128655506Y-87874463D01*
X128558815Y-87953815D01*
X128479463Y-88050506D01*
X128420498Y-88160820D01*
X128384344Y-88280003D01*
X128389072Y-88232000D01*
X128386000Y-88042750D01*
X128227250Y-87884000D01*
X127353000Y-87884000D01*
X127353000Y-88708250D01*
X127476116Y-88831366D01*
X127163555Y-89143928D01*
X126722000Y-89143928D01*
X126597518Y-89156188D01*
X126477820Y-89192498D01*
X126367506Y-89251463D01*
X126270815Y-89330815D01*
X126191463Y-89427506D01*
X126180860Y-89447342D01*
X125603590Y-88870072D01*
X125763500Y-88870072D01*
X125934316Y-88853248D01*
X126098567Y-88803423D01*
X126249942Y-88722512D01*
X126273839Y-88702901D01*
X126346506Y-88762537D01*
X126456820Y-88821502D01*
X126576518Y-88857812D01*
X126701000Y-88870072D01*
X126940250Y-88867000D01*
X127099000Y-88708250D01*
X127099000Y-87884000D01*
X127079000Y-87884000D01*
X127079000Y-87630000D01*
X127099000Y-87630000D01*
X127099000Y-86106000D01*
X127079000Y-86106000D01*
X127079000Y-85852000D01*
X127099000Y-85852000D01*
X127099000Y-85027750D01*
X126940250Y-84869000D01*
X126701000Y-84865928D01*
X126694914Y-84866527D01*
X126751000Y-84731124D01*
X126790774Y-84531165D01*
X126790774Y-84327287D01*
X126769435Y-84220010D01*
X126847939Y-84220010D01*
X127047898Y-84180236D01*
X127236256Y-84102215D01*
X127405774Y-83988947D01*
X127549937Y-83844784D01*
X127663205Y-83675266D01*
X127741226Y-83486908D01*
X127780393Y-83290000D01*
X131427710Y-83290000D01*
X132959506Y-84821797D01*
%TA.AperFunction,Conductor*%
D22*
G36*
X132959506Y-84821797D02*
G01*
X132854180Y-84765498D01*
X132734482Y-84729188D01*
X132610000Y-84716928D01*
X129010000Y-84716928D01*
X128885518Y-84729188D01*
X128765820Y-84765498D01*
X128655506Y-84824463D01*
X128558815Y-84903815D01*
X128479463Y-85000506D01*
X128420498Y-85110820D01*
X128384188Y-85230518D01*
X128371928Y-85355000D01*
X128371928Y-85363418D01*
X128340502Y-85259820D01*
X128281537Y-85149506D01*
X128202185Y-85052815D01*
X128105494Y-84973463D01*
X127995180Y-84914498D01*
X127875482Y-84878188D01*
X127751000Y-84865928D01*
X127511750Y-84869000D01*
X127353000Y-85027750D01*
X127353000Y-85852000D01*
X127373000Y-85852000D01*
X127373000Y-86106000D01*
X127353000Y-86106000D01*
X127353000Y-87630000D01*
X128227250Y-87630000D01*
X128386000Y-87471250D01*
X128389072Y-87282000D01*
X128376812Y-87157518D01*
X128340502Y-87037820D01*
X128281537Y-86927506D01*
X128232702Y-86868000D01*
X128281537Y-86808494D01*
X128340502Y-86698180D01*
X128371928Y-86594582D01*
X128371928Y-86855000D01*
X128384188Y-86979482D01*
X128420498Y-87099180D01*
X128479463Y-87209494D01*
X128558815Y-87306185D01*
X128655506Y-87385537D01*
X128765820Y-87444502D01*
X128885518Y-87480812D01*
X129010000Y-87493072D01*
X131151555Y-87493072D01*
X131425411Y-87766928D01*
X129010000Y-87766928D01*
X128885518Y-87779188D01*
X128765820Y-87815498D01*
X128655506Y-87874463D01*
X128558815Y-87953815D01*
X128479463Y-88050506D01*
X128420498Y-88160820D01*
X128384344Y-88280003D01*
X128389072Y-88232000D01*
X128386000Y-88042750D01*
X128227250Y-87884000D01*
X127353000Y-87884000D01*
X127353000Y-88708250D01*
X127476116Y-88831366D01*
X127163555Y-89143928D01*
X126722000Y-89143928D01*
X126597518Y-89156188D01*
X126477820Y-89192498D01*
X126367506Y-89251463D01*
X126270815Y-89330815D01*
X126191463Y-89427506D01*
X126180860Y-89447342D01*
X125603590Y-88870072D01*
X125763500Y-88870072D01*
X125934316Y-88853248D01*
X126098567Y-88803423D01*
X126249942Y-88722512D01*
X126273839Y-88702901D01*
X126346506Y-88762537D01*
X126456820Y-88821502D01*
X126576518Y-88857812D01*
X126701000Y-88870072D01*
X126940250Y-88867000D01*
X127099000Y-88708250D01*
X127099000Y-87884000D01*
X127079000Y-87884000D01*
X127079000Y-87630000D01*
X127099000Y-87630000D01*
X127099000Y-86106000D01*
X127079000Y-86106000D01*
X127079000Y-85852000D01*
X127099000Y-85852000D01*
X127099000Y-85027750D01*
X126940250Y-84869000D01*
X126701000Y-84865928D01*
X126694914Y-84866527D01*
X126751000Y-84731124D01*
X126790774Y-84531165D01*
X126790774Y-84327287D01*
X126769435Y-84220010D01*
X126847939Y-84220010D01*
X127047898Y-84180236D01*
X127236256Y-84102215D01*
X127405774Y-83988947D01*
X127549937Y-83844784D01*
X127663205Y-83675266D01*
X127741226Y-83486908D01*
X127780393Y-83290000D01*
X131427710Y-83290000D01*
X132959506Y-84821797D01*
G37*
%TD.AperFunction*%
D21*
X124569377Y-85122377D02*
X124460488Y-85255058D01*
X124398047Y-85371877D01*
X124394806Y-85370535D01*
X124386851Y-85289764D01*
X124382069Y-85274000D01*
X124386851Y-85258236D01*
X124400072Y-85124000D01*
X124400072Y-85024000D01*
X124399087Y-85014000D01*
X124701434Y-85014000D01*
X124569377Y-85122377D01*
%TA.AperFunction,Conductor*%
D22*
G36*
X124569377Y-85122377D02*
G01*
X124460488Y-85255058D01*
X124398047Y-85371877D01*
X124394806Y-85370535D01*
X124386851Y-85289764D01*
X124382069Y-85274000D01*
X124386851Y-85258236D01*
X124400072Y-85124000D01*
X124400072Y-85024000D01*
X124399087Y-85014000D01*
X124701434Y-85014000D01*
X124569377Y-85122377D01*
G37*
%TD.AperFunction*%
D21*
X121539000Y-83947000D02*
X121559000Y-83947000D01*
X121559000Y-84201000D01*
X121539000Y-84201000D01*
X121539000Y-84221000D01*
X121285000Y-84221000D01*
X121285000Y-84201000D01*
X121265000Y-84201000D01*
X121265000Y-83947000D01*
X121285000Y-83947000D01*
X121285000Y-83927000D01*
X121539000Y-83927000D01*
X121539000Y-83947000D01*
%TA.AperFunction,Conductor*%
D22*
G36*
X121539000Y-83947000D02*
G01*
X121559000Y-83947000D01*
X121559000Y-84201000D01*
X121539000Y-84201000D01*
X121539000Y-84221000D01*
X121285000Y-84221000D01*
X121285000Y-84201000D01*
X121265000Y-84201000D01*
X121265000Y-83947000D01*
X121285000Y-83947000D01*
X121285000Y-83927000D01*
X121539000Y-83927000D01*
X121539000Y-83947000D01*
G37*
%TD.AperFunction*%
%TD*%
M02*
