M48
; DRILL file {KiCad (5.1.10-1-10_14)} date Tuesday, August 31, 2021 at 12:45:17 PM
; FORMAT={-:-/ absolute / inch / decimal}
; #@! TF.CreationDate,2021-08-31T12:45:17-05:00
; #@! TF.GenerationSoftware,Kicad,Pcbnew,(5.1.10-1-10_14)
; #@! TF.FileFunction,Plated,1,2,PTH
FMAT,2
INCH
T1C0.0157
T2C0.0394
%
G90
G05
T1
X4.53Y-3.77
X4.705Y-3.47
X4.73Y-3.675
X4.78Y-3.31
X4.845Y-3.685
X4.86Y-3.18
X4.885Y-3.4
X4.91Y-3.3429
X4.951Y-3.324
X4.96Y-3.155
X4.99Y-3.275
X5.0098Y-3.8211
X5.045Y-3.7
X5.0566Y-3.8342
X5.14Y-3.035
X5.2116Y-3.325
X5.25Y-2.99
X5.255Y-3.255
X5.33Y-3.41
T2
X4.82Y-3.77
X4.92Y-3.77
X5.392Y-3.058
X5.392Y-3.158
X5.392Y-3.258
X5.392Y-3.358
X5.392Y-3.458
X5.392Y-3.558
X5.392Y-3.658
X5.392Y-3.758
T0
M30
