G04 #@! TF.GenerationSoftware,KiCad,Pcbnew,(5.1.10)-1*
G04 #@! TF.CreationDate,2021-10-01T13:23:57-05:00*
G04 #@! TF.ProjectId,wireless_measurement_ard,77697265-6c65-4737-935f-6d6561737572,rev?*
G04 #@! TF.SameCoordinates,Original*
G04 #@! TF.FileFunction,Paste,Top*
G04 #@! TF.FilePolarity,Positive*
%FSLAX46Y46*%
G04 Gerber Fmt 4.6, Leading zero omitted, Abs format (unit mm)*
G04 Created by KiCad (PCBNEW (5.1.10)-1) date 2021-10-01 13:23:57*
%MOMM*%
%LPD*%
G01*
G04 APERTURE LIST*
%ADD10R,2.000000X0.800000*%
%ADD11R,0.800000X2.000000*%
G04 APERTURE END LIST*
D10*
X129923000Y-78570000D03*
X129923000Y-80070000D03*
X129923000Y-81570000D03*
X129923000Y-83070000D03*
X129923000Y-84570000D03*
X129923000Y-86070000D03*
X129923000Y-87570000D03*
D11*
X128823000Y-90890000D03*
X128823000Y-76750000D03*
X127323000Y-76750000D03*
X127323000Y-90890000D03*
X125823000Y-90890000D03*
X125823000Y-76750000D03*
X124323000Y-76750000D03*
X124323000Y-90890000D03*
X122823000Y-90890000D03*
X122823000Y-76750000D03*
X121323000Y-76750000D03*
X121323000Y-90890000D03*
X119823000Y-90890000D03*
X119823000Y-76750000D03*
X118323000Y-76750000D03*
D10*
X129923000Y-89070000D03*
D11*
X118323000Y-90890000D03*
G36*
G01*
X137143500Y-90356500D02*
X136668500Y-90356500D01*
G75*
G02*
X136431000Y-90119000I0J237500D01*
G01*
X136431000Y-89619000D01*
G75*
G02*
X136668500Y-89381500I237500J0D01*
G01*
X137143500Y-89381500D01*
G75*
G02*
X137381000Y-89619000I0J-237500D01*
G01*
X137381000Y-90119000D01*
G75*
G02*
X137143500Y-90356500I-237500J0D01*
G01*
G37*
G36*
G01*
X137143500Y-92181500D02*
X136668500Y-92181500D01*
G75*
G02*
X136431000Y-91944000I0J237500D01*
G01*
X136431000Y-91444000D01*
G75*
G02*
X136668500Y-91206500I237500J0D01*
G01*
X137143500Y-91206500D01*
G75*
G02*
X137381000Y-91444000I0J-237500D01*
G01*
X137381000Y-91944000D01*
G75*
G02*
X137143500Y-92181500I-237500J0D01*
G01*
G37*
G36*
G01*
X137989500Y-88375500D02*
X137989500Y-87900500D01*
G75*
G02*
X138227000Y-87663000I237500J0D01*
G01*
X138727000Y-87663000D01*
G75*
G02*
X138964500Y-87900500I0J-237500D01*
G01*
X138964500Y-88375500D01*
G75*
G02*
X138727000Y-88613000I-237500J0D01*
G01*
X138227000Y-88613000D01*
G75*
G02*
X137989500Y-88375500I0J237500D01*
G01*
G37*
G36*
G01*
X136164500Y-88375500D02*
X136164500Y-87900500D01*
G75*
G02*
X136402000Y-87663000I237500J0D01*
G01*
X136902000Y-87663000D01*
G75*
G02*
X137139500Y-87900500I0J-237500D01*
G01*
X137139500Y-88375500D01*
G75*
G02*
X136902000Y-88613000I-237500J0D01*
G01*
X136402000Y-88613000D01*
G75*
G02*
X136164500Y-88375500I0J237500D01*
G01*
G37*
G36*
G01*
X134386500Y-88375500D02*
X134386500Y-87900500D01*
G75*
G02*
X134624000Y-87663000I237500J0D01*
G01*
X135124000Y-87663000D01*
G75*
G02*
X135361500Y-87900500I0J-237500D01*
G01*
X135361500Y-88375500D01*
G75*
G02*
X135124000Y-88613000I-237500J0D01*
G01*
X134624000Y-88613000D01*
G75*
G02*
X134386500Y-88375500I0J237500D01*
G01*
G37*
G36*
G01*
X132561500Y-88375500D02*
X132561500Y-87900500D01*
G75*
G02*
X132799000Y-87663000I237500J0D01*
G01*
X133299000Y-87663000D01*
G75*
G02*
X133536500Y-87900500I0J-237500D01*
G01*
X133536500Y-88375500D01*
G75*
G02*
X133299000Y-88613000I-237500J0D01*
G01*
X132799000Y-88613000D01*
G75*
G02*
X132561500Y-88375500I0J237500D01*
G01*
G37*
G36*
G01*
X134876250Y-91928500D02*
X134363750Y-91928500D01*
G75*
G02*
X134145000Y-91709750I0J218750D01*
G01*
X134145000Y-91272250D01*
G75*
G02*
X134363750Y-91053500I218750J0D01*
G01*
X134876250Y-91053500D01*
G75*
G02*
X135095000Y-91272250I0J-218750D01*
G01*
X135095000Y-91709750D01*
G75*
G02*
X134876250Y-91928500I-218750J0D01*
G01*
G37*
G36*
G01*
X134876250Y-90353500D02*
X134363750Y-90353500D01*
G75*
G02*
X134145000Y-90134750I0J218750D01*
G01*
X134145000Y-89697250D01*
G75*
G02*
X134363750Y-89478500I218750J0D01*
G01*
X134876250Y-89478500D01*
G75*
G02*
X135095000Y-89697250I0J-218750D01*
G01*
X135095000Y-90134750D01*
G75*
G02*
X134876250Y-90353500I-218750J0D01*
G01*
G37*
M02*
