%TF.GenerationSoftware,KiCad,Pcbnew,(5.1.10)-1*%
%TF.CreationDate,2021-10-03T20:24:18-05:00*%
%TF.ProjectId,wireless_measurement_ard,77697265-6c65-4737-935f-6d6561737572,rev?*%
%TF.SameCoordinates,Original*%
%TF.FileFunction,Copper,L2,Bot*%
%TF.FilePolarity,Positive*%
%FSLAX46Y46*%
G04 Gerber Fmt 4.6, Leading zero omitted, Abs format (unit mm)*
G04 Created by KiCad (PCBNEW (5.1.10)-1) date 2021-10-03 20:24:18*
%MOMM*%
%LPD*%
G01*
G04 APERTURE LIST*
%TA.AperFunction,SMDPad,CuDef*%
%ADD10C,0.200000*%
%TD*%
%TA.AperFunction,SMDPad,CuDef*%
%ADD11R,1.250000X2.500000*%
%TD*%
%TA.AperFunction,SMDPad,CuDef*%
%ADD12R,2.900000X2.900000*%
%TD*%
%TA.AperFunction,SMDPad,CuDef*%
%ADD13R,3.600000X1.500000*%
%TD*%
%TA.AperFunction,SMDPad,CuDef*%
%ADD14R,1.400000X0.300000*%
%TD*%
%TA.AperFunction,ComponentPad*%
%ADD15O,1.700000X1.700000*%
%TD*%
%TA.AperFunction,ComponentPad*%
%ADD16R,1.700000X1.700000*%
%TD*%
%TA.AperFunction,ViaPad*%
%ADD17C,0.800000*%
%TD*%
%TA.AperFunction,Conductor*%
%ADD18C,0.210000*%
%TD*%
%TA.AperFunction,Conductor*%
%ADD19C,0.250000*%
%TD*%
%TA.AperFunction,Conductor*%
%ADD20C,0.500000*%
%TD*%
%TA.AperFunction,Conductor*%
%ADD21C,0.254000*%
%TD*%
%TA.AperFunction,Conductor*%
%ADD22C,0.100000*%
%TD*%
G04 APERTURE END LIST*
D10*
%TO.P,U4,B4*%
%TO.N,MAX_SHDN*%
X131279900Y-78143100D03*
%TO.P,U4,A4*%
%TO.N,+3V3*%
X131279900Y-77793100D03*
%TO.P,U4,B3*%
%TO.N,GND*%
X131629900Y-78143100D03*
%TO.P,U4,A3*%
%TO.N,A0*%
X131629900Y-77793100D03*
%TO.P,U4,B2*%
%TO.N,Net-(R7-Pad2)*%
X131979900Y-78143100D03*
%TO.P,U4,A2*%
%TO.N,GAIN*%
X131979900Y-77793100D03*
%TO.P,U4,B1*%
%TO.N,C1_OUT*%
X132329900Y-78143100D03*
%TO.P,U4,A1*%
%TO.N,C1_IN*%
X132329900Y-77793100D03*
%TD*%
%TO.P,R1,2*%
%TO.N,C1_IN*%
%TA.AperFunction,SMDPad,CuDef*%
G36*
G01*
X135019201Y-78128600D02*
X134119199Y-78128600D01*
G75*
G02*
X133869200Y-77878601I0J249999D01*
G01*
X133869200Y-77228599D01*
G75*
G02*
X134119199Y-76978600I249999J0D01*
G01*
X135019201Y-76978600D01*
G75*
G02*
X135269200Y-77228599I0J-249999D01*
G01*
X135269200Y-77878601D01*
G75*
G02*
X135019201Y-78128600I-249999J0D01*
G01*
G37*
%TD.AperFunction*%
%TO.P,R1,1*%
%TO.N,C1_OUT*%
%TA.AperFunction,SMDPad,CuDef*%
G36*
G01*
X135019201Y-80178600D02*
X134119199Y-80178600D01*
G75*
G02*
X133869200Y-79928601I0J249999D01*
G01*
X133869200Y-79278599D01*
G75*
G02*
X134119199Y-79028600I249999J0D01*
G01*
X135019201Y-79028600D01*
G75*
G02*
X135269200Y-79278599I0J-249999D01*
G01*
X135269200Y-79928601D01*
G75*
G02*
X135019201Y-80178600I-249999J0D01*
G01*
G37*
%TD.AperFunction*%
%TD*%
%TO.P,R7,2*%
%TO.N,Net-(R7-Pad2)*%
%TA.AperFunction,SMDPad,CuDef*%
G36*
G01*
X128858000Y-79789200D02*
X129333000Y-79789200D01*
G75*
G02*
X129570500Y-80026700I0J-237500D01*
G01*
X129570500Y-80526700D01*
G75*
G02*
X129333000Y-80764200I-237500J0D01*
G01*
X128858000Y-80764200D01*
G75*
G02*
X128620500Y-80526700I0J237500D01*
G01*
X128620500Y-80026700D01*
G75*
G02*
X128858000Y-79789200I237500J0D01*
G01*
G37*
%TD.AperFunction*%
%TO.P,R7,1*%
%TO.N,+3V3*%
%TA.AperFunction,SMDPad,CuDef*%
G36*
G01*
X128858000Y-77964200D02*
X129333000Y-77964200D01*
G75*
G02*
X129570500Y-78201700I0J-237500D01*
G01*
X129570500Y-78701700D01*
G75*
G02*
X129333000Y-78939200I-237500J0D01*
G01*
X128858000Y-78939200D01*
G75*
G02*
X128620500Y-78701700I0J237500D01*
G01*
X128620500Y-78201700D01*
G75*
G02*
X128858000Y-77964200I237500J0D01*
G01*
G37*
%TD.AperFunction*%
%TD*%
%TO.P,C7,2*%
%TO.N,Net-(C7-Pad2)*%
%TA.AperFunction,SMDPad,CuDef*%
G36*
G01*
X125975000Y-84062500D02*
X125975000Y-84537500D01*
G75*
G02*
X125737500Y-84775000I-237500J0D01*
G01*
X125137500Y-84775000D01*
G75*
G02*
X124900000Y-84537500I0J237500D01*
G01*
X124900000Y-84062500D01*
G75*
G02*
X125137500Y-83825000I237500J0D01*
G01*
X125737500Y-83825000D01*
G75*
G02*
X125975000Y-84062500I0J-237500D01*
G01*
G37*
%TD.AperFunction*%
%TO.P,C7,1*%
%TO.N,+3V3*%
%TA.AperFunction,SMDPad,CuDef*%
G36*
G01*
X127700000Y-84062500D02*
X127700000Y-84537500D01*
G75*
G02*
X127462500Y-84775000I-237500J0D01*
G01*
X126862500Y-84775000D01*
G75*
G02*
X126625000Y-84537500I0J237500D01*
G01*
X126625000Y-84062500D01*
G75*
G02*
X126862500Y-83825000I237500J0D01*
G01*
X127462500Y-83825000D01*
G75*
G02*
X127700000Y-84062500I0J-237500D01*
G01*
G37*
%TD.AperFunction*%
%TD*%
D11*
%TO.P,SW1,3*%
%TO.N,Net-(SW1-Pad3)*%
X112562000Y-93008000D03*
%TO.P,SW1,2*%
%TO.N,VIN*%
X115062000Y-93008000D03*
%TO.P,SW1,1*%
%TO.N,BATT*%
X117562000Y-93008000D03*
%TD*%
%TO.P,U1,1*%
%TO.N,Net-(C7-Pad2)*%
%TA.AperFunction,SMDPad,CuDef*%
G36*
G01*
X122862000Y-86424000D02*
X122762000Y-86424000D01*
G75*
G02*
X122712000Y-86374000I0J50000D01*
G01*
X122712000Y-85774000D01*
G75*
G02*
X122762000Y-85724000I50000J0D01*
G01*
X122862000Y-85724000D01*
G75*
G02*
X122912000Y-85774000I0J-50000D01*
G01*
X122912000Y-86374000D01*
G75*
G02*
X122862000Y-86424000I-50000J0D01*
G01*
G37*
%TD.AperFunction*%
%TO.P,U1,2*%
%TO.N,+3V3*%
%TA.AperFunction,SMDPad,CuDef*%
G36*
G01*
X122462000Y-86424000D02*
X122362000Y-86424000D01*
G75*
G02*
X122312000Y-86374000I0J50000D01*
G01*
X122312000Y-85774000D01*
G75*
G02*
X122362000Y-85724000I50000J0D01*
G01*
X122462000Y-85724000D01*
G75*
G02*
X122512000Y-85774000I0J-50000D01*
G01*
X122512000Y-86374000D01*
G75*
G02*
X122462000Y-86424000I-50000J0D01*
G01*
G37*
%TD.AperFunction*%
%TO.P,U1,3*%
%TA.AperFunction,SMDPad,CuDef*%
G36*
G01*
X122062000Y-86424000D02*
X121962000Y-86424000D01*
G75*
G02*
X121912000Y-86374000I0J50000D01*
G01*
X121912000Y-85774000D01*
G75*
G02*
X121962000Y-85724000I50000J0D01*
G01*
X122062000Y-85724000D01*
G75*
G02*
X122112000Y-85774000I0J-50000D01*
G01*
X122112000Y-86374000D01*
G75*
G02*
X122062000Y-86424000I-50000J0D01*
G01*
G37*
%TD.AperFunction*%
%TO.P,U1,4*%
%TO.N,C2CK*%
%TA.AperFunction,SMDPad,CuDef*%
G36*
G01*
X121662000Y-86424000D02*
X121562000Y-86424000D01*
G75*
G02*
X121512000Y-86374000I0J50000D01*
G01*
X121512000Y-85774000D01*
G75*
G02*
X121562000Y-85724000I50000J0D01*
G01*
X121662000Y-85724000D01*
G75*
G02*
X121712000Y-85774000I0J-50000D01*
G01*
X121712000Y-86374000D01*
G75*
G02*
X121662000Y-86424000I-50000J0D01*
G01*
G37*
%TD.AperFunction*%
%TO.P,U1,5*%
%TO.N,C2D*%
%TA.AperFunction,SMDPad,CuDef*%
G36*
G01*
X121262000Y-86424000D02*
X121162000Y-86424000D01*
G75*
G02*
X121112000Y-86374000I0J50000D01*
G01*
X121112000Y-85774000D01*
G75*
G02*
X121162000Y-85724000I50000J0D01*
G01*
X121262000Y-85724000D01*
G75*
G02*
X121312000Y-85774000I0J-50000D01*
G01*
X121312000Y-86374000D01*
G75*
G02*
X121262000Y-86424000I-50000J0D01*
G01*
G37*
%TD.AperFunction*%
%TO.P,U1,6*%
%TO.N,Net-(U1-Pad6)*%
%TA.AperFunction,SMDPad,CuDef*%
G36*
G01*
X120862000Y-86424000D02*
X120762000Y-86424000D01*
G75*
G02*
X120712000Y-86374000I0J50000D01*
G01*
X120712000Y-85774000D01*
G75*
G02*
X120762000Y-85724000I50000J0D01*
G01*
X120862000Y-85724000D01*
G75*
G02*
X120912000Y-85774000I0J-50000D01*
G01*
X120912000Y-86374000D01*
G75*
G02*
X120862000Y-86424000I-50000J0D01*
G01*
G37*
%TD.AperFunction*%
%TO.P,U1,7*%
%TO.N,Net-(U1-Pad7)*%
%TA.AperFunction,SMDPad,CuDef*%
G36*
G01*
X120462000Y-86424000D02*
X120362000Y-86424000D01*
G75*
G02*
X120312000Y-86374000I0J50000D01*
G01*
X120312000Y-85774000D01*
G75*
G02*
X120362000Y-85724000I50000J0D01*
G01*
X120462000Y-85724000D01*
G75*
G02*
X120512000Y-85774000I0J-50000D01*
G01*
X120512000Y-86374000D01*
G75*
G02*
X120462000Y-86424000I-50000J0D01*
G01*
G37*
%TD.AperFunction*%
%TO.P,U1,8*%
%TO.N,Net-(U1-Pad8)*%
%TA.AperFunction,SMDPad,CuDef*%
G36*
G01*
X120062000Y-86424000D02*
X119962000Y-86424000D01*
G75*
G02*
X119912000Y-86374000I0J50000D01*
G01*
X119912000Y-85774000D01*
G75*
G02*
X119962000Y-85724000I50000J0D01*
G01*
X120062000Y-85724000D01*
G75*
G02*
X120112000Y-85774000I0J-50000D01*
G01*
X120112000Y-86374000D01*
G75*
G02*
X120062000Y-86424000I-50000J0D01*
G01*
G37*
%TD.AperFunction*%
%TO.P,U1,9*%
%TO.N,Net-(U1-Pad9)*%
%TA.AperFunction,SMDPad,CuDef*%
G36*
G01*
X119712000Y-85574000D02*
X119112000Y-85574000D01*
G75*
G02*
X119062000Y-85524000I0J50000D01*
G01*
X119062000Y-85424000D01*
G75*
G02*
X119112000Y-85374000I50000J0D01*
G01*
X119712000Y-85374000D01*
G75*
G02*
X119762000Y-85424000I0J-50000D01*
G01*
X119762000Y-85524000D01*
G75*
G02*
X119712000Y-85574000I-50000J0D01*
G01*
G37*
%TD.AperFunction*%
%TO.P,U1,10*%
%TO.N,Net-(U1-Pad10)*%
%TA.AperFunction,SMDPad,CuDef*%
G36*
G01*
X119712000Y-85174000D02*
X119112000Y-85174000D01*
G75*
G02*
X119062000Y-85124000I0J50000D01*
G01*
X119062000Y-85024000D01*
G75*
G02*
X119112000Y-84974000I50000J0D01*
G01*
X119712000Y-84974000D01*
G75*
G02*
X119762000Y-85024000I0J-50000D01*
G01*
X119762000Y-85124000D01*
G75*
G02*
X119712000Y-85174000I-50000J0D01*
G01*
G37*
%TD.AperFunction*%
%TO.P,U1,11*%
%TO.N,Net-(U1-Pad11)*%
%TA.AperFunction,SMDPad,CuDef*%
G36*
G01*
X119712000Y-84774000D02*
X119112000Y-84774000D01*
G75*
G02*
X119062000Y-84724000I0J50000D01*
G01*
X119062000Y-84624000D01*
G75*
G02*
X119112000Y-84574000I50000J0D01*
G01*
X119712000Y-84574000D01*
G75*
G02*
X119762000Y-84624000I0J-50000D01*
G01*
X119762000Y-84724000D01*
G75*
G02*
X119712000Y-84774000I-50000J0D01*
G01*
G37*
%TD.AperFunction*%
%TO.P,U1,12*%
%TO.N,Net-(U1-Pad12)*%
%TA.AperFunction,SMDPad,CuDef*%
G36*
G01*
X119712000Y-84374000D02*
X119112000Y-84374000D01*
G75*
G02*
X119062000Y-84324000I0J50000D01*
G01*
X119062000Y-84224000D01*
G75*
G02*
X119112000Y-84174000I50000J0D01*
G01*
X119712000Y-84174000D01*
G75*
G02*
X119762000Y-84224000I0J-50000D01*
G01*
X119762000Y-84324000D01*
G75*
G02*
X119712000Y-84374000I-50000J0D01*
G01*
G37*
%TD.AperFunction*%
%TO.P,U1,13*%
%TO.N,Net-(U1-Pad13)*%
%TA.AperFunction,SMDPad,CuDef*%
G36*
G01*
X119712000Y-83974000D02*
X119112000Y-83974000D01*
G75*
G02*
X119062000Y-83924000I0J50000D01*
G01*
X119062000Y-83824000D01*
G75*
G02*
X119112000Y-83774000I50000J0D01*
G01*
X119712000Y-83774000D01*
G75*
G02*
X119762000Y-83824000I0J-50000D01*
G01*
X119762000Y-83924000D01*
G75*
G02*
X119712000Y-83974000I-50000J0D01*
G01*
G37*
%TD.AperFunction*%
%TO.P,U1,14*%
%TO.N,Net-(U1-Pad14)*%
%TA.AperFunction,SMDPad,CuDef*%
G36*
G01*
X119712000Y-83574000D02*
X119112000Y-83574000D01*
G75*
G02*
X119062000Y-83524000I0J50000D01*
G01*
X119062000Y-83424000D01*
G75*
G02*
X119112000Y-83374000I50000J0D01*
G01*
X119712000Y-83374000D01*
G75*
G02*
X119762000Y-83424000I0J-50000D01*
G01*
X119762000Y-83524000D01*
G75*
G02*
X119712000Y-83574000I-50000J0D01*
G01*
G37*
%TD.AperFunction*%
%TO.P,U1,15*%
%TO.N,Net-(U1-Pad15)*%
%TA.AperFunction,SMDPad,CuDef*%
G36*
G01*
X119712000Y-83174000D02*
X119112000Y-83174000D01*
G75*
G02*
X119062000Y-83124000I0J50000D01*
G01*
X119062000Y-83024000D01*
G75*
G02*
X119112000Y-82974000I50000J0D01*
G01*
X119712000Y-82974000D01*
G75*
G02*
X119762000Y-83024000I0J-50000D01*
G01*
X119762000Y-83124000D01*
G75*
G02*
X119712000Y-83174000I-50000J0D01*
G01*
G37*
%TD.AperFunction*%
%TO.P,U1,16*%
%TO.N,GAIN*%
%TA.AperFunction,SMDPad,CuDef*%
G36*
G01*
X119712000Y-82774000D02*
X119112000Y-82774000D01*
G75*
G02*
X119062000Y-82724000I0J50000D01*
G01*
X119062000Y-82624000D01*
G75*
G02*
X119112000Y-82574000I50000J0D01*
G01*
X119712000Y-82574000D01*
G75*
G02*
X119762000Y-82624000I0J-50000D01*
G01*
X119762000Y-82724000D01*
G75*
G02*
X119712000Y-82774000I-50000J0D01*
G01*
G37*
%TD.AperFunction*%
%TO.P,U1,17*%
%TO.N,MAX_SHDN*%
%TA.AperFunction,SMDPad,CuDef*%
G36*
G01*
X120062000Y-82424000D02*
X119962000Y-82424000D01*
G75*
G02*
X119912000Y-82374000I0J50000D01*
G01*
X119912000Y-81774000D01*
G75*
G02*
X119962000Y-81724000I50000J0D01*
G01*
X120062000Y-81724000D01*
G75*
G02*
X120112000Y-81774000I0J-50000D01*
G01*
X120112000Y-82374000D01*
G75*
G02*
X120062000Y-82424000I-50000J0D01*
G01*
G37*
%TD.AperFunction*%
%TO.P,U1,18*%
%TO.N,A0*%
%TA.AperFunction,SMDPad,CuDef*%
G36*
G01*
X120462000Y-82424000D02*
X120362000Y-82424000D01*
G75*
G02*
X120312000Y-82374000I0J50000D01*
G01*
X120312000Y-81774000D01*
G75*
G02*
X120362000Y-81724000I50000J0D01*
G01*
X120462000Y-81724000D01*
G75*
G02*
X120512000Y-81774000I0J-50000D01*
G01*
X120512000Y-82374000D01*
G75*
G02*
X120462000Y-82424000I-50000J0D01*
G01*
G37*
%TD.AperFunction*%
%TO.P,U1,19*%
%TO.N,A1*%
%TA.AperFunction,SMDPad,CuDef*%
G36*
G01*
X120862000Y-82424000D02*
X120762000Y-82424000D01*
G75*
G02*
X120712000Y-82374000I0J50000D01*
G01*
X120712000Y-81774000D01*
G75*
G02*
X120762000Y-81724000I50000J0D01*
G01*
X120862000Y-81724000D01*
G75*
G02*
X120912000Y-81774000I0J-50000D01*
G01*
X120912000Y-82374000D01*
G75*
G02*
X120862000Y-82424000I-50000J0D01*
G01*
G37*
%TD.AperFunction*%
%TO.P,U1,20*%
%TO.N,A2*%
%TA.AperFunction,SMDPad,CuDef*%
G36*
G01*
X121262000Y-82424000D02*
X121162000Y-82424000D01*
G75*
G02*
X121112000Y-82374000I0J50000D01*
G01*
X121112000Y-81774000D01*
G75*
G02*
X121162000Y-81724000I50000J0D01*
G01*
X121262000Y-81724000D01*
G75*
G02*
X121312000Y-81774000I0J-50000D01*
G01*
X121312000Y-82374000D01*
G75*
G02*
X121262000Y-82424000I-50000J0D01*
G01*
G37*
%TD.AperFunction*%
%TO.P,U1,21*%
%TO.N,Net-(U1-Pad21)*%
%TA.AperFunction,SMDPad,CuDef*%
G36*
G01*
X121662000Y-82424000D02*
X121562000Y-82424000D01*
G75*
G02*
X121512000Y-82374000I0J50000D01*
G01*
X121512000Y-81774000D01*
G75*
G02*
X121562000Y-81724000I50000J0D01*
G01*
X121662000Y-81724000D01*
G75*
G02*
X121712000Y-81774000I0J-50000D01*
G01*
X121712000Y-82374000D01*
G75*
G02*
X121662000Y-82424000I-50000J0D01*
G01*
G37*
%TD.AperFunction*%
%TO.P,U1,22*%
%TO.N,STATUS*%
%TA.AperFunction,SMDPad,CuDef*%
G36*
G01*
X122062000Y-82424000D02*
X121962000Y-82424000D01*
G75*
G02*
X121912000Y-82374000I0J50000D01*
G01*
X121912000Y-81774000D01*
G75*
G02*
X121962000Y-81724000I50000J0D01*
G01*
X122062000Y-81724000D01*
G75*
G02*
X122112000Y-81774000I0J-50000D01*
G01*
X122112000Y-82374000D01*
G75*
G02*
X122062000Y-82424000I-50000J0D01*
G01*
G37*
%TD.AperFunction*%
%TO.P,U1,23*%
%TO.N,PWRC*%
%TA.AperFunction,SMDPad,CuDef*%
G36*
G01*
X122462000Y-82424000D02*
X122362000Y-82424000D01*
G75*
G02*
X122312000Y-82374000I0J50000D01*
G01*
X122312000Y-81774000D01*
G75*
G02*
X122362000Y-81724000I50000J0D01*
G01*
X122462000Y-81724000D01*
G75*
G02*
X122512000Y-81774000I0J-50000D01*
G01*
X122512000Y-82374000D01*
G75*
G02*
X122462000Y-82424000I-50000J0D01*
G01*
G37*
%TD.AperFunction*%
%TO.P,U1,24*%
%TO.N,Net-(U1-Pad24)*%
%TA.AperFunction,SMDPad,CuDef*%
G36*
G01*
X122862000Y-82424000D02*
X122762000Y-82424000D01*
G75*
G02*
X122712000Y-82374000I0J50000D01*
G01*
X122712000Y-81774000D01*
G75*
G02*
X122762000Y-81724000I50000J0D01*
G01*
X122862000Y-81724000D01*
G75*
G02*
X122912000Y-81774000I0J-50000D01*
G01*
X122912000Y-82374000D01*
G75*
G02*
X122862000Y-82424000I-50000J0D01*
G01*
G37*
%TD.AperFunction*%
%TO.P,U1,25*%
%TO.N,LED*%
%TA.AperFunction,SMDPad,CuDef*%
G36*
G01*
X123712000Y-82774000D02*
X123112000Y-82774000D01*
G75*
G02*
X123062000Y-82724000I0J50000D01*
G01*
X123062000Y-82624000D01*
G75*
G02*
X123112000Y-82574000I50000J0D01*
G01*
X123712000Y-82574000D01*
G75*
G02*
X123762000Y-82624000I0J-50000D01*
G01*
X123762000Y-82724000D01*
G75*
G02*
X123712000Y-82774000I-50000J0D01*
G01*
G37*
%TD.AperFunction*%
%TO.P,U1,26*%
%TO.N,A4*%
%TA.AperFunction,SMDPad,CuDef*%
G36*
G01*
X123712000Y-83174000D02*
X123112000Y-83174000D01*
G75*
G02*
X123062000Y-83124000I0J50000D01*
G01*
X123062000Y-83024000D01*
G75*
G02*
X123112000Y-82974000I50000J0D01*
G01*
X123712000Y-82974000D01*
G75*
G02*
X123762000Y-83024000I0J-50000D01*
G01*
X123762000Y-83124000D01*
G75*
G02*
X123712000Y-83174000I-50000J0D01*
G01*
G37*
%TD.AperFunction*%
%TO.P,U1,27*%
%TO.N,Net-(U1-Pad27)*%
%TA.AperFunction,SMDPad,CuDef*%
G36*
G01*
X123712000Y-83574000D02*
X123112000Y-83574000D01*
G75*
G02*
X123062000Y-83524000I0J50000D01*
G01*
X123062000Y-83424000D01*
G75*
G02*
X123112000Y-83374000I50000J0D01*
G01*
X123712000Y-83374000D01*
G75*
G02*
X123762000Y-83424000I0J-50000D01*
G01*
X123762000Y-83524000D01*
G75*
G02*
X123712000Y-83574000I-50000J0D01*
G01*
G37*
%TD.AperFunction*%
%TO.P,U1,28*%
%TO.N,ARD_RX*%
%TA.AperFunction,SMDPad,CuDef*%
G36*
G01*
X123712000Y-83974000D02*
X123112000Y-83974000D01*
G75*
G02*
X123062000Y-83924000I0J50000D01*
G01*
X123062000Y-83824000D01*
G75*
G02*
X123112000Y-83774000I50000J0D01*
G01*
X123712000Y-83774000D01*
G75*
G02*
X123762000Y-83824000I0J-50000D01*
G01*
X123762000Y-83924000D01*
G75*
G02*
X123712000Y-83974000I-50000J0D01*
G01*
G37*
%TD.AperFunction*%
%TO.P,U1,29*%
%TO.N,ARD_TX*%
%TA.AperFunction,SMDPad,CuDef*%
G36*
G01*
X123712000Y-84374000D02*
X123112000Y-84374000D01*
G75*
G02*
X123062000Y-84324000I0J50000D01*
G01*
X123062000Y-84224000D01*
G75*
G02*
X123112000Y-84174000I50000J0D01*
G01*
X123712000Y-84174000D01*
G75*
G02*
X123762000Y-84224000I0J-50000D01*
G01*
X123762000Y-84324000D01*
G75*
G02*
X123712000Y-84374000I-50000J0D01*
G01*
G37*
%TD.AperFunction*%
%TO.P,U1,30*%
%TO.N,Net-(U1-Pad30)*%
%TA.AperFunction,SMDPad,CuDef*%
G36*
G01*
X123712000Y-84774000D02*
X123112000Y-84774000D01*
G75*
G02*
X123062000Y-84724000I0J50000D01*
G01*
X123062000Y-84624000D01*
G75*
G02*
X123112000Y-84574000I50000J0D01*
G01*
X123712000Y-84574000D01*
G75*
G02*
X123762000Y-84624000I0J-50000D01*
G01*
X123762000Y-84724000D01*
G75*
G02*
X123712000Y-84774000I-50000J0D01*
G01*
G37*
%TD.AperFunction*%
%TO.P,U1,31*%
%TO.N,Net-(U1-Pad31)*%
%TA.AperFunction,SMDPad,CuDef*%
G36*
G01*
X123712000Y-85174000D02*
X123112000Y-85174000D01*
G75*
G02*
X123062000Y-85124000I0J50000D01*
G01*
X123062000Y-85024000D01*
G75*
G02*
X123112000Y-84974000I50000J0D01*
G01*
X123712000Y-84974000D01*
G75*
G02*
X123762000Y-85024000I0J-50000D01*
G01*
X123762000Y-85124000D01*
G75*
G02*
X123712000Y-85174000I-50000J0D01*
G01*
G37*
%TD.AperFunction*%
%TO.P,U1,32*%
%TO.N,Net-(U1-Pad32)*%
%TA.AperFunction,SMDPad,CuDef*%
G36*
G01*
X123712000Y-85574000D02*
X123112000Y-85574000D01*
G75*
G02*
X123062000Y-85524000I0J50000D01*
G01*
X123062000Y-85424000D01*
G75*
G02*
X123112000Y-85374000I50000J0D01*
G01*
X123712000Y-85374000D01*
G75*
G02*
X123762000Y-85424000I0J-50000D01*
G01*
X123762000Y-85524000D01*
G75*
G02*
X123712000Y-85574000I-50000J0D01*
G01*
G37*
%TD.AperFunction*%
D12*
%TO.P,U1,33*%
%TO.N,GND*%
X121412000Y-84074000D03*
%TD*%
%TO.P,R8,2*%
%TO.N,GND*%
%TA.AperFunction,SMDPad,CuDef*%
G36*
G01*
X131377500Y-80039200D02*
X131377500Y-80514200D01*
G75*
G02*
X131140000Y-80751700I-237500J0D01*
G01*
X130640000Y-80751700D01*
G75*
G02*
X130402500Y-80514200I0J237500D01*
G01*
X130402500Y-80039200D01*
G75*
G02*
X130640000Y-79801700I237500J0D01*
G01*
X131140000Y-79801700D01*
G75*
G02*
X131377500Y-80039200I0J-237500D01*
G01*
G37*
%TD.AperFunction*%
%TO.P,R8,1*%
%TO.N,Net-(R7-Pad2)*%
%TA.AperFunction,SMDPad,CuDef*%
G36*
G01*
X133202500Y-80039200D02*
X133202500Y-80514200D01*
G75*
G02*
X132965000Y-80751700I-237500J0D01*
G01*
X132465000Y-80751700D01*
G75*
G02*
X132227500Y-80514200I0J237500D01*
G01*
X132227500Y-80039200D01*
G75*
G02*
X132465000Y-79801700I237500J0D01*
G01*
X132965000Y-79801700D01*
G75*
G02*
X133202500Y-80039200I0J-237500D01*
G01*
G37*
%TD.AperFunction*%
%TD*%
D13*
%TO.P,L1,2*%
%TO.N,Net-(L1-Pad2)*%
X130810000Y-89155000D03*
%TO.P,L1,1*%
%TO.N,VIN*%
X130810000Y-86105000D03*
%TD*%
D14*
%TO.P,U3,10*%
%TO.N,VIN*%
X127422000Y-91932000D03*
%TO.P,U3,9*%
X127422000Y-91432000D03*
%TO.P,U3,8*%
%TO.N,GND*%
X127422000Y-90932000D03*
%TO.P,U3,7*%
X127422000Y-90432000D03*
%TO.P,U3,6*%
%TO.N,Net-(L1-Pad2)*%
X127422000Y-89932000D03*
%TO.P,U3,5*%
%TO.N,+3V3*%
X123022000Y-89932000D03*
%TO.P,U3,4*%
%TO.N,VFB*%
X123022000Y-90432000D03*
%TO.P,U3,3*%
%TO.N,PGT*%
X123022000Y-90932000D03*
%TO.P,U3,2*%
%TO.N,LBO*%
X123022000Y-91432000D03*
%TO.P,U3,1*%
%TO.N,VIN*%
X123022000Y-91932000D03*
%TD*%
%TO.P,R6,2*%
%TO.N,C2CK*%
%TA.AperFunction,SMDPad,CuDef*%
G36*
G01*
X125924500Y-93963500D02*
X125924500Y-93488500D01*
G75*
G02*
X126162000Y-93251000I237500J0D01*
G01*
X126662000Y-93251000D01*
G75*
G02*
X126899500Y-93488500I0J-237500D01*
G01*
X126899500Y-93963500D01*
G75*
G02*
X126662000Y-94201000I-237500J0D01*
G01*
X126162000Y-94201000D01*
G75*
G02*
X125924500Y-93963500I0J237500D01*
G01*
G37*
%TD.AperFunction*%
%TO.P,R6,1*%
%TO.N,+3V3*%
%TA.AperFunction,SMDPad,CuDef*%
G36*
G01*
X124099500Y-93963500D02*
X124099500Y-93488500D01*
G75*
G02*
X124337000Y-93251000I237500J0D01*
G01*
X124837000Y-93251000D01*
G75*
G02*
X125074500Y-93488500I0J-237500D01*
G01*
X125074500Y-93963500D01*
G75*
G02*
X124837000Y-94201000I-237500J0D01*
G01*
X124337000Y-94201000D01*
G75*
G02*
X124099500Y-93963500I0J237500D01*
G01*
G37*
%TD.AperFunction*%
%TD*%
%TO.P,C6,2*%
%TO.N,GND*%
%TA.AperFunction,SMDPad,CuDef*%
G36*
G01*
X126701000Y-87994500D02*
X126701000Y-87519500D01*
G75*
G02*
X126938500Y-87282000I237500J0D01*
G01*
X127513500Y-87282000D01*
G75*
G02*
X127751000Y-87519500I0J-237500D01*
G01*
X127751000Y-87994500D01*
G75*
G02*
X127513500Y-88232000I-237500J0D01*
G01*
X126938500Y-88232000D01*
G75*
G02*
X126701000Y-87994500I0J237500D01*
G01*
G37*
%TD.AperFunction*%
%TO.P,C6,1*%
%TO.N,+3V3*%
%TA.AperFunction,SMDPad,CuDef*%
G36*
G01*
X124951000Y-87994500D02*
X124951000Y-87519500D01*
G75*
G02*
X125188500Y-87282000I237500J0D01*
G01*
X125763500Y-87282000D01*
G75*
G02*
X126001000Y-87519500I0J-237500D01*
G01*
X126001000Y-87994500D01*
G75*
G02*
X125763500Y-88232000I-237500J0D01*
G01*
X125188500Y-88232000D01*
G75*
G02*
X124951000Y-87994500I0J237500D01*
G01*
G37*
%TD.AperFunction*%
%TD*%
%TO.P,C5,2*%
%TO.N,GND*%
%TA.AperFunction,SMDPad,CuDef*%
G36*
G01*
X126701000Y-86216500D02*
X126701000Y-85741500D01*
G75*
G02*
X126938500Y-85504000I237500J0D01*
G01*
X127513500Y-85504000D01*
G75*
G02*
X127751000Y-85741500I0J-237500D01*
G01*
X127751000Y-86216500D01*
G75*
G02*
X127513500Y-86454000I-237500J0D01*
G01*
X126938500Y-86454000D01*
G75*
G02*
X126701000Y-86216500I0J237500D01*
G01*
G37*
%TD.AperFunction*%
%TO.P,C5,1*%
%TO.N,+3V3*%
%TA.AperFunction,SMDPad,CuDef*%
G36*
G01*
X124951000Y-86216500D02*
X124951000Y-85741500D01*
G75*
G02*
X125188500Y-85504000I237500J0D01*
G01*
X125763500Y-85504000D01*
G75*
G02*
X126001000Y-85741500I0J-237500D01*
G01*
X126001000Y-86216500D01*
G75*
G02*
X125763500Y-86454000I-237500J0D01*
G01*
X125188500Y-86454000D01*
G75*
G02*
X124951000Y-86216500I0J237500D01*
G01*
G37*
%TD.AperFunction*%
%TD*%
%TO.P,R5,2*%
%TO.N,VFB*%
%TA.AperFunction,SMDPad,CuDef*%
G36*
G01*
X121344700Y-91420200D02*
X120869700Y-91420200D01*
G75*
G02*
X120632200Y-91182700I0J237500D01*
G01*
X120632200Y-90607700D01*
G75*
G02*
X120869700Y-90370200I237500J0D01*
G01*
X121344700Y-90370200D01*
G75*
G02*
X121582200Y-90607700I0J-237500D01*
G01*
X121582200Y-91182700D01*
G75*
G02*
X121344700Y-91420200I-237500J0D01*
G01*
G37*
%TD.AperFunction*%
%TO.P,R5,1*%
%TO.N,GND*%
%TA.AperFunction,SMDPad,CuDef*%
G36*
G01*
X121344700Y-93170200D02*
X120869700Y-93170200D01*
G75*
G02*
X120632200Y-92932700I0J237500D01*
G01*
X120632200Y-92357700D01*
G75*
G02*
X120869700Y-92120200I237500J0D01*
G01*
X121344700Y-92120200D01*
G75*
G02*
X121582200Y-92357700I0J-237500D01*
G01*
X121582200Y-92932700D01*
G75*
G02*
X121344700Y-93170200I-237500J0D01*
G01*
G37*
%TD.AperFunction*%
%TD*%
%TO.P,R4,2*%
%TO.N,+3V3*%
%TA.AperFunction,SMDPad,CuDef*%
G36*
G01*
X119167900Y-92108800D02*
X119642900Y-92108800D01*
G75*
G02*
X119880400Y-92346300I0J-237500D01*
G01*
X119880400Y-92921300D01*
G75*
G02*
X119642900Y-93158800I-237500J0D01*
G01*
X119167900Y-93158800D01*
G75*
G02*
X118930400Y-92921300I0J237500D01*
G01*
X118930400Y-92346300D01*
G75*
G02*
X119167900Y-92108800I237500J0D01*
G01*
G37*
%TD.AperFunction*%
%TO.P,R4,1*%
%TO.N,VFB*%
%TA.AperFunction,SMDPad,CuDef*%
G36*
G01*
X119167900Y-90358800D02*
X119642900Y-90358800D01*
G75*
G02*
X119880400Y-90596300I0J-237500D01*
G01*
X119880400Y-91171300D01*
G75*
G02*
X119642900Y-91408800I-237500J0D01*
G01*
X119167900Y-91408800D01*
G75*
G02*
X118930400Y-91171300I0J237500D01*
G01*
X118930400Y-90596300D01*
G75*
G02*
X119167900Y-90358800I237500J0D01*
G01*
G37*
%TD.AperFunction*%
%TD*%
D15*
%TO.P,J1,8*%
%TO.N,GND*%
X136956800Y-95453200D03*
%TO.P,J1,7*%
%TO.N,+3V3*%
X136956800Y-92913200D03*
%TO.P,J1,6*%
%TO.N,A4*%
X136956800Y-90373200D03*
%TO.P,J1,5*%
%TO.N,VHIGH*%
X136956800Y-87833200D03*
%TO.P,J1,4*%
%TO.N,A2*%
X136956800Y-85293200D03*
%TO.P,J1,3*%
%TO.N,A1*%
X136956800Y-82753200D03*
%TO.P,J1,2*%
%TO.N,C1_OUT*%
X136956800Y-80213200D03*
D16*
%TO.P,J1,1*%
%TO.N,C1_IN*%
X136956800Y-77673200D03*
%TD*%
%TO.P,C3,2*%
%TO.N,GND*%
%TA.AperFunction,SMDPad,CuDef*%
G36*
G01*
X131334500Y-92566000D02*
X131809500Y-92566000D01*
G75*
G02*
X132047000Y-92803500I0J-237500D01*
G01*
X132047000Y-93378500D01*
G75*
G02*
X131809500Y-93616000I-237500J0D01*
G01*
X131334500Y-93616000D01*
G75*
G02*
X131097000Y-93378500I0J237500D01*
G01*
X131097000Y-92803500D01*
G75*
G02*
X131334500Y-92566000I237500J0D01*
G01*
G37*
%TD.AperFunction*%
%TO.P,C3,1*%
%TO.N,VIN*%
%TA.AperFunction,SMDPad,CuDef*%
G36*
G01*
X131334500Y-90816000D02*
X131809500Y-90816000D01*
G75*
G02*
X132047000Y-91053500I0J-237500D01*
G01*
X132047000Y-91628500D01*
G75*
G02*
X131809500Y-91866000I-237500J0D01*
G01*
X131334500Y-91866000D01*
G75*
G02*
X131097000Y-91628500I0J237500D01*
G01*
X131097000Y-91053500D01*
G75*
G02*
X131334500Y-90816000I237500J0D01*
G01*
G37*
%TD.AperFunction*%
%TD*%
%TO.P,C2,2*%
%TO.N,GND*%
%TA.AperFunction,SMDPad,CuDef*%
G36*
G01*
X119041400Y-88891100D02*
X119041400Y-89366100D01*
G75*
G02*
X118803900Y-89603600I-237500J0D01*
G01*
X118228900Y-89603600D01*
G75*
G02*
X117991400Y-89366100I0J237500D01*
G01*
X117991400Y-88891100D01*
G75*
G02*
X118228900Y-88653600I237500J0D01*
G01*
X118803900Y-88653600D01*
G75*
G02*
X119041400Y-88891100I0J-237500D01*
G01*
G37*
%TD.AperFunction*%
%TO.P,C2,1*%
%TO.N,+3V3*%
%TA.AperFunction,SMDPad,CuDef*%
G36*
G01*
X120791400Y-88891100D02*
X120791400Y-89366100D01*
G75*
G02*
X120553900Y-89603600I-237500J0D01*
G01*
X119978900Y-89603600D01*
G75*
G02*
X119741400Y-89366100I0J237500D01*
G01*
X119741400Y-88891100D01*
G75*
G02*
X119978900Y-88653600I237500J0D01*
G01*
X120553900Y-88653600D01*
G75*
G02*
X120791400Y-88891100I0J-237500D01*
G01*
G37*
%TD.AperFunction*%
%TD*%
D15*
%TO.P,Battery1,2*%
%TO.N,GND*%
X124968000Y-95758000D03*
D16*
%TO.P,Battery1,1*%
%TO.N,BATT*%
X122428000Y-95758000D03*
%TD*%
%TO.P,C4,2*%
%TO.N,GND*%
%TA.AperFunction,SMDPad,CuDef*%
G36*
G01*
X129556500Y-92552000D02*
X130031500Y-92552000D01*
G75*
G02*
X130269000Y-92789500I0J-237500D01*
G01*
X130269000Y-93364500D01*
G75*
G02*
X130031500Y-93602000I-237500J0D01*
G01*
X129556500Y-93602000D01*
G75*
G02*
X129319000Y-93364500I0J237500D01*
G01*
X129319000Y-92789500D01*
G75*
G02*
X129556500Y-92552000I237500J0D01*
G01*
G37*
%TD.AperFunction*%
%TO.P,C4,1*%
%TO.N,VIN*%
%TA.AperFunction,SMDPad,CuDef*%
G36*
G01*
X129556500Y-90802000D02*
X130031500Y-90802000D01*
G75*
G02*
X130269000Y-91039500I0J-237500D01*
G01*
X130269000Y-91614500D01*
G75*
G02*
X130031500Y-91852000I-237500J0D01*
G01*
X129556500Y-91852000D01*
G75*
G02*
X129319000Y-91614500I0J237500D01*
G01*
X129319000Y-91039500D01*
G75*
G02*
X129556500Y-90802000I237500J0D01*
G01*
G37*
%TD.AperFunction*%
%TD*%
%TO.P,C1,2*%
%TO.N,GND*%
%TA.AperFunction,SMDPad,CuDef*%
G36*
G01*
X119044000Y-87316300D02*
X119044000Y-87791300D01*
G75*
G02*
X118806500Y-88028800I-237500J0D01*
G01*
X118231500Y-88028800D01*
G75*
G02*
X117994000Y-87791300I0J237500D01*
G01*
X117994000Y-87316300D01*
G75*
G02*
X118231500Y-87078800I237500J0D01*
G01*
X118806500Y-87078800D01*
G75*
G02*
X119044000Y-87316300I0J-237500D01*
G01*
G37*
%TD.AperFunction*%
%TO.P,C1,1*%
%TO.N,+3V3*%
%TA.AperFunction,SMDPad,CuDef*%
G36*
G01*
X120794000Y-87316300D02*
X120794000Y-87791300D01*
G75*
G02*
X120556500Y-88028800I-237500J0D01*
G01*
X119981500Y-88028800D01*
G75*
G02*
X119744000Y-87791300I0J237500D01*
G01*
X119744000Y-87316300D01*
G75*
G02*
X119981500Y-87078800I237500J0D01*
G01*
X120556500Y-87078800D01*
G75*
G02*
X120794000Y-87316300I0J-237500D01*
G01*
G37*
%TD.AperFunction*%
%TD*%
D17*
%TO.N,GND*%
X121437400Y-84099400D03*
X133349976Y-75946000D03*
X139039600Y-78816200D03*
X119062500Y-79070200D03*
X132269377Y-84652075D03*
X131940300Y-81330800D03*
X127580398Y-78702042D03*
%TO.N,+3V3*%
X123698000Y-87122000D03*
X120243600Y-94157800D03*
X121945400Y-88976200D03*
X126326900Y-78841600D03*
%TO.N,ARD_RX*%
X127025785Y-83131525D03*
%TO.N,A0*%
X121920000Y-79438500D03*
X123405900Y-78735958D03*
%TO.N,PWRC*%
X123634500Y-81026000D03*
%TO.N,ARD_TX*%
X125476008Y-83108955D03*
%TO.N,VIN*%
X115062000Y-95758000D03*
X128143000Y-93980010D03*
X123063000Y-93599000D03*
%TO.N,STATUS*%
X125489788Y-81158922D03*
%TO.N,C2D*%
X128437642Y-97388021D03*
%TO.N,C2CK*%
X127248771Y-97054980D03*
%TO.N,LED*%
X133262766Y-83569871D03*
%TD*%
D18*
%TO.N,A2*%
X137160000Y-85852000D02*
X136398000Y-85852000D01*
X134106221Y-82442621D02*
X136956800Y-85293200D01*
X133491976Y-82442620D02*
X134106221Y-82442621D01*
X132729975Y-83204621D02*
X133491976Y-82442620D01*
X126117392Y-80165288D02*
X129156725Y-83204621D01*
X124207139Y-80165287D02*
X126117392Y-80165288D01*
X124092840Y-80050988D02*
X124207139Y-80165287D01*
X123036460Y-80050988D02*
X124092840Y-80050988D01*
X121437400Y-80518000D02*
X122569448Y-80518000D01*
X121212000Y-80743400D02*
X121437400Y-80518000D01*
X122569448Y-80518000D02*
X123036460Y-80050988D01*
X129156725Y-83204621D02*
X132729975Y-83204621D01*
X121212000Y-82074000D02*
X121212000Y-80743400D01*
%TO.N,GND*%
X127422000Y-90432000D02*
X127422000Y-90932000D01*
X131558000Y-93077000D02*
X131572000Y-93091000D01*
X129794000Y-93077000D02*
X131558000Y-93077000D01*
X124968000Y-95758000D02*
X123571000Y-94361000D01*
X123571000Y-94361000D02*
X122555000Y-94361000D01*
X122555000Y-94361000D02*
X121158000Y-92964000D01*
X127226000Y-85979000D02*
X127226000Y-87757000D01*
X126238000Y-88745000D02*
X127226000Y-87757000D01*
X126238000Y-90021002D02*
X126238000Y-88745000D01*
X126648998Y-90432000D02*
X126238000Y-90021002D01*
X127422000Y-90432000D02*
X126648998Y-90432000D01*
X118516400Y-91427300D02*
X118516400Y-89128600D01*
X118859300Y-91770200D02*
X118516400Y-91427300D01*
X120757200Y-91770200D02*
X118859300Y-91770200D01*
X121107200Y-92120200D02*
X120757200Y-91770200D01*
X121107200Y-92645200D02*
X121107200Y-92120200D01*
X127226000Y-85504000D02*
X128077925Y-84652075D01*
X127226000Y-85979000D02*
X127226000Y-85504000D01*
X128077925Y-84652075D02*
X132269377Y-84652075D01*
X138486380Y-78816200D02*
X139039600Y-78816200D01*
X138483590Y-78818990D02*
X138486380Y-78816200D01*
X131629900Y-78709000D02*
X131739890Y-78818990D01*
X131629900Y-78143100D02*
X131629900Y-78709000D01*
X131739890Y-79426810D02*
X130890000Y-80276700D01*
X131739890Y-78818990D02*
X131739890Y-79426810D01*
X130890000Y-80280500D02*
X131940300Y-81330800D01*
X130890000Y-80276700D02*
X130890000Y-80280500D01*
X127508000Y-78359000D02*
X127508000Y-78629644D01*
X127508000Y-78629644D02*
X127580398Y-78702042D01*
%TO.N,+3V3*%
X125476000Y-87757000D02*
X124206000Y-87757000D01*
D19*
X123022000Y-89932000D02*
X124190000Y-89932000D01*
X124587000Y-90329000D02*
X124587000Y-93726000D01*
X124190000Y-89932000D02*
X124587000Y-90329000D01*
D18*
X122142000Y-86074000D02*
X122012000Y-86074000D01*
X122412000Y-86074000D02*
X122142000Y-86074000D01*
X124206000Y-87757000D02*
X124015500Y-87566500D01*
X125476000Y-85979000D02*
X124841000Y-85979000D01*
X124841000Y-85979000D02*
X123698000Y-87122000D01*
X124015500Y-87566500D02*
X123698000Y-87249000D01*
X123698000Y-87249000D02*
X123698000Y-87122000D01*
D19*
X125483500Y-85979000D02*
X127162500Y-84300000D01*
X125476000Y-85979000D02*
X125483500Y-85979000D01*
D18*
X119430800Y-92506800D02*
X119430800Y-93345000D01*
X119430800Y-93345000D02*
X120243600Y-94157800D01*
X121069800Y-89932000D02*
X120266400Y-89128600D01*
X123022000Y-89932000D02*
X121069800Y-89932000D01*
X120266400Y-87556400D02*
X120269000Y-87553800D01*
X120266400Y-89128600D02*
X120266400Y-87556400D01*
X121996200Y-86055200D02*
X122123200Y-86055200D01*
X121996200Y-86410800D02*
X121996200Y-86055200D01*
X122123200Y-86055200D02*
X122142000Y-86074000D01*
X123317000Y-86868000D02*
X122453400Y-86868000D01*
X122453400Y-86868000D02*
X121996200Y-86410800D01*
X124015500Y-87566500D02*
X123317000Y-86868000D01*
X123022000Y-89932000D02*
X123022000Y-89849600D01*
X122148600Y-88976200D02*
X121945400Y-88976200D01*
X123022000Y-89849600D02*
X122148600Y-88976200D01*
X129754100Y-77793100D02*
X131279900Y-77793100D01*
X129095500Y-78451700D02*
X129754100Y-77793100D01*
X128585160Y-77941360D02*
X127227140Y-77941360D01*
X127227140Y-77941360D02*
X126326900Y-78841600D01*
X129095500Y-78451700D02*
X128585160Y-77941360D01*
%TO.N,ARD_RX*%
X124903313Y-82473945D02*
X126368205Y-82473945D01*
X123412000Y-83874000D02*
X123925152Y-83874000D01*
X124840998Y-82958154D02*
X124840998Y-82536260D01*
X124840998Y-82536260D02*
X124903313Y-82473945D01*
X126368205Y-82473945D02*
X127025785Y-83131525D01*
X123925152Y-83874000D02*
X124840998Y-82958154D01*
%TO.N,A1*%
X121296563Y-80177989D02*
X120812000Y-80662552D01*
X126258229Y-79825277D02*
X124347977Y-79825277D01*
X122563675Y-79710977D02*
X122096663Y-80177989D01*
X129297562Y-82864610D02*
X126258229Y-79825277D01*
X124347977Y-79825277D02*
X124233677Y-79710977D01*
X136956800Y-82753200D02*
X136106801Y-81903201D01*
X133550547Y-81903201D02*
X132589137Y-82864610D01*
X132589137Y-82864610D02*
X129297562Y-82864610D01*
X122096663Y-80177989D02*
X121296563Y-80177989D01*
X124233677Y-79710977D02*
X122563675Y-79710977D01*
X120812000Y-80662552D02*
X120812000Y-82074000D01*
X136106801Y-81903201D02*
X133550547Y-81903201D01*
%TO.N,A0*%
X120412000Y-82074000D02*
X120412000Y-79994002D01*
X120967502Y-79438500D02*
X121920000Y-79438500D01*
X120412000Y-79994002D02*
X120967502Y-79438500D01*
X131629900Y-77793100D02*
X131629900Y-77286600D01*
X131216400Y-76873100D02*
X125268758Y-76873100D01*
X131629900Y-77286600D02*
X131216400Y-76873100D01*
X125268758Y-76873100D02*
X123405900Y-78735958D01*
%TO.N,PWRC*%
X123068815Y-81026000D02*
X123634500Y-81026000D01*
X122412000Y-82074000D02*
X122412000Y-81682815D01*
X122412000Y-81682815D02*
X123068815Y-81026000D01*
%TO.N,ARD_TX*%
X125422813Y-83108955D02*
X125476008Y-83108955D01*
X124257768Y-84274000D02*
X125422813Y-83108955D01*
X123412000Y-84274000D02*
X124257768Y-84274000D01*
D20*
%TO.N,VIN*%
X115062000Y-93008000D02*
X115062000Y-95758000D01*
D18*
X127422000Y-91432000D02*
X127422000Y-91932000D01*
X127438000Y-91948000D02*
X127422000Y-91932000D01*
X129689000Y-91432000D02*
X129794000Y-91327000D01*
X127422000Y-91432000D02*
X129689000Y-91432000D01*
X131445000Y-91327000D02*
X131572000Y-91454000D01*
X129794000Y-91327000D02*
X131445000Y-91327000D01*
D20*
X127422000Y-93259010D02*
X128143000Y-93980010D01*
X127422000Y-91932000D02*
X127422000Y-93259010D01*
D18*
X131572000Y-91341000D02*
X132306000Y-91341000D01*
X132306000Y-91341000D02*
X133477000Y-90170000D01*
X133477000Y-88772000D02*
X130810000Y-86105000D01*
X133477000Y-90170000D02*
X133477000Y-88772000D01*
X123022000Y-93558000D02*
X123063000Y-93599000D01*
X123022000Y-91932000D02*
X123022000Y-93558000D01*
%TO.N,C1_OUT*%
X133807200Y-79603600D02*
X134569200Y-79603600D01*
X132346700Y-78143100D02*
X133807200Y-79603600D01*
X132329900Y-78143100D02*
X132346700Y-78143100D01*
D20*
X135178800Y-80213200D02*
X134569200Y-79603600D01*
X136956800Y-80213200D02*
X135178800Y-80213200D01*
D18*
%TO.N,C1_IN*%
X134329700Y-77793100D02*
X134569200Y-77553600D01*
X132329900Y-77793100D02*
X134329700Y-77793100D01*
D20*
X134688800Y-77673200D02*
X134569200Y-77553600D01*
X136956800Y-77673200D02*
X134688800Y-77673200D01*
D18*
%TO.N,Net-(L1-Pad2)*%
X128199000Y-89155000D02*
X127422000Y-89932000D01*
X130810000Y-89155000D02*
X128199000Y-89155000D01*
%TO.N,VFB*%
X121095800Y-90883800D02*
X121107200Y-90895200D01*
X119405400Y-90883800D02*
X121095800Y-90883800D01*
X121570400Y-90432000D02*
X123022000Y-90432000D01*
X121107200Y-90895200D02*
X121570400Y-90432000D01*
%TO.N,STATUS*%
X122012000Y-81594396D02*
X123215398Y-80390998D01*
X122012000Y-82074000D02*
X122012000Y-81594396D01*
X124707226Y-81158922D02*
X125489788Y-81158922D01*
X123939302Y-80390998D02*
X124707226Y-81158922D01*
X123215398Y-80390998D02*
X123939302Y-80390998D01*
%TO.N,C2D*%
X125488801Y-94672999D02*
X126053001Y-95237199D01*
X123557164Y-88351012D02*
X125488801Y-90282649D01*
X121212000Y-86074000D02*
X121212000Y-87189066D01*
X122373946Y-88351012D02*
X123557164Y-88351012D01*
X121212000Y-87189066D02*
X122373946Y-88351012D01*
X126053001Y-95237199D02*
X126053001Y-96899032D01*
X128135673Y-97689990D02*
X128437642Y-97388021D01*
X126843959Y-97689990D02*
X128135673Y-97689990D01*
X126053001Y-96899032D02*
X126843959Y-97689990D01*
X125488801Y-90282649D02*
X125488801Y-94672999D01*
%TO.N,C2CK*%
X126412000Y-93726000D02*
X126412000Y-96218209D01*
X126412000Y-96218209D02*
X127248771Y-97054980D01*
X121612000Y-86814000D02*
X122809001Y-88011001D01*
X126412000Y-90725000D02*
X126412000Y-93251000D01*
X121612000Y-86074000D02*
X121612000Y-86814000D01*
X123698001Y-88011001D02*
X126412000Y-90725000D01*
X126412000Y-93251000D02*
X126412000Y-93726000D01*
X122809001Y-88011001D02*
X123698001Y-88011001D01*
D20*
%TO.N,BATT*%
X120312000Y-95758000D02*
X117562000Y-93008000D01*
X122428000Y-95758000D02*
X120312000Y-95758000D01*
D18*
%TO.N,LED*%
X127265181Y-81793924D02*
X129041128Y-83569871D01*
X123607468Y-82674000D02*
X124487544Y-81793924D01*
X124487544Y-81793924D02*
X127265181Y-81793924D01*
X129041128Y-83569871D02*
X133262766Y-83569871D01*
X123412000Y-82674000D02*
X123607468Y-82674000D01*
D20*
%TO.N,VHIGH*%
X136445000Y-87630000D02*
X136398000Y-87677000D01*
D18*
%TO.N,A4*%
X134112000Y-85445600D02*
X134112000Y-87528400D01*
X134112000Y-87528400D02*
X136956800Y-90373200D01*
X124725414Y-82133934D02*
X127124345Y-82133934D01*
X128933829Y-83943418D02*
X132609818Y-83943418D01*
X127124345Y-82133934D02*
X128933829Y-83943418D01*
X132609818Y-83943418D02*
X134112000Y-85445600D01*
X123785348Y-83074000D02*
X124725414Y-82133934D01*
X123412000Y-83074000D02*
X123785348Y-83074000D01*
%TO.N,Net-(C7-Pad2)*%
X125437500Y-84620500D02*
X125437500Y-84300000D01*
X123984000Y-86074000D02*
X125437500Y-84620500D01*
X122812000Y-86074000D02*
X123984000Y-86074000D01*
%TO.N,Net-(R7-Pad2)*%
X132715000Y-79009046D02*
X132715000Y-80276700D01*
X131979900Y-78273946D02*
X132715000Y-79009046D01*
X131979900Y-78143100D02*
X131979900Y-78273946D01*
X130784601Y-81965801D02*
X129095500Y-80276700D01*
X132715000Y-81495902D02*
X132245101Y-81965801D01*
X132245101Y-81965801D02*
X130784601Y-81965801D01*
X132715000Y-80276700D02*
X132715000Y-81495902D01*
%TO.N,MAX_SHDN*%
X120012000Y-79913154D02*
X120012000Y-82074000D01*
X129937732Y-79485268D02*
X124488811Y-79485266D01*
X124374512Y-79370968D02*
X122754164Y-79370968D01*
X122754164Y-79370968D02*
X122148594Y-78765398D01*
X131279900Y-78143100D02*
X129937732Y-79485268D01*
X124488811Y-79485266D02*
X124374512Y-79370968D01*
X122148594Y-78765398D02*
X121159756Y-78765398D01*
X121159756Y-78765398D02*
X120012000Y-79913154D01*
%TO.N,GAIN*%
X119412000Y-80169000D02*
X119412000Y-82674000D01*
X119412000Y-80032308D02*
X119412000Y-80169000D01*
X123726908Y-75717400D02*
X119412000Y-80032308D01*
X130809800Y-75717400D02*
X123726908Y-75717400D01*
X131965700Y-76873300D02*
X130809800Y-75717400D01*
X131979900Y-76887500D02*
X131965700Y-76873300D01*
X131979900Y-77793100D02*
X131979900Y-76887500D01*
%TD*%
D21*
%TO.N,GND*%
X116347498Y-94502180D02*
X116406463Y-94612494D01*
X116485815Y-94709185D01*
X116582506Y-94788537D01*
X116692820Y-94847502D01*
X116812518Y-94883812D01*
X116937000Y-94896072D01*
X117799017Y-94896072D01*
X117770353Y-94915225D01*
X117619225Y-95066353D01*
X117500485Y-95244060D01*
X117418696Y-95441517D01*
X117377000Y-95651137D01*
X117377000Y-95864863D01*
X117418696Y-96074483D01*
X117500485Y-96271940D01*
X117619225Y-96449647D01*
X117770353Y-96600775D01*
X117948060Y-96719515D01*
X118145517Y-96801304D01*
X118355137Y-96843000D01*
X118568863Y-96843000D01*
X118778483Y-96801304D01*
X118975940Y-96719515D01*
X119153647Y-96600775D01*
X119304775Y-96449647D01*
X119423515Y-96271940D01*
X119467697Y-96165276D01*
X119655470Y-96353049D01*
X119683183Y-96386817D01*
X119716951Y-96414530D01*
X119716953Y-96414532D01*
X119759741Y-96449647D01*
X119817941Y-96497411D01*
X119971687Y-96579589D01*
X120138510Y-96630195D01*
X120268523Y-96643000D01*
X120268533Y-96643000D01*
X120311999Y-96647281D01*
X120355465Y-96643000D01*
X120943375Y-96643000D01*
X120952188Y-96732482D01*
X120988498Y-96852180D01*
X121047463Y-96962494D01*
X121126815Y-97059185D01*
X121223506Y-97138537D01*
X121333820Y-97197502D01*
X121453518Y-97233812D01*
X121578000Y-97246072D01*
X123278000Y-97246072D01*
X123402482Y-97233812D01*
X123522180Y-97197502D01*
X123632494Y-97138537D01*
X123729185Y-97059185D01*
X123808537Y-96962494D01*
X123867502Y-96852180D01*
X123891966Y-96771534D01*
X123967731Y-96855588D01*
X124201080Y-97029641D01*
X124463901Y-97154825D01*
X124611110Y-97199476D01*
X124841000Y-97078155D01*
X124841000Y-95885000D01*
X124821000Y-95885000D01*
X124821000Y-95631000D01*
X124841000Y-95631000D01*
X124841000Y-95611000D01*
X125095000Y-95611000D01*
X125095000Y-95631000D01*
X125115000Y-95631000D01*
X125115000Y-95885000D01*
X125095000Y-95885000D01*
X125095000Y-97078155D01*
X125324890Y-97199476D01*
X125367593Y-97186524D01*
X125373461Y-97197502D01*
X125422902Y-97290000D01*
X110710000Y-97290000D01*
X110710000Y-96286180D01*
X110819225Y-96449647D01*
X110970353Y-96600775D01*
X111148060Y-96719515D01*
X111345517Y-96801304D01*
X111555137Y-96843000D01*
X111768863Y-96843000D01*
X111978483Y-96801304D01*
X112175940Y-96719515D01*
X112353647Y-96600775D01*
X112504775Y-96449647D01*
X112623515Y-96271940D01*
X112705304Y-96074483D01*
X112747000Y-95864863D01*
X112747000Y-95651137D01*
X112705304Y-95441517D01*
X112623515Y-95244060D01*
X112504775Y-95066353D01*
X112353647Y-94915225D01*
X112324983Y-94896072D01*
X113187000Y-94896072D01*
X113311482Y-94883812D01*
X113431180Y-94847502D01*
X113541494Y-94788537D01*
X113638185Y-94709185D01*
X113717537Y-94612494D01*
X113776502Y-94502180D01*
X113812000Y-94385159D01*
X113847498Y-94502180D01*
X113906463Y-94612494D01*
X113985815Y-94709185D01*
X114082506Y-94788537D01*
X114177001Y-94839046D01*
X114177001Y-95219544D01*
X114144795Y-95267744D01*
X114066774Y-95456102D01*
X114027000Y-95656061D01*
X114027000Y-95859939D01*
X114066774Y-96059898D01*
X114144795Y-96248256D01*
X114258063Y-96417774D01*
X114402226Y-96561937D01*
X114571744Y-96675205D01*
X114760102Y-96753226D01*
X114960061Y-96793000D01*
X115163939Y-96793000D01*
X115363898Y-96753226D01*
X115552256Y-96675205D01*
X115721774Y-96561937D01*
X115865937Y-96417774D01*
X115979205Y-96248256D01*
X116057226Y-96059898D01*
X116097000Y-95859939D01*
X116097000Y-95656061D01*
X116057226Y-95456102D01*
X115979205Y-95267744D01*
X115947000Y-95219546D01*
X115947000Y-94839046D01*
X116041494Y-94788537D01*
X116138185Y-94709185D01*
X116217537Y-94612494D01*
X116276502Y-94502180D01*
X116312000Y-94385159D01*
X116347498Y-94502180D01*
%TA.AperFunction,Conductor*%
D22*
G36*
X116347498Y-94502180D02*
G01*
X116406463Y-94612494D01*
X116485815Y-94709185D01*
X116582506Y-94788537D01*
X116692820Y-94847502D01*
X116812518Y-94883812D01*
X116937000Y-94896072D01*
X117799017Y-94896072D01*
X117770353Y-94915225D01*
X117619225Y-95066353D01*
X117500485Y-95244060D01*
X117418696Y-95441517D01*
X117377000Y-95651137D01*
X117377000Y-95864863D01*
X117418696Y-96074483D01*
X117500485Y-96271940D01*
X117619225Y-96449647D01*
X117770353Y-96600775D01*
X117948060Y-96719515D01*
X118145517Y-96801304D01*
X118355137Y-96843000D01*
X118568863Y-96843000D01*
X118778483Y-96801304D01*
X118975940Y-96719515D01*
X119153647Y-96600775D01*
X119304775Y-96449647D01*
X119423515Y-96271940D01*
X119467697Y-96165276D01*
X119655470Y-96353049D01*
X119683183Y-96386817D01*
X119716951Y-96414530D01*
X119716953Y-96414532D01*
X119759741Y-96449647D01*
X119817941Y-96497411D01*
X119971687Y-96579589D01*
X120138510Y-96630195D01*
X120268523Y-96643000D01*
X120268533Y-96643000D01*
X120311999Y-96647281D01*
X120355465Y-96643000D01*
X120943375Y-96643000D01*
X120952188Y-96732482D01*
X120988498Y-96852180D01*
X121047463Y-96962494D01*
X121126815Y-97059185D01*
X121223506Y-97138537D01*
X121333820Y-97197502D01*
X121453518Y-97233812D01*
X121578000Y-97246072D01*
X123278000Y-97246072D01*
X123402482Y-97233812D01*
X123522180Y-97197502D01*
X123632494Y-97138537D01*
X123729185Y-97059185D01*
X123808537Y-96962494D01*
X123867502Y-96852180D01*
X123891966Y-96771534D01*
X123967731Y-96855588D01*
X124201080Y-97029641D01*
X124463901Y-97154825D01*
X124611110Y-97199476D01*
X124841000Y-97078155D01*
X124841000Y-95885000D01*
X124821000Y-95885000D01*
X124821000Y-95631000D01*
X124841000Y-95631000D01*
X124841000Y-95611000D01*
X125095000Y-95611000D01*
X125095000Y-95631000D01*
X125115000Y-95631000D01*
X125115000Y-95885000D01*
X125095000Y-95885000D01*
X125095000Y-97078155D01*
X125324890Y-97199476D01*
X125367593Y-97186524D01*
X125373461Y-97197502D01*
X125422902Y-97290000D01*
X110710000Y-97290000D01*
X110710000Y-96286180D01*
X110819225Y-96449647D01*
X110970353Y-96600775D01*
X111148060Y-96719515D01*
X111345517Y-96801304D01*
X111555137Y-96843000D01*
X111768863Y-96843000D01*
X111978483Y-96801304D01*
X112175940Y-96719515D01*
X112353647Y-96600775D01*
X112504775Y-96449647D01*
X112623515Y-96271940D01*
X112705304Y-96074483D01*
X112747000Y-95864863D01*
X112747000Y-95651137D01*
X112705304Y-95441517D01*
X112623515Y-95244060D01*
X112504775Y-95066353D01*
X112353647Y-94915225D01*
X112324983Y-94896072D01*
X113187000Y-94896072D01*
X113311482Y-94883812D01*
X113431180Y-94847502D01*
X113541494Y-94788537D01*
X113638185Y-94709185D01*
X113717537Y-94612494D01*
X113776502Y-94502180D01*
X113812000Y-94385159D01*
X113847498Y-94502180D01*
X113906463Y-94612494D01*
X113985815Y-94709185D01*
X114082506Y-94788537D01*
X114177001Y-94839046D01*
X114177001Y-95219544D01*
X114144795Y-95267744D01*
X114066774Y-95456102D01*
X114027000Y-95656061D01*
X114027000Y-95859939D01*
X114066774Y-96059898D01*
X114144795Y-96248256D01*
X114258063Y-96417774D01*
X114402226Y-96561937D01*
X114571744Y-96675205D01*
X114760102Y-96753226D01*
X114960061Y-96793000D01*
X115163939Y-96793000D01*
X115363898Y-96753226D01*
X115552256Y-96675205D01*
X115721774Y-96561937D01*
X115865937Y-96417774D01*
X115979205Y-96248256D01*
X116057226Y-96059898D01*
X116097000Y-95859939D01*
X116097000Y-95656061D01*
X116057226Y-95456102D01*
X115979205Y-95267744D01*
X115947000Y-95219546D01*
X115947000Y-94839046D01*
X116041494Y-94788537D01*
X116138185Y-94709185D01*
X116217537Y-94612494D01*
X116276502Y-94502180D01*
X116312000Y-94385159D01*
X116347498Y-94502180D01*
G37*
%TD.AperFunction*%
D21*
X139290001Y-97290000D02*
X134432485Y-97290000D01*
X134481961Y-97240524D01*
X134605659Y-97055398D01*
X134690863Y-96849696D01*
X134734300Y-96631325D01*
X134734300Y-96408675D01*
X134690863Y-96190304D01*
X134605659Y-95984602D01*
X134489054Y-95810090D01*
X135515324Y-95810090D01*
X135559975Y-95957299D01*
X135685159Y-96220120D01*
X135859212Y-96453469D01*
X136075445Y-96648378D01*
X136325548Y-96797357D01*
X136599909Y-96894681D01*
X136829800Y-96774014D01*
X136829800Y-95580200D01*
X137083800Y-95580200D01*
X137083800Y-96774014D01*
X137313691Y-96894681D01*
X137588052Y-96797357D01*
X137838155Y-96648378D01*
X138054388Y-96453469D01*
X138228441Y-96220120D01*
X138353625Y-95957299D01*
X138398276Y-95810090D01*
X138276955Y-95580200D01*
X137083800Y-95580200D01*
X136829800Y-95580200D01*
X135636645Y-95580200D01*
X135515324Y-95810090D01*
X134489054Y-95810090D01*
X134481961Y-95799476D01*
X134324524Y-95642039D01*
X134139398Y-95518341D01*
X134104776Y-95504000D01*
X134139398Y-95489659D01*
X134324524Y-95365961D01*
X134481961Y-95208524D01*
X134605659Y-95023398D01*
X134690863Y-94817696D01*
X134734300Y-94599325D01*
X134734300Y-94376675D01*
X134690863Y-94158304D01*
X134605659Y-93952602D01*
X134481961Y-93767476D01*
X134324524Y-93610039D01*
X134139398Y-93486341D01*
X133933696Y-93401137D01*
X133715325Y-93357700D01*
X133492675Y-93357700D01*
X133274304Y-93401137D01*
X133068602Y-93486341D01*
X132883476Y-93610039D01*
X132726039Y-93767476D01*
X132602341Y-93952602D01*
X132517137Y-94158304D01*
X132473700Y-94376675D01*
X132473700Y-94599325D01*
X132517137Y-94817696D01*
X132602341Y-95023398D01*
X132726039Y-95208524D01*
X132883476Y-95365961D01*
X133068602Y-95489659D01*
X133103224Y-95504000D01*
X133068602Y-95518341D01*
X132883476Y-95642039D01*
X132726039Y-95799476D01*
X132602341Y-95984602D01*
X132517137Y-96190304D01*
X132473700Y-96408675D01*
X132473700Y-96631325D01*
X132517137Y-96849696D01*
X132602341Y-97055398D01*
X132726039Y-97240524D01*
X132775515Y-97290000D01*
X129472642Y-97290000D01*
X129472642Y-97286082D01*
X129432868Y-97086123D01*
X129354847Y-96897765D01*
X129241579Y-96728247D01*
X129097416Y-96584084D01*
X129010412Y-96525950D01*
X129059398Y-96505659D01*
X129244524Y-96381961D01*
X129401961Y-96224524D01*
X129525659Y-96039398D01*
X129610863Y-95833696D01*
X129654300Y-95615325D01*
X129654300Y-95392675D01*
X129610863Y-95174304D01*
X129525659Y-94968602D01*
X129401961Y-94783476D01*
X129244524Y-94626039D01*
X129059398Y-94502341D01*
X129043244Y-94495650D01*
X129060205Y-94470266D01*
X129138226Y-94281908D01*
X129151577Y-94214786D01*
X129194518Y-94227812D01*
X129319000Y-94240072D01*
X129508250Y-94237000D01*
X129667000Y-94078250D01*
X129667000Y-93204000D01*
X129921000Y-93204000D01*
X129921000Y-94078250D01*
X130079750Y-94237000D01*
X130269000Y-94240072D01*
X130393482Y-94227812D01*
X130513180Y-94191502D01*
X130623494Y-94132537D01*
X130674470Y-94090702D01*
X130742506Y-94146537D01*
X130852820Y-94205502D01*
X130972518Y-94241812D01*
X131097000Y-94254072D01*
X131286250Y-94251000D01*
X131445000Y-94092250D01*
X131445000Y-93218000D01*
X131699000Y-93218000D01*
X131699000Y-94092250D01*
X131857750Y-94251000D01*
X132047000Y-94254072D01*
X132171482Y-94241812D01*
X132291180Y-94205502D01*
X132401494Y-94146537D01*
X132498185Y-94067185D01*
X132577537Y-93970494D01*
X132636502Y-93860180D01*
X132672812Y-93740482D01*
X132685072Y-93616000D01*
X132682000Y-93376750D01*
X132523250Y-93218000D01*
X131699000Y-93218000D01*
X131445000Y-93218000D01*
X130759250Y-93218000D01*
X130745250Y-93204000D01*
X129921000Y-93204000D01*
X129667000Y-93204000D01*
X128842750Y-93204000D01*
X128836726Y-93210025D01*
X128802774Y-93176073D01*
X128633256Y-93062805D01*
X128444898Y-92984784D01*
X128388044Y-92973475D01*
X128307000Y-92892432D01*
X128307000Y-92689454D01*
X128366180Y-92671502D01*
X128476494Y-92612537D01*
X128573185Y-92533185D01*
X128652537Y-92436494D01*
X128711502Y-92326180D01*
X128747812Y-92206482D01*
X128751208Y-92172000D01*
X128809395Y-92172000D01*
X128788463Y-92197506D01*
X128729498Y-92307820D01*
X128693188Y-92427518D01*
X128680928Y-92552000D01*
X128684000Y-92791250D01*
X128842750Y-92950000D01*
X129667000Y-92950000D01*
X129667000Y-92930000D01*
X129921000Y-92930000D01*
X129921000Y-92950000D01*
X130606750Y-92950000D01*
X130620750Y-92964000D01*
X131445000Y-92964000D01*
X131445000Y-92944000D01*
X131699000Y-92944000D01*
X131699000Y-92964000D01*
X132523250Y-92964000D01*
X132682000Y-92805250D01*
X132685072Y-92566000D01*
X132672812Y-92441518D01*
X132636502Y-92321820D01*
X132577537Y-92211506D01*
X132517901Y-92138839D01*
X132537512Y-92114942D01*
X132582725Y-92030353D01*
X132590556Y-92027978D01*
X132719111Y-91959264D01*
X132831790Y-91866790D01*
X132854962Y-91838555D01*
X133974561Y-90718957D01*
X134002790Y-90695790D01*
X134034200Y-90657518D01*
X134070119Y-90613750D01*
X134095264Y-90583111D01*
X134163978Y-90454556D01*
X134193791Y-90356276D01*
X134206292Y-90315066D01*
X134208596Y-90291668D01*
X134217000Y-90206347D01*
X134217000Y-90206341D01*
X134220579Y-90170001D01*
X134217000Y-90133661D01*
X134217000Y-88808340D01*
X134220579Y-88772000D01*
X134217000Y-88735660D01*
X134217000Y-88735653D01*
X134210911Y-88673828D01*
X135520283Y-89983201D01*
X135471800Y-90226940D01*
X135471800Y-90519460D01*
X135528868Y-90806358D01*
X135640810Y-91076611D01*
X135803325Y-91319832D01*
X136010168Y-91526675D01*
X136184560Y-91643200D01*
X136010168Y-91759725D01*
X135803325Y-91966568D01*
X135640810Y-92209789D01*
X135528868Y-92480042D01*
X135471800Y-92766940D01*
X135471800Y-93059460D01*
X135528868Y-93346358D01*
X135640810Y-93616611D01*
X135803325Y-93859832D01*
X136010168Y-94066675D01*
X136192334Y-94188395D01*
X136075445Y-94258022D01*
X135859212Y-94452931D01*
X135685159Y-94686280D01*
X135559975Y-94949101D01*
X135515324Y-95096310D01*
X135636645Y-95326200D01*
X136829800Y-95326200D01*
X136829800Y-95306200D01*
X137083800Y-95306200D01*
X137083800Y-95326200D01*
X138276955Y-95326200D01*
X138398276Y-95096310D01*
X138353625Y-94949101D01*
X138228441Y-94686280D01*
X138054388Y-94452931D01*
X137838155Y-94258022D01*
X137721266Y-94188395D01*
X137903432Y-94066675D01*
X138110275Y-93859832D01*
X138272790Y-93616611D01*
X138384732Y-93346358D01*
X138441800Y-93059460D01*
X138441800Y-92766940D01*
X138384732Y-92480042D01*
X138272790Y-92209789D01*
X138110275Y-91966568D01*
X137903432Y-91759725D01*
X137729040Y-91643200D01*
X137903432Y-91526675D01*
X138110275Y-91319832D01*
X138272790Y-91076611D01*
X138384732Y-90806358D01*
X138441800Y-90519460D01*
X138441800Y-90226940D01*
X138384732Y-89940042D01*
X138272790Y-89669789D01*
X138110275Y-89426568D01*
X137903432Y-89219725D01*
X137729040Y-89103200D01*
X137903432Y-88986675D01*
X138110275Y-88779832D01*
X138272790Y-88536611D01*
X138384732Y-88266358D01*
X138441800Y-87979460D01*
X138441800Y-87686940D01*
X138384732Y-87400042D01*
X138272790Y-87129789D01*
X138110275Y-86886568D01*
X137903432Y-86679725D01*
X137729040Y-86563200D01*
X137903432Y-86446675D01*
X138110275Y-86239832D01*
X138272790Y-85996611D01*
X138384732Y-85726358D01*
X138441800Y-85439460D01*
X138441800Y-85146940D01*
X138384732Y-84860042D01*
X138272790Y-84589789D01*
X138110275Y-84346568D01*
X137903432Y-84139725D01*
X137729040Y-84023200D01*
X137903432Y-83906675D01*
X138110275Y-83699832D01*
X138272790Y-83456611D01*
X138384732Y-83186358D01*
X138441800Y-82899460D01*
X138441800Y-82606940D01*
X138384732Y-82320042D01*
X138272790Y-82049789D01*
X138110275Y-81806568D01*
X137903432Y-81599725D01*
X137729040Y-81483200D01*
X137903432Y-81366675D01*
X138110275Y-81159832D01*
X138272790Y-80916611D01*
X138384732Y-80646358D01*
X138441800Y-80359460D01*
X138441800Y-80066940D01*
X138384732Y-79780042D01*
X138272790Y-79509789D01*
X138110275Y-79266568D01*
X137978420Y-79134713D01*
X138050980Y-79112702D01*
X138161294Y-79053737D01*
X138257985Y-78974385D01*
X138337337Y-78877694D01*
X138396302Y-78767380D01*
X138432612Y-78647682D01*
X138444872Y-78523200D01*
X138444872Y-76823200D01*
X138432612Y-76698718D01*
X138396302Y-76579020D01*
X138337337Y-76468706D01*
X138257985Y-76372015D01*
X138161294Y-76292663D01*
X138050980Y-76233698D01*
X137931282Y-76197388D01*
X137806800Y-76185128D01*
X136106800Y-76185128D01*
X135982318Y-76197388D01*
X135862620Y-76233698D01*
X135752306Y-76292663D01*
X135655615Y-76372015D01*
X135576263Y-76468706D01*
X135548863Y-76519966D01*
X135512587Y-76490195D01*
X135359051Y-76408128D01*
X135192455Y-76357592D01*
X135019201Y-76340528D01*
X134119199Y-76340528D01*
X133945945Y-76357592D01*
X133779349Y-76408128D01*
X133625813Y-76490195D01*
X133491238Y-76600638D01*
X133380795Y-76735213D01*
X133298728Y-76888749D01*
X133248873Y-77053100D01*
X132719900Y-77053100D01*
X132719900Y-76923840D01*
X132723479Y-76887500D01*
X132719900Y-76851160D01*
X132719900Y-76851153D01*
X132709192Y-76742435D01*
X132666878Y-76602944D01*
X132598164Y-76474389D01*
X132505690Y-76361710D01*
X132477460Y-76338542D01*
X131848917Y-75710000D01*
X139290000Y-75710000D01*
X139290001Y-97290000D01*
%TA.AperFunction,Conductor*%
D22*
G36*
X139290001Y-97290000D02*
G01*
X134432485Y-97290000D01*
X134481961Y-97240524D01*
X134605659Y-97055398D01*
X134690863Y-96849696D01*
X134734300Y-96631325D01*
X134734300Y-96408675D01*
X134690863Y-96190304D01*
X134605659Y-95984602D01*
X134489054Y-95810090D01*
X135515324Y-95810090D01*
X135559975Y-95957299D01*
X135685159Y-96220120D01*
X135859212Y-96453469D01*
X136075445Y-96648378D01*
X136325548Y-96797357D01*
X136599909Y-96894681D01*
X136829800Y-96774014D01*
X136829800Y-95580200D01*
X137083800Y-95580200D01*
X137083800Y-96774014D01*
X137313691Y-96894681D01*
X137588052Y-96797357D01*
X137838155Y-96648378D01*
X138054388Y-96453469D01*
X138228441Y-96220120D01*
X138353625Y-95957299D01*
X138398276Y-95810090D01*
X138276955Y-95580200D01*
X137083800Y-95580200D01*
X136829800Y-95580200D01*
X135636645Y-95580200D01*
X135515324Y-95810090D01*
X134489054Y-95810090D01*
X134481961Y-95799476D01*
X134324524Y-95642039D01*
X134139398Y-95518341D01*
X134104776Y-95504000D01*
X134139398Y-95489659D01*
X134324524Y-95365961D01*
X134481961Y-95208524D01*
X134605659Y-95023398D01*
X134690863Y-94817696D01*
X134734300Y-94599325D01*
X134734300Y-94376675D01*
X134690863Y-94158304D01*
X134605659Y-93952602D01*
X134481961Y-93767476D01*
X134324524Y-93610039D01*
X134139398Y-93486341D01*
X133933696Y-93401137D01*
X133715325Y-93357700D01*
X133492675Y-93357700D01*
X133274304Y-93401137D01*
X133068602Y-93486341D01*
X132883476Y-93610039D01*
X132726039Y-93767476D01*
X132602341Y-93952602D01*
X132517137Y-94158304D01*
X132473700Y-94376675D01*
X132473700Y-94599325D01*
X132517137Y-94817696D01*
X132602341Y-95023398D01*
X132726039Y-95208524D01*
X132883476Y-95365961D01*
X133068602Y-95489659D01*
X133103224Y-95504000D01*
X133068602Y-95518341D01*
X132883476Y-95642039D01*
X132726039Y-95799476D01*
X132602341Y-95984602D01*
X132517137Y-96190304D01*
X132473700Y-96408675D01*
X132473700Y-96631325D01*
X132517137Y-96849696D01*
X132602341Y-97055398D01*
X132726039Y-97240524D01*
X132775515Y-97290000D01*
X129472642Y-97290000D01*
X129472642Y-97286082D01*
X129432868Y-97086123D01*
X129354847Y-96897765D01*
X129241579Y-96728247D01*
X129097416Y-96584084D01*
X129010412Y-96525950D01*
X129059398Y-96505659D01*
X129244524Y-96381961D01*
X129401961Y-96224524D01*
X129525659Y-96039398D01*
X129610863Y-95833696D01*
X129654300Y-95615325D01*
X129654300Y-95392675D01*
X129610863Y-95174304D01*
X129525659Y-94968602D01*
X129401961Y-94783476D01*
X129244524Y-94626039D01*
X129059398Y-94502341D01*
X129043244Y-94495650D01*
X129060205Y-94470266D01*
X129138226Y-94281908D01*
X129151577Y-94214786D01*
X129194518Y-94227812D01*
X129319000Y-94240072D01*
X129508250Y-94237000D01*
X129667000Y-94078250D01*
X129667000Y-93204000D01*
X129921000Y-93204000D01*
X129921000Y-94078250D01*
X130079750Y-94237000D01*
X130269000Y-94240072D01*
X130393482Y-94227812D01*
X130513180Y-94191502D01*
X130623494Y-94132537D01*
X130674470Y-94090702D01*
X130742506Y-94146537D01*
X130852820Y-94205502D01*
X130972518Y-94241812D01*
X131097000Y-94254072D01*
X131286250Y-94251000D01*
X131445000Y-94092250D01*
X131445000Y-93218000D01*
X131699000Y-93218000D01*
X131699000Y-94092250D01*
X131857750Y-94251000D01*
X132047000Y-94254072D01*
X132171482Y-94241812D01*
X132291180Y-94205502D01*
X132401494Y-94146537D01*
X132498185Y-94067185D01*
X132577537Y-93970494D01*
X132636502Y-93860180D01*
X132672812Y-93740482D01*
X132685072Y-93616000D01*
X132682000Y-93376750D01*
X132523250Y-93218000D01*
X131699000Y-93218000D01*
X131445000Y-93218000D01*
X130759250Y-93218000D01*
X130745250Y-93204000D01*
X129921000Y-93204000D01*
X129667000Y-93204000D01*
X128842750Y-93204000D01*
X128836726Y-93210025D01*
X128802774Y-93176073D01*
X128633256Y-93062805D01*
X128444898Y-92984784D01*
X128388044Y-92973475D01*
X128307000Y-92892432D01*
X128307000Y-92689454D01*
X128366180Y-92671502D01*
X128476494Y-92612537D01*
X128573185Y-92533185D01*
X128652537Y-92436494D01*
X128711502Y-92326180D01*
X128747812Y-92206482D01*
X128751208Y-92172000D01*
X128809395Y-92172000D01*
X128788463Y-92197506D01*
X128729498Y-92307820D01*
X128693188Y-92427518D01*
X128680928Y-92552000D01*
X128684000Y-92791250D01*
X128842750Y-92950000D01*
X129667000Y-92950000D01*
X129667000Y-92930000D01*
X129921000Y-92930000D01*
X129921000Y-92950000D01*
X130606750Y-92950000D01*
X130620750Y-92964000D01*
X131445000Y-92964000D01*
X131445000Y-92944000D01*
X131699000Y-92944000D01*
X131699000Y-92964000D01*
X132523250Y-92964000D01*
X132682000Y-92805250D01*
X132685072Y-92566000D01*
X132672812Y-92441518D01*
X132636502Y-92321820D01*
X132577537Y-92211506D01*
X132517901Y-92138839D01*
X132537512Y-92114942D01*
X132582725Y-92030353D01*
X132590556Y-92027978D01*
X132719111Y-91959264D01*
X132831790Y-91866790D01*
X132854962Y-91838555D01*
X133974561Y-90718957D01*
X134002790Y-90695790D01*
X134034200Y-90657518D01*
X134070119Y-90613750D01*
X134095264Y-90583111D01*
X134163978Y-90454556D01*
X134193791Y-90356276D01*
X134206292Y-90315066D01*
X134208596Y-90291668D01*
X134217000Y-90206347D01*
X134217000Y-90206341D01*
X134220579Y-90170001D01*
X134217000Y-90133661D01*
X134217000Y-88808340D01*
X134220579Y-88772000D01*
X134217000Y-88735660D01*
X134217000Y-88735653D01*
X134210911Y-88673828D01*
X135520283Y-89983201D01*
X135471800Y-90226940D01*
X135471800Y-90519460D01*
X135528868Y-90806358D01*
X135640810Y-91076611D01*
X135803325Y-91319832D01*
X136010168Y-91526675D01*
X136184560Y-91643200D01*
X136010168Y-91759725D01*
X135803325Y-91966568D01*
X135640810Y-92209789D01*
X135528868Y-92480042D01*
X135471800Y-92766940D01*
X135471800Y-93059460D01*
X135528868Y-93346358D01*
X135640810Y-93616611D01*
X135803325Y-93859832D01*
X136010168Y-94066675D01*
X136192334Y-94188395D01*
X136075445Y-94258022D01*
X135859212Y-94452931D01*
X135685159Y-94686280D01*
X135559975Y-94949101D01*
X135515324Y-95096310D01*
X135636645Y-95326200D01*
X136829800Y-95326200D01*
X136829800Y-95306200D01*
X137083800Y-95306200D01*
X137083800Y-95326200D01*
X138276955Y-95326200D01*
X138398276Y-95096310D01*
X138353625Y-94949101D01*
X138228441Y-94686280D01*
X138054388Y-94452931D01*
X137838155Y-94258022D01*
X137721266Y-94188395D01*
X137903432Y-94066675D01*
X138110275Y-93859832D01*
X138272790Y-93616611D01*
X138384732Y-93346358D01*
X138441800Y-93059460D01*
X138441800Y-92766940D01*
X138384732Y-92480042D01*
X138272790Y-92209789D01*
X138110275Y-91966568D01*
X137903432Y-91759725D01*
X137729040Y-91643200D01*
X137903432Y-91526675D01*
X138110275Y-91319832D01*
X138272790Y-91076611D01*
X138384732Y-90806358D01*
X138441800Y-90519460D01*
X138441800Y-90226940D01*
X138384732Y-89940042D01*
X138272790Y-89669789D01*
X138110275Y-89426568D01*
X137903432Y-89219725D01*
X137729040Y-89103200D01*
X137903432Y-88986675D01*
X138110275Y-88779832D01*
X138272790Y-88536611D01*
X138384732Y-88266358D01*
X138441800Y-87979460D01*
X138441800Y-87686940D01*
X138384732Y-87400042D01*
X138272790Y-87129789D01*
X138110275Y-86886568D01*
X137903432Y-86679725D01*
X137729040Y-86563200D01*
X137903432Y-86446675D01*
X138110275Y-86239832D01*
X138272790Y-85996611D01*
X138384732Y-85726358D01*
X138441800Y-85439460D01*
X138441800Y-85146940D01*
X138384732Y-84860042D01*
X138272790Y-84589789D01*
X138110275Y-84346568D01*
X137903432Y-84139725D01*
X137729040Y-84023200D01*
X137903432Y-83906675D01*
X138110275Y-83699832D01*
X138272790Y-83456611D01*
X138384732Y-83186358D01*
X138441800Y-82899460D01*
X138441800Y-82606940D01*
X138384732Y-82320042D01*
X138272790Y-82049789D01*
X138110275Y-81806568D01*
X137903432Y-81599725D01*
X137729040Y-81483200D01*
X137903432Y-81366675D01*
X138110275Y-81159832D01*
X138272790Y-80916611D01*
X138384732Y-80646358D01*
X138441800Y-80359460D01*
X138441800Y-80066940D01*
X138384732Y-79780042D01*
X138272790Y-79509789D01*
X138110275Y-79266568D01*
X137978420Y-79134713D01*
X138050980Y-79112702D01*
X138161294Y-79053737D01*
X138257985Y-78974385D01*
X138337337Y-78877694D01*
X138396302Y-78767380D01*
X138432612Y-78647682D01*
X138444872Y-78523200D01*
X138444872Y-76823200D01*
X138432612Y-76698718D01*
X138396302Y-76579020D01*
X138337337Y-76468706D01*
X138257985Y-76372015D01*
X138161294Y-76292663D01*
X138050980Y-76233698D01*
X137931282Y-76197388D01*
X137806800Y-76185128D01*
X136106800Y-76185128D01*
X135982318Y-76197388D01*
X135862620Y-76233698D01*
X135752306Y-76292663D01*
X135655615Y-76372015D01*
X135576263Y-76468706D01*
X135548863Y-76519966D01*
X135512587Y-76490195D01*
X135359051Y-76408128D01*
X135192455Y-76357592D01*
X135019201Y-76340528D01*
X134119199Y-76340528D01*
X133945945Y-76357592D01*
X133779349Y-76408128D01*
X133625813Y-76490195D01*
X133491238Y-76600638D01*
X133380795Y-76735213D01*
X133298728Y-76888749D01*
X133248873Y-77053100D01*
X132719900Y-77053100D01*
X132719900Y-76923840D01*
X132723479Y-76887500D01*
X132719900Y-76851160D01*
X132719900Y-76851153D01*
X132709192Y-76742435D01*
X132666878Y-76602944D01*
X132598164Y-76474389D01*
X132505690Y-76361710D01*
X132477460Y-76338542D01*
X131848917Y-75710000D01*
X139290000Y-75710000D01*
X139290001Y-97290000D01*
G37*
%TD.AperFunction*%
D21*
X121234200Y-92518200D02*
X121254200Y-92518200D01*
X121254200Y-92772200D01*
X121234200Y-92772200D01*
X121234200Y-92792200D01*
X120980200Y-92792200D01*
X120980200Y-92772200D01*
X120960200Y-92772200D01*
X120960200Y-92518200D01*
X120980200Y-92518200D01*
X120980200Y-92498200D01*
X121234200Y-92498200D01*
X121234200Y-92518200D01*
%TA.AperFunction,Conductor*%
D22*
G36*
X121234200Y-92518200D02*
G01*
X121254200Y-92518200D01*
X121254200Y-92772200D01*
X121234200Y-92772200D01*
X121234200Y-92792200D01*
X120980200Y-92792200D01*
X120980200Y-92772200D01*
X120960200Y-92772200D01*
X120960200Y-92518200D01*
X120980200Y-92518200D01*
X120980200Y-92498200D01*
X121234200Y-92498200D01*
X121234200Y-92518200D01*
G37*
%TD.AperFunction*%
D21*
X127353000Y-85852000D02*
X127373000Y-85852000D01*
X127373000Y-86106000D01*
X127353000Y-86106000D01*
X127353000Y-87630000D01*
X128227250Y-87630000D01*
X128386000Y-87471250D01*
X128389072Y-87282000D01*
X128376812Y-87157518D01*
X128340502Y-87037820D01*
X128281537Y-86927506D01*
X128232702Y-86868000D01*
X128281537Y-86808494D01*
X128340502Y-86698180D01*
X128371928Y-86594582D01*
X128371928Y-86855000D01*
X128384188Y-86979482D01*
X128420498Y-87099180D01*
X128479463Y-87209494D01*
X128558815Y-87306185D01*
X128655506Y-87385537D01*
X128765820Y-87444502D01*
X128885518Y-87480812D01*
X129010000Y-87493072D01*
X131151555Y-87493072D01*
X131425411Y-87766928D01*
X129010000Y-87766928D01*
X128885518Y-87779188D01*
X128765820Y-87815498D01*
X128655506Y-87874463D01*
X128558815Y-87953815D01*
X128479463Y-88050506D01*
X128420498Y-88160820D01*
X128384344Y-88280003D01*
X128389072Y-88232000D01*
X128386000Y-88042750D01*
X128227250Y-87884000D01*
X127353000Y-87884000D01*
X127353000Y-88708250D01*
X127476116Y-88831366D01*
X127163555Y-89143928D01*
X126722000Y-89143928D01*
X126597518Y-89156188D01*
X126477820Y-89192498D01*
X126367506Y-89251463D01*
X126270815Y-89330815D01*
X126191463Y-89427506D01*
X126180860Y-89447342D01*
X125603590Y-88870072D01*
X125763500Y-88870072D01*
X125934316Y-88853248D01*
X126098567Y-88803423D01*
X126249942Y-88722512D01*
X126273839Y-88702901D01*
X126346506Y-88762537D01*
X126456820Y-88821502D01*
X126576518Y-88857812D01*
X126701000Y-88870072D01*
X126940250Y-88867000D01*
X127099000Y-88708250D01*
X127099000Y-87884000D01*
X127079000Y-87884000D01*
X127079000Y-87630000D01*
X127099000Y-87630000D01*
X127099000Y-86106000D01*
X127079000Y-86106000D01*
X127079000Y-85852000D01*
X127099000Y-85852000D01*
X127099000Y-85832000D01*
X127353000Y-85832000D01*
X127353000Y-85852000D01*
%TA.AperFunction,Conductor*%
D22*
G36*
X127353000Y-85852000D02*
G01*
X127373000Y-85852000D01*
X127373000Y-86106000D01*
X127353000Y-86106000D01*
X127353000Y-87630000D01*
X128227250Y-87630000D01*
X128386000Y-87471250D01*
X128389072Y-87282000D01*
X128376812Y-87157518D01*
X128340502Y-87037820D01*
X128281537Y-86927506D01*
X128232702Y-86868000D01*
X128281537Y-86808494D01*
X128340502Y-86698180D01*
X128371928Y-86594582D01*
X128371928Y-86855000D01*
X128384188Y-86979482D01*
X128420498Y-87099180D01*
X128479463Y-87209494D01*
X128558815Y-87306185D01*
X128655506Y-87385537D01*
X128765820Y-87444502D01*
X128885518Y-87480812D01*
X129010000Y-87493072D01*
X131151555Y-87493072D01*
X131425411Y-87766928D01*
X129010000Y-87766928D01*
X128885518Y-87779188D01*
X128765820Y-87815498D01*
X128655506Y-87874463D01*
X128558815Y-87953815D01*
X128479463Y-88050506D01*
X128420498Y-88160820D01*
X128384344Y-88280003D01*
X128389072Y-88232000D01*
X128386000Y-88042750D01*
X128227250Y-87884000D01*
X127353000Y-87884000D01*
X127353000Y-88708250D01*
X127476116Y-88831366D01*
X127163555Y-89143928D01*
X126722000Y-89143928D01*
X126597518Y-89156188D01*
X126477820Y-89192498D01*
X126367506Y-89251463D01*
X126270815Y-89330815D01*
X126191463Y-89427506D01*
X126180860Y-89447342D01*
X125603590Y-88870072D01*
X125763500Y-88870072D01*
X125934316Y-88853248D01*
X126098567Y-88803423D01*
X126249942Y-88722512D01*
X126273839Y-88702901D01*
X126346506Y-88762537D01*
X126456820Y-88821502D01*
X126576518Y-88857812D01*
X126701000Y-88870072D01*
X126940250Y-88867000D01*
X127099000Y-88708250D01*
X127099000Y-87884000D01*
X127079000Y-87884000D01*
X127079000Y-87630000D01*
X127099000Y-87630000D01*
X127099000Y-86106000D01*
X127079000Y-86106000D01*
X127079000Y-85852000D01*
X127099000Y-85852000D01*
X127099000Y-85832000D01*
X127353000Y-85832000D01*
X127353000Y-85852000D01*
G37*
%TD.AperFunction*%
D21*
X118914445Y-79483346D02*
X118886210Y-79506518D01*
X118793736Y-79619198D01*
X118738223Y-79723056D01*
X118725022Y-79747753D01*
X118684684Y-79880731D01*
X118682708Y-79887244D01*
X118672000Y-79995962D01*
X118672000Y-79995968D01*
X118668421Y-80032308D01*
X118672000Y-80068648D01*
X118672000Y-80132654D01*
X118672001Y-82099265D01*
X118625460Y-82137460D01*
X118539889Y-82241728D01*
X118476304Y-82360686D01*
X118437149Y-82489764D01*
X118423928Y-82624000D01*
X118423928Y-82724000D01*
X118437149Y-82858236D01*
X118441931Y-82874000D01*
X118437149Y-82889764D01*
X118423928Y-83024000D01*
X118423928Y-83124000D01*
X118437149Y-83258236D01*
X118441931Y-83274000D01*
X118437149Y-83289764D01*
X118423928Y-83424000D01*
X118423928Y-83524000D01*
X118437149Y-83658236D01*
X118441931Y-83674000D01*
X118437149Y-83689764D01*
X118423928Y-83824000D01*
X118423928Y-83924000D01*
X118437149Y-84058236D01*
X118441931Y-84074000D01*
X118437149Y-84089764D01*
X118423928Y-84224000D01*
X118423928Y-84324000D01*
X118437149Y-84458236D01*
X118441931Y-84474000D01*
X118437149Y-84489764D01*
X118423928Y-84624000D01*
X118423928Y-84724000D01*
X118437149Y-84858236D01*
X118441931Y-84874000D01*
X118437149Y-84889764D01*
X118423928Y-85024000D01*
X118423928Y-85124000D01*
X118437149Y-85258236D01*
X118441931Y-85274000D01*
X118437149Y-85289764D01*
X118423928Y-85424000D01*
X118423928Y-85524000D01*
X118437149Y-85658236D01*
X118476304Y-85787314D01*
X118539889Y-85906272D01*
X118625460Y-86010540D01*
X118729728Y-86096111D01*
X118848686Y-86159696D01*
X118977764Y-86198851D01*
X119112000Y-86212072D01*
X119273928Y-86212072D01*
X119273928Y-86374000D01*
X119285195Y-86488392D01*
X119168482Y-86452988D01*
X119044000Y-86440728D01*
X118804750Y-86443800D01*
X118646000Y-86602550D01*
X118646000Y-87426800D01*
X118666000Y-87426800D01*
X118666000Y-87680800D01*
X118646000Y-87680800D01*
X118646000Y-88174750D01*
X118643400Y-88177350D01*
X118643400Y-89001600D01*
X118663400Y-89001600D01*
X118663400Y-89255600D01*
X118643400Y-89255600D01*
X118643400Y-89275600D01*
X118389400Y-89275600D01*
X118389400Y-89255600D01*
X118369400Y-89255600D01*
X118369400Y-89001600D01*
X118389400Y-89001600D01*
X118389400Y-88507650D01*
X118392000Y-88505050D01*
X118392000Y-87680800D01*
X118372000Y-87680800D01*
X118372000Y-87426800D01*
X118392000Y-87426800D01*
X118392000Y-86602550D01*
X118233250Y-86443800D01*
X117994000Y-86440728D01*
X117869518Y-86452988D01*
X117749820Y-86489298D01*
X117729000Y-86500427D01*
X117729000Y-75710000D01*
X122687790Y-75710000D01*
X118914445Y-79483346D01*
%TA.AperFunction,Conductor*%
D22*
G36*
X118914445Y-79483346D02*
G01*
X118886210Y-79506518D01*
X118793736Y-79619198D01*
X118738223Y-79723056D01*
X118725022Y-79747753D01*
X118684684Y-79880731D01*
X118682708Y-79887244D01*
X118672000Y-79995962D01*
X118672000Y-79995968D01*
X118668421Y-80032308D01*
X118672000Y-80068648D01*
X118672000Y-80132654D01*
X118672001Y-82099265D01*
X118625460Y-82137460D01*
X118539889Y-82241728D01*
X118476304Y-82360686D01*
X118437149Y-82489764D01*
X118423928Y-82624000D01*
X118423928Y-82724000D01*
X118437149Y-82858236D01*
X118441931Y-82874000D01*
X118437149Y-82889764D01*
X118423928Y-83024000D01*
X118423928Y-83124000D01*
X118437149Y-83258236D01*
X118441931Y-83274000D01*
X118437149Y-83289764D01*
X118423928Y-83424000D01*
X118423928Y-83524000D01*
X118437149Y-83658236D01*
X118441931Y-83674000D01*
X118437149Y-83689764D01*
X118423928Y-83824000D01*
X118423928Y-83924000D01*
X118437149Y-84058236D01*
X118441931Y-84074000D01*
X118437149Y-84089764D01*
X118423928Y-84224000D01*
X118423928Y-84324000D01*
X118437149Y-84458236D01*
X118441931Y-84474000D01*
X118437149Y-84489764D01*
X118423928Y-84624000D01*
X118423928Y-84724000D01*
X118437149Y-84858236D01*
X118441931Y-84874000D01*
X118437149Y-84889764D01*
X118423928Y-85024000D01*
X118423928Y-85124000D01*
X118437149Y-85258236D01*
X118441931Y-85274000D01*
X118437149Y-85289764D01*
X118423928Y-85424000D01*
X118423928Y-85524000D01*
X118437149Y-85658236D01*
X118476304Y-85787314D01*
X118539889Y-85906272D01*
X118625460Y-86010540D01*
X118729728Y-86096111D01*
X118848686Y-86159696D01*
X118977764Y-86198851D01*
X119112000Y-86212072D01*
X119273928Y-86212072D01*
X119273928Y-86374000D01*
X119285195Y-86488392D01*
X119168482Y-86452988D01*
X119044000Y-86440728D01*
X118804750Y-86443800D01*
X118646000Y-86602550D01*
X118646000Y-87426800D01*
X118666000Y-87426800D01*
X118666000Y-87680800D01*
X118646000Y-87680800D01*
X118646000Y-88174750D01*
X118643400Y-88177350D01*
X118643400Y-89001600D01*
X118663400Y-89001600D01*
X118663400Y-89255600D01*
X118643400Y-89255600D01*
X118643400Y-89275600D01*
X118389400Y-89275600D01*
X118389400Y-89255600D01*
X118369400Y-89255600D01*
X118369400Y-89001600D01*
X118389400Y-89001600D01*
X118389400Y-88507650D01*
X118392000Y-88505050D01*
X118392000Y-87680800D01*
X118372000Y-87680800D01*
X118372000Y-87426800D01*
X118392000Y-87426800D01*
X118392000Y-86602550D01*
X118233250Y-86443800D01*
X117994000Y-86440728D01*
X117869518Y-86452988D01*
X117749820Y-86489298D01*
X117729000Y-86500427D01*
X117729000Y-75710000D01*
X122687790Y-75710000D01*
X118914445Y-79483346D01*
G37*
%TD.AperFunction*%
D21*
X128384871Y-84440978D02*
X128408039Y-84469208D01*
X128436269Y-84492376D01*
X128436271Y-84492378D01*
X128440820Y-84496111D01*
X128520718Y-84561682D01*
X128649273Y-84630396D01*
X128788764Y-84672710D01*
X128897482Y-84683418D01*
X128897489Y-84683418D01*
X128933829Y-84686997D01*
X128970169Y-84683418D01*
X132303301Y-84683418D01*
X132336811Y-84716928D01*
X129010000Y-84716928D01*
X128885518Y-84729188D01*
X128765820Y-84765498D01*
X128655506Y-84824463D01*
X128558815Y-84903815D01*
X128479463Y-85000506D01*
X128420498Y-85110820D01*
X128384188Y-85230518D01*
X128371928Y-85355000D01*
X128371928Y-85363418D01*
X128340502Y-85259820D01*
X128281537Y-85149506D01*
X128202185Y-85052815D01*
X128181051Y-85035471D01*
X128190512Y-85023942D01*
X128271423Y-84872567D01*
X128321248Y-84708316D01*
X128338072Y-84537500D01*
X128338072Y-84394179D01*
X128384871Y-84440978D01*
%TA.AperFunction,Conductor*%
D22*
G36*
X128384871Y-84440978D02*
G01*
X128408039Y-84469208D01*
X128436269Y-84492376D01*
X128436271Y-84492378D01*
X128440820Y-84496111D01*
X128520718Y-84561682D01*
X128649273Y-84630396D01*
X128788764Y-84672710D01*
X128897482Y-84683418D01*
X128897489Y-84683418D01*
X128933829Y-84686997D01*
X128970169Y-84683418D01*
X132303301Y-84683418D01*
X132336811Y-84716928D01*
X129010000Y-84716928D01*
X128885518Y-84729188D01*
X128765820Y-84765498D01*
X128655506Y-84824463D01*
X128558815Y-84903815D01*
X128479463Y-85000506D01*
X128420498Y-85110820D01*
X128384188Y-85230518D01*
X128371928Y-85355000D01*
X128371928Y-85363418D01*
X128340502Y-85259820D01*
X128281537Y-85149506D01*
X128202185Y-85052815D01*
X128181051Y-85035471D01*
X128190512Y-85023942D01*
X128271423Y-84872567D01*
X128321248Y-84708316D01*
X128338072Y-84537500D01*
X128338072Y-84394179D01*
X128384871Y-84440978D01*
G37*
%TD.AperFunction*%
D21*
X121539000Y-83947000D02*
X121559000Y-83947000D01*
X121559000Y-84201000D01*
X121539000Y-84201000D01*
X121539000Y-84221000D01*
X121285000Y-84221000D01*
X121285000Y-84201000D01*
X121265000Y-84201000D01*
X121265000Y-83947000D01*
X121285000Y-83947000D01*
X121285000Y-83927000D01*
X121539000Y-83927000D01*
X121539000Y-83947000D01*
%TA.AperFunction,Conductor*%
D22*
G36*
X121539000Y-83947000D02*
G01*
X121559000Y-83947000D01*
X121559000Y-84201000D01*
X121539000Y-84201000D01*
X121539000Y-84221000D01*
X121285000Y-84221000D01*
X121285000Y-84201000D01*
X121265000Y-84201000D01*
X121265000Y-83947000D01*
X121285000Y-83947000D01*
X121285000Y-83927000D01*
X121539000Y-83927000D01*
X121539000Y-83947000D01*
G37*
%TD.AperFunction*%
D21*
X131947589Y-81216796D02*
X131938584Y-81225801D01*
X131800762Y-81225801D01*
X131828685Y-81202885D01*
X131869717Y-81152888D01*
X131947589Y-81216796D01*
%TA.AperFunction,Conductor*%
D22*
G36*
X131947589Y-81216796D02*
G01*
X131938584Y-81225801D01*
X131800762Y-81225801D01*
X131828685Y-81202885D01*
X131869717Y-81152888D01*
X131947589Y-81216796D01*
G37*
%TD.AperFunction*%
D21*
X131017000Y-80149700D02*
X131037000Y-80149700D01*
X131037000Y-80403700D01*
X131017000Y-80403700D01*
X131017000Y-80423700D01*
X130763000Y-80423700D01*
X130763000Y-80403700D01*
X130743000Y-80403700D01*
X130743000Y-80149700D01*
X130763000Y-80149700D01*
X130763000Y-80129700D01*
X131017000Y-80129700D01*
X131017000Y-80149700D01*
%TA.AperFunction,Conductor*%
D22*
G36*
X131017000Y-80149700D02*
G01*
X131037000Y-80149700D01*
X131037000Y-80403700D01*
X131017000Y-80403700D01*
X131017000Y-80423700D01*
X130763000Y-80423700D01*
X130763000Y-80403700D01*
X130743000Y-80403700D01*
X130743000Y-80149700D01*
X130763000Y-80149700D01*
X130763000Y-80129700D01*
X131017000Y-80129700D01*
X131017000Y-80149700D01*
G37*
%TD.AperFunction*%
D21*
X131974200Y-79314764D02*
X131869717Y-79400512D01*
X131828685Y-79350515D01*
X131731994Y-79271163D01*
X131621680Y-79212198D01*
X131501982Y-79175888D01*
X131377500Y-79163628D01*
X131304782Y-79164735D01*
X131564477Y-78905040D01*
X131974200Y-79314764D01*
%TA.AperFunction,Conductor*%
D22*
G36*
X131974200Y-79314764D02*
G01*
X131869717Y-79400512D01*
X131828685Y-79350515D01*
X131731994Y-79271163D01*
X131621680Y-79212198D01*
X131501982Y-79175888D01*
X131377500Y-79163628D01*
X131304782Y-79164735D01*
X131564477Y-78905040D01*
X131974200Y-79314764D01*
G37*
%TD.AperFunction*%
D21*
X127982428Y-78701700D02*
X127986719Y-78745268D01*
X127469750Y-78745268D01*
X127533658Y-78681360D01*
X127982428Y-78681360D01*
X127982428Y-78701700D01*
%TA.AperFunction,Conductor*%
D22*
G36*
X127982428Y-78701700D02*
G01*
X127986719Y-78745268D01*
X127469750Y-78745268D01*
X127533658Y-78681360D01*
X127982428Y-78681360D01*
X127982428Y-78701700D01*
G37*
%TD.AperFunction*%
%TD*%
M02*
