%TF.GenerationSoftware,KiCad,Pcbnew,(5.1.10-1-10_14)*%
%TF.CreationDate,2021-08-31T12:45:11-05:00*%
%TF.ProjectId,wireless_measurement_ard,77697265-6c65-4737-935f-6d6561737572,rev?*%
%TF.SameCoordinates,Original*%
%TF.FileFunction,Copper,L1,Top*%
%TF.FilePolarity,Positive*%
%FSLAX46Y46*%
G04 Gerber Fmt 4.6, Leading zero omitted, Abs format (unit mm)*
G04 Created by KiCad (PCBNEW (5.1.10-1-10_14)) date 2021-08-31 12:45:11*
%MOMM*%
%LPD*%
G01*
G04 APERTURE LIST*
%TA.AperFunction,SMDPad,CuDef*%
%ADD10R,2.000000X0.800000*%
%TD*%
%TA.AperFunction,SMDPad,CuDef*%
%ADD11R,0.800000X2.000000*%
%TD*%
%TA.AperFunction,ConnectorPad*%
%ADD12C,0.787400*%
%TD*%
%TA.AperFunction,ComponentPad*%
%ADD13O,1.700000X1.700000*%
%TD*%
%TA.AperFunction,ComponentPad*%
%ADD14R,1.700000X1.700000*%
%TD*%
%TA.AperFunction,ViaPad*%
%ADD15C,0.800000*%
%TD*%
%TA.AperFunction,Conductor*%
%ADD16C,0.210000*%
%TD*%
%TA.AperFunction,Conductor*%
%ADD17C,0.500000*%
%TD*%
%TA.AperFunction,Conductor*%
%ADD18C,0.250000*%
%TD*%
%TA.AperFunction,Conductor*%
%ADD19C,0.254000*%
%TD*%
%TA.AperFunction,Conductor*%
%ADD20C,0.100000*%
%TD*%
G04 APERTURE END LIST*
D10*
%TO.P,U2,16*%
%TO.N,Net-(U2-Pad16)*%
X129796000Y-78570000D03*
%TO.P,U2,15*%
%TO.N,Net-(U2-Pad15)*%
X129796000Y-80070000D03*
%TO.P,U2,14*%
%TO.N,Net-(U2-Pad14)*%
X129796000Y-81570000D03*
%TO.P,U2,13*%
%TO.N,Net-(U2-Pad13)*%
X129796000Y-83070000D03*
%TO.P,U2,12*%
%TO.N,Net-(U2-Pad12)*%
X129796000Y-84570000D03*
%TO.P,U2,11*%
%TO.N,Net-(U2-Pad11)*%
X129796000Y-86070000D03*
%TO.P,U2,10*%
%TO.N,Net-(U2-Pad10)*%
X129796000Y-87570000D03*
D11*
%TO.P,U2,8*%
%TO.N,Net-(U2-Pad8)*%
X128696000Y-90890000D03*
%TO.P,U2,17*%
%TO.N,Net-(U2-Pad17)*%
X128696000Y-76750000D03*
%TO.P,U2,18*%
%TO.N,Net-(U2-Pad18)*%
X127196000Y-76750000D03*
%TO.P,U2,7*%
%TO.N,Net-(U2-Pad7)*%
X127196000Y-90890000D03*
%TO.P,U2,6*%
%TO.N,STATUS*%
X125696000Y-90890000D03*
%TO.P,U2,19*%
%TO.N,ARD_RX*%
X125696000Y-76750000D03*
%TO.P,U2,20*%
%TO.N,ARD_TX*%
X124196000Y-76750000D03*
%TO.P,U2,5*%
%TO.N,N/C*%
X124196000Y-90890000D03*
%TO.P,U2,4*%
X122696000Y-90890000D03*
%TO.P,U2,21*%
%TO.N,Net-(U2-Pad21)*%
X122696000Y-76750000D03*
%TO.P,U2,22*%
%TO.N,PWRC*%
X121196000Y-76750000D03*
%TO.P,U2,3*%
%TO.N,Net-(U2-Pad3)*%
X121196000Y-90890000D03*
%TO.P,U2,2*%
%TO.N,Net-(U2-Pad2)*%
X119696000Y-90890000D03*
%TO.P,U2,23*%
%TO.N,Net-(U2-Pad23)*%
X119696000Y-76750000D03*
%TO.P,U2,24*%
%TO.N,GND*%
X118196000Y-76750000D03*
D10*
%TO.P,U2,9*%
%TO.N,Net-(U2-Pad9)*%
X129796000Y-89070000D03*
D11*
%TO.P,U2,1*%
%TO.N,+3V3*%
X118196000Y-90890000D03*
%TD*%
%TO.P,R8,2*%
%TO.N,GND*%
%TA.AperFunction,SMDPad,CuDef*%
G36*
G01*
X134044700Y-84663100D02*
X133569700Y-84663100D01*
G75*
G02*
X133332200Y-84425600I0J237500D01*
G01*
X133332200Y-83925600D01*
G75*
G02*
X133569700Y-83688100I237500J0D01*
G01*
X134044700Y-83688100D01*
G75*
G02*
X134282200Y-83925600I0J-237500D01*
G01*
X134282200Y-84425600D01*
G75*
G02*
X134044700Y-84663100I-237500J0D01*
G01*
G37*
%TD.AperFunction*%
%TO.P,R8,1*%
%TO.N,A3*%
%TA.AperFunction,SMDPad,CuDef*%
G36*
G01*
X134044700Y-86488100D02*
X133569700Y-86488100D01*
G75*
G02*
X133332200Y-86250600I0J237500D01*
G01*
X133332200Y-85750600D01*
G75*
G02*
X133569700Y-85513100I237500J0D01*
G01*
X134044700Y-85513100D01*
G75*
G02*
X134282200Y-85750600I0J-237500D01*
G01*
X134282200Y-86250600D01*
G75*
G02*
X134044700Y-86488100I-237500J0D01*
G01*
G37*
%TD.AperFunction*%
%TD*%
%TO.P,R7,2*%
%TO.N,A3*%
%TA.AperFunction,SMDPad,CuDef*%
G36*
G01*
X134095500Y-88424200D02*
X133620500Y-88424200D01*
G75*
G02*
X133383000Y-88186700I0J237500D01*
G01*
X133383000Y-87686700D01*
G75*
G02*
X133620500Y-87449200I237500J0D01*
G01*
X134095500Y-87449200D01*
G75*
G02*
X134333000Y-87686700I0J-237500D01*
G01*
X134333000Y-88186700D01*
G75*
G02*
X134095500Y-88424200I-237500J0D01*
G01*
G37*
%TD.AperFunction*%
%TO.P,R7,1*%
%TO.N,VHIGH*%
%TA.AperFunction,SMDPad,CuDef*%
G36*
G01*
X134095500Y-90249200D02*
X133620500Y-90249200D01*
G75*
G02*
X133383000Y-90011700I0J237500D01*
G01*
X133383000Y-89511700D01*
G75*
G02*
X133620500Y-89274200I237500J0D01*
G01*
X134095500Y-89274200D01*
G75*
G02*
X134333000Y-89511700I0J-237500D01*
G01*
X134333000Y-90011700D01*
G75*
G02*
X134095500Y-90249200I-237500J0D01*
G01*
G37*
%TD.AperFunction*%
%TD*%
D12*
%TO.P,J2,6*%
%TO.N,GND*%
X132334000Y-94869000D03*
%TO.P,J2,5*%
%TO.N,C2D*%
X132334000Y-96139000D03*
%TO.P,J2,4*%
%TO.N,Net-(J2-Pad4)*%
X131064000Y-94869000D03*
%TO.P,J2,3*%
%TO.N,C2CK*%
X131064000Y-96139000D03*
%TO.P,J2,2*%
%TO.N,Net-(J2-Pad2)*%
X129794000Y-94869000D03*
%TO.P,J2,1*%
%TO.N,BATT*%
X129794000Y-96139000D03*
%TD*%
D13*
%TO.P,J1,8*%
%TO.N,GND*%
X136956800Y-95453200D03*
%TO.P,J1,7*%
%TO.N,+3V3*%
X136956800Y-92913200D03*
%TO.P,J1,6*%
%TO.N,A4*%
X136956800Y-90373200D03*
%TO.P,J1,5*%
%TO.N,VHIGH*%
X136956800Y-87833200D03*
%TO.P,J1,4*%
%TO.N,A2*%
X136956800Y-85293200D03*
%TO.P,J1,3*%
%TO.N,A1*%
X136956800Y-82753200D03*
%TO.P,J1,2*%
%TO.N,C1_OUT*%
X136956800Y-80213200D03*
D14*
%TO.P,J1,1*%
%TO.N,C1_IN*%
X136956800Y-77673200D03*
%TD*%
D13*
%TO.P,Battery1,2*%
%TO.N,GND*%
X124968000Y-95758000D03*
D14*
%TO.P,Battery1,1*%
%TO.N,BATT*%
X122428000Y-95758000D03*
%TD*%
%TO.P,D1,1*%
%TO.N,Net-(D1-Pad1)*%
%TA.AperFunction,SMDPad,CuDef*%
G36*
G01*
X134575000Y-76705750D02*
X134575000Y-77218250D01*
G75*
G02*
X134356250Y-77437000I-218750J0D01*
G01*
X133918750Y-77437000D01*
G75*
G02*
X133700000Y-77218250I0J218750D01*
G01*
X133700000Y-76705750D01*
G75*
G02*
X133918750Y-76487000I218750J0D01*
G01*
X134356250Y-76487000D01*
G75*
G02*
X134575000Y-76705750I0J-218750D01*
G01*
G37*
%TD.AperFunction*%
%TO.P,D1,2*%
%TO.N,LED*%
%TA.AperFunction,SMDPad,CuDef*%
G36*
G01*
X133000000Y-76705750D02*
X133000000Y-77218250D01*
G75*
G02*
X132781250Y-77437000I-218750J0D01*
G01*
X132343750Y-77437000D01*
G75*
G02*
X132125000Y-77218250I0J218750D01*
G01*
X132125000Y-76705750D01*
G75*
G02*
X132343750Y-76487000I218750J0D01*
G01*
X132781250Y-76487000D01*
G75*
G02*
X133000000Y-76705750I0J-218750D01*
G01*
G37*
%TD.AperFunction*%
%TD*%
%TO.P,R3,1*%
%TO.N,Net-(D1-Pad1)*%
%TA.AperFunction,SMDPad,CuDef*%
G36*
G01*
X133239500Y-78215000D02*
X133714500Y-78215000D01*
G75*
G02*
X133952000Y-78452500I0J-237500D01*
G01*
X133952000Y-79027500D01*
G75*
G02*
X133714500Y-79265000I-237500J0D01*
G01*
X133239500Y-79265000D01*
G75*
G02*
X133002000Y-79027500I0J237500D01*
G01*
X133002000Y-78452500D01*
G75*
G02*
X133239500Y-78215000I237500J0D01*
G01*
G37*
%TD.AperFunction*%
%TO.P,R3,2*%
%TO.N,GND*%
%TA.AperFunction,SMDPad,CuDef*%
G36*
G01*
X133239500Y-79965000D02*
X133714500Y-79965000D01*
G75*
G02*
X133952000Y-80202500I0J-237500D01*
G01*
X133952000Y-80777500D01*
G75*
G02*
X133714500Y-81015000I-237500J0D01*
G01*
X133239500Y-81015000D01*
G75*
G02*
X133002000Y-80777500I0J237500D01*
G01*
X133002000Y-80202500D01*
G75*
G02*
X133239500Y-79965000I237500J0D01*
G01*
G37*
%TD.AperFunction*%
%TD*%
D15*
%TO.N,GND*%
X121412000Y-84074000D03*
X124714000Y-84909000D03*
X132374991Y-84455000D03*
X133349976Y-75946000D03*
%TO.N,A3*%
X135382000Y-86614000D03*
%TO.N,+3V3*%
X130556000Y-77089000D03*
X119507000Y-88138000D03*
X124079000Y-86360000D03*
X120142000Y-93345000D03*
%TO.N,ARD_RX*%
X126746000Y-83185010D03*
%TO.N,PWRC*%
X123444000Y-80772000D03*
%TO.N,ARD_TX*%
X125755774Y-84429226D03*
%TO.N,VIN*%
X115062000Y-95758000D03*
X128143000Y-93980010D03*
X123063000Y-93599000D03*
%TO.N,STATUS*%
X125984000Y-80136990D03*
%TO.N,C2D*%
X128437642Y-97388021D03*
%TO.N,C2CK*%
X127248771Y-97054980D03*
%TO.N,LED*%
X133476996Y-82677000D03*
%TD*%
D16*
%TO.N,GND*%
X122247000Y-84909000D02*
X121412000Y-84074000D01*
X124714000Y-84909000D02*
X122247000Y-84909000D01*
X132918200Y-95453200D02*
X136956800Y-95453200D01*
X132334000Y-94869000D02*
X132918200Y-95453200D01*
X131705299Y-94240299D02*
X132334000Y-94869000D01*
X129492223Y-94240299D02*
X131705299Y-94240299D01*
X128958823Y-94773699D02*
X129492223Y-94240299D01*
X125952301Y-94773699D02*
X128958823Y-94773699D01*
X124968000Y-95758000D02*
X125952301Y-94773699D01*
X133807200Y-84175600D02*
X132613400Y-84175600D01*
X132374991Y-84414009D02*
X132374991Y-84455000D01*
X132613400Y-84175600D02*
X132374991Y-84414009D01*
X133458001Y-76054025D02*
X133349976Y-75946000D01*
X135382000Y-78585000D02*
X133477000Y-80490000D01*
X135382000Y-76835000D02*
X135382000Y-78585000D01*
X134493000Y-75946000D02*
X135382000Y-76835000D01*
X133349976Y-75946000D02*
X134493000Y-75946000D01*
%TO.N,A3*%
X134420600Y-86614000D02*
X133807200Y-86000600D01*
X135382000Y-86614000D02*
X134420600Y-86614000D01*
X133858000Y-86051400D02*
X133807200Y-86000600D01*
X133858000Y-87936700D02*
X133858000Y-86051400D01*
D17*
%TO.N,+3V3*%
X118196000Y-89449000D02*
X119507000Y-88138000D01*
X118196000Y-90890000D02*
X118196000Y-89449000D01*
D16*
X119507000Y-88138000D02*
X122174000Y-88138000D01*
X123952000Y-86360000D02*
X124079000Y-86360000D01*
X122174000Y-88138000D02*
X123952000Y-86360000D01*
X118872000Y-93345000D02*
X120142000Y-93345000D01*
X118196000Y-92669000D02*
X118872000Y-93345000D01*
X118196000Y-90890000D02*
X118196000Y-92669000D01*
X136956800Y-92913200D02*
X135754719Y-92913200D01*
X135754719Y-92913200D02*
X135322919Y-93345000D01*
X120541999Y-92945001D02*
X120142000Y-93345000D01*
X123348803Y-92945001D02*
X120541999Y-92945001D01*
X135322919Y-93345000D02*
X123748802Y-93345000D01*
X123748802Y-93345000D02*
X123348803Y-92945001D01*
X131739989Y-80023837D02*
X131315791Y-79599639D01*
X131739991Y-91861991D02*
X131739989Y-80023837D01*
X132791200Y-92913200D02*
X131739991Y-91861991D01*
X131315791Y-79599639D02*
X131315791Y-77848791D01*
X136956800Y-92913200D02*
X132791200Y-92913200D01*
X131315791Y-77848791D02*
X130556000Y-77089000D01*
%TO.N,ARD_RX*%
X126712000Y-82008000D02*
X126746000Y-82042000D01*
X126746000Y-82042000D02*
X126746000Y-83185010D01*
X125696000Y-76750000D02*
X125696000Y-78909188D01*
X125696000Y-78909188D02*
X126746000Y-79959188D01*
X126746000Y-79959188D02*
X126746000Y-83185010D01*
%TO.N,PWRC*%
X121196000Y-76750000D02*
X121196000Y-78524000D01*
X121196000Y-78524000D02*
X122428000Y-79756000D01*
X122428000Y-79756000D02*
X122262800Y-79590800D01*
X123444000Y-80772000D02*
X122428000Y-79756000D01*
%TO.N,ARD_TX*%
X124196000Y-76750000D02*
X124196000Y-82869450D01*
X125355775Y-84029227D02*
X125755774Y-84429226D01*
X124196000Y-82869450D02*
X125355775Y-84029227D01*
D17*
%TO.N,VIN*%
X115062000Y-95758000D02*
X116694998Y-94125002D01*
X116694998Y-94125002D02*
X122536998Y-94125002D01*
X122536998Y-94125002D02*
X123063000Y-93599000D01*
X128143000Y-93980010D02*
X123444010Y-93980010D01*
X123444010Y-93980010D02*
X123063000Y-93599000D01*
D16*
%TO.N,STATUS*%
X126619000Y-84023196D02*
X125984000Y-83388196D01*
X126619000Y-84709000D02*
X126619000Y-84023196D01*
X125696000Y-85632000D02*
X126619000Y-84709000D01*
X125984000Y-83388196D02*
X125984000Y-80136990D01*
X125696000Y-90890000D02*
X125696000Y-85632000D01*
%TO.N,C2D*%
X131084979Y-97388021D02*
X128437642Y-97388021D01*
X132334000Y-96139000D02*
X131084979Y-97388021D01*
%TO.N,C2CK*%
X128807823Y-96753011D02*
X127550740Y-96753011D01*
X128955812Y-96901000D02*
X128807823Y-96753011D01*
X127550740Y-96753011D02*
X127248771Y-97054980D01*
X130302000Y-96901000D02*
X128955812Y-96901000D01*
X131064000Y-96139000D02*
X130302000Y-96901000D01*
%TO.N,Net-(D1-Pad1)*%
X133477000Y-77622500D02*
X134137500Y-76962000D01*
X133477000Y-78740000D02*
X133477000Y-77622500D01*
D18*
%TO.N,BATT*%
X129413000Y-96139000D02*
X129794000Y-96139000D01*
X129159000Y-96393000D02*
X129413000Y-96139000D01*
X122979000Y-97409000D02*
X125649598Y-97409000D01*
X126665598Y-96393000D02*
X129159000Y-96393000D01*
X125649598Y-97409000D02*
X126665598Y-96393000D01*
X122428000Y-96858000D02*
X122979000Y-97409000D01*
X122428000Y-95758000D02*
X122428000Y-96858000D01*
D16*
%TO.N,LED*%
X132080000Y-81280004D02*
X133476996Y-82677000D01*
X132562500Y-76962000D02*
X132125000Y-76962000D01*
X132080000Y-79883000D02*
X132080000Y-81280004D01*
X131699000Y-79502000D02*
X132080000Y-79883000D01*
X131699000Y-77388000D02*
X131699000Y-79502000D01*
X132125000Y-76962000D02*
X131699000Y-77388000D01*
%TO.N,VHIGH*%
X133858000Y-89761700D02*
X134139300Y-89761700D01*
X136067800Y-87833200D02*
X136956800Y-87833200D01*
X134139300Y-89761700D02*
X136067800Y-87833200D01*
%TD*%
D19*
%TO.N,GND*%
X139290001Y-97290000D02*
X134432485Y-97290000D01*
X134481961Y-97240524D01*
X134605659Y-97055398D01*
X134690863Y-96849696D01*
X134734300Y-96631325D01*
X134734300Y-96408675D01*
X134690863Y-96190304D01*
X134605659Y-95984602D01*
X134489054Y-95810090D01*
X135515324Y-95810090D01*
X135559975Y-95957299D01*
X135685159Y-96220120D01*
X135859212Y-96453469D01*
X136075445Y-96648378D01*
X136325548Y-96797357D01*
X136599909Y-96894681D01*
X136829800Y-96774014D01*
X136829800Y-95580200D01*
X137083800Y-95580200D01*
X137083800Y-96774014D01*
X137313691Y-96894681D01*
X137588052Y-96797357D01*
X137838155Y-96648378D01*
X138054388Y-96453469D01*
X138228441Y-96220120D01*
X138353625Y-95957299D01*
X138398276Y-95810090D01*
X138276955Y-95580200D01*
X137083800Y-95580200D01*
X136829800Y-95580200D01*
X135636645Y-95580200D01*
X135515324Y-95810090D01*
X134489054Y-95810090D01*
X134481961Y-95799476D01*
X134324524Y-95642039D01*
X134139398Y-95518341D01*
X134104776Y-95504000D01*
X134139398Y-95489659D01*
X134324524Y-95365961D01*
X134481961Y-95208524D01*
X134605659Y-95023398D01*
X134690863Y-94817696D01*
X134734300Y-94599325D01*
X134734300Y-94376675D01*
X134690863Y-94158304D01*
X134660500Y-94085000D01*
X135286579Y-94085000D01*
X135322919Y-94088579D01*
X135359259Y-94085000D01*
X135359266Y-94085000D01*
X135467984Y-94074292D01*
X135607475Y-94031978D01*
X135736030Y-93963264D01*
X135829801Y-93886308D01*
X136010168Y-94066675D01*
X136192334Y-94188395D01*
X136075445Y-94258022D01*
X135859212Y-94452931D01*
X135685159Y-94686280D01*
X135559975Y-94949101D01*
X135515324Y-95096310D01*
X135636645Y-95326200D01*
X136829800Y-95326200D01*
X136829800Y-95306200D01*
X137083800Y-95306200D01*
X137083800Y-95326200D01*
X138276955Y-95326200D01*
X138398276Y-95096310D01*
X138353625Y-94949101D01*
X138228441Y-94686280D01*
X138054388Y-94452931D01*
X137838155Y-94258022D01*
X137721266Y-94188395D01*
X137903432Y-94066675D01*
X138110275Y-93859832D01*
X138272790Y-93616611D01*
X138384732Y-93346358D01*
X138441800Y-93059460D01*
X138441800Y-92766940D01*
X138384732Y-92480042D01*
X138272790Y-92209789D01*
X138110275Y-91966568D01*
X137903432Y-91759725D01*
X137729040Y-91643200D01*
X137903432Y-91526675D01*
X138110275Y-91319832D01*
X138272790Y-91076611D01*
X138384732Y-90806358D01*
X138441800Y-90519460D01*
X138441800Y-90226940D01*
X138384732Y-89940042D01*
X138272790Y-89669789D01*
X138110275Y-89426568D01*
X137903432Y-89219725D01*
X137729040Y-89103200D01*
X137903432Y-88986675D01*
X138110275Y-88779832D01*
X138272790Y-88536611D01*
X138384732Y-88266358D01*
X138441800Y-87979460D01*
X138441800Y-87686940D01*
X138384732Y-87400042D01*
X138272790Y-87129789D01*
X138110275Y-86886568D01*
X137903432Y-86679725D01*
X137729040Y-86563200D01*
X137903432Y-86446675D01*
X138110275Y-86239832D01*
X138272790Y-85996611D01*
X138384732Y-85726358D01*
X138441800Y-85439460D01*
X138441800Y-85146940D01*
X138384732Y-84860042D01*
X138272790Y-84589789D01*
X138110275Y-84346568D01*
X137903432Y-84139725D01*
X137729040Y-84023200D01*
X137903432Y-83906675D01*
X138110275Y-83699832D01*
X138272790Y-83456611D01*
X138384732Y-83186358D01*
X138441800Y-82899460D01*
X138441800Y-82606940D01*
X138384732Y-82320042D01*
X138272790Y-82049789D01*
X138110275Y-81806568D01*
X137903432Y-81599725D01*
X137729040Y-81483200D01*
X137903432Y-81366675D01*
X138110275Y-81159832D01*
X138272790Y-80916611D01*
X138384732Y-80646358D01*
X138441800Y-80359460D01*
X138441800Y-80066940D01*
X138384732Y-79780042D01*
X138272790Y-79509789D01*
X138110275Y-79266568D01*
X137978420Y-79134713D01*
X138050980Y-79112702D01*
X138161294Y-79053737D01*
X138257985Y-78974385D01*
X138337337Y-78877694D01*
X138396302Y-78767380D01*
X138432612Y-78647682D01*
X138444872Y-78523200D01*
X138444872Y-76823200D01*
X138432612Y-76698718D01*
X138396302Y-76579020D01*
X138337337Y-76468706D01*
X138257985Y-76372015D01*
X138161294Y-76292663D01*
X138050980Y-76233698D01*
X137931282Y-76197388D01*
X137806800Y-76185128D01*
X136106800Y-76185128D01*
X135982318Y-76197388D01*
X135862620Y-76233698D01*
X135752306Y-76292663D01*
X135655615Y-76372015D01*
X135576263Y-76468706D01*
X135517298Y-76579020D01*
X135480988Y-76698718D01*
X135468728Y-76823200D01*
X135468728Y-78523200D01*
X135480988Y-78647682D01*
X135517298Y-78767380D01*
X135576263Y-78877694D01*
X135655615Y-78974385D01*
X135752306Y-79053737D01*
X135862620Y-79112702D01*
X135935180Y-79134713D01*
X135803325Y-79266568D01*
X135640810Y-79509789D01*
X135528868Y-79780042D01*
X135471800Y-80066940D01*
X135471800Y-80359460D01*
X135528868Y-80646358D01*
X135640810Y-80916611D01*
X135803325Y-81159832D01*
X136010168Y-81366675D01*
X136184560Y-81483200D01*
X136010168Y-81599725D01*
X135803325Y-81806568D01*
X135640810Y-82049789D01*
X135528868Y-82320042D01*
X135471800Y-82606940D01*
X135471800Y-82899460D01*
X135528868Y-83186358D01*
X135640810Y-83456611D01*
X135803325Y-83699832D01*
X136010168Y-83906675D01*
X136184560Y-84023200D01*
X136010168Y-84139725D01*
X135803325Y-84346568D01*
X135640810Y-84589789D01*
X135528868Y-84860042D01*
X135471800Y-85146940D01*
X135471800Y-85439460D01*
X135500200Y-85582234D01*
X135483939Y-85579000D01*
X135280061Y-85579000D01*
X135080102Y-85618774D01*
X134914062Y-85687550D01*
X134903448Y-85579784D01*
X134853623Y-85415533D01*
X134772712Y-85264158D01*
X134683388Y-85155317D01*
X134733385Y-85114285D01*
X134812737Y-85017594D01*
X134871702Y-84907280D01*
X134908012Y-84787582D01*
X134920272Y-84663100D01*
X134917200Y-84461350D01*
X134758450Y-84302600D01*
X133934200Y-84302600D01*
X133934200Y-84322600D01*
X133680200Y-84322600D01*
X133680200Y-84302600D01*
X132855950Y-84302600D01*
X132697200Y-84461350D01*
X132694128Y-84663100D01*
X132706388Y-84787582D01*
X132742698Y-84907280D01*
X132801663Y-85017594D01*
X132881015Y-85114285D01*
X132931012Y-85155317D01*
X132841688Y-85264158D01*
X132760777Y-85415533D01*
X132710952Y-85579784D01*
X132694128Y-85750600D01*
X132694128Y-86250600D01*
X132710952Y-86421416D01*
X132760777Y-86585667D01*
X132841688Y-86737042D01*
X132950577Y-86869723D01*
X133083258Y-86978612D01*
X133099320Y-86987197D01*
X133001377Y-87067577D01*
X132892488Y-87200258D01*
X132811577Y-87351633D01*
X132761752Y-87515884D01*
X132744928Y-87686700D01*
X132744928Y-88186700D01*
X132761752Y-88357516D01*
X132811577Y-88521767D01*
X132892488Y-88673142D01*
X133001377Y-88805823D01*
X133054232Y-88849200D01*
X133001377Y-88892577D01*
X132892488Y-89025258D01*
X132811577Y-89176633D01*
X132761752Y-89340884D01*
X132744928Y-89511700D01*
X132744928Y-90011700D01*
X132761752Y-90182516D01*
X132811577Y-90346767D01*
X132892488Y-90498142D01*
X133001377Y-90630823D01*
X133134058Y-90739712D01*
X133285433Y-90820623D01*
X133449684Y-90870448D01*
X133620500Y-90887272D01*
X134095500Y-90887272D01*
X134266316Y-90870448D01*
X134430567Y-90820623D01*
X134581942Y-90739712D01*
X134714623Y-90630823D01*
X134823512Y-90498142D01*
X134904423Y-90346767D01*
X134954248Y-90182516D01*
X134971072Y-90011700D01*
X134971072Y-89976445D01*
X135985505Y-88962012D01*
X136010168Y-88986675D01*
X136184560Y-89103200D01*
X136010168Y-89219725D01*
X135803325Y-89426568D01*
X135640810Y-89669789D01*
X135528868Y-89940042D01*
X135471800Y-90226940D01*
X135471800Y-90519460D01*
X135528868Y-90806358D01*
X135640810Y-91076611D01*
X135803325Y-91319832D01*
X136010168Y-91526675D01*
X136184560Y-91643200D01*
X136010168Y-91759725D01*
X135803325Y-91966568D01*
X135665258Y-92173200D01*
X133097718Y-92173200D01*
X132479991Y-91555474D01*
X132479989Y-82969943D01*
X132481770Y-82978898D01*
X132559791Y-83167256D01*
X132673059Y-83336774D01*
X132755763Y-83419478D01*
X132742698Y-83443920D01*
X132706388Y-83563618D01*
X132694128Y-83688100D01*
X132697200Y-83889850D01*
X132855950Y-84048600D01*
X133680200Y-84048600D01*
X133680200Y-84028600D01*
X133934200Y-84028600D01*
X133934200Y-84048600D01*
X134758450Y-84048600D01*
X134917200Y-83889850D01*
X134920272Y-83688100D01*
X134908012Y-83563618D01*
X134871702Y-83443920D01*
X134812737Y-83333606D01*
X134733385Y-83236915D01*
X134636694Y-83157563D01*
X134526380Y-83098598D01*
X134434220Y-83070642D01*
X134472222Y-82978898D01*
X134511996Y-82778939D01*
X134511996Y-82575061D01*
X134472222Y-82375102D01*
X134394201Y-82186744D01*
X134280933Y-82017226D01*
X134136770Y-81873063D01*
X133967252Y-81759795D01*
X133778894Y-81681774D01*
X133604002Y-81646986D01*
X133604002Y-81491252D01*
X133762750Y-81650000D01*
X133952000Y-81653072D01*
X134076482Y-81640812D01*
X134196180Y-81604502D01*
X134306494Y-81545537D01*
X134403185Y-81466185D01*
X134482537Y-81369494D01*
X134541502Y-81259180D01*
X134577812Y-81139482D01*
X134590072Y-81015000D01*
X134587000Y-80775750D01*
X134428250Y-80617000D01*
X133604000Y-80617000D01*
X133604000Y-80637000D01*
X133350000Y-80637000D01*
X133350000Y-80617000D01*
X133330000Y-80617000D01*
X133330000Y-80363000D01*
X133350000Y-80363000D01*
X133350000Y-80343000D01*
X133604000Y-80343000D01*
X133604000Y-80363000D01*
X134428250Y-80363000D01*
X134587000Y-80204250D01*
X134590072Y-79965000D01*
X134577812Y-79840518D01*
X134541502Y-79720820D01*
X134482537Y-79610506D01*
X134422901Y-79537839D01*
X134442512Y-79513942D01*
X134523423Y-79362567D01*
X134573248Y-79198316D01*
X134590072Y-79027500D01*
X134590072Y-78452500D01*
X134573248Y-78281684D01*
X134523423Y-78117433D01*
X134493552Y-78061549D01*
X134523408Y-78058608D01*
X134684142Y-78009850D01*
X134832275Y-77930671D01*
X134962115Y-77824115D01*
X135068671Y-77694275D01*
X135147850Y-77546142D01*
X135196608Y-77385408D01*
X135213072Y-77218250D01*
X135213072Y-76705750D01*
X135196608Y-76538592D01*
X135147850Y-76377858D01*
X135068671Y-76229725D01*
X134962115Y-76099885D01*
X134832275Y-75993329D01*
X134684142Y-75914150D01*
X134523408Y-75865392D01*
X134356250Y-75848928D01*
X133918750Y-75848928D01*
X133751592Y-75865392D01*
X133590858Y-75914150D01*
X133442725Y-75993329D01*
X133350000Y-76069426D01*
X133257275Y-75993329D01*
X133109142Y-75914150D01*
X132948408Y-75865392D01*
X132781250Y-75848928D01*
X132343750Y-75848928D01*
X132176592Y-75865392D01*
X132015858Y-75914150D01*
X131867725Y-75993329D01*
X131737885Y-76099885D01*
X131631329Y-76229725D01*
X131552150Y-76377858D01*
X131504046Y-76536437D01*
X131460602Y-76579881D01*
X131359937Y-76429226D01*
X131215774Y-76285063D01*
X131046256Y-76171795D01*
X130857898Y-76093774D01*
X130657939Y-76054000D01*
X130454061Y-76054000D01*
X130254102Y-76093774D01*
X130065744Y-76171795D01*
X129896226Y-76285063D01*
X129752063Y-76429226D01*
X129734072Y-76456152D01*
X129734072Y-75750000D01*
X129730132Y-75710000D01*
X139290000Y-75710000D01*
X139290001Y-97290000D01*
%TA.AperFunction,Conductor*%
D20*
G36*
X139290001Y-97290000D02*
G01*
X134432485Y-97290000D01*
X134481961Y-97240524D01*
X134605659Y-97055398D01*
X134690863Y-96849696D01*
X134734300Y-96631325D01*
X134734300Y-96408675D01*
X134690863Y-96190304D01*
X134605659Y-95984602D01*
X134489054Y-95810090D01*
X135515324Y-95810090D01*
X135559975Y-95957299D01*
X135685159Y-96220120D01*
X135859212Y-96453469D01*
X136075445Y-96648378D01*
X136325548Y-96797357D01*
X136599909Y-96894681D01*
X136829800Y-96774014D01*
X136829800Y-95580200D01*
X137083800Y-95580200D01*
X137083800Y-96774014D01*
X137313691Y-96894681D01*
X137588052Y-96797357D01*
X137838155Y-96648378D01*
X138054388Y-96453469D01*
X138228441Y-96220120D01*
X138353625Y-95957299D01*
X138398276Y-95810090D01*
X138276955Y-95580200D01*
X137083800Y-95580200D01*
X136829800Y-95580200D01*
X135636645Y-95580200D01*
X135515324Y-95810090D01*
X134489054Y-95810090D01*
X134481961Y-95799476D01*
X134324524Y-95642039D01*
X134139398Y-95518341D01*
X134104776Y-95504000D01*
X134139398Y-95489659D01*
X134324524Y-95365961D01*
X134481961Y-95208524D01*
X134605659Y-95023398D01*
X134690863Y-94817696D01*
X134734300Y-94599325D01*
X134734300Y-94376675D01*
X134690863Y-94158304D01*
X134660500Y-94085000D01*
X135286579Y-94085000D01*
X135322919Y-94088579D01*
X135359259Y-94085000D01*
X135359266Y-94085000D01*
X135467984Y-94074292D01*
X135607475Y-94031978D01*
X135736030Y-93963264D01*
X135829801Y-93886308D01*
X136010168Y-94066675D01*
X136192334Y-94188395D01*
X136075445Y-94258022D01*
X135859212Y-94452931D01*
X135685159Y-94686280D01*
X135559975Y-94949101D01*
X135515324Y-95096310D01*
X135636645Y-95326200D01*
X136829800Y-95326200D01*
X136829800Y-95306200D01*
X137083800Y-95306200D01*
X137083800Y-95326200D01*
X138276955Y-95326200D01*
X138398276Y-95096310D01*
X138353625Y-94949101D01*
X138228441Y-94686280D01*
X138054388Y-94452931D01*
X137838155Y-94258022D01*
X137721266Y-94188395D01*
X137903432Y-94066675D01*
X138110275Y-93859832D01*
X138272790Y-93616611D01*
X138384732Y-93346358D01*
X138441800Y-93059460D01*
X138441800Y-92766940D01*
X138384732Y-92480042D01*
X138272790Y-92209789D01*
X138110275Y-91966568D01*
X137903432Y-91759725D01*
X137729040Y-91643200D01*
X137903432Y-91526675D01*
X138110275Y-91319832D01*
X138272790Y-91076611D01*
X138384732Y-90806358D01*
X138441800Y-90519460D01*
X138441800Y-90226940D01*
X138384732Y-89940042D01*
X138272790Y-89669789D01*
X138110275Y-89426568D01*
X137903432Y-89219725D01*
X137729040Y-89103200D01*
X137903432Y-88986675D01*
X138110275Y-88779832D01*
X138272790Y-88536611D01*
X138384732Y-88266358D01*
X138441800Y-87979460D01*
X138441800Y-87686940D01*
X138384732Y-87400042D01*
X138272790Y-87129789D01*
X138110275Y-86886568D01*
X137903432Y-86679725D01*
X137729040Y-86563200D01*
X137903432Y-86446675D01*
X138110275Y-86239832D01*
X138272790Y-85996611D01*
X138384732Y-85726358D01*
X138441800Y-85439460D01*
X138441800Y-85146940D01*
X138384732Y-84860042D01*
X138272790Y-84589789D01*
X138110275Y-84346568D01*
X137903432Y-84139725D01*
X137729040Y-84023200D01*
X137903432Y-83906675D01*
X138110275Y-83699832D01*
X138272790Y-83456611D01*
X138384732Y-83186358D01*
X138441800Y-82899460D01*
X138441800Y-82606940D01*
X138384732Y-82320042D01*
X138272790Y-82049789D01*
X138110275Y-81806568D01*
X137903432Y-81599725D01*
X137729040Y-81483200D01*
X137903432Y-81366675D01*
X138110275Y-81159832D01*
X138272790Y-80916611D01*
X138384732Y-80646358D01*
X138441800Y-80359460D01*
X138441800Y-80066940D01*
X138384732Y-79780042D01*
X138272790Y-79509789D01*
X138110275Y-79266568D01*
X137978420Y-79134713D01*
X138050980Y-79112702D01*
X138161294Y-79053737D01*
X138257985Y-78974385D01*
X138337337Y-78877694D01*
X138396302Y-78767380D01*
X138432612Y-78647682D01*
X138444872Y-78523200D01*
X138444872Y-76823200D01*
X138432612Y-76698718D01*
X138396302Y-76579020D01*
X138337337Y-76468706D01*
X138257985Y-76372015D01*
X138161294Y-76292663D01*
X138050980Y-76233698D01*
X137931282Y-76197388D01*
X137806800Y-76185128D01*
X136106800Y-76185128D01*
X135982318Y-76197388D01*
X135862620Y-76233698D01*
X135752306Y-76292663D01*
X135655615Y-76372015D01*
X135576263Y-76468706D01*
X135517298Y-76579020D01*
X135480988Y-76698718D01*
X135468728Y-76823200D01*
X135468728Y-78523200D01*
X135480988Y-78647682D01*
X135517298Y-78767380D01*
X135576263Y-78877694D01*
X135655615Y-78974385D01*
X135752306Y-79053737D01*
X135862620Y-79112702D01*
X135935180Y-79134713D01*
X135803325Y-79266568D01*
X135640810Y-79509789D01*
X135528868Y-79780042D01*
X135471800Y-80066940D01*
X135471800Y-80359460D01*
X135528868Y-80646358D01*
X135640810Y-80916611D01*
X135803325Y-81159832D01*
X136010168Y-81366675D01*
X136184560Y-81483200D01*
X136010168Y-81599725D01*
X135803325Y-81806568D01*
X135640810Y-82049789D01*
X135528868Y-82320042D01*
X135471800Y-82606940D01*
X135471800Y-82899460D01*
X135528868Y-83186358D01*
X135640810Y-83456611D01*
X135803325Y-83699832D01*
X136010168Y-83906675D01*
X136184560Y-84023200D01*
X136010168Y-84139725D01*
X135803325Y-84346568D01*
X135640810Y-84589789D01*
X135528868Y-84860042D01*
X135471800Y-85146940D01*
X135471800Y-85439460D01*
X135500200Y-85582234D01*
X135483939Y-85579000D01*
X135280061Y-85579000D01*
X135080102Y-85618774D01*
X134914062Y-85687550D01*
X134903448Y-85579784D01*
X134853623Y-85415533D01*
X134772712Y-85264158D01*
X134683388Y-85155317D01*
X134733385Y-85114285D01*
X134812737Y-85017594D01*
X134871702Y-84907280D01*
X134908012Y-84787582D01*
X134920272Y-84663100D01*
X134917200Y-84461350D01*
X134758450Y-84302600D01*
X133934200Y-84302600D01*
X133934200Y-84322600D01*
X133680200Y-84322600D01*
X133680200Y-84302600D01*
X132855950Y-84302600D01*
X132697200Y-84461350D01*
X132694128Y-84663100D01*
X132706388Y-84787582D01*
X132742698Y-84907280D01*
X132801663Y-85017594D01*
X132881015Y-85114285D01*
X132931012Y-85155317D01*
X132841688Y-85264158D01*
X132760777Y-85415533D01*
X132710952Y-85579784D01*
X132694128Y-85750600D01*
X132694128Y-86250600D01*
X132710952Y-86421416D01*
X132760777Y-86585667D01*
X132841688Y-86737042D01*
X132950577Y-86869723D01*
X133083258Y-86978612D01*
X133099320Y-86987197D01*
X133001377Y-87067577D01*
X132892488Y-87200258D01*
X132811577Y-87351633D01*
X132761752Y-87515884D01*
X132744928Y-87686700D01*
X132744928Y-88186700D01*
X132761752Y-88357516D01*
X132811577Y-88521767D01*
X132892488Y-88673142D01*
X133001377Y-88805823D01*
X133054232Y-88849200D01*
X133001377Y-88892577D01*
X132892488Y-89025258D01*
X132811577Y-89176633D01*
X132761752Y-89340884D01*
X132744928Y-89511700D01*
X132744928Y-90011700D01*
X132761752Y-90182516D01*
X132811577Y-90346767D01*
X132892488Y-90498142D01*
X133001377Y-90630823D01*
X133134058Y-90739712D01*
X133285433Y-90820623D01*
X133449684Y-90870448D01*
X133620500Y-90887272D01*
X134095500Y-90887272D01*
X134266316Y-90870448D01*
X134430567Y-90820623D01*
X134581942Y-90739712D01*
X134714623Y-90630823D01*
X134823512Y-90498142D01*
X134904423Y-90346767D01*
X134954248Y-90182516D01*
X134971072Y-90011700D01*
X134971072Y-89976445D01*
X135985505Y-88962012D01*
X136010168Y-88986675D01*
X136184560Y-89103200D01*
X136010168Y-89219725D01*
X135803325Y-89426568D01*
X135640810Y-89669789D01*
X135528868Y-89940042D01*
X135471800Y-90226940D01*
X135471800Y-90519460D01*
X135528868Y-90806358D01*
X135640810Y-91076611D01*
X135803325Y-91319832D01*
X136010168Y-91526675D01*
X136184560Y-91643200D01*
X136010168Y-91759725D01*
X135803325Y-91966568D01*
X135665258Y-92173200D01*
X133097718Y-92173200D01*
X132479991Y-91555474D01*
X132479989Y-82969943D01*
X132481770Y-82978898D01*
X132559791Y-83167256D01*
X132673059Y-83336774D01*
X132755763Y-83419478D01*
X132742698Y-83443920D01*
X132706388Y-83563618D01*
X132694128Y-83688100D01*
X132697200Y-83889850D01*
X132855950Y-84048600D01*
X133680200Y-84048600D01*
X133680200Y-84028600D01*
X133934200Y-84028600D01*
X133934200Y-84048600D01*
X134758450Y-84048600D01*
X134917200Y-83889850D01*
X134920272Y-83688100D01*
X134908012Y-83563618D01*
X134871702Y-83443920D01*
X134812737Y-83333606D01*
X134733385Y-83236915D01*
X134636694Y-83157563D01*
X134526380Y-83098598D01*
X134434220Y-83070642D01*
X134472222Y-82978898D01*
X134511996Y-82778939D01*
X134511996Y-82575061D01*
X134472222Y-82375102D01*
X134394201Y-82186744D01*
X134280933Y-82017226D01*
X134136770Y-81873063D01*
X133967252Y-81759795D01*
X133778894Y-81681774D01*
X133604002Y-81646986D01*
X133604002Y-81491252D01*
X133762750Y-81650000D01*
X133952000Y-81653072D01*
X134076482Y-81640812D01*
X134196180Y-81604502D01*
X134306494Y-81545537D01*
X134403185Y-81466185D01*
X134482537Y-81369494D01*
X134541502Y-81259180D01*
X134577812Y-81139482D01*
X134590072Y-81015000D01*
X134587000Y-80775750D01*
X134428250Y-80617000D01*
X133604000Y-80617000D01*
X133604000Y-80637000D01*
X133350000Y-80637000D01*
X133350000Y-80617000D01*
X133330000Y-80617000D01*
X133330000Y-80363000D01*
X133350000Y-80363000D01*
X133350000Y-80343000D01*
X133604000Y-80343000D01*
X133604000Y-80363000D01*
X134428250Y-80363000D01*
X134587000Y-80204250D01*
X134590072Y-79965000D01*
X134577812Y-79840518D01*
X134541502Y-79720820D01*
X134482537Y-79610506D01*
X134422901Y-79537839D01*
X134442512Y-79513942D01*
X134523423Y-79362567D01*
X134573248Y-79198316D01*
X134590072Y-79027500D01*
X134590072Y-78452500D01*
X134573248Y-78281684D01*
X134523423Y-78117433D01*
X134493552Y-78061549D01*
X134523408Y-78058608D01*
X134684142Y-78009850D01*
X134832275Y-77930671D01*
X134962115Y-77824115D01*
X135068671Y-77694275D01*
X135147850Y-77546142D01*
X135196608Y-77385408D01*
X135213072Y-77218250D01*
X135213072Y-76705750D01*
X135196608Y-76538592D01*
X135147850Y-76377858D01*
X135068671Y-76229725D01*
X134962115Y-76099885D01*
X134832275Y-75993329D01*
X134684142Y-75914150D01*
X134523408Y-75865392D01*
X134356250Y-75848928D01*
X133918750Y-75848928D01*
X133751592Y-75865392D01*
X133590858Y-75914150D01*
X133442725Y-75993329D01*
X133350000Y-76069426D01*
X133257275Y-75993329D01*
X133109142Y-75914150D01*
X132948408Y-75865392D01*
X132781250Y-75848928D01*
X132343750Y-75848928D01*
X132176592Y-75865392D01*
X132015858Y-75914150D01*
X131867725Y-75993329D01*
X131737885Y-76099885D01*
X131631329Y-76229725D01*
X131552150Y-76377858D01*
X131504046Y-76536437D01*
X131460602Y-76579881D01*
X131359937Y-76429226D01*
X131215774Y-76285063D01*
X131046256Y-76171795D01*
X130857898Y-76093774D01*
X130657939Y-76054000D01*
X130454061Y-76054000D01*
X130254102Y-76093774D01*
X130065744Y-76171795D01*
X129896226Y-76285063D01*
X129752063Y-76429226D01*
X129734072Y-76456152D01*
X129734072Y-75750000D01*
X129730132Y-75710000D01*
X139290000Y-75710000D01*
X139290001Y-97290000D01*
G37*
%TD.AperFunction*%
D19*
X125095000Y-95631000D02*
X125115000Y-95631000D01*
X125115000Y-95885000D01*
X125095000Y-95885000D01*
X125095000Y-95905000D01*
X124841000Y-95905000D01*
X124841000Y-95885000D01*
X124821000Y-95885000D01*
X124821000Y-95631000D01*
X124841000Y-95631000D01*
X124841000Y-95611000D01*
X125095000Y-95611000D01*
X125095000Y-95631000D01*
%TA.AperFunction,Conductor*%
D20*
G36*
X125095000Y-95631000D02*
G01*
X125115000Y-95631000D01*
X125115000Y-95885000D01*
X125095000Y-95885000D01*
X125095000Y-95905000D01*
X124841000Y-95905000D01*
X124841000Y-95885000D01*
X124821000Y-95885000D01*
X124821000Y-95631000D01*
X124841000Y-95631000D01*
X124841000Y-95611000D01*
X125095000Y-95611000D01*
X125095000Y-95631000D01*
G37*
%TD.AperFunction*%
D19*
X132527748Y-94854858D02*
X132513605Y-94869000D01*
X132527748Y-94883143D01*
X132348143Y-95062748D01*
X132334000Y-95048605D01*
X132319858Y-95062748D01*
X132140253Y-94883143D01*
X132154395Y-94869000D01*
X132140253Y-94854858D01*
X132319858Y-94675253D01*
X132334000Y-94689395D01*
X132348143Y-94675253D01*
X132527748Y-94854858D01*
%TA.AperFunction,Conductor*%
D20*
G36*
X132527748Y-94854858D02*
G01*
X132513605Y-94869000D01*
X132527748Y-94883143D01*
X132348143Y-95062748D01*
X132334000Y-95048605D01*
X132319858Y-95062748D01*
X132140253Y-94883143D01*
X132154395Y-94869000D01*
X132140253Y-94854858D01*
X132319858Y-94675253D01*
X132334000Y-94689395D01*
X132348143Y-94675253D01*
X132527748Y-94854858D01*
G37*
%TD.AperFunction*%
D19*
X118323000Y-76623000D02*
X118343000Y-76623000D01*
X118343000Y-76877000D01*
X118323000Y-76877000D01*
X118323000Y-78226250D01*
X118481750Y-78385000D01*
X118596000Y-78388072D01*
X118720482Y-78375812D01*
X118840180Y-78339502D01*
X118946000Y-78282939D01*
X119051820Y-78339502D01*
X119171518Y-78375812D01*
X119296000Y-78388072D01*
X120096000Y-78388072D01*
X120220482Y-78375812D01*
X120340180Y-78339502D01*
X120446000Y-78282939D01*
X120456001Y-78288285D01*
X120456001Y-78487650D01*
X120452421Y-78524000D01*
X120466708Y-78669065D01*
X120509022Y-78808555D01*
X120509023Y-78808556D01*
X120577737Y-78937111D01*
X120590810Y-78953040D01*
X120647040Y-79021557D01*
X120647043Y-79021560D01*
X120670211Y-79049790D01*
X120698440Y-79072958D01*
X121930442Y-80304960D01*
X121930447Y-80304964D01*
X122409000Y-80783517D01*
X122409000Y-80873939D01*
X122448774Y-81073898D01*
X122526795Y-81262256D01*
X122640063Y-81431774D01*
X122784226Y-81575937D01*
X122953744Y-81689205D01*
X123142102Y-81767226D01*
X123342061Y-81807000D01*
X123456001Y-81807000D01*
X123456001Y-82833100D01*
X123452421Y-82869450D01*
X123466708Y-83014514D01*
X123509022Y-83154004D01*
X123577736Y-83282560D01*
X123647040Y-83367007D01*
X123647043Y-83367010D01*
X123670211Y-83395240D01*
X123698440Y-83418407D01*
X124720774Y-84440744D01*
X124720774Y-84531165D01*
X124760548Y-84731124D01*
X124838569Y-84919482D01*
X124951837Y-85089000D01*
X125079535Y-85216698D01*
X125077737Y-85218889D01*
X125041008Y-85287604D01*
X125009022Y-85347445D01*
X124966708Y-85486935D01*
X124952421Y-85632000D01*
X124956001Y-85668350D01*
X124956001Y-85809574D01*
X124882937Y-85700226D01*
X124738774Y-85556063D01*
X124569256Y-85442795D01*
X124380898Y-85364774D01*
X124180939Y-85325000D01*
X123977061Y-85325000D01*
X123777102Y-85364774D01*
X123588744Y-85442795D01*
X123419226Y-85556063D01*
X123275063Y-85700226D01*
X123161795Y-85869744D01*
X123083774Y-86058102D01*
X123053083Y-86212400D01*
X121867483Y-87398000D01*
X120230711Y-87398000D01*
X120166774Y-87334063D01*
X119997256Y-87220795D01*
X119808898Y-87142774D01*
X119608939Y-87103000D01*
X119405061Y-87103000D01*
X119205102Y-87142774D01*
X119016744Y-87220795D01*
X118847226Y-87334063D01*
X118703063Y-87478226D01*
X118589795Y-87647744D01*
X118511774Y-87836102D01*
X118500465Y-87892956D01*
X117729000Y-88664422D01*
X117729000Y-78381473D01*
X117796000Y-78388072D01*
X117910250Y-78385000D01*
X118069000Y-78226250D01*
X118069000Y-76877000D01*
X118049000Y-76877000D01*
X118049000Y-76623000D01*
X118069000Y-76623000D01*
X118069000Y-76603000D01*
X118323000Y-76603000D01*
X118323000Y-76623000D01*
%TA.AperFunction,Conductor*%
D20*
G36*
X118323000Y-76623000D02*
G01*
X118343000Y-76623000D01*
X118343000Y-76877000D01*
X118323000Y-76877000D01*
X118323000Y-78226250D01*
X118481750Y-78385000D01*
X118596000Y-78388072D01*
X118720482Y-78375812D01*
X118840180Y-78339502D01*
X118946000Y-78282939D01*
X119051820Y-78339502D01*
X119171518Y-78375812D01*
X119296000Y-78388072D01*
X120096000Y-78388072D01*
X120220482Y-78375812D01*
X120340180Y-78339502D01*
X120446000Y-78282939D01*
X120456001Y-78288285D01*
X120456001Y-78487650D01*
X120452421Y-78524000D01*
X120466708Y-78669065D01*
X120509022Y-78808555D01*
X120509023Y-78808556D01*
X120577737Y-78937111D01*
X120590810Y-78953040D01*
X120647040Y-79021557D01*
X120647043Y-79021560D01*
X120670211Y-79049790D01*
X120698440Y-79072958D01*
X121930442Y-80304960D01*
X121930447Y-80304964D01*
X122409000Y-80783517D01*
X122409000Y-80873939D01*
X122448774Y-81073898D01*
X122526795Y-81262256D01*
X122640063Y-81431774D01*
X122784226Y-81575937D01*
X122953744Y-81689205D01*
X123142102Y-81767226D01*
X123342061Y-81807000D01*
X123456001Y-81807000D01*
X123456001Y-82833100D01*
X123452421Y-82869450D01*
X123466708Y-83014514D01*
X123509022Y-83154004D01*
X123577736Y-83282560D01*
X123647040Y-83367007D01*
X123647043Y-83367010D01*
X123670211Y-83395240D01*
X123698440Y-83418407D01*
X124720774Y-84440744D01*
X124720774Y-84531165D01*
X124760548Y-84731124D01*
X124838569Y-84919482D01*
X124951837Y-85089000D01*
X125079535Y-85216698D01*
X125077737Y-85218889D01*
X125041008Y-85287604D01*
X125009022Y-85347445D01*
X124966708Y-85486935D01*
X124952421Y-85632000D01*
X124956001Y-85668350D01*
X124956001Y-85809574D01*
X124882937Y-85700226D01*
X124738774Y-85556063D01*
X124569256Y-85442795D01*
X124380898Y-85364774D01*
X124180939Y-85325000D01*
X123977061Y-85325000D01*
X123777102Y-85364774D01*
X123588744Y-85442795D01*
X123419226Y-85556063D01*
X123275063Y-85700226D01*
X123161795Y-85869744D01*
X123083774Y-86058102D01*
X123053083Y-86212400D01*
X121867483Y-87398000D01*
X120230711Y-87398000D01*
X120166774Y-87334063D01*
X119997256Y-87220795D01*
X119808898Y-87142774D01*
X119608939Y-87103000D01*
X119405061Y-87103000D01*
X119205102Y-87142774D01*
X119016744Y-87220795D01*
X118847226Y-87334063D01*
X118703063Y-87478226D01*
X118589795Y-87647744D01*
X118511774Y-87836102D01*
X118500465Y-87892956D01*
X117729000Y-88664422D01*
X117729000Y-78381473D01*
X117796000Y-78388072D01*
X117910250Y-78385000D01*
X118069000Y-78226250D01*
X118069000Y-76877000D01*
X118049000Y-76877000D01*
X118049000Y-76623000D01*
X118069000Y-76623000D01*
X118069000Y-76603000D01*
X118323000Y-76603000D01*
X118323000Y-76623000D01*
G37*
%TD.AperFunction*%
%TD*%
M02*
