G04 #@! TF.GenerationSoftware,KiCad,Pcbnew,(5.1.10)-1*
G04 #@! TF.CreationDate,2021-09-12T00:39:30-05:00*
G04 #@! TF.ProjectId,wireless_measurement_ard,77697265-6c65-4737-935f-6d6561737572,rev?*
G04 #@! TF.SameCoordinates,Original*
G04 #@! TF.FileFunction,Copper,L4,Bot*
G04 #@! TF.FilePolarity,Positive*
%FSLAX46Y46*%
G04 Gerber Fmt 4.6, Leading zero omitted, Abs format (unit mm)*
G04 Created by KiCad (PCBNEW (5.1.10)-1) date 2021-09-12 00:39:30*
%MOMM*%
%LPD*%
G01*
G04 APERTURE LIST*
G04 #@! TA.AperFunction,SMDPad,CuDef*
%ADD10R,1.400000X0.300000*%
G04 #@! TD*
G04 #@! TA.AperFunction,ComponentPad*
%ADD11O,1.700000X1.700000*%
G04 #@! TD*
G04 #@! TA.AperFunction,ComponentPad*
%ADD12R,1.700000X1.700000*%
G04 #@! TD*
G04 #@! TA.AperFunction,SMDPad,CuDef*
%ADD13R,1.250000X2.500000*%
G04 #@! TD*
G04 #@! TA.AperFunction,SMDPad,CuDef*
%ADD14R,2.900000X2.900000*%
G04 #@! TD*
G04 #@! TA.AperFunction,SMDPad,CuDef*
%ADD15R,1.560000X0.650000*%
G04 #@! TD*
G04 #@! TA.AperFunction,SMDPad,CuDef*
%ADD16R,3.600000X1.500000*%
G04 #@! TD*
G04 #@! TA.AperFunction,ViaPad*
%ADD17C,0.800000*%
G04 #@! TD*
G04 #@! TA.AperFunction,Conductor*
%ADD18C,0.210000*%
G04 #@! TD*
G04 #@! TA.AperFunction,Conductor*
%ADD19C,0.250000*%
G04 #@! TD*
G04 #@! TA.AperFunction,Conductor*
%ADD20C,0.254000*%
G04 #@! TD*
G04 #@! TA.AperFunction,Conductor*
%ADD21C,0.100000*%
G04 #@! TD*
G04 APERTURE END LIST*
D10*
X124374000Y-89503000D03*
X124374000Y-89003000D03*
X124374000Y-88503000D03*
X124374000Y-88003000D03*
X124374000Y-87503000D03*
X119974000Y-87503000D03*
X119974000Y-88003000D03*
X119974000Y-88503000D03*
X119974000Y-89003000D03*
X119974000Y-89503000D03*
D11*
X136779000Y-85217000D03*
X134239000Y-85217000D03*
X136779000Y-82677000D03*
X134239000Y-82677000D03*
X136779000Y-80137000D03*
X134239000Y-80137000D03*
X136779000Y-77597000D03*
D12*
X134239000Y-77597000D03*
G04 #@! TA.AperFunction,SMDPad,CuDef*
G36*
G01*
X123841500Y-84171500D02*
X124316500Y-84171500D01*
G75*
G02*
X124554000Y-84409000I0J-237500D01*
G01*
X124554000Y-85009000D01*
G75*
G02*
X124316500Y-85246500I-237500J0D01*
G01*
X123841500Y-85246500D01*
G75*
G02*
X123604000Y-85009000I0J237500D01*
G01*
X123604000Y-84409000D01*
G75*
G02*
X123841500Y-84171500I237500J0D01*
G01*
G37*
G04 #@! TD.AperFunction*
G04 #@! TA.AperFunction,SMDPad,CuDef*
G36*
G01*
X123841500Y-82446500D02*
X124316500Y-82446500D01*
G75*
G02*
X124554000Y-82684000I0J-237500D01*
G01*
X124554000Y-83284000D01*
G75*
G02*
X124316500Y-83521500I-237500J0D01*
G01*
X123841500Y-83521500D01*
G75*
G02*
X123604000Y-83284000I0J237500D01*
G01*
X123604000Y-82684000D01*
G75*
G02*
X123841500Y-82446500I237500J0D01*
G01*
G37*
G04 #@! TD.AperFunction*
D13*
X132882000Y-87884000D03*
X135382000Y-87884000D03*
X137882000Y-87884000D03*
G04 #@! TA.AperFunction,SMDPad,CuDef*
G36*
G01*
X121846000Y-84011000D02*
X121746000Y-84011000D01*
G75*
G02*
X121696000Y-83961000I0J50000D01*
G01*
X121696000Y-83361000D01*
G75*
G02*
X121746000Y-83311000I50000J0D01*
G01*
X121846000Y-83311000D01*
G75*
G02*
X121896000Y-83361000I0J-50000D01*
G01*
X121896000Y-83961000D01*
G75*
G02*
X121846000Y-84011000I-50000J0D01*
G01*
G37*
G04 #@! TD.AperFunction*
G04 #@! TA.AperFunction,SMDPad,CuDef*
G36*
G01*
X121446000Y-84011000D02*
X121346000Y-84011000D01*
G75*
G02*
X121296000Y-83961000I0J50000D01*
G01*
X121296000Y-83361000D01*
G75*
G02*
X121346000Y-83311000I50000J0D01*
G01*
X121446000Y-83311000D01*
G75*
G02*
X121496000Y-83361000I0J-50000D01*
G01*
X121496000Y-83961000D01*
G75*
G02*
X121446000Y-84011000I-50000J0D01*
G01*
G37*
G04 #@! TD.AperFunction*
G04 #@! TA.AperFunction,SMDPad,CuDef*
G36*
G01*
X121046000Y-84011000D02*
X120946000Y-84011000D01*
G75*
G02*
X120896000Y-83961000I0J50000D01*
G01*
X120896000Y-83361000D01*
G75*
G02*
X120946000Y-83311000I50000J0D01*
G01*
X121046000Y-83311000D01*
G75*
G02*
X121096000Y-83361000I0J-50000D01*
G01*
X121096000Y-83961000D01*
G75*
G02*
X121046000Y-84011000I-50000J0D01*
G01*
G37*
G04 #@! TD.AperFunction*
G04 #@! TA.AperFunction,SMDPad,CuDef*
G36*
G01*
X120646000Y-84011000D02*
X120546000Y-84011000D01*
G75*
G02*
X120496000Y-83961000I0J50000D01*
G01*
X120496000Y-83361000D01*
G75*
G02*
X120546000Y-83311000I50000J0D01*
G01*
X120646000Y-83311000D01*
G75*
G02*
X120696000Y-83361000I0J-50000D01*
G01*
X120696000Y-83961000D01*
G75*
G02*
X120646000Y-84011000I-50000J0D01*
G01*
G37*
G04 #@! TD.AperFunction*
G04 #@! TA.AperFunction,SMDPad,CuDef*
G36*
G01*
X120246000Y-84011000D02*
X120146000Y-84011000D01*
G75*
G02*
X120096000Y-83961000I0J50000D01*
G01*
X120096000Y-83361000D01*
G75*
G02*
X120146000Y-83311000I50000J0D01*
G01*
X120246000Y-83311000D01*
G75*
G02*
X120296000Y-83361000I0J-50000D01*
G01*
X120296000Y-83961000D01*
G75*
G02*
X120246000Y-84011000I-50000J0D01*
G01*
G37*
G04 #@! TD.AperFunction*
G04 #@! TA.AperFunction,SMDPad,CuDef*
G36*
G01*
X119846000Y-84011000D02*
X119746000Y-84011000D01*
G75*
G02*
X119696000Y-83961000I0J50000D01*
G01*
X119696000Y-83361000D01*
G75*
G02*
X119746000Y-83311000I50000J0D01*
G01*
X119846000Y-83311000D01*
G75*
G02*
X119896000Y-83361000I0J-50000D01*
G01*
X119896000Y-83961000D01*
G75*
G02*
X119846000Y-84011000I-50000J0D01*
G01*
G37*
G04 #@! TD.AperFunction*
G04 #@! TA.AperFunction,SMDPad,CuDef*
G36*
G01*
X119446000Y-84011000D02*
X119346000Y-84011000D01*
G75*
G02*
X119296000Y-83961000I0J50000D01*
G01*
X119296000Y-83361000D01*
G75*
G02*
X119346000Y-83311000I50000J0D01*
G01*
X119446000Y-83311000D01*
G75*
G02*
X119496000Y-83361000I0J-50000D01*
G01*
X119496000Y-83961000D01*
G75*
G02*
X119446000Y-84011000I-50000J0D01*
G01*
G37*
G04 #@! TD.AperFunction*
G04 #@! TA.AperFunction,SMDPad,CuDef*
G36*
G01*
X119046000Y-84011000D02*
X118946000Y-84011000D01*
G75*
G02*
X118896000Y-83961000I0J50000D01*
G01*
X118896000Y-83361000D01*
G75*
G02*
X118946000Y-83311000I50000J0D01*
G01*
X119046000Y-83311000D01*
G75*
G02*
X119096000Y-83361000I0J-50000D01*
G01*
X119096000Y-83961000D01*
G75*
G02*
X119046000Y-84011000I-50000J0D01*
G01*
G37*
G04 #@! TD.AperFunction*
G04 #@! TA.AperFunction,SMDPad,CuDef*
G36*
G01*
X118696000Y-83161000D02*
X118096000Y-83161000D01*
G75*
G02*
X118046000Y-83111000I0J50000D01*
G01*
X118046000Y-83011000D01*
G75*
G02*
X118096000Y-82961000I50000J0D01*
G01*
X118696000Y-82961000D01*
G75*
G02*
X118746000Y-83011000I0J-50000D01*
G01*
X118746000Y-83111000D01*
G75*
G02*
X118696000Y-83161000I-50000J0D01*
G01*
G37*
G04 #@! TD.AperFunction*
G04 #@! TA.AperFunction,SMDPad,CuDef*
G36*
G01*
X118696000Y-82761000D02*
X118096000Y-82761000D01*
G75*
G02*
X118046000Y-82711000I0J50000D01*
G01*
X118046000Y-82611000D01*
G75*
G02*
X118096000Y-82561000I50000J0D01*
G01*
X118696000Y-82561000D01*
G75*
G02*
X118746000Y-82611000I0J-50000D01*
G01*
X118746000Y-82711000D01*
G75*
G02*
X118696000Y-82761000I-50000J0D01*
G01*
G37*
G04 #@! TD.AperFunction*
G04 #@! TA.AperFunction,SMDPad,CuDef*
G36*
G01*
X118696000Y-82361000D02*
X118096000Y-82361000D01*
G75*
G02*
X118046000Y-82311000I0J50000D01*
G01*
X118046000Y-82211000D01*
G75*
G02*
X118096000Y-82161000I50000J0D01*
G01*
X118696000Y-82161000D01*
G75*
G02*
X118746000Y-82211000I0J-50000D01*
G01*
X118746000Y-82311000D01*
G75*
G02*
X118696000Y-82361000I-50000J0D01*
G01*
G37*
G04 #@! TD.AperFunction*
G04 #@! TA.AperFunction,SMDPad,CuDef*
G36*
G01*
X118696000Y-81961000D02*
X118096000Y-81961000D01*
G75*
G02*
X118046000Y-81911000I0J50000D01*
G01*
X118046000Y-81811000D01*
G75*
G02*
X118096000Y-81761000I50000J0D01*
G01*
X118696000Y-81761000D01*
G75*
G02*
X118746000Y-81811000I0J-50000D01*
G01*
X118746000Y-81911000D01*
G75*
G02*
X118696000Y-81961000I-50000J0D01*
G01*
G37*
G04 #@! TD.AperFunction*
G04 #@! TA.AperFunction,SMDPad,CuDef*
G36*
G01*
X118696000Y-81561000D02*
X118096000Y-81561000D01*
G75*
G02*
X118046000Y-81511000I0J50000D01*
G01*
X118046000Y-81411000D01*
G75*
G02*
X118096000Y-81361000I50000J0D01*
G01*
X118696000Y-81361000D01*
G75*
G02*
X118746000Y-81411000I0J-50000D01*
G01*
X118746000Y-81511000D01*
G75*
G02*
X118696000Y-81561000I-50000J0D01*
G01*
G37*
G04 #@! TD.AperFunction*
G04 #@! TA.AperFunction,SMDPad,CuDef*
G36*
G01*
X118696000Y-81161000D02*
X118096000Y-81161000D01*
G75*
G02*
X118046000Y-81111000I0J50000D01*
G01*
X118046000Y-81011000D01*
G75*
G02*
X118096000Y-80961000I50000J0D01*
G01*
X118696000Y-80961000D01*
G75*
G02*
X118746000Y-81011000I0J-50000D01*
G01*
X118746000Y-81111000D01*
G75*
G02*
X118696000Y-81161000I-50000J0D01*
G01*
G37*
G04 #@! TD.AperFunction*
G04 #@! TA.AperFunction,SMDPad,CuDef*
G36*
G01*
X118696000Y-80761000D02*
X118096000Y-80761000D01*
G75*
G02*
X118046000Y-80711000I0J50000D01*
G01*
X118046000Y-80611000D01*
G75*
G02*
X118096000Y-80561000I50000J0D01*
G01*
X118696000Y-80561000D01*
G75*
G02*
X118746000Y-80611000I0J-50000D01*
G01*
X118746000Y-80711000D01*
G75*
G02*
X118696000Y-80761000I-50000J0D01*
G01*
G37*
G04 #@! TD.AperFunction*
G04 #@! TA.AperFunction,SMDPad,CuDef*
G36*
G01*
X118696000Y-80361000D02*
X118096000Y-80361000D01*
G75*
G02*
X118046000Y-80311000I0J50000D01*
G01*
X118046000Y-80211000D01*
G75*
G02*
X118096000Y-80161000I50000J0D01*
G01*
X118696000Y-80161000D01*
G75*
G02*
X118746000Y-80211000I0J-50000D01*
G01*
X118746000Y-80311000D01*
G75*
G02*
X118696000Y-80361000I-50000J0D01*
G01*
G37*
G04 #@! TD.AperFunction*
G04 #@! TA.AperFunction,SMDPad,CuDef*
G36*
G01*
X119046000Y-80011000D02*
X118946000Y-80011000D01*
G75*
G02*
X118896000Y-79961000I0J50000D01*
G01*
X118896000Y-79361000D01*
G75*
G02*
X118946000Y-79311000I50000J0D01*
G01*
X119046000Y-79311000D01*
G75*
G02*
X119096000Y-79361000I0J-50000D01*
G01*
X119096000Y-79961000D01*
G75*
G02*
X119046000Y-80011000I-50000J0D01*
G01*
G37*
G04 #@! TD.AperFunction*
G04 #@! TA.AperFunction,SMDPad,CuDef*
G36*
G01*
X119446000Y-80011000D02*
X119346000Y-80011000D01*
G75*
G02*
X119296000Y-79961000I0J50000D01*
G01*
X119296000Y-79361000D01*
G75*
G02*
X119346000Y-79311000I50000J0D01*
G01*
X119446000Y-79311000D01*
G75*
G02*
X119496000Y-79361000I0J-50000D01*
G01*
X119496000Y-79961000D01*
G75*
G02*
X119446000Y-80011000I-50000J0D01*
G01*
G37*
G04 #@! TD.AperFunction*
G04 #@! TA.AperFunction,SMDPad,CuDef*
G36*
G01*
X119846000Y-80011000D02*
X119746000Y-80011000D01*
G75*
G02*
X119696000Y-79961000I0J50000D01*
G01*
X119696000Y-79361000D01*
G75*
G02*
X119746000Y-79311000I50000J0D01*
G01*
X119846000Y-79311000D01*
G75*
G02*
X119896000Y-79361000I0J-50000D01*
G01*
X119896000Y-79961000D01*
G75*
G02*
X119846000Y-80011000I-50000J0D01*
G01*
G37*
G04 #@! TD.AperFunction*
G04 #@! TA.AperFunction,SMDPad,CuDef*
G36*
G01*
X120246000Y-80011000D02*
X120146000Y-80011000D01*
G75*
G02*
X120096000Y-79961000I0J50000D01*
G01*
X120096000Y-79361000D01*
G75*
G02*
X120146000Y-79311000I50000J0D01*
G01*
X120246000Y-79311000D01*
G75*
G02*
X120296000Y-79361000I0J-50000D01*
G01*
X120296000Y-79961000D01*
G75*
G02*
X120246000Y-80011000I-50000J0D01*
G01*
G37*
G04 #@! TD.AperFunction*
G04 #@! TA.AperFunction,SMDPad,CuDef*
G36*
G01*
X120646000Y-80011000D02*
X120546000Y-80011000D01*
G75*
G02*
X120496000Y-79961000I0J50000D01*
G01*
X120496000Y-79361000D01*
G75*
G02*
X120546000Y-79311000I50000J0D01*
G01*
X120646000Y-79311000D01*
G75*
G02*
X120696000Y-79361000I0J-50000D01*
G01*
X120696000Y-79961000D01*
G75*
G02*
X120646000Y-80011000I-50000J0D01*
G01*
G37*
G04 #@! TD.AperFunction*
G04 #@! TA.AperFunction,SMDPad,CuDef*
G36*
G01*
X121046000Y-80011000D02*
X120946000Y-80011000D01*
G75*
G02*
X120896000Y-79961000I0J50000D01*
G01*
X120896000Y-79361000D01*
G75*
G02*
X120946000Y-79311000I50000J0D01*
G01*
X121046000Y-79311000D01*
G75*
G02*
X121096000Y-79361000I0J-50000D01*
G01*
X121096000Y-79961000D01*
G75*
G02*
X121046000Y-80011000I-50000J0D01*
G01*
G37*
G04 #@! TD.AperFunction*
G04 #@! TA.AperFunction,SMDPad,CuDef*
G36*
G01*
X121446000Y-80011000D02*
X121346000Y-80011000D01*
G75*
G02*
X121296000Y-79961000I0J50000D01*
G01*
X121296000Y-79361000D01*
G75*
G02*
X121346000Y-79311000I50000J0D01*
G01*
X121446000Y-79311000D01*
G75*
G02*
X121496000Y-79361000I0J-50000D01*
G01*
X121496000Y-79961000D01*
G75*
G02*
X121446000Y-80011000I-50000J0D01*
G01*
G37*
G04 #@! TD.AperFunction*
G04 #@! TA.AperFunction,SMDPad,CuDef*
G36*
G01*
X121846000Y-80011000D02*
X121746000Y-80011000D01*
G75*
G02*
X121696000Y-79961000I0J50000D01*
G01*
X121696000Y-79361000D01*
G75*
G02*
X121746000Y-79311000I50000J0D01*
G01*
X121846000Y-79311000D01*
G75*
G02*
X121896000Y-79361000I0J-50000D01*
G01*
X121896000Y-79961000D01*
G75*
G02*
X121846000Y-80011000I-50000J0D01*
G01*
G37*
G04 #@! TD.AperFunction*
G04 #@! TA.AperFunction,SMDPad,CuDef*
G36*
G01*
X122696000Y-80361000D02*
X122096000Y-80361000D01*
G75*
G02*
X122046000Y-80311000I0J50000D01*
G01*
X122046000Y-80211000D01*
G75*
G02*
X122096000Y-80161000I50000J0D01*
G01*
X122696000Y-80161000D01*
G75*
G02*
X122746000Y-80211000I0J-50000D01*
G01*
X122746000Y-80311000D01*
G75*
G02*
X122696000Y-80361000I-50000J0D01*
G01*
G37*
G04 #@! TD.AperFunction*
G04 #@! TA.AperFunction,SMDPad,CuDef*
G36*
G01*
X122696000Y-80761000D02*
X122096000Y-80761000D01*
G75*
G02*
X122046000Y-80711000I0J50000D01*
G01*
X122046000Y-80611000D01*
G75*
G02*
X122096000Y-80561000I50000J0D01*
G01*
X122696000Y-80561000D01*
G75*
G02*
X122746000Y-80611000I0J-50000D01*
G01*
X122746000Y-80711000D01*
G75*
G02*
X122696000Y-80761000I-50000J0D01*
G01*
G37*
G04 #@! TD.AperFunction*
G04 #@! TA.AperFunction,SMDPad,CuDef*
G36*
G01*
X122696000Y-81161000D02*
X122096000Y-81161000D01*
G75*
G02*
X122046000Y-81111000I0J50000D01*
G01*
X122046000Y-81011000D01*
G75*
G02*
X122096000Y-80961000I50000J0D01*
G01*
X122696000Y-80961000D01*
G75*
G02*
X122746000Y-81011000I0J-50000D01*
G01*
X122746000Y-81111000D01*
G75*
G02*
X122696000Y-81161000I-50000J0D01*
G01*
G37*
G04 #@! TD.AperFunction*
G04 #@! TA.AperFunction,SMDPad,CuDef*
G36*
G01*
X122696000Y-81561000D02*
X122096000Y-81561000D01*
G75*
G02*
X122046000Y-81511000I0J50000D01*
G01*
X122046000Y-81411000D01*
G75*
G02*
X122096000Y-81361000I50000J0D01*
G01*
X122696000Y-81361000D01*
G75*
G02*
X122746000Y-81411000I0J-50000D01*
G01*
X122746000Y-81511000D01*
G75*
G02*
X122696000Y-81561000I-50000J0D01*
G01*
G37*
G04 #@! TD.AperFunction*
G04 #@! TA.AperFunction,SMDPad,CuDef*
G36*
G01*
X122696000Y-81961000D02*
X122096000Y-81961000D01*
G75*
G02*
X122046000Y-81911000I0J50000D01*
G01*
X122046000Y-81811000D01*
G75*
G02*
X122096000Y-81761000I50000J0D01*
G01*
X122696000Y-81761000D01*
G75*
G02*
X122746000Y-81811000I0J-50000D01*
G01*
X122746000Y-81911000D01*
G75*
G02*
X122696000Y-81961000I-50000J0D01*
G01*
G37*
G04 #@! TD.AperFunction*
G04 #@! TA.AperFunction,SMDPad,CuDef*
G36*
G01*
X122696000Y-82361000D02*
X122096000Y-82361000D01*
G75*
G02*
X122046000Y-82311000I0J50000D01*
G01*
X122046000Y-82211000D01*
G75*
G02*
X122096000Y-82161000I50000J0D01*
G01*
X122696000Y-82161000D01*
G75*
G02*
X122746000Y-82211000I0J-50000D01*
G01*
X122746000Y-82311000D01*
G75*
G02*
X122696000Y-82361000I-50000J0D01*
G01*
G37*
G04 #@! TD.AperFunction*
G04 #@! TA.AperFunction,SMDPad,CuDef*
G36*
G01*
X122696000Y-82761000D02*
X122096000Y-82761000D01*
G75*
G02*
X122046000Y-82711000I0J50000D01*
G01*
X122046000Y-82611000D01*
G75*
G02*
X122096000Y-82561000I50000J0D01*
G01*
X122696000Y-82561000D01*
G75*
G02*
X122746000Y-82611000I0J-50000D01*
G01*
X122746000Y-82711000D01*
G75*
G02*
X122696000Y-82761000I-50000J0D01*
G01*
G37*
G04 #@! TD.AperFunction*
G04 #@! TA.AperFunction,SMDPad,CuDef*
G36*
G01*
X122696000Y-83161000D02*
X122096000Y-83161000D01*
G75*
G02*
X122046000Y-83111000I0J50000D01*
G01*
X122046000Y-83011000D01*
G75*
G02*
X122096000Y-82961000I50000J0D01*
G01*
X122696000Y-82961000D01*
G75*
G02*
X122746000Y-83011000I0J-50000D01*
G01*
X122746000Y-83111000D01*
G75*
G02*
X122696000Y-83161000I-50000J0D01*
G01*
G37*
G04 #@! TD.AperFunction*
D14*
X120396000Y-81661000D03*
D15*
X126238000Y-77531000D03*
X126238000Y-76581000D03*
X126238000Y-78481000D03*
X128938000Y-78481000D03*
X128938000Y-77531000D03*
X128938000Y-76581000D03*
D16*
X127889000Y-88517000D03*
X127889000Y-91567000D03*
G04 #@! TA.AperFunction,SMDPad,CuDef*
G36*
G01*
X129965000Y-82787500D02*
X129965000Y-82312500D01*
G75*
G02*
X130202500Y-82075000I237500J0D01*
G01*
X130702500Y-82075000D01*
G75*
G02*
X130940000Y-82312500I0J-237500D01*
G01*
X130940000Y-82787500D01*
G75*
G02*
X130702500Y-83025000I-237500J0D01*
G01*
X130202500Y-83025000D01*
G75*
G02*
X129965000Y-82787500I0J237500D01*
G01*
G37*
G04 #@! TD.AperFunction*
G04 #@! TA.AperFunction,SMDPad,CuDef*
G36*
G01*
X128140000Y-82787500D02*
X128140000Y-82312500D01*
G75*
G02*
X128377500Y-82075000I237500J0D01*
G01*
X128877500Y-82075000D01*
G75*
G02*
X129115000Y-82312500I0J-237500D01*
G01*
X129115000Y-82787500D01*
G75*
G02*
X128877500Y-83025000I-237500J0D01*
G01*
X128377500Y-83025000D01*
G75*
G02*
X128140000Y-82787500I0J237500D01*
G01*
G37*
G04 #@! TD.AperFunction*
G04 #@! TA.AperFunction,SMDPad,CuDef*
G36*
G01*
X116950500Y-84373000D02*
X116475500Y-84373000D01*
G75*
G02*
X116238000Y-84135500I0J237500D01*
G01*
X116238000Y-83560500D01*
G75*
G02*
X116475500Y-83323000I237500J0D01*
G01*
X116950500Y-83323000D01*
G75*
G02*
X117188000Y-83560500I0J-237500D01*
G01*
X117188000Y-84135500D01*
G75*
G02*
X116950500Y-84373000I-237500J0D01*
G01*
G37*
G04 #@! TD.AperFunction*
G04 #@! TA.AperFunction,SMDPad,CuDef*
G36*
G01*
X116950500Y-86123000D02*
X116475500Y-86123000D01*
G75*
G02*
X116238000Y-85885500I0J237500D01*
G01*
X116238000Y-85310500D01*
G75*
G02*
X116475500Y-85073000I237500J0D01*
G01*
X116950500Y-85073000D01*
G75*
G02*
X117188000Y-85310500I0J-237500D01*
G01*
X117188000Y-85885500D01*
G75*
G02*
X116950500Y-86123000I-237500J0D01*
G01*
G37*
G04 #@! TD.AperFunction*
G04 #@! TA.AperFunction,SMDPad,CuDef*
G36*
G01*
X115172500Y-84373000D02*
X114697500Y-84373000D01*
G75*
G02*
X114460000Y-84135500I0J237500D01*
G01*
X114460000Y-83560500D01*
G75*
G02*
X114697500Y-83323000I237500J0D01*
G01*
X115172500Y-83323000D01*
G75*
G02*
X115410000Y-83560500I0J-237500D01*
G01*
X115410000Y-84135500D01*
G75*
G02*
X115172500Y-84373000I-237500J0D01*
G01*
G37*
G04 #@! TD.AperFunction*
G04 #@! TA.AperFunction,SMDPad,CuDef*
G36*
G01*
X115172500Y-86123000D02*
X114697500Y-86123000D01*
G75*
G02*
X114460000Y-85885500I0J237500D01*
G01*
X114460000Y-85310500D01*
G75*
G02*
X114697500Y-85073000I237500J0D01*
G01*
X115172500Y-85073000D01*
G75*
G02*
X115410000Y-85310500I0J-237500D01*
G01*
X115410000Y-85885500D01*
G75*
G02*
X115172500Y-86123000I-237500J0D01*
G01*
G37*
G04 #@! TD.AperFunction*
G04 #@! TA.AperFunction,SMDPad,CuDef*
G36*
G01*
X115713500Y-90506000D02*
X116188500Y-90506000D01*
G75*
G02*
X116426000Y-90743500I0J-237500D01*
G01*
X116426000Y-91318500D01*
G75*
G02*
X116188500Y-91556000I-237500J0D01*
G01*
X115713500Y-91556000D01*
G75*
G02*
X115476000Y-91318500I0J237500D01*
G01*
X115476000Y-90743500D01*
G75*
G02*
X115713500Y-90506000I237500J0D01*
G01*
G37*
G04 #@! TD.AperFunction*
G04 #@! TA.AperFunction,SMDPad,CuDef*
G36*
G01*
X115713500Y-88756000D02*
X116188500Y-88756000D01*
G75*
G02*
X116426000Y-88993500I0J-237500D01*
G01*
X116426000Y-89568500D01*
G75*
G02*
X116188500Y-89806000I-237500J0D01*
G01*
X115713500Y-89806000D01*
G75*
G02*
X115476000Y-89568500I0J237500D01*
G01*
X115476000Y-88993500D01*
G75*
G02*
X115713500Y-88756000I237500J0D01*
G01*
G37*
G04 #@! TD.AperFunction*
G04 #@! TA.AperFunction,SMDPad,CuDef*
G36*
G01*
X117966500Y-89834000D02*
X117491500Y-89834000D01*
G75*
G02*
X117254000Y-89596500I0J237500D01*
G01*
X117254000Y-89021500D01*
G75*
G02*
X117491500Y-88784000I237500J0D01*
G01*
X117966500Y-88784000D01*
G75*
G02*
X118204000Y-89021500I0J-237500D01*
G01*
X118204000Y-89596500D01*
G75*
G02*
X117966500Y-89834000I-237500J0D01*
G01*
G37*
G04 #@! TD.AperFunction*
G04 #@! TA.AperFunction,SMDPad,CuDef*
G36*
G01*
X117966500Y-91584000D02*
X117491500Y-91584000D01*
G75*
G02*
X117254000Y-91346500I0J237500D01*
G01*
X117254000Y-90771500D01*
G75*
G02*
X117491500Y-90534000I237500J0D01*
G01*
X117966500Y-90534000D01*
G75*
G02*
X118204000Y-90771500I0J-237500D01*
G01*
X118204000Y-91346500D01*
G75*
G02*
X117966500Y-91584000I-237500J0D01*
G01*
G37*
G04 #@! TD.AperFunction*
G04 #@! TA.AperFunction,SMDPad,CuDef*
G36*
G01*
X123362000Y-91075500D02*
X123362000Y-91550500D01*
G75*
G02*
X123124500Y-91788000I-237500J0D01*
G01*
X122549500Y-91788000D01*
G75*
G02*
X122312000Y-91550500I0J237500D01*
G01*
X122312000Y-91075500D01*
G75*
G02*
X122549500Y-90838000I237500J0D01*
G01*
X123124500Y-90838000D01*
G75*
G02*
X123362000Y-91075500I0J-237500D01*
G01*
G37*
G04 #@! TD.AperFunction*
G04 #@! TA.AperFunction,SMDPad,CuDef*
G36*
G01*
X125112000Y-91075500D02*
X125112000Y-91550500D01*
G75*
G02*
X124874500Y-91788000I-237500J0D01*
G01*
X124299500Y-91788000D01*
G75*
G02*
X124062000Y-91550500I0J237500D01*
G01*
X124062000Y-91075500D01*
G75*
G02*
X124299500Y-90838000I237500J0D01*
G01*
X124874500Y-90838000D01*
G75*
G02*
X125112000Y-91075500I0J-237500D01*
G01*
G37*
G04 #@! TD.AperFunction*
G04 #@! TA.AperFunction,SMDPad,CuDef*
G36*
G01*
X129368000Y-85200500D02*
X129368000Y-84725500D01*
G75*
G02*
X129605500Y-84488000I237500J0D01*
G01*
X130180500Y-84488000D01*
G75*
G02*
X130418000Y-84725500I0J-237500D01*
G01*
X130418000Y-85200500D01*
G75*
G02*
X130180500Y-85438000I-237500J0D01*
G01*
X129605500Y-85438000D01*
G75*
G02*
X129368000Y-85200500I0J237500D01*
G01*
G37*
G04 #@! TD.AperFunction*
G04 #@! TA.AperFunction,SMDPad,CuDef*
G36*
G01*
X127618000Y-85200500D02*
X127618000Y-84725500D01*
G75*
G02*
X127855500Y-84488000I237500J0D01*
G01*
X128430500Y-84488000D01*
G75*
G02*
X128668000Y-84725500I0J-237500D01*
G01*
X128668000Y-85200500D01*
G75*
G02*
X128430500Y-85438000I-237500J0D01*
G01*
X127855500Y-85438000D01*
G75*
G02*
X127618000Y-85200500I0J237500D01*
G01*
G37*
G04 #@! TD.AperFunction*
G04 #@! TA.AperFunction,SMDPad,CuDef*
G36*
G01*
X119933000Y-91075500D02*
X119933000Y-91550500D01*
G75*
G02*
X119695500Y-91788000I-237500J0D01*
G01*
X119120500Y-91788000D01*
G75*
G02*
X118883000Y-91550500I0J237500D01*
G01*
X118883000Y-91075500D01*
G75*
G02*
X119120500Y-90838000I237500J0D01*
G01*
X119695500Y-90838000D01*
G75*
G02*
X119933000Y-91075500I0J-237500D01*
G01*
G37*
G04 #@! TD.AperFunction*
G04 #@! TA.AperFunction,SMDPad,CuDef*
G36*
G01*
X121683000Y-91075500D02*
X121683000Y-91550500D01*
G75*
G02*
X121445500Y-91788000I-237500J0D01*
G01*
X120870500Y-91788000D01*
G75*
G02*
X120633000Y-91550500I0J237500D01*
G01*
X120633000Y-91075500D01*
G75*
G02*
X120870500Y-90838000I237500J0D01*
G01*
X121445500Y-90838000D01*
G75*
G02*
X121683000Y-91075500I0J-237500D01*
G01*
G37*
G04 #@! TD.AperFunction*
G04 #@! TA.AperFunction,SMDPad,CuDef*
G36*
G01*
X129368000Y-86851500D02*
X129368000Y-86376500D01*
G75*
G02*
X129605500Y-86139000I237500J0D01*
G01*
X130180500Y-86139000D01*
G75*
G02*
X130418000Y-86376500I0J-237500D01*
G01*
X130418000Y-86851500D01*
G75*
G02*
X130180500Y-87089000I-237500J0D01*
G01*
X129605500Y-87089000D01*
G75*
G02*
X129368000Y-86851500I0J237500D01*
G01*
G37*
G04 #@! TD.AperFunction*
G04 #@! TA.AperFunction,SMDPad,CuDef*
G36*
G01*
X127618000Y-86851500D02*
X127618000Y-86376500D01*
G75*
G02*
X127855500Y-86139000I237500J0D01*
G01*
X128430500Y-86139000D01*
G75*
G02*
X128668000Y-86376500I0J-237500D01*
G01*
X128668000Y-86851500D01*
G75*
G02*
X128430500Y-87089000I-237500J0D01*
G01*
X127855500Y-87089000D01*
G75*
G02*
X127618000Y-86851500I0J237500D01*
G01*
G37*
G04 #@! TD.AperFunction*
G04 #@! TA.AperFunction,SMDPad,CuDef*
G36*
G01*
X131679101Y-77074500D02*
X130779099Y-77074500D01*
G75*
G02*
X130529100Y-76824501I0J249999D01*
G01*
X130529100Y-76174499D01*
G75*
G02*
X130779099Y-75924500I249999J0D01*
G01*
X131679101Y-75924500D01*
G75*
G02*
X131929100Y-76174499I0J-249999D01*
G01*
X131929100Y-76824501D01*
G75*
G02*
X131679101Y-77074500I-249999J0D01*
G01*
G37*
G04 #@! TD.AperFunction*
G04 #@! TA.AperFunction,SMDPad,CuDef*
G36*
G01*
X131679101Y-79124500D02*
X130779099Y-79124500D01*
G75*
G02*
X130529100Y-78874501I0J249999D01*
G01*
X130529100Y-78224499D01*
G75*
G02*
X130779099Y-77974500I249999J0D01*
G01*
X131679101Y-77974500D01*
G75*
G02*
X131929100Y-78224499I0J-249999D01*
G01*
X131929100Y-78874501D01*
G75*
G02*
X131679101Y-79124500I-249999J0D01*
G01*
G37*
G04 #@! TD.AperFunction*
D17*
X120396000Y-81661000D03*
X118237000Y-78613000D03*
X127635000Y-79584957D03*
X119253000Y-84963000D03*
X134226998Y-86801343D03*
X125984000Y-83820000D03*
X122555000Y-88519000D03*
X118364000Y-86487000D03*
X132334000Y-80391000D03*
X127127000Y-82296000D03*
X117094000Y-79248000D03*
X120142000Y-86106000D03*
X121555345Y-85073653D03*
X125857002Y-86614000D03*
X126307908Y-81640181D03*
X122301000Y-78613000D03*
X126238000Y-82804000D03*
X123825000Y-78994000D03*
X131705723Y-81239908D03*
X132785691Y-81479737D03*
D18*
X128938000Y-77531000D02*
X127948000Y-77531000D01*
X127948000Y-77531000D02*
X127635000Y-77844000D01*
X127635000Y-77844000D02*
X127635000Y-79584957D01*
X114935000Y-83848000D02*
X116713000Y-83848000D01*
X116713000Y-83848000D02*
X116741000Y-83848000D01*
X116741000Y-83848000D02*
X117856000Y-84963000D01*
X117856000Y-84963000D02*
X119253000Y-84963000D01*
X129893000Y-86614000D02*
X129893000Y-84963000D01*
X129893000Y-84963000D02*
X131572000Y-84963000D01*
X132388655Y-84963000D02*
X134226998Y-86801343D01*
X131572000Y-84963000D02*
X132388655Y-84963000D01*
X124079000Y-82984000D02*
X125021000Y-82984000D01*
X125857000Y-83820000D02*
X125984000Y-83820000D01*
X125021000Y-82984000D02*
X125857000Y-83820000D01*
X124374000Y-88003000D02*
X124374000Y-88503000D01*
X115951000Y-89281000D02*
X115951000Y-88138000D01*
X122126990Y-90602990D02*
X122837000Y-91313000D01*
X120118010Y-90602990D02*
X122126990Y-90602990D01*
X119408000Y-91313000D02*
X120118010Y-90602990D01*
X122126990Y-88947010D02*
X122555000Y-88519000D01*
X122126990Y-90602990D02*
X122126990Y-88947010D01*
X123071000Y-88003000D02*
X122555000Y-88519000D01*
X124374000Y-88003000D02*
X123071000Y-88003000D01*
X122571000Y-88503000D02*
X122555000Y-88519000D01*
X124374000Y-88503000D02*
X122571000Y-88503000D01*
X115951000Y-88138000D02*
X116459000Y-88138000D01*
X118110000Y-86487000D02*
X118364000Y-86487000D01*
X116459000Y-88138000D02*
X118110000Y-86487000D01*
X123008174Y-77261022D02*
X120596000Y-77261022D01*
X126986605Y-80939989D02*
X126522640Y-80476024D01*
X126522640Y-80476024D02*
X126223176Y-80476024D01*
X126223176Y-80476024D02*
X123008174Y-77261022D01*
X128620360Y-80603024D02*
X128283395Y-80939989D01*
X128283395Y-80939989D02*
X126986605Y-80939989D01*
X132334000Y-80391000D02*
X132121976Y-80603024D01*
X132121976Y-80603024D02*
X128620360Y-80603024D01*
X120596000Y-77261022D02*
X120596000Y-79661000D01*
D19*
X125951000Y-76700300D02*
X128651000Y-76700300D01*
X127914400Y-86639400D02*
X127637600Y-86639400D01*
D18*
X127637600Y-86639400D02*
X127637600Y-86870600D01*
X114935000Y-85598000D02*
X116713000Y-85598000D01*
X120996000Y-83661000D02*
X121396000Y-83661000D01*
X128627500Y-82550000D02*
X127381000Y-82550000D01*
X127381000Y-82550000D02*
X127127000Y-82296000D01*
X119509163Y-76240991D02*
X117094000Y-78656154D01*
X125897990Y-76240990D02*
X119509163Y-76240991D01*
X126238000Y-76581000D02*
X125897990Y-76240990D01*
X117094000Y-78656154D02*
X117094000Y-79248000D01*
X128143000Y-84963000D02*
X128143000Y-86614000D01*
X117844000Y-89424000D02*
X117729000Y-89309000D01*
X119083154Y-87503000D02*
X119974000Y-87503000D01*
X118404990Y-89108010D02*
X118404991Y-88181163D01*
X118404991Y-88181163D02*
X119083154Y-87503000D01*
X118204000Y-89309000D02*
X118404990Y-89108010D01*
X117729000Y-89309000D02*
X118204000Y-89309000D01*
X119974000Y-86274000D02*
X120142000Y-86106000D01*
X119974000Y-87503000D02*
X119974000Y-86274000D01*
X119634000Y-85598000D02*
X120142000Y-86106000D01*
X121396000Y-84914308D02*
X121555345Y-85073653D01*
X116713000Y-85598000D02*
X119634000Y-85598000D01*
X121396000Y-83661000D02*
X121396000Y-84914308D01*
D19*
X125882402Y-86639400D02*
X125857002Y-86614000D01*
X127637600Y-86639400D02*
X125882402Y-86639400D01*
D18*
X126128727Y-81461000D02*
X126307908Y-81640181D01*
X122396000Y-81461000D02*
X126128727Y-81461000D01*
X126364013Y-80136013D02*
X126663477Y-80136013D01*
X130024719Y-80263013D02*
X130552721Y-79735011D01*
X123149011Y-76921011D02*
X126364013Y-80136013D01*
X127127442Y-80599978D02*
X128142558Y-80599978D01*
X119796000Y-79661000D02*
X119796000Y-76921011D01*
X128142558Y-80599978D02*
X128479523Y-80263013D01*
X119796000Y-76921011D02*
X123149011Y-76921011D01*
X132634930Y-79735011D02*
X133036919Y-80137000D01*
X130552721Y-79735011D02*
X132634930Y-79735011D01*
X128479523Y-80263013D02*
X130024719Y-80263013D01*
X126663477Y-80136013D02*
X127127442Y-80599978D01*
X133036919Y-80137000D02*
X134239000Y-80137000D01*
X119650000Y-76581000D02*
X119396000Y-76835000D01*
X119396000Y-76835000D02*
X119396000Y-79661000D01*
X123444000Y-76581000D02*
X119650000Y-76581000D01*
X124513300Y-77650300D02*
X123444000Y-76581000D01*
X125951000Y-77650300D02*
X124513300Y-77650300D01*
X122090934Y-78613000D02*
X122301000Y-78613000D01*
X121396000Y-79307934D02*
X122090934Y-78613000D01*
X121396000Y-79661000D02*
X121396000Y-79307934D01*
X126184000Y-82750000D02*
X126238000Y-82804000D01*
X126038000Y-82750000D02*
X126184000Y-82750000D01*
X125295000Y-81861000D02*
X126238000Y-82804000D01*
X122396000Y-81861000D02*
X125295000Y-81861000D01*
X135382000Y-87884000D02*
X135382000Y-89662000D01*
X133477000Y-91567000D02*
X127889000Y-91567000D01*
X135382000Y-89662000D02*
X133477000Y-91567000D01*
X124587000Y-89716000D02*
X124374000Y-89503000D01*
X124587000Y-91313000D02*
X124587000Y-89716000D01*
X124374000Y-89003000D02*
X124374000Y-89503000D01*
X124841000Y-91567000D02*
X124587000Y-91313000D01*
X127889000Y-91567000D02*
X124841000Y-91567000D01*
X123876990Y-92023010D02*
X124587000Y-91313000D01*
X121868010Y-92023010D02*
X123876990Y-92023010D01*
X121158000Y-91313000D02*
X121868010Y-92023010D01*
X120447990Y-92023010D02*
X121158000Y-91313000D01*
X118924778Y-92023010D02*
X120447990Y-92023010D01*
X118647990Y-91746222D02*
X118924778Y-92023010D01*
X118647990Y-90620856D02*
X118647990Y-91746222D01*
X119765846Y-89503000D02*
X118647990Y-90620856D01*
X119974000Y-89503000D02*
X119765846Y-89503000D01*
D19*
X131546600Y-78867000D02*
X131229100Y-78549500D01*
X135509000Y-78867000D02*
X131546600Y-78867000D01*
X136779000Y-77597000D02*
X135509000Y-78867000D01*
X129875598Y-79903002D02*
X128330402Y-79903002D01*
X128330402Y-79903002D02*
X127993437Y-80239967D01*
X127276563Y-80239967D02*
X125951000Y-78914404D01*
X125951000Y-78914404D02*
X125951000Y-78600300D01*
X131229100Y-78549500D02*
X129875598Y-79903002D01*
X127993437Y-80239967D02*
X127276563Y-80239967D01*
X132326600Y-77597000D02*
X131229100Y-76499500D01*
X134239000Y-77597000D02*
X132326600Y-77597000D01*
X129681000Y-78600300D02*
X130048000Y-78233300D01*
X128651000Y-78600300D02*
X129681000Y-78600300D01*
X130048000Y-77680600D02*
X131229100Y-76499500D01*
X130048000Y-78233300D02*
X130048000Y-77680600D01*
D18*
X126749000Y-88925000D02*
X126746000Y-88928000D01*
X128500000Y-88925000D02*
X126749000Y-88925000D01*
X127889000Y-88517000D02*
X126621000Y-88517000D01*
X125729998Y-87503000D02*
X126743998Y-88517000D01*
X126743998Y-88517000D02*
X127889000Y-88517000D01*
X124374000Y-87503000D02*
X125729998Y-87503000D01*
X117701000Y-91031000D02*
X117729000Y-91059000D01*
X115951000Y-91031000D02*
X117701000Y-91031000D01*
X119064000Y-88003000D02*
X118745000Y-88322000D01*
X119974000Y-88003000D02*
X119064000Y-88003000D01*
X118745000Y-90043000D02*
X117729000Y-91059000D01*
X118745000Y-88322000D02*
X118745000Y-90043000D01*
X120996000Y-77601033D02*
X122432033Y-77601033D01*
X120996000Y-79661000D02*
X120996000Y-77601033D01*
X122432033Y-77601033D02*
X123825000Y-78994000D01*
X124879868Y-86360000D02*
X127292868Y-83947000D01*
X120196000Y-85093196D02*
X121462804Y-86360000D01*
X127292868Y-83947000D02*
X135509000Y-83947000D01*
X135929001Y-83526999D02*
X136779000Y-82677000D01*
X135509000Y-83947000D02*
X135929001Y-83526999D01*
X120196000Y-83661000D02*
X120196000Y-85093196D01*
X121462804Y-86360000D02*
X124879868Y-86360000D01*
X130579500Y-82677000D02*
X130452500Y-82550000D01*
X134239000Y-82677000D02*
X130579500Y-82677000D01*
X129395511Y-83606989D02*
X130452500Y-82550000D01*
X127152031Y-83606989D02*
X129395511Y-83606989D01*
X125001010Y-85758010D02*
X127152031Y-83606989D01*
X124907020Y-85852000D02*
X125001010Y-85758010D01*
X120596000Y-83661000D02*
X120596000Y-85012348D01*
X120596000Y-85012348D02*
X121562652Y-85979000D01*
X121562652Y-85979000D02*
X124780020Y-85979000D01*
X124780020Y-85979000D02*
X125001010Y-85758010D01*
D19*
X134239000Y-85217000D02*
X134732400Y-85217000D01*
X136320001Y-86322001D02*
X137882000Y-87884000D01*
X135344001Y-86322001D02*
X136320001Y-86322001D01*
D18*
X134239000Y-85217000D02*
X134620000Y-85598000D01*
X134620000Y-85598000D02*
X134620000Y-85852000D01*
X134683500Y-85915500D02*
X134937500Y-85915500D01*
X134620000Y-85852000D02*
X134683500Y-85915500D01*
D19*
X134937500Y-85915500D02*
X135344001Y-86322001D01*
D18*
X125346000Y-80261000D02*
X122396000Y-80261000D01*
X125924909Y-80839909D02*
X125346000Y-80261000D01*
X126405677Y-80839909D02*
X125924909Y-80839909D01*
X126845768Y-81280000D02*
X126405677Y-80839909D01*
X131705723Y-81239908D02*
X131665631Y-81280000D01*
X131665631Y-81280000D02*
X126845768Y-81280000D01*
X136779000Y-80137000D02*
X135436263Y-81479737D01*
X135436263Y-81479737D02*
X132785691Y-81479737D01*
X122844000Y-84709000D02*
X121796000Y-83661000D01*
X124079000Y-84709000D02*
X122844000Y-84709000D01*
D20*
X119535000Y-91186000D02*
X119555000Y-91186000D01*
X119555000Y-91283010D01*
X119387990Y-91283010D01*
X119387990Y-91166000D01*
X119535000Y-91166000D01*
X119535000Y-91186000D01*
G04 #@! TA.AperFunction,Conductor*
D21*
G36*
X119535000Y-91186000D02*
G01*
X119555000Y-91186000D01*
X119555000Y-91283010D01*
X119387990Y-91283010D01*
X119387990Y-91166000D01*
X119535000Y-91166000D01*
X119535000Y-91186000D01*
G37*
G04 #@! TD.AperFunction*
D20*
X121317739Y-87089292D02*
X121426457Y-87100000D01*
X121426466Y-87100000D01*
X121462803Y-87103579D01*
X121499140Y-87100000D01*
X123089212Y-87100000D01*
X123084498Y-87108820D01*
X123048188Y-87228518D01*
X123035928Y-87353000D01*
X123035928Y-87653000D01*
X123046102Y-87756302D01*
X123039000Y-87821250D01*
X123071247Y-87853497D01*
X123084498Y-87897180D01*
X123141520Y-88003859D01*
X123088379Y-88099654D01*
X123071535Y-88152215D01*
X123039000Y-88184750D01*
X123046463Y-88253000D01*
X123039000Y-88321250D01*
X123071535Y-88353785D01*
X123088379Y-88406346D01*
X123141520Y-88502141D01*
X123084498Y-88608820D01*
X123071247Y-88652503D01*
X123039000Y-88684750D01*
X123046102Y-88749698D01*
X123035928Y-88853000D01*
X123035928Y-89153000D01*
X123045777Y-89253000D01*
X123035928Y-89353000D01*
X123035928Y-89653000D01*
X123048188Y-89777482D01*
X123084498Y-89897180D01*
X123143463Y-90007494D01*
X123222815Y-90104185D01*
X123319506Y-90183537D01*
X123350448Y-90200076D01*
X123122750Y-90203000D01*
X122964000Y-90361750D01*
X122964000Y-91186000D01*
X122984000Y-91186000D01*
X122984000Y-91283010D01*
X122690000Y-91283010D01*
X122690000Y-91186000D01*
X122710000Y-91186000D01*
X122710000Y-90361750D01*
X122551250Y-90203000D01*
X122312000Y-90199928D01*
X122187518Y-90212188D01*
X122067820Y-90248498D01*
X121957506Y-90307463D01*
X121917888Y-90339976D01*
X121780567Y-90266577D01*
X121616316Y-90216752D01*
X121445500Y-90199928D01*
X120997829Y-90199928D01*
X121028494Y-90183537D01*
X121125185Y-90104185D01*
X121204537Y-90007494D01*
X121263502Y-89897180D01*
X121299812Y-89777482D01*
X121312072Y-89653000D01*
X121312072Y-89353000D01*
X121302223Y-89253000D01*
X121312072Y-89153000D01*
X121312072Y-88853000D01*
X121302223Y-88753000D01*
X121312072Y-88653000D01*
X121312072Y-88353000D01*
X121302223Y-88253000D01*
X121312072Y-88153000D01*
X121312072Y-87853000D01*
X121302223Y-87753000D01*
X121312072Y-87653000D01*
X121312072Y-87353000D01*
X121299812Y-87228518D01*
X121263502Y-87108820D01*
X121240548Y-87065876D01*
X121317739Y-87089292D01*
G04 #@! TA.AperFunction,Conductor*
D21*
G36*
X121317739Y-87089292D02*
G01*
X121426457Y-87100000D01*
X121426466Y-87100000D01*
X121462803Y-87103579D01*
X121499140Y-87100000D01*
X123089212Y-87100000D01*
X123084498Y-87108820D01*
X123048188Y-87228518D01*
X123035928Y-87353000D01*
X123035928Y-87653000D01*
X123046102Y-87756302D01*
X123039000Y-87821250D01*
X123071247Y-87853497D01*
X123084498Y-87897180D01*
X123141520Y-88003859D01*
X123088379Y-88099654D01*
X123071535Y-88152215D01*
X123039000Y-88184750D01*
X123046463Y-88253000D01*
X123039000Y-88321250D01*
X123071535Y-88353785D01*
X123088379Y-88406346D01*
X123141520Y-88502141D01*
X123084498Y-88608820D01*
X123071247Y-88652503D01*
X123039000Y-88684750D01*
X123046102Y-88749698D01*
X123035928Y-88853000D01*
X123035928Y-89153000D01*
X123045777Y-89253000D01*
X123035928Y-89353000D01*
X123035928Y-89653000D01*
X123048188Y-89777482D01*
X123084498Y-89897180D01*
X123143463Y-90007494D01*
X123222815Y-90104185D01*
X123319506Y-90183537D01*
X123350448Y-90200076D01*
X123122750Y-90203000D01*
X122964000Y-90361750D01*
X122964000Y-91186000D01*
X122984000Y-91186000D01*
X122984000Y-91283010D01*
X122690000Y-91283010D01*
X122690000Y-91186000D01*
X122710000Y-91186000D01*
X122710000Y-90361750D01*
X122551250Y-90203000D01*
X122312000Y-90199928D01*
X122187518Y-90212188D01*
X122067820Y-90248498D01*
X121957506Y-90307463D01*
X121917888Y-90339976D01*
X121780567Y-90266577D01*
X121616316Y-90216752D01*
X121445500Y-90199928D01*
X120997829Y-90199928D01*
X121028494Y-90183537D01*
X121125185Y-90104185D01*
X121204537Y-90007494D01*
X121263502Y-89897180D01*
X121299812Y-89777482D01*
X121312072Y-89653000D01*
X121312072Y-89353000D01*
X121302223Y-89253000D01*
X121312072Y-89153000D01*
X121312072Y-88853000D01*
X121302223Y-88753000D01*
X121312072Y-88653000D01*
X121312072Y-88353000D01*
X121302223Y-88253000D01*
X121312072Y-88153000D01*
X121312072Y-87853000D01*
X121302223Y-87753000D01*
X121312072Y-87653000D01*
X121312072Y-87353000D01*
X121299812Y-87228518D01*
X121263502Y-87108820D01*
X121240548Y-87065876D01*
X121317739Y-87089292D01*
G37*
G04 #@! TD.AperFunction*
D20*
X132811068Y-84783842D02*
X132754000Y-85070740D01*
X132754000Y-85363260D01*
X132811068Y-85650158D01*
X132923010Y-85920411D01*
X132973469Y-85995928D01*
X132257000Y-85995928D01*
X132132518Y-86008188D01*
X132012820Y-86044498D01*
X131902506Y-86103463D01*
X131805815Y-86182815D01*
X131726463Y-86279506D01*
X131667498Y-86389820D01*
X131631188Y-86509518D01*
X131618928Y-86634000D01*
X131618928Y-89134000D01*
X131631188Y-89258482D01*
X131667498Y-89378180D01*
X131726463Y-89488494D01*
X131790014Y-89565932D01*
X131665517Y-89590696D01*
X131468060Y-89672485D01*
X131290353Y-89791225D01*
X131139225Y-89942353D01*
X131020485Y-90120060D01*
X130938696Y-90317517D01*
X130897000Y-90527137D01*
X130897000Y-90740863D01*
X130914134Y-90827000D01*
X130327072Y-90827000D01*
X130327072Y-90817000D01*
X130314812Y-90692518D01*
X130278502Y-90572820D01*
X130219537Y-90462506D01*
X130140185Y-90365815D01*
X130043494Y-90286463D01*
X129933180Y-90227498D01*
X129813482Y-90191188D01*
X129689000Y-90178928D01*
X126089000Y-90178928D01*
X125964518Y-90191188D01*
X125844820Y-90227498D01*
X125734506Y-90286463D01*
X125637815Y-90365815D01*
X125558463Y-90462506D01*
X125534873Y-90506640D01*
X125493623Y-90456377D01*
X125360942Y-90347488D01*
X125327000Y-90329346D01*
X125327000Y-90237788D01*
X125428494Y-90183537D01*
X125525185Y-90104185D01*
X125604537Y-90007494D01*
X125663502Y-89897180D01*
X125699812Y-89777482D01*
X125700579Y-89769694D01*
X125734506Y-89797537D01*
X125844820Y-89856502D01*
X125964518Y-89892812D01*
X126089000Y-89905072D01*
X129689000Y-89905072D01*
X129813482Y-89892812D01*
X129933180Y-89856502D01*
X130043494Y-89797537D01*
X130140185Y-89718185D01*
X130219537Y-89621494D01*
X130278502Y-89511180D01*
X130314812Y-89391482D01*
X130327072Y-89267000D01*
X130327072Y-87767000D01*
X130323019Y-87725852D01*
X130418000Y-87727072D01*
X130542482Y-87714812D01*
X130662180Y-87678502D01*
X130772494Y-87619537D01*
X130869185Y-87540185D01*
X130948537Y-87443494D01*
X131007502Y-87333180D01*
X131043812Y-87213482D01*
X131056072Y-87089000D01*
X131053000Y-86899750D01*
X130894250Y-86741000D01*
X130020000Y-86741000D01*
X130020000Y-86761000D01*
X129766000Y-86761000D01*
X129766000Y-86741000D01*
X129746000Y-86741000D01*
X129746000Y-86487000D01*
X129766000Y-86487000D01*
X129766000Y-85090000D01*
X130020000Y-85090000D01*
X130020000Y-86487000D01*
X130894250Y-86487000D01*
X131053000Y-86328250D01*
X131056072Y-86139000D01*
X131043812Y-86014518D01*
X131007502Y-85894820D01*
X130950672Y-85788500D01*
X131007502Y-85682180D01*
X131043812Y-85562482D01*
X131056072Y-85438000D01*
X131053000Y-85248750D01*
X130894250Y-85090000D01*
X130020000Y-85090000D01*
X129766000Y-85090000D01*
X129746000Y-85090000D01*
X129746000Y-84836000D01*
X129766000Y-84836000D01*
X129766000Y-84816000D01*
X130020000Y-84816000D01*
X130020000Y-84836000D01*
X130894250Y-84836000D01*
X131043250Y-84687000D01*
X132851181Y-84687000D01*
X132811068Y-84783842D01*
G04 #@! TA.AperFunction,Conductor*
D21*
G36*
X132811068Y-84783842D02*
G01*
X132754000Y-85070740D01*
X132754000Y-85363260D01*
X132811068Y-85650158D01*
X132923010Y-85920411D01*
X132973469Y-85995928D01*
X132257000Y-85995928D01*
X132132518Y-86008188D01*
X132012820Y-86044498D01*
X131902506Y-86103463D01*
X131805815Y-86182815D01*
X131726463Y-86279506D01*
X131667498Y-86389820D01*
X131631188Y-86509518D01*
X131618928Y-86634000D01*
X131618928Y-89134000D01*
X131631188Y-89258482D01*
X131667498Y-89378180D01*
X131726463Y-89488494D01*
X131790014Y-89565932D01*
X131665517Y-89590696D01*
X131468060Y-89672485D01*
X131290353Y-89791225D01*
X131139225Y-89942353D01*
X131020485Y-90120060D01*
X130938696Y-90317517D01*
X130897000Y-90527137D01*
X130897000Y-90740863D01*
X130914134Y-90827000D01*
X130327072Y-90827000D01*
X130327072Y-90817000D01*
X130314812Y-90692518D01*
X130278502Y-90572820D01*
X130219537Y-90462506D01*
X130140185Y-90365815D01*
X130043494Y-90286463D01*
X129933180Y-90227498D01*
X129813482Y-90191188D01*
X129689000Y-90178928D01*
X126089000Y-90178928D01*
X125964518Y-90191188D01*
X125844820Y-90227498D01*
X125734506Y-90286463D01*
X125637815Y-90365815D01*
X125558463Y-90462506D01*
X125534873Y-90506640D01*
X125493623Y-90456377D01*
X125360942Y-90347488D01*
X125327000Y-90329346D01*
X125327000Y-90237788D01*
X125428494Y-90183537D01*
X125525185Y-90104185D01*
X125604537Y-90007494D01*
X125663502Y-89897180D01*
X125699812Y-89777482D01*
X125700579Y-89769694D01*
X125734506Y-89797537D01*
X125844820Y-89856502D01*
X125964518Y-89892812D01*
X126089000Y-89905072D01*
X129689000Y-89905072D01*
X129813482Y-89892812D01*
X129933180Y-89856502D01*
X130043494Y-89797537D01*
X130140185Y-89718185D01*
X130219537Y-89621494D01*
X130278502Y-89511180D01*
X130314812Y-89391482D01*
X130327072Y-89267000D01*
X130327072Y-87767000D01*
X130323019Y-87725852D01*
X130418000Y-87727072D01*
X130542482Y-87714812D01*
X130662180Y-87678502D01*
X130772494Y-87619537D01*
X130869185Y-87540185D01*
X130948537Y-87443494D01*
X131007502Y-87333180D01*
X131043812Y-87213482D01*
X131056072Y-87089000D01*
X131053000Y-86899750D01*
X130894250Y-86741000D01*
X130020000Y-86741000D01*
X130020000Y-86761000D01*
X129766000Y-86761000D01*
X129766000Y-86741000D01*
X129746000Y-86741000D01*
X129746000Y-86487000D01*
X129766000Y-86487000D01*
X129766000Y-85090000D01*
X130020000Y-85090000D01*
X130020000Y-86487000D01*
X130894250Y-86487000D01*
X131053000Y-86328250D01*
X131056072Y-86139000D01*
X131043812Y-86014518D01*
X131007502Y-85894820D01*
X130950672Y-85788500D01*
X131007502Y-85682180D01*
X131043812Y-85562482D01*
X131056072Y-85438000D01*
X131053000Y-85248750D01*
X130894250Y-85090000D01*
X130020000Y-85090000D01*
X129766000Y-85090000D01*
X129746000Y-85090000D01*
X129746000Y-84836000D01*
X129766000Y-84836000D01*
X129766000Y-84816000D01*
X130020000Y-84816000D01*
X130020000Y-84836000D01*
X130894250Y-84836000D01*
X131043250Y-84687000D01*
X132851181Y-84687000D01*
X132811068Y-84783842D01*
G37*
G04 #@! TD.AperFunction*
D20*
X139590001Y-89907579D02*
X139473647Y-89791225D01*
X139295940Y-89672485D01*
X139098483Y-89590696D01*
X138973986Y-89565932D01*
X139037537Y-89488494D01*
X139096502Y-89378180D01*
X139132812Y-89258482D01*
X139145072Y-89134000D01*
X139145072Y-86634000D01*
X139132812Y-86509518D01*
X139096502Y-86389820D01*
X139037537Y-86279506D01*
X138958185Y-86182815D01*
X138861494Y-86103463D01*
X138751180Y-86044498D01*
X138631482Y-86008188D01*
X138507000Y-85995928D01*
X138041684Y-85995928D01*
X138050641Y-85983920D01*
X138175825Y-85721099D01*
X138220476Y-85573890D01*
X138099155Y-85344000D01*
X136906000Y-85344000D01*
X136906000Y-85364000D01*
X136652000Y-85364000D01*
X136652000Y-85344000D01*
X136632000Y-85344000D01*
X136632000Y-85090000D01*
X136652000Y-85090000D01*
X136652000Y-85070000D01*
X136906000Y-85070000D01*
X136906000Y-85090000D01*
X138099155Y-85090000D01*
X138220476Y-84860110D01*
X138175825Y-84712901D01*
X138050641Y-84450080D01*
X137876588Y-84216731D01*
X137660355Y-84021822D01*
X137543466Y-83952195D01*
X137725632Y-83830475D01*
X137932475Y-83623632D01*
X138094990Y-83380411D01*
X138206932Y-83110158D01*
X138264000Y-82823260D01*
X138264000Y-82530740D01*
X138206932Y-82243842D01*
X138094990Y-81973589D01*
X137932475Y-81730368D01*
X137725632Y-81523525D01*
X137551240Y-81407000D01*
X137725632Y-81290475D01*
X137932475Y-81083632D01*
X138094990Y-80840411D01*
X138206932Y-80570158D01*
X138264000Y-80283260D01*
X138264000Y-79990740D01*
X138206932Y-79703842D01*
X138094990Y-79433589D01*
X137932475Y-79190368D01*
X137725632Y-78983525D01*
X137551240Y-78867000D01*
X137725632Y-78750475D01*
X137932475Y-78543632D01*
X138094990Y-78300411D01*
X138206932Y-78030158D01*
X138264000Y-77743260D01*
X138264000Y-77450740D01*
X138206932Y-77163842D01*
X138094990Y-76893589D01*
X137932475Y-76650368D01*
X137725632Y-76443525D01*
X137482411Y-76281010D01*
X137212158Y-76169068D01*
X136925260Y-76112000D01*
X136632740Y-76112000D01*
X136345842Y-76169068D01*
X136075589Y-76281010D01*
X135832368Y-76443525D01*
X135700513Y-76575380D01*
X135678502Y-76502820D01*
X135619537Y-76392506D01*
X135540185Y-76295815D01*
X135443494Y-76216463D01*
X135333180Y-76157498D01*
X135213482Y-76121188D01*
X135089000Y-76108928D01*
X133389000Y-76108928D01*
X133264518Y-76121188D01*
X133144820Y-76157498D01*
X133034506Y-76216463D01*
X132937815Y-76295815D01*
X132858463Y-76392506D01*
X132799498Y-76502820D01*
X132763188Y-76622518D01*
X132750928Y-76747000D01*
X132750928Y-76837000D01*
X132641403Y-76837000D01*
X132567172Y-76762770D01*
X132567172Y-76174499D01*
X132550108Y-76001245D01*
X132499572Y-75834649D01*
X132432945Y-75710000D01*
X139590000Y-75710000D01*
X139590001Y-89907579D01*
G04 #@! TA.AperFunction,Conductor*
D21*
G36*
X139590001Y-89907579D02*
G01*
X139473647Y-89791225D01*
X139295940Y-89672485D01*
X139098483Y-89590696D01*
X138973986Y-89565932D01*
X139037537Y-89488494D01*
X139096502Y-89378180D01*
X139132812Y-89258482D01*
X139145072Y-89134000D01*
X139145072Y-86634000D01*
X139132812Y-86509518D01*
X139096502Y-86389820D01*
X139037537Y-86279506D01*
X138958185Y-86182815D01*
X138861494Y-86103463D01*
X138751180Y-86044498D01*
X138631482Y-86008188D01*
X138507000Y-85995928D01*
X138041684Y-85995928D01*
X138050641Y-85983920D01*
X138175825Y-85721099D01*
X138220476Y-85573890D01*
X138099155Y-85344000D01*
X136906000Y-85344000D01*
X136906000Y-85364000D01*
X136652000Y-85364000D01*
X136652000Y-85344000D01*
X136632000Y-85344000D01*
X136632000Y-85090000D01*
X136652000Y-85090000D01*
X136652000Y-85070000D01*
X136906000Y-85070000D01*
X136906000Y-85090000D01*
X138099155Y-85090000D01*
X138220476Y-84860110D01*
X138175825Y-84712901D01*
X138050641Y-84450080D01*
X137876588Y-84216731D01*
X137660355Y-84021822D01*
X137543466Y-83952195D01*
X137725632Y-83830475D01*
X137932475Y-83623632D01*
X138094990Y-83380411D01*
X138206932Y-83110158D01*
X138264000Y-82823260D01*
X138264000Y-82530740D01*
X138206932Y-82243842D01*
X138094990Y-81973589D01*
X137932475Y-81730368D01*
X137725632Y-81523525D01*
X137551240Y-81407000D01*
X137725632Y-81290475D01*
X137932475Y-81083632D01*
X138094990Y-80840411D01*
X138206932Y-80570158D01*
X138264000Y-80283260D01*
X138264000Y-79990740D01*
X138206932Y-79703842D01*
X138094990Y-79433589D01*
X137932475Y-79190368D01*
X137725632Y-78983525D01*
X137551240Y-78867000D01*
X137725632Y-78750475D01*
X137932475Y-78543632D01*
X138094990Y-78300411D01*
X138206932Y-78030158D01*
X138264000Y-77743260D01*
X138264000Y-77450740D01*
X138206932Y-77163842D01*
X138094990Y-76893589D01*
X137932475Y-76650368D01*
X137725632Y-76443525D01*
X137482411Y-76281010D01*
X137212158Y-76169068D01*
X136925260Y-76112000D01*
X136632740Y-76112000D01*
X136345842Y-76169068D01*
X136075589Y-76281010D01*
X135832368Y-76443525D01*
X135700513Y-76575380D01*
X135678502Y-76502820D01*
X135619537Y-76392506D01*
X135540185Y-76295815D01*
X135443494Y-76216463D01*
X135333180Y-76157498D01*
X135213482Y-76121188D01*
X135089000Y-76108928D01*
X133389000Y-76108928D01*
X133264518Y-76121188D01*
X133144820Y-76157498D01*
X133034506Y-76216463D01*
X132937815Y-76295815D01*
X132858463Y-76392506D01*
X132799498Y-76502820D01*
X132763188Y-76622518D01*
X132750928Y-76747000D01*
X132750928Y-76837000D01*
X132641403Y-76837000D01*
X132567172Y-76762770D01*
X132567172Y-76174499D01*
X132550108Y-76001245D01*
X132499572Y-75834649D01*
X132432945Y-75710000D01*
X139590000Y-75710000D01*
X139590001Y-89907579D01*
G37*
G04 #@! TD.AperFunction*
D20*
X119146774Y-86407898D02*
X119224795Y-86596256D01*
X119234001Y-86610033D01*
X119234001Y-86718867D01*
X119149518Y-86727188D01*
X119029820Y-86763498D01*
X119027125Y-86764939D01*
X118953324Y-86772207D01*
X118938088Y-86773708D01*
X118874567Y-86792977D01*
X118798598Y-86816022D01*
X118670043Y-86884736D01*
X118670041Y-86884737D01*
X118670042Y-86884737D01*
X118585595Y-86954040D01*
X118585588Y-86954047D01*
X118557364Y-86977210D01*
X118534200Y-87005435D01*
X117907431Y-87632206D01*
X117879202Y-87655373D01*
X117856034Y-87683603D01*
X117856031Y-87683606D01*
X117839511Y-87703736D01*
X117786728Y-87768052D01*
X117753604Y-87830022D01*
X117729000Y-87876053D01*
X117729000Y-86338000D01*
X119132871Y-86338000D01*
X119146774Y-86407898D01*
G04 #@! TA.AperFunction,Conductor*
D21*
G36*
X119146774Y-86407898D02*
G01*
X119224795Y-86596256D01*
X119234001Y-86610033D01*
X119234001Y-86718867D01*
X119149518Y-86727188D01*
X119029820Y-86763498D01*
X119027125Y-86764939D01*
X118953324Y-86772207D01*
X118938088Y-86773708D01*
X118874567Y-86792977D01*
X118798598Y-86816022D01*
X118670043Y-86884736D01*
X118670041Y-86884737D01*
X118670042Y-86884737D01*
X118585595Y-86954040D01*
X118585588Y-86954047D01*
X118557364Y-86977210D01*
X118534200Y-87005435D01*
X117907431Y-87632206D01*
X117879202Y-87655373D01*
X117856034Y-87683603D01*
X117856031Y-87683606D01*
X117839511Y-87703736D01*
X117786728Y-87768052D01*
X117753604Y-87830022D01*
X117729000Y-87876053D01*
X117729000Y-86338000D01*
X119132871Y-86338000D01*
X119146774Y-86407898D01*
G37*
G04 #@! TD.AperFunction*
D20*
X125203000Y-82815517D02*
X125203000Y-82905939D01*
X125242774Y-83105898D01*
X125320795Y-83294256D01*
X125434063Y-83463774D01*
X125578226Y-83607937D01*
X125747744Y-83721205D01*
X125919962Y-83792540D01*
X125192072Y-84520431D01*
X125192072Y-84409000D01*
X125175248Y-84238184D01*
X125125423Y-84073933D01*
X125045226Y-83923894D01*
X125084537Y-83875994D01*
X125143502Y-83765680D01*
X125179812Y-83645982D01*
X125192072Y-83521500D01*
X125189000Y-83269750D01*
X125030250Y-83111000D01*
X124206000Y-83111000D01*
X124206000Y-83131000D01*
X123952000Y-83131000D01*
X123952000Y-83111000D01*
X123932000Y-83111000D01*
X123932000Y-82857000D01*
X123952000Y-82857000D01*
X123952000Y-82837000D01*
X124206000Y-82837000D01*
X124206000Y-82857000D01*
X125030250Y-82857000D01*
X125137366Y-82749884D01*
X125203000Y-82815517D01*
G04 #@! TA.AperFunction,Conductor*
D21*
G36*
X125203000Y-82815517D02*
G01*
X125203000Y-82905939D01*
X125242774Y-83105898D01*
X125320795Y-83294256D01*
X125434063Y-83463774D01*
X125578226Y-83607937D01*
X125747744Y-83721205D01*
X125919962Y-83792540D01*
X125192072Y-84520431D01*
X125192072Y-84409000D01*
X125175248Y-84238184D01*
X125125423Y-84073933D01*
X125045226Y-83923894D01*
X125084537Y-83875994D01*
X125143502Y-83765680D01*
X125179812Y-83645982D01*
X125192072Y-83521500D01*
X125189000Y-83269750D01*
X125030250Y-83111000D01*
X124206000Y-83111000D01*
X124206000Y-83131000D01*
X123952000Y-83131000D01*
X123952000Y-83111000D01*
X123932000Y-83111000D01*
X123932000Y-82857000D01*
X123952000Y-82857000D01*
X123952000Y-82837000D01*
X124206000Y-82837000D01*
X124206000Y-82857000D01*
X125030250Y-82857000D01*
X125137366Y-82749884D01*
X125203000Y-82815517D01*
G37*
G04 #@! TD.AperFunction*
D20*
X120523000Y-81534000D02*
X120543000Y-81534000D01*
X120543000Y-81788000D01*
X120523000Y-81788000D01*
X120523000Y-81808000D01*
X120269000Y-81808000D01*
X120269000Y-81788000D01*
X120249000Y-81788000D01*
X120249000Y-81534000D01*
X120269000Y-81534000D01*
X120269000Y-81514000D01*
X120523000Y-81514000D01*
X120523000Y-81534000D01*
G04 #@! TA.AperFunction,Conductor*
D21*
G36*
X120523000Y-81534000D02*
G01*
X120543000Y-81534000D01*
X120543000Y-81788000D01*
X120523000Y-81788000D01*
X120523000Y-81808000D01*
X120269000Y-81808000D01*
X120269000Y-81788000D01*
X120249000Y-81788000D01*
X120249000Y-81534000D01*
X120269000Y-81534000D01*
X120269000Y-81514000D01*
X120523000Y-81514000D01*
X120523000Y-81534000D01*
G37*
G04 #@! TD.AperFunction*
D20*
X118656001Y-78739568D02*
X118563728Y-78788889D01*
X118459460Y-78874460D01*
X118373889Y-78978728D01*
X118310304Y-79097686D01*
X118271149Y-79226764D01*
X118257928Y-79361000D01*
X118257928Y-79522928D01*
X118096000Y-79522928D01*
X118094562Y-79523070D01*
X118129000Y-79349939D01*
X118129000Y-79146061D01*
X118089226Y-78946102D01*
X118019325Y-78777346D01*
X118656000Y-78140671D01*
X118656001Y-78739568D01*
G04 #@! TA.AperFunction,Conductor*
D21*
G36*
X118656001Y-78739568D02*
G01*
X118563728Y-78788889D01*
X118459460Y-78874460D01*
X118373889Y-78978728D01*
X118310304Y-79097686D01*
X118271149Y-79226764D01*
X118257928Y-79361000D01*
X118257928Y-79522928D01*
X118096000Y-79522928D01*
X118094562Y-79523070D01*
X118129000Y-79349939D01*
X118129000Y-79146061D01*
X118089226Y-78946102D01*
X118019325Y-78777346D01*
X118656000Y-78140671D01*
X118656001Y-78739568D01*
G37*
G04 #@! TD.AperFunction*
D20*
X127627463Y-79160494D02*
X127706815Y-79257185D01*
X127803506Y-79336537D01*
X127815098Y-79342733D01*
X127790401Y-79363001D01*
X127766602Y-79392000D01*
X127678635Y-79479967D01*
X127591365Y-79479967D01*
X127413930Y-79302532D01*
X127469185Y-79257185D01*
X127548537Y-79160494D01*
X127588000Y-79086665D01*
X127627463Y-79160494D01*
G04 #@! TA.AperFunction,Conductor*
D21*
G36*
X127627463Y-79160494D02*
G01*
X127706815Y-79257185D01*
X127803506Y-79336537D01*
X127815098Y-79342733D01*
X127790401Y-79363001D01*
X127766602Y-79392000D01*
X127678635Y-79479967D01*
X127591365Y-79479967D01*
X127413930Y-79302532D01*
X127469185Y-79257185D01*
X127548537Y-79160494D01*
X127588000Y-79086665D01*
X127627463Y-79160494D01*
G37*
G04 #@! TD.AperFunction*
M02*
