G04 #@! TF.GenerationSoftware,KiCad,Pcbnew,(5.1.10)-1*
G04 #@! TF.CreationDate,2021-10-05T14:15:47-05:00*
G04 #@! TF.ProjectId,wireless_measurement_ard,77697265-6c65-4737-935f-6d6561737572,rev?*
G04 #@! TF.SameCoordinates,Original*
G04 #@! TF.FileFunction,Copper,L1,Top*
G04 #@! TF.FilePolarity,Positive*
%FSLAX46Y46*%
G04 Gerber Fmt 4.6, Leading zero omitted, Abs format (unit mm)*
G04 Created by KiCad (PCBNEW (5.1.10)-1) date 2021-10-05 14:15:47*
%MOMM*%
%LPD*%
G01*
G04 APERTURE LIST*
G04 #@! TA.AperFunction,SMDPad,CuDef*
%ADD10R,2.000000X0.800000*%
G04 #@! TD*
G04 #@! TA.AperFunction,SMDPad,CuDef*
%ADD11R,0.800000X2.000000*%
G04 #@! TD*
G04 #@! TA.AperFunction,ComponentPad*
%ADD12O,1.700000X1.700000*%
G04 #@! TD*
G04 #@! TA.AperFunction,ComponentPad*
%ADD13R,1.700000X1.700000*%
G04 #@! TD*
G04 #@! TA.AperFunction,ViaPad*
%ADD14C,0.800000*%
G04 #@! TD*
G04 #@! TA.AperFunction,Conductor*
%ADD15C,0.210000*%
G04 #@! TD*
G04 #@! TA.AperFunction,Conductor*
%ADD16C,0.250000*%
G04 #@! TD*
G04 #@! TA.AperFunction,Conductor*
%ADD17C,0.254000*%
G04 #@! TD*
G04 #@! TA.AperFunction,Conductor*
%ADD18C,0.100000*%
G04 #@! TD*
G04 APERTURE END LIST*
D10*
X129923000Y-78570000D03*
X129923000Y-80070000D03*
X129923000Y-81570000D03*
X129923000Y-83070000D03*
X129923000Y-84570000D03*
X129923000Y-86070000D03*
X129923000Y-87570000D03*
D11*
X128823000Y-90890000D03*
X128823000Y-76750000D03*
X127323000Y-76750000D03*
X127323000Y-90890000D03*
X125823000Y-90890000D03*
X125823000Y-76750000D03*
X124323000Y-76750000D03*
X124323000Y-90890000D03*
X122823000Y-90890000D03*
X122823000Y-76750000D03*
X121323000Y-76750000D03*
X121323000Y-90890000D03*
X119823000Y-90890000D03*
X119823000Y-76750000D03*
X118323000Y-76750000D03*
D10*
X129923000Y-89070000D03*
D11*
X118323000Y-90890000D03*
D12*
X137744200Y-84886800D03*
X135204200Y-84886800D03*
X137744200Y-82346800D03*
X135204200Y-82346800D03*
X137744200Y-79806800D03*
X135204200Y-79806800D03*
X137744200Y-77266800D03*
D13*
X135204200Y-77266800D03*
G04 #@! TA.AperFunction,SMDPad,CuDef*
G36*
G01*
X137913300Y-89213700D02*
X137913300Y-88738700D01*
G75*
G02*
X138150800Y-88501200I237500J0D01*
G01*
X138650800Y-88501200D01*
G75*
G02*
X138888300Y-88738700I0J-237500D01*
G01*
X138888300Y-89213700D01*
G75*
G02*
X138650800Y-89451200I-237500J0D01*
G01*
X138150800Y-89451200D01*
G75*
G02*
X137913300Y-89213700I0J237500D01*
G01*
G37*
G04 #@! TD.AperFunction*
G04 #@! TA.AperFunction,SMDPad,CuDef*
G36*
G01*
X136088300Y-89213700D02*
X136088300Y-88738700D01*
G75*
G02*
X136325800Y-88501200I237500J0D01*
G01*
X136825800Y-88501200D01*
G75*
G02*
X137063300Y-88738700I0J-237500D01*
G01*
X137063300Y-89213700D01*
G75*
G02*
X136825800Y-89451200I-237500J0D01*
G01*
X136325800Y-89451200D01*
G75*
G02*
X136088300Y-89213700I0J237500D01*
G01*
G37*
G04 #@! TD.AperFunction*
G04 #@! TA.AperFunction,SMDPad,CuDef*
G36*
G01*
X137887900Y-87638900D02*
X137887900Y-87163900D01*
G75*
G02*
X138125400Y-86926400I237500J0D01*
G01*
X138625400Y-86926400D01*
G75*
G02*
X138862900Y-87163900I0J-237500D01*
G01*
X138862900Y-87638900D01*
G75*
G02*
X138625400Y-87876400I-237500J0D01*
G01*
X138125400Y-87876400D01*
G75*
G02*
X137887900Y-87638900I0J237500D01*
G01*
G37*
G04 #@! TD.AperFunction*
G04 #@! TA.AperFunction,SMDPad,CuDef*
G36*
G01*
X136062900Y-87638900D02*
X136062900Y-87163900D01*
G75*
G02*
X136300400Y-86926400I237500J0D01*
G01*
X136800400Y-86926400D01*
G75*
G02*
X137037900Y-87163900I0J-237500D01*
G01*
X137037900Y-87638900D01*
G75*
G02*
X136800400Y-87876400I-237500J0D01*
G01*
X136300400Y-87876400D01*
G75*
G02*
X136062900Y-87638900I0J237500D01*
G01*
G37*
G04 #@! TD.AperFunction*
G04 #@! TA.AperFunction,SMDPad,CuDef*
G36*
G01*
X134284900Y-87664300D02*
X134284900Y-87189300D01*
G75*
G02*
X134522400Y-86951800I237500J0D01*
G01*
X135022400Y-86951800D01*
G75*
G02*
X135259900Y-87189300I0J-237500D01*
G01*
X135259900Y-87664300D01*
G75*
G02*
X135022400Y-87901800I-237500J0D01*
G01*
X134522400Y-87901800D01*
G75*
G02*
X134284900Y-87664300I0J237500D01*
G01*
G37*
G04 #@! TD.AperFunction*
G04 #@! TA.AperFunction,SMDPad,CuDef*
G36*
G01*
X132459900Y-87664300D02*
X132459900Y-87189300D01*
G75*
G02*
X132697400Y-86951800I237500J0D01*
G01*
X133197400Y-86951800D01*
G75*
G02*
X133434900Y-87189300I0J-237500D01*
G01*
X133434900Y-87664300D01*
G75*
G02*
X133197400Y-87901800I-237500J0D01*
G01*
X132697400Y-87901800D01*
G75*
G02*
X132459900Y-87664300I0J237500D01*
G01*
G37*
G04 #@! TD.AperFunction*
G04 #@! TA.AperFunction,SMDPad,CuDef*
G36*
G01*
X135260800Y-88796150D02*
X135260800Y-89308650D01*
G75*
G02*
X135042050Y-89527400I-218750J0D01*
G01*
X134604550Y-89527400D01*
G75*
G02*
X134385800Y-89308650I0J218750D01*
G01*
X134385800Y-88796150D01*
G75*
G02*
X134604550Y-88577400I218750J0D01*
G01*
X135042050Y-88577400D01*
G75*
G02*
X135260800Y-88796150I0J-218750D01*
G01*
G37*
G04 #@! TD.AperFunction*
G04 #@! TA.AperFunction,SMDPad,CuDef*
G36*
G01*
X133685800Y-88796150D02*
X133685800Y-89308650D01*
G75*
G02*
X133467050Y-89527400I-218750J0D01*
G01*
X133029550Y-89527400D01*
G75*
G02*
X132810800Y-89308650I0J218750D01*
G01*
X132810800Y-88796150D01*
G75*
G02*
X133029550Y-88577400I218750J0D01*
G01*
X133467050Y-88577400D01*
G75*
G02*
X133685800Y-88796150I0J-218750D01*
G01*
G37*
G04 #@! TD.AperFunction*
D14*
X122047000Y-89103200D03*
X122682000Y-81280000D03*
X118110000Y-83058000D03*
X126111000Y-86715600D03*
X120486905Y-78332370D03*
X127778914Y-78658214D03*
X122832115Y-87776234D03*
X133858000Y-85877400D03*
X131870342Y-79924487D03*
X127508000Y-86868000D03*
X119253000Y-83058000D03*
X122275600Y-84810600D03*
X119126000Y-87122000D03*
X119683303Y-79062267D03*
X127799008Y-82530290D03*
X126956288Y-82136914D03*
X126339600Y-80594200D03*
X126314200Y-82956400D03*
X131956569Y-80888895D03*
X120294400Y-83159600D03*
X126644390Y-84161812D03*
X121183400Y-84353400D03*
X127711204Y-83526802D03*
X132061823Y-82054502D03*
X132867400Y-81076800D03*
X119425172Y-79955738D03*
X125777411Y-83800129D03*
D15*
X118323000Y-76750000D02*
X118323000Y-77960000D01*
X118323000Y-77960000D02*
X118695370Y-78332370D01*
X118695370Y-78332370D02*
X120486905Y-78332370D01*
X133654801Y-80848199D02*
X132731089Y-79924487D01*
X132969000Y-82567975D02*
X133654801Y-81882174D01*
X133654801Y-81882174D02*
X133654801Y-80848199D01*
X132969000Y-85902802D02*
X132969000Y-82567975D01*
X134467598Y-87401400D02*
X132969000Y-85902802D01*
X132731089Y-79924487D02*
X131870342Y-79924487D01*
X136550400Y-87401400D02*
X134467598Y-87401400D01*
X118323000Y-87925000D02*
X119126000Y-87122000D01*
X118323000Y-90890000D02*
X118323000Y-87925000D01*
X127739407Y-81353795D02*
X126956288Y-82136914D01*
X127739407Y-79876407D02*
X127739407Y-81353795D01*
X125823000Y-77960000D02*
X127739407Y-79876407D01*
X125823000Y-76750000D02*
X125823000Y-77960000D01*
X123957200Y-80594200D02*
X126339600Y-80594200D01*
X121323000Y-77960000D02*
X123957200Y-80594200D01*
X121323000Y-76750000D02*
X121323000Y-77960000D01*
X126999999Y-80026999D02*
X126999999Y-81167693D01*
X126999999Y-81167693D02*
X126314200Y-81853492D01*
X124323000Y-76750000D02*
X124323000Y-77350000D01*
X124323000Y-77350000D02*
X126999999Y-80026999D01*
X126314200Y-81853492D02*
X126314200Y-82956400D01*
X125823000Y-90890000D02*
X125475999Y-90542999D01*
X131426001Y-85134399D02*
X131426001Y-81419463D01*
X131426001Y-81419463D02*
X131956569Y-80888895D01*
X126872999Y-87172801D02*
X126872999Y-86563199D01*
X126872999Y-86563199D02*
X128142998Y-85293200D01*
X131267200Y-85293200D02*
X131426001Y-85134399D01*
X125823000Y-90890000D02*
X125823000Y-88222800D01*
X128142998Y-85293200D02*
X131267200Y-85293200D01*
X125823000Y-88222800D02*
X126872999Y-87172801D01*
X122966613Y-84561811D02*
X126244391Y-84561811D01*
X121564402Y-83159600D02*
X122966613Y-84561811D01*
X126244391Y-84561811D02*
X126644390Y-84161812D01*
X120294400Y-83159600D02*
X121564402Y-83159600D01*
X127711204Y-84092487D02*
X127711204Y-83526802D01*
X121709916Y-85445601D02*
X126358090Y-85445601D01*
X121183400Y-84353400D02*
X121183400Y-84919085D01*
X121183400Y-84919085D02*
X121709916Y-85445601D01*
X126358090Y-85445601D02*
X127711204Y-84092487D01*
D16*
X136527100Y-89077800D02*
X135026400Y-89077800D01*
D15*
X132061823Y-88881823D02*
X132061823Y-82054502D01*
X132232400Y-89052400D02*
X132061823Y-88881823D01*
X133248300Y-89052400D02*
X132232400Y-89052400D01*
X132867400Y-82188727D02*
X132867400Y-81076800D01*
X132477560Y-82578567D02*
X132867400Y-82188727D01*
X132477560Y-86956960D02*
X132477560Y-82578567D01*
X132947400Y-87426800D02*
X132477560Y-86956960D01*
D16*
X123269563Y-83800129D02*
X125777411Y-83800129D01*
X119425172Y-79955738D02*
X123269563Y-83800129D01*
D17*
X118450000Y-76623000D02*
X118470000Y-76623000D01*
X118470000Y-76877000D01*
X118450000Y-76877000D01*
X118450000Y-78226250D01*
X118608750Y-78385000D01*
X118723000Y-78388072D01*
X118847482Y-78375812D01*
X118931548Y-78350311D01*
X118879366Y-78402493D01*
X118766098Y-78572011D01*
X118688077Y-78760369D01*
X118648303Y-78960328D01*
X118648303Y-79164206D01*
X118665672Y-79251527D01*
X118621235Y-79295964D01*
X118507967Y-79465482D01*
X118429946Y-79653840D01*
X118390172Y-79853799D01*
X118390172Y-80057677D01*
X118429946Y-80257636D01*
X118507967Y-80445994D01*
X118621235Y-80615512D01*
X118765398Y-80759675D01*
X118934916Y-80872943D01*
X119123274Y-80950964D01*
X119323233Y-80990738D01*
X119385371Y-80990738D01*
X120549747Y-82155115D01*
X120396339Y-82124600D01*
X120192461Y-82124600D01*
X119992502Y-82164374D01*
X119860423Y-82219083D01*
X119743256Y-82140795D01*
X119554898Y-82062774D01*
X119354939Y-82023000D01*
X119151061Y-82023000D01*
X118951102Y-82062774D01*
X118762744Y-82140795D01*
X118593226Y-82254063D01*
X118449063Y-82398226D01*
X118335795Y-82567744D01*
X118257774Y-82756102D01*
X118218000Y-82956061D01*
X118218000Y-83159939D01*
X118257774Y-83359898D01*
X118335795Y-83548256D01*
X118449063Y-83717774D01*
X118593226Y-83861937D01*
X118762744Y-83975205D01*
X118951102Y-84053226D01*
X119151061Y-84093000D01*
X119354939Y-84093000D01*
X119554898Y-84053226D01*
X119686977Y-83998517D01*
X119804144Y-84076805D01*
X119992502Y-84154826D01*
X120160957Y-84188333D01*
X120148400Y-84251461D01*
X120148400Y-84455339D01*
X120188174Y-84655298D01*
X120266195Y-84843656D01*
X120379463Y-85013174D01*
X120464414Y-85098125D01*
X120496422Y-85203641D01*
X120565137Y-85332196D01*
X120578621Y-85348626D01*
X120634440Y-85416642D01*
X120634443Y-85416645D01*
X120657611Y-85444875D01*
X120685840Y-85468042D01*
X121160958Y-85943161D01*
X121184126Y-85971391D01*
X121212356Y-85994559D01*
X121212358Y-85994561D01*
X121237013Y-86014794D01*
X121296805Y-86063865D01*
X121414500Y-86126774D01*
X121425360Y-86132579D01*
X121564850Y-86174893D01*
X121580086Y-86176394D01*
X121673569Y-86185601D01*
X121673575Y-86185601D01*
X121709915Y-86189180D01*
X121746255Y-86185601D01*
X126235754Y-86185601D01*
X126186021Y-86278643D01*
X126143707Y-86418134D01*
X126132999Y-86526852D01*
X126132999Y-86526859D01*
X126129420Y-86563199D01*
X126132999Y-86599539D01*
X126132999Y-86866283D01*
X125325440Y-87673843D01*
X125297211Y-87697010D01*
X125274043Y-87725240D01*
X125274040Y-87725243D01*
X125245008Y-87760619D01*
X125204737Y-87809689D01*
X125176173Y-87863128D01*
X125136022Y-87938245D01*
X125093708Y-88077735D01*
X125079421Y-88222800D01*
X125083001Y-88259150D01*
X125083001Y-89351715D01*
X125073000Y-89357061D01*
X124967180Y-89300498D01*
X124847482Y-89264188D01*
X124723000Y-89251928D01*
X123923000Y-89251928D01*
X123798518Y-89264188D01*
X123678820Y-89300498D01*
X123573000Y-89357061D01*
X123467180Y-89300498D01*
X123347482Y-89264188D01*
X123223000Y-89251928D01*
X122423000Y-89251928D01*
X122298518Y-89264188D01*
X122178820Y-89300498D01*
X122073000Y-89357061D01*
X121967180Y-89300498D01*
X121847482Y-89264188D01*
X121723000Y-89251928D01*
X121608750Y-89255000D01*
X121450000Y-89413750D01*
X121450000Y-90763000D01*
X121470000Y-90763000D01*
X121470000Y-91017000D01*
X121450000Y-91017000D01*
X121450000Y-91037000D01*
X121196000Y-91037000D01*
X121196000Y-91017000D01*
X121176000Y-91017000D01*
X121176000Y-90763000D01*
X121196000Y-90763000D01*
X121196000Y-89413750D01*
X121037250Y-89255000D01*
X120923000Y-89251928D01*
X120798518Y-89264188D01*
X120678820Y-89300498D01*
X120573000Y-89357061D01*
X120467180Y-89300498D01*
X120347482Y-89264188D01*
X120223000Y-89251928D01*
X119423000Y-89251928D01*
X119298518Y-89264188D01*
X119178820Y-89300498D01*
X119073000Y-89357061D01*
X119063000Y-89351716D01*
X119063000Y-88231517D01*
X119137517Y-88157000D01*
X119227939Y-88157000D01*
X119427898Y-88117226D01*
X119616256Y-88039205D01*
X119785774Y-87925937D01*
X119929937Y-87781774D01*
X120043205Y-87612256D01*
X120121226Y-87423898D01*
X120161000Y-87223939D01*
X120161000Y-87020061D01*
X120121226Y-86820102D01*
X120043205Y-86631744D01*
X119929937Y-86462226D01*
X119785774Y-86318063D01*
X119616256Y-86204795D01*
X119427898Y-86126774D01*
X119227939Y-86087000D01*
X119024061Y-86087000D01*
X118824102Y-86126774D01*
X118635744Y-86204795D01*
X118466226Y-86318063D01*
X118322063Y-86462226D01*
X118208795Y-86631744D01*
X118130774Y-86820102D01*
X118091000Y-87020061D01*
X118091000Y-87110483D01*
X117825440Y-87376043D01*
X117797211Y-87399210D01*
X117774043Y-87427440D01*
X117774040Y-87427443D01*
X117751821Y-87454517D01*
X117729000Y-87482325D01*
X117729000Y-78354724D01*
X117798518Y-78375812D01*
X117923000Y-78388072D01*
X118037250Y-78385000D01*
X118196000Y-78226250D01*
X118196000Y-76877000D01*
X118176000Y-76877000D01*
X118176000Y-76623000D01*
X118196000Y-76623000D01*
X118196000Y-76603000D01*
X118450000Y-76603000D01*
X118450000Y-76623000D01*
G04 #@! TA.AperFunction,Conductor*
D18*
G36*
X118450000Y-76623000D02*
G01*
X118470000Y-76623000D01*
X118470000Y-76877000D01*
X118450000Y-76877000D01*
X118450000Y-78226250D01*
X118608750Y-78385000D01*
X118723000Y-78388072D01*
X118847482Y-78375812D01*
X118931548Y-78350311D01*
X118879366Y-78402493D01*
X118766098Y-78572011D01*
X118688077Y-78760369D01*
X118648303Y-78960328D01*
X118648303Y-79164206D01*
X118665672Y-79251527D01*
X118621235Y-79295964D01*
X118507967Y-79465482D01*
X118429946Y-79653840D01*
X118390172Y-79853799D01*
X118390172Y-80057677D01*
X118429946Y-80257636D01*
X118507967Y-80445994D01*
X118621235Y-80615512D01*
X118765398Y-80759675D01*
X118934916Y-80872943D01*
X119123274Y-80950964D01*
X119323233Y-80990738D01*
X119385371Y-80990738D01*
X120549747Y-82155115D01*
X120396339Y-82124600D01*
X120192461Y-82124600D01*
X119992502Y-82164374D01*
X119860423Y-82219083D01*
X119743256Y-82140795D01*
X119554898Y-82062774D01*
X119354939Y-82023000D01*
X119151061Y-82023000D01*
X118951102Y-82062774D01*
X118762744Y-82140795D01*
X118593226Y-82254063D01*
X118449063Y-82398226D01*
X118335795Y-82567744D01*
X118257774Y-82756102D01*
X118218000Y-82956061D01*
X118218000Y-83159939D01*
X118257774Y-83359898D01*
X118335795Y-83548256D01*
X118449063Y-83717774D01*
X118593226Y-83861937D01*
X118762744Y-83975205D01*
X118951102Y-84053226D01*
X119151061Y-84093000D01*
X119354939Y-84093000D01*
X119554898Y-84053226D01*
X119686977Y-83998517D01*
X119804144Y-84076805D01*
X119992502Y-84154826D01*
X120160957Y-84188333D01*
X120148400Y-84251461D01*
X120148400Y-84455339D01*
X120188174Y-84655298D01*
X120266195Y-84843656D01*
X120379463Y-85013174D01*
X120464414Y-85098125D01*
X120496422Y-85203641D01*
X120565137Y-85332196D01*
X120578621Y-85348626D01*
X120634440Y-85416642D01*
X120634443Y-85416645D01*
X120657611Y-85444875D01*
X120685840Y-85468042D01*
X121160958Y-85943161D01*
X121184126Y-85971391D01*
X121212356Y-85994559D01*
X121212358Y-85994561D01*
X121237013Y-86014794D01*
X121296805Y-86063865D01*
X121414500Y-86126774D01*
X121425360Y-86132579D01*
X121564850Y-86174893D01*
X121580086Y-86176394D01*
X121673569Y-86185601D01*
X121673575Y-86185601D01*
X121709915Y-86189180D01*
X121746255Y-86185601D01*
X126235754Y-86185601D01*
X126186021Y-86278643D01*
X126143707Y-86418134D01*
X126132999Y-86526852D01*
X126132999Y-86526859D01*
X126129420Y-86563199D01*
X126132999Y-86599539D01*
X126132999Y-86866283D01*
X125325440Y-87673843D01*
X125297211Y-87697010D01*
X125274043Y-87725240D01*
X125274040Y-87725243D01*
X125245008Y-87760619D01*
X125204737Y-87809689D01*
X125176173Y-87863128D01*
X125136022Y-87938245D01*
X125093708Y-88077735D01*
X125079421Y-88222800D01*
X125083001Y-88259150D01*
X125083001Y-89351715D01*
X125073000Y-89357061D01*
X124967180Y-89300498D01*
X124847482Y-89264188D01*
X124723000Y-89251928D01*
X123923000Y-89251928D01*
X123798518Y-89264188D01*
X123678820Y-89300498D01*
X123573000Y-89357061D01*
X123467180Y-89300498D01*
X123347482Y-89264188D01*
X123223000Y-89251928D01*
X122423000Y-89251928D01*
X122298518Y-89264188D01*
X122178820Y-89300498D01*
X122073000Y-89357061D01*
X121967180Y-89300498D01*
X121847482Y-89264188D01*
X121723000Y-89251928D01*
X121608750Y-89255000D01*
X121450000Y-89413750D01*
X121450000Y-90763000D01*
X121470000Y-90763000D01*
X121470000Y-91017000D01*
X121450000Y-91017000D01*
X121450000Y-91037000D01*
X121196000Y-91037000D01*
X121196000Y-91017000D01*
X121176000Y-91017000D01*
X121176000Y-90763000D01*
X121196000Y-90763000D01*
X121196000Y-89413750D01*
X121037250Y-89255000D01*
X120923000Y-89251928D01*
X120798518Y-89264188D01*
X120678820Y-89300498D01*
X120573000Y-89357061D01*
X120467180Y-89300498D01*
X120347482Y-89264188D01*
X120223000Y-89251928D01*
X119423000Y-89251928D01*
X119298518Y-89264188D01*
X119178820Y-89300498D01*
X119073000Y-89357061D01*
X119063000Y-89351716D01*
X119063000Y-88231517D01*
X119137517Y-88157000D01*
X119227939Y-88157000D01*
X119427898Y-88117226D01*
X119616256Y-88039205D01*
X119785774Y-87925937D01*
X119929937Y-87781774D01*
X120043205Y-87612256D01*
X120121226Y-87423898D01*
X120161000Y-87223939D01*
X120161000Y-87020061D01*
X120121226Y-86820102D01*
X120043205Y-86631744D01*
X119929937Y-86462226D01*
X119785774Y-86318063D01*
X119616256Y-86204795D01*
X119427898Y-86126774D01*
X119227939Y-86087000D01*
X119024061Y-86087000D01*
X118824102Y-86126774D01*
X118635744Y-86204795D01*
X118466226Y-86318063D01*
X118322063Y-86462226D01*
X118208795Y-86631744D01*
X118130774Y-86820102D01*
X118091000Y-87020061D01*
X118091000Y-87110483D01*
X117825440Y-87376043D01*
X117797211Y-87399210D01*
X117774043Y-87427440D01*
X117774040Y-87427443D01*
X117751821Y-87454517D01*
X117729000Y-87482325D01*
X117729000Y-78354724D01*
X117798518Y-78375812D01*
X117923000Y-78388072D01*
X118037250Y-78385000D01*
X118196000Y-78226250D01*
X118196000Y-76877000D01*
X118176000Y-76877000D01*
X118176000Y-76623000D01*
X118196000Y-76623000D01*
X118196000Y-76603000D01*
X118450000Y-76603000D01*
X118450000Y-76623000D01*
G37*
G04 #@! TD.AperFunction*
D17*
X139590001Y-89907579D02*
X139473647Y-89791225D01*
X139438960Y-89768048D01*
X139477802Y-89695380D01*
X139514112Y-89575682D01*
X139526372Y-89451200D01*
X139523300Y-89261950D01*
X139364550Y-89103200D01*
X138527800Y-89103200D01*
X138527800Y-89123200D01*
X138273800Y-89123200D01*
X138273800Y-89103200D01*
X138253800Y-89103200D01*
X138253800Y-88849200D01*
X138273800Y-88849200D01*
X138273800Y-88024950D01*
X138248400Y-87999550D01*
X138248400Y-87528400D01*
X138502400Y-87528400D01*
X138502400Y-88352650D01*
X138527800Y-88378050D01*
X138527800Y-88849200D01*
X139364550Y-88849200D01*
X139523300Y-88690450D01*
X139526372Y-88501200D01*
X139514112Y-88376718D01*
X139477802Y-88257020D01*
X139428637Y-88165040D01*
X139452402Y-88120580D01*
X139488712Y-88000882D01*
X139500972Y-87876400D01*
X139497900Y-87687150D01*
X139339150Y-87528400D01*
X138502400Y-87528400D01*
X138248400Y-87528400D01*
X138228400Y-87528400D01*
X138228400Y-87274400D01*
X138248400Y-87274400D01*
X138248400Y-86450150D01*
X138502400Y-86450150D01*
X138502400Y-87274400D01*
X139339150Y-87274400D01*
X139497900Y-87115650D01*
X139500972Y-86926400D01*
X139488712Y-86801918D01*
X139452402Y-86682220D01*
X139393437Y-86571906D01*
X139314085Y-86475215D01*
X139217394Y-86395863D01*
X139107080Y-86336898D01*
X138987382Y-86300588D01*
X138862900Y-86288328D01*
X138661150Y-86291400D01*
X138502400Y-86450150D01*
X138248400Y-86450150D01*
X138119870Y-86321620D01*
X138375452Y-86230957D01*
X138625555Y-86081978D01*
X138841788Y-85887069D01*
X139015841Y-85653720D01*
X139141025Y-85390899D01*
X139185676Y-85243690D01*
X139064355Y-85013800D01*
X137871200Y-85013800D01*
X137871200Y-85033800D01*
X137617200Y-85033800D01*
X137617200Y-85013800D01*
X137597200Y-85013800D01*
X137597200Y-84759800D01*
X137617200Y-84759800D01*
X137617200Y-84739800D01*
X137871200Y-84739800D01*
X137871200Y-84759800D01*
X139064355Y-84759800D01*
X139185676Y-84529910D01*
X139141025Y-84382701D01*
X139015841Y-84119880D01*
X138841788Y-83886531D01*
X138625555Y-83691622D01*
X138508666Y-83621995D01*
X138690832Y-83500275D01*
X138897675Y-83293432D01*
X139060190Y-83050211D01*
X139172132Y-82779958D01*
X139229200Y-82493060D01*
X139229200Y-82200540D01*
X139172132Y-81913642D01*
X139060190Y-81643389D01*
X138897675Y-81400168D01*
X138690832Y-81193325D01*
X138516440Y-81076800D01*
X138690832Y-80960275D01*
X138897675Y-80753432D01*
X139060190Y-80510211D01*
X139172132Y-80239958D01*
X139229200Y-79953060D01*
X139229200Y-79660540D01*
X139172132Y-79373642D01*
X139060190Y-79103389D01*
X138897675Y-78860168D01*
X138690832Y-78653325D01*
X138516440Y-78536800D01*
X138690832Y-78420275D01*
X138897675Y-78213432D01*
X139060190Y-77970211D01*
X139172132Y-77699958D01*
X139229200Y-77413060D01*
X139229200Y-77120540D01*
X139172132Y-76833642D01*
X139060190Y-76563389D01*
X138897675Y-76320168D01*
X138690832Y-76113325D01*
X138447611Y-75950810D01*
X138177358Y-75838868D01*
X137890460Y-75781800D01*
X137597940Y-75781800D01*
X137311042Y-75838868D01*
X137040789Y-75950810D01*
X136797568Y-76113325D01*
X136665713Y-76245180D01*
X136643702Y-76172620D01*
X136584737Y-76062306D01*
X136505385Y-75965615D01*
X136408694Y-75886263D01*
X136298380Y-75827298D01*
X136178682Y-75790988D01*
X136054200Y-75778728D01*
X134354200Y-75778728D01*
X134229718Y-75790988D01*
X134110020Y-75827298D01*
X133999706Y-75886263D01*
X133903015Y-75965615D01*
X133823663Y-76062306D01*
X133764698Y-76172620D01*
X133728388Y-76292318D01*
X133716128Y-76416800D01*
X133716128Y-78116800D01*
X133728388Y-78241282D01*
X133764698Y-78360980D01*
X133823663Y-78471294D01*
X133903015Y-78567985D01*
X133999706Y-78647337D01*
X134110020Y-78706302D01*
X134182580Y-78728313D01*
X134050725Y-78860168D01*
X133888210Y-79103389D01*
X133776268Y-79373642D01*
X133719200Y-79660540D01*
X133719200Y-79866080D01*
X133280051Y-79426932D01*
X133256879Y-79398697D01*
X133144200Y-79306223D01*
X133015645Y-79237509D01*
X132876154Y-79195195D01*
X132767436Y-79184487D01*
X132767429Y-79184487D01*
X132731089Y-79180908D01*
X132694749Y-79184487D01*
X132594053Y-79184487D01*
X132530116Y-79120550D01*
X132360598Y-79007282D01*
X132172240Y-78929261D01*
X131972281Y-78889487D01*
X131768403Y-78889487D01*
X131568444Y-78929261D01*
X131561072Y-78932315D01*
X131561072Y-78170000D01*
X131548812Y-78045518D01*
X131512502Y-77925820D01*
X131453537Y-77815506D01*
X131374185Y-77718815D01*
X131277494Y-77639463D01*
X131167180Y-77580498D01*
X131047482Y-77544188D01*
X130923000Y-77531928D01*
X129861072Y-77531928D01*
X129861072Y-75750000D01*
X129857132Y-75710000D01*
X139590000Y-75710000D01*
X139590001Y-89907579D01*
G04 #@! TA.AperFunction,Conductor*
D18*
G36*
X139590001Y-89907579D02*
G01*
X139473647Y-89791225D01*
X139438960Y-89768048D01*
X139477802Y-89695380D01*
X139514112Y-89575682D01*
X139526372Y-89451200D01*
X139523300Y-89261950D01*
X139364550Y-89103200D01*
X138527800Y-89103200D01*
X138527800Y-89123200D01*
X138273800Y-89123200D01*
X138273800Y-89103200D01*
X138253800Y-89103200D01*
X138253800Y-88849200D01*
X138273800Y-88849200D01*
X138273800Y-88024950D01*
X138248400Y-87999550D01*
X138248400Y-87528400D01*
X138502400Y-87528400D01*
X138502400Y-88352650D01*
X138527800Y-88378050D01*
X138527800Y-88849200D01*
X139364550Y-88849200D01*
X139523300Y-88690450D01*
X139526372Y-88501200D01*
X139514112Y-88376718D01*
X139477802Y-88257020D01*
X139428637Y-88165040D01*
X139452402Y-88120580D01*
X139488712Y-88000882D01*
X139500972Y-87876400D01*
X139497900Y-87687150D01*
X139339150Y-87528400D01*
X138502400Y-87528400D01*
X138248400Y-87528400D01*
X138228400Y-87528400D01*
X138228400Y-87274400D01*
X138248400Y-87274400D01*
X138248400Y-86450150D01*
X138502400Y-86450150D01*
X138502400Y-87274400D01*
X139339150Y-87274400D01*
X139497900Y-87115650D01*
X139500972Y-86926400D01*
X139488712Y-86801918D01*
X139452402Y-86682220D01*
X139393437Y-86571906D01*
X139314085Y-86475215D01*
X139217394Y-86395863D01*
X139107080Y-86336898D01*
X138987382Y-86300588D01*
X138862900Y-86288328D01*
X138661150Y-86291400D01*
X138502400Y-86450150D01*
X138248400Y-86450150D01*
X138119870Y-86321620D01*
X138375452Y-86230957D01*
X138625555Y-86081978D01*
X138841788Y-85887069D01*
X139015841Y-85653720D01*
X139141025Y-85390899D01*
X139185676Y-85243690D01*
X139064355Y-85013800D01*
X137871200Y-85013800D01*
X137871200Y-85033800D01*
X137617200Y-85033800D01*
X137617200Y-85013800D01*
X137597200Y-85013800D01*
X137597200Y-84759800D01*
X137617200Y-84759800D01*
X137617200Y-84739800D01*
X137871200Y-84739800D01*
X137871200Y-84759800D01*
X139064355Y-84759800D01*
X139185676Y-84529910D01*
X139141025Y-84382701D01*
X139015841Y-84119880D01*
X138841788Y-83886531D01*
X138625555Y-83691622D01*
X138508666Y-83621995D01*
X138690832Y-83500275D01*
X138897675Y-83293432D01*
X139060190Y-83050211D01*
X139172132Y-82779958D01*
X139229200Y-82493060D01*
X139229200Y-82200540D01*
X139172132Y-81913642D01*
X139060190Y-81643389D01*
X138897675Y-81400168D01*
X138690832Y-81193325D01*
X138516440Y-81076800D01*
X138690832Y-80960275D01*
X138897675Y-80753432D01*
X139060190Y-80510211D01*
X139172132Y-80239958D01*
X139229200Y-79953060D01*
X139229200Y-79660540D01*
X139172132Y-79373642D01*
X139060190Y-79103389D01*
X138897675Y-78860168D01*
X138690832Y-78653325D01*
X138516440Y-78536800D01*
X138690832Y-78420275D01*
X138897675Y-78213432D01*
X139060190Y-77970211D01*
X139172132Y-77699958D01*
X139229200Y-77413060D01*
X139229200Y-77120540D01*
X139172132Y-76833642D01*
X139060190Y-76563389D01*
X138897675Y-76320168D01*
X138690832Y-76113325D01*
X138447611Y-75950810D01*
X138177358Y-75838868D01*
X137890460Y-75781800D01*
X137597940Y-75781800D01*
X137311042Y-75838868D01*
X137040789Y-75950810D01*
X136797568Y-76113325D01*
X136665713Y-76245180D01*
X136643702Y-76172620D01*
X136584737Y-76062306D01*
X136505385Y-75965615D01*
X136408694Y-75886263D01*
X136298380Y-75827298D01*
X136178682Y-75790988D01*
X136054200Y-75778728D01*
X134354200Y-75778728D01*
X134229718Y-75790988D01*
X134110020Y-75827298D01*
X133999706Y-75886263D01*
X133903015Y-75965615D01*
X133823663Y-76062306D01*
X133764698Y-76172620D01*
X133728388Y-76292318D01*
X133716128Y-76416800D01*
X133716128Y-78116800D01*
X133728388Y-78241282D01*
X133764698Y-78360980D01*
X133823663Y-78471294D01*
X133903015Y-78567985D01*
X133999706Y-78647337D01*
X134110020Y-78706302D01*
X134182580Y-78728313D01*
X134050725Y-78860168D01*
X133888210Y-79103389D01*
X133776268Y-79373642D01*
X133719200Y-79660540D01*
X133719200Y-79866080D01*
X133280051Y-79426932D01*
X133256879Y-79398697D01*
X133144200Y-79306223D01*
X133015645Y-79237509D01*
X132876154Y-79195195D01*
X132767436Y-79184487D01*
X132767429Y-79184487D01*
X132731089Y-79180908D01*
X132694749Y-79184487D01*
X132594053Y-79184487D01*
X132530116Y-79120550D01*
X132360598Y-79007282D01*
X132172240Y-78929261D01*
X131972281Y-78889487D01*
X131768403Y-78889487D01*
X131568444Y-78929261D01*
X131561072Y-78932315D01*
X131561072Y-78170000D01*
X131548812Y-78045518D01*
X131512502Y-77925820D01*
X131453537Y-77815506D01*
X131374185Y-77718815D01*
X131277494Y-77639463D01*
X131167180Y-77580498D01*
X131047482Y-77544188D01*
X130923000Y-77531928D01*
X129861072Y-77531928D01*
X129861072Y-75750000D01*
X129857132Y-75710000D01*
X139590000Y-75710000D01*
X139590001Y-89907579D01*
G37*
G04 #@! TD.AperFunction*
D17*
X133888210Y-83050211D02*
X134050725Y-83293432D01*
X134257568Y-83500275D01*
X134431960Y-83616800D01*
X134257568Y-83733325D01*
X134050725Y-83940168D01*
X133888210Y-84183389D01*
X133776268Y-84453642D01*
X133719200Y-84740540D01*
X133719200Y-85033060D01*
X133776268Y-85319958D01*
X133888210Y-85590211D01*
X134050725Y-85833432D01*
X134257568Y-86040275D01*
X134500789Y-86202790D01*
X134768618Y-86313728D01*
X134522400Y-86313728D01*
X134435047Y-86322332D01*
X133709000Y-85596285D01*
X133709000Y-82874492D01*
X133784254Y-82799238D01*
X133888210Y-83050211D01*
G04 #@! TA.AperFunction,Conductor*
D18*
G36*
X133888210Y-83050211D02*
G01*
X134050725Y-83293432D01*
X134257568Y-83500275D01*
X134431960Y-83616800D01*
X134257568Y-83733325D01*
X134050725Y-83940168D01*
X133888210Y-84183389D01*
X133776268Y-84453642D01*
X133719200Y-84740540D01*
X133719200Y-85033060D01*
X133776268Y-85319958D01*
X133888210Y-85590211D01*
X134050725Y-85833432D01*
X134257568Y-86040275D01*
X134500789Y-86202790D01*
X134768618Y-86313728D01*
X134522400Y-86313728D01*
X134435047Y-86322332D01*
X133709000Y-85596285D01*
X133709000Y-82874492D01*
X133784254Y-82799238D01*
X133888210Y-83050211D01*
G37*
G04 #@! TD.AperFunction*
D17*
X120678820Y-78339502D02*
X120688312Y-78342381D01*
X120704737Y-78373111D01*
X120743444Y-78420275D01*
X120774040Y-78457557D01*
X120774043Y-78457560D01*
X120797211Y-78485790D01*
X120825441Y-78508958D01*
X123408242Y-81091760D01*
X123431410Y-81119990D01*
X123459640Y-81143158D01*
X123459641Y-81143159D01*
X123488099Y-81166514D01*
X123544089Y-81212464D01*
X123672644Y-81281178D01*
X123812135Y-81323492D01*
X123920853Y-81334200D01*
X123920862Y-81334200D01*
X123957199Y-81337779D01*
X123993536Y-81334200D01*
X125615889Y-81334200D01*
X125679826Y-81398137D01*
X125712622Y-81420050D01*
X125695936Y-81440382D01*
X125629729Y-81564246D01*
X125627222Y-81568937D01*
X125586246Y-81704018D01*
X125584908Y-81708428D01*
X125574200Y-81817146D01*
X125574200Y-81817152D01*
X125570621Y-81853492D01*
X125574200Y-81889832D01*
X125574200Y-82232689D01*
X125510263Y-82296626D01*
X125396995Y-82466144D01*
X125318974Y-82654502D01*
X125279200Y-82854461D01*
X125279200Y-82888239D01*
X125117637Y-82996192D01*
X125073700Y-83040129D01*
X123584365Y-83040129D01*
X120460172Y-79915937D01*
X120460172Y-79853799D01*
X120442803Y-79766478D01*
X120487240Y-79722041D01*
X120600508Y-79552523D01*
X120678529Y-79364165D01*
X120718303Y-79164206D01*
X120718303Y-78960328D01*
X120678529Y-78760369D01*
X120600508Y-78572011D01*
X120487240Y-78402493D01*
X120434241Y-78349494D01*
X120467180Y-78339502D01*
X120573000Y-78282939D01*
X120678820Y-78339502D01*
G04 #@! TA.AperFunction,Conductor*
D18*
G36*
X120678820Y-78339502D02*
G01*
X120688312Y-78342381D01*
X120704737Y-78373111D01*
X120743444Y-78420275D01*
X120774040Y-78457557D01*
X120774043Y-78457560D01*
X120797211Y-78485790D01*
X120825441Y-78508958D01*
X123408242Y-81091760D01*
X123431410Y-81119990D01*
X123459640Y-81143158D01*
X123459641Y-81143159D01*
X123488099Y-81166514D01*
X123544089Y-81212464D01*
X123672644Y-81281178D01*
X123812135Y-81323492D01*
X123920853Y-81334200D01*
X123920862Y-81334200D01*
X123957199Y-81337779D01*
X123993536Y-81334200D01*
X125615889Y-81334200D01*
X125679826Y-81398137D01*
X125712622Y-81420050D01*
X125695936Y-81440382D01*
X125629729Y-81564246D01*
X125627222Y-81568937D01*
X125586246Y-81704018D01*
X125584908Y-81708428D01*
X125574200Y-81817146D01*
X125574200Y-81817152D01*
X125570621Y-81853492D01*
X125574200Y-81889832D01*
X125574200Y-82232689D01*
X125510263Y-82296626D01*
X125396995Y-82466144D01*
X125318974Y-82654502D01*
X125279200Y-82854461D01*
X125279200Y-82888239D01*
X125117637Y-82996192D01*
X125073700Y-83040129D01*
X123584365Y-83040129D01*
X120460172Y-79915937D01*
X120460172Y-79853799D01*
X120442803Y-79766478D01*
X120487240Y-79722041D01*
X120600508Y-79552523D01*
X120678529Y-79364165D01*
X120718303Y-79164206D01*
X120718303Y-78960328D01*
X120678529Y-78760369D01*
X120600508Y-78572011D01*
X120487240Y-78402493D01*
X120434241Y-78349494D01*
X120467180Y-78339502D01*
X120573000Y-78282939D01*
X120678820Y-78339502D01*
G37*
G04 #@! TD.AperFunction*
D17*
X128178820Y-78339502D02*
X128284928Y-78371690D01*
X128284928Y-78970000D01*
X128297188Y-79094482D01*
X128333498Y-79214180D01*
X128390061Y-79320000D01*
X128333498Y-79425820D01*
X128331721Y-79431677D01*
X128304656Y-79398697D01*
X128288367Y-79378849D01*
X128288365Y-79378847D01*
X128265197Y-79350617D01*
X128236968Y-79327450D01*
X127297589Y-78388072D01*
X127723000Y-78388072D01*
X127847482Y-78375812D01*
X127967180Y-78339502D01*
X128073000Y-78282939D01*
X128178820Y-78339502D01*
G04 #@! TA.AperFunction,Conductor*
D18*
G36*
X128178820Y-78339502D02*
G01*
X128284928Y-78371690D01*
X128284928Y-78970000D01*
X128297188Y-79094482D01*
X128333498Y-79214180D01*
X128390061Y-79320000D01*
X128333498Y-79425820D01*
X128331721Y-79431677D01*
X128304656Y-79398697D01*
X128288367Y-79378849D01*
X128288365Y-79378847D01*
X128265197Y-79350617D01*
X128236968Y-79327450D01*
X127297589Y-78388072D01*
X127723000Y-78388072D01*
X127847482Y-78375812D01*
X127967180Y-78339502D01*
X128073000Y-78282939D01*
X128178820Y-78339502D01*
G37*
G04 #@! TD.AperFunction*
M02*
