G04 #@! TF.GenerationSoftware,KiCad,Pcbnew,(5.1.10)-1*
G04 #@! TF.CreationDate,2021-09-12T00:39:30-05:00*
G04 #@! TF.ProjectId,wireless_measurement_ard,77697265-6c65-4737-935f-6d6561737572,rev?*
G04 #@! TF.SameCoordinates,Original*
G04 #@! TF.FileFunction,Legend,Bot*
G04 #@! TF.FilePolarity,Positive*
%FSLAX46Y46*%
G04 Gerber Fmt 4.6, Leading zero omitted, Abs format (unit mm)*
G04 Created by KiCad (PCBNEW (5.1.10)-1) date 2021-09-12 00:39:30*
%MOMM*%
%LPD*%
G01*
G04 APERTURE LIST*
%ADD10C,0.300000*%
%ADD11C,0.150000*%
%ADD12C,0.120000*%
%ADD13R,1.400000X0.300000*%
%ADD14O,1.700000X1.700000*%
%ADD15R,1.700000X1.700000*%
%ADD16C,0.900000*%
%ADD17R,1.250000X2.500000*%
%ADD18R,2.900000X2.900000*%
%ADD19R,1.560000X0.650000*%
%ADD20R,3.600000X1.500000*%
G04 APERTURE END LIST*
D10*
X138366571Y-85363857D02*
X139509428Y-85363857D01*
X131381571Y-85236857D02*
X132524428Y-85236857D01*
X131953000Y-84665428D02*
X131953000Y-85808285D01*
D11*
X132927285Y-77366857D02*
X132177285Y-77366857D01*
X132927285Y-78116857D02*
X132927285Y-77688285D01*
X132927285Y-77902571D02*
X132177285Y-77902571D01*
X132284428Y-77831142D01*
X132355857Y-77759714D01*
X132391571Y-77688285D01*
X138400285Y-77168428D02*
X138400285Y-77311285D01*
X138436000Y-77382714D01*
X138507428Y-77454142D01*
X138650285Y-77489857D01*
X138900285Y-77489857D01*
X139043142Y-77454142D01*
X139114571Y-77382714D01*
X139150285Y-77311285D01*
X139150285Y-77168428D01*
X139114571Y-77097000D01*
X139043142Y-77025571D01*
X138900285Y-76989857D01*
X138650285Y-76989857D01*
X138507428Y-77025571D01*
X138436000Y-77097000D01*
X138400285Y-77168428D01*
X139150285Y-78204142D02*
X139150285Y-77775571D01*
X139150285Y-77989857D02*
X138400285Y-77989857D01*
X138507428Y-77918428D01*
X138578857Y-77847000D01*
X138614571Y-77775571D01*
X132713000Y-78839285D02*
X132713000Y-79196428D01*
X132927285Y-78767857D02*
X132177285Y-79017857D01*
X132927285Y-79267857D01*
X132927285Y-79910714D02*
X132927285Y-79482142D01*
X132927285Y-79696428D02*
X132177285Y-79696428D01*
X132284428Y-79625000D01*
X132355857Y-79553571D01*
X132391571Y-79482142D01*
X139205857Y-82177000D02*
X139241571Y-82141285D01*
X139277285Y-82034142D01*
X139277285Y-81962714D01*
X139241571Y-81855571D01*
X139170142Y-81784142D01*
X139098714Y-81748428D01*
X138955857Y-81712714D01*
X138848714Y-81712714D01*
X138705857Y-81748428D01*
X138634428Y-81784142D01*
X138563000Y-81855571D01*
X138527285Y-81962714D01*
X138527285Y-82034142D01*
X138563000Y-82141285D01*
X138598714Y-82177000D01*
X138598714Y-82462714D02*
X138563000Y-82498428D01*
X138527285Y-82569857D01*
X138527285Y-82748428D01*
X138563000Y-82819857D01*
X138598714Y-82855571D01*
X138670142Y-82891285D01*
X138741571Y-82891285D01*
X138848714Y-82855571D01*
X139277285Y-82427000D01*
X139277285Y-82891285D01*
X139277285Y-83212714D02*
X138527285Y-83212714D01*
X138527285Y-83391285D01*
X138563000Y-83498428D01*
X138634428Y-83569857D01*
X138705857Y-83605571D01*
X138848714Y-83641285D01*
X138955857Y-83641285D01*
X139098714Y-83605571D01*
X139170142Y-83569857D01*
X139241571Y-83498428D01*
X139277285Y-83391285D01*
X139277285Y-83212714D01*
X139221714Y-80652857D02*
X138471714Y-80402857D01*
X139221714Y-80152857D01*
X138471714Y-79902857D02*
X139221714Y-79902857D01*
X138864571Y-79902857D02*
X138864571Y-79474285D01*
X138471714Y-79474285D02*
X139221714Y-79474285D01*
X132728857Y-82431000D02*
X132764571Y-82395285D01*
X132800285Y-82288142D01*
X132800285Y-82216714D01*
X132764571Y-82109571D01*
X132693142Y-82038142D01*
X132621714Y-82002428D01*
X132478857Y-81966714D01*
X132371714Y-81966714D01*
X132228857Y-82002428D01*
X132157428Y-82038142D01*
X132086000Y-82109571D01*
X132050285Y-82216714D01*
X132050285Y-82288142D01*
X132086000Y-82395285D01*
X132121714Y-82431000D01*
X132121714Y-82716714D02*
X132086000Y-82752428D01*
X132050285Y-82823857D01*
X132050285Y-83002428D01*
X132086000Y-83073857D01*
X132121714Y-83109571D01*
X132193142Y-83145285D01*
X132264571Y-83145285D01*
X132371714Y-83109571D01*
X132800285Y-82681000D01*
X132800285Y-83145285D01*
X132800285Y-83466714D02*
X132050285Y-83466714D01*
X132800285Y-83895285D02*
X132371714Y-83573857D01*
X132050285Y-83895285D02*
X132478857Y-83466714D01*
D10*
X112235142Y-75537714D02*
X112306571Y-75752000D01*
X112306571Y-76109142D01*
X112235142Y-76252000D01*
X112163714Y-76323428D01*
X112020857Y-76394857D01*
X111878000Y-76394857D01*
X111735142Y-76323428D01*
X111663714Y-76252000D01*
X111592285Y-76109142D01*
X111520857Y-75823428D01*
X111449428Y-75680571D01*
X111378000Y-75609142D01*
X111235142Y-75537714D01*
X111092285Y-75537714D01*
X110949428Y-75609142D01*
X110878000Y-75680571D01*
X110806571Y-75823428D01*
X110806571Y-76180571D01*
X110878000Y-76394857D01*
X110806571Y-76894857D02*
X112306571Y-77252000D01*
X111235142Y-77537714D01*
X112306571Y-77823428D01*
X110806571Y-78180571D01*
X112306571Y-78752000D02*
X110806571Y-78752000D01*
X111878000Y-79252000D01*
X110806571Y-79752000D01*
X112306571Y-79752000D01*
X111735142Y-80466285D02*
X111735142Y-81609142D01*
X111306571Y-82323428D02*
X112306571Y-82323428D01*
X111449428Y-82323428D02*
X111378000Y-82394857D01*
X111306571Y-82537714D01*
X111306571Y-82752000D01*
X111378000Y-82894857D01*
X111520857Y-82966285D01*
X112306571Y-82966285D01*
X112306571Y-84323428D02*
X111520857Y-84323428D01*
X111378000Y-84252000D01*
X111306571Y-84109142D01*
X111306571Y-83823428D01*
X111378000Y-83680571D01*
X112235142Y-84323428D02*
X112306571Y-84180571D01*
X112306571Y-83823428D01*
X112235142Y-83680571D01*
X112092285Y-83609142D01*
X111949428Y-83609142D01*
X111806571Y-83680571D01*
X111735142Y-83823428D01*
X111735142Y-84180571D01*
X111663714Y-84323428D01*
X111306571Y-85037714D02*
X112306571Y-85037714D01*
X111449428Y-85037714D02*
X111378000Y-85109142D01*
X111306571Y-85252000D01*
X111306571Y-85466285D01*
X111378000Y-85609142D01*
X111520857Y-85680571D01*
X112306571Y-85680571D01*
X112306571Y-86609142D02*
X112235142Y-86466285D01*
X112163714Y-86394857D01*
X112020857Y-86323428D01*
X111592285Y-86323428D01*
X111449428Y-86394857D01*
X111378000Y-86466285D01*
X111306571Y-86609142D01*
X111306571Y-86823428D01*
X111378000Y-86966285D01*
X111449428Y-87037714D01*
X111592285Y-87109142D01*
X112020857Y-87109142D01*
X112163714Y-87037714D01*
X112235142Y-86966285D01*
X112306571Y-86823428D01*
X112306571Y-86609142D01*
X113356571Y-75894857D02*
X113356571Y-76180571D01*
X113428000Y-76323428D01*
X113570857Y-76466285D01*
X113856571Y-76537714D01*
X114356571Y-76537714D01*
X114642285Y-76466285D01*
X114785142Y-76323428D01*
X114856571Y-76180571D01*
X114856571Y-75894857D01*
X114785142Y-75752000D01*
X114642285Y-75609142D01*
X114356571Y-75537714D01*
X113856571Y-75537714D01*
X113570857Y-75609142D01*
X113428000Y-75752000D01*
X113356571Y-75894857D01*
X114785142Y-77823428D02*
X114856571Y-77680571D01*
X114856571Y-77394857D01*
X114785142Y-77252000D01*
X114713714Y-77180571D01*
X114570857Y-77109142D01*
X114142285Y-77109142D01*
X113999428Y-77180571D01*
X113928000Y-77252000D01*
X113856571Y-77394857D01*
X113856571Y-77680571D01*
X113928000Y-77823428D01*
X113856571Y-78252000D02*
X113856571Y-78823428D01*
X113356571Y-78466285D02*
X114642285Y-78466285D01*
X114785142Y-78537714D01*
X114856571Y-78680571D01*
X114856571Y-78823428D01*
X113499428Y-80394857D02*
X113428000Y-80466285D01*
X113356571Y-80609142D01*
X113356571Y-80966285D01*
X113428000Y-81109142D01*
X113499428Y-81180571D01*
X113642285Y-81252000D01*
X113785142Y-81252000D01*
X113999428Y-81180571D01*
X114856571Y-80323428D01*
X114856571Y-81252000D01*
X114856571Y-82680571D02*
X114856571Y-81823428D01*
X114856571Y-82252000D02*
X113356571Y-82252000D01*
X113570857Y-82109142D01*
X113713714Y-81966285D01*
X113785142Y-81823428D01*
D11*
X120499000Y-90178000D02*
X120499000Y-89953000D01*
X123849000Y-90178000D02*
X123849000Y-89878000D01*
X123849000Y-86828000D02*
X123849000Y-87128000D01*
X120499000Y-86828000D02*
X120499000Y-87128000D01*
X120499000Y-90178000D02*
X123849000Y-90178000D01*
X120499000Y-86828000D02*
X123849000Y-86828000D01*
X120499000Y-89953000D02*
X119274000Y-89953000D01*
D12*
X123569000Y-83700233D02*
X123569000Y-83992767D01*
X124589000Y-83700233D02*
X124589000Y-83992767D01*
X132182000Y-88734000D02*
X130782000Y-88734000D01*
X130782000Y-88734000D02*
X130782000Y-92534000D01*
X139982000Y-92534000D02*
X139982000Y-88734000D01*
X139982000Y-88734000D02*
X138582000Y-88734000D01*
X133582000Y-88734000D02*
X134682000Y-88734000D01*
X134682000Y-88734000D02*
X134682000Y-88734000D01*
X136082000Y-88734000D02*
X137182000Y-88734000D01*
X137182000Y-88734000D02*
X137182000Y-88734000D01*
X130782000Y-92534000D02*
X132482000Y-92534000D01*
X132482000Y-92534000D02*
X132482000Y-92834000D01*
X132482000Y-92834000D02*
X133282000Y-92834000D01*
X133282000Y-92834000D02*
X133282000Y-92534000D01*
X133282000Y-92534000D02*
X134982000Y-92534000D01*
X134982000Y-92534000D02*
X134982000Y-92834000D01*
X134982000Y-92834000D02*
X135782000Y-92834000D01*
X135782000Y-92834000D02*
X135782000Y-92534000D01*
X135782000Y-92534000D02*
X137482000Y-92534000D01*
X137482000Y-92534000D02*
X137482000Y-92834000D01*
X137482000Y-92834000D02*
X138282000Y-92834000D01*
X138282000Y-92834000D02*
X138282000Y-92534000D01*
X138282000Y-92534000D02*
X139982000Y-92534000D01*
X139982000Y-92534000D02*
X139982000Y-92534000D01*
X137382000Y-94434000D02*
X137382000Y-93934000D01*
X137382000Y-93934000D02*
X137382000Y-93934000D01*
X137382000Y-94434000D02*
X136882000Y-94434000D01*
X136882000Y-94434000D02*
X136882000Y-94434000D01*
X133382000Y-94434000D02*
X133882000Y-94434000D01*
X133882000Y-94434000D02*
X133882000Y-94434000D01*
X133382000Y-94434000D02*
X133382000Y-93934000D01*
X133382000Y-93934000D02*
X133382000Y-93934000D01*
X133382000Y-93634000D02*
X133382000Y-93134000D01*
X133382000Y-93134000D02*
X133382000Y-93134000D01*
X137382000Y-93634000D02*
X137382000Y-93134000D01*
X137382000Y-93134000D02*
X137382000Y-93134000D01*
X136582000Y-94434000D02*
X136082000Y-94434000D01*
X136082000Y-94434000D02*
X136082000Y-94434000D01*
X134182000Y-94434000D02*
X134682000Y-94434000D01*
X134682000Y-94434000D02*
X134682000Y-94434000D01*
X134982000Y-94434000D02*
X135782000Y-94434000D01*
X135782000Y-94434000D02*
X135782000Y-94434000D01*
X122506000Y-79901000D02*
X122506000Y-79551000D01*
X122506000Y-79551000D02*
X122156000Y-79551000D01*
X118286000Y-83421000D02*
X118286000Y-83771000D01*
X118286000Y-83771000D02*
X118636000Y-83771000D01*
X118286000Y-79901000D02*
X118286000Y-79551000D01*
X118286000Y-79551000D02*
X118636000Y-79551000D01*
X122506000Y-83421000D02*
X122506000Y-83771000D01*
X126688000Y-75921000D02*
X129638000Y-75921000D01*
X128488000Y-79141000D02*
X126688000Y-79141000D01*
X129999000Y-92427000D02*
X128974000Y-92427000D01*
X129999000Y-92427000D02*
X129999000Y-91402000D01*
X129999000Y-87657000D02*
X129999000Y-88682000D01*
X129999000Y-87657000D02*
X128974000Y-87657000D01*
X125779000Y-87657000D02*
X126804000Y-87657000D01*
X125779000Y-92427000D02*
X126804000Y-92427000D01*
X125779000Y-87657000D02*
X125779000Y-88682000D01*
X125779000Y-92427000D02*
X125779000Y-91402000D01*
X129285276Y-83072500D02*
X129794724Y-83072500D01*
X129285276Y-82027500D02*
X129794724Y-82027500D01*
X117223000Y-84894267D02*
X117223000Y-84551733D01*
X116203000Y-84894267D02*
X116203000Y-84551733D01*
X115445000Y-84894267D02*
X115445000Y-84551733D01*
X114425000Y-84894267D02*
X114425000Y-84551733D01*
X115441000Y-89984733D02*
X115441000Y-90327267D01*
X116461000Y-89984733D02*
X116461000Y-90327267D01*
X118239000Y-90355267D02*
X118239000Y-90012733D01*
X117219000Y-90355267D02*
X117219000Y-90012733D01*
X123883267Y-90803000D02*
X123540733Y-90803000D01*
X123883267Y-91823000D02*
X123540733Y-91823000D01*
X128846733Y-85473000D02*
X129189267Y-85473000D01*
X128846733Y-84453000D02*
X129189267Y-84453000D01*
X120454267Y-90803000D02*
X120111733Y-90803000D01*
X120454267Y-91823000D02*
X120111733Y-91823000D01*
X128846733Y-87124000D02*
X129189267Y-87124000D01*
X128846733Y-86104000D02*
X129189267Y-86104000D01*
X131939100Y-77785752D02*
X131939100Y-77263248D01*
X130519100Y-77785752D02*
X130519100Y-77263248D01*
D11*
X122916857Y-85219000D02*
X122952571Y-85183285D01*
X122988285Y-85076142D01*
X122988285Y-85004714D01*
X122952571Y-84897571D01*
X122881142Y-84826142D01*
X122809714Y-84790428D01*
X122666857Y-84754714D01*
X122559714Y-84754714D01*
X122416857Y-84790428D01*
X122345428Y-84826142D01*
X122274000Y-84897571D01*
X122238285Y-85004714D01*
X122238285Y-85076142D01*
X122274000Y-85183285D01*
X122309714Y-85219000D01*
X122238285Y-85469000D02*
X122238285Y-85969000D01*
X122988285Y-85647571D01*
X130808000Y-88223285D02*
X131165142Y-88223285D01*
X131165142Y-87473285D01*
X130165142Y-88223285D02*
X130593714Y-88223285D01*
X130379428Y-88223285D02*
X130379428Y-87473285D01*
X130450857Y-87580428D01*
X130522285Y-87651857D01*
X130593714Y-87687571D01*
X129284000Y-81365285D02*
X129534000Y-81008142D01*
X129712571Y-81365285D02*
X129712571Y-80615285D01*
X129426857Y-80615285D01*
X129355428Y-80651000D01*
X129319714Y-80686714D01*
X129284000Y-80758142D01*
X129284000Y-80865285D01*
X129319714Y-80936714D01*
X129355428Y-80972428D01*
X129426857Y-81008142D01*
X129712571Y-81008142D01*
X128641142Y-80615285D02*
X128784000Y-80615285D01*
X128855428Y-80651000D01*
X128891142Y-80686714D01*
X128962571Y-80793857D01*
X128998285Y-80936714D01*
X128998285Y-81222428D01*
X128962571Y-81293857D01*
X128926857Y-81329571D01*
X128855428Y-81365285D01*
X128712571Y-81365285D01*
X128641142Y-81329571D01*
X128605428Y-81293857D01*
X128569714Y-81222428D01*
X128569714Y-81043857D01*
X128605428Y-80972428D01*
X128641142Y-80936714D01*
X128712571Y-80901000D01*
X128855428Y-80901000D01*
X128926857Y-80936714D01*
X128962571Y-80972428D01*
X128998285Y-81043857D01*
X116980857Y-82044000D02*
X117016571Y-82008285D01*
X117052285Y-81901142D01*
X117052285Y-81829714D01*
X117016571Y-81722571D01*
X116945142Y-81651142D01*
X116873714Y-81615428D01*
X116730857Y-81579714D01*
X116623714Y-81579714D01*
X116480857Y-81615428D01*
X116409428Y-81651142D01*
X116338000Y-81722571D01*
X116302285Y-81829714D01*
X116302285Y-81901142D01*
X116338000Y-82008285D01*
X116373714Y-82044000D01*
X116302285Y-82686857D02*
X116302285Y-82544000D01*
X116338000Y-82472571D01*
X116373714Y-82436857D01*
X116480857Y-82365428D01*
X116623714Y-82329714D01*
X116909428Y-82329714D01*
X116980857Y-82365428D01*
X117016571Y-82401142D01*
X117052285Y-82472571D01*
X117052285Y-82615428D01*
X117016571Y-82686857D01*
X116980857Y-82722571D01*
X116909428Y-82758285D01*
X116730857Y-82758285D01*
X116659428Y-82722571D01*
X116623714Y-82686857D01*
X116588000Y-82615428D01*
X116588000Y-82472571D01*
X116623714Y-82401142D01*
X116659428Y-82365428D01*
X116730857Y-82329714D01*
X115202857Y-87124000D02*
X115238571Y-87088285D01*
X115274285Y-86981142D01*
X115274285Y-86909714D01*
X115238571Y-86802571D01*
X115167142Y-86731142D01*
X115095714Y-86695428D01*
X114952857Y-86659714D01*
X114845714Y-86659714D01*
X114702857Y-86695428D01*
X114631428Y-86731142D01*
X114560000Y-86802571D01*
X114524285Y-86909714D01*
X114524285Y-86981142D01*
X114560000Y-87088285D01*
X114595714Y-87124000D01*
X114524285Y-87802571D02*
X114524285Y-87445428D01*
X114881428Y-87409714D01*
X114845714Y-87445428D01*
X114810000Y-87516857D01*
X114810000Y-87695428D01*
X114845714Y-87766857D01*
X114881428Y-87802571D01*
X114952857Y-87838285D01*
X115131428Y-87838285D01*
X115202857Y-87802571D01*
X115238571Y-87766857D01*
X115274285Y-87695428D01*
X115274285Y-87516857D01*
X115238571Y-87445428D01*
X115202857Y-87409714D01*
X114893285Y-90045000D02*
X114536142Y-89795000D01*
X114893285Y-89616428D02*
X114143285Y-89616428D01*
X114143285Y-89902142D01*
X114179000Y-89973571D01*
X114214714Y-90009285D01*
X114286142Y-90045000D01*
X114393285Y-90045000D01*
X114464714Y-90009285D01*
X114500428Y-89973571D01*
X114536142Y-89902142D01*
X114536142Y-89616428D01*
X114143285Y-90723571D02*
X114143285Y-90366428D01*
X114500428Y-90330714D01*
X114464714Y-90366428D01*
X114429000Y-90437857D01*
X114429000Y-90616428D01*
X114464714Y-90687857D01*
X114500428Y-90723571D01*
X114571857Y-90759285D01*
X114750428Y-90759285D01*
X114821857Y-90723571D01*
X114857571Y-90687857D01*
X114893285Y-90616428D01*
X114893285Y-90437857D01*
X114857571Y-90366428D01*
X114821857Y-90330714D01*
X118068285Y-87378000D02*
X117711142Y-87128000D01*
X118068285Y-86949428D02*
X117318285Y-86949428D01*
X117318285Y-87235142D01*
X117354000Y-87306571D01*
X117389714Y-87342285D01*
X117461142Y-87378000D01*
X117568285Y-87378000D01*
X117639714Y-87342285D01*
X117675428Y-87306571D01*
X117711142Y-87235142D01*
X117711142Y-86949428D01*
X117568285Y-88020857D02*
X118068285Y-88020857D01*
X117282571Y-87842285D02*
X117818285Y-87663714D01*
X117818285Y-88128000D01*
X123823000Y-92596857D02*
X123858714Y-92632571D01*
X123965857Y-92668285D01*
X124037285Y-92668285D01*
X124144428Y-92632571D01*
X124215857Y-92561142D01*
X124251571Y-92489714D01*
X124287285Y-92346857D01*
X124287285Y-92239714D01*
X124251571Y-92096857D01*
X124215857Y-92025428D01*
X124144428Y-91954000D01*
X124037285Y-91918285D01*
X123965857Y-91918285D01*
X123858714Y-91954000D01*
X123823000Y-91989714D01*
X123573000Y-91918285D02*
X123108714Y-91918285D01*
X123358714Y-92204000D01*
X123251571Y-92204000D01*
X123180142Y-92239714D01*
X123144428Y-92275428D01*
X123108714Y-92346857D01*
X123108714Y-92525428D01*
X123144428Y-92596857D01*
X123180142Y-92632571D01*
X123251571Y-92668285D01*
X123465857Y-92668285D01*
X123537285Y-92632571D01*
X123573000Y-92596857D01*
X126500142Y-85088000D02*
X126464428Y-85123714D01*
X126428714Y-85230857D01*
X126428714Y-85302285D01*
X126464428Y-85409428D01*
X126535857Y-85480857D01*
X126607285Y-85516571D01*
X126750142Y-85552285D01*
X126857285Y-85552285D01*
X127000142Y-85516571D01*
X127071571Y-85480857D01*
X127143000Y-85409428D01*
X127178714Y-85302285D01*
X127178714Y-85230857D01*
X127143000Y-85123714D01*
X127107285Y-85088000D01*
X127107285Y-84802285D02*
X127143000Y-84766571D01*
X127178714Y-84695142D01*
X127178714Y-84516571D01*
X127143000Y-84445142D01*
X127107285Y-84409428D01*
X127035857Y-84373714D01*
X126964428Y-84373714D01*
X126857285Y-84409428D01*
X126428714Y-84838000D01*
X126428714Y-84373714D01*
X120394000Y-92596857D02*
X120429714Y-92632571D01*
X120536857Y-92668285D01*
X120608285Y-92668285D01*
X120715428Y-92632571D01*
X120786857Y-92561142D01*
X120822571Y-92489714D01*
X120858285Y-92346857D01*
X120858285Y-92239714D01*
X120822571Y-92096857D01*
X120786857Y-92025428D01*
X120715428Y-91954000D01*
X120608285Y-91918285D01*
X120536857Y-91918285D01*
X120429714Y-91954000D01*
X120394000Y-91989714D01*
X119751142Y-92168285D02*
X119751142Y-92668285D01*
X119929714Y-91882571D02*
X120108285Y-92418285D01*
X119644000Y-92418285D01*
X126478142Y-86739000D02*
X126442428Y-86774714D01*
X126406714Y-86881857D01*
X126406714Y-86953285D01*
X126442428Y-87060428D01*
X126513857Y-87131857D01*
X126585285Y-87167571D01*
X126728142Y-87203285D01*
X126835285Y-87203285D01*
X126978142Y-87167571D01*
X127049571Y-87131857D01*
X127121000Y-87060428D01*
X127156714Y-86953285D01*
X127156714Y-86881857D01*
X127121000Y-86774714D01*
X127085285Y-86739000D01*
X126406714Y-86024714D02*
X126406714Y-86453285D01*
X126406714Y-86239000D02*
X127156714Y-86239000D01*
X127049571Y-86310428D01*
X126978142Y-86381857D01*
X126942428Y-86453285D01*
X130895285Y-80012000D02*
X130538142Y-79762000D01*
X130895285Y-79583428D02*
X130145285Y-79583428D01*
X130145285Y-79869142D01*
X130181000Y-79940571D01*
X130216714Y-79976285D01*
X130288142Y-80012000D01*
X130395285Y-80012000D01*
X130466714Y-79976285D01*
X130502428Y-79940571D01*
X130538142Y-79869142D01*
X130538142Y-79583428D01*
X130895285Y-80726285D02*
X130895285Y-80297714D01*
X130895285Y-80512000D02*
X130145285Y-80512000D01*
X130252428Y-80440571D01*
X130323857Y-80369142D01*
X130359571Y-80297714D01*
%LPC*%
D13*
X124374000Y-89503000D03*
X124374000Y-89003000D03*
X124374000Y-88503000D03*
X124374000Y-88003000D03*
X124374000Y-87503000D03*
X119974000Y-87503000D03*
X119974000Y-88003000D03*
X119974000Y-88503000D03*
X119974000Y-89003000D03*
X119974000Y-89503000D03*
D14*
X136779000Y-85217000D03*
X134239000Y-85217000D03*
X136779000Y-82677000D03*
X134239000Y-82677000D03*
X136779000Y-80137000D03*
X134239000Y-80137000D03*
X136779000Y-77597000D03*
D15*
X134239000Y-77597000D03*
G36*
G01*
X123841500Y-84171500D02*
X124316500Y-84171500D01*
G75*
G02*
X124554000Y-84409000I0J-237500D01*
G01*
X124554000Y-85009000D01*
G75*
G02*
X124316500Y-85246500I-237500J0D01*
G01*
X123841500Y-85246500D01*
G75*
G02*
X123604000Y-85009000I0J237500D01*
G01*
X123604000Y-84409000D01*
G75*
G02*
X123841500Y-84171500I237500J0D01*
G01*
G37*
G36*
G01*
X123841500Y-82446500D02*
X124316500Y-82446500D01*
G75*
G02*
X124554000Y-82684000I0J-237500D01*
G01*
X124554000Y-83284000D01*
G75*
G02*
X124316500Y-83521500I-237500J0D01*
G01*
X123841500Y-83521500D01*
G75*
G02*
X123604000Y-83284000I0J237500D01*
G01*
X123604000Y-82684000D01*
G75*
G02*
X123841500Y-82446500I237500J0D01*
G01*
G37*
D16*
X131982000Y-90634000D03*
X138782000Y-90634000D03*
D17*
X132882000Y-87884000D03*
X135382000Y-87884000D03*
X137882000Y-87884000D03*
G36*
G01*
X121846000Y-84011000D02*
X121746000Y-84011000D01*
G75*
G02*
X121696000Y-83961000I0J50000D01*
G01*
X121696000Y-83361000D01*
G75*
G02*
X121746000Y-83311000I50000J0D01*
G01*
X121846000Y-83311000D01*
G75*
G02*
X121896000Y-83361000I0J-50000D01*
G01*
X121896000Y-83961000D01*
G75*
G02*
X121846000Y-84011000I-50000J0D01*
G01*
G37*
G36*
G01*
X121446000Y-84011000D02*
X121346000Y-84011000D01*
G75*
G02*
X121296000Y-83961000I0J50000D01*
G01*
X121296000Y-83361000D01*
G75*
G02*
X121346000Y-83311000I50000J0D01*
G01*
X121446000Y-83311000D01*
G75*
G02*
X121496000Y-83361000I0J-50000D01*
G01*
X121496000Y-83961000D01*
G75*
G02*
X121446000Y-84011000I-50000J0D01*
G01*
G37*
G36*
G01*
X121046000Y-84011000D02*
X120946000Y-84011000D01*
G75*
G02*
X120896000Y-83961000I0J50000D01*
G01*
X120896000Y-83361000D01*
G75*
G02*
X120946000Y-83311000I50000J0D01*
G01*
X121046000Y-83311000D01*
G75*
G02*
X121096000Y-83361000I0J-50000D01*
G01*
X121096000Y-83961000D01*
G75*
G02*
X121046000Y-84011000I-50000J0D01*
G01*
G37*
G36*
G01*
X120646000Y-84011000D02*
X120546000Y-84011000D01*
G75*
G02*
X120496000Y-83961000I0J50000D01*
G01*
X120496000Y-83361000D01*
G75*
G02*
X120546000Y-83311000I50000J0D01*
G01*
X120646000Y-83311000D01*
G75*
G02*
X120696000Y-83361000I0J-50000D01*
G01*
X120696000Y-83961000D01*
G75*
G02*
X120646000Y-84011000I-50000J0D01*
G01*
G37*
G36*
G01*
X120246000Y-84011000D02*
X120146000Y-84011000D01*
G75*
G02*
X120096000Y-83961000I0J50000D01*
G01*
X120096000Y-83361000D01*
G75*
G02*
X120146000Y-83311000I50000J0D01*
G01*
X120246000Y-83311000D01*
G75*
G02*
X120296000Y-83361000I0J-50000D01*
G01*
X120296000Y-83961000D01*
G75*
G02*
X120246000Y-84011000I-50000J0D01*
G01*
G37*
G36*
G01*
X119846000Y-84011000D02*
X119746000Y-84011000D01*
G75*
G02*
X119696000Y-83961000I0J50000D01*
G01*
X119696000Y-83361000D01*
G75*
G02*
X119746000Y-83311000I50000J0D01*
G01*
X119846000Y-83311000D01*
G75*
G02*
X119896000Y-83361000I0J-50000D01*
G01*
X119896000Y-83961000D01*
G75*
G02*
X119846000Y-84011000I-50000J0D01*
G01*
G37*
G36*
G01*
X119446000Y-84011000D02*
X119346000Y-84011000D01*
G75*
G02*
X119296000Y-83961000I0J50000D01*
G01*
X119296000Y-83361000D01*
G75*
G02*
X119346000Y-83311000I50000J0D01*
G01*
X119446000Y-83311000D01*
G75*
G02*
X119496000Y-83361000I0J-50000D01*
G01*
X119496000Y-83961000D01*
G75*
G02*
X119446000Y-84011000I-50000J0D01*
G01*
G37*
G36*
G01*
X119046000Y-84011000D02*
X118946000Y-84011000D01*
G75*
G02*
X118896000Y-83961000I0J50000D01*
G01*
X118896000Y-83361000D01*
G75*
G02*
X118946000Y-83311000I50000J0D01*
G01*
X119046000Y-83311000D01*
G75*
G02*
X119096000Y-83361000I0J-50000D01*
G01*
X119096000Y-83961000D01*
G75*
G02*
X119046000Y-84011000I-50000J0D01*
G01*
G37*
G36*
G01*
X118696000Y-83161000D02*
X118096000Y-83161000D01*
G75*
G02*
X118046000Y-83111000I0J50000D01*
G01*
X118046000Y-83011000D01*
G75*
G02*
X118096000Y-82961000I50000J0D01*
G01*
X118696000Y-82961000D01*
G75*
G02*
X118746000Y-83011000I0J-50000D01*
G01*
X118746000Y-83111000D01*
G75*
G02*
X118696000Y-83161000I-50000J0D01*
G01*
G37*
G36*
G01*
X118696000Y-82761000D02*
X118096000Y-82761000D01*
G75*
G02*
X118046000Y-82711000I0J50000D01*
G01*
X118046000Y-82611000D01*
G75*
G02*
X118096000Y-82561000I50000J0D01*
G01*
X118696000Y-82561000D01*
G75*
G02*
X118746000Y-82611000I0J-50000D01*
G01*
X118746000Y-82711000D01*
G75*
G02*
X118696000Y-82761000I-50000J0D01*
G01*
G37*
G36*
G01*
X118696000Y-82361000D02*
X118096000Y-82361000D01*
G75*
G02*
X118046000Y-82311000I0J50000D01*
G01*
X118046000Y-82211000D01*
G75*
G02*
X118096000Y-82161000I50000J0D01*
G01*
X118696000Y-82161000D01*
G75*
G02*
X118746000Y-82211000I0J-50000D01*
G01*
X118746000Y-82311000D01*
G75*
G02*
X118696000Y-82361000I-50000J0D01*
G01*
G37*
G36*
G01*
X118696000Y-81961000D02*
X118096000Y-81961000D01*
G75*
G02*
X118046000Y-81911000I0J50000D01*
G01*
X118046000Y-81811000D01*
G75*
G02*
X118096000Y-81761000I50000J0D01*
G01*
X118696000Y-81761000D01*
G75*
G02*
X118746000Y-81811000I0J-50000D01*
G01*
X118746000Y-81911000D01*
G75*
G02*
X118696000Y-81961000I-50000J0D01*
G01*
G37*
G36*
G01*
X118696000Y-81561000D02*
X118096000Y-81561000D01*
G75*
G02*
X118046000Y-81511000I0J50000D01*
G01*
X118046000Y-81411000D01*
G75*
G02*
X118096000Y-81361000I50000J0D01*
G01*
X118696000Y-81361000D01*
G75*
G02*
X118746000Y-81411000I0J-50000D01*
G01*
X118746000Y-81511000D01*
G75*
G02*
X118696000Y-81561000I-50000J0D01*
G01*
G37*
G36*
G01*
X118696000Y-81161000D02*
X118096000Y-81161000D01*
G75*
G02*
X118046000Y-81111000I0J50000D01*
G01*
X118046000Y-81011000D01*
G75*
G02*
X118096000Y-80961000I50000J0D01*
G01*
X118696000Y-80961000D01*
G75*
G02*
X118746000Y-81011000I0J-50000D01*
G01*
X118746000Y-81111000D01*
G75*
G02*
X118696000Y-81161000I-50000J0D01*
G01*
G37*
G36*
G01*
X118696000Y-80761000D02*
X118096000Y-80761000D01*
G75*
G02*
X118046000Y-80711000I0J50000D01*
G01*
X118046000Y-80611000D01*
G75*
G02*
X118096000Y-80561000I50000J0D01*
G01*
X118696000Y-80561000D01*
G75*
G02*
X118746000Y-80611000I0J-50000D01*
G01*
X118746000Y-80711000D01*
G75*
G02*
X118696000Y-80761000I-50000J0D01*
G01*
G37*
G36*
G01*
X118696000Y-80361000D02*
X118096000Y-80361000D01*
G75*
G02*
X118046000Y-80311000I0J50000D01*
G01*
X118046000Y-80211000D01*
G75*
G02*
X118096000Y-80161000I50000J0D01*
G01*
X118696000Y-80161000D01*
G75*
G02*
X118746000Y-80211000I0J-50000D01*
G01*
X118746000Y-80311000D01*
G75*
G02*
X118696000Y-80361000I-50000J0D01*
G01*
G37*
G36*
G01*
X119046000Y-80011000D02*
X118946000Y-80011000D01*
G75*
G02*
X118896000Y-79961000I0J50000D01*
G01*
X118896000Y-79361000D01*
G75*
G02*
X118946000Y-79311000I50000J0D01*
G01*
X119046000Y-79311000D01*
G75*
G02*
X119096000Y-79361000I0J-50000D01*
G01*
X119096000Y-79961000D01*
G75*
G02*
X119046000Y-80011000I-50000J0D01*
G01*
G37*
G36*
G01*
X119446000Y-80011000D02*
X119346000Y-80011000D01*
G75*
G02*
X119296000Y-79961000I0J50000D01*
G01*
X119296000Y-79361000D01*
G75*
G02*
X119346000Y-79311000I50000J0D01*
G01*
X119446000Y-79311000D01*
G75*
G02*
X119496000Y-79361000I0J-50000D01*
G01*
X119496000Y-79961000D01*
G75*
G02*
X119446000Y-80011000I-50000J0D01*
G01*
G37*
G36*
G01*
X119846000Y-80011000D02*
X119746000Y-80011000D01*
G75*
G02*
X119696000Y-79961000I0J50000D01*
G01*
X119696000Y-79361000D01*
G75*
G02*
X119746000Y-79311000I50000J0D01*
G01*
X119846000Y-79311000D01*
G75*
G02*
X119896000Y-79361000I0J-50000D01*
G01*
X119896000Y-79961000D01*
G75*
G02*
X119846000Y-80011000I-50000J0D01*
G01*
G37*
G36*
G01*
X120246000Y-80011000D02*
X120146000Y-80011000D01*
G75*
G02*
X120096000Y-79961000I0J50000D01*
G01*
X120096000Y-79361000D01*
G75*
G02*
X120146000Y-79311000I50000J0D01*
G01*
X120246000Y-79311000D01*
G75*
G02*
X120296000Y-79361000I0J-50000D01*
G01*
X120296000Y-79961000D01*
G75*
G02*
X120246000Y-80011000I-50000J0D01*
G01*
G37*
G36*
G01*
X120646000Y-80011000D02*
X120546000Y-80011000D01*
G75*
G02*
X120496000Y-79961000I0J50000D01*
G01*
X120496000Y-79361000D01*
G75*
G02*
X120546000Y-79311000I50000J0D01*
G01*
X120646000Y-79311000D01*
G75*
G02*
X120696000Y-79361000I0J-50000D01*
G01*
X120696000Y-79961000D01*
G75*
G02*
X120646000Y-80011000I-50000J0D01*
G01*
G37*
G36*
G01*
X121046000Y-80011000D02*
X120946000Y-80011000D01*
G75*
G02*
X120896000Y-79961000I0J50000D01*
G01*
X120896000Y-79361000D01*
G75*
G02*
X120946000Y-79311000I50000J0D01*
G01*
X121046000Y-79311000D01*
G75*
G02*
X121096000Y-79361000I0J-50000D01*
G01*
X121096000Y-79961000D01*
G75*
G02*
X121046000Y-80011000I-50000J0D01*
G01*
G37*
G36*
G01*
X121446000Y-80011000D02*
X121346000Y-80011000D01*
G75*
G02*
X121296000Y-79961000I0J50000D01*
G01*
X121296000Y-79361000D01*
G75*
G02*
X121346000Y-79311000I50000J0D01*
G01*
X121446000Y-79311000D01*
G75*
G02*
X121496000Y-79361000I0J-50000D01*
G01*
X121496000Y-79961000D01*
G75*
G02*
X121446000Y-80011000I-50000J0D01*
G01*
G37*
G36*
G01*
X121846000Y-80011000D02*
X121746000Y-80011000D01*
G75*
G02*
X121696000Y-79961000I0J50000D01*
G01*
X121696000Y-79361000D01*
G75*
G02*
X121746000Y-79311000I50000J0D01*
G01*
X121846000Y-79311000D01*
G75*
G02*
X121896000Y-79361000I0J-50000D01*
G01*
X121896000Y-79961000D01*
G75*
G02*
X121846000Y-80011000I-50000J0D01*
G01*
G37*
G36*
G01*
X122696000Y-80361000D02*
X122096000Y-80361000D01*
G75*
G02*
X122046000Y-80311000I0J50000D01*
G01*
X122046000Y-80211000D01*
G75*
G02*
X122096000Y-80161000I50000J0D01*
G01*
X122696000Y-80161000D01*
G75*
G02*
X122746000Y-80211000I0J-50000D01*
G01*
X122746000Y-80311000D01*
G75*
G02*
X122696000Y-80361000I-50000J0D01*
G01*
G37*
G36*
G01*
X122696000Y-80761000D02*
X122096000Y-80761000D01*
G75*
G02*
X122046000Y-80711000I0J50000D01*
G01*
X122046000Y-80611000D01*
G75*
G02*
X122096000Y-80561000I50000J0D01*
G01*
X122696000Y-80561000D01*
G75*
G02*
X122746000Y-80611000I0J-50000D01*
G01*
X122746000Y-80711000D01*
G75*
G02*
X122696000Y-80761000I-50000J0D01*
G01*
G37*
G36*
G01*
X122696000Y-81161000D02*
X122096000Y-81161000D01*
G75*
G02*
X122046000Y-81111000I0J50000D01*
G01*
X122046000Y-81011000D01*
G75*
G02*
X122096000Y-80961000I50000J0D01*
G01*
X122696000Y-80961000D01*
G75*
G02*
X122746000Y-81011000I0J-50000D01*
G01*
X122746000Y-81111000D01*
G75*
G02*
X122696000Y-81161000I-50000J0D01*
G01*
G37*
G36*
G01*
X122696000Y-81561000D02*
X122096000Y-81561000D01*
G75*
G02*
X122046000Y-81511000I0J50000D01*
G01*
X122046000Y-81411000D01*
G75*
G02*
X122096000Y-81361000I50000J0D01*
G01*
X122696000Y-81361000D01*
G75*
G02*
X122746000Y-81411000I0J-50000D01*
G01*
X122746000Y-81511000D01*
G75*
G02*
X122696000Y-81561000I-50000J0D01*
G01*
G37*
G36*
G01*
X122696000Y-81961000D02*
X122096000Y-81961000D01*
G75*
G02*
X122046000Y-81911000I0J50000D01*
G01*
X122046000Y-81811000D01*
G75*
G02*
X122096000Y-81761000I50000J0D01*
G01*
X122696000Y-81761000D01*
G75*
G02*
X122746000Y-81811000I0J-50000D01*
G01*
X122746000Y-81911000D01*
G75*
G02*
X122696000Y-81961000I-50000J0D01*
G01*
G37*
G36*
G01*
X122696000Y-82361000D02*
X122096000Y-82361000D01*
G75*
G02*
X122046000Y-82311000I0J50000D01*
G01*
X122046000Y-82211000D01*
G75*
G02*
X122096000Y-82161000I50000J0D01*
G01*
X122696000Y-82161000D01*
G75*
G02*
X122746000Y-82211000I0J-50000D01*
G01*
X122746000Y-82311000D01*
G75*
G02*
X122696000Y-82361000I-50000J0D01*
G01*
G37*
G36*
G01*
X122696000Y-82761000D02*
X122096000Y-82761000D01*
G75*
G02*
X122046000Y-82711000I0J50000D01*
G01*
X122046000Y-82611000D01*
G75*
G02*
X122096000Y-82561000I50000J0D01*
G01*
X122696000Y-82561000D01*
G75*
G02*
X122746000Y-82611000I0J-50000D01*
G01*
X122746000Y-82711000D01*
G75*
G02*
X122696000Y-82761000I-50000J0D01*
G01*
G37*
G36*
G01*
X122696000Y-83161000D02*
X122096000Y-83161000D01*
G75*
G02*
X122046000Y-83111000I0J50000D01*
G01*
X122046000Y-83011000D01*
G75*
G02*
X122096000Y-82961000I50000J0D01*
G01*
X122696000Y-82961000D01*
G75*
G02*
X122746000Y-83011000I0J-50000D01*
G01*
X122746000Y-83111000D01*
G75*
G02*
X122696000Y-83161000I-50000J0D01*
G01*
G37*
D18*
X120396000Y-81661000D03*
D19*
X126238000Y-77531000D03*
X126238000Y-76581000D03*
X126238000Y-78481000D03*
X128938000Y-78481000D03*
X128938000Y-77531000D03*
X128938000Y-76581000D03*
D20*
X127889000Y-88517000D03*
X127889000Y-91567000D03*
G36*
G01*
X129965000Y-82787500D02*
X129965000Y-82312500D01*
G75*
G02*
X130202500Y-82075000I237500J0D01*
G01*
X130702500Y-82075000D01*
G75*
G02*
X130940000Y-82312500I0J-237500D01*
G01*
X130940000Y-82787500D01*
G75*
G02*
X130702500Y-83025000I-237500J0D01*
G01*
X130202500Y-83025000D01*
G75*
G02*
X129965000Y-82787500I0J237500D01*
G01*
G37*
G36*
G01*
X128140000Y-82787500D02*
X128140000Y-82312500D01*
G75*
G02*
X128377500Y-82075000I237500J0D01*
G01*
X128877500Y-82075000D01*
G75*
G02*
X129115000Y-82312500I0J-237500D01*
G01*
X129115000Y-82787500D01*
G75*
G02*
X128877500Y-83025000I-237500J0D01*
G01*
X128377500Y-83025000D01*
G75*
G02*
X128140000Y-82787500I0J237500D01*
G01*
G37*
G36*
G01*
X116950500Y-84373000D02*
X116475500Y-84373000D01*
G75*
G02*
X116238000Y-84135500I0J237500D01*
G01*
X116238000Y-83560500D01*
G75*
G02*
X116475500Y-83323000I237500J0D01*
G01*
X116950500Y-83323000D01*
G75*
G02*
X117188000Y-83560500I0J-237500D01*
G01*
X117188000Y-84135500D01*
G75*
G02*
X116950500Y-84373000I-237500J0D01*
G01*
G37*
G36*
G01*
X116950500Y-86123000D02*
X116475500Y-86123000D01*
G75*
G02*
X116238000Y-85885500I0J237500D01*
G01*
X116238000Y-85310500D01*
G75*
G02*
X116475500Y-85073000I237500J0D01*
G01*
X116950500Y-85073000D01*
G75*
G02*
X117188000Y-85310500I0J-237500D01*
G01*
X117188000Y-85885500D01*
G75*
G02*
X116950500Y-86123000I-237500J0D01*
G01*
G37*
G36*
G01*
X115172500Y-84373000D02*
X114697500Y-84373000D01*
G75*
G02*
X114460000Y-84135500I0J237500D01*
G01*
X114460000Y-83560500D01*
G75*
G02*
X114697500Y-83323000I237500J0D01*
G01*
X115172500Y-83323000D01*
G75*
G02*
X115410000Y-83560500I0J-237500D01*
G01*
X115410000Y-84135500D01*
G75*
G02*
X115172500Y-84373000I-237500J0D01*
G01*
G37*
G36*
G01*
X115172500Y-86123000D02*
X114697500Y-86123000D01*
G75*
G02*
X114460000Y-85885500I0J237500D01*
G01*
X114460000Y-85310500D01*
G75*
G02*
X114697500Y-85073000I237500J0D01*
G01*
X115172500Y-85073000D01*
G75*
G02*
X115410000Y-85310500I0J-237500D01*
G01*
X115410000Y-85885500D01*
G75*
G02*
X115172500Y-86123000I-237500J0D01*
G01*
G37*
G36*
G01*
X115713500Y-90506000D02*
X116188500Y-90506000D01*
G75*
G02*
X116426000Y-90743500I0J-237500D01*
G01*
X116426000Y-91318500D01*
G75*
G02*
X116188500Y-91556000I-237500J0D01*
G01*
X115713500Y-91556000D01*
G75*
G02*
X115476000Y-91318500I0J237500D01*
G01*
X115476000Y-90743500D01*
G75*
G02*
X115713500Y-90506000I237500J0D01*
G01*
G37*
G36*
G01*
X115713500Y-88756000D02*
X116188500Y-88756000D01*
G75*
G02*
X116426000Y-88993500I0J-237500D01*
G01*
X116426000Y-89568500D01*
G75*
G02*
X116188500Y-89806000I-237500J0D01*
G01*
X115713500Y-89806000D01*
G75*
G02*
X115476000Y-89568500I0J237500D01*
G01*
X115476000Y-88993500D01*
G75*
G02*
X115713500Y-88756000I237500J0D01*
G01*
G37*
G36*
G01*
X117966500Y-89834000D02*
X117491500Y-89834000D01*
G75*
G02*
X117254000Y-89596500I0J237500D01*
G01*
X117254000Y-89021500D01*
G75*
G02*
X117491500Y-88784000I237500J0D01*
G01*
X117966500Y-88784000D01*
G75*
G02*
X118204000Y-89021500I0J-237500D01*
G01*
X118204000Y-89596500D01*
G75*
G02*
X117966500Y-89834000I-237500J0D01*
G01*
G37*
G36*
G01*
X117966500Y-91584000D02*
X117491500Y-91584000D01*
G75*
G02*
X117254000Y-91346500I0J237500D01*
G01*
X117254000Y-90771500D01*
G75*
G02*
X117491500Y-90534000I237500J0D01*
G01*
X117966500Y-90534000D01*
G75*
G02*
X118204000Y-90771500I0J-237500D01*
G01*
X118204000Y-91346500D01*
G75*
G02*
X117966500Y-91584000I-237500J0D01*
G01*
G37*
G36*
G01*
X123362000Y-91075500D02*
X123362000Y-91550500D01*
G75*
G02*
X123124500Y-91788000I-237500J0D01*
G01*
X122549500Y-91788000D01*
G75*
G02*
X122312000Y-91550500I0J237500D01*
G01*
X122312000Y-91075500D01*
G75*
G02*
X122549500Y-90838000I237500J0D01*
G01*
X123124500Y-90838000D01*
G75*
G02*
X123362000Y-91075500I0J-237500D01*
G01*
G37*
G36*
G01*
X125112000Y-91075500D02*
X125112000Y-91550500D01*
G75*
G02*
X124874500Y-91788000I-237500J0D01*
G01*
X124299500Y-91788000D01*
G75*
G02*
X124062000Y-91550500I0J237500D01*
G01*
X124062000Y-91075500D01*
G75*
G02*
X124299500Y-90838000I237500J0D01*
G01*
X124874500Y-90838000D01*
G75*
G02*
X125112000Y-91075500I0J-237500D01*
G01*
G37*
G36*
G01*
X129368000Y-85200500D02*
X129368000Y-84725500D01*
G75*
G02*
X129605500Y-84488000I237500J0D01*
G01*
X130180500Y-84488000D01*
G75*
G02*
X130418000Y-84725500I0J-237500D01*
G01*
X130418000Y-85200500D01*
G75*
G02*
X130180500Y-85438000I-237500J0D01*
G01*
X129605500Y-85438000D01*
G75*
G02*
X129368000Y-85200500I0J237500D01*
G01*
G37*
G36*
G01*
X127618000Y-85200500D02*
X127618000Y-84725500D01*
G75*
G02*
X127855500Y-84488000I237500J0D01*
G01*
X128430500Y-84488000D01*
G75*
G02*
X128668000Y-84725500I0J-237500D01*
G01*
X128668000Y-85200500D01*
G75*
G02*
X128430500Y-85438000I-237500J0D01*
G01*
X127855500Y-85438000D01*
G75*
G02*
X127618000Y-85200500I0J237500D01*
G01*
G37*
G36*
G01*
X119933000Y-91075500D02*
X119933000Y-91550500D01*
G75*
G02*
X119695500Y-91788000I-237500J0D01*
G01*
X119120500Y-91788000D01*
G75*
G02*
X118883000Y-91550500I0J237500D01*
G01*
X118883000Y-91075500D01*
G75*
G02*
X119120500Y-90838000I237500J0D01*
G01*
X119695500Y-90838000D01*
G75*
G02*
X119933000Y-91075500I0J-237500D01*
G01*
G37*
G36*
G01*
X121683000Y-91075500D02*
X121683000Y-91550500D01*
G75*
G02*
X121445500Y-91788000I-237500J0D01*
G01*
X120870500Y-91788000D01*
G75*
G02*
X120633000Y-91550500I0J237500D01*
G01*
X120633000Y-91075500D01*
G75*
G02*
X120870500Y-90838000I237500J0D01*
G01*
X121445500Y-90838000D01*
G75*
G02*
X121683000Y-91075500I0J-237500D01*
G01*
G37*
G36*
G01*
X129368000Y-86851500D02*
X129368000Y-86376500D01*
G75*
G02*
X129605500Y-86139000I237500J0D01*
G01*
X130180500Y-86139000D01*
G75*
G02*
X130418000Y-86376500I0J-237500D01*
G01*
X130418000Y-86851500D01*
G75*
G02*
X130180500Y-87089000I-237500J0D01*
G01*
X129605500Y-87089000D01*
G75*
G02*
X129368000Y-86851500I0J237500D01*
G01*
G37*
G36*
G01*
X127618000Y-86851500D02*
X127618000Y-86376500D01*
G75*
G02*
X127855500Y-86139000I237500J0D01*
G01*
X128430500Y-86139000D01*
G75*
G02*
X128668000Y-86376500I0J-237500D01*
G01*
X128668000Y-86851500D01*
G75*
G02*
X128430500Y-87089000I-237500J0D01*
G01*
X127855500Y-87089000D01*
G75*
G02*
X127618000Y-86851500I0J237500D01*
G01*
G37*
G36*
G01*
X131679101Y-77074500D02*
X130779099Y-77074500D01*
G75*
G02*
X130529100Y-76824501I0J249999D01*
G01*
X130529100Y-76174499D01*
G75*
G02*
X130779099Y-75924500I249999J0D01*
G01*
X131679101Y-75924500D01*
G75*
G02*
X131929100Y-76174499I0J-249999D01*
G01*
X131929100Y-76824501D01*
G75*
G02*
X131679101Y-77074500I-249999J0D01*
G01*
G37*
G36*
G01*
X131679101Y-79124500D02*
X130779099Y-79124500D01*
G75*
G02*
X130529100Y-78874501I0J249999D01*
G01*
X130529100Y-78224499D01*
G75*
G02*
X130779099Y-77974500I249999J0D01*
G01*
X131679101Y-77974500D01*
G75*
G02*
X131929100Y-78224499I0J-249999D01*
G01*
X131929100Y-78874501D01*
G75*
G02*
X131679101Y-79124500I-249999J0D01*
G01*
G37*
M02*
