%TF.GenerationSoftware,KiCad,Pcbnew,(5.1.10)-1*%
%TF.CreationDate,2021-10-03T20:24:18-05:00*%
%TF.ProjectId,wireless_measurement_ard,77697265-6c65-4737-935f-6d6561737572,rev?*%
%TF.SameCoordinates,Original*%
%TF.FileFunction,Paste,Bot*%
%TF.FilePolarity,Positive*%
%FSLAX46Y46*%
G04 Gerber Fmt 4.6, Leading zero omitted, Abs format (unit mm)*
G04 Created by KiCad (PCBNEW (5.1.10)-1) date 2021-10-03 20:24:18*
%MOMM*%
%LPD*%
G01*
G04 APERTURE LIST*
%ADD10C,0.200000*%
%ADD11R,1.250000X2.500000*%
%ADD12R,3.600000X1.500000*%
%ADD13R,1.400000X0.300000*%
G04 APERTURE END LIST*
D10*
%TO.C,U4*%
X131279900Y-78143100D03*
X131279900Y-77793100D03*
X131629900Y-78143100D03*
X131629900Y-77793100D03*
X131979900Y-78143100D03*
X131979900Y-77793100D03*
X132329900Y-78143100D03*
X132329900Y-77793100D03*
%TD*%
%TO.C,R1*%
G36*
G01*
X135019201Y-78128600D02*
X134119199Y-78128600D01*
G75*
G02*
X133869200Y-77878601I0J249999D01*
G01*
X133869200Y-77228599D01*
G75*
G02*
X134119199Y-76978600I249999J0D01*
G01*
X135019201Y-76978600D01*
G75*
G02*
X135269200Y-77228599I0J-249999D01*
G01*
X135269200Y-77878601D01*
G75*
G02*
X135019201Y-78128600I-249999J0D01*
G01*
G37*
G36*
G01*
X135019201Y-80178600D02*
X134119199Y-80178600D01*
G75*
G02*
X133869200Y-79928601I0J249999D01*
G01*
X133869200Y-79278599D01*
G75*
G02*
X134119199Y-79028600I249999J0D01*
G01*
X135019201Y-79028600D01*
G75*
G02*
X135269200Y-79278599I0J-249999D01*
G01*
X135269200Y-79928601D01*
G75*
G02*
X135019201Y-80178600I-249999J0D01*
G01*
G37*
%TD*%
%TO.C,R7*%
G36*
G01*
X128858000Y-79789200D02*
X129333000Y-79789200D01*
G75*
G02*
X129570500Y-80026700I0J-237500D01*
G01*
X129570500Y-80526700D01*
G75*
G02*
X129333000Y-80764200I-237500J0D01*
G01*
X128858000Y-80764200D01*
G75*
G02*
X128620500Y-80526700I0J237500D01*
G01*
X128620500Y-80026700D01*
G75*
G02*
X128858000Y-79789200I237500J0D01*
G01*
G37*
G36*
G01*
X128858000Y-77964200D02*
X129333000Y-77964200D01*
G75*
G02*
X129570500Y-78201700I0J-237500D01*
G01*
X129570500Y-78701700D01*
G75*
G02*
X129333000Y-78939200I-237500J0D01*
G01*
X128858000Y-78939200D01*
G75*
G02*
X128620500Y-78701700I0J237500D01*
G01*
X128620500Y-78201700D01*
G75*
G02*
X128858000Y-77964200I237500J0D01*
G01*
G37*
%TD*%
%TO.C,C7*%
G36*
G01*
X125975000Y-84062500D02*
X125975000Y-84537500D01*
G75*
G02*
X125737500Y-84775000I-237500J0D01*
G01*
X125137500Y-84775000D01*
G75*
G02*
X124900000Y-84537500I0J237500D01*
G01*
X124900000Y-84062500D01*
G75*
G02*
X125137500Y-83825000I237500J0D01*
G01*
X125737500Y-83825000D01*
G75*
G02*
X125975000Y-84062500I0J-237500D01*
G01*
G37*
G36*
G01*
X127700000Y-84062500D02*
X127700000Y-84537500D01*
G75*
G02*
X127462500Y-84775000I-237500J0D01*
G01*
X126862500Y-84775000D01*
G75*
G02*
X126625000Y-84537500I0J237500D01*
G01*
X126625000Y-84062500D01*
G75*
G02*
X126862500Y-83825000I237500J0D01*
G01*
X127462500Y-83825000D01*
G75*
G02*
X127700000Y-84062500I0J-237500D01*
G01*
G37*
%TD*%
D11*
%TO.C,SW1*%
X112562000Y-93008000D03*
X115062000Y-93008000D03*
X117562000Y-93008000D03*
%TD*%
%TO.C,U1*%
G36*
G01*
X122862000Y-86424000D02*
X122762000Y-86424000D01*
G75*
G02*
X122712000Y-86374000I0J50000D01*
G01*
X122712000Y-85774000D01*
G75*
G02*
X122762000Y-85724000I50000J0D01*
G01*
X122862000Y-85724000D01*
G75*
G02*
X122912000Y-85774000I0J-50000D01*
G01*
X122912000Y-86374000D01*
G75*
G02*
X122862000Y-86424000I-50000J0D01*
G01*
G37*
G36*
G01*
X122462000Y-86424000D02*
X122362000Y-86424000D01*
G75*
G02*
X122312000Y-86374000I0J50000D01*
G01*
X122312000Y-85774000D01*
G75*
G02*
X122362000Y-85724000I50000J0D01*
G01*
X122462000Y-85724000D01*
G75*
G02*
X122512000Y-85774000I0J-50000D01*
G01*
X122512000Y-86374000D01*
G75*
G02*
X122462000Y-86424000I-50000J0D01*
G01*
G37*
G36*
G01*
X122062000Y-86424000D02*
X121962000Y-86424000D01*
G75*
G02*
X121912000Y-86374000I0J50000D01*
G01*
X121912000Y-85774000D01*
G75*
G02*
X121962000Y-85724000I50000J0D01*
G01*
X122062000Y-85724000D01*
G75*
G02*
X122112000Y-85774000I0J-50000D01*
G01*
X122112000Y-86374000D01*
G75*
G02*
X122062000Y-86424000I-50000J0D01*
G01*
G37*
G36*
G01*
X121662000Y-86424000D02*
X121562000Y-86424000D01*
G75*
G02*
X121512000Y-86374000I0J50000D01*
G01*
X121512000Y-85774000D01*
G75*
G02*
X121562000Y-85724000I50000J0D01*
G01*
X121662000Y-85724000D01*
G75*
G02*
X121712000Y-85774000I0J-50000D01*
G01*
X121712000Y-86374000D01*
G75*
G02*
X121662000Y-86424000I-50000J0D01*
G01*
G37*
G36*
G01*
X121262000Y-86424000D02*
X121162000Y-86424000D01*
G75*
G02*
X121112000Y-86374000I0J50000D01*
G01*
X121112000Y-85774000D01*
G75*
G02*
X121162000Y-85724000I50000J0D01*
G01*
X121262000Y-85724000D01*
G75*
G02*
X121312000Y-85774000I0J-50000D01*
G01*
X121312000Y-86374000D01*
G75*
G02*
X121262000Y-86424000I-50000J0D01*
G01*
G37*
G36*
G01*
X120862000Y-86424000D02*
X120762000Y-86424000D01*
G75*
G02*
X120712000Y-86374000I0J50000D01*
G01*
X120712000Y-85774000D01*
G75*
G02*
X120762000Y-85724000I50000J0D01*
G01*
X120862000Y-85724000D01*
G75*
G02*
X120912000Y-85774000I0J-50000D01*
G01*
X120912000Y-86374000D01*
G75*
G02*
X120862000Y-86424000I-50000J0D01*
G01*
G37*
G36*
G01*
X120462000Y-86424000D02*
X120362000Y-86424000D01*
G75*
G02*
X120312000Y-86374000I0J50000D01*
G01*
X120312000Y-85774000D01*
G75*
G02*
X120362000Y-85724000I50000J0D01*
G01*
X120462000Y-85724000D01*
G75*
G02*
X120512000Y-85774000I0J-50000D01*
G01*
X120512000Y-86374000D01*
G75*
G02*
X120462000Y-86424000I-50000J0D01*
G01*
G37*
G36*
G01*
X120062000Y-86424000D02*
X119962000Y-86424000D01*
G75*
G02*
X119912000Y-86374000I0J50000D01*
G01*
X119912000Y-85774000D01*
G75*
G02*
X119962000Y-85724000I50000J0D01*
G01*
X120062000Y-85724000D01*
G75*
G02*
X120112000Y-85774000I0J-50000D01*
G01*
X120112000Y-86374000D01*
G75*
G02*
X120062000Y-86424000I-50000J0D01*
G01*
G37*
G36*
G01*
X119712000Y-85574000D02*
X119112000Y-85574000D01*
G75*
G02*
X119062000Y-85524000I0J50000D01*
G01*
X119062000Y-85424000D01*
G75*
G02*
X119112000Y-85374000I50000J0D01*
G01*
X119712000Y-85374000D01*
G75*
G02*
X119762000Y-85424000I0J-50000D01*
G01*
X119762000Y-85524000D01*
G75*
G02*
X119712000Y-85574000I-50000J0D01*
G01*
G37*
G36*
G01*
X119712000Y-85174000D02*
X119112000Y-85174000D01*
G75*
G02*
X119062000Y-85124000I0J50000D01*
G01*
X119062000Y-85024000D01*
G75*
G02*
X119112000Y-84974000I50000J0D01*
G01*
X119712000Y-84974000D01*
G75*
G02*
X119762000Y-85024000I0J-50000D01*
G01*
X119762000Y-85124000D01*
G75*
G02*
X119712000Y-85174000I-50000J0D01*
G01*
G37*
G36*
G01*
X119712000Y-84774000D02*
X119112000Y-84774000D01*
G75*
G02*
X119062000Y-84724000I0J50000D01*
G01*
X119062000Y-84624000D01*
G75*
G02*
X119112000Y-84574000I50000J0D01*
G01*
X119712000Y-84574000D01*
G75*
G02*
X119762000Y-84624000I0J-50000D01*
G01*
X119762000Y-84724000D01*
G75*
G02*
X119712000Y-84774000I-50000J0D01*
G01*
G37*
G36*
G01*
X119712000Y-84374000D02*
X119112000Y-84374000D01*
G75*
G02*
X119062000Y-84324000I0J50000D01*
G01*
X119062000Y-84224000D01*
G75*
G02*
X119112000Y-84174000I50000J0D01*
G01*
X119712000Y-84174000D01*
G75*
G02*
X119762000Y-84224000I0J-50000D01*
G01*
X119762000Y-84324000D01*
G75*
G02*
X119712000Y-84374000I-50000J0D01*
G01*
G37*
G36*
G01*
X119712000Y-83974000D02*
X119112000Y-83974000D01*
G75*
G02*
X119062000Y-83924000I0J50000D01*
G01*
X119062000Y-83824000D01*
G75*
G02*
X119112000Y-83774000I50000J0D01*
G01*
X119712000Y-83774000D01*
G75*
G02*
X119762000Y-83824000I0J-50000D01*
G01*
X119762000Y-83924000D01*
G75*
G02*
X119712000Y-83974000I-50000J0D01*
G01*
G37*
G36*
G01*
X119712000Y-83574000D02*
X119112000Y-83574000D01*
G75*
G02*
X119062000Y-83524000I0J50000D01*
G01*
X119062000Y-83424000D01*
G75*
G02*
X119112000Y-83374000I50000J0D01*
G01*
X119712000Y-83374000D01*
G75*
G02*
X119762000Y-83424000I0J-50000D01*
G01*
X119762000Y-83524000D01*
G75*
G02*
X119712000Y-83574000I-50000J0D01*
G01*
G37*
G36*
G01*
X119712000Y-83174000D02*
X119112000Y-83174000D01*
G75*
G02*
X119062000Y-83124000I0J50000D01*
G01*
X119062000Y-83024000D01*
G75*
G02*
X119112000Y-82974000I50000J0D01*
G01*
X119712000Y-82974000D01*
G75*
G02*
X119762000Y-83024000I0J-50000D01*
G01*
X119762000Y-83124000D01*
G75*
G02*
X119712000Y-83174000I-50000J0D01*
G01*
G37*
G36*
G01*
X119712000Y-82774000D02*
X119112000Y-82774000D01*
G75*
G02*
X119062000Y-82724000I0J50000D01*
G01*
X119062000Y-82624000D01*
G75*
G02*
X119112000Y-82574000I50000J0D01*
G01*
X119712000Y-82574000D01*
G75*
G02*
X119762000Y-82624000I0J-50000D01*
G01*
X119762000Y-82724000D01*
G75*
G02*
X119712000Y-82774000I-50000J0D01*
G01*
G37*
G36*
G01*
X120062000Y-82424000D02*
X119962000Y-82424000D01*
G75*
G02*
X119912000Y-82374000I0J50000D01*
G01*
X119912000Y-81774000D01*
G75*
G02*
X119962000Y-81724000I50000J0D01*
G01*
X120062000Y-81724000D01*
G75*
G02*
X120112000Y-81774000I0J-50000D01*
G01*
X120112000Y-82374000D01*
G75*
G02*
X120062000Y-82424000I-50000J0D01*
G01*
G37*
G36*
G01*
X120462000Y-82424000D02*
X120362000Y-82424000D01*
G75*
G02*
X120312000Y-82374000I0J50000D01*
G01*
X120312000Y-81774000D01*
G75*
G02*
X120362000Y-81724000I50000J0D01*
G01*
X120462000Y-81724000D01*
G75*
G02*
X120512000Y-81774000I0J-50000D01*
G01*
X120512000Y-82374000D01*
G75*
G02*
X120462000Y-82424000I-50000J0D01*
G01*
G37*
G36*
G01*
X120862000Y-82424000D02*
X120762000Y-82424000D01*
G75*
G02*
X120712000Y-82374000I0J50000D01*
G01*
X120712000Y-81774000D01*
G75*
G02*
X120762000Y-81724000I50000J0D01*
G01*
X120862000Y-81724000D01*
G75*
G02*
X120912000Y-81774000I0J-50000D01*
G01*
X120912000Y-82374000D01*
G75*
G02*
X120862000Y-82424000I-50000J0D01*
G01*
G37*
G36*
G01*
X121262000Y-82424000D02*
X121162000Y-82424000D01*
G75*
G02*
X121112000Y-82374000I0J50000D01*
G01*
X121112000Y-81774000D01*
G75*
G02*
X121162000Y-81724000I50000J0D01*
G01*
X121262000Y-81724000D01*
G75*
G02*
X121312000Y-81774000I0J-50000D01*
G01*
X121312000Y-82374000D01*
G75*
G02*
X121262000Y-82424000I-50000J0D01*
G01*
G37*
G36*
G01*
X121662000Y-82424000D02*
X121562000Y-82424000D01*
G75*
G02*
X121512000Y-82374000I0J50000D01*
G01*
X121512000Y-81774000D01*
G75*
G02*
X121562000Y-81724000I50000J0D01*
G01*
X121662000Y-81724000D01*
G75*
G02*
X121712000Y-81774000I0J-50000D01*
G01*
X121712000Y-82374000D01*
G75*
G02*
X121662000Y-82424000I-50000J0D01*
G01*
G37*
G36*
G01*
X122062000Y-82424000D02*
X121962000Y-82424000D01*
G75*
G02*
X121912000Y-82374000I0J50000D01*
G01*
X121912000Y-81774000D01*
G75*
G02*
X121962000Y-81724000I50000J0D01*
G01*
X122062000Y-81724000D01*
G75*
G02*
X122112000Y-81774000I0J-50000D01*
G01*
X122112000Y-82374000D01*
G75*
G02*
X122062000Y-82424000I-50000J0D01*
G01*
G37*
G36*
G01*
X122462000Y-82424000D02*
X122362000Y-82424000D01*
G75*
G02*
X122312000Y-82374000I0J50000D01*
G01*
X122312000Y-81774000D01*
G75*
G02*
X122362000Y-81724000I50000J0D01*
G01*
X122462000Y-81724000D01*
G75*
G02*
X122512000Y-81774000I0J-50000D01*
G01*
X122512000Y-82374000D01*
G75*
G02*
X122462000Y-82424000I-50000J0D01*
G01*
G37*
G36*
G01*
X122862000Y-82424000D02*
X122762000Y-82424000D01*
G75*
G02*
X122712000Y-82374000I0J50000D01*
G01*
X122712000Y-81774000D01*
G75*
G02*
X122762000Y-81724000I50000J0D01*
G01*
X122862000Y-81724000D01*
G75*
G02*
X122912000Y-81774000I0J-50000D01*
G01*
X122912000Y-82374000D01*
G75*
G02*
X122862000Y-82424000I-50000J0D01*
G01*
G37*
G36*
G01*
X123712000Y-82774000D02*
X123112000Y-82774000D01*
G75*
G02*
X123062000Y-82724000I0J50000D01*
G01*
X123062000Y-82624000D01*
G75*
G02*
X123112000Y-82574000I50000J0D01*
G01*
X123712000Y-82574000D01*
G75*
G02*
X123762000Y-82624000I0J-50000D01*
G01*
X123762000Y-82724000D01*
G75*
G02*
X123712000Y-82774000I-50000J0D01*
G01*
G37*
G36*
G01*
X123712000Y-83174000D02*
X123112000Y-83174000D01*
G75*
G02*
X123062000Y-83124000I0J50000D01*
G01*
X123062000Y-83024000D01*
G75*
G02*
X123112000Y-82974000I50000J0D01*
G01*
X123712000Y-82974000D01*
G75*
G02*
X123762000Y-83024000I0J-50000D01*
G01*
X123762000Y-83124000D01*
G75*
G02*
X123712000Y-83174000I-50000J0D01*
G01*
G37*
G36*
G01*
X123712000Y-83574000D02*
X123112000Y-83574000D01*
G75*
G02*
X123062000Y-83524000I0J50000D01*
G01*
X123062000Y-83424000D01*
G75*
G02*
X123112000Y-83374000I50000J0D01*
G01*
X123712000Y-83374000D01*
G75*
G02*
X123762000Y-83424000I0J-50000D01*
G01*
X123762000Y-83524000D01*
G75*
G02*
X123712000Y-83574000I-50000J0D01*
G01*
G37*
G36*
G01*
X123712000Y-83974000D02*
X123112000Y-83974000D01*
G75*
G02*
X123062000Y-83924000I0J50000D01*
G01*
X123062000Y-83824000D01*
G75*
G02*
X123112000Y-83774000I50000J0D01*
G01*
X123712000Y-83774000D01*
G75*
G02*
X123762000Y-83824000I0J-50000D01*
G01*
X123762000Y-83924000D01*
G75*
G02*
X123712000Y-83974000I-50000J0D01*
G01*
G37*
G36*
G01*
X123712000Y-84374000D02*
X123112000Y-84374000D01*
G75*
G02*
X123062000Y-84324000I0J50000D01*
G01*
X123062000Y-84224000D01*
G75*
G02*
X123112000Y-84174000I50000J0D01*
G01*
X123712000Y-84174000D01*
G75*
G02*
X123762000Y-84224000I0J-50000D01*
G01*
X123762000Y-84324000D01*
G75*
G02*
X123712000Y-84374000I-50000J0D01*
G01*
G37*
G36*
G01*
X123712000Y-84774000D02*
X123112000Y-84774000D01*
G75*
G02*
X123062000Y-84724000I0J50000D01*
G01*
X123062000Y-84624000D01*
G75*
G02*
X123112000Y-84574000I50000J0D01*
G01*
X123712000Y-84574000D01*
G75*
G02*
X123762000Y-84624000I0J-50000D01*
G01*
X123762000Y-84724000D01*
G75*
G02*
X123712000Y-84774000I-50000J0D01*
G01*
G37*
G36*
G01*
X123712000Y-85174000D02*
X123112000Y-85174000D01*
G75*
G02*
X123062000Y-85124000I0J50000D01*
G01*
X123062000Y-85024000D01*
G75*
G02*
X123112000Y-84974000I50000J0D01*
G01*
X123712000Y-84974000D01*
G75*
G02*
X123762000Y-85024000I0J-50000D01*
G01*
X123762000Y-85124000D01*
G75*
G02*
X123712000Y-85174000I-50000J0D01*
G01*
G37*
G36*
G01*
X123712000Y-85574000D02*
X123112000Y-85574000D01*
G75*
G02*
X123062000Y-85524000I0J50000D01*
G01*
X123062000Y-85424000D01*
G75*
G02*
X123112000Y-85374000I50000J0D01*
G01*
X123712000Y-85374000D01*
G75*
G02*
X123762000Y-85424000I0J-50000D01*
G01*
X123762000Y-85524000D01*
G75*
G02*
X123712000Y-85574000I-50000J0D01*
G01*
G37*
G36*
G01*
X122472001Y-85384000D02*
X121801999Y-85384000D01*
G75*
G02*
X121552000Y-85134001I0J249999D01*
G01*
X121552000Y-84463999D01*
G75*
G02*
X121801999Y-84214000I249999J0D01*
G01*
X122472001Y-84214000D01*
G75*
G02*
X122722000Y-84463999I0J-249999D01*
G01*
X122722000Y-85134001D01*
G75*
G02*
X122472001Y-85384000I-249999J0D01*
G01*
G37*
G36*
G01*
X121022001Y-85384000D02*
X120351999Y-85384000D01*
G75*
G02*
X120102000Y-85134001I0J249999D01*
G01*
X120102000Y-84463999D01*
G75*
G02*
X120351999Y-84214000I249999J0D01*
G01*
X121022001Y-84214000D01*
G75*
G02*
X121272000Y-84463999I0J-249999D01*
G01*
X121272000Y-85134001D01*
G75*
G02*
X121022001Y-85384000I-249999J0D01*
G01*
G37*
G36*
G01*
X122472001Y-83934000D02*
X121801999Y-83934000D01*
G75*
G02*
X121552000Y-83684001I0J249999D01*
G01*
X121552000Y-83013999D01*
G75*
G02*
X121801999Y-82764000I249999J0D01*
G01*
X122472001Y-82764000D01*
G75*
G02*
X122722000Y-83013999I0J-249999D01*
G01*
X122722000Y-83684001D01*
G75*
G02*
X122472001Y-83934000I-249999J0D01*
G01*
G37*
G36*
G01*
X121022001Y-83934000D02*
X120351999Y-83934000D01*
G75*
G02*
X120102000Y-83684001I0J249999D01*
G01*
X120102000Y-83013999D01*
G75*
G02*
X120351999Y-82764000I249999J0D01*
G01*
X121022001Y-82764000D01*
G75*
G02*
X121272000Y-83013999I0J-249999D01*
G01*
X121272000Y-83684001D01*
G75*
G02*
X121022001Y-83934000I-249999J0D01*
G01*
G37*
%TD*%
%TO.C,R8*%
G36*
G01*
X131377500Y-80039200D02*
X131377500Y-80514200D01*
G75*
G02*
X131140000Y-80751700I-237500J0D01*
G01*
X130640000Y-80751700D01*
G75*
G02*
X130402500Y-80514200I0J237500D01*
G01*
X130402500Y-80039200D01*
G75*
G02*
X130640000Y-79801700I237500J0D01*
G01*
X131140000Y-79801700D01*
G75*
G02*
X131377500Y-80039200I0J-237500D01*
G01*
G37*
G36*
G01*
X133202500Y-80039200D02*
X133202500Y-80514200D01*
G75*
G02*
X132965000Y-80751700I-237500J0D01*
G01*
X132465000Y-80751700D01*
G75*
G02*
X132227500Y-80514200I0J237500D01*
G01*
X132227500Y-80039200D01*
G75*
G02*
X132465000Y-79801700I237500J0D01*
G01*
X132965000Y-79801700D01*
G75*
G02*
X133202500Y-80039200I0J-237500D01*
G01*
G37*
%TD*%
D12*
%TO.C,L1*%
X130810000Y-89155000D03*
X130810000Y-86105000D03*
%TD*%
D13*
%TO.C,U3*%
X127422000Y-91932000D03*
X127422000Y-91432000D03*
X127422000Y-90932000D03*
X127422000Y-90432000D03*
X127422000Y-89932000D03*
X123022000Y-89932000D03*
X123022000Y-90432000D03*
X123022000Y-90932000D03*
X123022000Y-91432000D03*
X123022000Y-91932000D03*
%TD*%
%TO.C,R6*%
G36*
G01*
X125924500Y-93963500D02*
X125924500Y-93488500D01*
G75*
G02*
X126162000Y-93251000I237500J0D01*
G01*
X126662000Y-93251000D01*
G75*
G02*
X126899500Y-93488500I0J-237500D01*
G01*
X126899500Y-93963500D01*
G75*
G02*
X126662000Y-94201000I-237500J0D01*
G01*
X126162000Y-94201000D01*
G75*
G02*
X125924500Y-93963500I0J237500D01*
G01*
G37*
G36*
G01*
X124099500Y-93963500D02*
X124099500Y-93488500D01*
G75*
G02*
X124337000Y-93251000I237500J0D01*
G01*
X124837000Y-93251000D01*
G75*
G02*
X125074500Y-93488500I0J-237500D01*
G01*
X125074500Y-93963500D01*
G75*
G02*
X124837000Y-94201000I-237500J0D01*
G01*
X124337000Y-94201000D01*
G75*
G02*
X124099500Y-93963500I0J237500D01*
G01*
G37*
%TD*%
%TO.C,C6*%
G36*
G01*
X126701000Y-87994500D02*
X126701000Y-87519500D01*
G75*
G02*
X126938500Y-87282000I237500J0D01*
G01*
X127513500Y-87282000D01*
G75*
G02*
X127751000Y-87519500I0J-237500D01*
G01*
X127751000Y-87994500D01*
G75*
G02*
X127513500Y-88232000I-237500J0D01*
G01*
X126938500Y-88232000D01*
G75*
G02*
X126701000Y-87994500I0J237500D01*
G01*
G37*
G36*
G01*
X124951000Y-87994500D02*
X124951000Y-87519500D01*
G75*
G02*
X125188500Y-87282000I237500J0D01*
G01*
X125763500Y-87282000D01*
G75*
G02*
X126001000Y-87519500I0J-237500D01*
G01*
X126001000Y-87994500D01*
G75*
G02*
X125763500Y-88232000I-237500J0D01*
G01*
X125188500Y-88232000D01*
G75*
G02*
X124951000Y-87994500I0J237500D01*
G01*
G37*
%TD*%
%TO.C,C5*%
G36*
G01*
X126701000Y-86216500D02*
X126701000Y-85741500D01*
G75*
G02*
X126938500Y-85504000I237500J0D01*
G01*
X127513500Y-85504000D01*
G75*
G02*
X127751000Y-85741500I0J-237500D01*
G01*
X127751000Y-86216500D01*
G75*
G02*
X127513500Y-86454000I-237500J0D01*
G01*
X126938500Y-86454000D01*
G75*
G02*
X126701000Y-86216500I0J237500D01*
G01*
G37*
G36*
G01*
X124951000Y-86216500D02*
X124951000Y-85741500D01*
G75*
G02*
X125188500Y-85504000I237500J0D01*
G01*
X125763500Y-85504000D01*
G75*
G02*
X126001000Y-85741500I0J-237500D01*
G01*
X126001000Y-86216500D01*
G75*
G02*
X125763500Y-86454000I-237500J0D01*
G01*
X125188500Y-86454000D01*
G75*
G02*
X124951000Y-86216500I0J237500D01*
G01*
G37*
%TD*%
%TO.C,R5*%
G36*
G01*
X121344700Y-91420200D02*
X120869700Y-91420200D01*
G75*
G02*
X120632200Y-91182700I0J237500D01*
G01*
X120632200Y-90607700D01*
G75*
G02*
X120869700Y-90370200I237500J0D01*
G01*
X121344700Y-90370200D01*
G75*
G02*
X121582200Y-90607700I0J-237500D01*
G01*
X121582200Y-91182700D01*
G75*
G02*
X121344700Y-91420200I-237500J0D01*
G01*
G37*
G36*
G01*
X121344700Y-93170200D02*
X120869700Y-93170200D01*
G75*
G02*
X120632200Y-92932700I0J237500D01*
G01*
X120632200Y-92357700D01*
G75*
G02*
X120869700Y-92120200I237500J0D01*
G01*
X121344700Y-92120200D01*
G75*
G02*
X121582200Y-92357700I0J-237500D01*
G01*
X121582200Y-92932700D01*
G75*
G02*
X121344700Y-93170200I-237500J0D01*
G01*
G37*
%TD*%
%TO.C,R4*%
G36*
G01*
X119167900Y-92108800D02*
X119642900Y-92108800D01*
G75*
G02*
X119880400Y-92346300I0J-237500D01*
G01*
X119880400Y-92921300D01*
G75*
G02*
X119642900Y-93158800I-237500J0D01*
G01*
X119167900Y-93158800D01*
G75*
G02*
X118930400Y-92921300I0J237500D01*
G01*
X118930400Y-92346300D01*
G75*
G02*
X119167900Y-92108800I237500J0D01*
G01*
G37*
G36*
G01*
X119167900Y-90358800D02*
X119642900Y-90358800D01*
G75*
G02*
X119880400Y-90596300I0J-237500D01*
G01*
X119880400Y-91171300D01*
G75*
G02*
X119642900Y-91408800I-237500J0D01*
G01*
X119167900Y-91408800D01*
G75*
G02*
X118930400Y-91171300I0J237500D01*
G01*
X118930400Y-90596300D01*
G75*
G02*
X119167900Y-90358800I237500J0D01*
G01*
G37*
%TD*%
%TO.C,C3*%
G36*
G01*
X131334500Y-92566000D02*
X131809500Y-92566000D01*
G75*
G02*
X132047000Y-92803500I0J-237500D01*
G01*
X132047000Y-93378500D01*
G75*
G02*
X131809500Y-93616000I-237500J0D01*
G01*
X131334500Y-93616000D01*
G75*
G02*
X131097000Y-93378500I0J237500D01*
G01*
X131097000Y-92803500D01*
G75*
G02*
X131334500Y-92566000I237500J0D01*
G01*
G37*
G36*
G01*
X131334500Y-90816000D02*
X131809500Y-90816000D01*
G75*
G02*
X132047000Y-91053500I0J-237500D01*
G01*
X132047000Y-91628500D01*
G75*
G02*
X131809500Y-91866000I-237500J0D01*
G01*
X131334500Y-91866000D01*
G75*
G02*
X131097000Y-91628500I0J237500D01*
G01*
X131097000Y-91053500D01*
G75*
G02*
X131334500Y-90816000I237500J0D01*
G01*
G37*
%TD*%
%TO.C,C2*%
G36*
G01*
X119041400Y-88891100D02*
X119041400Y-89366100D01*
G75*
G02*
X118803900Y-89603600I-237500J0D01*
G01*
X118228900Y-89603600D01*
G75*
G02*
X117991400Y-89366100I0J237500D01*
G01*
X117991400Y-88891100D01*
G75*
G02*
X118228900Y-88653600I237500J0D01*
G01*
X118803900Y-88653600D01*
G75*
G02*
X119041400Y-88891100I0J-237500D01*
G01*
G37*
G36*
G01*
X120791400Y-88891100D02*
X120791400Y-89366100D01*
G75*
G02*
X120553900Y-89603600I-237500J0D01*
G01*
X119978900Y-89603600D01*
G75*
G02*
X119741400Y-89366100I0J237500D01*
G01*
X119741400Y-88891100D01*
G75*
G02*
X119978900Y-88653600I237500J0D01*
G01*
X120553900Y-88653600D01*
G75*
G02*
X120791400Y-88891100I0J-237500D01*
G01*
G37*
%TD*%
%TO.C,C4*%
G36*
G01*
X129556500Y-92552000D02*
X130031500Y-92552000D01*
G75*
G02*
X130269000Y-92789500I0J-237500D01*
G01*
X130269000Y-93364500D01*
G75*
G02*
X130031500Y-93602000I-237500J0D01*
G01*
X129556500Y-93602000D01*
G75*
G02*
X129319000Y-93364500I0J237500D01*
G01*
X129319000Y-92789500D01*
G75*
G02*
X129556500Y-92552000I237500J0D01*
G01*
G37*
G36*
G01*
X129556500Y-90802000D02*
X130031500Y-90802000D01*
G75*
G02*
X130269000Y-91039500I0J-237500D01*
G01*
X130269000Y-91614500D01*
G75*
G02*
X130031500Y-91852000I-237500J0D01*
G01*
X129556500Y-91852000D01*
G75*
G02*
X129319000Y-91614500I0J237500D01*
G01*
X129319000Y-91039500D01*
G75*
G02*
X129556500Y-90802000I237500J0D01*
G01*
G37*
%TD*%
%TO.C,C1*%
G36*
G01*
X119044000Y-87316300D02*
X119044000Y-87791300D01*
G75*
G02*
X118806500Y-88028800I-237500J0D01*
G01*
X118231500Y-88028800D01*
G75*
G02*
X117994000Y-87791300I0J237500D01*
G01*
X117994000Y-87316300D01*
G75*
G02*
X118231500Y-87078800I237500J0D01*
G01*
X118806500Y-87078800D01*
G75*
G02*
X119044000Y-87316300I0J-237500D01*
G01*
G37*
G36*
G01*
X120794000Y-87316300D02*
X120794000Y-87791300D01*
G75*
G02*
X120556500Y-88028800I-237500J0D01*
G01*
X119981500Y-88028800D01*
G75*
G02*
X119744000Y-87791300I0J237500D01*
G01*
X119744000Y-87316300D01*
G75*
G02*
X119981500Y-87078800I237500J0D01*
G01*
X120556500Y-87078800D01*
G75*
G02*
X120794000Y-87316300I0J-237500D01*
G01*
G37*
%TD*%
M02*
