%TF.GenerationSoftware,KiCad,Pcbnew,(5.1.10-1-10_14)*%
%TF.CreationDate,2021-08-31T12:45:11-05:00*%
%TF.ProjectId,wireless_measurement_ard,77697265-6c65-4737-935f-6d6561737572,rev?*%
%TF.SameCoordinates,Original*%
%TF.FileFunction,Paste,Top*%
%TF.FilePolarity,Positive*%
%FSLAX46Y46*%
G04 Gerber Fmt 4.6, Leading zero omitted, Abs format (unit mm)*
G04 Created by KiCad (PCBNEW (5.1.10-1-10_14)) date 2021-08-31 12:45:11*
%MOMM*%
%LPD*%
G01*
G04 APERTURE LIST*
%ADD10R,2.000000X0.800000*%
%ADD11R,0.800000X2.000000*%
G04 APERTURE END LIST*
D10*
%TO.C,U2*%
X129796000Y-78570000D03*
X129796000Y-80070000D03*
X129796000Y-81570000D03*
X129796000Y-83070000D03*
X129796000Y-84570000D03*
X129796000Y-86070000D03*
X129796000Y-87570000D03*
D11*
X128696000Y-90890000D03*
X128696000Y-76750000D03*
X127196000Y-76750000D03*
X127196000Y-90890000D03*
X125696000Y-90890000D03*
X125696000Y-76750000D03*
X124196000Y-76750000D03*
X124196000Y-90890000D03*
X122696000Y-90890000D03*
X122696000Y-76750000D03*
X121196000Y-76750000D03*
X121196000Y-90890000D03*
X119696000Y-90890000D03*
X119696000Y-76750000D03*
X118196000Y-76750000D03*
D10*
X129796000Y-89070000D03*
D11*
X118196000Y-90890000D03*
%TD*%
%TO.C,R8*%
G36*
G01*
X134044700Y-84663100D02*
X133569700Y-84663100D01*
G75*
G02*
X133332200Y-84425600I0J237500D01*
G01*
X133332200Y-83925600D01*
G75*
G02*
X133569700Y-83688100I237500J0D01*
G01*
X134044700Y-83688100D01*
G75*
G02*
X134282200Y-83925600I0J-237500D01*
G01*
X134282200Y-84425600D01*
G75*
G02*
X134044700Y-84663100I-237500J0D01*
G01*
G37*
G36*
G01*
X134044700Y-86488100D02*
X133569700Y-86488100D01*
G75*
G02*
X133332200Y-86250600I0J237500D01*
G01*
X133332200Y-85750600D01*
G75*
G02*
X133569700Y-85513100I237500J0D01*
G01*
X134044700Y-85513100D01*
G75*
G02*
X134282200Y-85750600I0J-237500D01*
G01*
X134282200Y-86250600D01*
G75*
G02*
X134044700Y-86488100I-237500J0D01*
G01*
G37*
%TD*%
%TO.C,R7*%
G36*
G01*
X134095500Y-88424200D02*
X133620500Y-88424200D01*
G75*
G02*
X133383000Y-88186700I0J237500D01*
G01*
X133383000Y-87686700D01*
G75*
G02*
X133620500Y-87449200I237500J0D01*
G01*
X134095500Y-87449200D01*
G75*
G02*
X134333000Y-87686700I0J-237500D01*
G01*
X134333000Y-88186700D01*
G75*
G02*
X134095500Y-88424200I-237500J0D01*
G01*
G37*
G36*
G01*
X134095500Y-90249200D02*
X133620500Y-90249200D01*
G75*
G02*
X133383000Y-90011700I0J237500D01*
G01*
X133383000Y-89511700D01*
G75*
G02*
X133620500Y-89274200I237500J0D01*
G01*
X134095500Y-89274200D01*
G75*
G02*
X134333000Y-89511700I0J-237500D01*
G01*
X134333000Y-90011700D01*
G75*
G02*
X134095500Y-90249200I-237500J0D01*
G01*
G37*
%TD*%
%TO.C,D1*%
G36*
G01*
X134575000Y-76705750D02*
X134575000Y-77218250D01*
G75*
G02*
X134356250Y-77437000I-218750J0D01*
G01*
X133918750Y-77437000D01*
G75*
G02*
X133700000Y-77218250I0J218750D01*
G01*
X133700000Y-76705750D01*
G75*
G02*
X133918750Y-76487000I218750J0D01*
G01*
X134356250Y-76487000D01*
G75*
G02*
X134575000Y-76705750I0J-218750D01*
G01*
G37*
G36*
G01*
X133000000Y-76705750D02*
X133000000Y-77218250D01*
G75*
G02*
X132781250Y-77437000I-218750J0D01*
G01*
X132343750Y-77437000D01*
G75*
G02*
X132125000Y-77218250I0J218750D01*
G01*
X132125000Y-76705750D01*
G75*
G02*
X132343750Y-76487000I218750J0D01*
G01*
X132781250Y-76487000D01*
G75*
G02*
X133000000Y-76705750I0J-218750D01*
G01*
G37*
%TD*%
%TO.C,R3*%
G36*
G01*
X133239500Y-78215000D02*
X133714500Y-78215000D01*
G75*
G02*
X133952000Y-78452500I0J-237500D01*
G01*
X133952000Y-79027500D01*
G75*
G02*
X133714500Y-79265000I-237500J0D01*
G01*
X133239500Y-79265000D01*
G75*
G02*
X133002000Y-79027500I0J237500D01*
G01*
X133002000Y-78452500D01*
G75*
G02*
X133239500Y-78215000I237500J0D01*
G01*
G37*
G36*
G01*
X133239500Y-79965000D02*
X133714500Y-79965000D01*
G75*
G02*
X133952000Y-80202500I0J-237500D01*
G01*
X133952000Y-80777500D01*
G75*
G02*
X133714500Y-81015000I-237500J0D01*
G01*
X133239500Y-81015000D01*
G75*
G02*
X133002000Y-80777500I0J237500D01*
G01*
X133002000Y-80202500D01*
G75*
G02*
X133239500Y-79965000I237500J0D01*
G01*
G37*
%TD*%
M02*
