G04 #@! TF.GenerationSoftware,KiCad,Pcbnew,(5.1.10)-1*
G04 #@! TF.CreationDate,2021-10-05T14:15:47-05:00*
G04 #@! TF.ProjectId,wireless_measurement_ard,77697265-6c65-4737-935f-6d6561737572,rev?*
G04 #@! TF.SameCoordinates,Original*
G04 #@! TF.FileFunction,Legend,Top*
G04 #@! TF.FilePolarity,Positive*
%FSLAX46Y46*%
G04 Gerber Fmt 4.6, Leading zero omitted, Abs format (unit mm)*
G04 Created by KiCad (PCBNEW (5.1.10)-1) date 2021-10-05 14:15:47*
%MOMM*%
%LPD*%
G01*
G04 APERTURE LIST*
%ADD10C,0.250000*%
%ADD11C,0.300000*%
%ADD12C,0.150000*%
%ADD13C,0.120000*%
%ADD14O,1.700000X1.700000*%
%ADD15R,1.700000X1.700000*%
%ADD16C,0.900000*%
G04 APERTURE END LIST*
D10*
X132753409Y-91171780D02*
X132943885Y-91171780D01*
X133039123Y-91219400D01*
X133134361Y-91314638D01*
X133181980Y-91505114D01*
X133181980Y-91838447D01*
X133134361Y-92028923D01*
X133039123Y-92124161D01*
X132943885Y-92171780D01*
X132753409Y-92171780D01*
X132658171Y-92124161D01*
X132562933Y-92028923D01*
X132515314Y-91838447D01*
X132515314Y-91505114D01*
X132562933Y-91314638D01*
X132658171Y-91219400D01*
X132753409Y-91171780D01*
X133943885Y-91647971D02*
X133610552Y-91647971D01*
X133610552Y-92171780D02*
X133610552Y-91171780D01*
X134086742Y-91171780D01*
X134801028Y-91647971D02*
X134467695Y-91647971D01*
X134467695Y-92171780D02*
X134467695Y-91171780D01*
X134943885Y-91171780D01*
X135562933Y-92505114D02*
X135562933Y-91076542D01*
X136467695Y-91171780D02*
X136658171Y-91171780D01*
X136753409Y-91219400D01*
X136848647Y-91314638D01*
X136896266Y-91505114D01*
X136896266Y-91838447D01*
X136848647Y-92028923D01*
X136753409Y-92124161D01*
X136658171Y-92171780D01*
X136467695Y-92171780D01*
X136372457Y-92124161D01*
X136277219Y-92028923D01*
X136229600Y-91838447D01*
X136229600Y-91505114D01*
X136277219Y-91314638D01*
X136372457Y-91219400D01*
X136467695Y-91171780D01*
X137324838Y-92171780D02*
X137324838Y-91171780D01*
X137896266Y-92171780D01*
X137896266Y-91171780D01*
D11*
X139077771Y-85019342D02*
X140220628Y-85019342D01*
X132245171Y-84917742D02*
X133388028Y-84917742D01*
X132816600Y-85489171D02*
X132816600Y-84346314D01*
D12*
X133232085Y-77623942D02*
X132482085Y-77623942D01*
X133232085Y-76873942D02*
X133232085Y-77302514D01*
X133232085Y-77088228D02*
X132482085Y-77088228D01*
X132589228Y-77159657D01*
X132660657Y-77231085D01*
X132696371Y-77302514D01*
X139263885Y-77669971D02*
X139263885Y-77527114D01*
X139299600Y-77455685D01*
X139371028Y-77384257D01*
X139513885Y-77348542D01*
X139763885Y-77348542D01*
X139906742Y-77384257D01*
X139978171Y-77455685D01*
X140013885Y-77527114D01*
X140013885Y-77669971D01*
X139978171Y-77741400D01*
X139906742Y-77812828D01*
X139763885Y-77848542D01*
X139513885Y-77848542D01*
X139371028Y-77812828D01*
X139299600Y-77741400D01*
X139263885Y-77669971D01*
X140013885Y-76634257D02*
X140013885Y-77062828D01*
X140013885Y-76848542D02*
X139263885Y-76848542D01*
X139371028Y-76919971D01*
X139442457Y-76991400D01*
X139478171Y-77062828D01*
X133068600Y-80367914D02*
X133068600Y-80010771D01*
X133282885Y-80439342D02*
X132532885Y-80189342D01*
X133282885Y-79939342D01*
X133282885Y-79296485D02*
X133282885Y-79725057D01*
X133282885Y-79510771D02*
X132532885Y-79510771D01*
X132640028Y-79582200D01*
X132711457Y-79653628D01*
X132747171Y-79725057D01*
X139993257Y-82872200D02*
X140028971Y-82907914D01*
X140064685Y-83015057D01*
X140064685Y-83086485D01*
X140028971Y-83193628D01*
X139957542Y-83265057D01*
X139886114Y-83300771D01*
X139743257Y-83336485D01*
X139636114Y-83336485D01*
X139493257Y-83300771D01*
X139421828Y-83265057D01*
X139350400Y-83193628D01*
X139314685Y-83086485D01*
X139314685Y-83015057D01*
X139350400Y-82907914D01*
X139386114Y-82872200D01*
X139386114Y-82586485D02*
X139350400Y-82550771D01*
X139314685Y-82479342D01*
X139314685Y-82300771D01*
X139350400Y-82229342D01*
X139386114Y-82193628D01*
X139457542Y-82157914D01*
X139528971Y-82157914D01*
X139636114Y-82193628D01*
X140064685Y-82622200D01*
X140064685Y-82157914D01*
X140064685Y-81836485D02*
X139314685Y-81836485D01*
X139314685Y-81657914D01*
X139350400Y-81550771D01*
X139421828Y-81479342D01*
X139493257Y-81443628D01*
X139636114Y-81407914D01*
X139743257Y-81407914D01*
X139886114Y-81443628D01*
X139957542Y-81479342D01*
X140028971Y-81550771D01*
X140064685Y-81657914D01*
X140064685Y-81836485D01*
X140013885Y-80367914D02*
X139263885Y-80367914D01*
X139621028Y-80367914D02*
X139621028Y-79939342D01*
X140013885Y-79939342D02*
X139263885Y-79939342D01*
X139263885Y-79689342D02*
X140013885Y-79439342D01*
X139263885Y-79189342D01*
X133287657Y-82846800D02*
X133323371Y-82882514D01*
X133359085Y-82989657D01*
X133359085Y-83061085D01*
X133323371Y-83168228D01*
X133251942Y-83239657D01*
X133180514Y-83275371D01*
X133037657Y-83311085D01*
X132930514Y-83311085D01*
X132787657Y-83275371D01*
X132716228Y-83239657D01*
X132644800Y-83168228D01*
X132609085Y-83061085D01*
X132609085Y-82989657D01*
X132644800Y-82882514D01*
X132680514Y-82846800D01*
X132680514Y-82561085D02*
X132644800Y-82525371D01*
X132609085Y-82453942D01*
X132609085Y-82275371D01*
X132644800Y-82203942D01*
X132680514Y-82168228D01*
X132751942Y-82132514D01*
X132823371Y-82132514D01*
X132930514Y-82168228D01*
X133359085Y-82596800D01*
X133359085Y-82132514D01*
X133359085Y-81811085D02*
X132609085Y-81811085D01*
X133359085Y-81382514D02*
X132930514Y-81703942D01*
X132609085Y-81382514D02*
X133037657Y-81811085D01*
D13*
X117523000Y-91350000D02*
X110663000Y-91350000D01*
X110663000Y-91350000D02*
X110663000Y-76290000D01*
X110663000Y-76290000D02*
X117523000Y-76290000D01*
X129423000Y-91350000D02*
X130383000Y-91350000D01*
X130383000Y-91350000D02*
X130383000Y-89720000D01*
X130383000Y-77920000D02*
X130383000Y-76290000D01*
X130383000Y-76290000D02*
X129423000Y-76290000D01*
X133874200Y-75936800D02*
X135204200Y-75936800D01*
X133874200Y-77266800D02*
X133874200Y-75936800D01*
X136474200Y-75936800D02*
X139074200Y-75936800D01*
X136474200Y-78536800D02*
X136474200Y-75936800D01*
X133874200Y-78536800D02*
X136474200Y-78536800D01*
X139074200Y-75936800D02*
X139074200Y-86216800D01*
X133874200Y-78536800D02*
X133874200Y-86216800D01*
X133874200Y-86216800D02*
X139074200Y-86216800D01*
X137233576Y-89498700D02*
X137743024Y-89498700D01*
X137233576Y-88453700D02*
X137743024Y-88453700D01*
X137208176Y-87923900D02*
X137717624Y-87923900D01*
X137208176Y-86878900D02*
X137717624Y-86878900D01*
X133605176Y-87949300D02*
X134114624Y-87949300D01*
X133605176Y-86904300D02*
X134114624Y-86904300D01*
X135520800Y-88317400D02*
X133235800Y-88317400D01*
X135520800Y-89787400D02*
X135520800Y-88317400D01*
X133235800Y-89787400D02*
X135520800Y-89787400D01*
D12*
X111593380Y-91058904D02*
X112402904Y-91058904D01*
X112498142Y-91011285D01*
X112545761Y-90963666D01*
X112593380Y-90868428D01*
X112593380Y-90677952D01*
X112545761Y-90582714D01*
X112498142Y-90535095D01*
X112402904Y-90487476D01*
X111593380Y-90487476D01*
X111688619Y-90058904D02*
X111641000Y-90011285D01*
X111593380Y-89916047D01*
X111593380Y-89677952D01*
X111641000Y-89582714D01*
X111688619Y-89535095D01*
X111783857Y-89487476D01*
X111879095Y-89487476D01*
X112021952Y-89535095D01*
X112593380Y-90106523D01*
X112593380Y-89487476D01*
X140090085Y-88999600D02*
X139732942Y-89249600D01*
X140090085Y-89428171D02*
X139340085Y-89428171D01*
X139340085Y-89142457D01*
X139375800Y-89071028D01*
X139411514Y-89035314D01*
X139482942Y-88999600D01*
X139590085Y-88999600D01*
X139661514Y-89035314D01*
X139697228Y-89071028D01*
X139732942Y-89142457D01*
X139732942Y-89428171D01*
X139340085Y-88749600D02*
X139340085Y-88285314D01*
X139625800Y-88535314D01*
X139625800Y-88428171D01*
X139661514Y-88356742D01*
X139697228Y-88321028D01*
X139768657Y-88285314D01*
X139947228Y-88285314D01*
X140018657Y-88321028D01*
X140054371Y-88356742D01*
X140090085Y-88428171D01*
X140090085Y-88642457D01*
X140054371Y-88713885D01*
X140018657Y-88749600D01*
X140090085Y-87577200D02*
X139732942Y-87827200D01*
X140090085Y-88005771D02*
X139340085Y-88005771D01*
X139340085Y-87720057D01*
X139375800Y-87648628D01*
X139411514Y-87612914D01*
X139482942Y-87577200D01*
X139590085Y-87577200D01*
X139661514Y-87612914D01*
X139697228Y-87648628D01*
X139732942Y-87720057D01*
X139732942Y-88005771D01*
X139661514Y-87148628D02*
X139625800Y-87220057D01*
X139590085Y-87255771D01*
X139518657Y-87291485D01*
X139482942Y-87291485D01*
X139411514Y-87255771D01*
X139375800Y-87220057D01*
X139340085Y-87148628D01*
X139340085Y-87005771D01*
X139375800Y-86934342D01*
X139411514Y-86898628D01*
X139482942Y-86862914D01*
X139518657Y-86862914D01*
X139590085Y-86898628D01*
X139625800Y-86934342D01*
X139661514Y-87005771D01*
X139661514Y-87148628D01*
X139697228Y-87220057D01*
X139732942Y-87255771D01*
X139804371Y-87291485D01*
X139947228Y-87291485D01*
X140018657Y-87255771D01*
X140054371Y-87220057D01*
X140090085Y-87148628D01*
X140090085Y-87005771D01*
X140054371Y-86934342D01*
X140018657Y-86898628D01*
X139947228Y-86862914D01*
X139804371Y-86862914D01*
X139732942Y-86898628D01*
X139697228Y-86934342D01*
X139661514Y-87005771D01*
X132241485Y-87577200D02*
X131884342Y-87827200D01*
X132241485Y-88005771D02*
X131491485Y-88005771D01*
X131491485Y-87720057D01*
X131527200Y-87648628D01*
X131562914Y-87612914D01*
X131634342Y-87577200D01*
X131741485Y-87577200D01*
X131812914Y-87612914D01*
X131848628Y-87648628D01*
X131884342Y-87720057D01*
X131884342Y-88005771D01*
X131491485Y-87327200D02*
X131491485Y-86827200D01*
X132241485Y-87148628D01*
X132317685Y-89631371D02*
X131567685Y-89631371D01*
X131567685Y-89452800D01*
X131603400Y-89345657D01*
X131674828Y-89274228D01*
X131746257Y-89238514D01*
X131889114Y-89202800D01*
X131996257Y-89202800D01*
X132139114Y-89238514D01*
X132210542Y-89274228D01*
X132281971Y-89345657D01*
X132317685Y-89452800D01*
X132317685Y-89631371D01*
X132317685Y-88488514D02*
X132317685Y-88917085D01*
X132317685Y-88702800D02*
X131567685Y-88702800D01*
X131674828Y-88774228D01*
X131746257Y-88845657D01*
X131781971Y-88917085D01*
%LPC*%
G36*
G01*
X128923000Y-77970000D02*
X130923000Y-77970000D01*
G75*
G02*
X131123000Y-78170000I0J-200000D01*
G01*
X131123000Y-78970000D01*
G75*
G02*
X130923000Y-79170000I-200000J0D01*
G01*
X128923000Y-79170000D01*
G75*
G02*
X128723000Y-78970000I0J200000D01*
G01*
X128723000Y-78170000D01*
G75*
G02*
X128923000Y-77970000I200000J0D01*
G01*
G37*
G36*
G01*
X128923000Y-79470000D02*
X130923000Y-79470000D01*
G75*
G02*
X131123000Y-79670000I0J-200000D01*
G01*
X131123000Y-80470000D01*
G75*
G02*
X130923000Y-80670000I-200000J0D01*
G01*
X128923000Y-80670000D01*
G75*
G02*
X128723000Y-80470000I0J200000D01*
G01*
X128723000Y-79670000D01*
G75*
G02*
X128923000Y-79470000I200000J0D01*
G01*
G37*
G36*
G01*
X128923000Y-80970000D02*
X130923000Y-80970000D01*
G75*
G02*
X131123000Y-81170000I0J-200000D01*
G01*
X131123000Y-81970000D01*
G75*
G02*
X130923000Y-82170000I-200000J0D01*
G01*
X128923000Y-82170000D01*
G75*
G02*
X128723000Y-81970000I0J200000D01*
G01*
X128723000Y-81170000D01*
G75*
G02*
X128923000Y-80970000I200000J0D01*
G01*
G37*
G36*
G01*
X128923000Y-82470000D02*
X130923000Y-82470000D01*
G75*
G02*
X131123000Y-82670000I0J-200000D01*
G01*
X131123000Y-83470000D01*
G75*
G02*
X130923000Y-83670000I-200000J0D01*
G01*
X128923000Y-83670000D01*
G75*
G02*
X128723000Y-83470000I0J200000D01*
G01*
X128723000Y-82670000D01*
G75*
G02*
X128923000Y-82470000I200000J0D01*
G01*
G37*
G36*
G01*
X128923000Y-83970000D02*
X130923000Y-83970000D01*
G75*
G02*
X131123000Y-84170000I0J-200000D01*
G01*
X131123000Y-84970000D01*
G75*
G02*
X130923000Y-85170000I-200000J0D01*
G01*
X128923000Y-85170000D01*
G75*
G02*
X128723000Y-84970000I0J200000D01*
G01*
X128723000Y-84170000D01*
G75*
G02*
X128923000Y-83970000I200000J0D01*
G01*
G37*
G36*
G01*
X128923000Y-85470000D02*
X130923000Y-85470000D01*
G75*
G02*
X131123000Y-85670000I0J-200000D01*
G01*
X131123000Y-86470000D01*
G75*
G02*
X130923000Y-86670000I-200000J0D01*
G01*
X128923000Y-86670000D01*
G75*
G02*
X128723000Y-86470000I0J200000D01*
G01*
X128723000Y-85670000D01*
G75*
G02*
X128923000Y-85470000I200000J0D01*
G01*
G37*
G36*
G01*
X128923000Y-86970000D02*
X130923000Y-86970000D01*
G75*
G02*
X131123000Y-87170000I0J-200000D01*
G01*
X131123000Y-87970000D01*
G75*
G02*
X130923000Y-88170000I-200000J0D01*
G01*
X128923000Y-88170000D01*
G75*
G02*
X128723000Y-87970000I0J200000D01*
G01*
X128723000Y-87170000D01*
G75*
G02*
X128923000Y-86970000I200000J0D01*
G01*
G37*
G36*
G01*
X128423000Y-89690000D02*
X129223000Y-89690000D01*
G75*
G02*
X129423000Y-89890000I0J-200000D01*
G01*
X129423000Y-91890000D01*
G75*
G02*
X129223000Y-92090000I-200000J0D01*
G01*
X128423000Y-92090000D01*
G75*
G02*
X128223000Y-91890000I0J200000D01*
G01*
X128223000Y-89890000D01*
G75*
G02*
X128423000Y-89690000I200000J0D01*
G01*
G37*
G36*
G01*
X128423000Y-75550000D02*
X129223000Y-75550000D01*
G75*
G02*
X129423000Y-75750000I0J-200000D01*
G01*
X129423000Y-77750000D01*
G75*
G02*
X129223000Y-77950000I-200000J0D01*
G01*
X128423000Y-77950000D01*
G75*
G02*
X128223000Y-77750000I0J200000D01*
G01*
X128223000Y-75750000D01*
G75*
G02*
X128423000Y-75550000I200000J0D01*
G01*
G37*
G36*
G01*
X126923000Y-75550000D02*
X127723000Y-75550000D01*
G75*
G02*
X127923000Y-75750000I0J-200000D01*
G01*
X127923000Y-77750000D01*
G75*
G02*
X127723000Y-77950000I-200000J0D01*
G01*
X126923000Y-77950000D01*
G75*
G02*
X126723000Y-77750000I0J200000D01*
G01*
X126723000Y-75750000D01*
G75*
G02*
X126923000Y-75550000I200000J0D01*
G01*
G37*
G36*
G01*
X126923000Y-89690000D02*
X127723000Y-89690000D01*
G75*
G02*
X127923000Y-89890000I0J-200000D01*
G01*
X127923000Y-91890000D01*
G75*
G02*
X127723000Y-92090000I-200000J0D01*
G01*
X126923000Y-92090000D01*
G75*
G02*
X126723000Y-91890000I0J200000D01*
G01*
X126723000Y-89890000D01*
G75*
G02*
X126923000Y-89690000I200000J0D01*
G01*
G37*
G36*
G01*
X125423000Y-89690000D02*
X126223000Y-89690000D01*
G75*
G02*
X126423000Y-89890000I0J-200000D01*
G01*
X126423000Y-91890000D01*
G75*
G02*
X126223000Y-92090000I-200000J0D01*
G01*
X125423000Y-92090000D01*
G75*
G02*
X125223000Y-91890000I0J200000D01*
G01*
X125223000Y-89890000D01*
G75*
G02*
X125423000Y-89690000I200000J0D01*
G01*
G37*
G36*
G01*
X125423000Y-75550000D02*
X126223000Y-75550000D01*
G75*
G02*
X126423000Y-75750000I0J-200000D01*
G01*
X126423000Y-77750000D01*
G75*
G02*
X126223000Y-77950000I-200000J0D01*
G01*
X125423000Y-77950000D01*
G75*
G02*
X125223000Y-77750000I0J200000D01*
G01*
X125223000Y-75750000D01*
G75*
G02*
X125423000Y-75550000I200000J0D01*
G01*
G37*
G36*
G01*
X123923000Y-75550000D02*
X124723000Y-75550000D01*
G75*
G02*
X124923000Y-75750000I0J-200000D01*
G01*
X124923000Y-77750000D01*
G75*
G02*
X124723000Y-77950000I-200000J0D01*
G01*
X123923000Y-77950000D01*
G75*
G02*
X123723000Y-77750000I0J200000D01*
G01*
X123723000Y-75750000D01*
G75*
G02*
X123923000Y-75550000I200000J0D01*
G01*
G37*
G36*
G01*
X123923000Y-89690000D02*
X124723000Y-89690000D01*
G75*
G02*
X124923000Y-89890000I0J-200000D01*
G01*
X124923000Y-91890000D01*
G75*
G02*
X124723000Y-92090000I-200000J0D01*
G01*
X123923000Y-92090000D01*
G75*
G02*
X123723000Y-91890000I0J200000D01*
G01*
X123723000Y-89890000D01*
G75*
G02*
X123923000Y-89690000I200000J0D01*
G01*
G37*
G36*
G01*
X122423000Y-89690000D02*
X123223000Y-89690000D01*
G75*
G02*
X123423000Y-89890000I0J-200000D01*
G01*
X123423000Y-91890000D01*
G75*
G02*
X123223000Y-92090000I-200000J0D01*
G01*
X122423000Y-92090000D01*
G75*
G02*
X122223000Y-91890000I0J200000D01*
G01*
X122223000Y-89890000D01*
G75*
G02*
X122423000Y-89690000I200000J0D01*
G01*
G37*
G36*
G01*
X122423000Y-75550000D02*
X123223000Y-75550000D01*
G75*
G02*
X123423000Y-75750000I0J-200000D01*
G01*
X123423000Y-77750000D01*
G75*
G02*
X123223000Y-77950000I-200000J0D01*
G01*
X122423000Y-77950000D01*
G75*
G02*
X122223000Y-77750000I0J200000D01*
G01*
X122223000Y-75750000D01*
G75*
G02*
X122423000Y-75550000I200000J0D01*
G01*
G37*
G36*
G01*
X120923000Y-75550000D02*
X121723000Y-75550000D01*
G75*
G02*
X121923000Y-75750000I0J-200000D01*
G01*
X121923000Y-77750000D01*
G75*
G02*
X121723000Y-77950000I-200000J0D01*
G01*
X120923000Y-77950000D01*
G75*
G02*
X120723000Y-77750000I0J200000D01*
G01*
X120723000Y-75750000D01*
G75*
G02*
X120923000Y-75550000I200000J0D01*
G01*
G37*
G36*
G01*
X120923000Y-89690000D02*
X121723000Y-89690000D01*
G75*
G02*
X121923000Y-89890000I0J-200000D01*
G01*
X121923000Y-91890000D01*
G75*
G02*
X121723000Y-92090000I-200000J0D01*
G01*
X120923000Y-92090000D01*
G75*
G02*
X120723000Y-91890000I0J200000D01*
G01*
X120723000Y-89890000D01*
G75*
G02*
X120923000Y-89690000I200000J0D01*
G01*
G37*
G36*
G01*
X119423000Y-89690000D02*
X120223000Y-89690000D01*
G75*
G02*
X120423000Y-89890000I0J-200000D01*
G01*
X120423000Y-91890000D01*
G75*
G02*
X120223000Y-92090000I-200000J0D01*
G01*
X119423000Y-92090000D01*
G75*
G02*
X119223000Y-91890000I0J200000D01*
G01*
X119223000Y-89890000D01*
G75*
G02*
X119423000Y-89690000I200000J0D01*
G01*
G37*
G36*
G01*
X119423000Y-75550000D02*
X120223000Y-75550000D01*
G75*
G02*
X120423000Y-75750000I0J-200000D01*
G01*
X120423000Y-77750000D01*
G75*
G02*
X120223000Y-77950000I-200000J0D01*
G01*
X119423000Y-77950000D01*
G75*
G02*
X119223000Y-77750000I0J200000D01*
G01*
X119223000Y-75750000D01*
G75*
G02*
X119423000Y-75550000I200000J0D01*
G01*
G37*
G36*
G01*
X117923000Y-75550000D02*
X118723000Y-75550000D01*
G75*
G02*
X118923000Y-75750000I0J-200000D01*
G01*
X118923000Y-77750000D01*
G75*
G02*
X118723000Y-77950000I-200000J0D01*
G01*
X117923000Y-77950000D01*
G75*
G02*
X117723000Y-77750000I0J200000D01*
G01*
X117723000Y-75750000D01*
G75*
G02*
X117923000Y-75550000I200000J0D01*
G01*
G37*
G36*
G01*
X128923000Y-88470000D02*
X130923000Y-88470000D01*
G75*
G02*
X131123000Y-88670000I0J-200000D01*
G01*
X131123000Y-89470000D01*
G75*
G02*
X130923000Y-89670000I-200000J0D01*
G01*
X128923000Y-89670000D01*
G75*
G02*
X128723000Y-89470000I0J200000D01*
G01*
X128723000Y-88670000D01*
G75*
G02*
X128923000Y-88470000I200000J0D01*
G01*
G37*
G36*
G01*
X117923000Y-89690000D02*
X118723000Y-89690000D01*
G75*
G02*
X118923000Y-89890000I0J-200000D01*
G01*
X118923000Y-91890000D01*
G75*
G02*
X118723000Y-92090000I-200000J0D01*
G01*
X117923000Y-92090000D01*
G75*
G02*
X117723000Y-91890000I0J200000D01*
G01*
X117723000Y-89890000D01*
G75*
G02*
X117923000Y-89690000I200000J0D01*
G01*
G37*
D14*
X137744200Y-84886800D03*
X135204200Y-84886800D03*
X137744200Y-82346800D03*
X135204200Y-82346800D03*
X137744200Y-79806800D03*
X135204200Y-79806800D03*
X137744200Y-77266800D03*
D15*
X135204200Y-77266800D03*
G36*
G01*
X137913300Y-89213700D02*
X137913300Y-88738700D01*
G75*
G02*
X138150800Y-88501200I237500J0D01*
G01*
X138650800Y-88501200D01*
G75*
G02*
X138888300Y-88738700I0J-237500D01*
G01*
X138888300Y-89213700D01*
G75*
G02*
X138650800Y-89451200I-237500J0D01*
G01*
X138150800Y-89451200D01*
G75*
G02*
X137913300Y-89213700I0J237500D01*
G01*
G37*
G36*
G01*
X136088300Y-89213700D02*
X136088300Y-88738700D01*
G75*
G02*
X136325800Y-88501200I237500J0D01*
G01*
X136825800Y-88501200D01*
G75*
G02*
X137063300Y-88738700I0J-237500D01*
G01*
X137063300Y-89213700D01*
G75*
G02*
X136825800Y-89451200I-237500J0D01*
G01*
X136325800Y-89451200D01*
G75*
G02*
X136088300Y-89213700I0J237500D01*
G01*
G37*
D16*
X131982000Y-90634000D03*
X138782000Y-90634000D03*
G36*
G01*
X137887900Y-87638900D02*
X137887900Y-87163900D01*
G75*
G02*
X138125400Y-86926400I237500J0D01*
G01*
X138625400Y-86926400D01*
G75*
G02*
X138862900Y-87163900I0J-237500D01*
G01*
X138862900Y-87638900D01*
G75*
G02*
X138625400Y-87876400I-237500J0D01*
G01*
X138125400Y-87876400D01*
G75*
G02*
X137887900Y-87638900I0J237500D01*
G01*
G37*
G36*
G01*
X136062900Y-87638900D02*
X136062900Y-87163900D01*
G75*
G02*
X136300400Y-86926400I237500J0D01*
G01*
X136800400Y-86926400D01*
G75*
G02*
X137037900Y-87163900I0J-237500D01*
G01*
X137037900Y-87638900D01*
G75*
G02*
X136800400Y-87876400I-237500J0D01*
G01*
X136300400Y-87876400D01*
G75*
G02*
X136062900Y-87638900I0J237500D01*
G01*
G37*
G36*
G01*
X134284900Y-87664300D02*
X134284900Y-87189300D01*
G75*
G02*
X134522400Y-86951800I237500J0D01*
G01*
X135022400Y-86951800D01*
G75*
G02*
X135259900Y-87189300I0J-237500D01*
G01*
X135259900Y-87664300D01*
G75*
G02*
X135022400Y-87901800I-237500J0D01*
G01*
X134522400Y-87901800D01*
G75*
G02*
X134284900Y-87664300I0J237500D01*
G01*
G37*
G36*
G01*
X132459900Y-87664300D02*
X132459900Y-87189300D01*
G75*
G02*
X132697400Y-86951800I237500J0D01*
G01*
X133197400Y-86951800D01*
G75*
G02*
X133434900Y-87189300I0J-237500D01*
G01*
X133434900Y-87664300D01*
G75*
G02*
X133197400Y-87901800I-237500J0D01*
G01*
X132697400Y-87901800D01*
G75*
G02*
X132459900Y-87664300I0J237500D01*
G01*
G37*
G36*
G01*
X135260800Y-88796150D02*
X135260800Y-89308650D01*
G75*
G02*
X135042050Y-89527400I-218750J0D01*
G01*
X134604550Y-89527400D01*
G75*
G02*
X134385800Y-89308650I0J218750D01*
G01*
X134385800Y-88796150D01*
G75*
G02*
X134604550Y-88577400I218750J0D01*
G01*
X135042050Y-88577400D01*
G75*
G02*
X135260800Y-88796150I0J-218750D01*
G01*
G37*
G36*
G01*
X133685800Y-88796150D02*
X133685800Y-89308650D01*
G75*
G02*
X133467050Y-89527400I-218750J0D01*
G01*
X133029550Y-89527400D01*
G75*
G02*
X132810800Y-89308650I0J218750D01*
G01*
X132810800Y-88796150D01*
G75*
G02*
X133029550Y-88577400I218750J0D01*
G01*
X133467050Y-88577400D01*
G75*
G02*
X133685800Y-88796150I0J-218750D01*
G01*
G37*
M02*
