G04 #@! TF.GenerationSoftware,KiCad,Pcbnew,(5.1.10)-1*
G04 #@! TF.CreationDate,2021-10-01T13:23:57-05:00*
G04 #@! TF.ProjectId,wireless_measurement_ard,77697265-6c65-4737-935f-6d6561737572,rev?*
G04 #@! TF.SameCoordinates,Original*
G04 #@! TF.FileFunction,Legend,Top*
G04 #@! TF.FilePolarity,Positive*
%FSLAX46Y46*%
G04 Gerber Fmt 4.6, Leading zero omitted, Abs format (unit mm)*
G04 Created by KiCad (PCBNEW (5.1.10)-1) date 2021-10-01 13:23:57*
%MOMM*%
%LPD*%
G01*
G04 APERTURE LIST*
%ADD10C,0.300000*%
%ADD11C,0.150000*%
%ADD12C,0.120000*%
%ADD13O,1.700000X1.700000*%
%ADD14R,1.700000X1.700000*%
%ADD15C,0.900000*%
G04 APERTURE END LIST*
D10*
X139077771Y-85019342D02*
X140220628Y-85019342D01*
X132245171Y-84917742D02*
X133388028Y-84917742D01*
X132816600Y-85489171D02*
X132816600Y-84346314D01*
D11*
X133232085Y-77623942D02*
X132482085Y-77623942D01*
X133232085Y-76873942D02*
X133232085Y-77302514D01*
X133232085Y-77088228D02*
X132482085Y-77088228D01*
X132589228Y-77159657D01*
X132660657Y-77231085D01*
X132696371Y-77302514D01*
X139263885Y-77669971D02*
X139263885Y-77527114D01*
X139299600Y-77455685D01*
X139371028Y-77384257D01*
X139513885Y-77348542D01*
X139763885Y-77348542D01*
X139906742Y-77384257D01*
X139978171Y-77455685D01*
X140013885Y-77527114D01*
X140013885Y-77669971D01*
X139978171Y-77741400D01*
X139906742Y-77812828D01*
X139763885Y-77848542D01*
X139513885Y-77848542D01*
X139371028Y-77812828D01*
X139299600Y-77741400D01*
X139263885Y-77669971D01*
X140013885Y-76634257D02*
X140013885Y-77062828D01*
X140013885Y-76848542D02*
X139263885Y-76848542D01*
X139371028Y-76919971D01*
X139442457Y-76991400D01*
X139478171Y-77062828D01*
X133068600Y-80367914D02*
X133068600Y-80010771D01*
X133282885Y-80439342D02*
X132532885Y-80189342D01*
X133282885Y-79939342D01*
X133282885Y-79296485D02*
X133282885Y-79725057D01*
X133282885Y-79510771D02*
X132532885Y-79510771D01*
X132640028Y-79582200D01*
X132711457Y-79653628D01*
X132747171Y-79725057D01*
X139993257Y-82872200D02*
X140028971Y-82907914D01*
X140064685Y-83015057D01*
X140064685Y-83086485D01*
X140028971Y-83193628D01*
X139957542Y-83265057D01*
X139886114Y-83300771D01*
X139743257Y-83336485D01*
X139636114Y-83336485D01*
X139493257Y-83300771D01*
X139421828Y-83265057D01*
X139350400Y-83193628D01*
X139314685Y-83086485D01*
X139314685Y-83015057D01*
X139350400Y-82907914D01*
X139386114Y-82872200D01*
X139386114Y-82586485D02*
X139350400Y-82550771D01*
X139314685Y-82479342D01*
X139314685Y-82300771D01*
X139350400Y-82229342D01*
X139386114Y-82193628D01*
X139457542Y-82157914D01*
X139528971Y-82157914D01*
X139636114Y-82193628D01*
X140064685Y-82622200D01*
X140064685Y-82157914D01*
X140064685Y-81836485D02*
X139314685Y-81836485D01*
X139314685Y-81657914D01*
X139350400Y-81550771D01*
X139421828Y-81479342D01*
X139493257Y-81443628D01*
X139636114Y-81407914D01*
X139743257Y-81407914D01*
X139886114Y-81443628D01*
X139957542Y-81479342D01*
X140028971Y-81550771D01*
X140064685Y-81657914D01*
X140064685Y-81836485D01*
X140013885Y-80367914D02*
X139263885Y-80367914D01*
X139621028Y-80367914D02*
X139621028Y-79939342D01*
X140013885Y-79939342D02*
X139263885Y-79939342D01*
X139263885Y-79689342D02*
X140013885Y-79439342D01*
X139263885Y-79189342D01*
X133287657Y-82846800D02*
X133323371Y-82882514D01*
X133359085Y-82989657D01*
X133359085Y-83061085D01*
X133323371Y-83168228D01*
X133251942Y-83239657D01*
X133180514Y-83275371D01*
X133037657Y-83311085D01*
X132930514Y-83311085D01*
X132787657Y-83275371D01*
X132716228Y-83239657D01*
X132644800Y-83168228D01*
X132609085Y-83061085D01*
X132609085Y-82989657D01*
X132644800Y-82882514D01*
X132680514Y-82846800D01*
X132680514Y-82561085D02*
X132644800Y-82525371D01*
X132609085Y-82453942D01*
X132609085Y-82275371D01*
X132644800Y-82203942D01*
X132680514Y-82168228D01*
X132751942Y-82132514D01*
X132823371Y-82132514D01*
X132930514Y-82168228D01*
X133359085Y-82596800D01*
X133359085Y-82132514D01*
X133359085Y-81811085D02*
X132609085Y-81811085D01*
X133359085Y-81382514D02*
X132930514Y-81703942D01*
X132609085Y-81382514D02*
X133037657Y-81811085D01*
D12*
X130383000Y-76290000D02*
X129423000Y-76290000D01*
X130383000Y-77920000D02*
X130383000Y-76290000D01*
X130383000Y-91350000D02*
X130383000Y-89720000D01*
X129423000Y-91350000D02*
X130383000Y-91350000D01*
X110663000Y-76290000D02*
X117523000Y-76290000D01*
X110663000Y-91350000D02*
X110663000Y-76290000D01*
X117523000Y-91350000D02*
X110663000Y-91350000D01*
X133874200Y-86216800D02*
X139074200Y-86216800D01*
X133874200Y-78536800D02*
X133874200Y-86216800D01*
X139074200Y-75936800D02*
X139074200Y-86216800D01*
X133874200Y-78536800D02*
X136474200Y-78536800D01*
X136474200Y-78536800D02*
X136474200Y-75936800D01*
X136474200Y-75936800D02*
X139074200Y-75936800D01*
X133874200Y-77266800D02*
X133874200Y-75936800D01*
X133874200Y-75936800D02*
X135204200Y-75936800D01*
X136383500Y-91036224D02*
X136383500Y-90526776D01*
X137428500Y-91036224D02*
X137428500Y-90526776D01*
X137309776Y-87615500D02*
X137819224Y-87615500D01*
X137309776Y-88660500D02*
X137819224Y-88660500D01*
X133706776Y-87615500D02*
X134216224Y-87615500D01*
X133706776Y-88660500D02*
X134216224Y-88660500D01*
X133885000Y-89903500D02*
X133885000Y-92188500D01*
X133885000Y-92188500D02*
X135355000Y-92188500D01*
X135355000Y-92188500D02*
X135355000Y-89903500D01*
D11*
X111593380Y-91058904D02*
X112402904Y-91058904D01*
X112498142Y-91011285D01*
X112545761Y-90963666D01*
X112593380Y-90868428D01*
X112593380Y-90677952D01*
X112545761Y-90582714D01*
X112498142Y-90535095D01*
X112402904Y-90487476D01*
X111593380Y-90487476D01*
X111688619Y-90058904D02*
X111641000Y-90011285D01*
X111593380Y-89916047D01*
X111593380Y-89677952D01*
X111641000Y-89582714D01*
X111688619Y-89535095D01*
X111783857Y-89487476D01*
X111879095Y-89487476D01*
X112021952Y-89535095D01*
X112593380Y-90106523D01*
X112593380Y-89487476D01*
X138330400Y-92261885D02*
X138080400Y-91904742D01*
X137901828Y-92261885D02*
X137901828Y-91511885D01*
X138187542Y-91511885D01*
X138258971Y-91547600D01*
X138294685Y-91583314D01*
X138330400Y-91654742D01*
X138330400Y-91761885D01*
X138294685Y-91833314D01*
X138258971Y-91869028D01*
X138187542Y-91904742D01*
X137901828Y-91904742D01*
X138580400Y-91511885D02*
X139044685Y-91511885D01*
X138794685Y-91797600D01*
X138901828Y-91797600D01*
X138973257Y-91833314D01*
X139008971Y-91869028D01*
X139044685Y-91940457D01*
X139044685Y-92119028D01*
X139008971Y-92190457D01*
X138973257Y-92226171D01*
X138901828Y-92261885D01*
X138687542Y-92261885D01*
X138616114Y-92226171D01*
X138580400Y-92190457D01*
X137416000Y-87258085D02*
X137166000Y-86900942D01*
X136987428Y-87258085D02*
X136987428Y-86508085D01*
X137273142Y-86508085D01*
X137344571Y-86543800D01*
X137380285Y-86579514D01*
X137416000Y-86650942D01*
X137416000Y-86758085D01*
X137380285Y-86829514D01*
X137344571Y-86865228D01*
X137273142Y-86900942D01*
X136987428Y-86900942D01*
X137844571Y-86829514D02*
X137773142Y-86793800D01*
X137737428Y-86758085D01*
X137701714Y-86686657D01*
X137701714Y-86650942D01*
X137737428Y-86579514D01*
X137773142Y-86543800D01*
X137844571Y-86508085D01*
X137987428Y-86508085D01*
X138058857Y-86543800D01*
X138094571Y-86579514D01*
X138130285Y-86650942D01*
X138130285Y-86686657D01*
X138094571Y-86758085D01*
X138058857Y-86793800D01*
X137987428Y-86829514D01*
X137844571Y-86829514D01*
X137773142Y-86865228D01*
X137737428Y-86900942D01*
X137701714Y-86972371D01*
X137701714Y-87115228D01*
X137737428Y-87186657D01*
X137773142Y-87222371D01*
X137844571Y-87258085D01*
X137987428Y-87258085D01*
X138058857Y-87222371D01*
X138094571Y-87186657D01*
X138130285Y-87115228D01*
X138130285Y-86972371D01*
X138094571Y-86900942D01*
X138058857Y-86865228D01*
X137987428Y-86829514D01*
X133936200Y-87385085D02*
X133686200Y-87027942D01*
X133507628Y-87385085D02*
X133507628Y-86635085D01*
X133793342Y-86635085D01*
X133864771Y-86670800D01*
X133900485Y-86706514D01*
X133936200Y-86777942D01*
X133936200Y-86885085D01*
X133900485Y-86956514D01*
X133864771Y-86992228D01*
X133793342Y-87027942D01*
X133507628Y-87027942D01*
X134186200Y-86635085D02*
X134686200Y-86635085D01*
X134364771Y-87385085D01*
X132440828Y-92109485D02*
X132440828Y-91359485D01*
X132619400Y-91359485D01*
X132726542Y-91395200D01*
X132797971Y-91466628D01*
X132833685Y-91538057D01*
X132869400Y-91680914D01*
X132869400Y-91788057D01*
X132833685Y-91930914D01*
X132797971Y-92002342D01*
X132726542Y-92073771D01*
X132619400Y-92109485D01*
X132440828Y-92109485D01*
X133583685Y-92109485D02*
X133155114Y-92109485D01*
X133369400Y-92109485D02*
X133369400Y-91359485D01*
X133297971Y-91466628D01*
X133226542Y-91538057D01*
X133155114Y-91573771D01*
%LPC*%
G36*
G01*
X128923000Y-77970000D02*
X130923000Y-77970000D01*
G75*
G02*
X131123000Y-78170000I0J-200000D01*
G01*
X131123000Y-78970000D01*
G75*
G02*
X130923000Y-79170000I-200000J0D01*
G01*
X128923000Y-79170000D01*
G75*
G02*
X128723000Y-78970000I0J200000D01*
G01*
X128723000Y-78170000D01*
G75*
G02*
X128923000Y-77970000I200000J0D01*
G01*
G37*
G36*
G01*
X128923000Y-79470000D02*
X130923000Y-79470000D01*
G75*
G02*
X131123000Y-79670000I0J-200000D01*
G01*
X131123000Y-80470000D01*
G75*
G02*
X130923000Y-80670000I-200000J0D01*
G01*
X128923000Y-80670000D01*
G75*
G02*
X128723000Y-80470000I0J200000D01*
G01*
X128723000Y-79670000D01*
G75*
G02*
X128923000Y-79470000I200000J0D01*
G01*
G37*
G36*
G01*
X128923000Y-80970000D02*
X130923000Y-80970000D01*
G75*
G02*
X131123000Y-81170000I0J-200000D01*
G01*
X131123000Y-81970000D01*
G75*
G02*
X130923000Y-82170000I-200000J0D01*
G01*
X128923000Y-82170000D01*
G75*
G02*
X128723000Y-81970000I0J200000D01*
G01*
X128723000Y-81170000D01*
G75*
G02*
X128923000Y-80970000I200000J0D01*
G01*
G37*
G36*
G01*
X128923000Y-82470000D02*
X130923000Y-82470000D01*
G75*
G02*
X131123000Y-82670000I0J-200000D01*
G01*
X131123000Y-83470000D01*
G75*
G02*
X130923000Y-83670000I-200000J0D01*
G01*
X128923000Y-83670000D01*
G75*
G02*
X128723000Y-83470000I0J200000D01*
G01*
X128723000Y-82670000D01*
G75*
G02*
X128923000Y-82470000I200000J0D01*
G01*
G37*
G36*
G01*
X128923000Y-83970000D02*
X130923000Y-83970000D01*
G75*
G02*
X131123000Y-84170000I0J-200000D01*
G01*
X131123000Y-84970000D01*
G75*
G02*
X130923000Y-85170000I-200000J0D01*
G01*
X128923000Y-85170000D01*
G75*
G02*
X128723000Y-84970000I0J200000D01*
G01*
X128723000Y-84170000D01*
G75*
G02*
X128923000Y-83970000I200000J0D01*
G01*
G37*
G36*
G01*
X128923000Y-85470000D02*
X130923000Y-85470000D01*
G75*
G02*
X131123000Y-85670000I0J-200000D01*
G01*
X131123000Y-86470000D01*
G75*
G02*
X130923000Y-86670000I-200000J0D01*
G01*
X128923000Y-86670000D01*
G75*
G02*
X128723000Y-86470000I0J200000D01*
G01*
X128723000Y-85670000D01*
G75*
G02*
X128923000Y-85470000I200000J0D01*
G01*
G37*
G36*
G01*
X128923000Y-86970000D02*
X130923000Y-86970000D01*
G75*
G02*
X131123000Y-87170000I0J-200000D01*
G01*
X131123000Y-87970000D01*
G75*
G02*
X130923000Y-88170000I-200000J0D01*
G01*
X128923000Y-88170000D01*
G75*
G02*
X128723000Y-87970000I0J200000D01*
G01*
X128723000Y-87170000D01*
G75*
G02*
X128923000Y-86970000I200000J0D01*
G01*
G37*
G36*
G01*
X128423000Y-89690000D02*
X129223000Y-89690000D01*
G75*
G02*
X129423000Y-89890000I0J-200000D01*
G01*
X129423000Y-91890000D01*
G75*
G02*
X129223000Y-92090000I-200000J0D01*
G01*
X128423000Y-92090000D01*
G75*
G02*
X128223000Y-91890000I0J200000D01*
G01*
X128223000Y-89890000D01*
G75*
G02*
X128423000Y-89690000I200000J0D01*
G01*
G37*
G36*
G01*
X128423000Y-75550000D02*
X129223000Y-75550000D01*
G75*
G02*
X129423000Y-75750000I0J-200000D01*
G01*
X129423000Y-77750000D01*
G75*
G02*
X129223000Y-77950000I-200000J0D01*
G01*
X128423000Y-77950000D01*
G75*
G02*
X128223000Y-77750000I0J200000D01*
G01*
X128223000Y-75750000D01*
G75*
G02*
X128423000Y-75550000I200000J0D01*
G01*
G37*
G36*
G01*
X126923000Y-75550000D02*
X127723000Y-75550000D01*
G75*
G02*
X127923000Y-75750000I0J-200000D01*
G01*
X127923000Y-77750000D01*
G75*
G02*
X127723000Y-77950000I-200000J0D01*
G01*
X126923000Y-77950000D01*
G75*
G02*
X126723000Y-77750000I0J200000D01*
G01*
X126723000Y-75750000D01*
G75*
G02*
X126923000Y-75550000I200000J0D01*
G01*
G37*
G36*
G01*
X126923000Y-89690000D02*
X127723000Y-89690000D01*
G75*
G02*
X127923000Y-89890000I0J-200000D01*
G01*
X127923000Y-91890000D01*
G75*
G02*
X127723000Y-92090000I-200000J0D01*
G01*
X126923000Y-92090000D01*
G75*
G02*
X126723000Y-91890000I0J200000D01*
G01*
X126723000Y-89890000D01*
G75*
G02*
X126923000Y-89690000I200000J0D01*
G01*
G37*
G36*
G01*
X125423000Y-89690000D02*
X126223000Y-89690000D01*
G75*
G02*
X126423000Y-89890000I0J-200000D01*
G01*
X126423000Y-91890000D01*
G75*
G02*
X126223000Y-92090000I-200000J0D01*
G01*
X125423000Y-92090000D01*
G75*
G02*
X125223000Y-91890000I0J200000D01*
G01*
X125223000Y-89890000D01*
G75*
G02*
X125423000Y-89690000I200000J0D01*
G01*
G37*
G36*
G01*
X125423000Y-75550000D02*
X126223000Y-75550000D01*
G75*
G02*
X126423000Y-75750000I0J-200000D01*
G01*
X126423000Y-77750000D01*
G75*
G02*
X126223000Y-77950000I-200000J0D01*
G01*
X125423000Y-77950000D01*
G75*
G02*
X125223000Y-77750000I0J200000D01*
G01*
X125223000Y-75750000D01*
G75*
G02*
X125423000Y-75550000I200000J0D01*
G01*
G37*
G36*
G01*
X123923000Y-75550000D02*
X124723000Y-75550000D01*
G75*
G02*
X124923000Y-75750000I0J-200000D01*
G01*
X124923000Y-77750000D01*
G75*
G02*
X124723000Y-77950000I-200000J0D01*
G01*
X123923000Y-77950000D01*
G75*
G02*
X123723000Y-77750000I0J200000D01*
G01*
X123723000Y-75750000D01*
G75*
G02*
X123923000Y-75550000I200000J0D01*
G01*
G37*
G36*
G01*
X123923000Y-89690000D02*
X124723000Y-89690000D01*
G75*
G02*
X124923000Y-89890000I0J-200000D01*
G01*
X124923000Y-91890000D01*
G75*
G02*
X124723000Y-92090000I-200000J0D01*
G01*
X123923000Y-92090000D01*
G75*
G02*
X123723000Y-91890000I0J200000D01*
G01*
X123723000Y-89890000D01*
G75*
G02*
X123923000Y-89690000I200000J0D01*
G01*
G37*
G36*
G01*
X122423000Y-89690000D02*
X123223000Y-89690000D01*
G75*
G02*
X123423000Y-89890000I0J-200000D01*
G01*
X123423000Y-91890000D01*
G75*
G02*
X123223000Y-92090000I-200000J0D01*
G01*
X122423000Y-92090000D01*
G75*
G02*
X122223000Y-91890000I0J200000D01*
G01*
X122223000Y-89890000D01*
G75*
G02*
X122423000Y-89690000I200000J0D01*
G01*
G37*
G36*
G01*
X122423000Y-75550000D02*
X123223000Y-75550000D01*
G75*
G02*
X123423000Y-75750000I0J-200000D01*
G01*
X123423000Y-77750000D01*
G75*
G02*
X123223000Y-77950000I-200000J0D01*
G01*
X122423000Y-77950000D01*
G75*
G02*
X122223000Y-77750000I0J200000D01*
G01*
X122223000Y-75750000D01*
G75*
G02*
X122423000Y-75550000I200000J0D01*
G01*
G37*
G36*
G01*
X120923000Y-75550000D02*
X121723000Y-75550000D01*
G75*
G02*
X121923000Y-75750000I0J-200000D01*
G01*
X121923000Y-77750000D01*
G75*
G02*
X121723000Y-77950000I-200000J0D01*
G01*
X120923000Y-77950000D01*
G75*
G02*
X120723000Y-77750000I0J200000D01*
G01*
X120723000Y-75750000D01*
G75*
G02*
X120923000Y-75550000I200000J0D01*
G01*
G37*
G36*
G01*
X120923000Y-89690000D02*
X121723000Y-89690000D01*
G75*
G02*
X121923000Y-89890000I0J-200000D01*
G01*
X121923000Y-91890000D01*
G75*
G02*
X121723000Y-92090000I-200000J0D01*
G01*
X120923000Y-92090000D01*
G75*
G02*
X120723000Y-91890000I0J200000D01*
G01*
X120723000Y-89890000D01*
G75*
G02*
X120923000Y-89690000I200000J0D01*
G01*
G37*
G36*
G01*
X119423000Y-89690000D02*
X120223000Y-89690000D01*
G75*
G02*
X120423000Y-89890000I0J-200000D01*
G01*
X120423000Y-91890000D01*
G75*
G02*
X120223000Y-92090000I-200000J0D01*
G01*
X119423000Y-92090000D01*
G75*
G02*
X119223000Y-91890000I0J200000D01*
G01*
X119223000Y-89890000D01*
G75*
G02*
X119423000Y-89690000I200000J0D01*
G01*
G37*
G36*
G01*
X119423000Y-75550000D02*
X120223000Y-75550000D01*
G75*
G02*
X120423000Y-75750000I0J-200000D01*
G01*
X120423000Y-77750000D01*
G75*
G02*
X120223000Y-77950000I-200000J0D01*
G01*
X119423000Y-77950000D01*
G75*
G02*
X119223000Y-77750000I0J200000D01*
G01*
X119223000Y-75750000D01*
G75*
G02*
X119423000Y-75550000I200000J0D01*
G01*
G37*
G36*
G01*
X117923000Y-75550000D02*
X118723000Y-75550000D01*
G75*
G02*
X118923000Y-75750000I0J-200000D01*
G01*
X118923000Y-77750000D01*
G75*
G02*
X118723000Y-77950000I-200000J0D01*
G01*
X117923000Y-77950000D01*
G75*
G02*
X117723000Y-77750000I0J200000D01*
G01*
X117723000Y-75750000D01*
G75*
G02*
X117923000Y-75550000I200000J0D01*
G01*
G37*
G36*
G01*
X128923000Y-88470000D02*
X130923000Y-88470000D01*
G75*
G02*
X131123000Y-88670000I0J-200000D01*
G01*
X131123000Y-89470000D01*
G75*
G02*
X130923000Y-89670000I-200000J0D01*
G01*
X128923000Y-89670000D01*
G75*
G02*
X128723000Y-89470000I0J200000D01*
G01*
X128723000Y-88670000D01*
G75*
G02*
X128923000Y-88470000I200000J0D01*
G01*
G37*
G36*
G01*
X117923000Y-89690000D02*
X118723000Y-89690000D01*
G75*
G02*
X118923000Y-89890000I0J-200000D01*
G01*
X118923000Y-91890000D01*
G75*
G02*
X118723000Y-92090000I-200000J0D01*
G01*
X117923000Y-92090000D01*
G75*
G02*
X117723000Y-91890000I0J200000D01*
G01*
X117723000Y-89890000D01*
G75*
G02*
X117923000Y-89690000I200000J0D01*
G01*
G37*
D13*
X137744200Y-84886800D03*
X135204200Y-84886800D03*
X137744200Y-82346800D03*
X135204200Y-82346800D03*
X137744200Y-79806800D03*
X135204200Y-79806800D03*
X137744200Y-77266800D03*
D14*
X135204200Y-77266800D03*
G36*
G01*
X137143500Y-90356500D02*
X136668500Y-90356500D01*
G75*
G02*
X136431000Y-90119000I0J237500D01*
G01*
X136431000Y-89619000D01*
G75*
G02*
X136668500Y-89381500I237500J0D01*
G01*
X137143500Y-89381500D01*
G75*
G02*
X137381000Y-89619000I0J-237500D01*
G01*
X137381000Y-90119000D01*
G75*
G02*
X137143500Y-90356500I-237500J0D01*
G01*
G37*
G36*
G01*
X137143500Y-92181500D02*
X136668500Y-92181500D01*
G75*
G02*
X136431000Y-91944000I0J237500D01*
G01*
X136431000Y-91444000D01*
G75*
G02*
X136668500Y-91206500I237500J0D01*
G01*
X137143500Y-91206500D01*
G75*
G02*
X137381000Y-91444000I0J-237500D01*
G01*
X137381000Y-91944000D01*
G75*
G02*
X137143500Y-92181500I-237500J0D01*
G01*
G37*
D15*
X131982000Y-90634000D03*
X138782000Y-90634000D03*
G36*
G01*
X137989500Y-88375500D02*
X137989500Y-87900500D01*
G75*
G02*
X138227000Y-87663000I237500J0D01*
G01*
X138727000Y-87663000D01*
G75*
G02*
X138964500Y-87900500I0J-237500D01*
G01*
X138964500Y-88375500D01*
G75*
G02*
X138727000Y-88613000I-237500J0D01*
G01*
X138227000Y-88613000D01*
G75*
G02*
X137989500Y-88375500I0J237500D01*
G01*
G37*
G36*
G01*
X136164500Y-88375500D02*
X136164500Y-87900500D01*
G75*
G02*
X136402000Y-87663000I237500J0D01*
G01*
X136902000Y-87663000D01*
G75*
G02*
X137139500Y-87900500I0J-237500D01*
G01*
X137139500Y-88375500D01*
G75*
G02*
X136902000Y-88613000I-237500J0D01*
G01*
X136402000Y-88613000D01*
G75*
G02*
X136164500Y-88375500I0J237500D01*
G01*
G37*
G36*
G01*
X134386500Y-88375500D02*
X134386500Y-87900500D01*
G75*
G02*
X134624000Y-87663000I237500J0D01*
G01*
X135124000Y-87663000D01*
G75*
G02*
X135361500Y-87900500I0J-237500D01*
G01*
X135361500Y-88375500D01*
G75*
G02*
X135124000Y-88613000I-237500J0D01*
G01*
X134624000Y-88613000D01*
G75*
G02*
X134386500Y-88375500I0J237500D01*
G01*
G37*
G36*
G01*
X132561500Y-88375500D02*
X132561500Y-87900500D01*
G75*
G02*
X132799000Y-87663000I237500J0D01*
G01*
X133299000Y-87663000D01*
G75*
G02*
X133536500Y-87900500I0J-237500D01*
G01*
X133536500Y-88375500D01*
G75*
G02*
X133299000Y-88613000I-237500J0D01*
G01*
X132799000Y-88613000D01*
G75*
G02*
X132561500Y-88375500I0J237500D01*
G01*
G37*
G36*
G01*
X134876250Y-91928500D02*
X134363750Y-91928500D01*
G75*
G02*
X134145000Y-91709750I0J218750D01*
G01*
X134145000Y-91272250D01*
G75*
G02*
X134363750Y-91053500I218750J0D01*
G01*
X134876250Y-91053500D01*
G75*
G02*
X135095000Y-91272250I0J-218750D01*
G01*
X135095000Y-91709750D01*
G75*
G02*
X134876250Y-91928500I-218750J0D01*
G01*
G37*
G36*
G01*
X134876250Y-90353500D02*
X134363750Y-90353500D01*
G75*
G02*
X134145000Y-90134750I0J218750D01*
G01*
X134145000Y-89697250D01*
G75*
G02*
X134363750Y-89478500I218750J0D01*
G01*
X134876250Y-89478500D01*
G75*
G02*
X135095000Y-89697250I0J-218750D01*
G01*
X135095000Y-90134750D01*
G75*
G02*
X134876250Y-90353500I-218750J0D01*
G01*
G37*
M02*
