%TF.GenerationSoftware,KiCad,Pcbnew,(5.1.10)-1*%
%TF.CreationDate,2021-10-03T20:24:18-05:00*%
%TF.ProjectId,wireless_measurement_ard,77697265-6c65-4737-935f-6d6561737572,rev?*%
%TF.SameCoordinates,Original*%
%TF.FileFunction,Copper,L1,Top*%
%TF.FilePolarity,Positive*%
%FSLAX46Y46*%
G04 Gerber Fmt 4.6, Leading zero omitted, Abs format (unit mm)*
G04 Created by KiCad (PCBNEW (5.1.10)-1) date 2021-10-03 20:24:18*
%MOMM*%
%LPD*%
G01*
G04 APERTURE LIST*
%TA.AperFunction,SMDPad,CuDef*%
%ADD10R,2.000000X0.800000*%
%TD*%
%TA.AperFunction,SMDPad,CuDef*%
%ADD11R,0.800000X2.000000*%
%TD*%
%TA.AperFunction,ConnectorPad*%
%ADD12C,0.787400*%
%TD*%
%TA.AperFunction,ComponentPad*%
%ADD13O,1.700000X1.700000*%
%TD*%
%TA.AperFunction,ComponentPad*%
%ADD14R,1.700000X1.700000*%
%TD*%
%TA.AperFunction,ViaPad*%
%ADD15C,0.800000*%
%TD*%
%TA.AperFunction,Conductor*%
%ADD16C,0.210000*%
%TD*%
%TA.AperFunction,Conductor*%
%ADD17C,0.500000*%
%TD*%
%TA.AperFunction,Conductor*%
%ADD18C,0.250000*%
%TD*%
%TA.AperFunction,Conductor*%
%ADD19C,0.254000*%
%TD*%
%TA.AperFunction,Conductor*%
%ADD20C,0.100000*%
%TD*%
G04 APERTURE END LIST*
D10*
%TO.P,U2,16*%
%TO.N,Net-(U2-Pad16)*%
X129796000Y-78570000D03*
%TO.P,U2,15*%
%TO.N,Net-(U2-Pad15)*%
X129796000Y-80070000D03*
%TO.P,U2,14*%
%TO.N,Net-(U2-Pad14)*%
X129796000Y-81570000D03*
%TO.P,U2,13*%
%TO.N,Net-(U2-Pad13)*%
X129796000Y-83070000D03*
%TO.P,U2,12*%
%TO.N,Net-(U2-Pad12)*%
X129796000Y-84570000D03*
%TO.P,U2,11*%
%TO.N,Net-(U2-Pad11)*%
X129796000Y-86070000D03*
%TO.P,U2,10*%
%TO.N,Net-(U2-Pad10)*%
X129796000Y-87570000D03*
D11*
%TO.P,U2,8*%
%TO.N,Net-(U2-Pad8)*%
X128696000Y-90890000D03*
%TO.P,U2,17*%
%TO.N,Net-(U2-Pad17)*%
X128696000Y-76750000D03*
%TO.P,U2,18*%
%TO.N,Net-(U2-Pad18)*%
X127196000Y-76750000D03*
%TO.P,U2,7*%
%TO.N,Net-(U2-Pad7)*%
X127196000Y-90890000D03*
%TO.P,U2,6*%
%TO.N,STATUS*%
X125696000Y-90890000D03*
%TO.P,U2,19*%
%TO.N,ARD_RX*%
X125696000Y-76750000D03*
%TO.P,U2,20*%
%TO.N,ARD_TX*%
X124196000Y-76750000D03*
%TO.P,U2,5*%
%TO.N,N/C*%
X124196000Y-90890000D03*
%TO.P,U2,4*%
X122696000Y-90890000D03*
%TO.P,U2,21*%
%TO.N,Net-(U2-Pad21)*%
X122696000Y-76750000D03*
%TO.P,U2,22*%
%TO.N,PWRC*%
X121196000Y-76750000D03*
%TO.P,U2,3*%
%TO.N,Net-(U2-Pad3)*%
X121196000Y-90890000D03*
%TO.P,U2,2*%
%TO.N,Net-(U2-Pad2)*%
X119696000Y-90890000D03*
%TO.P,U2,23*%
%TO.N,Net-(U2-Pad23)*%
X119696000Y-76750000D03*
%TO.P,U2,24*%
%TO.N,GND*%
X118196000Y-76750000D03*
D10*
%TO.P,U2,9*%
%TO.N,Net-(U2-Pad9)*%
X129796000Y-89070000D03*
D11*
%TO.P,U2,1*%
%TO.N,+3V3*%
X118196000Y-90890000D03*
%TD*%
D12*
%TO.P,J2,6*%
%TO.N,GND*%
X132334000Y-94869000D03*
%TO.P,J2,5*%
%TO.N,C2D*%
X132334000Y-96139000D03*
%TO.P,J2,4*%
%TO.N,Net-(J2-Pad4)*%
X131064000Y-94869000D03*
%TO.P,J2,3*%
%TO.N,C2CK*%
X131064000Y-96139000D03*
%TO.P,J2,2*%
%TO.N,Net-(J2-Pad2)*%
X129794000Y-94869000D03*
%TO.P,J2,1*%
%TO.N,BATT*%
X129794000Y-96139000D03*
%TD*%
D13*
%TO.P,J1,8*%
%TO.N,GND*%
X136956800Y-95453200D03*
%TO.P,J1,7*%
%TO.N,+3V3*%
X136956800Y-92913200D03*
%TO.P,J1,6*%
%TO.N,A4*%
X136956800Y-90373200D03*
%TO.P,J1,5*%
%TO.N,VHIGH*%
X136956800Y-87833200D03*
%TO.P,J1,4*%
%TO.N,A2*%
X136956800Y-85293200D03*
%TO.P,J1,3*%
%TO.N,A1*%
X136956800Y-82753200D03*
%TO.P,J1,2*%
%TO.N,C1_OUT*%
X136956800Y-80213200D03*
D14*
%TO.P,J1,1*%
%TO.N,C1_IN*%
X136956800Y-77673200D03*
%TD*%
D13*
%TO.P,Battery1,2*%
%TO.N,GND*%
X124968000Y-95758000D03*
D14*
%TO.P,Battery1,1*%
%TO.N,BATT*%
X122428000Y-95758000D03*
%TD*%
%TO.P,D1,1*%
%TO.N,Net-(D1-Pad1)*%
%TA.AperFunction,SMDPad,CuDef*%
G36*
G01*
X134575000Y-76705750D02*
X134575000Y-77218250D01*
G75*
G02*
X134356250Y-77437000I-218750J0D01*
G01*
X133918750Y-77437000D01*
G75*
G02*
X133700000Y-77218250I0J218750D01*
G01*
X133700000Y-76705750D01*
G75*
G02*
X133918750Y-76487000I218750J0D01*
G01*
X134356250Y-76487000D01*
G75*
G02*
X134575000Y-76705750I0J-218750D01*
G01*
G37*
%TD.AperFunction*%
%TO.P,D1,2*%
%TO.N,LED*%
%TA.AperFunction,SMDPad,CuDef*%
G36*
G01*
X133000000Y-76705750D02*
X133000000Y-77218250D01*
G75*
G02*
X132781250Y-77437000I-218750J0D01*
G01*
X132343750Y-77437000D01*
G75*
G02*
X132125000Y-77218250I0J218750D01*
G01*
X132125000Y-76705750D01*
G75*
G02*
X132343750Y-76487000I218750J0D01*
G01*
X132781250Y-76487000D01*
G75*
G02*
X133000000Y-76705750I0J-218750D01*
G01*
G37*
%TD.AperFunction*%
%TD*%
%TO.P,R3,1*%
%TO.N,Net-(D1-Pad1)*%
%TA.AperFunction,SMDPad,CuDef*%
G36*
G01*
X133239500Y-78215000D02*
X133714500Y-78215000D01*
G75*
G02*
X133952000Y-78452500I0J-237500D01*
G01*
X133952000Y-79027500D01*
G75*
G02*
X133714500Y-79265000I-237500J0D01*
G01*
X133239500Y-79265000D01*
G75*
G02*
X133002000Y-79027500I0J237500D01*
G01*
X133002000Y-78452500D01*
G75*
G02*
X133239500Y-78215000I237500J0D01*
G01*
G37*
%TD.AperFunction*%
%TO.P,R3,2*%
%TO.N,GND*%
%TA.AperFunction,SMDPad,CuDef*%
G36*
G01*
X133239500Y-79965000D02*
X133714500Y-79965000D01*
G75*
G02*
X133952000Y-80202500I0J-237500D01*
G01*
X133952000Y-80777500D01*
G75*
G02*
X133714500Y-81015000I-237500J0D01*
G01*
X133239500Y-81015000D01*
G75*
G02*
X133002000Y-80777500I0J237500D01*
G01*
X133002000Y-80202500D01*
G75*
G02*
X133239500Y-79965000I237500J0D01*
G01*
G37*
%TD.AperFunction*%
%TD*%
D15*
%TO.N,GND*%
X121437400Y-84099400D03*
X133349976Y-75946000D03*
X139039600Y-78816200D03*
X119062500Y-79070200D03*
X132269377Y-84652075D03*
X131940300Y-81330800D03*
X127580398Y-78702042D03*
%TO.N,+3V3*%
X123698000Y-87122000D03*
X120243600Y-94157800D03*
X121945400Y-88976200D03*
X126326900Y-78841600D03*
%TO.N,ARD_RX*%
X127025785Y-83131525D03*
%TO.N,A0*%
X121920000Y-79438500D03*
X123405900Y-78735958D03*
%TO.N,PWRC*%
X123634500Y-81026000D03*
%TO.N,ARD_TX*%
X125476008Y-83108955D03*
%TO.N,VIN*%
X115062000Y-95758000D03*
X128143000Y-93980010D03*
X123063000Y-93599000D03*
%TO.N,STATUS*%
X125489788Y-81158922D03*
%TO.N,C2D*%
X128437642Y-97388021D03*
%TO.N,C2CK*%
X127248771Y-97054980D03*
%TO.N,LED*%
X133262766Y-83569871D03*
%TD*%
D16*
%TO.N,GND*%
X122247000Y-84909000D02*
X121412000Y-84074000D01*
X132918200Y-95453200D02*
X136956800Y-95453200D01*
X132334000Y-94869000D02*
X132918200Y-95453200D01*
X131705299Y-94240299D02*
X132334000Y-94869000D01*
X129492223Y-94240299D02*
X131705299Y-94240299D01*
X128958823Y-94773699D02*
X129492223Y-94240299D01*
X125952301Y-94773699D02*
X128958823Y-94773699D01*
X124968000Y-95758000D02*
X125952301Y-94773699D01*
X133458001Y-76054025D02*
X133349976Y-75946000D01*
X135382000Y-78585000D02*
X133477000Y-80490000D01*
X135382000Y-76835000D02*
X135382000Y-78585000D01*
X134493000Y-75946000D02*
X135382000Y-76835000D01*
X133349976Y-75946000D02*
X134493000Y-75946000D01*
X121412000Y-84074000D02*
X121412000Y-83058000D01*
X118196000Y-79842000D02*
X118196000Y-76750000D01*
X121412000Y-83058000D02*
X118196000Y-79842000D01*
X118196000Y-79842000D02*
X118265300Y-79842000D01*
X119037100Y-79070200D02*
X119062500Y-79070200D01*
X118265300Y-79842000D02*
X119037100Y-79070200D01*
X133807200Y-84175600D02*
X133330725Y-84652075D01*
X132835062Y-84652075D02*
X132269377Y-84652075D01*
X133330725Y-84652075D02*
X132835062Y-84652075D01*
X131031001Y-79387999D02*
X130984001Y-79434999D01*
X128313355Y-79434999D02*
X127580398Y-78702042D01*
X132461784Y-75946000D02*
X131031001Y-77376783D01*
X130984001Y-79434999D02*
X128313355Y-79434999D01*
X133349976Y-75946000D02*
X132461784Y-75946000D01*
X131031001Y-77376783D02*
X131031001Y-79387999D01*
D17*
%TO.N,+3V3*%
X118196000Y-89449000D02*
X119507000Y-88138000D01*
X118196000Y-90890000D02*
X118196000Y-89449000D01*
D16*
X122682000Y-88138000D02*
X123698000Y-87122000D01*
X136956800Y-92913200D02*
X121488200Y-92913200D01*
X121488200Y-92913200D02*
X120243600Y-94157800D01*
X118196000Y-90890000D02*
X118196000Y-92110200D01*
X118196000Y-92110200D02*
X120243600Y-94157800D01*
X122682000Y-88239600D02*
X122682000Y-88138000D01*
X121945400Y-88976200D02*
X122682000Y-88239600D01*
X120345200Y-88976200D02*
X119507000Y-88138000D01*
X121945400Y-88976200D02*
X120345200Y-88976200D01*
X136956800Y-92913200D02*
X131140200Y-87096600D01*
X128190301Y-80705001D02*
X126326900Y-78841600D01*
X131140200Y-87096600D02*
X131140200Y-81051400D01*
X130793801Y-80705001D02*
X128190301Y-80705001D01*
X131140200Y-81051400D02*
X130793801Y-80705001D01*
%TO.N,ARD_RX*%
X127025785Y-82321785D02*
X127025785Y-83131525D01*
X125641099Y-79146401D02*
X127025785Y-80531087D01*
X127025785Y-80531087D02*
X127025785Y-83131525D01*
X125641099Y-76804901D02*
X125641099Y-79146401D01*
X125696000Y-76750000D02*
X125641099Y-76804901D01*
%TO.N,A0*%
X122703358Y-79438500D02*
X123405900Y-78735958D01*
X121920000Y-79438500D02*
X122703358Y-79438500D01*
%TO.N,PWRC*%
X121196000Y-76750000D02*
X121196000Y-80149607D01*
X122072393Y-81026000D02*
X123634500Y-81026000D01*
X121196000Y-80149607D02*
X122072393Y-81026000D01*
%TO.N,ARD_TX*%
X124196000Y-76750000D02*
X124307601Y-76861601D01*
X124307601Y-81940548D02*
X125476008Y-83108955D01*
X124307601Y-76861601D02*
X124307601Y-81940548D01*
D17*
%TO.N,VIN*%
X128143000Y-93980010D02*
X123444010Y-93980010D01*
X123444010Y-93980010D02*
X123063000Y-93599000D01*
X115062000Y-95758000D02*
X115907598Y-94912402D01*
X119869198Y-94937802D02*
X120618002Y-94937802D01*
X119843798Y-94912402D02*
X119869198Y-94937802D01*
X115907598Y-94912402D02*
X119843798Y-94912402D01*
X120618002Y-94937802D02*
X121956804Y-93599000D01*
X121956804Y-93599000D02*
X123063000Y-93599000D01*
D16*
%TO.N,STATUS*%
X126390775Y-90805225D02*
X126390775Y-82059909D01*
X126390775Y-82059909D02*
X125489788Y-81158922D01*
X125696000Y-90890000D02*
X126306000Y-90890000D01*
X126306000Y-90890000D02*
X126390775Y-90805225D01*
%TO.N,C2D*%
X131084979Y-97388021D02*
X128437642Y-97388021D01*
X132334000Y-96139000D02*
X131084979Y-97388021D01*
%TO.N,C2CK*%
X128807823Y-96753011D02*
X127550740Y-96753011D01*
X128955812Y-96901000D02*
X128807823Y-96753011D01*
X127550740Y-96753011D02*
X127248771Y-97054980D01*
X130302000Y-96901000D02*
X128955812Y-96901000D01*
X131064000Y-96139000D02*
X130302000Y-96901000D01*
%TO.N,Net-(D1-Pad1)*%
X133477000Y-77622500D02*
X134137500Y-76962000D01*
X133477000Y-78740000D02*
X133477000Y-77622500D01*
D18*
%TO.N,BATT*%
X129413000Y-96139000D02*
X129794000Y-96139000D01*
X129159000Y-96393000D02*
X129413000Y-96139000D01*
X122979000Y-97409000D02*
X125649598Y-97409000D01*
X126665598Y-96393000D02*
X129159000Y-96393000D01*
X125649598Y-97409000D02*
X126665598Y-96393000D01*
X122428000Y-96858000D02*
X122979000Y-97409000D01*
X122428000Y-95758000D02*
X122428000Y-96858000D01*
D16*
%TO.N,LED*%
X131699000Y-79905232D02*
X133262766Y-81468998D01*
X132562500Y-76962000D02*
X132125000Y-76962000D01*
X131699000Y-77388000D02*
X131699000Y-79905232D01*
X133262766Y-81468998D02*
X133262766Y-83569871D01*
X132125000Y-76962000D02*
X131699000Y-77388000D01*
%TO.N,VHIGH*%
X136067800Y-87833200D02*
X136956800Y-87833200D01*
%TD*%
D19*
%TO.N,GND*%
X139290001Y-97290000D02*
X134432485Y-97290000D01*
X134481961Y-97240524D01*
X134605659Y-97055398D01*
X134690863Y-96849696D01*
X134734300Y-96631325D01*
X134734300Y-96408675D01*
X134690863Y-96190304D01*
X134605659Y-95984602D01*
X134489054Y-95810090D01*
X135515324Y-95810090D01*
X135559975Y-95957299D01*
X135685159Y-96220120D01*
X135859212Y-96453469D01*
X136075445Y-96648378D01*
X136325548Y-96797357D01*
X136599909Y-96894681D01*
X136829800Y-96774014D01*
X136829800Y-95580200D01*
X137083800Y-95580200D01*
X137083800Y-96774014D01*
X137313691Y-96894681D01*
X137588052Y-96797357D01*
X137838155Y-96648378D01*
X138054388Y-96453469D01*
X138228441Y-96220120D01*
X138353625Y-95957299D01*
X138398276Y-95810090D01*
X138276955Y-95580200D01*
X137083800Y-95580200D01*
X136829800Y-95580200D01*
X135636645Y-95580200D01*
X135515324Y-95810090D01*
X134489054Y-95810090D01*
X134481961Y-95799476D01*
X134324524Y-95642039D01*
X134139398Y-95518341D01*
X134104776Y-95504000D01*
X134139398Y-95489659D01*
X134324524Y-95365961D01*
X134481961Y-95208524D01*
X134605659Y-95023398D01*
X134690863Y-94817696D01*
X134734300Y-94599325D01*
X134734300Y-94376675D01*
X134690863Y-94158304D01*
X134605659Y-93952602D01*
X134481961Y-93767476D01*
X134367685Y-93653200D01*
X135665258Y-93653200D01*
X135803325Y-93859832D01*
X136010168Y-94066675D01*
X136192334Y-94188395D01*
X136075445Y-94258022D01*
X135859212Y-94452931D01*
X135685159Y-94686280D01*
X135559975Y-94949101D01*
X135515324Y-95096310D01*
X135636645Y-95326200D01*
X136829800Y-95326200D01*
X136829800Y-95306200D01*
X137083800Y-95306200D01*
X137083800Y-95326200D01*
X138276955Y-95326200D01*
X138398276Y-95096310D01*
X138353625Y-94949101D01*
X138228441Y-94686280D01*
X138054388Y-94452931D01*
X137838155Y-94258022D01*
X137721266Y-94188395D01*
X137903432Y-94066675D01*
X138110275Y-93859832D01*
X138272790Y-93616611D01*
X138384732Y-93346358D01*
X138441800Y-93059460D01*
X138441800Y-92766940D01*
X138384732Y-92480042D01*
X138272790Y-92209789D01*
X138110275Y-91966568D01*
X137903432Y-91759725D01*
X137729040Y-91643200D01*
X137903432Y-91526675D01*
X138110275Y-91319832D01*
X138272790Y-91076611D01*
X138384732Y-90806358D01*
X138441800Y-90519460D01*
X138441800Y-90226940D01*
X138384732Y-89940042D01*
X138272790Y-89669789D01*
X138110275Y-89426568D01*
X137903432Y-89219725D01*
X137729040Y-89103200D01*
X137903432Y-88986675D01*
X138110275Y-88779832D01*
X138272790Y-88536611D01*
X138384732Y-88266358D01*
X138441800Y-87979460D01*
X138441800Y-87686940D01*
X138384732Y-87400042D01*
X138272790Y-87129789D01*
X138110275Y-86886568D01*
X137903432Y-86679725D01*
X137729040Y-86563200D01*
X137903432Y-86446675D01*
X138110275Y-86239832D01*
X138272790Y-85996611D01*
X138384732Y-85726358D01*
X138441800Y-85439460D01*
X138441800Y-85146940D01*
X138384732Y-84860042D01*
X138272790Y-84589789D01*
X138110275Y-84346568D01*
X137903432Y-84139725D01*
X137729040Y-84023200D01*
X137903432Y-83906675D01*
X138110275Y-83699832D01*
X138272790Y-83456611D01*
X138384732Y-83186358D01*
X138441800Y-82899460D01*
X138441800Y-82606940D01*
X138384732Y-82320042D01*
X138272790Y-82049789D01*
X138110275Y-81806568D01*
X137903432Y-81599725D01*
X137729040Y-81483200D01*
X137903432Y-81366675D01*
X138110275Y-81159832D01*
X138272790Y-80916611D01*
X138384732Y-80646358D01*
X138441800Y-80359460D01*
X138441800Y-80066940D01*
X138384732Y-79780042D01*
X138272790Y-79509789D01*
X138110275Y-79266568D01*
X137978420Y-79134713D01*
X138050980Y-79112702D01*
X138161294Y-79053737D01*
X138257985Y-78974385D01*
X138337337Y-78877694D01*
X138396302Y-78767380D01*
X138432612Y-78647682D01*
X138444872Y-78523200D01*
X138444872Y-76823200D01*
X138432612Y-76698718D01*
X138396302Y-76579020D01*
X138337337Y-76468706D01*
X138257985Y-76372015D01*
X138161294Y-76292663D01*
X138050980Y-76233698D01*
X137931282Y-76197388D01*
X137806800Y-76185128D01*
X136106800Y-76185128D01*
X135982318Y-76197388D01*
X135862620Y-76233698D01*
X135752306Y-76292663D01*
X135655615Y-76372015D01*
X135576263Y-76468706D01*
X135517298Y-76579020D01*
X135480988Y-76698718D01*
X135468728Y-76823200D01*
X135468728Y-78523200D01*
X135480988Y-78647682D01*
X135517298Y-78767380D01*
X135576263Y-78877694D01*
X135655615Y-78974385D01*
X135752306Y-79053737D01*
X135862620Y-79112702D01*
X135935180Y-79134713D01*
X135803325Y-79266568D01*
X135640810Y-79509789D01*
X135528868Y-79780042D01*
X135471800Y-80066940D01*
X135471800Y-80359460D01*
X135528868Y-80646358D01*
X135640810Y-80916611D01*
X135803325Y-81159832D01*
X136010168Y-81366675D01*
X136184560Y-81483200D01*
X136010168Y-81599725D01*
X135803325Y-81806568D01*
X135640810Y-82049789D01*
X135528868Y-82320042D01*
X135471800Y-82606940D01*
X135471800Y-82899460D01*
X135528868Y-83186358D01*
X135640810Y-83456611D01*
X135803325Y-83699832D01*
X136010168Y-83906675D01*
X136184560Y-84023200D01*
X136010168Y-84139725D01*
X135803325Y-84346568D01*
X135640810Y-84589789D01*
X135528868Y-84860042D01*
X135471800Y-85146940D01*
X135471800Y-85439460D01*
X135528868Y-85726358D01*
X135640810Y-85996611D01*
X135803325Y-86239832D01*
X136010168Y-86446675D01*
X136184560Y-86563200D01*
X136010168Y-86679725D01*
X135803325Y-86886568D01*
X135640810Y-87129789D01*
X135580230Y-87276044D01*
X135542010Y-87307410D01*
X135449536Y-87420089D01*
X135380822Y-87548644D01*
X135338508Y-87688135D01*
X135324220Y-87833200D01*
X135338508Y-87978265D01*
X135380822Y-88117756D01*
X135449536Y-88246311D01*
X135542010Y-88358990D01*
X135580230Y-88390356D01*
X135640810Y-88536611D01*
X135803325Y-88779832D01*
X136010168Y-88986675D01*
X136184560Y-89103200D01*
X136010168Y-89219725D01*
X135803325Y-89426568D01*
X135640810Y-89669789D01*
X135528868Y-89940042D01*
X135471800Y-90226940D01*
X135471800Y-90381682D01*
X131880200Y-86790083D01*
X131880200Y-81132949D01*
X132522766Y-81775516D01*
X132522767Y-82846159D01*
X132458829Y-82910097D01*
X132345561Y-83079615D01*
X132267540Y-83267973D01*
X132227766Y-83467932D01*
X132227766Y-83671810D01*
X132267540Y-83871769D01*
X132345561Y-84060127D01*
X132458829Y-84229645D01*
X132602992Y-84373808D01*
X132772510Y-84487076D01*
X132960868Y-84565097D01*
X133160827Y-84604871D01*
X133364705Y-84604871D01*
X133564664Y-84565097D01*
X133753022Y-84487076D01*
X133922540Y-84373808D01*
X134066703Y-84229645D01*
X134179971Y-84060127D01*
X134257992Y-83871769D01*
X134297766Y-83671810D01*
X134297766Y-83467932D01*
X134257992Y-83267973D01*
X134179971Y-83079615D01*
X134066703Y-82910097D01*
X134002766Y-82846160D01*
X134002766Y-81648072D01*
X134076482Y-81640812D01*
X134196180Y-81604502D01*
X134306494Y-81545537D01*
X134403185Y-81466185D01*
X134482537Y-81369494D01*
X134541502Y-81259180D01*
X134577812Y-81139482D01*
X134590072Y-81015000D01*
X134587000Y-80775750D01*
X134428250Y-80617000D01*
X133604000Y-80617000D01*
X133604000Y-80637000D01*
X133477286Y-80637000D01*
X133330000Y-80489714D01*
X133330000Y-80363000D01*
X133350000Y-80363000D01*
X133350000Y-80343000D01*
X133604000Y-80343000D01*
X133604000Y-80363000D01*
X134428250Y-80363000D01*
X134587000Y-80204250D01*
X134590072Y-79965000D01*
X134577812Y-79840518D01*
X134541502Y-79720820D01*
X134482537Y-79610506D01*
X134422901Y-79537839D01*
X134442512Y-79513942D01*
X134523423Y-79362567D01*
X134573248Y-79198316D01*
X134590072Y-79027500D01*
X134590072Y-78452500D01*
X134573248Y-78281684D01*
X134523423Y-78117433D01*
X134493552Y-78061549D01*
X134523408Y-78058608D01*
X134684142Y-78009850D01*
X134832275Y-77930671D01*
X134962115Y-77824115D01*
X135068671Y-77694275D01*
X135147850Y-77546142D01*
X135196608Y-77385408D01*
X135213072Y-77218250D01*
X135213072Y-76705750D01*
X135196608Y-76538592D01*
X135147850Y-76377858D01*
X135068671Y-76229725D01*
X134962115Y-76099885D01*
X134832275Y-75993329D01*
X134684142Y-75914150D01*
X134523408Y-75865392D01*
X134356250Y-75848928D01*
X133918750Y-75848928D01*
X133751592Y-75865392D01*
X133590858Y-75914150D01*
X133442725Y-75993329D01*
X133350000Y-76069426D01*
X133257275Y-75993329D01*
X133109142Y-75914150D01*
X132948408Y-75865392D01*
X132781250Y-75848928D01*
X132343750Y-75848928D01*
X132176592Y-75865392D01*
X132015858Y-75914150D01*
X131867725Y-75993329D01*
X131737885Y-76099885D01*
X131631329Y-76229725D01*
X131552150Y-76377858D01*
X131504046Y-76536437D01*
X131201445Y-76839038D01*
X131173210Y-76862210D01*
X131080736Y-76974890D01*
X131012022Y-77103445D01*
X130969708Y-77242936D01*
X130959000Y-77351654D01*
X130959000Y-77351660D01*
X130955421Y-77388000D01*
X130959000Y-77424340D01*
X130959000Y-77555872D01*
X130920482Y-77544188D01*
X130796000Y-77531928D01*
X129734072Y-77531928D01*
X129734072Y-75750000D01*
X129730132Y-75710000D01*
X139290000Y-75710000D01*
X139290001Y-97290000D01*
%TA.AperFunction,Conductor*%
D20*
G36*
X139290001Y-97290000D02*
G01*
X134432485Y-97290000D01*
X134481961Y-97240524D01*
X134605659Y-97055398D01*
X134690863Y-96849696D01*
X134734300Y-96631325D01*
X134734300Y-96408675D01*
X134690863Y-96190304D01*
X134605659Y-95984602D01*
X134489054Y-95810090D01*
X135515324Y-95810090D01*
X135559975Y-95957299D01*
X135685159Y-96220120D01*
X135859212Y-96453469D01*
X136075445Y-96648378D01*
X136325548Y-96797357D01*
X136599909Y-96894681D01*
X136829800Y-96774014D01*
X136829800Y-95580200D01*
X137083800Y-95580200D01*
X137083800Y-96774014D01*
X137313691Y-96894681D01*
X137588052Y-96797357D01*
X137838155Y-96648378D01*
X138054388Y-96453469D01*
X138228441Y-96220120D01*
X138353625Y-95957299D01*
X138398276Y-95810090D01*
X138276955Y-95580200D01*
X137083800Y-95580200D01*
X136829800Y-95580200D01*
X135636645Y-95580200D01*
X135515324Y-95810090D01*
X134489054Y-95810090D01*
X134481961Y-95799476D01*
X134324524Y-95642039D01*
X134139398Y-95518341D01*
X134104776Y-95504000D01*
X134139398Y-95489659D01*
X134324524Y-95365961D01*
X134481961Y-95208524D01*
X134605659Y-95023398D01*
X134690863Y-94817696D01*
X134734300Y-94599325D01*
X134734300Y-94376675D01*
X134690863Y-94158304D01*
X134605659Y-93952602D01*
X134481961Y-93767476D01*
X134367685Y-93653200D01*
X135665258Y-93653200D01*
X135803325Y-93859832D01*
X136010168Y-94066675D01*
X136192334Y-94188395D01*
X136075445Y-94258022D01*
X135859212Y-94452931D01*
X135685159Y-94686280D01*
X135559975Y-94949101D01*
X135515324Y-95096310D01*
X135636645Y-95326200D01*
X136829800Y-95326200D01*
X136829800Y-95306200D01*
X137083800Y-95306200D01*
X137083800Y-95326200D01*
X138276955Y-95326200D01*
X138398276Y-95096310D01*
X138353625Y-94949101D01*
X138228441Y-94686280D01*
X138054388Y-94452931D01*
X137838155Y-94258022D01*
X137721266Y-94188395D01*
X137903432Y-94066675D01*
X138110275Y-93859832D01*
X138272790Y-93616611D01*
X138384732Y-93346358D01*
X138441800Y-93059460D01*
X138441800Y-92766940D01*
X138384732Y-92480042D01*
X138272790Y-92209789D01*
X138110275Y-91966568D01*
X137903432Y-91759725D01*
X137729040Y-91643200D01*
X137903432Y-91526675D01*
X138110275Y-91319832D01*
X138272790Y-91076611D01*
X138384732Y-90806358D01*
X138441800Y-90519460D01*
X138441800Y-90226940D01*
X138384732Y-89940042D01*
X138272790Y-89669789D01*
X138110275Y-89426568D01*
X137903432Y-89219725D01*
X137729040Y-89103200D01*
X137903432Y-88986675D01*
X138110275Y-88779832D01*
X138272790Y-88536611D01*
X138384732Y-88266358D01*
X138441800Y-87979460D01*
X138441800Y-87686940D01*
X138384732Y-87400042D01*
X138272790Y-87129789D01*
X138110275Y-86886568D01*
X137903432Y-86679725D01*
X137729040Y-86563200D01*
X137903432Y-86446675D01*
X138110275Y-86239832D01*
X138272790Y-85996611D01*
X138384732Y-85726358D01*
X138441800Y-85439460D01*
X138441800Y-85146940D01*
X138384732Y-84860042D01*
X138272790Y-84589789D01*
X138110275Y-84346568D01*
X137903432Y-84139725D01*
X137729040Y-84023200D01*
X137903432Y-83906675D01*
X138110275Y-83699832D01*
X138272790Y-83456611D01*
X138384732Y-83186358D01*
X138441800Y-82899460D01*
X138441800Y-82606940D01*
X138384732Y-82320042D01*
X138272790Y-82049789D01*
X138110275Y-81806568D01*
X137903432Y-81599725D01*
X137729040Y-81483200D01*
X137903432Y-81366675D01*
X138110275Y-81159832D01*
X138272790Y-80916611D01*
X138384732Y-80646358D01*
X138441800Y-80359460D01*
X138441800Y-80066940D01*
X138384732Y-79780042D01*
X138272790Y-79509789D01*
X138110275Y-79266568D01*
X137978420Y-79134713D01*
X138050980Y-79112702D01*
X138161294Y-79053737D01*
X138257985Y-78974385D01*
X138337337Y-78877694D01*
X138396302Y-78767380D01*
X138432612Y-78647682D01*
X138444872Y-78523200D01*
X138444872Y-76823200D01*
X138432612Y-76698718D01*
X138396302Y-76579020D01*
X138337337Y-76468706D01*
X138257985Y-76372015D01*
X138161294Y-76292663D01*
X138050980Y-76233698D01*
X137931282Y-76197388D01*
X137806800Y-76185128D01*
X136106800Y-76185128D01*
X135982318Y-76197388D01*
X135862620Y-76233698D01*
X135752306Y-76292663D01*
X135655615Y-76372015D01*
X135576263Y-76468706D01*
X135517298Y-76579020D01*
X135480988Y-76698718D01*
X135468728Y-76823200D01*
X135468728Y-78523200D01*
X135480988Y-78647682D01*
X135517298Y-78767380D01*
X135576263Y-78877694D01*
X135655615Y-78974385D01*
X135752306Y-79053737D01*
X135862620Y-79112702D01*
X135935180Y-79134713D01*
X135803325Y-79266568D01*
X135640810Y-79509789D01*
X135528868Y-79780042D01*
X135471800Y-80066940D01*
X135471800Y-80359460D01*
X135528868Y-80646358D01*
X135640810Y-80916611D01*
X135803325Y-81159832D01*
X136010168Y-81366675D01*
X136184560Y-81483200D01*
X136010168Y-81599725D01*
X135803325Y-81806568D01*
X135640810Y-82049789D01*
X135528868Y-82320042D01*
X135471800Y-82606940D01*
X135471800Y-82899460D01*
X135528868Y-83186358D01*
X135640810Y-83456611D01*
X135803325Y-83699832D01*
X136010168Y-83906675D01*
X136184560Y-84023200D01*
X136010168Y-84139725D01*
X135803325Y-84346568D01*
X135640810Y-84589789D01*
X135528868Y-84860042D01*
X135471800Y-85146940D01*
X135471800Y-85439460D01*
X135528868Y-85726358D01*
X135640810Y-85996611D01*
X135803325Y-86239832D01*
X136010168Y-86446675D01*
X136184560Y-86563200D01*
X136010168Y-86679725D01*
X135803325Y-86886568D01*
X135640810Y-87129789D01*
X135580230Y-87276044D01*
X135542010Y-87307410D01*
X135449536Y-87420089D01*
X135380822Y-87548644D01*
X135338508Y-87688135D01*
X135324220Y-87833200D01*
X135338508Y-87978265D01*
X135380822Y-88117756D01*
X135449536Y-88246311D01*
X135542010Y-88358990D01*
X135580230Y-88390356D01*
X135640810Y-88536611D01*
X135803325Y-88779832D01*
X136010168Y-88986675D01*
X136184560Y-89103200D01*
X136010168Y-89219725D01*
X135803325Y-89426568D01*
X135640810Y-89669789D01*
X135528868Y-89940042D01*
X135471800Y-90226940D01*
X135471800Y-90381682D01*
X131880200Y-86790083D01*
X131880200Y-81132949D01*
X132522766Y-81775516D01*
X132522767Y-82846159D01*
X132458829Y-82910097D01*
X132345561Y-83079615D01*
X132267540Y-83267973D01*
X132227766Y-83467932D01*
X132227766Y-83671810D01*
X132267540Y-83871769D01*
X132345561Y-84060127D01*
X132458829Y-84229645D01*
X132602992Y-84373808D01*
X132772510Y-84487076D01*
X132960868Y-84565097D01*
X133160827Y-84604871D01*
X133364705Y-84604871D01*
X133564664Y-84565097D01*
X133753022Y-84487076D01*
X133922540Y-84373808D01*
X134066703Y-84229645D01*
X134179971Y-84060127D01*
X134257992Y-83871769D01*
X134297766Y-83671810D01*
X134297766Y-83467932D01*
X134257992Y-83267973D01*
X134179971Y-83079615D01*
X134066703Y-82910097D01*
X134002766Y-82846160D01*
X134002766Y-81648072D01*
X134076482Y-81640812D01*
X134196180Y-81604502D01*
X134306494Y-81545537D01*
X134403185Y-81466185D01*
X134482537Y-81369494D01*
X134541502Y-81259180D01*
X134577812Y-81139482D01*
X134590072Y-81015000D01*
X134587000Y-80775750D01*
X134428250Y-80617000D01*
X133604000Y-80617000D01*
X133604000Y-80637000D01*
X133477286Y-80637000D01*
X133330000Y-80489714D01*
X133330000Y-80363000D01*
X133350000Y-80363000D01*
X133350000Y-80343000D01*
X133604000Y-80343000D01*
X133604000Y-80363000D01*
X134428250Y-80363000D01*
X134587000Y-80204250D01*
X134590072Y-79965000D01*
X134577812Y-79840518D01*
X134541502Y-79720820D01*
X134482537Y-79610506D01*
X134422901Y-79537839D01*
X134442512Y-79513942D01*
X134523423Y-79362567D01*
X134573248Y-79198316D01*
X134590072Y-79027500D01*
X134590072Y-78452500D01*
X134573248Y-78281684D01*
X134523423Y-78117433D01*
X134493552Y-78061549D01*
X134523408Y-78058608D01*
X134684142Y-78009850D01*
X134832275Y-77930671D01*
X134962115Y-77824115D01*
X135068671Y-77694275D01*
X135147850Y-77546142D01*
X135196608Y-77385408D01*
X135213072Y-77218250D01*
X135213072Y-76705750D01*
X135196608Y-76538592D01*
X135147850Y-76377858D01*
X135068671Y-76229725D01*
X134962115Y-76099885D01*
X134832275Y-75993329D01*
X134684142Y-75914150D01*
X134523408Y-75865392D01*
X134356250Y-75848928D01*
X133918750Y-75848928D01*
X133751592Y-75865392D01*
X133590858Y-75914150D01*
X133442725Y-75993329D01*
X133350000Y-76069426D01*
X133257275Y-75993329D01*
X133109142Y-75914150D01*
X132948408Y-75865392D01*
X132781250Y-75848928D01*
X132343750Y-75848928D01*
X132176592Y-75865392D01*
X132015858Y-75914150D01*
X131867725Y-75993329D01*
X131737885Y-76099885D01*
X131631329Y-76229725D01*
X131552150Y-76377858D01*
X131504046Y-76536437D01*
X131201445Y-76839038D01*
X131173210Y-76862210D01*
X131080736Y-76974890D01*
X131012022Y-77103445D01*
X130969708Y-77242936D01*
X130959000Y-77351654D01*
X130959000Y-77351660D01*
X130955421Y-77388000D01*
X130959000Y-77424340D01*
X130959000Y-77555872D01*
X130920482Y-77544188D01*
X130796000Y-77531928D01*
X129734072Y-77531928D01*
X129734072Y-75750000D01*
X129730132Y-75710000D01*
X139290000Y-75710000D01*
X139290001Y-97290000D01*
G37*
%TD.AperFunction*%
D19*
X125095000Y-95631000D02*
X125115000Y-95631000D01*
X125115000Y-95885000D01*
X125095000Y-95885000D01*
X125095000Y-95905000D01*
X124841000Y-95905000D01*
X124841000Y-95885000D01*
X124821000Y-95885000D01*
X124821000Y-95631000D01*
X124841000Y-95631000D01*
X124841000Y-95611000D01*
X125095000Y-95611000D01*
X125095000Y-95631000D01*
%TA.AperFunction,Conductor*%
D20*
G36*
X125095000Y-95631000D02*
G01*
X125115000Y-95631000D01*
X125115000Y-95885000D01*
X125095000Y-95885000D01*
X125095000Y-95905000D01*
X124841000Y-95905000D01*
X124841000Y-95885000D01*
X124821000Y-95885000D01*
X124821000Y-95631000D01*
X124841000Y-95631000D01*
X124841000Y-95611000D01*
X125095000Y-95611000D01*
X125095000Y-95631000D01*
G37*
%TD.AperFunction*%
D19*
X132527748Y-94854858D02*
X132513605Y-94869000D01*
X132527748Y-94883143D01*
X132348143Y-95062748D01*
X132334000Y-95048605D01*
X132319858Y-95062748D01*
X132140253Y-94883143D01*
X132154395Y-94869000D01*
X132140253Y-94854858D01*
X132319858Y-94675253D01*
X132334000Y-94689395D01*
X132348143Y-94675253D01*
X132527748Y-94854858D01*
%TA.AperFunction,Conductor*%
D20*
G36*
X132527748Y-94854858D02*
G01*
X132513605Y-94869000D01*
X132527748Y-94883143D01*
X132348143Y-95062748D01*
X132334000Y-95048605D01*
X132319858Y-95062748D01*
X132140253Y-94883143D01*
X132154395Y-94869000D01*
X132140253Y-94854858D01*
X132319858Y-94675253D01*
X132334000Y-94689395D01*
X132348143Y-94675253D01*
X132527748Y-94854858D01*
G37*
%TD.AperFunction*%
D19*
X118323000Y-76623000D02*
X118343000Y-76623000D01*
X118343000Y-76877000D01*
X118323000Y-76877000D01*
X118323000Y-78226250D01*
X118481750Y-78385000D01*
X118596000Y-78388072D01*
X118720482Y-78375812D01*
X118840180Y-78339502D01*
X118946000Y-78282939D01*
X119051820Y-78339502D01*
X119171518Y-78375812D01*
X119296000Y-78388072D01*
X120096000Y-78388072D01*
X120220482Y-78375812D01*
X120340180Y-78339502D01*
X120446000Y-78282939D01*
X120456000Y-78288285D01*
X120456001Y-80113257D01*
X120452421Y-80149607D01*
X120466708Y-80294672D01*
X120509022Y-80434162D01*
X120509023Y-80434163D01*
X120577737Y-80562718D01*
X120616509Y-80609962D01*
X120647040Y-80647164D01*
X120647043Y-80647167D01*
X120670211Y-80675397D01*
X120698440Y-80698564D01*
X121523435Y-81523560D01*
X121546603Y-81551790D01*
X121574833Y-81574958D01*
X121574835Y-81574960D01*
X121596199Y-81592493D01*
X121659282Y-81644264D01*
X121787837Y-81712978D01*
X121927328Y-81755292D01*
X122036046Y-81766000D01*
X122036053Y-81766000D01*
X122072393Y-81769579D01*
X122108733Y-81766000D01*
X122910789Y-81766000D01*
X122974726Y-81829937D01*
X123144244Y-81943205D01*
X123332602Y-82021226D01*
X123532561Y-82061000D01*
X123575885Y-82061000D01*
X123578309Y-82085613D01*
X123620623Y-82225103D01*
X123620624Y-82225104D01*
X123689338Y-82353659D01*
X123729609Y-82402729D01*
X123758641Y-82438105D01*
X123758644Y-82438108D01*
X123781812Y-82466338D01*
X123810041Y-82489506D01*
X124441008Y-83120473D01*
X124441008Y-83210894D01*
X124480782Y-83410853D01*
X124558803Y-83599211D01*
X124672071Y-83768729D01*
X124816234Y-83912892D01*
X124985752Y-84026160D01*
X125174110Y-84104181D01*
X125374069Y-84143955D01*
X125577947Y-84143955D01*
X125650776Y-84129469D01*
X125650775Y-89251928D01*
X125296000Y-89251928D01*
X125171518Y-89264188D01*
X125051820Y-89300498D01*
X124946000Y-89357061D01*
X124840180Y-89300498D01*
X124720482Y-89264188D01*
X124596000Y-89251928D01*
X123796000Y-89251928D01*
X123671518Y-89264188D01*
X123551820Y-89300498D01*
X123446000Y-89357061D01*
X123340180Y-89300498D01*
X123220482Y-89264188D01*
X123096000Y-89251928D01*
X122945831Y-89251928D01*
X122980400Y-89078139D01*
X122980400Y-88987718D01*
X123179561Y-88788557D01*
X123207790Y-88765390D01*
X123234334Y-88733047D01*
X123272156Y-88686960D01*
X123300264Y-88652711D01*
X123368978Y-88524156D01*
X123380568Y-88485949D01*
X123709517Y-88157000D01*
X123799939Y-88157000D01*
X123999898Y-88117226D01*
X124188256Y-88039205D01*
X124357774Y-87925937D01*
X124501937Y-87781774D01*
X124615205Y-87612256D01*
X124693226Y-87423898D01*
X124733000Y-87223939D01*
X124733000Y-87020061D01*
X124693226Y-86820102D01*
X124615205Y-86631744D01*
X124501937Y-86462226D01*
X124357774Y-86318063D01*
X124188256Y-86204795D01*
X123999898Y-86126774D01*
X123799939Y-86087000D01*
X123596061Y-86087000D01*
X123396102Y-86126774D01*
X123207744Y-86204795D01*
X123038226Y-86318063D01*
X122894063Y-86462226D01*
X122780795Y-86631744D01*
X122702774Y-86820102D01*
X122663000Y-87020061D01*
X122663000Y-87110483D01*
X122184444Y-87589039D01*
X122156210Y-87612210D01*
X122063736Y-87724889D01*
X121995022Y-87853444D01*
X121983432Y-87891650D01*
X121933882Y-87941200D01*
X121843461Y-87941200D01*
X121643502Y-87980974D01*
X121455144Y-88058995D01*
X121285626Y-88172263D01*
X121221689Y-88236200D01*
X120651718Y-88236200D01*
X120378833Y-87963315D01*
X120328588Y-87797687D01*
X120246410Y-87643941D01*
X120135817Y-87509183D01*
X120001059Y-87398590D01*
X119847313Y-87316412D01*
X119680490Y-87265805D01*
X119507000Y-87248719D01*
X119333509Y-87265805D01*
X119166686Y-87316412D01*
X119012940Y-87398590D01*
X118911953Y-87481468D01*
X117729000Y-88664422D01*
X117729000Y-78381473D01*
X117796000Y-78388072D01*
X117910250Y-78385000D01*
X118069000Y-78226250D01*
X118069000Y-76877000D01*
X118049000Y-76877000D01*
X118049000Y-76623000D01*
X118069000Y-76623000D01*
X118069000Y-76603000D01*
X118323000Y-76603000D01*
X118323000Y-76623000D01*
%TA.AperFunction,Conductor*%
D20*
G36*
X118323000Y-76623000D02*
G01*
X118343000Y-76623000D01*
X118343000Y-76877000D01*
X118323000Y-76877000D01*
X118323000Y-78226250D01*
X118481750Y-78385000D01*
X118596000Y-78388072D01*
X118720482Y-78375812D01*
X118840180Y-78339502D01*
X118946000Y-78282939D01*
X119051820Y-78339502D01*
X119171518Y-78375812D01*
X119296000Y-78388072D01*
X120096000Y-78388072D01*
X120220482Y-78375812D01*
X120340180Y-78339502D01*
X120446000Y-78282939D01*
X120456000Y-78288285D01*
X120456001Y-80113257D01*
X120452421Y-80149607D01*
X120466708Y-80294672D01*
X120509022Y-80434162D01*
X120509023Y-80434163D01*
X120577737Y-80562718D01*
X120616509Y-80609962D01*
X120647040Y-80647164D01*
X120647043Y-80647167D01*
X120670211Y-80675397D01*
X120698440Y-80698564D01*
X121523435Y-81523560D01*
X121546603Y-81551790D01*
X121574833Y-81574958D01*
X121574835Y-81574960D01*
X121596199Y-81592493D01*
X121659282Y-81644264D01*
X121787837Y-81712978D01*
X121927328Y-81755292D01*
X122036046Y-81766000D01*
X122036053Y-81766000D01*
X122072393Y-81769579D01*
X122108733Y-81766000D01*
X122910789Y-81766000D01*
X122974726Y-81829937D01*
X123144244Y-81943205D01*
X123332602Y-82021226D01*
X123532561Y-82061000D01*
X123575885Y-82061000D01*
X123578309Y-82085613D01*
X123620623Y-82225103D01*
X123620624Y-82225104D01*
X123689338Y-82353659D01*
X123729609Y-82402729D01*
X123758641Y-82438105D01*
X123758644Y-82438108D01*
X123781812Y-82466338D01*
X123810041Y-82489506D01*
X124441008Y-83120473D01*
X124441008Y-83210894D01*
X124480782Y-83410853D01*
X124558803Y-83599211D01*
X124672071Y-83768729D01*
X124816234Y-83912892D01*
X124985752Y-84026160D01*
X125174110Y-84104181D01*
X125374069Y-84143955D01*
X125577947Y-84143955D01*
X125650776Y-84129469D01*
X125650775Y-89251928D01*
X125296000Y-89251928D01*
X125171518Y-89264188D01*
X125051820Y-89300498D01*
X124946000Y-89357061D01*
X124840180Y-89300498D01*
X124720482Y-89264188D01*
X124596000Y-89251928D01*
X123796000Y-89251928D01*
X123671518Y-89264188D01*
X123551820Y-89300498D01*
X123446000Y-89357061D01*
X123340180Y-89300498D01*
X123220482Y-89264188D01*
X123096000Y-89251928D01*
X122945831Y-89251928D01*
X122980400Y-89078139D01*
X122980400Y-88987718D01*
X123179561Y-88788557D01*
X123207790Y-88765390D01*
X123234334Y-88733047D01*
X123272156Y-88686960D01*
X123300264Y-88652711D01*
X123368978Y-88524156D01*
X123380568Y-88485949D01*
X123709517Y-88157000D01*
X123799939Y-88157000D01*
X123999898Y-88117226D01*
X124188256Y-88039205D01*
X124357774Y-87925937D01*
X124501937Y-87781774D01*
X124615205Y-87612256D01*
X124693226Y-87423898D01*
X124733000Y-87223939D01*
X124733000Y-87020061D01*
X124693226Y-86820102D01*
X124615205Y-86631744D01*
X124501937Y-86462226D01*
X124357774Y-86318063D01*
X124188256Y-86204795D01*
X123999898Y-86126774D01*
X123799939Y-86087000D01*
X123596061Y-86087000D01*
X123396102Y-86126774D01*
X123207744Y-86204795D01*
X123038226Y-86318063D01*
X122894063Y-86462226D01*
X122780795Y-86631744D01*
X122702774Y-86820102D01*
X122663000Y-87020061D01*
X122663000Y-87110483D01*
X122184444Y-87589039D01*
X122156210Y-87612210D01*
X122063736Y-87724889D01*
X121995022Y-87853444D01*
X121983432Y-87891650D01*
X121933882Y-87941200D01*
X121843461Y-87941200D01*
X121643502Y-87980974D01*
X121455144Y-88058995D01*
X121285626Y-88172263D01*
X121221689Y-88236200D01*
X120651718Y-88236200D01*
X120378833Y-87963315D01*
X120328588Y-87797687D01*
X120246410Y-87643941D01*
X120135817Y-87509183D01*
X120001059Y-87398590D01*
X119847313Y-87316412D01*
X119680490Y-87265805D01*
X119507000Y-87248719D01*
X119333509Y-87265805D01*
X119166686Y-87316412D01*
X119012940Y-87398590D01*
X118911953Y-87481468D01*
X117729000Y-88664422D01*
X117729000Y-78381473D01*
X117796000Y-78388072D01*
X117910250Y-78385000D01*
X118069000Y-78226250D01*
X118069000Y-76877000D01*
X118049000Y-76877000D01*
X118049000Y-76623000D01*
X118069000Y-76623000D01*
X118069000Y-76603000D01*
X118323000Y-76603000D01*
X118323000Y-76623000D01*
G37*
%TD.AperFunction*%
D19*
X128051820Y-78339502D02*
X128157928Y-78371690D01*
X128157928Y-78970000D01*
X128170188Y-79094482D01*
X128206498Y-79214180D01*
X128263061Y-79320000D01*
X128206498Y-79425820D01*
X128170188Y-79545518D01*
X128161863Y-79630045D01*
X127361900Y-78830083D01*
X127361900Y-78739661D01*
X127322126Y-78539702D01*
X127259318Y-78388072D01*
X127596000Y-78388072D01*
X127720482Y-78375812D01*
X127840180Y-78339502D01*
X127946000Y-78282939D01*
X128051820Y-78339502D01*
%TA.AperFunction,Conductor*%
D20*
G36*
X128051820Y-78339502D02*
G01*
X128157928Y-78371690D01*
X128157928Y-78970000D01*
X128170188Y-79094482D01*
X128206498Y-79214180D01*
X128263061Y-79320000D01*
X128206498Y-79425820D01*
X128170188Y-79545518D01*
X128161863Y-79630045D01*
X127361900Y-78830083D01*
X127361900Y-78739661D01*
X127322126Y-78539702D01*
X127259318Y-78388072D01*
X127596000Y-78388072D01*
X127720482Y-78375812D01*
X127840180Y-78339502D01*
X127946000Y-78282939D01*
X128051820Y-78339502D01*
G37*
%TD.AperFunction*%
%TD*%
M02*
