G04 #@! TF.GenerationSoftware,KiCad,Pcbnew,(5.1.10)-1*
G04 #@! TF.CreationDate,2021-10-01T13:23:57-05:00*
G04 #@! TF.ProjectId,wireless_measurement_ard,77697265-6c65-4737-935f-6d6561737572,rev?*
G04 #@! TF.SameCoordinates,Original*
G04 #@! TF.FileFunction,Legend,Bot*
G04 #@! TF.FilePolarity,Positive*
%FSLAX46Y46*%
G04 Gerber Fmt 4.6, Leading zero omitted, Abs format (unit mm)*
G04 Created by KiCad (PCBNEW (5.1.10)-1) date 2021-10-01 13:23:57*
%MOMM*%
%LPD*%
G01*
G04 APERTURE LIST*
%ADD10C,0.300000*%
%ADD11C,0.150000*%
%ADD12C,0.120000*%
%ADD13R,1.400000X0.300000*%
%ADD14R,0.900000X0.800000*%
%ADD15O,1.700000X1.700000*%
%ADD16R,1.700000X1.700000*%
%ADD17C,0.900000*%
%ADD18R,1.250000X2.500000*%
%ADD19C,0.100000*%
%ADD20R,1.560000X0.650000*%
%ADD21R,3.600000X1.500000*%
G04 APERTURE END LIST*
D10*
X112666942Y-79997457D02*
X112738371Y-80211742D01*
X112738371Y-80568885D01*
X112666942Y-80711742D01*
X112595514Y-80783171D01*
X112452657Y-80854600D01*
X112309800Y-80854600D01*
X112166942Y-80783171D01*
X112095514Y-80711742D01*
X112024085Y-80568885D01*
X111952657Y-80283171D01*
X111881228Y-80140314D01*
X111809800Y-80068885D01*
X111666942Y-79997457D01*
X111524085Y-79997457D01*
X111381228Y-80068885D01*
X111309800Y-80140314D01*
X111238371Y-80283171D01*
X111238371Y-80640314D01*
X111309800Y-80854600D01*
X111238371Y-81354600D02*
X112738371Y-81711742D01*
X111666942Y-81997457D01*
X112738371Y-82283171D01*
X111238371Y-82640314D01*
X112738371Y-83211742D02*
X111238371Y-83211742D01*
X112309800Y-83711742D01*
X111238371Y-84211742D01*
X112738371Y-84211742D01*
X112166942Y-84926028D02*
X112166942Y-86068885D01*
X111738371Y-86783171D02*
X112738371Y-86783171D01*
X111881228Y-86783171D02*
X111809800Y-86854600D01*
X111738371Y-86997457D01*
X111738371Y-87211742D01*
X111809800Y-87354600D01*
X111952657Y-87426028D01*
X112738371Y-87426028D01*
X112738371Y-88783171D02*
X111952657Y-88783171D01*
X111809800Y-88711742D01*
X111738371Y-88568885D01*
X111738371Y-88283171D01*
X111809800Y-88140314D01*
X112666942Y-88783171D02*
X112738371Y-88640314D01*
X112738371Y-88283171D01*
X112666942Y-88140314D01*
X112524085Y-88068885D01*
X112381228Y-88068885D01*
X112238371Y-88140314D01*
X112166942Y-88283171D01*
X112166942Y-88640314D01*
X112095514Y-88783171D01*
X111738371Y-89497457D02*
X112738371Y-89497457D01*
X111881228Y-89497457D02*
X111809800Y-89568885D01*
X111738371Y-89711742D01*
X111738371Y-89926028D01*
X111809800Y-90068885D01*
X111952657Y-90140314D01*
X112738371Y-90140314D01*
X112738371Y-91068885D02*
X112666942Y-90926028D01*
X112595514Y-90854600D01*
X112452657Y-90783171D01*
X112024085Y-90783171D01*
X111881228Y-90854600D01*
X111809800Y-90926028D01*
X111738371Y-91068885D01*
X111738371Y-91283171D01*
X111809800Y-91426028D01*
X111881228Y-91497457D01*
X112024085Y-91568885D01*
X112452657Y-91568885D01*
X112595514Y-91497457D01*
X112666942Y-91426028D01*
X112738371Y-91283171D01*
X112738371Y-91068885D01*
X113788371Y-85926028D02*
X113788371Y-86211742D01*
X113859800Y-86354600D01*
X114002657Y-86497457D01*
X114288371Y-86568885D01*
X114788371Y-86568885D01*
X115074085Y-86497457D01*
X115216942Y-86354600D01*
X115288371Y-86211742D01*
X115288371Y-85926028D01*
X115216942Y-85783171D01*
X115074085Y-85640314D01*
X114788371Y-85568885D01*
X114288371Y-85568885D01*
X114002657Y-85640314D01*
X113859800Y-85783171D01*
X113788371Y-85926028D01*
X115216942Y-87854600D02*
X115288371Y-87711742D01*
X115288371Y-87426028D01*
X115216942Y-87283171D01*
X115145514Y-87211742D01*
X115002657Y-87140314D01*
X114574085Y-87140314D01*
X114431228Y-87211742D01*
X114359800Y-87283171D01*
X114288371Y-87426028D01*
X114288371Y-87711742D01*
X114359800Y-87854600D01*
X114288371Y-88283171D02*
X114288371Y-88854600D01*
X113788371Y-88497457D02*
X115074085Y-88497457D01*
X115216942Y-88568885D01*
X115288371Y-88711742D01*
X115288371Y-88854600D01*
X113931228Y-89283171D02*
X113859800Y-89354600D01*
X113788371Y-89497457D01*
X113788371Y-89854600D01*
X113859800Y-89997457D01*
X113931228Y-90068885D01*
X114074085Y-90140314D01*
X114216942Y-90140314D01*
X114431228Y-90068885D01*
X115288371Y-89211742D01*
X115288371Y-90140314D01*
X115288371Y-91568885D02*
X115288371Y-90711742D01*
X115288371Y-91140314D02*
X113788371Y-91140314D01*
X114002657Y-90997457D01*
X114145514Y-90854600D01*
X114216942Y-90711742D01*
D11*
X120499000Y-90575000D02*
X120499000Y-90350000D01*
X123849000Y-90575000D02*
X123849000Y-90275000D01*
X123849000Y-87225000D02*
X123849000Y-87525000D01*
X120499000Y-87225000D02*
X120499000Y-87525000D01*
X120499000Y-90575000D02*
X123849000Y-90575000D01*
X120499000Y-87225000D02*
X123849000Y-87225000D01*
X120499000Y-90350000D02*
X119274000Y-90350000D01*
D12*
X131926400Y-77324852D02*
X131926400Y-76802348D01*
X130506400Y-77324852D02*
X130506400Y-76802348D01*
X119886000Y-75636000D02*
X118426000Y-75636000D01*
X119886000Y-78796000D02*
X117726000Y-78796000D01*
X119886000Y-78796000D02*
X119886000Y-77866000D01*
X119886000Y-75636000D02*
X119886000Y-76566000D01*
X117714500Y-81026724D02*
X117714500Y-80517276D01*
X118759500Y-81026724D02*
X118759500Y-80517276D01*
X122828267Y-76710000D02*
X122535733Y-76710000D01*
X122828267Y-75690000D02*
X122535733Y-75690000D01*
X126383167Y-84910200D02*
X126090633Y-84910200D01*
X126383167Y-85930200D02*
X126090633Y-85930200D01*
X132182000Y-88734000D02*
X130782000Y-88734000D01*
X130782000Y-88734000D02*
X130782000Y-92534000D01*
X139982000Y-92534000D02*
X139982000Y-88734000D01*
X139982000Y-88734000D02*
X138582000Y-88734000D01*
X133582000Y-88734000D02*
X134682000Y-88734000D01*
X134682000Y-88734000D02*
X134682000Y-88734000D01*
X136082000Y-88734000D02*
X137182000Y-88734000D01*
X137182000Y-88734000D02*
X137182000Y-88734000D01*
X130782000Y-92534000D02*
X132482000Y-92534000D01*
X132482000Y-92534000D02*
X132482000Y-92834000D01*
X132482000Y-92834000D02*
X133282000Y-92834000D01*
X133282000Y-92834000D02*
X133282000Y-92534000D01*
X133282000Y-92534000D02*
X134982000Y-92534000D01*
X134982000Y-92534000D02*
X134982000Y-92834000D01*
X134982000Y-92834000D02*
X135782000Y-92834000D01*
X135782000Y-92834000D02*
X135782000Y-92534000D01*
X135782000Y-92534000D02*
X137482000Y-92534000D01*
X137482000Y-92534000D02*
X137482000Y-92834000D01*
X137482000Y-92834000D02*
X138282000Y-92834000D01*
X138282000Y-92834000D02*
X138282000Y-92534000D01*
X138282000Y-92534000D02*
X139982000Y-92534000D01*
X139982000Y-92534000D02*
X139982000Y-92534000D01*
X137382000Y-94434000D02*
X137382000Y-93934000D01*
X137382000Y-93934000D02*
X137382000Y-93934000D01*
X137382000Y-94434000D02*
X136882000Y-94434000D01*
X136882000Y-94434000D02*
X136882000Y-94434000D01*
X133382000Y-94434000D02*
X133882000Y-94434000D01*
X133882000Y-94434000D02*
X133882000Y-94434000D01*
X133382000Y-94434000D02*
X133382000Y-93934000D01*
X133382000Y-93934000D02*
X133382000Y-93934000D01*
X133382000Y-93634000D02*
X133382000Y-93134000D01*
X133382000Y-93134000D02*
X133382000Y-93134000D01*
X137382000Y-93634000D02*
X137382000Y-93134000D01*
X137382000Y-93134000D02*
X137382000Y-93134000D01*
X136582000Y-94434000D02*
X136082000Y-94434000D01*
X136082000Y-94434000D02*
X136082000Y-94434000D01*
X134182000Y-94434000D02*
X134682000Y-94434000D01*
X134682000Y-94434000D02*
X134682000Y-94434000D01*
X134982000Y-94434000D02*
X135782000Y-94434000D01*
X135782000Y-94434000D02*
X135782000Y-94434000D01*
X125418503Y-81400487D02*
X125665991Y-81153000D01*
X125665991Y-81153000D02*
X125418503Y-80905513D01*
X119945497Y-80905513D02*
X119698009Y-81153000D01*
X119698009Y-81153000D02*
X119945497Y-81400487D01*
X122434513Y-78416497D02*
X122682000Y-78169009D01*
X122682000Y-78169009D02*
X122929487Y-78416497D01*
X122929487Y-83889503D02*
X122682000Y-84136991D01*
X126688000Y-75402800D02*
X129638000Y-75402800D01*
X128488000Y-78622800D02*
X126688000Y-78622800D01*
X129999000Y-92427000D02*
X128974000Y-92427000D01*
X129999000Y-92427000D02*
X129999000Y-91402000D01*
X129999000Y-87657000D02*
X129999000Y-88682000D01*
X129999000Y-87657000D02*
X128974000Y-87657000D01*
X125779000Y-87657000D02*
X126804000Y-87657000D01*
X125779000Y-92427000D02*
X126804000Y-92427000D01*
X125779000Y-87657000D02*
X125779000Y-88682000D01*
X125779000Y-92427000D02*
X125779000Y-91402000D01*
X130047276Y-83326500D02*
X130556724Y-83326500D01*
X130047276Y-82281500D02*
X130556724Y-82281500D01*
X119170267Y-85596000D02*
X118827733Y-85596000D01*
X119170267Y-86616000D02*
X118827733Y-86616000D01*
X119170267Y-83945000D02*
X118827733Y-83945000D01*
X119170267Y-84965000D02*
X118827733Y-84965000D01*
X118620000Y-89071267D02*
X118620000Y-88728733D01*
X117600000Y-89071267D02*
X117600000Y-88728733D01*
X122726267Y-85596000D02*
X122383733Y-85596000D01*
X122726267Y-86616000D02*
X122383733Y-86616000D01*
X123869267Y-91184000D02*
X123526733Y-91184000D01*
X123869267Y-92204000D02*
X123526733Y-92204000D01*
X129622733Y-85473000D02*
X129965267Y-85473000D01*
X129622733Y-84453000D02*
X129965267Y-84453000D01*
X120454267Y-91184000D02*
X120111733Y-91184000D01*
X120454267Y-92204000D02*
X120111733Y-92204000D01*
X129622733Y-87124000D02*
X129965267Y-87124000D01*
X129622733Y-86104000D02*
X129965267Y-86104000D01*
D11*
X131555685Y-79453200D02*
X131198542Y-79203200D01*
X131555685Y-79024628D02*
X130805685Y-79024628D01*
X130805685Y-79310342D01*
X130841400Y-79381771D01*
X130877114Y-79417485D01*
X130948542Y-79453200D01*
X131055685Y-79453200D01*
X131127114Y-79417485D01*
X131162828Y-79381771D01*
X131198542Y-79310342D01*
X131198542Y-79024628D01*
X131555685Y-80167485D02*
X131555685Y-79738914D01*
X131555685Y-79953200D02*
X130805685Y-79953200D01*
X130912828Y-79881771D01*
X130984257Y-79810342D01*
X131019971Y-79738914D01*
X116632485Y-76669971D02*
X117239628Y-76669971D01*
X117311057Y-76705685D01*
X117346771Y-76741400D01*
X117382485Y-76812828D01*
X117382485Y-76955685D01*
X117346771Y-77027114D01*
X117311057Y-77062828D01*
X117239628Y-77098542D01*
X116632485Y-77098542D01*
X116632485Y-77812828D02*
X116632485Y-77455685D01*
X116989628Y-77419971D01*
X116953914Y-77455685D01*
X116918200Y-77527114D01*
X116918200Y-77705685D01*
X116953914Y-77777114D01*
X116989628Y-77812828D01*
X117061057Y-77848542D01*
X117239628Y-77848542D01*
X117311057Y-77812828D01*
X117346771Y-77777114D01*
X117382485Y-77705685D01*
X117382485Y-77527114D01*
X117346771Y-77455685D01*
X117311057Y-77419971D01*
X117433285Y-80570800D02*
X117076142Y-80320800D01*
X117433285Y-80142228D02*
X116683285Y-80142228D01*
X116683285Y-80427942D01*
X116719000Y-80499371D01*
X116754714Y-80535085D01*
X116826142Y-80570800D01*
X116933285Y-80570800D01*
X117004714Y-80535085D01*
X117040428Y-80499371D01*
X117076142Y-80427942D01*
X117076142Y-80142228D01*
X116754714Y-80856514D02*
X116719000Y-80892228D01*
X116683285Y-80963657D01*
X116683285Y-81142228D01*
X116719000Y-81213657D01*
X116754714Y-81249371D01*
X116826142Y-81285085D01*
X116897571Y-81285085D01*
X117004714Y-81249371D01*
X117433285Y-80820800D01*
X117433285Y-81285085D01*
X122730800Y-77763257D02*
X122766514Y-77798971D01*
X122873657Y-77834685D01*
X122945085Y-77834685D01*
X123052228Y-77798971D01*
X123123657Y-77727542D01*
X123159371Y-77656114D01*
X123195085Y-77513257D01*
X123195085Y-77406114D01*
X123159371Y-77263257D01*
X123123657Y-77191828D01*
X123052228Y-77120400D01*
X122945085Y-77084685D01*
X122873657Y-77084685D01*
X122766514Y-77120400D01*
X122730800Y-77156114D01*
X122302228Y-77406114D02*
X122373657Y-77370400D01*
X122409371Y-77334685D01*
X122445085Y-77263257D01*
X122445085Y-77227542D01*
X122409371Y-77156114D01*
X122373657Y-77120400D01*
X122302228Y-77084685D01*
X122159371Y-77084685D01*
X122087942Y-77120400D01*
X122052228Y-77156114D01*
X122016514Y-77227542D01*
X122016514Y-77263257D01*
X122052228Y-77334685D01*
X122087942Y-77370400D01*
X122159371Y-77406114D01*
X122302228Y-77406114D01*
X122373657Y-77441828D01*
X122409371Y-77477542D01*
X122445085Y-77548971D01*
X122445085Y-77691828D01*
X122409371Y-77763257D01*
X122373657Y-77798971D01*
X122302228Y-77834685D01*
X122159371Y-77834685D01*
X122087942Y-77798971D01*
X122052228Y-77763257D01*
X122016514Y-77691828D01*
X122016514Y-77548971D01*
X122052228Y-77477542D01*
X122087942Y-77441828D01*
X122159371Y-77406114D01*
X125245400Y-86907257D02*
X125281114Y-86942971D01*
X125388257Y-86978685D01*
X125459685Y-86978685D01*
X125566828Y-86942971D01*
X125638257Y-86871542D01*
X125673971Y-86800114D01*
X125709685Y-86657257D01*
X125709685Y-86550114D01*
X125673971Y-86407257D01*
X125638257Y-86335828D01*
X125566828Y-86264400D01*
X125459685Y-86228685D01*
X125388257Y-86228685D01*
X125281114Y-86264400D01*
X125245400Y-86300114D01*
X124995400Y-86228685D02*
X124495400Y-86228685D01*
X124816828Y-86978685D01*
X129882828Y-78938885D02*
X129882828Y-79546028D01*
X129847114Y-79617457D01*
X129811400Y-79653171D01*
X129739971Y-79688885D01*
X129597114Y-79688885D01*
X129525685Y-79653171D01*
X129489971Y-79617457D01*
X129454257Y-79546028D01*
X129454257Y-78938885D01*
X128775685Y-79188885D02*
X128775685Y-79688885D01*
X128954257Y-78903171D02*
X129132828Y-79438885D01*
X128668542Y-79438885D01*
X127988600Y-90407685D02*
X128345742Y-90407685D01*
X128345742Y-89657685D01*
X127345742Y-90407685D02*
X127774314Y-90407685D01*
X127560028Y-90407685D02*
X127560028Y-89657685D01*
X127631457Y-89764828D01*
X127702885Y-89836257D01*
X127774314Y-89871971D01*
X130376200Y-81974885D02*
X130626200Y-81617742D01*
X130804771Y-81974885D02*
X130804771Y-81224885D01*
X130519057Y-81224885D01*
X130447628Y-81260600D01*
X130411914Y-81296314D01*
X130376200Y-81367742D01*
X130376200Y-81474885D01*
X130411914Y-81546314D01*
X130447628Y-81582028D01*
X130519057Y-81617742D01*
X130804771Y-81617742D01*
X129733342Y-81224885D02*
X129876200Y-81224885D01*
X129947628Y-81260600D01*
X129983342Y-81296314D01*
X130054771Y-81403457D01*
X130090485Y-81546314D01*
X130090485Y-81832028D01*
X130054771Y-81903457D01*
X130019057Y-81939171D01*
X129947628Y-81974885D01*
X129804771Y-81974885D01*
X129733342Y-81939171D01*
X129697628Y-81903457D01*
X129661914Y-81832028D01*
X129661914Y-81653457D01*
X129697628Y-81582028D01*
X129733342Y-81546314D01*
X129804771Y-81510600D01*
X129947628Y-81510600D01*
X130019057Y-81546314D01*
X130054771Y-81582028D01*
X130090485Y-81653457D01*
X117209457Y-85981000D02*
X117245171Y-85945285D01*
X117280885Y-85838142D01*
X117280885Y-85766714D01*
X117245171Y-85659571D01*
X117173742Y-85588142D01*
X117102314Y-85552428D01*
X116959457Y-85516714D01*
X116852314Y-85516714D01*
X116709457Y-85552428D01*
X116638028Y-85588142D01*
X116566600Y-85659571D01*
X116530885Y-85766714D01*
X116530885Y-85838142D01*
X116566600Y-85945285D01*
X116602314Y-85981000D01*
X116530885Y-86623857D02*
X116530885Y-86481000D01*
X116566600Y-86409571D01*
X116602314Y-86373857D01*
X116709457Y-86302428D01*
X116852314Y-86266714D01*
X117138028Y-86266714D01*
X117209457Y-86302428D01*
X117245171Y-86338142D01*
X117280885Y-86409571D01*
X117280885Y-86552428D01*
X117245171Y-86623857D01*
X117209457Y-86659571D01*
X117138028Y-86695285D01*
X116959457Y-86695285D01*
X116888028Y-86659571D01*
X116852314Y-86623857D01*
X116816600Y-86552428D01*
X116816600Y-86409571D01*
X116852314Y-86338142D01*
X116888028Y-86302428D01*
X116959457Y-86266714D01*
X117209457Y-84228400D02*
X117245171Y-84192685D01*
X117280885Y-84085542D01*
X117280885Y-84014114D01*
X117245171Y-83906971D01*
X117173742Y-83835542D01*
X117102314Y-83799828D01*
X116959457Y-83764114D01*
X116852314Y-83764114D01*
X116709457Y-83799828D01*
X116638028Y-83835542D01*
X116566600Y-83906971D01*
X116530885Y-84014114D01*
X116530885Y-84085542D01*
X116566600Y-84192685D01*
X116602314Y-84228400D01*
X116530885Y-84906971D02*
X116530885Y-84549828D01*
X116888028Y-84514114D01*
X116852314Y-84549828D01*
X116816600Y-84621257D01*
X116816600Y-84799828D01*
X116852314Y-84871257D01*
X116888028Y-84906971D01*
X116959457Y-84942685D01*
X117138028Y-84942685D01*
X117209457Y-84906971D01*
X117245171Y-84871257D01*
X117280885Y-84799828D01*
X117280885Y-84621257D01*
X117245171Y-84549828D01*
X117209457Y-84514114D01*
X117331685Y-88851200D02*
X116974542Y-88601200D01*
X117331685Y-88422628D02*
X116581685Y-88422628D01*
X116581685Y-88708342D01*
X116617400Y-88779771D01*
X116653114Y-88815485D01*
X116724542Y-88851200D01*
X116831685Y-88851200D01*
X116903114Y-88815485D01*
X116938828Y-88779771D01*
X116974542Y-88708342D01*
X116974542Y-88422628D01*
X116581685Y-89529771D02*
X116581685Y-89172628D01*
X116938828Y-89136914D01*
X116903114Y-89172628D01*
X116867400Y-89244057D01*
X116867400Y-89422628D01*
X116903114Y-89494057D01*
X116938828Y-89529771D01*
X117010257Y-89565485D01*
X117188828Y-89565485D01*
X117260257Y-89529771D01*
X117295971Y-89494057D01*
X117331685Y-89422628D01*
X117331685Y-89244057D01*
X117295971Y-89172628D01*
X117260257Y-89136914D01*
X123721400Y-85378485D02*
X123971400Y-85021342D01*
X124149971Y-85378485D02*
X124149971Y-84628485D01*
X123864257Y-84628485D01*
X123792828Y-84664200D01*
X123757114Y-84699914D01*
X123721400Y-84771342D01*
X123721400Y-84878485D01*
X123757114Y-84949914D01*
X123792828Y-84985628D01*
X123864257Y-85021342D01*
X124149971Y-85021342D01*
X123078542Y-84878485D02*
X123078542Y-85378485D01*
X123257114Y-84592771D02*
X123435685Y-85128485D01*
X122971400Y-85128485D01*
X125169200Y-90996657D02*
X125204914Y-91032371D01*
X125312057Y-91068085D01*
X125383485Y-91068085D01*
X125490628Y-91032371D01*
X125562057Y-90960942D01*
X125597771Y-90889514D01*
X125633485Y-90746657D01*
X125633485Y-90639514D01*
X125597771Y-90496657D01*
X125562057Y-90425228D01*
X125490628Y-90353800D01*
X125383485Y-90318085D01*
X125312057Y-90318085D01*
X125204914Y-90353800D01*
X125169200Y-90389514D01*
X124919200Y-90318085D02*
X124454914Y-90318085D01*
X124704914Y-90603800D01*
X124597771Y-90603800D01*
X124526342Y-90639514D01*
X124490628Y-90675228D01*
X124454914Y-90746657D01*
X124454914Y-90925228D01*
X124490628Y-90996657D01*
X124526342Y-91032371D01*
X124597771Y-91068085D01*
X124812057Y-91068085D01*
X124883485Y-91032371D01*
X124919200Y-90996657D01*
X129893600Y-84189457D02*
X129929314Y-84225171D01*
X130036457Y-84260885D01*
X130107885Y-84260885D01*
X130215028Y-84225171D01*
X130286457Y-84153742D01*
X130322171Y-84082314D01*
X130357885Y-83939457D01*
X130357885Y-83832314D01*
X130322171Y-83689457D01*
X130286457Y-83618028D01*
X130215028Y-83546600D01*
X130107885Y-83510885D01*
X130036457Y-83510885D01*
X129929314Y-83546600D01*
X129893600Y-83582314D01*
X129607885Y-83582314D02*
X129572171Y-83546600D01*
X129500742Y-83510885D01*
X129322171Y-83510885D01*
X129250742Y-83546600D01*
X129215028Y-83582314D01*
X129179314Y-83653742D01*
X129179314Y-83725171D01*
X129215028Y-83832314D01*
X129643600Y-84260885D01*
X129179314Y-84260885D01*
X118133400Y-92063457D02*
X118169114Y-92099171D01*
X118276257Y-92134885D01*
X118347685Y-92134885D01*
X118454828Y-92099171D01*
X118526257Y-92027742D01*
X118561971Y-91956314D01*
X118597685Y-91813457D01*
X118597685Y-91706314D01*
X118561971Y-91563457D01*
X118526257Y-91492028D01*
X118454828Y-91420600D01*
X118347685Y-91384885D01*
X118276257Y-91384885D01*
X118169114Y-91420600D01*
X118133400Y-91456314D01*
X117490542Y-91634885D02*
X117490542Y-92134885D01*
X117669114Y-91349171D02*
X117847685Y-91884885D01*
X117383400Y-91884885D01*
X130960400Y-88177257D02*
X130996114Y-88212971D01*
X131103257Y-88248685D01*
X131174685Y-88248685D01*
X131281828Y-88212971D01*
X131353257Y-88141542D01*
X131388971Y-88070114D01*
X131424685Y-87927257D01*
X131424685Y-87820114D01*
X131388971Y-87677257D01*
X131353257Y-87605828D01*
X131281828Y-87534400D01*
X131174685Y-87498685D01*
X131103257Y-87498685D01*
X130996114Y-87534400D01*
X130960400Y-87570114D01*
X130246114Y-88248685D02*
X130674685Y-88248685D01*
X130460400Y-88248685D02*
X130460400Y-87498685D01*
X130531828Y-87605828D01*
X130603257Y-87677257D01*
X130674685Y-87712971D01*
%LPC*%
D13*
X124374000Y-89900000D03*
X124374000Y-89400000D03*
X124374000Y-88900000D03*
X124374000Y-88400000D03*
X124374000Y-87900000D03*
X119974000Y-87900000D03*
X119974000Y-88400000D03*
X119974000Y-88900000D03*
X119974000Y-89400000D03*
X119974000Y-89900000D03*
G36*
G01*
X131666401Y-76613600D02*
X130766399Y-76613600D01*
G75*
G02*
X130516400Y-76363601I0J249999D01*
G01*
X130516400Y-75713599D01*
G75*
G02*
X130766399Y-75463600I249999J0D01*
G01*
X131666401Y-75463600D01*
G75*
G02*
X131916400Y-75713599I0J-249999D01*
G01*
X131916400Y-76363601D01*
G75*
G02*
X131666401Y-76613600I-249999J0D01*
G01*
G37*
G36*
G01*
X131666401Y-78663600D02*
X130766399Y-78663600D01*
G75*
G02*
X130516400Y-78413601I0J249999D01*
G01*
X130516400Y-77763599D01*
G75*
G02*
X130766399Y-77513600I249999J0D01*
G01*
X131666401Y-77513600D01*
G75*
G02*
X131916400Y-77763599I0J-249999D01*
G01*
X131916400Y-78413601D01*
G75*
G02*
X131666401Y-78663600I-249999J0D01*
G01*
G37*
D14*
X120126000Y-77216000D03*
X118126000Y-76266000D03*
X118126000Y-78166000D03*
G36*
G01*
X118474500Y-80347000D02*
X117999500Y-80347000D01*
G75*
G02*
X117762000Y-80109500I0J237500D01*
G01*
X117762000Y-79609500D01*
G75*
G02*
X117999500Y-79372000I237500J0D01*
G01*
X118474500Y-79372000D01*
G75*
G02*
X118712000Y-79609500I0J-237500D01*
G01*
X118712000Y-80109500D01*
G75*
G02*
X118474500Y-80347000I-237500J0D01*
G01*
G37*
G36*
G01*
X118474500Y-82172000D02*
X117999500Y-82172000D01*
G75*
G02*
X117762000Y-81934500I0J237500D01*
G01*
X117762000Y-81434500D01*
G75*
G02*
X117999500Y-81197000I237500J0D01*
G01*
X118474500Y-81197000D01*
G75*
G02*
X118712000Y-81434500I0J-237500D01*
G01*
X118712000Y-81934500D01*
G75*
G02*
X118474500Y-82172000I-237500J0D01*
G01*
G37*
G36*
G01*
X122357000Y-75962500D02*
X122357000Y-76437500D01*
G75*
G02*
X122119500Y-76675000I-237500J0D01*
G01*
X121519500Y-76675000D01*
G75*
G02*
X121282000Y-76437500I0J237500D01*
G01*
X121282000Y-75962500D01*
G75*
G02*
X121519500Y-75725000I237500J0D01*
G01*
X122119500Y-75725000D01*
G75*
G02*
X122357000Y-75962500I0J-237500D01*
G01*
G37*
G36*
G01*
X124082000Y-75962500D02*
X124082000Y-76437500D01*
G75*
G02*
X123844500Y-76675000I-237500J0D01*
G01*
X123244500Y-76675000D01*
G75*
G02*
X123007000Y-76437500I0J237500D01*
G01*
X123007000Y-75962500D01*
G75*
G02*
X123244500Y-75725000I237500J0D01*
G01*
X123844500Y-75725000D01*
G75*
G02*
X124082000Y-75962500I0J-237500D01*
G01*
G37*
D15*
X137744200Y-84886800D03*
X135204200Y-84886800D03*
X137744200Y-82346800D03*
X135204200Y-82346800D03*
X137744200Y-79806800D03*
X135204200Y-79806800D03*
X137744200Y-77266800D03*
D16*
X135204200Y-77266800D03*
G36*
G01*
X125911900Y-85182700D02*
X125911900Y-85657700D01*
G75*
G02*
X125674400Y-85895200I-237500J0D01*
G01*
X125074400Y-85895200D01*
G75*
G02*
X124836900Y-85657700I0J237500D01*
G01*
X124836900Y-85182700D01*
G75*
G02*
X125074400Y-84945200I237500J0D01*
G01*
X125674400Y-84945200D01*
G75*
G02*
X125911900Y-85182700I0J-237500D01*
G01*
G37*
G36*
G01*
X127636900Y-85182700D02*
X127636900Y-85657700D01*
G75*
G02*
X127399400Y-85895200I-237500J0D01*
G01*
X126799400Y-85895200D01*
G75*
G02*
X126561900Y-85657700I0J237500D01*
G01*
X126561900Y-85182700D01*
G75*
G02*
X126799400Y-84945200I237500J0D01*
G01*
X127399400Y-84945200D01*
G75*
G02*
X127636900Y-85182700I0J-237500D01*
G01*
G37*
D17*
X131982000Y-90634000D03*
X138782000Y-90634000D03*
D18*
X132882000Y-87884000D03*
X135382000Y-87884000D03*
X137882000Y-87884000D03*
G36*
G01*
X122045604Y-83840005D02*
X121974894Y-83769295D01*
G75*
G02*
X121974894Y-83698585I35355J35355D01*
G01*
X122399158Y-83274321D01*
G75*
G02*
X122469868Y-83274321I35355J-35355D01*
G01*
X122540578Y-83345031D01*
G75*
G02*
X122540578Y-83415741I-35355J-35355D01*
G01*
X122116314Y-83840005D01*
G75*
G02*
X122045604Y-83840005I-35355J35355D01*
G01*
G37*
G36*
G01*
X121762761Y-83557162D02*
X121692051Y-83486452D01*
G75*
G02*
X121692051Y-83415742I35355J35355D01*
G01*
X122116315Y-82991478D01*
G75*
G02*
X122187025Y-82991478I35355J-35355D01*
G01*
X122257735Y-83062188D01*
G75*
G02*
X122257735Y-83132898I-35355J-35355D01*
G01*
X121833471Y-83557162D01*
G75*
G02*
X121762761Y-83557162I-35355J35355D01*
G01*
G37*
G36*
G01*
X121479919Y-83274320D02*
X121409209Y-83203610D01*
G75*
G02*
X121409209Y-83132900I35355J35355D01*
G01*
X121833473Y-82708636D01*
G75*
G02*
X121904183Y-82708636I35355J-35355D01*
G01*
X121974893Y-82779346D01*
G75*
G02*
X121974893Y-82850056I-35355J-35355D01*
G01*
X121550629Y-83274320D01*
G75*
G02*
X121479919Y-83274320I-35355J35355D01*
G01*
G37*
G36*
G01*
X121197076Y-82991477D02*
X121126366Y-82920767D01*
G75*
G02*
X121126366Y-82850057I35355J35355D01*
G01*
X121550630Y-82425793D01*
G75*
G02*
X121621340Y-82425793I35355J-35355D01*
G01*
X121692050Y-82496503D01*
G75*
G02*
X121692050Y-82567213I-35355J-35355D01*
G01*
X121267786Y-82991477D01*
G75*
G02*
X121197076Y-82991477I-35355J35355D01*
G01*
G37*
G36*
G01*
X120914233Y-82708634D02*
X120843523Y-82637924D01*
G75*
G02*
X120843523Y-82567214I35355J35355D01*
G01*
X121267787Y-82142950D01*
G75*
G02*
X121338497Y-82142950I35355J-35355D01*
G01*
X121409207Y-82213660D01*
G75*
G02*
X121409207Y-82284370I-35355J-35355D01*
G01*
X120984943Y-82708634D01*
G75*
G02*
X120914233Y-82708634I-35355J35355D01*
G01*
G37*
G36*
G01*
X120631390Y-82425791D02*
X120560680Y-82355081D01*
G75*
G02*
X120560680Y-82284371I35355J35355D01*
G01*
X120984944Y-81860107D01*
G75*
G02*
X121055654Y-81860107I35355J-35355D01*
G01*
X121126364Y-81930817D01*
G75*
G02*
X121126364Y-82001527I-35355J-35355D01*
G01*
X120702100Y-82425791D01*
G75*
G02*
X120631390Y-82425791I-35355J35355D01*
G01*
G37*
G36*
G01*
X120348548Y-82142949D02*
X120277838Y-82072239D01*
G75*
G02*
X120277838Y-82001529I35355J35355D01*
G01*
X120702102Y-81577265D01*
G75*
G02*
X120772812Y-81577265I35355J-35355D01*
G01*
X120843522Y-81647975D01*
G75*
G02*
X120843522Y-81718685I-35355J-35355D01*
G01*
X120419258Y-82142949D01*
G75*
G02*
X120348548Y-82142949I-35355J35355D01*
G01*
G37*
G36*
G01*
X120065705Y-81860106D02*
X119994995Y-81789396D01*
G75*
G02*
X119994995Y-81718686I35355J35355D01*
G01*
X120419259Y-81294422D01*
G75*
G02*
X120489969Y-81294422I35355J-35355D01*
G01*
X120560679Y-81365132D01*
G75*
G02*
X120560679Y-81435842I-35355J-35355D01*
G01*
X120136415Y-81860106D01*
G75*
G02*
X120065705Y-81860106I-35355J35355D01*
G01*
G37*
G36*
G01*
X120419259Y-81011578D02*
X119994995Y-80587314D01*
G75*
G02*
X119994995Y-80516604I35355J35355D01*
G01*
X120065705Y-80445894D01*
G75*
G02*
X120136415Y-80445894I35355J-35355D01*
G01*
X120560679Y-80870158D01*
G75*
G02*
X120560679Y-80940868I-35355J-35355D01*
G01*
X120489969Y-81011578D01*
G75*
G02*
X120419259Y-81011578I-35355J35355D01*
G01*
G37*
G36*
G01*
X120702102Y-80728735D02*
X120277838Y-80304471D01*
G75*
G02*
X120277838Y-80233761I35355J35355D01*
G01*
X120348548Y-80163051D01*
G75*
G02*
X120419258Y-80163051I35355J-35355D01*
G01*
X120843522Y-80587315D01*
G75*
G02*
X120843522Y-80658025I-35355J-35355D01*
G01*
X120772812Y-80728735D01*
G75*
G02*
X120702102Y-80728735I-35355J35355D01*
G01*
G37*
G36*
G01*
X120984944Y-80445893D02*
X120560680Y-80021629D01*
G75*
G02*
X120560680Y-79950919I35355J35355D01*
G01*
X120631390Y-79880209D01*
G75*
G02*
X120702100Y-79880209I35355J-35355D01*
G01*
X121126364Y-80304473D01*
G75*
G02*
X121126364Y-80375183I-35355J-35355D01*
G01*
X121055654Y-80445893D01*
G75*
G02*
X120984944Y-80445893I-35355J35355D01*
G01*
G37*
G36*
G01*
X121267787Y-80163050D02*
X120843523Y-79738786D01*
G75*
G02*
X120843523Y-79668076I35355J35355D01*
G01*
X120914233Y-79597366D01*
G75*
G02*
X120984943Y-79597366I35355J-35355D01*
G01*
X121409207Y-80021630D01*
G75*
G02*
X121409207Y-80092340I-35355J-35355D01*
G01*
X121338497Y-80163050D01*
G75*
G02*
X121267787Y-80163050I-35355J35355D01*
G01*
G37*
G36*
G01*
X121550630Y-79880207D02*
X121126366Y-79455943D01*
G75*
G02*
X121126366Y-79385233I35355J35355D01*
G01*
X121197076Y-79314523D01*
G75*
G02*
X121267786Y-79314523I35355J-35355D01*
G01*
X121692050Y-79738787D01*
G75*
G02*
X121692050Y-79809497I-35355J-35355D01*
G01*
X121621340Y-79880207D01*
G75*
G02*
X121550630Y-79880207I-35355J35355D01*
G01*
G37*
G36*
G01*
X121833473Y-79597364D02*
X121409209Y-79173100D01*
G75*
G02*
X121409209Y-79102390I35355J35355D01*
G01*
X121479919Y-79031680D01*
G75*
G02*
X121550629Y-79031680I35355J-35355D01*
G01*
X121974893Y-79455944D01*
G75*
G02*
X121974893Y-79526654I-35355J-35355D01*
G01*
X121904183Y-79597364D01*
G75*
G02*
X121833473Y-79597364I-35355J35355D01*
G01*
G37*
G36*
G01*
X122116315Y-79314522D02*
X121692051Y-78890258D01*
G75*
G02*
X121692051Y-78819548I35355J35355D01*
G01*
X121762761Y-78748838D01*
G75*
G02*
X121833471Y-78748838I35355J-35355D01*
G01*
X122257735Y-79173102D01*
G75*
G02*
X122257735Y-79243812I-35355J-35355D01*
G01*
X122187025Y-79314522D01*
G75*
G02*
X122116315Y-79314522I-35355J35355D01*
G01*
G37*
G36*
G01*
X122399158Y-79031679D02*
X121974894Y-78607415D01*
G75*
G02*
X121974894Y-78536705I35355J35355D01*
G01*
X122045604Y-78465995D01*
G75*
G02*
X122116314Y-78465995I35355J-35355D01*
G01*
X122540578Y-78890259D01*
G75*
G02*
X122540578Y-78960969I-35355J-35355D01*
G01*
X122469868Y-79031679D01*
G75*
G02*
X122399158Y-79031679I-35355J35355D01*
G01*
G37*
G36*
G01*
X122894132Y-79031679D02*
X122823422Y-78960969D01*
G75*
G02*
X122823422Y-78890259I35355J35355D01*
G01*
X123247686Y-78465995D01*
G75*
G02*
X123318396Y-78465995I35355J-35355D01*
G01*
X123389106Y-78536705D01*
G75*
G02*
X123389106Y-78607415I-35355J-35355D01*
G01*
X122964842Y-79031679D01*
G75*
G02*
X122894132Y-79031679I-35355J35355D01*
G01*
G37*
G36*
G01*
X123176975Y-79314522D02*
X123106265Y-79243812D01*
G75*
G02*
X123106265Y-79173102I35355J35355D01*
G01*
X123530529Y-78748838D01*
G75*
G02*
X123601239Y-78748838I35355J-35355D01*
G01*
X123671949Y-78819548D01*
G75*
G02*
X123671949Y-78890258I-35355J-35355D01*
G01*
X123247685Y-79314522D01*
G75*
G02*
X123176975Y-79314522I-35355J35355D01*
G01*
G37*
G36*
G01*
X123459817Y-79597364D02*
X123389107Y-79526654D01*
G75*
G02*
X123389107Y-79455944I35355J35355D01*
G01*
X123813371Y-79031680D01*
G75*
G02*
X123884081Y-79031680I35355J-35355D01*
G01*
X123954791Y-79102390D01*
G75*
G02*
X123954791Y-79173100I-35355J-35355D01*
G01*
X123530527Y-79597364D01*
G75*
G02*
X123459817Y-79597364I-35355J35355D01*
G01*
G37*
G36*
G01*
X123742660Y-79880207D02*
X123671950Y-79809497D01*
G75*
G02*
X123671950Y-79738787I35355J35355D01*
G01*
X124096214Y-79314523D01*
G75*
G02*
X124166924Y-79314523I35355J-35355D01*
G01*
X124237634Y-79385233D01*
G75*
G02*
X124237634Y-79455943I-35355J-35355D01*
G01*
X123813370Y-79880207D01*
G75*
G02*
X123742660Y-79880207I-35355J35355D01*
G01*
G37*
G36*
G01*
X124025503Y-80163050D02*
X123954793Y-80092340D01*
G75*
G02*
X123954793Y-80021630I35355J35355D01*
G01*
X124379057Y-79597366D01*
G75*
G02*
X124449767Y-79597366I35355J-35355D01*
G01*
X124520477Y-79668076D01*
G75*
G02*
X124520477Y-79738786I-35355J-35355D01*
G01*
X124096213Y-80163050D01*
G75*
G02*
X124025503Y-80163050I-35355J35355D01*
G01*
G37*
G36*
G01*
X124308346Y-80445893D02*
X124237636Y-80375183D01*
G75*
G02*
X124237636Y-80304473I35355J35355D01*
G01*
X124661900Y-79880209D01*
G75*
G02*
X124732610Y-79880209I35355J-35355D01*
G01*
X124803320Y-79950919D01*
G75*
G02*
X124803320Y-80021629I-35355J-35355D01*
G01*
X124379056Y-80445893D01*
G75*
G02*
X124308346Y-80445893I-35355J35355D01*
G01*
G37*
G36*
G01*
X124591188Y-80728735D02*
X124520478Y-80658025D01*
G75*
G02*
X124520478Y-80587315I35355J35355D01*
G01*
X124944742Y-80163051D01*
G75*
G02*
X125015452Y-80163051I35355J-35355D01*
G01*
X125086162Y-80233761D01*
G75*
G02*
X125086162Y-80304471I-35355J-35355D01*
G01*
X124661898Y-80728735D01*
G75*
G02*
X124591188Y-80728735I-35355J35355D01*
G01*
G37*
G36*
G01*
X124874031Y-81011578D02*
X124803321Y-80940868D01*
G75*
G02*
X124803321Y-80870158I35355J35355D01*
G01*
X125227585Y-80445894D01*
G75*
G02*
X125298295Y-80445894I35355J-35355D01*
G01*
X125369005Y-80516604D01*
G75*
G02*
X125369005Y-80587314I-35355J-35355D01*
G01*
X124944741Y-81011578D01*
G75*
G02*
X124874031Y-81011578I-35355J35355D01*
G01*
G37*
G36*
G01*
X125227585Y-81860106D02*
X124803321Y-81435842D01*
G75*
G02*
X124803321Y-81365132I35355J35355D01*
G01*
X124874031Y-81294422D01*
G75*
G02*
X124944741Y-81294422I35355J-35355D01*
G01*
X125369005Y-81718686D01*
G75*
G02*
X125369005Y-81789396I-35355J-35355D01*
G01*
X125298295Y-81860106D01*
G75*
G02*
X125227585Y-81860106I-35355J35355D01*
G01*
G37*
G36*
G01*
X124944742Y-82142949D02*
X124520478Y-81718685D01*
G75*
G02*
X124520478Y-81647975I35355J35355D01*
G01*
X124591188Y-81577265D01*
G75*
G02*
X124661898Y-81577265I35355J-35355D01*
G01*
X125086162Y-82001529D01*
G75*
G02*
X125086162Y-82072239I-35355J-35355D01*
G01*
X125015452Y-82142949D01*
G75*
G02*
X124944742Y-82142949I-35355J35355D01*
G01*
G37*
G36*
G01*
X124661900Y-82425791D02*
X124237636Y-82001527D01*
G75*
G02*
X124237636Y-81930817I35355J35355D01*
G01*
X124308346Y-81860107D01*
G75*
G02*
X124379056Y-81860107I35355J-35355D01*
G01*
X124803320Y-82284371D01*
G75*
G02*
X124803320Y-82355081I-35355J-35355D01*
G01*
X124732610Y-82425791D01*
G75*
G02*
X124661900Y-82425791I-35355J35355D01*
G01*
G37*
G36*
G01*
X124379057Y-82708634D02*
X123954793Y-82284370D01*
G75*
G02*
X123954793Y-82213660I35355J35355D01*
G01*
X124025503Y-82142950D01*
G75*
G02*
X124096213Y-82142950I35355J-35355D01*
G01*
X124520477Y-82567214D01*
G75*
G02*
X124520477Y-82637924I-35355J-35355D01*
G01*
X124449767Y-82708634D01*
G75*
G02*
X124379057Y-82708634I-35355J35355D01*
G01*
G37*
G36*
G01*
X124096214Y-82991477D02*
X123671950Y-82567213D01*
G75*
G02*
X123671950Y-82496503I35355J35355D01*
G01*
X123742660Y-82425793D01*
G75*
G02*
X123813370Y-82425793I35355J-35355D01*
G01*
X124237634Y-82850057D01*
G75*
G02*
X124237634Y-82920767I-35355J-35355D01*
G01*
X124166924Y-82991477D01*
G75*
G02*
X124096214Y-82991477I-35355J35355D01*
G01*
G37*
G36*
G01*
X123813371Y-83274320D02*
X123389107Y-82850056D01*
G75*
G02*
X123389107Y-82779346I35355J35355D01*
G01*
X123459817Y-82708636D01*
G75*
G02*
X123530527Y-82708636I35355J-35355D01*
G01*
X123954791Y-83132900D01*
G75*
G02*
X123954791Y-83203610I-35355J-35355D01*
G01*
X123884081Y-83274320D01*
G75*
G02*
X123813371Y-83274320I-35355J35355D01*
G01*
G37*
G36*
G01*
X123530529Y-83557162D02*
X123106265Y-83132898D01*
G75*
G02*
X123106265Y-83062188I35355J35355D01*
G01*
X123176975Y-82991478D01*
G75*
G02*
X123247685Y-82991478I35355J-35355D01*
G01*
X123671949Y-83415742D01*
G75*
G02*
X123671949Y-83486452I-35355J-35355D01*
G01*
X123601239Y-83557162D01*
G75*
G02*
X123530529Y-83557162I-35355J35355D01*
G01*
G37*
G36*
G01*
X123247686Y-83840005D02*
X122823422Y-83415741D01*
G75*
G02*
X122823422Y-83345031I35355J35355D01*
G01*
X122894132Y-83274321D01*
G75*
G02*
X122964842Y-83274321I35355J-35355D01*
G01*
X123389106Y-83698585D01*
G75*
G02*
X123389106Y-83769295I-35355J-35355D01*
G01*
X123318396Y-83840005D01*
G75*
G02*
X123247686Y-83840005I-35355J35355D01*
G01*
G37*
D19*
G36*
X122682000Y-83203610D02*
G01*
X120631390Y-81153000D01*
X122682000Y-79102390D01*
X124732610Y-81153000D01*
X122682000Y-83203610D01*
G37*
D20*
X126238000Y-77012800D03*
X126238000Y-76062800D03*
X126238000Y-77962800D03*
X128938000Y-77962800D03*
X128938000Y-77012800D03*
X128938000Y-76062800D03*
D21*
X127889000Y-88517000D03*
X127889000Y-91567000D03*
G36*
G01*
X130727000Y-83041500D02*
X130727000Y-82566500D01*
G75*
G02*
X130964500Y-82329000I237500J0D01*
G01*
X131464500Y-82329000D01*
G75*
G02*
X131702000Y-82566500I0J-237500D01*
G01*
X131702000Y-83041500D01*
G75*
G02*
X131464500Y-83279000I-237500J0D01*
G01*
X130964500Y-83279000D01*
G75*
G02*
X130727000Y-83041500I0J237500D01*
G01*
G37*
G36*
G01*
X128902000Y-83041500D02*
X128902000Y-82566500D01*
G75*
G02*
X129139500Y-82329000I237500J0D01*
G01*
X129639500Y-82329000D01*
G75*
G02*
X129877000Y-82566500I0J-237500D01*
G01*
X129877000Y-83041500D01*
G75*
G02*
X129639500Y-83279000I-237500J0D01*
G01*
X129139500Y-83279000D01*
G75*
G02*
X128902000Y-83041500I0J237500D01*
G01*
G37*
G36*
G01*
X118649000Y-85868500D02*
X118649000Y-86343500D01*
G75*
G02*
X118411500Y-86581000I-237500J0D01*
G01*
X117836500Y-86581000D01*
G75*
G02*
X117599000Y-86343500I0J237500D01*
G01*
X117599000Y-85868500D01*
G75*
G02*
X117836500Y-85631000I237500J0D01*
G01*
X118411500Y-85631000D01*
G75*
G02*
X118649000Y-85868500I0J-237500D01*
G01*
G37*
G36*
G01*
X120399000Y-85868500D02*
X120399000Y-86343500D01*
G75*
G02*
X120161500Y-86581000I-237500J0D01*
G01*
X119586500Y-86581000D01*
G75*
G02*
X119349000Y-86343500I0J237500D01*
G01*
X119349000Y-85868500D01*
G75*
G02*
X119586500Y-85631000I237500J0D01*
G01*
X120161500Y-85631000D01*
G75*
G02*
X120399000Y-85868500I0J-237500D01*
G01*
G37*
G36*
G01*
X118649000Y-84217500D02*
X118649000Y-84692500D01*
G75*
G02*
X118411500Y-84930000I-237500J0D01*
G01*
X117836500Y-84930000D01*
G75*
G02*
X117599000Y-84692500I0J237500D01*
G01*
X117599000Y-84217500D01*
G75*
G02*
X117836500Y-83980000I237500J0D01*
G01*
X118411500Y-83980000D01*
G75*
G02*
X118649000Y-84217500I0J-237500D01*
G01*
G37*
G36*
G01*
X120399000Y-84217500D02*
X120399000Y-84692500D01*
G75*
G02*
X120161500Y-84930000I-237500J0D01*
G01*
X119586500Y-84930000D01*
G75*
G02*
X119349000Y-84692500I0J237500D01*
G01*
X119349000Y-84217500D01*
G75*
G02*
X119586500Y-83980000I237500J0D01*
G01*
X120161500Y-83980000D01*
G75*
G02*
X120399000Y-84217500I0J-237500D01*
G01*
G37*
G36*
G01*
X118347500Y-88550000D02*
X117872500Y-88550000D01*
G75*
G02*
X117635000Y-88312500I0J237500D01*
G01*
X117635000Y-87737500D01*
G75*
G02*
X117872500Y-87500000I237500J0D01*
G01*
X118347500Y-87500000D01*
G75*
G02*
X118585000Y-87737500I0J-237500D01*
G01*
X118585000Y-88312500D01*
G75*
G02*
X118347500Y-88550000I-237500J0D01*
G01*
G37*
G36*
G01*
X118347500Y-90300000D02*
X117872500Y-90300000D01*
G75*
G02*
X117635000Y-90062500I0J237500D01*
G01*
X117635000Y-89487500D01*
G75*
G02*
X117872500Y-89250000I237500J0D01*
G01*
X118347500Y-89250000D01*
G75*
G02*
X118585000Y-89487500I0J-237500D01*
G01*
X118585000Y-90062500D01*
G75*
G02*
X118347500Y-90300000I-237500J0D01*
G01*
G37*
G36*
G01*
X122205000Y-85868500D02*
X122205000Y-86343500D01*
G75*
G02*
X121967500Y-86581000I-237500J0D01*
G01*
X121392500Y-86581000D01*
G75*
G02*
X121155000Y-86343500I0J237500D01*
G01*
X121155000Y-85868500D01*
G75*
G02*
X121392500Y-85631000I237500J0D01*
G01*
X121967500Y-85631000D01*
G75*
G02*
X122205000Y-85868500I0J-237500D01*
G01*
G37*
G36*
G01*
X123955000Y-85868500D02*
X123955000Y-86343500D01*
G75*
G02*
X123717500Y-86581000I-237500J0D01*
G01*
X123142500Y-86581000D01*
G75*
G02*
X122905000Y-86343500I0J237500D01*
G01*
X122905000Y-85868500D01*
G75*
G02*
X123142500Y-85631000I237500J0D01*
G01*
X123717500Y-85631000D01*
G75*
G02*
X123955000Y-85868500I0J-237500D01*
G01*
G37*
G36*
G01*
X123348000Y-91456500D02*
X123348000Y-91931500D01*
G75*
G02*
X123110500Y-92169000I-237500J0D01*
G01*
X122535500Y-92169000D01*
G75*
G02*
X122298000Y-91931500I0J237500D01*
G01*
X122298000Y-91456500D01*
G75*
G02*
X122535500Y-91219000I237500J0D01*
G01*
X123110500Y-91219000D01*
G75*
G02*
X123348000Y-91456500I0J-237500D01*
G01*
G37*
G36*
G01*
X125098000Y-91456500D02*
X125098000Y-91931500D01*
G75*
G02*
X124860500Y-92169000I-237500J0D01*
G01*
X124285500Y-92169000D01*
G75*
G02*
X124048000Y-91931500I0J237500D01*
G01*
X124048000Y-91456500D01*
G75*
G02*
X124285500Y-91219000I237500J0D01*
G01*
X124860500Y-91219000D01*
G75*
G02*
X125098000Y-91456500I0J-237500D01*
G01*
G37*
G36*
G01*
X130144000Y-85200500D02*
X130144000Y-84725500D01*
G75*
G02*
X130381500Y-84488000I237500J0D01*
G01*
X130956500Y-84488000D01*
G75*
G02*
X131194000Y-84725500I0J-237500D01*
G01*
X131194000Y-85200500D01*
G75*
G02*
X130956500Y-85438000I-237500J0D01*
G01*
X130381500Y-85438000D01*
G75*
G02*
X130144000Y-85200500I0J237500D01*
G01*
G37*
G36*
G01*
X128394000Y-85200500D02*
X128394000Y-84725500D01*
G75*
G02*
X128631500Y-84488000I237500J0D01*
G01*
X129206500Y-84488000D01*
G75*
G02*
X129444000Y-84725500I0J-237500D01*
G01*
X129444000Y-85200500D01*
G75*
G02*
X129206500Y-85438000I-237500J0D01*
G01*
X128631500Y-85438000D01*
G75*
G02*
X128394000Y-85200500I0J237500D01*
G01*
G37*
G36*
G01*
X119933000Y-91456500D02*
X119933000Y-91931500D01*
G75*
G02*
X119695500Y-92169000I-237500J0D01*
G01*
X119120500Y-92169000D01*
G75*
G02*
X118883000Y-91931500I0J237500D01*
G01*
X118883000Y-91456500D01*
G75*
G02*
X119120500Y-91219000I237500J0D01*
G01*
X119695500Y-91219000D01*
G75*
G02*
X119933000Y-91456500I0J-237500D01*
G01*
G37*
G36*
G01*
X121683000Y-91456500D02*
X121683000Y-91931500D01*
G75*
G02*
X121445500Y-92169000I-237500J0D01*
G01*
X120870500Y-92169000D01*
G75*
G02*
X120633000Y-91931500I0J237500D01*
G01*
X120633000Y-91456500D01*
G75*
G02*
X120870500Y-91219000I237500J0D01*
G01*
X121445500Y-91219000D01*
G75*
G02*
X121683000Y-91456500I0J-237500D01*
G01*
G37*
G36*
G01*
X130144000Y-86851500D02*
X130144000Y-86376500D01*
G75*
G02*
X130381500Y-86139000I237500J0D01*
G01*
X130956500Y-86139000D01*
G75*
G02*
X131194000Y-86376500I0J-237500D01*
G01*
X131194000Y-86851500D01*
G75*
G02*
X130956500Y-87089000I-237500J0D01*
G01*
X130381500Y-87089000D01*
G75*
G02*
X130144000Y-86851500I0J237500D01*
G01*
G37*
G36*
G01*
X128394000Y-86851500D02*
X128394000Y-86376500D01*
G75*
G02*
X128631500Y-86139000I237500J0D01*
G01*
X129206500Y-86139000D01*
G75*
G02*
X129444000Y-86376500I0J-237500D01*
G01*
X129444000Y-86851500D01*
G75*
G02*
X129206500Y-87089000I-237500J0D01*
G01*
X128631500Y-87089000D01*
G75*
G02*
X128394000Y-86851500I0J237500D01*
G01*
G37*
M02*
