G04 #@! TF.GenerationSoftware,KiCad,Pcbnew,(5.1.10)-1*
G04 #@! TF.CreationDate,2021-09-12T00:39:30-05:00*
G04 #@! TF.ProjectId,wireless_measurement_ard,77697265-6c65-4737-935f-6d6561737572,rev?*
G04 #@! TF.SameCoordinates,Original*
G04 #@! TF.FileFunction,Soldermask,Bot*
G04 #@! TF.FilePolarity,Negative*
%FSLAX46Y46*%
G04 Gerber Fmt 4.6, Leading zero omitted, Abs format (unit mm)*
G04 Created by KiCad (PCBNEW (5.1.10)-1) date 2021-09-12 00:39:30*
%MOMM*%
%LPD*%
G01*
G04 APERTURE LIST*
%ADD10R,1.400000X0.300000*%
%ADD11O,1.700000X1.700000*%
%ADD12R,1.700000X1.700000*%
%ADD13C,0.900000*%
%ADD14R,1.250000X2.500000*%
%ADD15R,2.900000X2.900000*%
%ADD16R,1.560000X0.650000*%
%ADD17R,3.600000X1.500000*%
G04 APERTURE END LIST*
D10*
X124374000Y-89503000D03*
X124374000Y-89003000D03*
X124374000Y-88503000D03*
X124374000Y-88003000D03*
X124374000Y-87503000D03*
X119974000Y-87503000D03*
X119974000Y-88003000D03*
X119974000Y-88503000D03*
X119974000Y-89003000D03*
X119974000Y-89503000D03*
D11*
X136779000Y-85217000D03*
X134239000Y-85217000D03*
X136779000Y-82677000D03*
X134239000Y-82677000D03*
X136779000Y-80137000D03*
X134239000Y-80137000D03*
X136779000Y-77597000D03*
D12*
X134239000Y-77597000D03*
G36*
G01*
X123841500Y-84171500D02*
X124316500Y-84171500D01*
G75*
G02*
X124554000Y-84409000I0J-237500D01*
G01*
X124554000Y-85009000D01*
G75*
G02*
X124316500Y-85246500I-237500J0D01*
G01*
X123841500Y-85246500D01*
G75*
G02*
X123604000Y-85009000I0J237500D01*
G01*
X123604000Y-84409000D01*
G75*
G02*
X123841500Y-84171500I237500J0D01*
G01*
G37*
G36*
G01*
X123841500Y-82446500D02*
X124316500Y-82446500D01*
G75*
G02*
X124554000Y-82684000I0J-237500D01*
G01*
X124554000Y-83284000D01*
G75*
G02*
X124316500Y-83521500I-237500J0D01*
G01*
X123841500Y-83521500D01*
G75*
G02*
X123604000Y-83284000I0J237500D01*
G01*
X123604000Y-82684000D01*
G75*
G02*
X123841500Y-82446500I237500J0D01*
G01*
G37*
D13*
X131982000Y-90634000D03*
X138782000Y-90634000D03*
D14*
X132882000Y-87884000D03*
X135382000Y-87884000D03*
X137882000Y-87884000D03*
G36*
G01*
X121846000Y-84011000D02*
X121746000Y-84011000D01*
G75*
G02*
X121696000Y-83961000I0J50000D01*
G01*
X121696000Y-83361000D01*
G75*
G02*
X121746000Y-83311000I50000J0D01*
G01*
X121846000Y-83311000D01*
G75*
G02*
X121896000Y-83361000I0J-50000D01*
G01*
X121896000Y-83961000D01*
G75*
G02*
X121846000Y-84011000I-50000J0D01*
G01*
G37*
G36*
G01*
X121446000Y-84011000D02*
X121346000Y-84011000D01*
G75*
G02*
X121296000Y-83961000I0J50000D01*
G01*
X121296000Y-83361000D01*
G75*
G02*
X121346000Y-83311000I50000J0D01*
G01*
X121446000Y-83311000D01*
G75*
G02*
X121496000Y-83361000I0J-50000D01*
G01*
X121496000Y-83961000D01*
G75*
G02*
X121446000Y-84011000I-50000J0D01*
G01*
G37*
G36*
G01*
X121046000Y-84011000D02*
X120946000Y-84011000D01*
G75*
G02*
X120896000Y-83961000I0J50000D01*
G01*
X120896000Y-83361000D01*
G75*
G02*
X120946000Y-83311000I50000J0D01*
G01*
X121046000Y-83311000D01*
G75*
G02*
X121096000Y-83361000I0J-50000D01*
G01*
X121096000Y-83961000D01*
G75*
G02*
X121046000Y-84011000I-50000J0D01*
G01*
G37*
G36*
G01*
X120646000Y-84011000D02*
X120546000Y-84011000D01*
G75*
G02*
X120496000Y-83961000I0J50000D01*
G01*
X120496000Y-83361000D01*
G75*
G02*
X120546000Y-83311000I50000J0D01*
G01*
X120646000Y-83311000D01*
G75*
G02*
X120696000Y-83361000I0J-50000D01*
G01*
X120696000Y-83961000D01*
G75*
G02*
X120646000Y-84011000I-50000J0D01*
G01*
G37*
G36*
G01*
X120246000Y-84011000D02*
X120146000Y-84011000D01*
G75*
G02*
X120096000Y-83961000I0J50000D01*
G01*
X120096000Y-83361000D01*
G75*
G02*
X120146000Y-83311000I50000J0D01*
G01*
X120246000Y-83311000D01*
G75*
G02*
X120296000Y-83361000I0J-50000D01*
G01*
X120296000Y-83961000D01*
G75*
G02*
X120246000Y-84011000I-50000J0D01*
G01*
G37*
G36*
G01*
X119846000Y-84011000D02*
X119746000Y-84011000D01*
G75*
G02*
X119696000Y-83961000I0J50000D01*
G01*
X119696000Y-83361000D01*
G75*
G02*
X119746000Y-83311000I50000J0D01*
G01*
X119846000Y-83311000D01*
G75*
G02*
X119896000Y-83361000I0J-50000D01*
G01*
X119896000Y-83961000D01*
G75*
G02*
X119846000Y-84011000I-50000J0D01*
G01*
G37*
G36*
G01*
X119446000Y-84011000D02*
X119346000Y-84011000D01*
G75*
G02*
X119296000Y-83961000I0J50000D01*
G01*
X119296000Y-83361000D01*
G75*
G02*
X119346000Y-83311000I50000J0D01*
G01*
X119446000Y-83311000D01*
G75*
G02*
X119496000Y-83361000I0J-50000D01*
G01*
X119496000Y-83961000D01*
G75*
G02*
X119446000Y-84011000I-50000J0D01*
G01*
G37*
G36*
G01*
X119046000Y-84011000D02*
X118946000Y-84011000D01*
G75*
G02*
X118896000Y-83961000I0J50000D01*
G01*
X118896000Y-83361000D01*
G75*
G02*
X118946000Y-83311000I50000J0D01*
G01*
X119046000Y-83311000D01*
G75*
G02*
X119096000Y-83361000I0J-50000D01*
G01*
X119096000Y-83961000D01*
G75*
G02*
X119046000Y-84011000I-50000J0D01*
G01*
G37*
G36*
G01*
X118696000Y-83161000D02*
X118096000Y-83161000D01*
G75*
G02*
X118046000Y-83111000I0J50000D01*
G01*
X118046000Y-83011000D01*
G75*
G02*
X118096000Y-82961000I50000J0D01*
G01*
X118696000Y-82961000D01*
G75*
G02*
X118746000Y-83011000I0J-50000D01*
G01*
X118746000Y-83111000D01*
G75*
G02*
X118696000Y-83161000I-50000J0D01*
G01*
G37*
G36*
G01*
X118696000Y-82761000D02*
X118096000Y-82761000D01*
G75*
G02*
X118046000Y-82711000I0J50000D01*
G01*
X118046000Y-82611000D01*
G75*
G02*
X118096000Y-82561000I50000J0D01*
G01*
X118696000Y-82561000D01*
G75*
G02*
X118746000Y-82611000I0J-50000D01*
G01*
X118746000Y-82711000D01*
G75*
G02*
X118696000Y-82761000I-50000J0D01*
G01*
G37*
G36*
G01*
X118696000Y-82361000D02*
X118096000Y-82361000D01*
G75*
G02*
X118046000Y-82311000I0J50000D01*
G01*
X118046000Y-82211000D01*
G75*
G02*
X118096000Y-82161000I50000J0D01*
G01*
X118696000Y-82161000D01*
G75*
G02*
X118746000Y-82211000I0J-50000D01*
G01*
X118746000Y-82311000D01*
G75*
G02*
X118696000Y-82361000I-50000J0D01*
G01*
G37*
G36*
G01*
X118696000Y-81961000D02*
X118096000Y-81961000D01*
G75*
G02*
X118046000Y-81911000I0J50000D01*
G01*
X118046000Y-81811000D01*
G75*
G02*
X118096000Y-81761000I50000J0D01*
G01*
X118696000Y-81761000D01*
G75*
G02*
X118746000Y-81811000I0J-50000D01*
G01*
X118746000Y-81911000D01*
G75*
G02*
X118696000Y-81961000I-50000J0D01*
G01*
G37*
G36*
G01*
X118696000Y-81561000D02*
X118096000Y-81561000D01*
G75*
G02*
X118046000Y-81511000I0J50000D01*
G01*
X118046000Y-81411000D01*
G75*
G02*
X118096000Y-81361000I50000J0D01*
G01*
X118696000Y-81361000D01*
G75*
G02*
X118746000Y-81411000I0J-50000D01*
G01*
X118746000Y-81511000D01*
G75*
G02*
X118696000Y-81561000I-50000J0D01*
G01*
G37*
G36*
G01*
X118696000Y-81161000D02*
X118096000Y-81161000D01*
G75*
G02*
X118046000Y-81111000I0J50000D01*
G01*
X118046000Y-81011000D01*
G75*
G02*
X118096000Y-80961000I50000J0D01*
G01*
X118696000Y-80961000D01*
G75*
G02*
X118746000Y-81011000I0J-50000D01*
G01*
X118746000Y-81111000D01*
G75*
G02*
X118696000Y-81161000I-50000J0D01*
G01*
G37*
G36*
G01*
X118696000Y-80761000D02*
X118096000Y-80761000D01*
G75*
G02*
X118046000Y-80711000I0J50000D01*
G01*
X118046000Y-80611000D01*
G75*
G02*
X118096000Y-80561000I50000J0D01*
G01*
X118696000Y-80561000D01*
G75*
G02*
X118746000Y-80611000I0J-50000D01*
G01*
X118746000Y-80711000D01*
G75*
G02*
X118696000Y-80761000I-50000J0D01*
G01*
G37*
G36*
G01*
X118696000Y-80361000D02*
X118096000Y-80361000D01*
G75*
G02*
X118046000Y-80311000I0J50000D01*
G01*
X118046000Y-80211000D01*
G75*
G02*
X118096000Y-80161000I50000J0D01*
G01*
X118696000Y-80161000D01*
G75*
G02*
X118746000Y-80211000I0J-50000D01*
G01*
X118746000Y-80311000D01*
G75*
G02*
X118696000Y-80361000I-50000J0D01*
G01*
G37*
G36*
G01*
X119046000Y-80011000D02*
X118946000Y-80011000D01*
G75*
G02*
X118896000Y-79961000I0J50000D01*
G01*
X118896000Y-79361000D01*
G75*
G02*
X118946000Y-79311000I50000J0D01*
G01*
X119046000Y-79311000D01*
G75*
G02*
X119096000Y-79361000I0J-50000D01*
G01*
X119096000Y-79961000D01*
G75*
G02*
X119046000Y-80011000I-50000J0D01*
G01*
G37*
G36*
G01*
X119446000Y-80011000D02*
X119346000Y-80011000D01*
G75*
G02*
X119296000Y-79961000I0J50000D01*
G01*
X119296000Y-79361000D01*
G75*
G02*
X119346000Y-79311000I50000J0D01*
G01*
X119446000Y-79311000D01*
G75*
G02*
X119496000Y-79361000I0J-50000D01*
G01*
X119496000Y-79961000D01*
G75*
G02*
X119446000Y-80011000I-50000J0D01*
G01*
G37*
G36*
G01*
X119846000Y-80011000D02*
X119746000Y-80011000D01*
G75*
G02*
X119696000Y-79961000I0J50000D01*
G01*
X119696000Y-79361000D01*
G75*
G02*
X119746000Y-79311000I50000J0D01*
G01*
X119846000Y-79311000D01*
G75*
G02*
X119896000Y-79361000I0J-50000D01*
G01*
X119896000Y-79961000D01*
G75*
G02*
X119846000Y-80011000I-50000J0D01*
G01*
G37*
G36*
G01*
X120246000Y-80011000D02*
X120146000Y-80011000D01*
G75*
G02*
X120096000Y-79961000I0J50000D01*
G01*
X120096000Y-79361000D01*
G75*
G02*
X120146000Y-79311000I50000J0D01*
G01*
X120246000Y-79311000D01*
G75*
G02*
X120296000Y-79361000I0J-50000D01*
G01*
X120296000Y-79961000D01*
G75*
G02*
X120246000Y-80011000I-50000J0D01*
G01*
G37*
G36*
G01*
X120646000Y-80011000D02*
X120546000Y-80011000D01*
G75*
G02*
X120496000Y-79961000I0J50000D01*
G01*
X120496000Y-79361000D01*
G75*
G02*
X120546000Y-79311000I50000J0D01*
G01*
X120646000Y-79311000D01*
G75*
G02*
X120696000Y-79361000I0J-50000D01*
G01*
X120696000Y-79961000D01*
G75*
G02*
X120646000Y-80011000I-50000J0D01*
G01*
G37*
G36*
G01*
X121046000Y-80011000D02*
X120946000Y-80011000D01*
G75*
G02*
X120896000Y-79961000I0J50000D01*
G01*
X120896000Y-79361000D01*
G75*
G02*
X120946000Y-79311000I50000J0D01*
G01*
X121046000Y-79311000D01*
G75*
G02*
X121096000Y-79361000I0J-50000D01*
G01*
X121096000Y-79961000D01*
G75*
G02*
X121046000Y-80011000I-50000J0D01*
G01*
G37*
G36*
G01*
X121446000Y-80011000D02*
X121346000Y-80011000D01*
G75*
G02*
X121296000Y-79961000I0J50000D01*
G01*
X121296000Y-79361000D01*
G75*
G02*
X121346000Y-79311000I50000J0D01*
G01*
X121446000Y-79311000D01*
G75*
G02*
X121496000Y-79361000I0J-50000D01*
G01*
X121496000Y-79961000D01*
G75*
G02*
X121446000Y-80011000I-50000J0D01*
G01*
G37*
G36*
G01*
X121846000Y-80011000D02*
X121746000Y-80011000D01*
G75*
G02*
X121696000Y-79961000I0J50000D01*
G01*
X121696000Y-79361000D01*
G75*
G02*
X121746000Y-79311000I50000J0D01*
G01*
X121846000Y-79311000D01*
G75*
G02*
X121896000Y-79361000I0J-50000D01*
G01*
X121896000Y-79961000D01*
G75*
G02*
X121846000Y-80011000I-50000J0D01*
G01*
G37*
G36*
G01*
X122696000Y-80361000D02*
X122096000Y-80361000D01*
G75*
G02*
X122046000Y-80311000I0J50000D01*
G01*
X122046000Y-80211000D01*
G75*
G02*
X122096000Y-80161000I50000J0D01*
G01*
X122696000Y-80161000D01*
G75*
G02*
X122746000Y-80211000I0J-50000D01*
G01*
X122746000Y-80311000D01*
G75*
G02*
X122696000Y-80361000I-50000J0D01*
G01*
G37*
G36*
G01*
X122696000Y-80761000D02*
X122096000Y-80761000D01*
G75*
G02*
X122046000Y-80711000I0J50000D01*
G01*
X122046000Y-80611000D01*
G75*
G02*
X122096000Y-80561000I50000J0D01*
G01*
X122696000Y-80561000D01*
G75*
G02*
X122746000Y-80611000I0J-50000D01*
G01*
X122746000Y-80711000D01*
G75*
G02*
X122696000Y-80761000I-50000J0D01*
G01*
G37*
G36*
G01*
X122696000Y-81161000D02*
X122096000Y-81161000D01*
G75*
G02*
X122046000Y-81111000I0J50000D01*
G01*
X122046000Y-81011000D01*
G75*
G02*
X122096000Y-80961000I50000J0D01*
G01*
X122696000Y-80961000D01*
G75*
G02*
X122746000Y-81011000I0J-50000D01*
G01*
X122746000Y-81111000D01*
G75*
G02*
X122696000Y-81161000I-50000J0D01*
G01*
G37*
G36*
G01*
X122696000Y-81561000D02*
X122096000Y-81561000D01*
G75*
G02*
X122046000Y-81511000I0J50000D01*
G01*
X122046000Y-81411000D01*
G75*
G02*
X122096000Y-81361000I50000J0D01*
G01*
X122696000Y-81361000D01*
G75*
G02*
X122746000Y-81411000I0J-50000D01*
G01*
X122746000Y-81511000D01*
G75*
G02*
X122696000Y-81561000I-50000J0D01*
G01*
G37*
G36*
G01*
X122696000Y-81961000D02*
X122096000Y-81961000D01*
G75*
G02*
X122046000Y-81911000I0J50000D01*
G01*
X122046000Y-81811000D01*
G75*
G02*
X122096000Y-81761000I50000J0D01*
G01*
X122696000Y-81761000D01*
G75*
G02*
X122746000Y-81811000I0J-50000D01*
G01*
X122746000Y-81911000D01*
G75*
G02*
X122696000Y-81961000I-50000J0D01*
G01*
G37*
G36*
G01*
X122696000Y-82361000D02*
X122096000Y-82361000D01*
G75*
G02*
X122046000Y-82311000I0J50000D01*
G01*
X122046000Y-82211000D01*
G75*
G02*
X122096000Y-82161000I50000J0D01*
G01*
X122696000Y-82161000D01*
G75*
G02*
X122746000Y-82211000I0J-50000D01*
G01*
X122746000Y-82311000D01*
G75*
G02*
X122696000Y-82361000I-50000J0D01*
G01*
G37*
G36*
G01*
X122696000Y-82761000D02*
X122096000Y-82761000D01*
G75*
G02*
X122046000Y-82711000I0J50000D01*
G01*
X122046000Y-82611000D01*
G75*
G02*
X122096000Y-82561000I50000J0D01*
G01*
X122696000Y-82561000D01*
G75*
G02*
X122746000Y-82611000I0J-50000D01*
G01*
X122746000Y-82711000D01*
G75*
G02*
X122696000Y-82761000I-50000J0D01*
G01*
G37*
G36*
G01*
X122696000Y-83161000D02*
X122096000Y-83161000D01*
G75*
G02*
X122046000Y-83111000I0J50000D01*
G01*
X122046000Y-83011000D01*
G75*
G02*
X122096000Y-82961000I50000J0D01*
G01*
X122696000Y-82961000D01*
G75*
G02*
X122746000Y-83011000I0J-50000D01*
G01*
X122746000Y-83111000D01*
G75*
G02*
X122696000Y-83161000I-50000J0D01*
G01*
G37*
D15*
X120396000Y-81661000D03*
D16*
X126238000Y-77531000D03*
X126238000Y-76581000D03*
X126238000Y-78481000D03*
X128938000Y-78481000D03*
X128938000Y-77531000D03*
X128938000Y-76581000D03*
D17*
X127889000Y-88517000D03*
X127889000Y-91567000D03*
G36*
G01*
X129965000Y-82787500D02*
X129965000Y-82312500D01*
G75*
G02*
X130202500Y-82075000I237500J0D01*
G01*
X130702500Y-82075000D01*
G75*
G02*
X130940000Y-82312500I0J-237500D01*
G01*
X130940000Y-82787500D01*
G75*
G02*
X130702500Y-83025000I-237500J0D01*
G01*
X130202500Y-83025000D01*
G75*
G02*
X129965000Y-82787500I0J237500D01*
G01*
G37*
G36*
G01*
X128140000Y-82787500D02*
X128140000Y-82312500D01*
G75*
G02*
X128377500Y-82075000I237500J0D01*
G01*
X128877500Y-82075000D01*
G75*
G02*
X129115000Y-82312500I0J-237500D01*
G01*
X129115000Y-82787500D01*
G75*
G02*
X128877500Y-83025000I-237500J0D01*
G01*
X128377500Y-83025000D01*
G75*
G02*
X128140000Y-82787500I0J237500D01*
G01*
G37*
G36*
G01*
X116950500Y-84373000D02*
X116475500Y-84373000D01*
G75*
G02*
X116238000Y-84135500I0J237500D01*
G01*
X116238000Y-83560500D01*
G75*
G02*
X116475500Y-83323000I237500J0D01*
G01*
X116950500Y-83323000D01*
G75*
G02*
X117188000Y-83560500I0J-237500D01*
G01*
X117188000Y-84135500D01*
G75*
G02*
X116950500Y-84373000I-237500J0D01*
G01*
G37*
G36*
G01*
X116950500Y-86123000D02*
X116475500Y-86123000D01*
G75*
G02*
X116238000Y-85885500I0J237500D01*
G01*
X116238000Y-85310500D01*
G75*
G02*
X116475500Y-85073000I237500J0D01*
G01*
X116950500Y-85073000D01*
G75*
G02*
X117188000Y-85310500I0J-237500D01*
G01*
X117188000Y-85885500D01*
G75*
G02*
X116950500Y-86123000I-237500J0D01*
G01*
G37*
G36*
G01*
X115172500Y-84373000D02*
X114697500Y-84373000D01*
G75*
G02*
X114460000Y-84135500I0J237500D01*
G01*
X114460000Y-83560500D01*
G75*
G02*
X114697500Y-83323000I237500J0D01*
G01*
X115172500Y-83323000D01*
G75*
G02*
X115410000Y-83560500I0J-237500D01*
G01*
X115410000Y-84135500D01*
G75*
G02*
X115172500Y-84373000I-237500J0D01*
G01*
G37*
G36*
G01*
X115172500Y-86123000D02*
X114697500Y-86123000D01*
G75*
G02*
X114460000Y-85885500I0J237500D01*
G01*
X114460000Y-85310500D01*
G75*
G02*
X114697500Y-85073000I237500J0D01*
G01*
X115172500Y-85073000D01*
G75*
G02*
X115410000Y-85310500I0J-237500D01*
G01*
X115410000Y-85885500D01*
G75*
G02*
X115172500Y-86123000I-237500J0D01*
G01*
G37*
G36*
G01*
X115713500Y-90506000D02*
X116188500Y-90506000D01*
G75*
G02*
X116426000Y-90743500I0J-237500D01*
G01*
X116426000Y-91318500D01*
G75*
G02*
X116188500Y-91556000I-237500J0D01*
G01*
X115713500Y-91556000D01*
G75*
G02*
X115476000Y-91318500I0J237500D01*
G01*
X115476000Y-90743500D01*
G75*
G02*
X115713500Y-90506000I237500J0D01*
G01*
G37*
G36*
G01*
X115713500Y-88756000D02*
X116188500Y-88756000D01*
G75*
G02*
X116426000Y-88993500I0J-237500D01*
G01*
X116426000Y-89568500D01*
G75*
G02*
X116188500Y-89806000I-237500J0D01*
G01*
X115713500Y-89806000D01*
G75*
G02*
X115476000Y-89568500I0J237500D01*
G01*
X115476000Y-88993500D01*
G75*
G02*
X115713500Y-88756000I237500J0D01*
G01*
G37*
G36*
G01*
X117966500Y-89834000D02*
X117491500Y-89834000D01*
G75*
G02*
X117254000Y-89596500I0J237500D01*
G01*
X117254000Y-89021500D01*
G75*
G02*
X117491500Y-88784000I237500J0D01*
G01*
X117966500Y-88784000D01*
G75*
G02*
X118204000Y-89021500I0J-237500D01*
G01*
X118204000Y-89596500D01*
G75*
G02*
X117966500Y-89834000I-237500J0D01*
G01*
G37*
G36*
G01*
X117966500Y-91584000D02*
X117491500Y-91584000D01*
G75*
G02*
X117254000Y-91346500I0J237500D01*
G01*
X117254000Y-90771500D01*
G75*
G02*
X117491500Y-90534000I237500J0D01*
G01*
X117966500Y-90534000D01*
G75*
G02*
X118204000Y-90771500I0J-237500D01*
G01*
X118204000Y-91346500D01*
G75*
G02*
X117966500Y-91584000I-237500J0D01*
G01*
G37*
G36*
G01*
X123362000Y-91075500D02*
X123362000Y-91550500D01*
G75*
G02*
X123124500Y-91788000I-237500J0D01*
G01*
X122549500Y-91788000D01*
G75*
G02*
X122312000Y-91550500I0J237500D01*
G01*
X122312000Y-91075500D01*
G75*
G02*
X122549500Y-90838000I237500J0D01*
G01*
X123124500Y-90838000D01*
G75*
G02*
X123362000Y-91075500I0J-237500D01*
G01*
G37*
G36*
G01*
X125112000Y-91075500D02*
X125112000Y-91550500D01*
G75*
G02*
X124874500Y-91788000I-237500J0D01*
G01*
X124299500Y-91788000D01*
G75*
G02*
X124062000Y-91550500I0J237500D01*
G01*
X124062000Y-91075500D01*
G75*
G02*
X124299500Y-90838000I237500J0D01*
G01*
X124874500Y-90838000D01*
G75*
G02*
X125112000Y-91075500I0J-237500D01*
G01*
G37*
G36*
G01*
X129368000Y-85200500D02*
X129368000Y-84725500D01*
G75*
G02*
X129605500Y-84488000I237500J0D01*
G01*
X130180500Y-84488000D01*
G75*
G02*
X130418000Y-84725500I0J-237500D01*
G01*
X130418000Y-85200500D01*
G75*
G02*
X130180500Y-85438000I-237500J0D01*
G01*
X129605500Y-85438000D01*
G75*
G02*
X129368000Y-85200500I0J237500D01*
G01*
G37*
G36*
G01*
X127618000Y-85200500D02*
X127618000Y-84725500D01*
G75*
G02*
X127855500Y-84488000I237500J0D01*
G01*
X128430500Y-84488000D01*
G75*
G02*
X128668000Y-84725500I0J-237500D01*
G01*
X128668000Y-85200500D01*
G75*
G02*
X128430500Y-85438000I-237500J0D01*
G01*
X127855500Y-85438000D01*
G75*
G02*
X127618000Y-85200500I0J237500D01*
G01*
G37*
G36*
G01*
X119933000Y-91075500D02*
X119933000Y-91550500D01*
G75*
G02*
X119695500Y-91788000I-237500J0D01*
G01*
X119120500Y-91788000D01*
G75*
G02*
X118883000Y-91550500I0J237500D01*
G01*
X118883000Y-91075500D01*
G75*
G02*
X119120500Y-90838000I237500J0D01*
G01*
X119695500Y-90838000D01*
G75*
G02*
X119933000Y-91075500I0J-237500D01*
G01*
G37*
G36*
G01*
X121683000Y-91075500D02*
X121683000Y-91550500D01*
G75*
G02*
X121445500Y-91788000I-237500J0D01*
G01*
X120870500Y-91788000D01*
G75*
G02*
X120633000Y-91550500I0J237500D01*
G01*
X120633000Y-91075500D01*
G75*
G02*
X120870500Y-90838000I237500J0D01*
G01*
X121445500Y-90838000D01*
G75*
G02*
X121683000Y-91075500I0J-237500D01*
G01*
G37*
G36*
G01*
X129368000Y-86851500D02*
X129368000Y-86376500D01*
G75*
G02*
X129605500Y-86139000I237500J0D01*
G01*
X130180500Y-86139000D01*
G75*
G02*
X130418000Y-86376500I0J-237500D01*
G01*
X130418000Y-86851500D01*
G75*
G02*
X130180500Y-87089000I-237500J0D01*
G01*
X129605500Y-87089000D01*
G75*
G02*
X129368000Y-86851500I0J237500D01*
G01*
G37*
G36*
G01*
X127618000Y-86851500D02*
X127618000Y-86376500D01*
G75*
G02*
X127855500Y-86139000I237500J0D01*
G01*
X128430500Y-86139000D01*
G75*
G02*
X128668000Y-86376500I0J-237500D01*
G01*
X128668000Y-86851500D01*
G75*
G02*
X128430500Y-87089000I-237500J0D01*
G01*
X127855500Y-87089000D01*
G75*
G02*
X127618000Y-86851500I0J237500D01*
G01*
G37*
G36*
G01*
X131679101Y-77074500D02*
X130779099Y-77074500D01*
G75*
G02*
X130529100Y-76824501I0J249999D01*
G01*
X130529100Y-76174499D01*
G75*
G02*
X130779099Y-75924500I249999J0D01*
G01*
X131679101Y-75924500D01*
G75*
G02*
X131929100Y-76174499I0J-249999D01*
G01*
X131929100Y-76824501D01*
G75*
G02*
X131679101Y-77074500I-249999J0D01*
G01*
G37*
G36*
G01*
X131679101Y-79124500D02*
X130779099Y-79124500D01*
G75*
G02*
X130529100Y-78874501I0J249999D01*
G01*
X130529100Y-78224499D01*
G75*
G02*
X130779099Y-77974500I249999J0D01*
G01*
X131679101Y-77974500D01*
G75*
G02*
X131929100Y-78224499I0J-249999D01*
G01*
X131929100Y-78874501D01*
G75*
G02*
X131679101Y-79124500I-249999J0D01*
G01*
G37*
M02*
