G04 #@! TF.GenerationSoftware,KiCad,Pcbnew,(5.1.10)-1*
G04 #@! TF.CreationDate,2021-09-12T00:39:30-05:00*
G04 #@! TF.ProjectId,wireless_measurement_ard,77697265-6c65-4737-935f-6d6561737572,rev?*
G04 #@! TF.SameCoordinates,Original*
G04 #@! TF.FileFunction,Soldermask,Top*
G04 #@! TF.FilePolarity,Negative*
%FSLAX46Y46*%
G04 Gerber Fmt 4.6, Leading zero omitted, Abs format (unit mm)*
G04 Created by KiCad (PCBNEW (5.1.10)-1) date 2021-09-12 00:39:30*
%MOMM*%
%LPD*%
G01*
G04 APERTURE LIST*
%ADD10O,1.700000X1.700000*%
%ADD11R,1.700000X1.700000*%
%ADD12C,0.900000*%
G04 APERTURE END LIST*
D10*
X136779000Y-85217000D03*
X134239000Y-85217000D03*
X136779000Y-82677000D03*
X134239000Y-82677000D03*
X136779000Y-80137000D03*
X134239000Y-80137000D03*
X136779000Y-77597000D03*
D11*
X134239000Y-77597000D03*
G36*
G01*
X137143500Y-90356500D02*
X136668500Y-90356500D01*
G75*
G02*
X136431000Y-90119000I0J237500D01*
G01*
X136431000Y-89619000D01*
G75*
G02*
X136668500Y-89381500I237500J0D01*
G01*
X137143500Y-89381500D01*
G75*
G02*
X137381000Y-89619000I0J-237500D01*
G01*
X137381000Y-90119000D01*
G75*
G02*
X137143500Y-90356500I-237500J0D01*
G01*
G37*
G36*
G01*
X137143500Y-92181500D02*
X136668500Y-92181500D01*
G75*
G02*
X136431000Y-91944000I0J237500D01*
G01*
X136431000Y-91444000D01*
G75*
G02*
X136668500Y-91206500I237500J0D01*
G01*
X137143500Y-91206500D01*
G75*
G02*
X137381000Y-91444000I0J-237500D01*
G01*
X137381000Y-91944000D01*
G75*
G02*
X137143500Y-92181500I-237500J0D01*
G01*
G37*
D12*
X131982000Y-90634000D03*
X138782000Y-90634000D03*
G36*
G01*
X128923000Y-77970000D02*
X130923000Y-77970000D01*
G75*
G02*
X131123000Y-78170000I0J-200000D01*
G01*
X131123000Y-78970000D01*
G75*
G02*
X130923000Y-79170000I-200000J0D01*
G01*
X128923000Y-79170000D01*
G75*
G02*
X128723000Y-78970000I0J200000D01*
G01*
X128723000Y-78170000D01*
G75*
G02*
X128923000Y-77970000I200000J0D01*
G01*
G37*
G36*
G01*
X128923000Y-79470000D02*
X130923000Y-79470000D01*
G75*
G02*
X131123000Y-79670000I0J-200000D01*
G01*
X131123000Y-80470000D01*
G75*
G02*
X130923000Y-80670000I-200000J0D01*
G01*
X128923000Y-80670000D01*
G75*
G02*
X128723000Y-80470000I0J200000D01*
G01*
X128723000Y-79670000D01*
G75*
G02*
X128923000Y-79470000I200000J0D01*
G01*
G37*
G36*
G01*
X128923000Y-80970000D02*
X130923000Y-80970000D01*
G75*
G02*
X131123000Y-81170000I0J-200000D01*
G01*
X131123000Y-81970000D01*
G75*
G02*
X130923000Y-82170000I-200000J0D01*
G01*
X128923000Y-82170000D01*
G75*
G02*
X128723000Y-81970000I0J200000D01*
G01*
X128723000Y-81170000D01*
G75*
G02*
X128923000Y-80970000I200000J0D01*
G01*
G37*
G36*
G01*
X128923000Y-82470000D02*
X130923000Y-82470000D01*
G75*
G02*
X131123000Y-82670000I0J-200000D01*
G01*
X131123000Y-83470000D01*
G75*
G02*
X130923000Y-83670000I-200000J0D01*
G01*
X128923000Y-83670000D01*
G75*
G02*
X128723000Y-83470000I0J200000D01*
G01*
X128723000Y-82670000D01*
G75*
G02*
X128923000Y-82470000I200000J0D01*
G01*
G37*
G36*
G01*
X128923000Y-83970000D02*
X130923000Y-83970000D01*
G75*
G02*
X131123000Y-84170000I0J-200000D01*
G01*
X131123000Y-84970000D01*
G75*
G02*
X130923000Y-85170000I-200000J0D01*
G01*
X128923000Y-85170000D01*
G75*
G02*
X128723000Y-84970000I0J200000D01*
G01*
X128723000Y-84170000D01*
G75*
G02*
X128923000Y-83970000I200000J0D01*
G01*
G37*
G36*
G01*
X128923000Y-85470000D02*
X130923000Y-85470000D01*
G75*
G02*
X131123000Y-85670000I0J-200000D01*
G01*
X131123000Y-86470000D01*
G75*
G02*
X130923000Y-86670000I-200000J0D01*
G01*
X128923000Y-86670000D01*
G75*
G02*
X128723000Y-86470000I0J200000D01*
G01*
X128723000Y-85670000D01*
G75*
G02*
X128923000Y-85470000I200000J0D01*
G01*
G37*
G36*
G01*
X128923000Y-86970000D02*
X130923000Y-86970000D01*
G75*
G02*
X131123000Y-87170000I0J-200000D01*
G01*
X131123000Y-87970000D01*
G75*
G02*
X130923000Y-88170000I-200000J0D01*
G01*
X128923000Y-88170000D01*
G75*
G02*
X128723000Y-87970000I0J200000D01*
G01*
X128723000Y-87170000D01*
G75*
G02*
X128923000Y-86970000I200000J0D01*
G01*
G37*
G36*
G01*
X128423000Y-89690000D02*
X129223000Y-89690000D01*
G75*
G02*
X129423000Y-89890000I0J-200000D01*
G01*
X129423000Y-91890000D01*
G75*
G02*
X129223000Y-92090000I-200000J0D01*
G01*
X128423000Y-92090000D01*
G75*
G02*
X128223000Y-91890000I0J200000D01*
G01*
X128223000Y-89890000D01*
G75*
G02*
X128423000Y-89690000I200000J0D01*
G01*
G37*
G36*
G01*
X128423000Y-75550000D02*
X129223000Y-75550000D01*
G75*
G02*
X129423000Y-75750000I0J-200000D01*
G01*
X129423000Y-77750000D01*
G75*
G02*
X129223000Y-77950000I-200000J0D01*
G01*
X128423000Y-77950000D01*
G75*
G02*
X128223000Y-77750000I0J200000D01*
G01*
X128223000Y-75750000D01*
G75*
G02*
X128423000Y-75550000I200000J0D01*
G01*
G37*
G36*
G01*
X126923000Y-75550000D02*
X127723000Y-75550000D01*
G75*
G02*
X127923000Y-75750000I0J-200000D01*
G01*
X127923000Y-77750000D01*
G75*
G02*
X127723000Y-77950000I-200000J0D01*
G01*
X126923000Y-77950000D01*
G75*
G02*
X126723000Y-77750000I0J200000D01*
G01*
X126723000Y-75750000D01*
G75*
G02*
X126923000Y-75550000I200000J0D01*
G01*
G37*
G36*
G01*
X126923000Y-89690000D02*
X127723000Y-89690000D01*
G75*
G02*
X127923000Y-89890000I0J-200000D01*
G01*
X127923000Y-91890000D01*
G75*
G02*
X127723000Y-92090000I-200000J0D01*
G01*
X126923000Y-92090000D01*
G75*
G02*
X126723000Y-91890000I0J200000D01*
G01*
X126723000Y-89890000D01*
G75*
G02*
X126923000Y-89690000I200000J0D01*
G01*
G37*
G36*
G01*
X125423000Y-89690000D02*
X126223000Y-89690000D01*
G75*
G02*
X126423000Y-89890000I0J-200000D01*
G01*
X126423000Y-91890000D01*
G75*
G02*
X126223000Y-92090000I-200000J0D01*
G01*
X125423000Y-92090000D01*
G75*
G02*
X125223000Y-91890000I0J200000D01*
G01*
X125223000Y-89890000D01*
G75*
G02*
X125423000Y-89690000I200000J0D01*
G01*
G37*
G36*
G01*
X125423000Y-75550000D02*
X126223000Y-75550000D01*
G75*
G02*
X126423000Y-75750000I0J-200000D01*
G01*
X126423000Y-77750000D01*
G75*
G02*
X126223000Y-77950000I-200000J0D01*
G01*
X125423000Y-77950000D01*
G75*
G02*
X125223000Y-77750000I0J200000D01*
G01*
X125223000Y-75750000D01*
G75*
G02*
X125423000Y-75550000I200000J0D01*
G01*
G37*
G36*
G01*
X123923000Y-75550000D02*
X124723000Y-75550000D01*
G75*
G02*
X124923000Y-75750000I0J-200000D01*
G01*
X124923000Y-77750000D01*
G75*
G02*
X124723000Y-77950000I-200000J0D01*
G01*
X123923000Y-77950000D01*
G75*
G02*
X123723000Y-77750000I0J200000D01*
G01*
X123723000Y-75750000D01*
G75*
G02*
X123923000Y-75550000I200000J0D01*
G01*
G37*
G36*
G01*
X123923000Y-89690000D02*
X124723000Y-89690000D01*
G75*
G02*
X124923000Y-89890000I0J-200000D01*
G01*
X124923000Y-91890000D01*
G75*
G02*
X124723000Y-92090000I-200000J0D01*
G01*
X123923000Y-92090000D01*
G75*
G02*
X123723000Y-91890000I0J200000D01*
G01*
X123723000Y-89890000D01*
G75*
G02*
X123923000Y-89690000I200000J0D01*
G01*
G37*
G36*
G01*
X122423000Y-89690000D02*
X123223000Y-89690000D01*
G75*
G02*
X123423000Y-89890000I0J-200000D01*
G01*
X123423000Y-91890000D01*
G75*
G02*
X123223000Y-92090000I-200000J0D01*
G01*
X122423000Y-92090000D01*
G75*
G02*
X122223000Y-91890000I0J200000D01*
G01*
X122223000Y-89890000D01*
G75*
G02*
X122423000Y-89690000I200000J0D01*
G01*
G37*
G36*
G01*
X122423000Y-75550000D02*
X123223000Y-75550000D01*
G75*
G02*
X123423000Y-75750000I0J-200000D01*
G01*
X123423000Y-77750000D01*
G75*
G02*
X123223000Y-77950000I-200000J0D01*
G01*
X122423000Y-77950000D01*
G75*
G02*
X122223000Y-77750000I0J200000D01*
G01*
X122223000Y-75750000D01*
G75*
G02*
X122423000Y-75550000I200000J0D01*
G01*
G37*
G36*
G01*
X120923000Y-75550000D02*
X121723000Y-75550000D01*
G75*
G02*
X121923000Y-75750000I0J-200000D01*
G01*
X121923000Y-77750000D01*
G75*
G02*
X121723000Y-77950000I-200000J0D01*
G01*
X120923000Y-77950000D01*
G75*
G02*
X120723000Y-77750000I0J200000D01*
G01*
X120723000Y-75750000D01*
G75*
G02*
X120923000Y-75550000I200000J0D01*
G01*
G37*
G36*
G01*
X120923000Y-89690000D02*
X121723000Y-89690000D01*
G75*
G02*
X121923000Y-89890000I0J-200000D01*
G01*
X121923000Y-91890000D01*
G75*
G02*
X121723000Y-92090000I-200000J0D01*
G01*
X120923000Y-92090000D01*
G75*
G02*
X120723000Y-91890000I0J200000D01*
G01*
X120723000Y-89890000D01*
G75*
G02*
X120923000Y-89690000I200000J0D01*
G01*
G37*
G36*
G01*
X119423000Y-89690000D02*
X120223000Y-89690000D01*
G75*
G02*
X120423000Y-89890000I0J-200000D01*
G01*
X120423000Y-91890000D01*
G75*
G02*
X120223000Y-92090000I-200000J0D01*
G01*
X119423000Y-92090000D01*
G75*
G02*
X119223000Y-91890000I0J200000D01*
G01*
X119223000Y-89890000D01*
G75*
G02*
X119423000Y-89690000I200000J0D01*
G01*
G37*
G36*
G01*
X119423000Y-75550000D02*
X120223000Y-75550000D01*
G75*
G02*
X120423000Y-75750000I0J-200000D01*
G01*
X120423000Y-77750000D01*
G75*
G02*
X120223000Y-77950000I-200000J0D01*
G01*
X119423000Y-77950000D01*
G75*
G02*
X119223000Y-77750000I0J200000D01*
G01*
X119223000Y-75750000D01*
G75*
G02*
X119423000Y-75550000I200000J0D01*
G01*
G37*
G36*
G01*
X117923000Y-75550000D02*
X118723000Y-75550000D01*
G75*
G02*
X118923000Y-75750000I0J-200000D01*
G01*
X118923000Y-77750000D01*
G75*
G02*
X118723000Y-77950000I-200000J0D01*
G01*
X117923000Y-77950000D01*
G75*
G02*
X117723000Y-77750000I0J200000D01*
G01*
X117723000Y-75750000D01*
G75*
G02*
X117923000Y-75550000I200000J0D01*
G01*
G37*
G36*
G01*
X128923000Y-88470000D02*
X130923000Y-88470000D01*
G75*
G02*
X131123000Y-88670000I0J-200000D01*
G01*
X131123000Y-89470000D01*
G75*
G02*
X130923000Y-89670000I-200000J0D01*
G01*
X128923000Y-89670000D01*
G75*
G02*
X128723000Y-89470000I0J200000D01*
G01*
X128723000Y-88670000D01*
G75*
G02*
X128923000Y-88470000I200000J0D01*
G01*
G37*
G36*
G01*
X117923000Y-89690000D02*
X118723000Y-89690000D01*
G75*
G02*
X118923000Y-89890000I0J-200000D01*
G01*
X118923000Y-91890000D01*
G75*
G02*
X118723000Y-92090000I-200000J0D01*
G01*
X117923000Y-92090000D01*
G75*
G02*
X117723000Y-91890000I0J200000D01*
G01*
X117723000Y-89890000D01*
G75*
G02*
X117923000Y-89690000I200000J0D01*
G01*
G37*
G36*
G01*
X137989500Y-88375500D02*
X137989500Y-87900500D01*
G75*
G02*
X138227000Y-87663000I237500J0D01*
G01*
X138727000Y-87663000D01*
G75*
G02*
X138964500Y-87900500I0J-237500D01*
G01*
X138964500Y-88375500D01*
G75*
G02*
X138727000Y-88613000I-237500J0D01*
G01*
X138227000Y-88613000D01*
G75*
G02*
X137989500Y-88375500I0J237500D01*
G01*
G37*
G36*
G01*
X136164500Y-88375500D02*
X136164500Y-87900500D01*
G75*
G02*
X136402000Y-87663000I237500J0D01*
G01*
X136902000Y-87663000D01*
G75*
G02*
X137139500Y-87900500I0J-237500D01*
G01*
X137139500Y-88375500D01*
G75*
G02*
X136902000Y-88613000I-237500J0D01*
G01*
X136402000Y-88613000D01*
G75*
G02*
X136164500Y-88375500I0J237500D01*
G01*
G37*
G36*
G01*
X134386500Y-88375500D02*
X134386500Y-87900500D01*
G75*
G02*
X134624000Y-87663000I237500J0D01*
G01*
X135124000Y-87663000D01*
G75*
G02*
X135361500Y-87900500I0J-237500D01*
G01*
X135361500Y-88375500D01*
G75*
G02*
X135124000Y-88613000I-237500J0D01*
G01*
X134624000Y-88613000D01*
G75*
G02*
X134386500Y-88375500I0J237500D01*
G01*
G37*
G36*
G01*
X132561500Y-88375500D02*
X132561500Y-87900500D01*
G75*
G02*
X132799000Y-87663000I237500J0D01*
G01*
X133299000Y-87663000D01*
G75*
G02*
X133536500Y-87900500I0J-237500D01*
G01*
X133536500Y-88375500D01*
G75*
G02*
X133299000Y-88613000I-237500J0D01*
G01*
X132799000Y-88613000D01*
G75*
G02*
X132561500Y-88375500I0J237500D01*
G01*
G37*
G36*
G01*
X134876250Y-91928500D02*
X134363750Y-91928500D01*
G75*
G02*
X134145000Y-91709750I0J218750D01*
G01*
X134145000Y-91272250D01*
G75*
G02*
X134363750Y-91053500I218750J0D01*
G01*
X134876250Y-91053500D01*
G75*
G02*
X135095000Y-91272250I0J-218750D01*
G01*
X135095000Y-91709750D01*
G75*
G02*
X134876250Y-91928500I-218750J0D01*
G01*
G37*
G36*
G01*
X134876250Y-90353500D02*
X134363750Y-90353500D01*
G75*
G02*
X134145000Y-90134750I0J218750D01*
G01*
X134145000Y-89697250D01*
G75*
G02*
X134363750Y-89478500I218750J0D01*
G01*
X134876250Y-89478500D01*
G75*
G02*
X135095000Y-89697250I0J-218750D01*
G01*
X135095000Y-90134750D01*
G75*
G02*
X134876250Y-90353500I-218750J0D01*
G01*
G37*
M02*
