%TF.GenerationSoftware,KiCad,Pcbnew,(5.1.10-1-10_14)*%
%TF.CreationDate,2021-08-31T12:45:11-05:00*%
%TF.ProjectId,wireless_measurement_ard,77697265-6c65-4737-935f-6d6561737572,rev?*%
%TF.SameCoordinates,Original*%
%TF.FileFunction,Legend,Top*%
%TF.FilePolarity,Positive*%
%FSLAX46Y46*%
G04 Gerber Fmt 4.6, Leading zero omitted, Abs format (unit mm)*
G04 Created by KiCad (PCBNEW (5.1.10-1-10_14)) date 2021-08-31 12:45:11*
%MOMM*%
%LPD*%
G01*
G04 APERTURE LIST*
%ADD10C,0.300000*%
%ADD11C,0.150000*%
%ADD12C,0.120000*%
G04 APERTURE END LIST*
D10*
X124396571Y-93325142D02*
X125539428Y-93325142D01*
X120967571Y-93325142D02*
X122110428Y-93325142D01*
X121539000Y-93896571D02*
X121539000Y-92753714D01*
D11*
X131070000Y-90989571D02*
X131034285Y-91061000D01*
X131034285Y-91168142D01*
X131070000Y-91275285D01*
X131141428Y-91346714D01*
X131212857Y-91382428D01*
X131355714Y-91418142D01*
X131462857Y-91418142D01*
X131605714Y-91382428D01*
X131677142Y-91346714D01*
X131748571Y-91275285D01*
X131784285Y-91168142D01*
X131784285Y-91096714D01*
X131748571Y-90989571D01*
X131712857Y-90953857D01*
X131462857Y-90953857D01*
X131462857Y-91096714D01*
D12*
%TO.C,U2*%
X130256000Y-76290000D02*
X129296000Y-76290000D01*
X130256000Y-77920000D02*
X130256000Y-76290000D01*
X130256000Y-91350000D02*
X130256000Y-89720000D01*
X129296000Y-91350000D02*
X130256000Y-91350000D01*
X110536000Y-76290000D02*
X117396000Y-76290000D01*
X110536000Y-91350000D02*
X110536000Y-76290000D01*
X117396000Y-91350000D02*
X110536000Y-91350000D01*
%TO.C,R8*%
X133284700Y-85342824D02*
X133284700Y-84833376D01*
X134329700Y-85342824D02*
X134329700Y-84833376D01*
%TO.C,R7*%
X133335500Y-89103924D02*
X133335500Y-88594476D01*
X134380500Y-89103924D02*
X134380500Y-88594476D01*
%TO.C,J2*%
X129159000Y-96774000D02*
X129159000Y-96139000D01*
X129794000Y-96774000D02*
X129159000Y-96774000D01*
%TO.C,J1*%
X138396800Y-76343200D02*
X138396800Y-96783200D01*
X138396800Y-96783200D02*
X141056800Y-96783200D01*
X141056800Y-96783200D02*
X141056800Y-76343200D01*
X141056800Y-76343200D02*
X138396800Y-76343200D01*
X141056800Y-77293200D02*
X147056800Y-77293200D01*
X147056800Y-77293200D02*
X147056800Y-78053200D01*
X147056800Y-78053200D02*
X141056800Y-78053200D01*
X141056800Y-77353200D02*
X147056800Y-77353200D01*
X141056800Y-77473200D02*
X147056800Y-77473200D01*
X141056800Y-77593200D02*
X147056800Y-77593200D01*
X141056800Y-77713200D02*
X147056800Y-77713200D01*
X141056800Y-77833200D02*
X147056800Y-77833200D01*
X141056800Y-77953200D02*
X147056800Y-77953200D01*
X138066800Y-77293200D02*
X138396800Y-77293200D01*
X138066800Y-78053200D02*
X138396800Y-78053200D01*
X138396800Y-78943200D02*
X141056800Y-78943200D01*
X141056800Y-79833200D02*
X147056800Y-79833200D01*
X147056800Y-79833200D02*
X147056800Y-80593200D01*
X147056800Y-80593200D02*
X141056800Y-80593200D01*
X137999729Y-79833200D02*
X138396800Y-79833200D01*
X137999729Y-80593200D02*
X138396800Y-80593200D01*
X138396800Y-81483200D02*
X141056800Y-81483200D01*
X141056800Y-82373200D02*
X147056800Y-82373200D01*
X147056800Y-82373200D02*
X147056800Y-83133200D01*
X147056800Y-83133200D02*
X141056800Y-83133200D01*
X137999729Y-82373200D02*
X138396800Y-82373200D01*
X137999729Y-83133200D02*
X138396800Y-83133200D01*
X138396800Y-84023200D02*
X141056800Y-84023200D01*
X141056800Y-84913200D02*
X147056800Y-84913200D01*
X147056800Y-84913200D02*
X147056800Y-85673200D01*
X147056800Y-85673200D02*
X141056800Y-85673200D01*
X137999729Y-84913200D02*
X138396800Y-84913200D01*
X137999729Y-85673200D02*
X138396800Y-85673200D01*
X138396800Y-86563200D02*
X141056800Y-86563200D01*
X141056800Y-87453200D02*
X147056800Y-87453200D01*
X147056800Y-87453200D02*
X147056800Y-88213200D01*
X147056800Y-88213200D02*
X141056800Y-88213200D01*
X137999729Y-87453200D02*
X138396800Y-87453200D01*
X137999729Y-88213200D02*
X138396800Y-88213200D01*
X138396800Y-89103200D02*
X141056800Y-89103200D01*
X141056800Y-89993200D02*
X147056800Y-89993200D01*
X147056800Y-89993200D02*
X147056800Y-90753200D01*
X147056800Y-90753200D02*
X141056800Y-90753200D01*
X137999729Y-89993200D02*
X138396800Y-89993200D01*
X137999729Y-90753200D02*
X138396800Y-90753200D01*
X138396800Y-91643200D02*
X141056800Y-91643200D01*
X141056800Y-92533200D02*
X147056800Y-92533200D01*
X147056800Y-92533200D02*
X147056800Y-93293200D01*
X147056800Y-93293200D02*
X141056800Y-93293200D01*
X137999729Y-92533200D02*
X138396800Y-92533200D01*
X137999729Y-93293200D02*
X138396800Y-93293200D01*
X138396800Y-94183200D02*
X141056800Y-94183200D01*
X141056800Y-95073200D02*
X147056800Y-95073200D01*
X147056800Y-95073200D02*
X147056800Y-95833200D01*
X147056800Y-95833200D02*
X141056800Y-95833200D01*
X137999729Y-95073200D02*
X138396800Y-95073200D01*
X137999729Y-95833200D02*
X138396800Y-95833200D01*
X135686800Y-77673200D02*
X135686800Y-76403200D01*
X135686800Y-76403200D02*
X136956800Y-76403200D01*
%TO.C,Battery1*%
X123698000Y-97088000D02*
X123698000Y-94428000D01*
X123698000Y-97088000D02*
X126298000Y-97088000D01*
X126298000Y-97088000D02*
X126298000Y-94428000D01*
X123698000Y-94428000D02*
X126298000Y-94428000D01*
X121098000Y-94428000D02*
X122428000Y-94428000D01*
X121098000Y-95758000D02*
X121098000Y-94428000D01*
%TO.C,D1*%
X132550000Y-77697000D02*
X134835000Y-77697000D01*
X134835000Y-77697000D02*
X134835000Y-76227000D01*
X134835000Y-76227000D02*
X132550000Y-76227000D01*
%TO.C,R3*%
X133987000Y-79443733D02*
X133987000Y-79786267D01*
X132967000Y-79443733D02*
X132967000Y-79786267D01*
%TO.C,U2*%
D11*
X111212380Y-93725904D02*
X112021904Y-93725904D01*
X112117142Y-93678285D01*
X112164761Y-93630666D01*
X112212380Y-93535428D01*
X112212380Y-93344952D01*
X112164761Y-93249714D01*
X112117142Y-93202095D01*
X112021904Y-93154476D01*
X111212380Y-93154476D01*
X111307619Y-92725904D02*
X111260000Y-92678285D01*
X111212380Y-92583047D01*
X111212380Y-92344952D01*
X111260000Y-92249714D01*
X111307619Y-92202095D01*
X111402857Y-92154476D01*
X111498095Y-92154476D01*
X111640952Y-92202095D01*
X112212380Y-92773523D01*
X112212380Y-92154476D01*
%TO.C,R8*%
X131924819Y-84921433D02*
X132401009Y-84588100D01*
X131924819Y-84350004D02*
X132924819Y-84350004D01*
X132924819Y-84730957D01*
X132877200Y-84826195D01*
X132829580Y-84873814D01*
X132734342Y-84921433D01*
X132591485Y-84921433D01*
X132496247Y-84873814D01*
X132448628Y-84826195D01*
X132401009Y-84730957D01*
X132401009Y-84350004D01*
X132496247Y-85492861D02*
X132543866Y-85397623D01*
X132591485Y-85350004D01*
X132686723Y-85302385D01*
X132734342Y-85302385D01*
X132829580Y-85350004D01*
X132877200Y-85397623D01*
X132924819Y-85492861D01*
X132924819Y-85683338D01*
X132877200Y-85778576D01*
X132829580Y-85826195D01*
X132734342Y-85873814D01*
X132686723Y-85873814D01*
X132591485Y-85826195D01*
X132543866Y-85778576D01*
X132496247Y-85683338D01*
X132496247Y-85492861D01*
X132448628Y-85397623D01*
X132401009Y-85350004D01*
X132305771Y-85302385D01*
X132115295Y-85302385D01*
X132020057Y-85350004D01*
X131972438Y-85397623D01*
X131924819Y-85492861D01*
X131924819Y-85683338D01*
X131972438Y-85778576D01*
X132020057Y-85826195D01*
X132115295Y-85873814D01*
X132305771Y-85873814D01*
X132401009Y-85826195D01*
X132448628Y-85778576D01*
X132496247Y-85683338D01*
%TO.C,R7*%
X132880380Y-89015866D02*
X132404190Y-89349200D01*
X132880380Y-89587295D02*
X131880380Y-89587295D01*
X131880380Y-89206342D01*
X131928000Y-89111104D01*
X131975619Y-89063485D01*
X132070857Y-89015866D01*
X132213714Y-89015866D01*
X132308952Y-89063485D01*
X132356571Y-89111104D01*
X132404190Y-89206342D01*
X132404190Y-89587295D01*
X131880380Y-88682533D02*
X131880380Y-88015866D01*
X132880380Y-88444438D01*
%TO.C,D1*%
X131643380Y-77700095D02*
X130643380Y-77700095D01*
X130643380Y-77462000D01*
X130691000Y-77319142D01*
X130786238Y-77223904D01*
X130881476Y-77176285D01*
X131071952Y-77128666D01*
X131214809Y-77128666D01*
X131405285Y-77176285D01*
X131500523Y-77223904D01*
X131595761Y-77319142D01*
X131643380Y-77462000D01*
X131643380Y-77700095D01*
X131643380Y-76176285D02*
X131643380Y-76747714D01*
X131643380Y-76462000D02*
X130643380Y-76462000D01*
X130786238Y-76557238D01*
X130881476Y-76652476D01*
X130929095Y-76747714D01*
%TO.C,R3*%
X132532380Y-79781666D02*
X132056190Y-80115000D01*
X132532380Y-80353095D02*
X131532380Y-80353095D01*
X131532380Y-79972142D01*
X131580000Y-79876904D01*
X131627619Y-79829285D01*
X131722857Y-79781666D01*
X131865714Y-79781666D01*
X131960952Y-79829285D01*
X132008571Y-79876904D01*
X132056190Y-79972142D01*
X132056190Y-80353095D01*
X131532380Y-79448333D02*
X131532380Y-78829285D01*
X131913333Y-79162619D01*
X131913333Y-79019761D01*
X131960952Y-78924523D01*
X132008571Y-78876904D01*
X132103809Y-78829285D01*
X132341904Y-78829285D01*
X132437142Y-78876904D01*
X132484761Y-78924523D01*
X132532380Y-79019761D01*
X132532380Y-79305476D01*
X132484761Y-79400714D01*
X132437142Y-79448333D01*
%TD*%
M02*
