M48
; DRILL file {KiCad (5.1.10)-1} date 10/01/21 13:24:00
; FORMAT={-:-/ absolute / inch / decimal}
; #@! TF.CreationDate,2021-10-01T13:24:00-05:00
; #@! TF.GenerationSoftware,Kicad,Pcbnew,(5.1.10)-1
FMAT,2
INCH
T1C0.0157
T2C0.0394
T3C0.0354
%
G90
G05
T1
X4.65Y-3.27
X4.69Y-3.43
X4.695Y-3.27
X4.7018Y-3.1479
X4.7119Y-3.1127
X4.736Y-3.274
X4.7436Y-3.084
X4.771Y-3.321
X4.79Y-3.51
X4.814Y-3.339
X4.83Y-3.2
X4.8375Y-3.485
X4.9519Y-3.2992
X4.965Y-3.414
X4.973Y-3.266
X4.974Y-3.173
X4.986Y-3.3135
X4.9983Y-3.2337
X5.02Y-3.42
X5.028Y-3.2885
X5.0307Y-3.0968
X5.0315Y-3.2492
X5.1917Y-3.1466
X5.1951Y-3.1846
X5.1993Y-3.2305
X5.231Y-3.192
X5.279Y-3.39
T2
X5.323Y-3.042
X5.323Y-3.142
X5.323Y-3.242
X5.323Y-3.342
X5.423Y-3.042
X5.423Y-3.142
X5.423Y-3.242
X5.423Y-3.342
T3
X5.1961Y-3.5683
X5.4639Y-3.5683
T0
M30
