M48
; DRILL file {KiCad (5.1.10)-1} date 09/12/21 00:39:38
; FORMAT={-:-/ absolute / inch / decimal}
; #@! TF.CreationDate,2021-09-12T00:39:38-05:00
; #@! TF.GenerationSoftware,Kicad,Pcbnew,(5.1.10)-1
FMAT,2
INCH
T1C0.0157
T2C0.0394
T3C0.0354
%
G90
G05
T1
X4.61Y-3.12
X4.655Y-3.095
X4.66Y-3.405
X4.695Y-3.345
X4.73Y-3.39
X4.74Y-3.215
X4.7856Y-3.3494
X4.815Y-3.095
X4.825Y-3.485
X4.875Y-3.11
X4.955Y-3.41
X4.96Y-3.3
X4.97Y-3.26
X4.9728Y-3.2142
X5.005Y-3.24
X5.025Y-3.1333
X5.1853Y-3.1984
X5.21Y-3.165
X5.2278Y-3.2079
X5.2845Y-3.4174
T2
X5.285Y-3.055
X5.285Y-3.155
X5.285Y-3.255
X5.285Y-3.355
X5.385Y-3.055
X5.385Y-3.155
X5.385Y-3.255
X5.385Y-3.355
T3
X5.1961Y-3.5683
X5.4639Y-3.5683
T0
M30
