M48
; DRILL file {KiCad (5.1.10)-1} date 10/03/21 20:24:12
; FORMAT={-:-/ absolute / inch / decimal}
; #@! TF.CreationDate,2021-10-03T20:24:12-05:00
; #@! TF.GenerationSoftware,Kicad,Pcbnew,(5.1.10)-1
FMAT,2
INCH
T1C0.0157
T2C0.0394
T3C0.0354
T4C0.0390
%
G90
G05
T1
X4.53Y-3.77
X4.6875Y-3.113
X4.734Y-3.707
X4.781Y-3.311
X4.8Y-3.1275
X4.801Y-3.503
X4.845Y-3.685
X4.8585Y-3.0998
X4.8675Y-3.19
X4.87Y-3.43
X4.94Y-3.272
X4.9405Y-3.1952
X4.9735Y-3.104
X5.001Y-3.2729
X5.0098Y-3.8211
X5.0229Y-3.0985
X5.045Y-3.7
X5.0566Y-3.8342
X5.1945Y-3.202
X5.2075Y-3.3328
X5.2466Y-3.2902
X5.25Y-2.99
X5.474Y-3.103
T2
X4.82Y-3.77
X4.92Y-3.77
X5.392Y-3.058
X5.392Y-3.158
X5.392Y-3.258
X5.392Y-3.358
X5.392Y-3.458
X5.392Y-3.558
X5.392Y-3.658
X5.392Y-3.758
T3
X4.3961Y-3.77
X4.6639Y-3.77
T4
X5.06Y-3.76
X5.26Y-3.72
X5.26Y-3.8
T0
M30
