%TF.GenerationSoftware,KiCad,Pcbnew,(5.1.10)-1*%
%TF.CreationDate,2021-10-03T20:24:18-05:00*%
%TF.ProjectId,wireless_measurement_ard,77697265-6c65-4737-935f-6d6561737572,rev?*%
%TF.SameCoordinates,Original*%
%TF.FileFunction,Soldermask,Top*%
%TF.FilePolarity,Negative*%
%FSLAX46Y46*%
G04 Gerber Fmt 4.6, Leading zero omitted, Abs format (unit mm)*
G04 Created by KiCad (PCBNEW (5.1.10)-1) date 2021-10-03 20:24:18*
%MOMM*%
%LPD*%
G01*
G04 APERTURE LIST*
%ADD10C,0.900000*%
%ADD11C,0.787400*%
%ADD12C,0.990600*%
%ADD13O,1.700000X1.700000*%
%ADD14R,1.700000X1.700000*%
G04 APERTURE END LIST*
D10*
%TO.C,SW1*%
X111662000Y-95758000D03*
X118462000Y-95758000D03*
%TD*%
%TO.C,U2*%
G36*
G01*
X128796000Y-77970000D02*
X130796000Y-77970000D01*
G75*
G02*
X130996000Y-78170000I0J-200000D01*
G01*
X130996000Y-78970000D01*
G75*
G02*
X130796000Y-79170000I-200000J0D01*
G01*
X128796000Y-79170000D01*
G75*
G02*
X128596000Y-78970000I0J200000D01*
G01*
X128596000Y-78170000D01*
G75*
G02*
X128796000Y-77970000I200000J0D01*
G01*
G37*
G36*
G01*
X128796000Y-79470000D02*
X130796000Y-79470000D01*
G75*
G02*
X130996000Y-79670000I0J-200000D01*
G01*
X130996000Y-80470000D01*
G75*
G02*
X130796000Y-80670000I-200000J0D01*
G01*
X128796000Y-80670000D01*
G75*
G02*
X128596000Y-80470000I0J200000D01*
G01*
X128596000Y-79670000D01*
G75*
G02*
X128796000Y-79470000I200000J0D01*
G01*
G37*
G36*
G01*
X128796000Y-80970000D02*
X130796000Y-80970000D01*
G75*
G02*
X130996000Y-81170000I0J-200000D01*
G01*
X130996000Y-81970000D01*
G75*
G02*
X130796000Y-82170000I-200000J0D01*
G01*
X128796000Y-82170000D01*
G75*
G02*
X128596000Y-81970000I0J200000D01*
G01*
X128596000Y-81170000D01*
G75*
G02*
X128796000Y-80970000I200000J0D01*
G01*
G37*
G36*
G01*
X128796000Y-82470000D02*
X130796000Y-82470000D01*
G75*
G02*
X130996000Y-82670000I0J-200000D01*
G01*
X130996000Y-83470000D01*
G75*
G02*
X130796000Y-83670000I-200000J0D01*
G01*
X128796000Y-83670000D01*
G75*
G02*
X128596000Y-83470000I0J200000D01*
G01*
X128596000Y-82670000D01*
G75*
G02*
X128796000Y-82470000I200000J0D01*
G01*
G37*
G36*
G01*
X128796000Y-83970000D02*
X130796000Y-83970000D01*
G75*
G02*
X130996000Y-84170000I0J-200000D01*
G01*
X130996000Y-84970000D01*
G75*
G02*
X130796000Y-85170000I-200000J0D01*
G01*
X128796000Y-85170000D01*
G75*
G02*
X128596000Y-84970000I0J200000D01*
G01*
X128596000Y-84170000D01*
G75*
G02*
X128796000Y-83970000I200000J0D01*
G01*
G37*
G36*
G01*
X128796000Y-85470000D02*
X130796000Y-85470000D01*
G75*
G02*
X130996000Y-85670000I0J-200000D01*
G01*
X130996000Y-86470000D01*
G75*
G02*
X130796000Y-86670000I-200000J0D01*
G01*
X128796000Y-86670000D01*
G75*
G02*
X128596000Y-86470000I0J200000D01*
G01*
X128596000Y-85670000D01*
G75*
G02*
X128796000Y-85470000I200000J0D01*
G01*
G37*
G36*
G01*
X128796000Y-86970000D02*
X130796000Y-86970000D01*
G75*
G02*
X130996000Y-87170000I0J-200000D01*
G01*
X130996000Y-87970000D01*
G75*
G02*
X130796000Y-88170000I-200000J0D01*
G01*
X128796000Y-88170000D01*
G75*
G02*
X128596000Y-87970000I0J200000D01*
G01*
X128596000Y-87170000D01*
G75*
G02*
X128796000Y-86970000I200000J0D01*
G01*
G37*
G36*
G01*
X128296000Y-89690000D02*
X129096000Y-89690000D01*
G75*
G02*
X129296000Y-89890000I0J-200000D01*
G01*
X129296000Y-91890000D01*
G75*
G02*
X129096000Y-92090000I-200000J0D01*
G01*
X128296000Y-92090000D01*
G75*
G02*
X128096000Y-91890000I0J200000D01*
G01*
X128096000Y-89890000D01*
G75*
G02*
X128296000Y-89690000I200000J0D01*
G01*
G37*
G36*
G01*
X128296000Y-75550000D02*
X129096000Y-75550000D01*
G75*
G02*
X129296000Y-75750000I0J-200000D01*
G01*
X129296000Y-77750000D01*
G75*
G02*
X129096000Y-77950000I-200000J0D01*
G01*
X128296000Y-77950000D01*
G75*
G02*
X128096000Y-77750000I0J200000D01*
G01*
X128096000Y-75750000D01*
G75*
G02*
X128296000Y-75550000I200000J0D01*
G01*
G37*
G36*
G01*
X126796000Y-75550000D02*
X127596000Y-75550000D01*
G75*
G02*
X127796000Y-75750000I0J-200000D01*
G01*
X127796000Y-77750000D01*
G75*
G02*
X127596000Y-77950000I-200000J0D01*
G01*
X126796000Y-77950000D01*
G75*
G02*
X126596000Y-77750000I0J200000D01*
G01*
X126596000Y-75750000D01*
G75*
G02*
X126796000Y-75550000I200000J0D01*
G01*
G37*
G36*
G01*
X126796000Y-89690000D02*
X127596000Y-89690000D01*
G75*
G02*
X127796000Y-89890000I0J-200000D01*
G01*
X127796000Y-91890000D01*
G75*
G02*
X127596000Y-92090000I-200000J0D01*
G01*
X126796000Y-92090000D01*
G75*
G02*
X126596000Y-91890000I0J200000D01*
G01*
X126596000Y-89890000D01*
G75*
G02*
X126796000Y-89690000I200000J0D01*
G01*
G37*
G36*
G01*
X125296000Y-89690000D02*
X126096000Y-89690000D01*
G75*
G02*
X126296000Y-89890000I0J-200000D01*
G01*
X126296000Y-91890000D01*
G75*
G02*
X126096000Y-92090000I-200000J0D01*
G01*
X125296000Y-92090000D01*
G75*
G02*
X125096000Y-91890000I0J200000D01*
G01*
X125096000Y-89890000D01*
G75*
G02*
X125296000Y-89690000I200000J0D01*
G01*
G37*
G36*
G01*
X125296000Y-75550000D02*
X126096000Y-75550000D01*
G75*
G02*
X126296000Y-75750000I0J-200000D01*
G01*
X126296000Y-77750000D01*
G75*
G02*
X126096000Y-77950000I-200000J0D01*
G01*
X125296000Y-77950000D01*
G75*
G02*
X125096000Y-77750000I0J200000D01*
G01*
X125096000Y-75750000D01*
G75*
G02*
X125296000Y-75550000I200000J0D01*
G01*
G37*
G36*
G01*
X123796000Y-75550000D02*
X124596000Y-75550000D01*
G75*
G02*
X124796000Y-75750000I0J-200000D01*
G01*
X124796000Y-77750000D01*
G75*
G02*
X124596000Y-77950000I-200000J0D01*
G01*
X123796000Y-77950000D01*
G75*
G02*
X123596000Y-77750000I0J200000D01*
G01*
X123596000Y-75750000D01*
G75*
G02*
X123796000Y-75550000I200000J0D01*
G01*
G37*
G36*
G01*
X123796000Y-89690000D02*
X124596000Y-89690000D01*
G75*
G02*
X124796000Y-89890000I0J-200000D01*
G01*
X124796000Y-91890000D01*
G75*
G02*
X124596000Y-92090000I-200000J0D01*
G01*
X123796000Y-92090000D01*
G75*
G02*
X123596000Y-91890000I0J200000D01*
G01*
X123596000Y-89890000D01*
G75*
G02*
X123796000Y-89690000I200000J0D01*
G01*
G37*
G36*
G01*
X122296000Y-89690000D02*
X123096000Y-89690000D01*
G75*
G02*
X123296000Y-89890000I0J-200000D01*
G01*
X123296000Y-91890000D01*
G75*
G02*
X123096000Y-92090000I-200000J0D01*
G01*
X122296000Y-92090000D01*
G75*
G02*
X122096000Y-91890000I0J200000D01*
G01*
X122096000Y-89890000D01*
G75*
G02*
X122296000Y-89690000I200000J0D01*
G01*
G37*
G36*
G01*
X122296000Y-75550000D02*
X123096000Y-75550000D01*
G75*
G02*
X123296000Y-75750000I0J-200000D01*
G01*
X123296000Y-77750000D01*
G75*
G02*
X123096000Y-77950000I-200000J0D01*
G01*
X122296000Y-77950000D01*
G75*
G02*
X122096000Y-77750000I0J200000D01*
G01*
X122096000Y-75750000D01*
G75*
G02*
X122296000Y-75550000I200000J0D01*
G01*
G37*
G36*
G01*
X120796000Y-75550000D02*
X121596000Y-75550000D01*
G75*
G02*
X121796000Y-75750000I0J-200000D01*
G01*
X121796000Y-77750000D01*
G75*
G02*
X121596000Y-77950000I-200000J0D01*
G01*
X120796000Y-77950000D01*
G75*
G02*
X120596000Y-77750000I0J200000D01*
G01*
X120596000Y-75750000D01*
G75*
G02*
X120796000Y-75550000I200000J0D01*
G01*
G37*
G36*
G01*
X120796000Y-89690000D02*
X121596000Y-89690000D01*
G75*
G02*
X121796000Y-89890000I0J-200000D01*
G01*
X121796000Y-91890000D01*
G75*
G02*
X121596000Y-92090000I-200000J0D01*
G01*
X120796000Y-92090000D01*
G75*
G02*
X120596000Y-91890000I0J200000D01*
G01*
X120596000Y-89890000D01*
G75*
G02*
X120796000Y-89690000I200000J0D01*
G01*
G37*
G36*
G01*
X119296000Y-89690000D02*
X120096000Y-89690000D01*
G75*
G02*
X120296000Y-89890000I0J-200000D01*
G01*
X120296000Y-91890000D01*
G75*
G02*
X120096000Y-92090000I-200000J0D01*
G01*
X119296000Y-92090000D01*
G75*
G02*
X119096000Y-91890000I0J200000D01*
G01*
X119096000Y-89890000D01*
G75*
G02*
X119296000Y-89690000I200000J0D01*
G01*
G37*
G36*
G01*
X119296000Y-75550000D02*
X120096000Y-75550000D01*
G75*
G02*
X120296000Y-75750000I0J-200000D01*
G01*
X120296000Y-77750000D01*
G75*
G02*
X120096000Y-77950000I-200000J0D01*
G01*
X119296000Y-77950000D01*
G75*
G02*
X119096000Y-77750000I0J200000D01*
G01*
X119096000Y-75750000D01*
G75*
G02*
X119296000Y-75550000I200000J0D01*
G01*
G37*
G36*
G01*
X117796000Y-75550000D02*
X118596000Y-75550000D01*
G75*
G02*
X118796000Y-75750000I0J-200000D01*
G01*
X118796000Y-77750000D01*
G75*
G02*
X118596000Y-77950000I-200000J0D01*
G01*
X117796000Y-77950000D01*
G75*
G02*
X117596000Y-77750000I0J200000D01*
G01*
X117596000Y-75750000D01*
G75*
G02*
X117796000Y-75550000I200000J0D01*
G01*
G37*
G36*
G01*
X128796000Y-88470000D02*
X130796000Y-88470000D01*
G75*
G02*
X130996000Y-88670000I0J-200000D01*
G01*
X130996000Y-89470000D01*
G75*
G02*
X130796000Y-89670000I-200000J0D01*
G01*
X128796000Y-89670000D01*
G75*
G02*
X128596000Y-89470000I0J200000D01*
G01*
X128596000Y-88670000D01*
G75*
G02*
X128796000Y-88470000I200000J0D01*
G01*
G37*
G36*
G01*
X117796000Y-89690000D02*
X118596000Y-89690000D01*
G75*
G02*
X118796000Y-89890000I0J-200000D01*
G01*
X118796000Y-91890000D01*
G75*
G02*
X118596000Y-92090000I-200000J0D01*
G01*
X117796000Y-92090000D01*
G75*
G02*
X117596000Y-91890000I0J200000D01*
G01*
X117596000Y-89890000D01*
G75*
G02*
X117796000Y-89690000I200000J0D01*
G01*
G37*
%TD*%
D11*
%TO.C,J2*%
X132334000Y-94869000D03*
X132334000Y-96139000D03*
X131064000Y-94869000D03*
X131064000Y-96139000D03*
X129794000Y-94869000D03*
X129794000Y-96139000D03*
D12*
X128524000Y-95504000D03*
X133604000Y-96520000D03*
X133604000Y-94488000D03*
%TD*%
D13*
%TO.C,J1*%
X136956800Y-95453200D03*
X136956800Y-92913200D03*
X136956800Y-90373200D03*
X136956800Y-87833200D03*
X136956800Y-85293200D03*
X136956800Y-82753200D03*
X136956800Y-80213200D03*
D14*
X136956800Y-77673200D03*
%TD*%
D13*
%TO.C,Battery1*%
X124968000Y-95758000D03*
D14*
X122428000Y-95758000D03*
%TD*%
%TO.C,D1*%
G36*
G01*
X134575000Y-76705750D02*
X134575000Y-77218250D01*
G75*
G02*
X134356250Y-77437000I-218750J0D01*
G01*
X133918750Y-77437000D01*
G75*
G02*
X133700000Y-77218250I0J218750D01*
G01*
X133700000Y-76705750D01*
G75*
G02*
X133918750Y-76487000I218750J0D01*
G01*
X134356250Y-76487000D01*
G75*
G02*
X134575000Y-76705750I0J-218750D01*
G01*
G37*
G36*
G01*
X133000000Y-76705750D02*
X133000000Y-77218250D01*
G75*
G02*
X132781250Y-77437000I-218750J0D01*
G01*
X132343750Y-77437000D01*
G75*
G02*
X132125000Y-77218250I0J218750D01*
G01*
X132125000Y-76705750D01*
G75*
G02*
X132343750Y-76487000I218750J0D01*
G01*
X132781250Y-76487000D01*
G75*
G02*
X133000000Y-76705750I0J-218750D01*
G01*
G37*
%TD*%
%TO.C,R3*%
G36*
G01*
X133239500Y-78215000D02*
X133714500Y-78215000D01*
G75*
G02*
X133952000Y-78452500I0J-237500D01*
G01*
X133952000Y-79027500D01*
G75*
G02*
X133714500Y-79265000I-237500J0D01*
G01*
X133239500Y-79265000D01*
G75*
G02*
X133002000Y-79027500I0J237500D01*
G01*
X133002000Y-78452500D01*
G75*
G02*
X133239500Y-78215000I237500J0D01*
G01*
G37*
G36*
G01*
X133239500Y-79965000D02*
X133714500Y-79965000D01*
G75*
G02*
X133952000Y-80202500I0J-237500D01*
G01*
X133952000Y-80777500D01*
G75*
G02*
X133714500Y-81015000I-237500J0D01*
G01*
X133239500Y-81015000D01*
G75*
G02*
X133002000Y-80777500I0J237500D01*
G01*
X133002000Y-80202500D01*
G75*
G02*
X133239500Y-79965000I237500J0D01*
G01*
G37*
%TD*%
M02*
