%TF.GenerationSoftware,KiCad,Pcbnew,(5.1.10-1-10_14)*%
%TF.CreationDate,2021-08-31T12:45:11-05:00*%
%TF.ProjectId,wireless_measurement_ard,77697265-6c65-4737-935f-6d6561737572,rev?*%
%TF.SameCoordinates,Original*%
%TF.FileFunction,Legend,Bot*%
%TF.FilePolarity,Positive*%
%FSLAX46Y46*%
G04 Gerber Fmt 4.6, Leading zero omitted, Abs format (unit mm)*
G04 Created by KiCad (PCBNEW (5.1.10-1-10_14)) date 2021-08-31 12:45:11*
%MOMM*%
%LPD*%
G01*
G04 APERTURE LIST*
%ADD10C,0.150000*%
%ADD11C,0.300000*%
%ADD12C,0.120000*%
G04 APERTURE END LIST*
D10*
X138739619Y-78073190D02*
X139739619Y-78073190D01*
X138739619Y-77073190D02*
X138739619Y-77644619D01*
X138739619Y-77358904D02*
X139739619Y-77358904D01*
X139596761Y-77454142D01*
X139501523Y-77549380D01*
X139453904Y-77644619D01*
X139739619Y-80835428D02*
X139739619Y-80644952D01*
X139692000Y-80549714D01*
X139596761Y-80454476D01*
X139406285Y-80406857D01*
X139072952Y-80406857D01*
X138882476Y-80454476D01*
X138787238Y-80549714D01*
X138739619Y-80644952D01*
X138739619Y-80835428D01*
X138787238Y-80930666D01*
X138882476Y-81025904D01*
X139072952Y-81073523D01*
X139406285Y-81073523D01*
X139596761Y-81025904D01*
X139692000Y-80930666D01*
X139739619Y-80835428D01*
X138739619Y-79454476D02*
X138739619Y-80025904D01*
X138739619Y-79740190D02*
X139739619Y-79740190D01*
X139596761Y-79835428D01*
X139501523Y-79930666D01*
X139453904Y-80025904D01*
X138898333Y-83645285D02*
X138898333Y-83169095D01*
X138612619Y-83740523D02*
X139612619Y-83407190D01*
X138612619Y-83073857D01*
X138612619Y-82216714D02*
X138612619Y-82788142D01*
X138612619Y-82502428D02*
X139612619Y-82502428D01*
X139469761Y-82597666D01*
X139374523Y-82692904D01*
X139326904Y-82788142D01*
X138898333Y-86185285D02*
X138898333Y-85709095D01*
X138612619Y-86280523D02*
X139612619Y-85947190D01*
X138612619Y-85613857D01*
X139517380Y-85328142D02*
X139565000Y-85280523D01*
X139612619Y-85185285D01*
X139612619Y-84947190D01*
X139565000Y-84851952D01*
X139517380Y-84804333D01*
X139422142Y-84756714D01*
X139326904Y-84756714D01*
X139184047Y-84804333D01*
X138612619Y-85375761D01*
X138612619Y-84756714D01*
X139612619Y-88868142D02*
X138612619Y-88534809D01*
X139612619Y-88201476D01*
X138612619Y-87868142D02*
X139612619Y-87868142D01*
X139136428Y-87868142D02*
X139136428Y-87296714D01*
X138612619Y-87296714D02*
X139612619Y-87296714D01*
X138898333Y-91011285D02*
X138898333Y-90535095D01*
X138612619Y-91106523D02*
X139612619Y-90773190D01*
X138612619Y-90439857D01*
X139279285Y-89677952D02*
X138612619Y-89677952D01*
X139660238Y-89916047D02*
X138945952Y-90154142D01*
X138945952Y-89535095D01*
X139565000Y-95369095D02*
X139612619Y-95464333D01*
X139612619Y-95607190D01*
X139565000Y-95750047D01*
X139469761Y-95845285D01*
X139374523Y-95892904D01*
X139184047Y-95940523D01*
X139041190Y-95940523D01*
X138850714Y-95892904D01*
X138755476Y-95845285D01*
X138660238Y-95750047D01*
X138612619Y-95607190D01*
X138612619Y-95511952D01*
X138660238Y-95369095D01*
X138707857Y-95321476D01*
X139041190Y-95321476D01*
X139041190Y-95511952D01*
X139612619Y-94138619D02*
X139612619Y-93519571D01*
X139231666Y-93852904D01*
X139231666Y-93710047D01*
X139184047Y-93614809D01*
X139136428Y-93567190D01*
X139041190Y-93519571D01*
X138803095Y-93519571D01*
X138707857Y-93567190D01*
X138660238Y-93614809D01*
X138612619Y-93710047D01*
X138612619Y-93995761D01*
X138660238Y-94091000D01*
X138707857Y-94138619D01*
X138707857Y-93091000D02*
X138660238Y-93043380D01*
X138612619Y-93091000D01*
X138660238Y-93138619D01*
X138707857Y-93091000D01*
X138612619Y-93091000D01*
X139612619Y-92710047D02*
X139612619Y-92091000D01*
X139231666Y-92424333D01*
X139231666Y-92281476D01*
X139184047Y-92186238D01*
X139136428Y-92138619D01*
X139041190Y-92091000D01*
X138803095Y-92091000D01*
X138707857Y-92138619D01*
X138660238Y-92186238D01*
X138612619Y-92281476D01*
X138612619Y-92567190D01*
X138660238Y-92662428D01*
X138707857Y-92710047D01*
D11*
X113124142Y-76450714D02*
X113195571Y-76665000D01*
X113195571Y-77022142D01*
X113124142Y-77165000D01*
X113052714Y-77236428D01*
X112909857Y-77307857D01*
X112767000Y-77307857D01*
X112624142Y-77236428D01*
X112552714Y-77165000D01*
X112481285Y-77022142D01*
X112409857Y-76736428D01*
X112338428Y-76593571D01*
X112267000Y-76522142D01*
X112124142Y-76450714D01*
X111981285Y-76450714D01*
X111838428Y-76522142D01*
X111767000Y-76593571D01*
X111695571Y-76736428D01*
X111695571Y-77093571D01*
X111767000Y-77307857D01*
X111695571Y-77807857D02*
X113195571Y-78165000D01*
X112124142Y-78450714D01*
X113195571Y-78736428D01*
X111695571Y-79093571D01*
X113195571Y-79665000D02*
X111695571Y-79665000D01*
X112767000Y-80165000D01*
X111695571Y-80665000D01*
X113195571Y-80665000D01*
X112624142Y-81379285D02*
X112624142Y-82522142D01*
X113195571Y-83236428D02*
X112195571Y-83236428D01*
X112338428Y-83236428D02*
X112267000Y-83307857D01*
X112195571Y-83450714D01*
X112195571Y-83665000D01*
X112267000Y-83807857D01*
X112409857Y-83879285D01*
X113195571Y-83879285D01*
X112409857Y-83879285D02*
X112267000Y-83950714D01*
X112195571Y-84093571D01*
X112195571Y-84307857D01*
X112267000Y-84450714D01*
X112409857Y-84522142D01*
X113195571Y-84522142D01*
X113195571Y-85236428D02*
X112195571Y-85236428D01*
X111695571Y-85236428D02*
X111767000Y-85165000D01*
X111838428Y-85236428D01*
X111767000Y-85307857D01*
X111695571Y-85236428D01*
X111838428Y-85236428D01*
X112195571Y-85950714D02*
X113195571Y-85950714D01*
X112338428Y-85950714D02*
X112267000Y-86022142D01*
X112195571Y-86165000D01*
X112195571Y-86379285D01*
X112267000Y-86522142D01*
X112409857Y-86593571D01*
X113195571Y-86593571D01*
X113195571Y-87307857D02*
X112195571Y-87307857D01*
X111695571Y-87307857D02*
X111767000Y-87236428D01*
X111838428Y-87307857D01*
X111767000Y-87379285D01*
X111695571Y-87307857D01*
X111838428Y-87307857D01*
X115674142Y-78165000D02*
X115745571Y-78379285D01*
X115745571Y-78736428D01*
X115674142Y-78879285D01*
X115602714Y-78950714D01*
X115459857Y-79022142D01*
X115317000Y-79022142D01*
X115174142Y-78950714D01*
X115102714Y-78879285D01*
X115031285Y-78736428D01*
X114959857Y-78450714D01*
X114888428Y-78307857D01*
X114817000Y-78236428D01*
X114674142Y-78165000D01*
X114531285Y-78165000D01*
X114388428Y-78236428D01*
X114317000Y-78307857D01*
X114245571Y-78450714D01*
X114245571Y-78807857D01*
X114317000Y-79022142D01*
X115674142Y-80236428D02*
X115745571Y-80093571D01*
X115745571Y-79807857D01*
X115674142Y-79665000D01*
X115531285Y-79593571D01*
X114959857Y-79593571D01*
X114817000Y-79665000D01*
X114745571Y-79807857D01*
X114745571Y-80093571D01*
X114817000Y-80236428D01*
X114959857Y-80307857D01*
X115102714Y-80307857D01*
X115245571Y-79593571D01*
X114745571Y-80950714D02*
X116245571Y-80950714D01*
X114817000Y-80950714D02*
X114745571Y-81093571D01*
X114745571Y-81379285D01*
X114817000Y-81522142D01*
X114888428Y-81593571D01*
X115031285Y-81665000D01*
X115459857Y-81665000D01*
X115602714Y-81593571D01*
X115674142Y-81522142D01*
X115745571Y-81379285D01*
X115745571Y-81093571D01*
X115674142Y-80950714D01*
X114388428Y-83379285D02*
X114317000Y-83450714D01*
X114245571Y-83593571D01*
X114245571Y-83950714D01*
X114317000Y-84093571D01*
X114388428Y-84165000D01*
X114531285Y-84236428D01*
X114674142Y-84236428D01*
X114888428Y-84165000D01*
X115745571Y-83307857D01*
X115745571Y-84236428D01*
X115745571Y-85665000D02*
X115745571Y-84807857D01*
X115745571Y-85236428D02*
X114245571Y-85236428D01*
X114459857Y-85093571D01*
X114602714Y-84950714D01*
X114674142Y-84807857D01*
D12*
%TO.C,U1*%
X123522000Y-82314000D02*
X123522000Y-81964000D01*
X123522000Y-81964000D02*
X123172000Y-81964000D01*
X119302000Y-85834000D02*
X119302000Y-86184000D01*
X119302000Y-86184000D02*
X119652000Y-86184000D01*
X119302000Y-82314000D02*
X119302000Y-81964000D01*
X119302000Y-81964000D02*
X119652000Y-81964000D01*
X123522000Y-85834000D02*
X123522000Y-86184000D01*
%TO.C,U4*%
X129626800Y-77130000D02*
X132576800Y-77130000D01*
X131426800Y-80350000D02*
X129626800Y-80350000D01*
%TO.C,L1*%
X128700000Y-85245000D02*
X129725000Y-85245000D01*
X128700000Y-85245000D02*
X128700000Y-86270000D01*
X128700000Y-90015000D02*
X128700000Y-88990000D01*
X128700000Y-90015000D02*
X129725000Y-90015000D01*
X132920000Y-90015000D02*
X131895000Y-90015000D01*
X132920000Y-85245000D02*
X131895000Y-85245000D01*
X132920000Y-90015000D02*
X132920000Y-88990000D01*
X132920000Y-85245000D02*
X132920000Y-86270000D01*
D10*
%TO.C,U3*%
X123547000Y-92607000D02*
X123547000Y-92382000D01*
X126897000Y-92607000D02*
X126897000Y-92307000D01*
X126897000Y-89257000D02*
X126897000Y-89557000D01*
X123547000Y-89257000D02*
X123547000Y-89557000D01*
X123547000Y-92607000D02*
X126897000Y-92607000D01*
X123547000Y-89257000D02*
X126897000Y-89257000D01*
X123547000Y-92382000D02*
X122322000Y-92382000D01*
D12*
%TO.C,R6*%
X125244776Y-94248500D02*
X125754224Y-94248500D01*
X125244776Y-93203500D02*
X125754224Y-93203500D01*
%TO.C,SW1*%
X111862000Y-93858000D02*
X110462000Y-93858000D01*
X110462000Y-93858000D02*
X110462000Y-97658000D01*
X119662000Y-97658000D02*
X119662000Y-93858000D01*
X119662000Y-93858000D02*
X118262000Y-93858000D01*
X113262000Y-93858000D02*
X114362000Y-93858000D01*
X114362000Y-93858000D02*
X114362000Y-93858000D01*
X115762000Y-93858000D02*
X116862000Y-93858000D01*
X116862000Y-93858000D02*
X116862000Y-93858000D01*
X110462000Y-97658000D02*
X112162000Y-97658000D01*
X112162000Y-97658000D02*
X112162000Y-97958000D01*
X112162000Y-97958000D02*
X112962000Y-97958000D01*
X112962000Y-97958000D02*
X112962000Y-97658000D01*
X112962000Y-97658000D02*
X114662000Y-97658000D01*
X114662000Y-97658000D02*
X114662000Y-97958000D01*
X114662000Y-97958000D02*
X115462000Y-97958000D01*
X115462000Y-97958000D02*
X115462000Y-97658000D01*
X115462000Y-97658000D02*
X117162000Y-97658000D01*
X117162000Y-97658000D02*
X117162000Y-97958000D01*
X117162000Y-97958000D02*
X117962000Y-97958000D01*
X117962000Y-97958000D02*
X117962000Y-97658000D01*
X117962000Y-97658000D02*
X119662000Y-97658000D01*
X119662000Y-97658000D02*
X119662000Y-97658000D01*
X117062000Y-99558000D02*
X117062000Y-99058000D01*
X117062000Y-99058000D02*
X117062000Y-99058000D01*
X117062000Y-99558000D02*
X116562000Y-99558000D01*
X116562000Y-99558000D02*
X116562000Y-99558000D01*
X113062000Y-99558000D02*
X113562000Y-99558000D01*
X113562000Y-99558000D02*
X113562000Y-99558000D01*
X113062000Y-99558000D02*
X113062000Y-99058000D01*
X113062000Y-99058000D02*
X113062000Y-99058000D01*
X113062000Y-98758000D02*
X113062000Y-98258000D01*
X113062000Y-98258000D02*
X113062000Y-98258000D01*
X117062000Y-98758000D02*
X117062000Y-98258000D01*
X117062000Y-98258000D02*
X117062000Y-98258000D01*
X116262000Y-99558000D02*
X115762000Y-99558000D01*
X115762000Y-99558000D02*
X115762000Y-99558000D01*
X113862000Y-99558000D02*
X114362000Y-99558000D01*
X114362000Y-99558000D02*
X114362000Y-99558000D01*
X114662000Y-99558000D02*
X115462000Y-99558000D01*
X115462000Y-99558000D02*
X115462000Y-99558000D01*
%TO.C,C6*%
X126179733Y-88267000D02*
X126522267Y-88267000D01*
X126179733Y-87247000D02*
X126522267Y-87247000D01*
%TO.C,C5*%
X126179733Y-86489000D02*
X126522267Y-86489000D01*
X126179733Y-85469000D02*
X126522267Y-85469000D01*
%TO.C,R5*%
X121668000Y-91103267D02*
X121668000Y-90760733D01*
X120648000Y-91103267D02*
X120648000Y-90760733D01*
%TO.C,R4*%
X118997000Y-90760733D02*
X118997000Y-91103267D01*
X120017000Y-90760733D02*
X120017000Y-91103267D01*
%TO.C,C3*%
X131062000Y-92044733D02*
X131062000Y-92387267D01*
X132082000Y-92044733D02*
X132082000Y-92387267D01*
%TO.C,C2*%
X117219000Y-88841733D02*
X117219000Y-89184267D01*
X118239000Y-88841733D02*
X118239000Y-89184267D01*
%TO.C,C4*%
X129284000Y-92030733D02*
X129284000Y-92373267D01*
X130304000Y-92030733D02*
X130304000Y-92373267D01*
%TO.C,C1*%
X115441000Y-88841733D02*
X115441000Y-89184267D01*
X116461000Y-88841733D02*
X116461000Y-89184267D01*
%TO.C,R1*%
X135330000Y-78992252D02*
X135330000Y-78469748D01*
X133910000Y-78992252D02*
X133910000Y-78469748D01*
%TO.C,U1*%
D10*
X123951904Y-79970380D02*
X123951904Y-80779904D01*
X123904285Y-80875142D01*
X123856666Y-80922761D01*
X123761428Y-80970380D01*
X123570952Y-80970380D01*
X123475714Y-80922761D01*
X123428095Y-80875142D01*
X123380476Y-80779904D01*
X123380476Y-79970380D01*
X122380476Y-80970380D02*
X122951904Y-80970380D01*
X122666190Y-80970380D02*
X122666190Y-79970380D01*
X122761428Y-80113238D01*
X122856666Y-80208476D01*
X122951904Y-80256095D01*
%TO.C,U4*%
X131190904Y-75652380D02*
X131190904Y-76461904D01*
X131143285Y-76557142D01*
X131095666Y-76604761D01*
X131000428Y-76652380D01*
X130809952Y-76652380D01*
X130714714Y-76604761D01*
X130667095Y-76557142D01*
X130619476Y-76461904D01*
X130619476Y-75652380D01*
X129714714Y-75985714D02*
X129714714Y-76652380D01*
X129952809Y-75604761D02*
X130190904Y-76319047D01*
X129571857Y-76319047D01*
%TO.C,L1*%
X134362380Y-87463333D02*
X134362380Y-86987142D01*
X133362380Y-86987142D01*
X134362380Y-88320476D02*
X134362380Y-87749047D01*
X134362380Y-88034761D02*
X133362380Y-88034761D01*
X133505238Y-87939523D01*
X133600476Y-87844285D01*
X133648095Y-87749047D01*
%TO.C,U3*%
X123316904Y-92984380D02*
X123316904Y-93793904D01*
X123269285Y-93889142D01*
X123221666Y-93936761D01*
X123126428Y-93984380D01*
X122935952Y-93984380D01*
X122840714Y-93936761D01*
X122793095Y-93889142D01*
X122745476Y-93793904D01*
X122745476Y-92984380D01*
X122364523Y-92984380D02*
X121745476Y-92984380D01*
X122078809Y-93365333D01*
X121935952Y-93365333D01*
X121840714Y-93412952D01*
X121793095Y-93460571D01*
X121745476Y-93555809D01*
X121745476Y-93793904D01*
X121793095Y-93889142D01*
X121840714Y-93936761D01*
X121935952Y-93984380D01*
X122221666Y-93984380D01*
X122316904Y-93936761D01*
X122364523Y-93889142D01*
%TO.C,R6*%
X128182666Y-94305380D02*
X128516000Y-93829190D01*
X128754095Y-94305380D02*
X128754095Y-93305380D01*
X128373142Y-93305380D01*
X128277904Y-93353000D01*
X128230285Y-93400619D01*
X128182666Y-93495857D01*
X128182666Y-93638714D01*
X128230285Y-93733952D01*
X128277904Y-93781571D01*
X128373142Y-93829190D01*
X128754095Y-93829190D01*
X127325523Y-93305380D02*
X127516000Y-93305380D01*
X127611238Y-93353000D01*
X127658857Y-93400619D01*
X127754095Y-93543476D01*
X127801714Y-93733952D01*
X127801714Y-94114904D01*
X127754095Y-94210142D01*
X127706476Y-94257761D01*
X127611238Y-94305380D01*
X127420761Y-94305380D01*
X127325523Y-94257761D01*
X127277904Y-94210142D01*
X127230285Y-94114904D01*
X127230285Y-93876809D01*
X127277904Y-93781571D01*
X127325523Y-93733952D01*
X127420761Y-93686333D01*
X127611238Y-93686333D01*
X127706476Y-93733952D01*
X127754095Y-93781571D01*
X127801714Y-93876809D01*
%TO.C,C6*%
X123737666Y-88241142D02*
X123785285Y-88288761D01*
X123928142Y-88336380D01*
X124023380Y-88336380D01*
X124166238Y-88288761D01*
X124261476Y-88193523D01*
X124309095Y-88098285D01*
X124356714Y-87907809D01*
X124356714Y-87764952D01*
X124309095Y-87574476D01*
X124261476Y-87479238D01*
X124166238Y-87384000D01*
X124023380Y-87336380D01*
X123928142Y-87336380D01*
X123785285Y-87384000D01*
X123737666Y-87431619D01*
X122880523Y-87336380D02*
X123071000Y-87336380D01*
X123166238Y-87384000D01*
X123213857Y-87431619D01*
X123309095Y-87574476D01*
X123356714Y-87764952D01*
X123356714Y-88145904D01*
X123309095Y-88241142D01*
X123261476Y-88288761D01*
X123166238Y-88336380D01*
X122975761Y-88336380D01*
X122880523Y-88288761D01*
X122832904Y-88241142D01*
X122785285Y-88145904D01*
X122785285Y-87907809D01*
X122832904Y-87812571D01*
X122880523Y-87764952D01*
X122975761Y-87717333D01*
X123166238Y-87717333D01*
X123261476Y-87764952D01*
X123309095Y-87812571D01*
X123356714Y-87907809D01*
%TO.C,C5*%
X126658666Y-84812142D02*
X126706285Y-84859761D01*
X126849142Y-84907380D01*
X126944380Y-84907380D01*
X127087238Y-84859761D01*
X127182476Y-84764523D01*
X127230095Y-84669285D01*
X127277714Y-84478809D01*
X127277714Y-84335952D01*
X127230095Y-84145476D01*
X127182476Y-84050238D01*
X127087238Y-83955000D01*
X126944380Y-83907380D01*
X126849142Y-83907380D01*
X126706285Y-83955000D01*
X126658666Y-84002619D01*
X125753904Y-83907380D02*
X126230095Y-83907380D01*
X126277714Y-84383571D01*
X126230095Y-84335952D01*
X126134857Y-84288333D01*
X125896761Y-84288333D01*
X125801523Y-84335952D01*
X125753904Y-84383571D01*
X125706285Y-84478809D01*
X125706285Y-84716904D01*
X125753904Y-84812142D01*
X125801523Y-84859761D01*
X125896761Y-84907380D01*
X126134857Y-84907380D01*
X126230095Y-84859761D01*
X126277714Y-84812142D01*
%TO.C,R5*%
X121610380Y-88098333D02*
X121134190Y-87765000D01*
X121610380Y-87526904D02*
X120610380Y-87526904D01*
X120610380Y-87907857D01*
X120658000Y-88003095D01*
X120705619Y-88050714D01*
X120800857Y-88098333D01*
X120943714Y-88098333D01*
X121038952Y-88050714D01*
X121086571Y-88003095D01*
X121134190Y-87907857D01*
X121134190Y-87526904D01*
X120610380Y-89003095D02*
X120610380Y-88526904D01*
X121086571Y-88479285D01*
X121038952Y-88526904D01*
X120991333Y-88622142D01*
X120991333Y-88860238D01*
X121038952Y-88955476D01*
X121086571Y-89003095D01*
X121181809Y-89050714D01*
X121419904Y-89050714D01*
X121515142Y-89003095D01*
X121562761Y-88955476D01*
X121610380Y-88860238D01*
X121610380Y-88622142D01*
X121562761Y-88526904D01*
X121515142Y-88479285D01*
%TO.C,R4*%
X119959380Y-88098333D02*
X119483190Y-87765000D01*
X119959380Y-87526904D02*
X118959380Y-87526904D01*
X118959380Y-87907857D01*
X119007000Y-88003095D01*
X119054619Y-88050714D01*
X119149857Y-88098333D01*
X119292714Y-88098333D01*
X119387952Y-88050714D01*
X119435571Y-88003095D01*
X119483190Y-87907857D01*
X119483190Y-87526904D01*
X119292714Y-88955476D02*
X119959380Y-88955476D01*
X118911761Y-88717380D02*
X119626047Y-88479285D01*
X119626047Y-89098333D01*
%TO.C,C3*%
X133453142Y-91781333D02*
X133500761Y-91733714D01*
X133548380Y-91590857D01*
X133548380Y-91495619D01*
X133500761Y-91352761D01*
X133405523Y-91257523D01*
X133310285Y-91209904D01*
X133119809Y-91162285D01*
X132976952Y-91162285D01*
X132786476Y-91209904D01*
X132691238Y-91257523D01*
X132596000Y-91352761D01*
X132548380Y-91495619D01*
X132548380Y-91590857D01*
X132596000Y-91733714D01*
X132643619Y-91781333D01*
X132548380Y-92114666D02*
X132548380Y-92733714D01*
X132929333Y-92400380D01*
X132929333Y-92543238D01*
X132976952Y-92638476D01*
X133024571Y-92686095D01*
X133119809Y-92733714D01*
X133357904Y-92733714D01*
X133453142Y-92686095D01*
X133500761Y-92638476D01*
X133548380Y-92543238D01*
X133548380Y-92257523D01*
X133500761Y-92162285D01*
X133453142Y-92114666D01*
%TO.C,C2*%
X118145666Y-87120142D02*
X118193285Y-87167761D01*
X118336142Y-87215380D01*
X118431380Y-87215380D01*
X118574238Y-87167761D01*
X118669476Y-87072523D01*
X118717095Y-86977285D01*
X118764714Y-86786809D01*
X118764714Y-86643952D01*
X118717095Y-86453476D01*
X118669476Y-86358238D01*
X118574238Y-86263000D01*
X118431380Y-86215380D01*
X118336142Y-86215380D01*
X118193285Y-86263000D01*
X118145666Y-86310619D01*
X117764714Y-86310619D02*
X117717095Y-86263000D01*
X117621857Y-86215380D01*
X117383761Y-86215380D01*
X117288523Y-86263000D01*
X117240904Y-86310619D01*
X117193285Y-86405857D01*
X117193285Y-86501095D01*
X117240904Y-86643952D01*
X117812333Y-87215380D01*
X117193285Y-87215380D01*
%TO.C,C4*%
X130341666Y-95099142D02*
X130389285Y-95146761D01*
X130532142Y-95194380D01*
X130627380Y-95194380D01*
X130770238Y-95146761D01*
X130865476Y-95051523D01*
X130913095Y-94956285D01*
X130960714Y-94765809D01*
X130960714Y-94622952D01*
X130913095Y-94432476D01*
X130865476Y-94337238D01*
X130770238Y-94242000D01*
X130627380Y-94194380D01*
X130532142Y-94194380D01*
X130389285Y-94242000D01*
X130341666Y-94289619D01*
X129484523Y-94527714D02*
X129484523Y-95194380D01*
X129722619Y-94146761D02*
X129960714Y-94861047D01*
X129341666Y-94861047D01*
%TO.C,C1*%
X116117666Y-87120142D02*
X116165285Y-87167761D01*
X116308142Y-87215380D01*
X116403380Y-87215380D01*
X116546238Y-87167761D01*
X116641476Y-87072523D01*
X116689095Y-86977285D01*
X116736714Y-86786809D01*
X116736714Y-86643952D01*
X116689095Y-86453476D01*
X116641476Y-86358238D01*
X116546238Y-86263000D01*
X116403380Y-86215380D01*
X116308142Y-86215380D01*
X116165285Y-86263000D01*
X116117666Y-86310619D01*
X115165285Y-87215380D02*
X115736714Y-87215380D01*
X115451000Y-87215380D02*
X115451000Y-86215380D01*
X115546238Y-86358238D01*
X115641476Y-86453476D01*
X115736714Y-86501095D01*
%TO.C,R1*%
X135072380Y-81494333D02*
X134596190Y-81161000D01*
X135072380Y-80922904D02*
X134072380Y-80922904D01*
X134072380Y-81303857D01*
X134120000Y-81399095D01*
X134167619Y-81446714D01*
X134262857Y-81494333D01*
X134405714Y-81494333D01*
X134500952Y-81446714D01*
X134548571Y-81399095D01*
X134596190Y-81303857D01*
X134596190Y-80922904D01*
X135072380Y-82446714D02*
X135072380Y-81875285D01*
X135072380Y-82161000D02*
X134072380Y-82161000D01*
X134215238Y-82065761D01*
X134310476Y-81970523D01*
X134358095Y-81875285D01*
%TD*%
M02*
