%TF.GenerationSoftware,KiCad,Pcbnew,(5.1.6)-1*%
%TF.CreationDate,2021-07-28T23:36:17+08:00*%
%TF.ProjectId,wireless_measurement_ard,77697265-6c65-4737-935f-6d6561737572,rev?*%
%TF.SameCoordinates,Original*%
%TF.FileFunction,Soldermask,Top*%
%TF.FilePolarity,Negative*%
%FSLAX46Y46*%
G04 Gerber Fmt 4.6, Leading zero omitted, Abs format (unit mm)*
G04 Created by KiCad (PCBNEW (5.1.6)-1) date 2021-07-28 23:36:17*
%MOMM*%
%LPD*%
G01*
G04 APERTURE LIST*
%ADD10R,1.500000X0.400000*%
%ADD11O,1.800000X1.800000*%
%ADD12R,1.800000X1.800000*%
%ADD13R,1.600000X3.700000*%
%ADD14R,1.660000X0.750000*%
%ADD15R,2.400000X1.200000*%
%ADD16R,1.200000X2.400000*%
G04 APERTURE END LIST*
D10*
%TO.C,U3*%
X158950000Y-84000000D03*
X158950000Y-84500000D03*
X158950000Y-85000000D03*
X158950000Y-85500000D03*
X158950000Y-86000000D03*
X154550000Y-86000000D03*
X154550000Y-85500000D03*
X154550000Y-85000000D03*
X154550000Y-84500000D03*
X154550000Y-84000000D03*
%TD*%
D11*
%TO.C,EFM8_Prog1*%
X150500000Y-93500000D03*
X147960000Y-93500000D03*
D12*
X145420000Y-93500000D03*
%TD*%
%TO.C,U6*%
G36*
G01*
X138725000Y-87275000D02*
X137425000Y-87275000D01*
G75*
G02*
X137275000Y-87125000I0J150000D01*
G01*
X137275000Y-86825000D01*
G75*
G02*
X137425000Y-86675000I150000J0D01*
G01*
X138725000Y-86675000D01*
G75*
G02*
X138875000Y-86825000I0J-150000D01*
G01*
X138875000Y-87125000D01*
G75*
G02*
X138725000Y-87275000I-150000J0D01*
G01*
G37*
G36*
G01*
X138725000Y-86475000D02*
X137425000Y-86475000D01*
G75*
G02*
X137275000Y-86325000I0J150000D01*
G01*
X137275000Y-86025000D01*
G75*
G02*
X137425000Y-85875000I150000J0D01*
G01*
X138725000Y-85875000D01*
G75*
G02*
X138875000Y-86025000I0J-150000D01*
G01*
X138875000Y-86325000D01*
G75*
G02*
X138725000Y-86475000I-150000J0D01*
G01*
G37*
G36*
G01*
X138725000Y-85675000D02*
X137425000Y-85675000D01*
G75*
G02*
X137275000Y-85525000I0J150000D01*
G01*
X137275000Y-85225000D01*
G75*
G02*
X137425000Y-85075000I150000J0D01*
G01*
X138725000Y-85075000D01*
G75*
G02*
X138875000Y-85225000I0J-150000D01*
G01*
X138875000Y-85525000D01*
G75*
G02*
X138725000Y-85675000I-150000J0D01*
G01*
G37*
G36*
G01*
X138725000Y-84875000D02*
X137425000Y-84875000D01*
G75*
G02*
X137275000Y-84725000I0J150000D01*
G01*
X137275000Y-84425000D01*
G75*
G02*
X137425000Y-84275000I150000J0D01*
G01*
X138725000Y-84275000D01*
G75*
G02*
X138875000Y-84425000I0J-150000D01*
G01*
X138875000Y-84725000D01*
G75*
G02*
X138725000Y-84875000I-150000J0D01*
G01*
G37*
G36*
G01*
X138725000Y-84075000D02*
X137425000Y-84075000D01*
G75*
G02*
X137275000Y-83925000I0J150000D01*
G01*
X137275000Y-83625000D01*
G75*
G02*
X137425000Y-83475000I150000J0D01*
G01*
X138725000Y-83475000D01*
G75*
G02*
X138875000Y-83625000I0J-150000D01*
G01*
X138875000Y-83925000D01*
G75*
G02*
X138725000Y-84075000I-150000J0D01*
G01*
G37*
G36*
G01*
X138725000Y-83275000D02*
X137425000Y-83275000D01*
G75*
G02*
X137275000Y-83125000I0J150000D01*
G01*
X137275000Y-82825000D01*
G75*
G02*
X137425000Y-82675000I150000J0D01*
G01*
X138725000Y-82675000D01*
G75*
G02*
X138875000Y-82825000I0J-150000D01*
G01*
X138875000Y-83125000D01*
G75*
G02*
X138725000Y-83275000I-150000J0D01*
G01*
G37*
G36*
G01*
X138725000Y-82475000D02*
X137425000Y-82475000D01*
G75*
G02*
X137275000Y-82325000I0J150000D01*
G01*
X137275000Y-82025000D01*
G75*
G02*
X137425000Y-81875000I150000J0D01*
G01*
X138725000Y-81875000D01*
G75*
G02*
X138875000Y-82025000I0J-150000D01*
G01*
X138875000Y-82325000D01*
G75*
G02*
X138725000Y-82475000I-150000J0D01*
G01*
G37*
G36*
G01*
X138725000Y-81675000D02*
X137425000Y-81675000D01*
G75*
G02*
X137275000Y-81525000I0J150000D01*
G01*
X137275000Y-81225000D01*
G75*
G02*
X137425000Y-81075000I150000J0D01*
G01*
X138725000Y-81075000D01*
G75*
G02*
X138875000Y-81225000I0J-150000D01*
G01*
X138875000Y-81525000D01*
G75*
G02*
X138725000Y-81675000I-150000J0D01*
G01*
G37*
G36*
G01*
X139600000Y-80800000D02*
X139300000Y-80800000D01*
G75*
G02*
X139150000Y-80650000I0J150000D01*
G01*
X139150000Y-79350000D01*
G75*
G02*
X139300000Y-79200000I150000J0D01*
G01*
X139600000Y-79200000D01*
G75*
G02*
X139750000Y-79350000I0J-150000D01*
G01*
X139750000Y-80650000D01*
G75*
G02*
X139600000Y-80800000I-150000J0D01*
G01*
G37*
G36*
G01*
X140400000Y-80800000D02*
X140100000Y-80800000D01*
G75*
G02*
X139950000Y-80650000I0J150000D01*
G01*
X139950000Y-79350000D01*
G75*
G02*
X140100000Y-79200000I150000J0D01*
G01*
X140400000Y-79200000D01*
G75*
G02*
X140550000Y-79350000I0J-150000D01*
G01*
X140550000Y-80650000D01*
G75*
G02*
X140400000Y-80800000I-150000J0D01*
G01*
G37*
G36*
G01*
X141200000Y-80800000D02*
X140900000Y-80800000D01*
G75*
G02*
X140750000Y-80650000I0J150000D01*
G01*
X140750000Y-79350000D01*
G75*
G02*
X140900000Y-79200000I150000J0D01*
G01*
X141200000Y-79200000D01*
G75*
G02*
X141350000Y-79350000I0J-150000D01*
G01*
X141350000Y-80650000D01*
G75*
G02*
X141200000Y-80800000I-150000J0D01*
G01*
G37*
G36*
G01*
X142000000Y-80800000D02*
X141700000Y-80800000D01*
G75*
G02*
X141550000Y-80650000I0J150000D01*
G01*
X141550000Y-79350000D01*
G75*
G02*
X141700000Y-79200000I150000J0D01*
G01*
X142000000Y-79200000D01*
G75*
G02*
X142150000Y-79350000I0J-150000D01*
G01*
X142150000Y-80650000D01*
G75*
G02*
X142000000Y-80800000I-150000J0D01*
G01*
G37*
G36*
G01*
X142800000Y-80800000D02*
X142500000Y-80800000D01*
G75*
G02*
X142350000Y-80650000I0J150000D01*
G01*
X142350000Y-79350000D01*
G75*
G02*
X142500000Y-79200000I150000J0D01*
G01*
X142800000Y-79200000D01*
G75*
G02*
X142950000Y-79350000I0J-150000D01*
G01*
X142950000Y-80650000D01*
G75*
G02*
X142800000Y-80800000I-150000J0D01*
G01*
G37*
G36*
G01*
X143600000Y-80800000D02*
X143300000Y-80800000D01*
G75*
G02*
X143150000Y-80650000I0J150000D01*
G01*
X143150000Y-79350000D01*
G75*
G02*
X143300000Y-79200000I150000J0D01*
G01*
X143600000Y-79200000D01*
G75*
G02*
X143750000Y-79350000I0J-150000D01*
G01*
X143750000Y-80650000D01*
G75*
G02*
X143600000Y-80800000I-150000J0D01*
G01*
G37*
G36*
G01*
X144400000Y-80800000D02*
X144100000Y-80800000D01*
G75*
G02*
X143950000Y-80650000I0J150000D01*
G01*
X143950000Y-79350000D01*
G75*
G02*
X144100000Y-79200000I150000J0D01*
G01*
X144400000Y-79200000D01*
G75*
G02*
X144550000Y-79350000I0J-150000D01*
G01*
X144550000Y-80650000D01*
G75*
G02*
X144400000Y-80800000I-150000J0D01*
G01*
G37*
G36*
G01*
X145200000Y-80800000D02*
X144900000Y-80800000D01*
G75*
G02*
X144750000Y-80650000I0J150000D01*
G01*
X144750000Y-79350000D01*
G75*
G02*
X144900000Y-79200000I150000J0D01*
G01*
X145200000Y-79200000D01*
G75*
G02*
X145350000Y-79350000I0J-150000D01*
G01*
X145350000Y-80650000D01*
G75*
G02*
X145200000Y-80800000I-150000J0D01*
G01*
G37*
G36*
G01*
X147075000Y-81675000D02*
X145775000Y-81675000D01*
G75*
G02*
X145625000Y-81525000I0J150000D01*
G01*
X145625000Y-81225000D01*
G75*
G02*
X145775000Y-81075000I150000J0D01*
G01*
X147075000Y-81075000D01*
G75*
G02*
X147225000Y-81225000I0J-150000D01*
G01*
X147225000Y-81525000D01*
G75*
G02*
X147075000Y-81675000I-150000J0D01*
G01*
G37*
G36*
G01*
X147075000Y-82475000D02*
X145775000Y-82475000D01*
G75*
G02*
X145625000Y-82325000I0J150000D01*
G01*
X145625000Y-82025000D01*
G75*
G02*
X145775000Y-81875000I150000J0D01*
G01*
X147075000Y-81875000D01*
G75*
G02*
X147225000Y-82025000I0J-150000D01*
G01*
X147225000Y-82325000D01*
G75*
G02*
X147075000Y-82475000I-150000J0D01*
G01*
G37*
G36*
G01*
X147075000Y-83275000D02*
X145775000Y-83275000D01*
G75*
G02*
X145625000Y-83125000I0J150000D01*
G01*
X145625000Y-82825000D01*
G75*
G02*
X145775000Y-82675000I150000J0D01*
G01*
X147075000Y-82675000D01*
G75*
G02*
X147225000Y-82825000I0J-150000D01*
G01*
X147225000Y-83125000D01*
G75*
G02*
X147075000Y-83275000I-150000J0D01*
G01*
G37*
G36*
G01*
X147075000Y-84075000D02*
X145775000Y-84075000D01*
G75*
G02*
X145625000Y-83925000I0J150000D01*
G01*
X145625000Y-83625000D01*
G75*
G02*
X145775000Y-83475000I150000J0D01*
G01*
X147075000Y-83475000D01*
G75*
G02*
X147225000Y-83625000I0J-150000D01*
G01*
X147225000Y-83925000D01*
G75*
G02*
X147075000Y-84075000I-150000J0D01*
G01*
G37*
G36*
G01*
X147075000Y-84875000D02*
X145775000Y-84875000D01*
G75*
G02*
X145625000Y-84725000I0J150000D01*
G01*
X145625000Y-84425000D01*
G75*
G02*
X145775000Y-84275000I150000J0D01*
G01*
X147075000Y-84275000D01*
G75*
G02*
X147225000Y-84425000I0J-150000D01*
G01*
X147225000Y-84725000D01*
G75*
G02*
X147075000Y-84875000I-150000J0D01*
G01*
G37*
G36*
G01*
X147075000Y-85675000D02*
X145775000Y-85675000D01*
G75*
G02*
X145625000Y-85525000I0J150000D01*
G01*
X145625000Y-85225000D01*
G75*
G02*
X145775000Y-85075000I150000J0D01*
G01*
X147075000Y-85075000D01*
G75*
G02*
X147225000Y-85225000I0J-150000D01*
G01*
X147225000Y-85525000D01*
G75*
G02*
X147075000Y-85675000I-150000J0D01*
G01*
G37*
G36*
G01*
X147075000Y-86475000D02*
X145775000Y-86475000D01*
G75*
G02*
X145625000Y-86325000I0J150000D01*
G01*
X145625000Y-86025000D01*
G75*
G02*
X145775000Y-85875000I150000J0D01*
G01*
X147075000Y-85875000D01*
G75*
G02*
X147225000Y-86025000I0J-150000D01*
G01*
X147225000Y-86325000D01*
G75*
G02*
X147075000Y-86475000I-150000J0D01*
G01*
G37*
G36*
G01*
X147075000Y-87275000D02*
X145775000Y-87275000D01*
G75*
G02*
X145625000Y-87125000I0J150000D01*
G01*
X145625000Y-86825000D01*
G75*
G02*
X145775000Y-86675000I150000J0D01*
G01*
X147075000Y-86675000D01*
G75*
G02*
X147225000Y-86825000I0J-150000D01*
G01*
X147225000Y-87125000D01*
G75*
G02*
X147075000Y-87275000I-150000J0D01*
G01*
G37*
G36*
G01*
X145200000Y-89150000D02*
X144900000Y-89150000D01*
G75*
G02*
X144750000Y-89000000I0J150000D01*
G01*
X144750000Y-87700000D01*
G75*
G02*
X144900000Y-87550000I150000J0D01*
G01*
X145200000Y-87550000D01*
G75*
G02*
X145350000Y-87700000I0J-150000D01*
G01*
X145350000Y-89000000D01*
G75*
G02*
X145200000Y-89150000I-150000J0D01*
G01*
G37*
G36*
G01*
X144400000Y-89150000D02*
X144100000Y-89150000D01*
G75*
G02*
X143950000Y-89000000I0J150000D01*
G01*
X143950000Y-87700000D01*
G75*
G02*
X144100000Y-87550000I150000J0D01*
G01*
X144400000Y-87550000D01*
G75*
G02*
X144550000Y-87700000I0J-150000D01*
G01*
X144550000Y-89000000D01*
G75*
G02*
X144400000Y-89150000I-150000J0D01*
G01*
G37*
G36*
G01*
X143600000Y-89150000D02*
X143300000Y-89150000D01*
G75*
G02*
X143150000Y-89000000I0J150000D01*
G01*
X143150000Y-87700000D01*
G75*
G02*
X143300000Y-87550000I150000J0D01*
G01*
X143600000Y-87550000D01*
G75*
G02*
X143750000Y-87700000I0J-150000D01*
G01*
X143750000Y-89000000D01*
G75*
G02*
X143600000Y-89150000I-150000J0D01*
G01*
G37*
G36*
G01*
X142800000Y-89150000D02*
X142500000Y-89150000D01*
G75*
G02*
X142350000Y-89000000I0J150000D01*
G01*
X142350000Y-87700000D01*
G75*
G02*
X142500000Y-87550000I150000J0D01*
G01*
X142800000Y-87550000D01*
G75*
G02*
X142950000Y-87700000I0J-150000D01*
G01*
X142950000Y-89000000D01*
G75*
G02*
X142800000Y-89150000I-150000J0D01*
G01*
G37*
G36*
G01*
X142000000Y-89150000D02*
X141700000Y-89150000D01*
G75*
G02*
X141550000Y-89000000I0J150000D01*
G01*
X141550000Y-87700000D01*
G75*
G02*
X141700000Y-87550000I150000J0D01*
G01*
X142000000Y-87550000D01*
G75*
G02*
X142150000Y-87700000I0J-150000D01*
G01*
X142150000Y-89000000D01*
G75*
G02*
X142000000Y-89150000I-150000J0D01*
G01*
G37*
G36*
G01*
X141200000Y-89150000D02*
X140900000Y-89150000D01*
G75*
G02*
X140750000Y-89000000I0J150000D01*
G01*
X140750000Y-87700000D01*
G75*
G02*
X140900000Y-87550000I150000J0D01*
G01*
X141200000Y-87550000D01*
G75*
G02*
X141350000Y-87700000I0J-150000D01*
G01*
X141350000Y-89000000D01*
G75*
G02*
X141200000Y-89150000I-150000J0D01*
G01*
G37*
G36*
G01*
X140400000Y-89150000D02*
X140100000Y-89150000D01*
G75*
G02*
X139950000Y-89000000I0J150000D01*
G01*
X139950000Y-87700000D01*
G75*
G02*
X140100000Y-87550000I150000J0D01*
G01*
X140400000Y-87550000D01*
G75*
G02*
X140550000Y-87700000I0J-150000D01*
G01*
X140550000Y-89000000D01*
G75*
G02*
X140400000Y-89150000I-150000J0D01*
G01*
G37*
G36*
G01*
X139600000Y-89150000D02*
X139300000Y-89150000D01*
G75*
G02*
X139150000Y-89000000I0J150000D01*
G01*
X139150000Y-87700000D01*
G75*
G02*
X139300000Y-87550000I150000J0D01*
G01*
X139600000Y-87550000D01*
G75*
G02*
X139750000Y-87700000I0J-150000D01*
G01*
X139750000Y-89000000D01*
G75*
G02*
X139600000Y-89150000I-150000J0D01*
G01*
G37*
%TD*%
%TO.C,C6*%
G36*
G01*
X141737500Y-92675000D02*
X142262500Y-92675000D01*
G75*
G02*
X142525000Y-92937500I0J-262500D01*
G01*
X142525000Y-93562500D01*
G75*
G02*
X142262500Y-93825000I-262500J0D01*
G01*
X141737500Y-93825000D01*
G75*
G02*
X141475000Y-93562500I0J262500D01*
G01*
X141475000Y-92937500D01*
G75*
G02*
X141737500Y-92675000I262500J0D01*
G01*
G37*
G36*
G01*
X141737500Y-90925000D02*
X142262500Y-90925000D01*
G75*
G02*
X142525000Y-91187500I0J-262500D01*
G01*
X142525000Y-91812500D01*
G75*
G02*
X142262500Y-92075000I-262500J0D01*
G01*
X141737500Y-92075000D01*
G75*
G02*
X141475000Y-91812500I0J262500D01*
G01*
X141475000Y-91187500D01*
G75*
G02*
X141737500Y-90925000I262500J0D01*
G01*
G37*
%TD*%
%TO.C,C5*%
G36*
G01*
X139737500Y-92675000D02*
X140262500Y-92675000D01*
G75*
G02*
X140525000Y-92937500I0J-262500D01*
G01*
X140525000Y-93562500D01*
G75*
G02*
X140262500Y-93825000I-262500J0D01*
G01*
X139737500Y-93825000D01*
G75*
G02*
X139475000Y-93562500I0J262500D01*
G01*
X139475000Y-92937500D01*
G75*
G02*
X139737500Y-92675000I262500J0D01*
G01*
G37*
G36*
G01*
X139737500Y-90925000D02*
X140262500Y-90925000D01*
G75*
G02*
X140525000Y-91187500I0J-262500D01*
G01*
X140525000Y-91812500D01*
G75*
G02*
X140262500Y-92075000I-262500J0D01*
G01*
X139737500Y-92075000D01*
G75*
G02*
X139475000Y-91812500I0J262500D01*
G01*
X139475000Y-91187500D01*
G75*
G02*
X139737500Y-90925000I262500J0D01*
G01*
G37*
%TD*%
%TO.C,R5*%
G36*
G01*
X151487500Y-84050000D02*
X152012500Y-84050000D01*
G75*
G02*
X152275000Y-84312500I0J-262500D01*
G01*
X152275000Y-84937500D01*
G75*
G02*
X152012500Y-85200000I-262500J0D01*
G01*
X151487500Y-85200000D01*
G75*
G02*
X151225000Y-84937500I0J262500D01*
G01*
X151225000Y-84312500D01*
G75*
G02*
X151487500Y-84050000I262500J0D01*
G01*
G37*
G36*
G01*
X151487500Y-82300000D02*
X152012500Y-82300000D01*
G75*
G02*
X152275000Y-82562500I0J-262500D01*
G01*
X152275000Y-83187500D01*
G75*
G02*
X152012500Y-83450000I-262500J0D01*
G01*
X151487500Y-83450000D01*
G75*
G02*
X151225000Y-83187500I0J262500D01*
G01*
X151225000Y-82562500D01*
G75*
G02*
X151487500Y-82300000I262500J0D01*
G01*
G37*
%TD*%
%TO.C,R4*%
G36*
G01*
X151487500Y-87925000D02*
X152012500Y-87925000D01*
G75*
G02*
X152275000Y-88187500I0J-262500D01*
G01*
X152275000Y-88812500D01*
G75*
G02*
X152012500Y-89075000I-262500J0D01*
G01*
X151487500Y-89075000D01*
G75*
G02*
X151225000Y-88812500I0J262500D01*
G01*
X151225000Y-88187500D01*
G75*
G02*
X151487500Y-87925000I262500J0D01*
G01*
G37*
G36*
G01*
X151487500Y-86175000D02*
X152012500Y-86175000D01*
G75*
G02*
X152275000Y-86437500I0J-262500D01*
G01*
X152275000Y-87062500D01*
G75*
G02*
X152012500Y-87325000I-262500J0D01*
G01*
X151487500Y-87325000D01*
G75*
G02*
X151225000Y-87062500I0J262500D01*
G01*
X151225000Y-86437500D01*
G75*
G02*
X151487500Y-86175000I262500J0D01*
G01*
G37*
%TD*%
D13*
%TO.C,L1*%
X165050000Y-90000000D03*
X162000000Y-90000000D03*
%TD*%
D11*
%TO.C,J1*%
X175250000Y-94530000D03*
X175250000Y-91990000D03*
X175250000Y-89450000D03*
X175250000Y-86910000D03*
X175250000Y-84370000D03*
X175250000Y-81830000D03*
X175250000Y-79290000D03*
D12*
X175250000Y-76750000D03*
%TD*%
%TO.C,C3*%
G36*
G01*
X162925000Y-93762500D02*
X162925000Y-93237500D01*
G75*
G02*
X163187500Y-92975000I262500J0D01*
G01*
X163812500Y-92975000D01*
G75*
G02*
X164075000Y-93237500I0J-262500D01*
G01*
X164075000Y-93762500D01*
G75*
G02*
X163812500Y-94025000I-262500J0D01*
G01*
X163187500Y-94025000D01*
G75*
G02*
X162925000Y-93762500I0J262500D01*
G01*
G37*
G36*
G01*
X161175000Y-93762500D02*
X161175000Y-93237500D01*
G75*
G02*
X161437500Y-92975000I262500J0D01*
G01*
X162062500Y-92975000D01*
G75*
G02*
X162325000Y-93237500I0J-262500D01*
G01*
X162325000Y-93762500D01*
G75*
G02*
X162062500Y-94025000I-262500J0D01*
G01*
X161437500Y-94025000D01*
G75*
G02*
X161175000Y-93762500I0J262500D01*
G01*
G37*
%TD*%
%TO.C,C2*%
G36*
G01*
X155800000Y-90262500D02*
X155800000Y-89737500D01*
G75*
G02*
X156062500Y-89475000I262500J0D01*
G01*
X156687500Y-89475000D01*
G75*
G02*
X156950000Y-89737500I0J-262500D01*
G01*
X156950000Y-90262500D01*
G75*
G02*
X156687500Y-90525000I-262500J0D01*
G01*
X156062500Y-90525000D01*
G75*
G02*
X155800000Y-90262500I0J262500D01*
G01*
G37*
G36*
G01*
X154050000Y-90262500D02*
X154050000Y-89737500D01*
G75*
G02*
X154312500Y-89475000I262500J0D01*
G01*
X154937500Y-89475000D01*
G75*
G02*
X155200000Y-89737500I0J-262500D01*
G01*
X155200000Y-90262500D01*
G75*
G02*
X154937500Y-90525000I-262500J0D01*
G01*
X154312500Y-90525000D01*
G75*
G02*
X154050000Y-90262500I0J262500D01*
G01*
G37*
%TD*%
D11*
%TO.C,Battery1*%
X155750000Y-93500000D03*
D12*
X158290000Y-93500000D03*
%TD*%
%TO.C,C4*%
G36*
G01*
X159262500Y-88825000D02*
X158737500Y-88825000D01*
G75*
G02*
X158475000Y-88562500I0J262500D01*
G01*
X158475000Y-87937500D01*
G75*
G02*
X158737500Y-87675000I262500J0D01*
G01*
X159262500Y-87675000D01*
G75*
G02*
X159525000Y-87937500I0J-262500D01*
G01*
X159525000Y-88562500D01*
G75*
G02*
X159262500Y-88825000I-262500J0D01*
G01*
G37*
G36*
G01*
X159262500Y-90575000D02*
X158737500Y-90575000D01*
G75*
G02*
X158475000Y-90312500I0J262500D01*
G01*
X158475000Y-89687500D01*
G75*
G02*
X158737500Y-89425000I262500J0D01*
G01*
X159262500Y-89425000D01*
G75*
G02*
X159525000Y-89687500I0J-262500D01*
G01*
X159525000Y-90312500D01*
G75*
G02*
X159262500Y-90575000I-262500J0D01*
G01*
G37*
%TD*%
%TO.C,C1*%
G36*
G01*
X155800000Y-88262500D02*
X155800000Y-87737500D01*
G75*
G02*
X156062500Y-87475000I262500J0D01*
G01*
X156687500Y-87475000D01*
G75*
G02*
X156950000Y-87737500I0J-262500D01*
G01*
X156950000Y-88262500D01*
G75*
G02*
X156687500Y-88525000I-262500J0D01*
G01*
X156062500Y-88525000D01*
G75*
G02*
X155800000Y-88262500I0J262500D01*
G01*
G37*
G36*
G01*
X154050000Y-88262500D02*
X154050000Y-87737500D01*
G75*
G02*
X154312500Y-87475000I262500J0D01*
G01*
X154937500Y-87475000D01*
G75*
G02*
X155200000Y-87737500I0J-262500D01*
G01*
X155200000Y-88262500D01*
G75*
G02*
X154937500Y-88525000I-262500J0D01*
G01*
X154312500Y-88525000D01*
G75*
G02*
X154050000Y-88262500I0J262500D01*
G01*
G37*
%TD*%
D14*
%TO.C,U5*%
X169250000Y-82250000D03*
X169250000Y-84150000D03*
X166550000Y-84150000D03*
X166550000Y-83200000D03*
X166550000Y-82250000D03*
%TD*%
%TO.C,U4*%
X169250000Y-77000000D03*
X169250000Y-78900000D03*
X166550000Y-78900000D03*
X166550000Y-77950000D03*
X166550000Y-77000000D03*
%TD*%
D15*
%TO.C,U2*%
X130862800Y-80322600D03*
X130862800Y-81822600D03*
X130862800Y-83322600D03*
X130862800Y-84822600D03*
X130862800Y-86322600D03*
X130862800Y-87822600D03*
X130862800Y-89322600D03*
D16*
X129762800Y-92642600D03*
X129762800Y-78502600D03*
X128262800Y-78502600D03*
X128262800Y-92642600D03*
X126762800Y-92642600D03*
X126762800Y-78502600D03*
X125262800Y-78502600D03*
X125262800Y-92642600D03*
X123762800Y-92642600D03*
X123762800Y-78502600D03*
X122262800Y-78502600D03*
X122262800Y-92642600D03*
X120762800Y-92642600D03*
X120762800Y-78502600D03*
X119262800Y-78502600D03*
D15*
X130862800Y-90822600D03*
D16*
X119262800Y-92642600D03*
%TD*%
%TO.C,R2*%
G36*
G01*
X171521738Y-78425000D02*
X172478262Y-78425000D01*
G75*
G02*
X172750000Y-78696738I0J-271738D01*
G01*
X172750000Y-79403262D01*
G75*
G02*
X172478262Y-79675000I-271738J0D01*
G01*
X171521738Y-79675000D01*
G75*
G02*
X171250000Y-79403262I0J271738D01*
G01*
X171250000Y-78696738D01*
G75*
G02*
X171521738Y-78425000I271738J0D01*
G01*
G37*
G36*
G01*
X171521738Y-76375000D02*
X172478262Y-76375000D01*
G75*
G02*
X172750000Y-76646738I0J-271738D01*
G01*
X172750000Y-77353262D01*
G75*
G02*
X172478262Y-77625000I-271738J0D01*
G01*
X171521738Y-77625000D01*
G75*
G02*
X171250000Y-77353262I0J271738D01*
G01*
X171250000Y-76646738D01*
G75*
G02*
X171521738Y-76375000I271738J0D01*
G01*
G37*
%TD*%
%TO.C,R1*%
G36*
G01*
X171521738Y-83650000D02*
X172478262Y-83650000D01*
G75*
G02*
X172750000Y-83921738I0J-271738D01*
G01*
X172750000Y-84628262D01*
G75*
G02*
X172478262Y-84900000I-271738J0D01*
G01*
X171521738Y-84900000D01*
G75*
G02*
X171250000Y-84628262I0J271738D01*
G01*
X171250000Y-83921738D01*
G75*
G02*
X171521738Y-83650000I271738J0D01*
G01*
G37*
G36*
G01*
X171521738Y-81600000D02*
X172478262Y-81600000D01*
G75*
G02*
X172750000Y-81871738I0J-271738D01*
G01*
X172750000Y-82578262D01*
G75*
G02*
X172478262Y-82850000I-271738J0D01*
G01*
X171521738Y-82850000D01*
G75*
G02*
X171250000Y-82578262I0J271738D01*
G01*
X171250000Y-81871738D01*
G75*
G02*
X171521738Y-81600000I271738J0D01*
G01*
G37*
%TD*%
%TO.C,D1*%
G36*
G01*
X138012500Y-77031250D02*
X138012500Y-76468750D01*
G75*
G02*
X138256250Y-76225000I243750J0D01*
G01*
X138743750Y-76225000D01*
G75*
G02*
X138987500Y-76468750I0J-243750D01*
G01*
X138987500Y-77031250D01*
G75*
G02*
X138743750Y-77275000I-243750J0D01*
G01*
X138256250Y-77275000D01*
G75*
G02*
X138012500Y-77031250I0J243750D01*
G01*
G37*
G36*
G01*
X139587500Y-77031250D02*
X139587500Y-76468750D01*
G75*
G02*
X139831250Y-76225000I243750J0D01*
G01*
X140318750Y-76225000D01*
G75*
G02*
X140562500Y-76468750I0J-243750D01*
G01*
X140562500Y-77031250D01*
G75*
G02*
X140318750Y-77275000I-243750J0D01*
G01*
X139831250Y-77275000D01*
G75*
G02*
X139587500Y-77031250I0J243750D01*
G01*
G37*
%TD*%
%TO.C,R3*%
G36*
G01*
X136825000Y-76487500D02*
X136825000Y-77012500D01*
G75*
G02*
X136562500Y-77275000I-262500J0D01*
G01*
X135937500Y-77275000D01*
G75*
G02*
X135675000Y-77012500I0J262500D01*
G01*
X135675000Y-76487500D01*
G75*
G02*
X135937500Y-76225000I262500J0D01*
G01*
X136562500Y-76225000D01*
G75*
G02*
X136825000Y-76487500I0J-262500D01*
G01*
G37*
G36*
G01*
X135075000Y-76487500D02*
X135075000Y-77012500D01*
G75*
G02*
X134812500Y-77275000I-262500J0D01*
G01*
X134187500Y-77275000D01*
G75*
G02*
X133925000Y-77012500I0J262500D01*
G01*
X133925000Y-76487500D01*
G75*
G02*
X134187500Y-76225000I262500J0D01*
G01*
X134812500Y-76225000D01*
G75*
G02*
X135075000Y-76487500I0J-262500D01*
G01*
G37*
%TD*%
M02*
