%TF.GenerationSoftware,KiCad,Pcbnew,(5.1.6)-1*%
%TF.CreationDate,2021-07-28T23:36:17+08:00*%
%TF.ProjectId,wireless_measurement_ard,77697265-6c65-4737-935f-6d6561737572,rev?*%
%TF.SameCoordinates,Original*%
%TF.FileFunction,Legend,Top*%
%TF.FilePolarity,Positive*%
%FSLAX46Y46*%
G04 Gerber Fmt 4.6, Leading zero omitted, Abs format (unit mm)*
G04 Created by KiCad (PCBNEW (5.1.6)-1) date 2021-07-28 23:36:17*
%MOMM*%
%LPD*%
G01*
G04 APERTURE LIST*
%ADD10C,0.300000*%
%ADD11C,0.150000*%
%ADD12C,0.120000*%
G04 APERTURE END LIST*
D10*
X144285714Y-76653571D02*
X144642857Y-77653571D01*
X145000000Y-76653571D01*
X146357142Y-77653571D02*
X145500000Y-77653571D01*
X145928571Y-77653571D02*
X145928571Y-76153571D01*
X145785714Y-76367857D01*
X145642857Y-76510714D01*
X145500000Y-76582142D01*
X148071428Y-77582142D02*
X148285714Y-77653571D01*
X148642857Y-77653571D01*
X148785714Y-77582142D01*
X148857142Y-77510714D01*
X148928571Y-77367857D01*
X148928571Y-77225000D01*
X148857142Y-77082142D01*
X148785714Y-77010714D01*
X148642857Y-76939285D01*
X148357142Y-76867857D01*
X148214285Y-76796428D01*
X148142857Y-76725000D01*
X148071428Y-76582142D01*
X148071428Y-76439285D01*
X148142857Y-76296428D01*
X148214285Y-76225000D01*
X148357142Y-76153571D01*
X148714285Y-76153571D01*
X148928571Y-76225000D01*
X149428571Y-76153571D02*
X149785714Y-77653571D01*
X150071428Y-76582142D01*
X150357142Y-77653571D01*
X150714285Y-76153571D01*
X151285714Y-77653571D02*
X151285714Y-76153571D01*
X151785714Y-77225000D01*
X152285714Y-76153571D01*
X152285714Y-77653571D01*
X154642857Y-76867857D02*
X154857142Y-76939285D01*
X154928571Y-77010714D01*
X155000000Y-77153571D01*
X155000000Y-77367857D01*
X154928571Y-77510714D01*
X154857142Y-77582142D01*
X154714285Y-77653571D01*
X154142857Y-77653571D01*
X154142857Y-76153571D01*
X154642857Y-76153571D01*
X154785714Y-76225000D01*
X154857142Y-76296428D01*
X154928571Y-76439285D01*
X154928571Y-76582142D01*
X154857142Y-76725000D01*
X154785714Y-76796428D01*
X154642857Y-76867857D01*
X154142857Y-76867857D01*
X155857142Y-77653571D02*
X155714285Y-77582142D01*
X155642857Y-77510714D01*
X155571428Y-77367857D01*
X155571428Y-76939285D01*
X155642857Y-76796428D01*
X155714285Y-76725000D01*
X155857142Y-76653571D01*
X156071428Y-76653571D01*
X156214285Y-76725000D01*
X156285714Y-76796428D01*
X156357142Y-76939285D01*
X156357142Y-77367857D01*
X156285714Y-77510714D01*
X156214285Y-77582142D01*
X156071428Y-77653571D01*
X155857142Y-77653571D01*
X157642857Y-77653571D02*
X157642857Y-76867857D01*
X157571428Y-76725000D01*
X157428571Y-76653571D01*
X157142857Y-76653571D01*
X157000000Y-76725000D01*
X157642857Y-77582142D02*
X157500000Y-77653571D01*
X157142857Y-77653571D01*
X157000000Y-77582142D01*
X156928571Y-77439285D01*
X156928571Y-77296428D01*
X157000000Y-77153571D01*
X157142857Y-77082142D01*
X157500000Y-77082142D01*
X157642857Y-77010714D01*
X158357142Y-77653571D02*
X158357142Y-76653571D01*
X158357142Y-76939285D02*
X158428571Y-76796428D01*
X158500000Y-76725000D01*
X158642857Y-76653571D01*
X158785714Y-76653571D01*
X159928571Y-77653571D02*
X159928571Y-76153571D01*
X159928571Y-77582142D02*
X159785714Y-77653571D01*
X159500000Y-77653571D01*
X159357142Y-77582142D01*
X159285714Y-77510714D01*
X159214285Y-77367857D01*
X159214285Y-76939285D01*
X159285714Y-76796428D01*
X159357142Y-76725000D01*
X159500000Y-76653571D01*
X159785714Y-76653571D01*
X159928571Y-76725000D01*
X149892857Y-78703571D02*
X149892857Y-79775000D01*
X149821428Y-79989285D01*
X149678571Y-80132142D01*
X149464285Y-80203571D01*
X149321428Y-80203571D01*
X151250000Y-79203571D02*
X151250000Y-80203571D01*
X150607142Y-79203571D02*
X150607142Y-79989285D01*
X150678571Y-80132142D01*
X150821428Y-80203571D01*
X151035714Y-80203571D01*
X151178571Y-80132142D01*
X151250000Y-80060714D01*
X152178571Y-80203571D02*
X152035714Y-80132142D01*
X151964285Y-79989285D01*
X151964285Y-78703571D01*
X153821428Y-78846428D02*
X153892857Y-78775000D01*
X154035714Y-78703571D01*
X154392857Y-78703571D01*
X154535714Y-78775000D01*
X154607142Y-78846428D01*
X154678571Y-78989285D01*
X154678571Y-79132142D01*
X154607142Y-79346428D01*
X153750000Y-80203571D01*
X154678571Y-80203571D01*
X156107142Y-80203571D02*
X155250000Y-80203571D01*
X155678571Y-80203571D02*
X155678571Y-78703571D01*
X155535714Y-78917857D01*
X155392857Y-79060714D01*
X155250000Y-79132142D01*
D11*
%TO.C,U3*%
X155075000Y-83550000D02*
X153850000Y-83550000D01*
X155075000Y-86675000D02*
X158425000Y-86675000D01*
X155075000Y-83325000D02*
X158425000Y-83325000D01*
X155075000Y-86675000D02*
X155075000Y-86375000D01*
X158425000Y-86675000D02*
X158425000Y-86375000D01*
X158425000Y-83325000D02*
X158425000Y-83625000D01*
X155075000Y-83325000D02*
X155075000Y-83550000D01*
D12*
%TO.C,EFM8_Prog1*%
X144090000Y-94830000D02*
X144090000Y-93500000D01*
X145420000Y-94830000D02*
X144090000Y-94830000D01*
X146690000Y-94830000D02*
X146690000Y-92170000D01*
X146690000Y-92170000D02*
X151830000Y-92170000D01*
X146690000Y-94830000D02*
X151830000Y-94830000D01*
X151830000Y-94830000D02*
X151830000Y-92170000D01*
%TO.C,U6*%
X138940000Y-87785000D02*
X138940000Y-89100000D01*
X138640000Y-87785000D02*
X138940000Y-87785000D01*
X138640000Y-87485000D02*
X138640000Y-87785000D01*
X138640000Y-80565000D02*
X138940000Y-80565000D01*
X138640000Y-80865000D02*
X138640000Y-80565000D01*
X145860000Y-87785000D02*
X145560000Y-87785000D01*
X145860000Y-87485000D02*
X145860000Y-87785000D01*
X145860000Y-80565000D02*
X145560000Y-80565000D01*
X145860000Y-80865000D02*
X145860000Y-80565000D01*
%TO.C,C6*%
X141490000Y-92203733D02*
X141490000Y-92546267D01*
X142510000Y-92203733D02*
X142510000Y-92546267D01*
%TO.C,C5*%
X139490000Y-92203733D02*
X139490000Y-92546267D01*
X140510000Y-92203733D02*
X140510000Y-92546267D01*
%TO.C,R5*%
X151240000Y-83578733D02*
X151240000Y-83921267D01*
X152260000Y-83578733D02*
X152260000Y-83921267D01*
%TO.C,R4*%
X151240000Y-87453733D02*
X151240000Y-87796267D01*
X152260000Y-87453733D02*
X152260000Y-87796267D01*
%TO.C,L1*%
X161140000Y-92110000D02*
X162165000Y-92110000D01*
X165910000Y-92110000D02*
X164885000Y-92110000D01*
X161140000Y-92110000D02*
X161140000Y-91085000D01*
X165910000Y-92110000D02*
X165910000Y-91085000D01*
X165910000Y-87890000D02*
X165910000Y-88915000D01*
X165910000Y-87890000D02*
X164885000Y-87890000D01*
X161140000Y-87890000D02*
X162165000Y-87890000D01*
X161140000Y-87890000D02*
X161140000Y-88915000D01*
%TO.C,J1*%
X173980000Y-75480000D02*
X175250000Y-75480000D01*
X173980000Y-76750000D02*
X173980000Y-75480000D01*
X176292929Y-94910000D02*
X176690000Y-94910000D01*
X176292929Y-94150000D02*
X176690000Y-94150000D01*
X185350000Y-94910000D02*
X179350000Y-94910000D01*
X185350000Y-94150000D02*
X185350000Y-94910000D01*
X179350000Y-94150000D02*
X185350000Y-94150000D01*
X176690000Y-93260000D02*
X179350000Y-93260000D01*
X176292929Y-92370000D02*
X176690000Y-92370000D01*
X176292929Y-91610000D02*
X176690000Y-91610000D01*
X185350000Y-92370000D02*
X179350000Y-92370000D01*
X185350000Y-91610000D02*
X185350000Y-92370000D01*
X179350000Y-91610000D02*
X185350000Y-91610000D01*
X176690000Y-90720000D02*
X179350000Y-90720000D01*
X176292929Y-89830000D02*
X176690000Y-89830000D01*
X176292929Y-89070000D02*
X176690000Y-89070000D01*
X185350000Y-89830000D02*
X179350000Y-89830000D01*
X185350000Y-89070000D02*
X185350000Y-89830000D01*
X179350000Y-89070000D02*
X185350000Y-89070000D01*
X176690000Y-88180000D02*
X179350000Y-88180000D01*
X176292929Y-87290000D02*
X176690000Y-87290000D01*
X176292929Y-86530000D02*
X176690000Y-86530000D01*
X185350000Y-87290000D02*
X179350000Y-87290000D01*
X185350000Y-86530000D02*
X185350000Y-87290000D01*
X179350000Y-86530000D02*
X185350000Y-86530000D01*
X176690000Y-85640000D02*
X179350000Y-85640000D01*
X176292929Y-84750000D02*
X176690000Y-84750000D01*
X176292929Y-83990000D02*
X176690000Y-83990000D01*
X185350000Y-84750000D02*
X179350000Y-84750000D01*
X185350000Y-83990000D02*
X185350000Y-84750000D01*
X179350000Y-83990000D02*
X185350000Y-83990000D01*
X176690000Y-83100000D02*
X179350000Y-83100000D01*
X176292929Y-82210000D02*
X176690000Y-82210000D01*
X176292929Y-81450000D02*
X176690000Y-81450000D01*
X185350000Y-82210000D02*
X179350000Y-82210000D01*
X185350000Y-81450000D02*
X185350000Y-82210000D01*
X179350000Y-81450000D02*
X185350000Y-81450000D01*
X176690000Y-80560000D02*
X179350000Y-80560000D01*
X176292929Y-79670000D02*
X176690000Y-79670000D01*
X176292929Y-78910000D02*
X176690000Y-78910000D01*
X185350000Y-79670000D02*
X179350000Y-79670000D01*
X185350000Y-78910000D02*
X185350000Y-79670000D01*
X179350000Y-78910000D02*
X185350000Y-78910000D01*
X176690000Y-78020000D02*
X179350000Y-78020000D01*
X176360000Y-77130000D02*
X176690000Y-77130000D01*
X176360000Y-76370000D02*
X176690000Y-76370000D01*
X179350000Y-77030000D02*
X185350000Y-77030000D01*
X179350000Y-76910000D02*
X185350000Y-76910000D01*
X179350000Y-76790000D02*
X185350000Y-76790000D01*
X179350000Y-76670000D02*
X185350000Y-76670000D01*
X179350000Y-76550000D02*
X185350000Y-76550000D01*
X179350000Y-76430000D02*
X185350000Y-76430000D01*
X185350000Y-77130000D02*
X179350000Y-77130000D01*
X185350000Y-76370000D02*
X185350000Y-77130000D01*
X179350000Y-76370000D02*
X185350000Y-76370000D01*
X179350000Y-75420000D02*
X176690000Y-75420000D01*
X179350000Y-95860000D02*
X179350000Y-75420000D01*
X176690000Y-95860000D02*
X179350000Y-95860000D01*
X176690000Y-75420000D02*
X176690000Y-95860000D01*
%TO.C,C3*%
X162453733Y-94010000D02*
X162796267Y-94010000D01*
X162453733Y-92990000D02*
X162796267Y-92990000D01*
%TO.C,C2*%
X155328733Y-90510000D02*
X155671267Y-90510000D01*
X155328733Y-89490000D02*
X155671267Y-89490000D01*
%TO.C,Battery1*%
X159620000Y-93500000D02*
X159620000Y-94830000D01*
X159620000Y-94830000D02*
X158290000Y-94830000D01*
X157020000Y-94830000D02*
X154420000Y-94830000D01*
X154420000Y-92170000D02*
X154420000Y-94830000D01*
X157020000Y-92170000D02*
X154420000Y-92170000D01*
X157020000Y-92170000D02*
X157020000Y-94830000D01*
%TO.C,C4*%
X159510000Y-89296267D02*
X159510000Y-88953733D01*
X158490000Y-89296267D02*
X158490000Y-88953733D01*
%TO.C,C1*%
X155328733Y-88510000D02*
X155671267Y-88510000D01*
X155328733Y-87490000D02*
X155671267Y-87490000D01*
%TO.C,U5*%
X168800000Y-81590000D02*
X166350000Y-81590000D01*
X167000000Y-84810000D02*
X168800000Y-84810000D01*
%TO.C,U4*%
X168800000Y-76340000D02*
X166350000Y-76340000D01*
X167000000Y-79560000D02*
X168800000Y-79560000D01*
%TO.C,U2*%
X118462800Y-93102600D02*
X111602800Y-93102600D01*
X111602800Y-93102600D02*
X111602800Y-78042600D01*
X111602800Y-78042600D02*
X118462800Y-78042600D01*
X130362800Y-93102600D02*
X131322800Y-93102600D01*
X131322800Y-93102600D02*
X131322800Y-91472600D01*
X131322800Y-79672600D02*
X131322800Y-78042600D01*
X131322800Y-78042600D02*
X130362800Y-78042600D01*
%TO.C,R2*%
X171290000Y-77763748D02*
X171290000Y-78286252D01*
X172710000Y-77763748D02*
X172710000Y-78286252D01*
%TO.C,R1*%
X171290000Y-82988748D02*
X171290000Y-83511252D01*
X172710000Y-82988748D02*
X172710000Y-83511252D01*
%TO.C,D1*%
X137802500Y-77485000D02*
X140087500Y-77485000D01*
X137802500Y-76015000D02*
X137802500Y-77485000D01*
X140087500Y-76015000D02*
X137802500Y-76015000D01*
%TO.C,R3*%
X135546267Y-76240000D02*
X135203733Y-76240000D01*
X135546267Y-77260000D02*
X135203733Y-77260000D01*
%TO.C,U3*%
D11*
X155988095Y-81852380D02*
X155988095Y-82661904D01*
X156035714Y-82757142D01*
X156083333Y-82804761D01*
X156178571Y-82852380D01*
X156369047Y-82852380D01*
X156464285Y-82804761D01*
X156511904Y-82757142D01*
X156559523Y-82661904D01*
X156559523Y-81852380D01*
X156940476Y-81852380D02*
X157559523Y-81852380D01*
X157226190Y-82233333D01*
X157369047Y-82233333D01*
X157464285Y-82280952D01*
X157511904Y-82328571D01*
X157559523Y-82423809D01*
X157559523Y-82661904D01*
X157511904Y-82757142D01*
X157464285Y-82804761D01*
X157369047Y-82852380D01*
X157083333Y-82852380D01*
X156988095Y-82804761D01*
X156940476Y-82757142D01*
%TO.C,EFM8_Prog1*%
X143238095Y-90428571D02*
X143571428Y-90428571D01*
X143714285Y-90952380D02*
X143238095Y-90952380D01*
X143238095Y-89952380D01*
X143714285Y-89952380D01*
X144476190Y-90428571D02*
X144142857Y-90428571D01*
X144142857Y-90952380D02*
X144142857Y-89952380D01*
X144619047Y-89952380D01*
X145000000Y-90952380D02*
X145000000Y-89952380D01*
X145333333Y-90666666D01*
X145666666Y-89952380D01*
X145666666Y-90952380D01*
X146285714Y-90380952D02*
X146190476Y-90333333D01*
X146142857Y-90285714D01*
X146095238Y-90190476D01*
X146095238Y-90142857D01*
X146142857Y-90047619D01*
X146190476Y-90000000D01*
X146285714Y-89952380D01*
X146476190Y-89952380D01*
X146571428Y-90000000D01*
X146619047Y-90047619D01*
X146666666Y-90142857D01*
X146666666Y-90190476D01*
X146619047Y-90285714D01*
X146571428Y-90333333D01*
X146476190Y-90380952D01*
X146285714Y-90380952D01*
X146190476Y-90428571D01*
X146142857Y-90476190D01*
X146095238Y-90571428D01*
X146095238Y-90761904D01*
X146142857Y-90857142D01*
X146190476Y-90904761D01*
X146285714Y-90952380D01*
X146476190Y-90952380D01*
X146571428Y-90904761D01*
X146619047Y-90857142D01*
X146666666Y-90761904D01*
X146666666Y-90571428D01*
X146619047Y-90476190D01*
X146571428Y-90428571D01*
X146476190Y-90380952D01*
X146857142Y-91047619D02*
X147619047Y-91047619D01*
X147857142Y-90952380D02*
X147857142Y-89952380D01*
X148238095Y-89952380D01*
X148333333Y-90000000D01*
X148380952Y-90047619D01*
X148428571Y-90142857D01*
X148428571Y-90285714D01*
X148380952Y-90380952D01*
X148333333Y-90428571D01*
X148238095Y-90476190D01*
X147857142Y-90476190D01*
X148857142Y-90952380D02*
X148857142Y-90285714D01*
X148857142Y-90476190D02*
X148904761Y-90380952D01*
X148952380Y-90333333D01*
X149047619Y-90285714D01*
X149142857Y-90285714D01*
X149619047Y-90952380D02*
X149523809Y-90904761D01*
X149476190Y-90857142D01*
X149428571Y-90761904D01*
X149428571Y-90476190D01*
X149476190Y-90380952D01*
X149523809Y-90333333D01*
X149619047Y-90285714D01*
X149761904Y-90285714D01*
X149857142Y-90333333D01*
X149904761Y-90380952D01*
X149952380Y-90476190D01*
X149952380Y-90761904D01*
X149904761Y-90857142D01*
X149857142Y-90904761D01*
X149761904Y-90952380D01*
X149619047Y-90952380D01*
X150809523Y-90285714D02*
X150809523Y-91095238D01*
X150761904Y-91190476D01*
X150714285Y-91238095D01*
X150619047Y-91285714D01*
X150476190Y-91285714D01*
X150380952Y-91238095D01*
X150809523Y-90904761D02*
X150714285Y-90952380D01*
X150523809Y-90952380D01*
X150428571Y-90904761D01*
X150380952Y-90857142D01*
X150333333Y-90761904D01*
X150333333Y-90476190D01*
X150380952Y-90380952D01*
X150428571Y-90333333D01*
X150523809Y-90285714D01*
X150714285Y-90285714D01*
X150809523Y-90333333D01*
X151809523Y-90952380D02*
X151238095Y-90952380D01*
X151523809Y-90952380D02*
X151523809Y-89952380D01*
X151428571Y-90095238D01*
X151333333Y-90190476D01*
X151238095Y-90238095D01*
%TO.C,U6*%
X147702380Y-84936904D02*
X148511904Y-84936904D01*
X148607142Y-84889285D01*
X148654761Y-84841666D01*
X148702380Y-84746428D01*
X148702380Y-84555952D01*
X148654761Y-84460714D01*
X148607142Y-84413095D01*
X148511904Y-84365476D01*
X147702380Y-84365476D01*
X147702380Y-83460714D02*
X147702380Y-83651190D01*
X147750000Y-83746428D01*
X147797619Y-83794047D01*
X147940476Y-83889285D01*
X148130952Y-83936904D01*
X148511904Y-83936904D01*
X148607142Y-83889285D01*
X148654761Y-83841666D01*
X148702380Y-83746428D01*
X148702380Y-83555952D01*
X148654761Y-83460714D01*
X148607142Y-83413095D01*
X148511904Y-83365476D01*
X148273809Y-83365476D01*
X148178571Y-83413095D01*
X148130952Y-83460714D01*
X148083333Y-83555952D01*
X148083333Y-83746428D01*
X148130952Y-83841666D01*
X148178571Y-83889285D01*
X148273809Y-83936904D01*
%TO.C,C6*%
X141833333Y-95357142D02*
X141785714Y-95404761D01*
X141642857Y-95452380D01*
X141547619Y-95452380D01*
X141404761Y-95404761D01*
X141309523Y-95309523D01*
X141261904Y-95214285D01*
X141214285Y-95023809D01*
X141214285Y-94880952D01*
X141261904Y-94690476D01*
X141309523Y-94595238D01*
X141404761Y-94500000D01*
X141547619Y-94452380D01*
X141642857Y-94452380D01*
X141785714Y-94500000D01*
X141833333Y-94547619D01*
X142690476Y-94452380D02*
X142500000Y-94452380D01*
X142404761Y-94500000D01*
X142357142Y-94547619D01*
X142261904Y-94690476D01*
X142214285Y-94880952D01*
X142214285Y-95261904D01*
X142261904Y-95357142D01*
X142309523Y-95404761D01*
X142404761Y-95452380D01*
X142595238Y-95452380D01*
X142690476Y-95404761D01*
X142738095Y-95357142D01*
X142785714Y-95261904D01*
X142785714Y-95023809D01*
X142738095Y-94928571D01*
X142690476Y-94880952D01*
X142595238Y-94833333D01*
X142404761Y-94833333D01*
X142309523Y-94880952D01*
X142261904Y-94928571D01*
X142214285Y-95023809D01*
%TO.C,C5*%
X139583333Y-95357142D02*
X139535714Y-95404761D01*
X139392857Y-95452380D01*
X139297619Y-95452380D01*
X139154761Y-95404761D01*
X139059523Y-95309523D01*
X139011904Y-95214285D01*
X138964285Y-95023809D01*
X138964285Y-94880952D01*
X139011904Y-94690476D01*
X139059523Y-94595238D01*
X139154761Y-94500000D01*
X139297619Y-94452380D01*
X139392857Y-94452380D01*
X139535714Y-94500000D01*
X139583333Y-94547619D01*
X140488095Y-94452380D02*
X140011904Y-94452380D01*
X139964285Y-94928571D01*
X140011904Y-94880952D01*
X140107142Y-94833333D01*
X140345238Y-94833333D01*
X140440476Y-94880952D01*
X140488095Y-94928571D01*
X140535714Y-95023809D01*
X140535714Y-95261904D01*
X140488095Y-95357142D01*
X140440476Y-95404761D01*
X140345238Y-95452380D01*
X140107142Y-95452380D01*
X140011904Y-95404761D01*
X139964285Y-95357142D01*
%TO.C,R5*%
X150702380Y-84166666D02*
X150226190Y-84500000D01*
X150702380Y-84738095D02*
X149702380Y-84738095D01*
X149702380Y-84357142D01*
X149750000Y-84261904D01*
X149797619Y-84214285D01*
X149892857Y-84166666D01*
X150035714Y-84166666D01*
X150130952Y-84214285D01*
X150178571Y-84261904D01*
X150226190Y-84357142D01*
X150226190Y-84738095D01*
X149702380Y-83261904D02*
X149702380Y-83738095D01*
X150178571Y-83785714D01*
X150130952Y-83738095D01*
X150083333Y-83642857D01*
X150083333Y-83404761D01*
X150130952Y-83309523D01*
X150178571Y-83261904D01*
X150273809Y-83214285D01*
X150511904Y-83214285D01*
X150607142Y-83261904D01*
X150654761Y-83309523D01*
X150702380Y-83404761D01*
X150702380Y-83642857D01*
X150654761Y-83738095D01*
X150607142Y-83785714D01*
%TO.C,R4*%
X150702380Y-87666666D02*
X150226190Y-88000000D01*
X150702380Y-88238095D02*
X149702380Y-88238095D01*
X149702380Y-87857142D01*
X149750000Y-87761904D01*
X149797619Y-87714285D01*
X149892857Y-87666666D01*
X150035714Y-87666666D01*
X150130952Y-87714285D01*
X150178571Y-87761904D01*
X150226190Y-87857142D01*
X150226190Y-88238095D01*
X150035714Y-86809523D02*
X150702380Y-86809523D01*
X149654761Y-87047619D02*
X150369047Y-87285714D01*
X150369047Y-86666666D01*
%TO.C,L1*%
X163333333Y-87202380D02*
X162857142Y-87202380D01*
X162857142Y-86202380D01*
X164190476Y-87202380D02*
X163619047Y-87202380D01*
X163904761Y-87202380D02*
X163904761Y-86202380D01*
X163809523Y-86345238D01*
X163714285Y-86440476D01*
X163619047Y-86488095D01*
%TO.C,J1*%
X171916666Y-92202380D02*
X171916666Y-92916666D01*
X171869047Y-93059523D01*
X171773809Y-93154761D01*
X171630952Y-93202380D01*
X171535714Y-93202380D01*
X172916666Y-93202380D02*
X172345238Y-93202380D01*
X172630952Y-93202380D02*
X172630952Y-92202380D01*
X172535714Y-92345238D01*
X172440476Y-92440476D01*
X172345238Y-92488095D01*
%TO.C,C3*%
X162833333Y-95607142D02*
X162785714Y-95654761D01*
X162642857Y-95702380D01*
X162547619Y-95702380D01*
X162404761Y-95654761D01*
X162309523Y-95559523D01*
X162261904Y-95464285D01*
X162214285Y-95273809D01*
X162214285Y-95130952D01*
X162261904Y-94940476D01*
X162309523Y-94845238D01*
X162404761Y-94750000D01*
X162547619Y-94702380D01*
X162642857Y-94702380D01*
X162785714Y-94750000D01*
X162833333Y-94797619D01*
X163166666Y-94702380D02*
X163785714Y-94702380D01*
X163452380Y-95083333D01*
X163595238Y-95083333D01*
X163690476Y-95130952D01*
X163738095Y-95178571D01*
X163785714Y-95273809D01*
X163785714Y-95511904D01*
X163738095Y-95607142D01*
X163690476Y-95654761D01*
X163595238Y-95702380D01*
X163309523Y-95702380D01*
X163214285Y-95654761D01*
X163166666Y-95607142D01*
%TO.C,C2*%
X153607142Y-90416666D02*
X153654761Y-90464285D01*
X153702380Y-90607142D01*
X153702380Y-90702380D01*
X153654761Y-90845238D01*
X153559523Y-90940476D01*
X153464285Y-90988095D01*
X153273809Y-91035714D01*
X153130952Y-91035714D01*
X152940476Y-90988095D01*
X152845238Y-90940476D01*
X152750000Y-90845238D01*
X152702380Y-90702380D01*
X152702380Y-90607142D01*
X152750000Y-90464285D01*
X152797619Y-90416666D01*
X152797619Y-90035714D02*
X152750000Y-89988095D01*
X152702380Y-89892857D01*
X152702380Y-89654761D01*
X152750000Y-89559523D01*
X152797619Y-89511904D01*
X152892857Y-89464285D01*
X152988095Y-89464285D01*
X153130952Y-89511904D01*
X153702380Y-90083333D01*
X153702380Y-89464285D01*
%TO.C,Battery1*%
X154452380Y-91178571D02*
X154595238Y-91226190D01*
X154642857Y-91273809D01*
X154690476Y-91369047D01*
X154690476Y-91511904D01*
X154642857Y-91607142D01*
X154595238Y-91654761D01*
X154500000Y-91702380D01*
X154119047Y-91702380D01*
X154119047Y-90702380D01*
X154452380Y-90702380D01*
X154547619Y-90750000D01*
X154595238Y-90797619D01*
X154642857Y-90892857D01*
X154642857Y-90988095D01*
X154595238Y-91083333D01*
X154547619Y-91130952D01*
X154452380Y-91178571D01*
X154119047Y-91178571D01*
X155547619Y-91702380D02*
X155547619Y-91178571D01*
X155500000Y-91083333D01*
X155404761Y-91035714D01*
X155214285Y-91035714D01*
X155119047Y-91083333D01*
X155547619Y-91654761D02*
X155452380Y-91702380D01*
X155214285Y-91702380D01*
X155119047Y-91654761D01*
X155071428Y-91559523D01*
X155071428Y-91464285D01*
X155119047Y-91369047D01*
X155214285Y-91321428D01*
X155452380Y-91321428D01*
X155547619Y-91273809D01*
X155880952Y-91035714D02*
X156261904Y-91035714D01*
X156023809Y-90702380D02*
X156023809Y-91559523D01*
X156071428Y-91654761D01*
X156166666Y-91702380D01*
X156261904Y-91702380D01*
X156452380Y-91035714D02*
X156833333Y-91035714D01*
X156595238Y-90702380D02*
X156595238Y-91559523D01*
X156642857Y-91654761D01*
X156738095Y-91702380D01*
X156833333Y-91702380D01*
X157547619Y-91654761D02*
X157452380Y-91702380D01*
X157261904Y-91702380D01*
X157166666Y-91654761D01*
X157119047Y-91559523D01*
X157119047Y-91178571D01*
X157166666Y-91083333D01*
X157261904Y-91035714D01*
X157452380Y-91035714D01*
X157547619Y-91083333D01*
X157595238Y-91178571D01*
X157595238Y-91273809D01*
X157119047Y-91369047D01*
X158023809Y-91702380D02*
X158023809Y-91035714D01*
X158023809Y-91226190D02*
X158071428Y-91130952D01*
X158119047Y-91083333D01*
X158214285Y-91035714D01*
X158309523Y-91035714D01*
X158547619Y-91035714D02*
X158785714Y-91702380D01*
X159023809Y-91035714D02*
X158785714Y-91702380D01*
X158690476Y-91940476D01*
X158642857Y-91988095D01*
X158547619Y-92035714D01*
X159928571Y-91702380D02*
X159357142Y-91702380D01*
X159642857Y-91702380D02*
X159642857Y-90702380D01*
X159547619Y-90845238D01*
X159452380Y-90940476D01*
X159357142Y-90988095D01*
%TO.C,C4*%
X158107142Y-89291666D02*
X158154761Y-89339285D01*
X158202380Y-89482142D01*
X158202380Y-89577380D01*
X158154761Y-89720238D01*
X158059523Y-89815476D01*
X157964285Y-89863095D01*
X157773809Y-89910714D01*
X157630952Y-89910714D01*
X157440476Y-89863095D01*
X157345238Y-89815476D01*
X157250000Y-89720238D01*
X157202380Y-89577380D01*
X157202380Y-89482142D01*
X157250000Y-89339285D01*
X157297619Y-89291666D01*
X157535714Y-88434523D02*
X158202380Y-88434523D01*
X157154761Y-88672619D02*
X157869047Y-88910714D01*
X157869047Y-88291666D01*
%TO.C,C1*%
X153607142Y-88166666D02*
X153654761Y-88214285D01*
X153702380Y-88357142D01*
X153702380Y-88452380D01*
X153654761Y-88595238D01*
X153559523Y-88690476D01*
X153464285Y-88738095D01*
X153273809Y-88785714D01*
X153130952Y-88785714D01*
X152940476Y-88738095D01*
X152845238Y-88690476D01*
X152750000Y-88595238D01*
X152702380Y-88452380D01*
X152702380Y-88357142D01*
X152750000Y-88214285D01*
X152797619Y-88166666D01*
X153702380Y-87214285D02*
X153702380Y-87785714D01*
X153702380Y-87500000D02*
X152702380Y-87500000D01*
X152845238Y-87595238D01*
X152940476Y-87690476D01*
X152988095Y-87785714D01*
%TO.C,U5*%
X167238095Y-85452380D02*
X167238095Y-86261904D01*
X167285714Y-86357142D01*
X167333333Y-86404761D01*
X167428571Y-86452380D01*
X167619047Y-86452380D01*
X167714285Y-86404761D01*
X167761904Y-86357142D01*
X167809523Y-86261904D01*
X167809523Y-85452380D01*
X168761904Y-85452380D02*
X168285714Y-85452380D01*
X168238095Y-85928571D01*
X168285714Y-85880952D01*
X168380952Y-85833333D01*
X168619047Y-85833333D01*
X168714285Y-85880952D01*
X168761904Y-85928571D01*
X168809523Y-86023809D01*
X168809523Y-86261904D01*
X168761904Y-86357142D01*
X168714285Y-86404761D01*
X168619047Y-86452380D01*
X168380952Y-86452380D01*
X168285714Y-86404761D01*
X168238095Y-86357142D01*
%TO.C,U4*%
X167238095Y-79952380D02*
X167238095Y-80761904D01*
X167285714Y-80857142D01*
X167333333Y-80904761D01*
X167428571Y-80952380D01*
X167619047Y-80952380D01*
X167714285Y-80904761D01*
X167761904Y-80857142D01*
X167809523Y-80761904D01*
X167809523Y-79952380D01*
X168714285Y-80285714D02*
X168714285Y-80952380D01*
X168476190Y-79904761D02*
X168238095Y-80619047D01*
X168857142Y-80619047D01*
%TO.C,U2*%
X132952380Y-86511904D02*
X133761904Y-86511904D01*
X133857142Y-86464285D01*
X133904761Y-86416666D01*
X133952380Y-86321428D01*
X133952380Y-86130952D01*
X133904761Y-86035714D01*
X133857142Y-85988095D01*
X133761904Y-85940476D01*
X132952380Y-85940476D01*
X133047619Y-85511904D02*
X133000000Y-85464285D01*
X132952380Y-85369047D01*
X132952380Y-85130952D01*
X133000000Y-85035714D01*
X133047619Y-84988095D01*
X133142857Y-84940476D01*
X133238095Y-84940476D01*
X133380952Y-84988095D01*
X133952380Y-85559523D01*
X133952380Y-84940476D01*
%TO.C,R2*%
X171833333Y-81202380D02*
X171500000Y-80726190D01*
X171261904Y-81202380D02*
X171261904Y-80202380D01*
X171642857Y-80202380D01*
X171738095Y-80250000D01*
X171785714Y-80297619D01*
X171833333Y-80392857D01*
X171833333Y-80535714D01*
X171785714Y-80630952D01*
X171738095Y-80678571D01*
X171642857Y-80726190D01*
X171261904Y-80726190D01*
X172214285Y-80297619D02*
X172261904Y-80250000D01*
X172357142Y-80202380D01*
X172595238Y-80202380D01*
X172690476Y-80250000D01*
X172738095Y-80297619D01*
X172785714Y-80392857D01*
X172785714Y-80488095D01*
X172738095Y-80630952D01*
X172166666Y-81202380D01*
X172785714Y-81202380D01*
%TO.C,R1*%
X171833333Y-86452380D02*
X171500000Y-85976190D01*
X171261904Y-86452380D02*
X171261904Y-85452380D01*
X171642857Y-85452380D01*
X171738095Y-85500000D01*
X171785714Y-85547619D01*
X171833333Y-85642857D01*
X171833333Y-85785714D01*
X171785714Y-85880952D01*
X171738095Y-85928571D01*
X171642857Y-85976190D01*
X171261904Y-85976190D01*
X172785714Y-86452380D02*
X172214285Y-86452380D01*
X172500000Y-86452380D02*
X172500000Y-85452380D01*
X172404761Y-85595238D01*
X172309523Y-85690476D01*
X172214285Y-85738095D01*
%TO.C,D1*%
X138511904Y-78702380D02*
X138511904Y-77702380D01*
X138750000Y-77702380D01*
X138892857Y-77750000D01*
X138988095Y-77845238D01*
X139035714Y-77940476D01*
X139083333Y-78130952D01*
X139083333Y-78273809D01*
X139035714Y-78464285D01*
X138988095Y-78559523D01*
X138892857Y-78654761D01*
X138750000Y-78702380D01*
X138511904Y-78702380D01*
X140035714Y-78702380D02*
X139464285Y-78702380D01*
X139750000Y-78702380D02*
X139750000Y-77702380D01*
X139654761Y-77845238D01*
X139559523Y-77940476D01*
X139464285Y-77988095D01*
%TO.C,R3*%
X135208333Y-78632380D02*
X134875000Y-78156190D01*
X134636904Y-78632380D02*
X134636904Y-77632380D01*
X135017857Y-77632380D01*
X135113095Y-77680000D01*
X135160714Y-77727619D01*
X135208333Y-77822857D01*
X135208333Y-77965714D01*
X135160714Y-78060952D01*
X135113095Y-78108571D01*
X135017857Y-78156190D01*
X134636904Y-78156190D01*
X135541666Y-77632380D02*
X136160714Y-77632380D01*
X135827380Y-78013333D01*
X135970238Y-78013333D01*
X136065476Y-78060952D01*
X136113095Y-78108571D01*
X136160714Y-78203809D01*
X136160714Y-78441904D01*
X136113095Y-78537142D01*
X136065476Y-78584761D01*
X135970238Y-78632380D01*
X135684523Y-78632380D01*
X135589285Y-78584761D01*
X135541666Y-78537142D01*
%TD*%
M02*
