%TF.GenerationSoftware,KiCad,Pcbnew,(5.1.6)-1*%
%TF.CreationDate,2021-08-02T23:36:40+08:00*%
%TF.ProjectId,wireless_measurement_ard,77697265-6c65-4737-935f-6d6561737572,rev?*%
%TF.SameCoordinates,Original*%
%TF.FileFunction,Copper,L1,Top*%
%TF.FilePolarity,Positive*%
%FSLAX46Y46*%
G04 Gerber Fmt 4.6, Leading zero omitted, Abs format (unit mm)*
G04 Created by KiCad (PCBNEW (5.1.6)-1) date 2021-08-02 23:36:40*
%MOMM*%
%LPD*%
G01*
G04 APERTURE LIST*
%TA.AperFunction,SMDPad,CuDef*%
%ADD10R,1.250000X2.500000*%
%TD*%
%TA.AperFunction,SMDPad,CuDef*%
%ADD11R,1.400000X0.300000*%
%TD*%
%TA.AperFunction,ComponentPad*%
%ADD12O,1.700000X1.700000*%
%TD*%
%TA.AperFunction,ComponentPad*%
%ADD13R,1.700000X1.700000*%
%TD*%
%TA.AperFunction,SMDPad,CuDef*%
%ADD14R,3.600000X1.500000*%
%TD*%
%TA.AperFunction,SMDPad,CuDef*%
%ADD15R,1.560000X0.650000*%
%TD*%
%TA.AperFunction,SMDPad,CuDef*%
%ADD16R,2.000000X0.800000*%
%TD*%
%TA.AperFunction,SMDPad,CuDef*%
%ADD17R,0.800000X2.000000*%
%TD*%
%TA.AperFunction,ComponentPad*%
%ADD18C,3.500000*%
%TD*%
%TA.AperFunction,ViaPad*%
%ADD19C,0.800000*%
%TD*%
%TA.AperFunction,Conductor*%
%ADD20C,0.250000*%
%TD*%
%TA.AperFunction,Conductor*%
%ADD21C,0.500000*%
%TD*%
%TA.AperFunction,Conductor*%
%ADD22C,0.254000*%
%TD*%
G04 APERTURE END LIST*
D10*
%TO.P,SW1,3*%
%TO.N,Net-(SW1-Pad3)*%
X163750000Y-91500000D03*
%TO.P,SW1,2*%
%TO.N,VIN*%
X161250000Y-91500000D03*
%TO.P,SW1,1*%
%TO.N,BATT*%
X158750000Y-91500000D03*
%TD*%
D11*
%TO.P,U3,10*%
%TO.N,VIN*%
X158950000Y-84000000D03*
%TO.P,U3,9*%
X158950000Y-84500000D03*
%TO.P,U3,8*%
%TO.N,GND*%
X158950000Y-85000000D03*
%TO.P,U3,7*%
X158950000Y-85500000D03*
%TO.P,U3,6*%
%TO.N,Net-(L1-Pad2)*%
X158950000Y-86000000D03*
%TO.P,U3,5*%
%TO.N,+3V3*%
X154550000Y-86000000D03*
%TO.P,U3,4*%
%TO.N,VFB*%
X154550000Y-85500000D03*
%TO.P,U3,3*%
%TO.N,PGT*%
X154550000Y-85000000D03*
%TO.P,U3,2*%
%TO.N,LBO*%
X154550000Y-84500000D03*
%TO.P,U3,1*%
%TO.N,VIN*%
X154550000Y-84000000D03*
%TD*%
D12*
%TO.P,EFM8_Prog1,3*%
%TO.N,GND*%
X146080000Y-93500000D03*
%TO.P,EFM8_Prog1,2*%
%TO.N,C2D*%
X143540000Y-93500000D03*
D13*
%TO.P,EFM8_Prog1,1*%
%TO.N,C2CK*%
X141000000Y-93500000D03*
%TD*%
%TO.P,U6,32*%
%TO.N,Net-(U6-Pad32)*%
%TA.AperFunction,SMDPad,CuDef*%
G36*
G01*
X138700000Y-87225000D02*
X137450000Y-87225000D01*
G75*
G02*
X137325000Y-87100000I0J125000D01*
G01*
X137325000Y-86850000D01*
G75*
G02*
X137450000Y-86725000I125000J0D01*
G01*
X138700000Y-86725000D01*
G75*
G02*
X138825000Y-86850000I0J-125000D01*
G01*
X138825000Y-87100000D01*
G75*
G02*
X138700000Y-87225000I-125000J0D01*
G01*
G37*
%TD.AperFunction*%
%TO.P,U6,31*%
%TO.N,Net-(U6-Pad31)*%
%TA.AperFunction,SMDPad,CuDef*%
G36*
G01*
X138700000Y-86425000D02*
X137450000Y-86425000D01*
G75*
G02*
X137325000Y-86300000I0J125000D01*
G01*
X137325000Y-86050000D01*
G75*
G02*
X137450000Y-85925000I125000J0D01*
G01*
X138700000Y-85925000D01*
G75*
G02*
X138825000Y-86050000I0J-125000D01*
G01*
X138825000Y-86300000D01*
G75*
G02*
X138700000Y-86425000I-125000J0D01*
G01*
G37*
%TD.AperFunction*%
%TO.P,U6,30*%
%TO.N,Net-(U6-Pad30)*%
%TA.AperFunction,SMDPad,CuDef*%
G36*
G01*
X138700000Y-85625000D02*
X137450000Y-85625000D01*
G75*
G02*
X137325000Y-85500000I0J125000D01*
G01*
X137325000Y-85250000D01*
G75*
G02*
X137450000Y-85125000I125000J0D01*
G01*
X138700000Y-85125000D01*
G75*
G02*
X138825000Y-85250000I0J-125000D01*
G01*
X138825000Y-85500000D01*
G75*
G02*
X138700000Y-85625000I-125000J0D01*
G01*
G37*
%TD.AperFunction*%
%TO.P,U6,29*%
%TO.N,ARD_TX*%
%TA.AperFunction,SMDPad,CuDef*%
G36*
G01*
X138700000Y-84825000D02*
X137450000Y-84825000D01*
G75*
G02*
X137325000Y-84700000I0J125000D01*
G01*
X137325000Y-84450000D01*
G75*
G02*
X137450000Y-84325000I125000J0D01*
G01*
X138700000Y-84325000D01*
G75*
G02*
X138825000Y-84450000I0J-125000D01*
G01*
X138825000Y-84700000D01*
G75*
G02*
X138700000Y-84825000I-125000J0D01*
G01*
G37*
%TD.AperFunction*%
%TO.P,U6,28*%
%TO.N,ARD_RX*%
%TA.AperFunction,SMDPad,CuDef*%
G36*
G01*
X138700000Y-84025000D02*
X137450000Y-84025000D01*
G75*
G02*
X137325000Y-83900000I0J125000D01*
G01*
X137325000Y-83650000D01*
G75*
G02*
X137450000Y-83525000I125000J0D01*
G01*
X138700000Y-83525000D01*
G75*
G02*
X138825000Y-83650000I0J-125000D01*
G01*
X138825000Y-83900000D01*
G75*
G02*
X138700000Y-84025000I-125000J0D01*
G01*
G37*
%TD.AperFunction*%
%TO.P,U6,27*%
%TO.N,Net-(U6-Pad27)*%
%TA.AperFunction,SMDPad,CuDef*%
G36*
G01*
X138700000Y-83225000D02*
X137450000Y-83225000D01*
G75*
G02*
X137325000Y-83100000I0J125000D01*
G01*
X137325000Y-82850000D01*
G75*
G02*
X137450000Y-82725000I125000J0D01*
G01*
X138700000Y-82725000D01*
G75*
G02*
X138825000Y-82850000I0J-125000D01*
G01*
X138825000Y-83100000D01*
G75*
G02*
X138700000Y-83225000I-125000J0D01*
G01*
G37*
%TD.AperFunction*%
%TO.P,U6,26*%
%TO.N,Net-(U6-Pad26)*%
%TA.AperFunction,SMDPad,CuDef*%
G36*
G01*
X138700000Y-82425000D02*
X137450000Y-82425000D01*
G75*
G02*
X137325000Y-82300000I0J125000D01*
G01*
X137325000Y-82050000D01*
G75*
G02*
X137450000Y-81925000I125000J0D01*
G01*
X138700000Y-81925000D01*
G75*
G02*
X138825000Y-82050000I0J-125000D01*
G01*
X138825000Y-82300000D01*
G75*
G02*
X138700000Y-82425000I-125000J0D01*
G01*
G37*
%TD.AperFunction*%
%TO.P,U6,25*%
%TO.N,Net-(D1-Pad2)*%
%TA.AperFunction,SMDPad,CuDef*%
G36*
G01*
X138700000Y-81625000D02*
X137450000Y-81625000D01*
G75*
G02*
X137325000Y-81500000I0J125000D01*
G01*
X137325000Y-81250000D01*
G75*
G02*
X137450000Y-81125000I125000J0D01*
G01*
X138700000Y-81125000D01*
G75*
G02*
X138825000Y-81250000I0J-125000D01*
G01*
X138825000Y-81500000D01*
G75*
G02*
X138700000Y-81625000I-125000J0D01*
G01*
G37*
%TD.AperFunction*%
%TO.P,U6,24*%
%TO.N,Net-(U6-Pad24)*%
%TA.AperFunction,SMDPad,CuDef*%
G36*
G01*
X139575000Y-80750000D02*
X139325000Y-80750000D01*
G75*
G02*
X139200000Y-80625000I0J125000D01*
G01*
X139200000Y-79375000D01*
G75*
G02*
X139325000Y-79250000I125000J0D01*
G01*
X139575000Y-79250000D01*
G75*
G02*
X139700000Y-79375000I0J-125000D01*
G01*
X139700000Y-80625000D01*
G75*
G02*
X139575000Y-80750000I-125000J0D01*
G01*
G37*
%TD.AperFunction*%
%TO.P,U6,23*%
%TO.N,PWRC*%
%TA.AperFunction,SMDPad,CuDef*%
G36*
G01*
X140375000Y-80750000D02*
X140125000Y-80750000D01*
G75*
G02*
X140000000Y-80625000I0J125000D01*
G01*
X140000000Y-79375000D01*
G75*
G02*
X140125000Y-79250000I125000J0D01*
G01*
X140375000Y-79250000D01*
G75*
G02*
X140500000Y-79375000I0J-125000D01*
G01*
X140500000Y-80625000D01*
G75*
G02*
X140375000Y-80750000I-125000J0D01*
G01*
G37*
%TD.AperFunction*%
%TO.P,U6,22*%
%TO.N,STATUS*%
%TA.AperFunction,SMDPad,CuDef*%
G36*
G01*
X141175000Y-80750000D02*
X140925000Y-80750000D01*
G75*
G02*
X140800000Y-80625000I0J125000D01*
G01*
X140800000Y-79375000D01*
G75*
G02*
X140925000Y-79250000I125000J0D01*
G01*
X141175000Y-79250000D01*
G75*
G02*
X141300000Y-79375000I0J-125000D01*
G01*
X141300000Y-80625000D01*
G75*
G02*
X141175000Y-80750000I-125000J0D01*
G01*
G37*
%TD.AperFunction*%
%TO.P,U6,21*%
%TO.N,A3*%
%TA.AperFunction,SMDPad,CuDef*%
G36*
G01*
X141975000Y-80750000D02*
X141725000Y-80750000D01*
G75*
G02*
X141600000Y-80625000I0J125000D01*
G01*
X141600000Y-79375000D01*
G75*
G02*
X141725000Y-79250000I125000J0D01*
G01*
X141975000Y-79250000D01*
G75*
G02*
X142100000Y-79375000I0J-125000D01*
G01*
X142100000Y-80625000D01*
G75*
G02*
X141975000Y-80750000I-125000J0D01*
G01*
G37*
%TD.AperFunction*%
%TO.P,U6,20*%
%TO.N,A2*%
%TA.AperFunction,SMDPad,CuDef*%
G36*
G01*
X142775000Y-80750000D02*
X142525000Y-80750000D01*
G75*
G02*
X142400000Y-80625000I0J125000D01*
G01*
X142400000Y-79375000D01*
G75*
G02*
X142525000Y-79250000I125000J0D01*
G01*
X142775000Y-79250000D01*
G75*
G02*
X142900000Y-79375000I0J-125000D01*
G01*
X142900000Y-80625000D01*
G75*
G02*
X142775000Y-80750000I-125000J0D01*
G01*
G37*
%TD.AperFunction*%
%TO.P,U6,19*%
%TO.N,A1*%
%TA.AperFunction,SMDPad,CuDef*%
G36*
G01*
X143575000Y-80750000D02*
X143325000Y-80750000D01*
G75*
G02*
X143200000Y-80625000I0J125000D01*
G01*
X143200000Y-79375000D01*
G75*
G02*
X143325000Y-79250000I125000J0D01*
G01*
X143575000Y-79250000D01*
G75*
G02*
X143700000Y-79375000I0J-125000D01*
G01*
X143700000Y-80625000D01*
G75*
G02*
X143575000Y-80750000I-125000J0D01*
G01*
G37*
%TD.AperFunction*%
%TO.P,U6,18*%
%TO.N,A0*%
%TA.AperFunction,SMDPad,CuDef*%
G36*
G01*
X144375000Y-80750000D02*
X144125000Y-80750000D01*
G75*
G02*
X144000000Y-80625000I0J125000D01*
G01*
X144000000Y-79375000D01*
G75*
G02*
X144125000Y-79250000I125000J0D01*
G01*
X144375000Y-79250000D01*
G75*
G02*
X144500000Y-79375000I0J-125000D01*
G01*
X144500000Y-80625000D01*
G75*
G02*
X144375000Y-80750000I-125000J0D01*
G01*
G37*
%TD.AperFunction*%
%TO.P,U6,17*%
%TO.N,Net-(U6-Pad17)*%
%TA.AperFunction,SMDPad,CuDef*%
G36*
G01*
X145175000Y-80750000D02*
X144925000Y-80750000D01*
G75*
G02*
X144800000Y-80625000I0J125000D01*
G01*
X144800000Y-79375000D01*
G75*
G02*
X144925000Y-79250000I125000J0D01*
G01*
X145175000Y-79250000D01*
G75*
G02*
X145300000Y-79375000I0J-125000D01*
G01*
X145300000Y-80625000D01*
G75*
G02*
X145175000Y-80750000I-125000J0D01*
G01*
G37*
%TD.AperFunction*%
%TO.P,U6,16*%
%TO.N,Net-(U6-Pad16)*%
%TA.AperFunction,SMDPad,CuDef*%
G36*
G01*
X147050000Y-81625000D02*
X145800000Y-81625000D01*
G75*
G02*
X145675000Y-81500000I0J125000D01*
G01*
X145675000Y-81250000D01*
G75*
G02*
X145800000Y-81125000I125000J0D01*
G01*
X147050000Y-81125000D01*
G75*
G02*
X147175000Y-81250000I0J-125000D01*
G01*
X147175000Y-81500000D01*
G75*
G02*
X147050000Y-81625000I-125000J0D01*
G01*
G37*
%TD.AperFunction*%
%TO.P,U6,15*%
%TO.N,Net-(U6-Pad15)*%
%TA.AperFunction,SMDPad,CuDef*%
G36*
G01*
X147050000Y-82425000D02*
X145800000Y-82425000D01*
G75*
G02*
X145675000Y-82300000I0J125000D01*
G01*
X145675000Y-82050000D01*
G75*
G02*
X145800000Y-81925000I125000J0D01*
G01*
X147050000Y-81925000D01*
G75*
G02*
X147175000Y-82050000I0J-125000D01*
G01*
X147175000Y-82300000D01*
G75*
G02*
X147050000Y-82425000I-125000J0D01*
G01*
G37*
%TD.AperFunction*%
%TO.P,U6,14*%
%TO.N,Net-(U6-Pad14)*%
%TA.AperFunction,SMDPad,CuDef*%
G36*
G01*
X147050000Y-83225000D02*
X145800000Y-83225000D01*
G75*
G02*
X145675000Y-83100000I0J125000D01*
G01*
X145675000Y-82850000D01*
G75*
G02*
X145800000Y-82725000I125000J0D01*
G01*
X147050000Y-82725000D01*
G75*
G02*
X147175000Y-82850000I0J-125000D01*
G01*
X147175000Y-83100000D01*
G75*
G02*
X147050000Y-83225000I-125000J0D01*
G01*
G37*
%TD.AperFunction*%
%TO.P,U6,13*%
%TO.N,Net-(U6-Pad13)*%
%TA.AperFunction,SMDPad,CuDef*%
G36*
G01*
X147050000Y-84025000D02*
X145800000Y-84025000D01*
G75*
G02*
X145675000Y-83900000I0J125000D01*
G01*
X145675000Y-83650000D01*
G75*
G02*
X145800000Y-83525000I125000J0D01*
G01*
X147050000Y-83525000D01*
G75*
G02*
X147175000Y-83650000I0J-125000D01*
G01*
X147175000Y-83900000D01*
G75*
G02*
X147050000Y-84025000I-125000J0D01*
G01*
G37*
%TD.AperFunction*%
%TO.P,U6,12*%
%TO.N,Net-(U6-Pad12)*%
%TA.AperFunction,SMDPad,CuDef*%
G36*
G01*
X147050000Y-84825000D02*
X145800000Y-84825000D01*
G75*
G02*
X145675000Y-84700000I0J125000D01*
G01*
X145675000Y-84450000D01*
G75*
G02*
X145800000Y-84325000I125000J0D01*
G01*
X147050000Y-84325000D01*
G75*
G02*
X147175000Y-84450000I0J-125000D01*
G01*
X147175000Y-84700000D01*
G75*
G02*
X147050000Y-84825000I-125000J0D01*
G01*
G37*
%TD.AperFunction*%
%TO.P,U6,11*%
%TO.N,Net-(U6-Pad11)*%
%TA.AperFunction,SMDPad,CuDef*%
G36*
G01*
X147050000Y-85625000D02*
X145800000Y-85625000D01*
G75*
G02*
X145675000Y-85500000I0J125000D01*
G01*
X145675000Y-85250000D01*
G75*
G02*
X145800000Y-85125000I125000J0D01*
G01*
X147050000Y-85125000D01*
G75*
G02*
X147175000Y-85250000I0J-125000D01*
G01*
X147175000Y-85500000D01*
G75*
G02*
X147050000Y-85625000I-125000J0D01*
G01*
G37*
%TD.AperFunction*%
%TO.P,U6,10*%
%TO.N,Net-(U6-Pad10)*%
%TA.AperFunction,SMDPad,CuDef*%
G36*
G01*
X147050000Y-86425000D02*
X145800000Y-86425000D01*
G75*
G02*
X145675000Y-86300000I0J125000D01*
G01*
X145675000Y-86050000D01*
G75*
G02*
X145800000Y-85925000I125000J0D01*
G01*
X147050000Y-85925000D01*
G75*
G02*
X147175000Y-86050000I0J-125000D01*
G01*
X147175000Y-86300000D01*
G75*
G02*
X147050000Y-86425000I-125000J0D01*
G01*
G37*
%TD.AperFunction*%
%TO.P,U6,9*%
%TO.N,Net-(U6-Pad9)*%
%TA.AperFunction,SMDPad,CuDef*%
G36*
G01*
X147050000Y-87225000D02*
X145800000Y-87225000D01*
G75*
G02*
X145675000Y-87100000I0J125000D01*
G01*
X145675000Y-86850000D01*
G75*
G02*
X145800000Y-86725000I125000J0D01*
G01*
X147050000Y-86725000D01*
G75*
G02*
X147175000Y-86850000I0J-125000D01*
G01*
X147175000Y-87100000D01*
G75*
G02*
X147050000Y-87225000I-125000J0D01*
G01*
G37*
%TD.AperFunction*%
%TO.P,U6,8*%
%TO.N,Net-(U6-Pad8)*%
%TA.AperFunction,SMDPad,CuDef*%
G36*
G01*
X145175000Y-89100000D02*
X144925000Y-89100000D01*
G75*
G02*
X144800000Y-88975000I0J125000D01*
G01*
X144800000Y-87725000D01*
G75*
G02*
X144925000Y-87600000I125000J0D01*
G01*
X145175000Y-87600000D01*
G75*
G02*
X145300000Y-87725000I0J-125000D01*
G01*
X145300000Y-88975000D01*
G75*
G02*
X145175000Y-89100000I-125000J0D01*
G01*
G37*
%TD.AperFunction*%
%TO.P,U6,7*%
%TO.N,Net-(U6-Pad7)*%
%TA.AperFunction,SMDPad,CuDef*%
G36*
G01*
X144375000Y-89100000D02*
X144125000Y-89100000D01*
G75*
G02*
X144000000Y-88975000I0J125000D01*
G01*
X144000000Y-87725000D01*
G75*
G02*
X144125000Y-87600000I125000J0D01*
G01*
X144375000Y-87600000D01*
G75*
G02*
X144500000Y-87725000I0J-125000D01*
G01*
X144500000Y-88975000D01*
G75*
G02*
X144375000Y-89100000I-125000J0D01*
G01*
G37*
%TD.AperFunction*%
%TO.P,U6,6*%
%TO.N,C2D*%
%TA.AperFunction,SMDPad,CuDef*%
G36*
G01*
X143575000Y-89100000D02*
X143325000Y-89100000D01*
G75*
G02*
X143200000Y-88975000I0J125000D01*
G01*
X143200000Y-87725000D01*
G75*
G02*
X143325000Y-87600000I125000J0D01*
G01*
X143575000Y-87600000D01*
G75*
G02*
X143700000Y-87725000I0J-125000D01*
G01*
X143700000Y-88975000D01*
G75*
G02*
X143575000Y-89100000I-125000J0D01*
G01*
G37*
%TD.AperFunction*%
%TO.P,U6,5*%
%TO.N,C2CK*%
%TA.AperFunction,SMDPad,CuDef*%
G36*
G01*
X142775000Y-89100000D02*
X142525000Y-89100000D01*
G75*
G02*
X142400000Y-88975000I0J125000D01*
G01*
X142400000Y-87725000D01*
G75*
G02*
X142525000Y-87600000I125000J0D01*
G01*
X142775000Y-87600000D01*
G75*
G02*
X142900000Y-87725000I0J-125000D01*
G01*
X142900000Y-88975000D01*
G75*
G02*
X142775000Y-89100000I-125000J0D01*
G01*
G37*
%TD.AperFunction*%
%TO.P,U6,4*%
%TO.N,+3V3*%
%TA.AperFunction,SMDPad,CuDef*%
G36*
G01*
X141975000Y-89100000D02*
X141725000Y-89100000D01*
G75*
G02*
X141600000Y-88975000I0J125000D01*
G01*
X141600000Y-87725000D01*
G75*
G02*
X141725000Y-87600000I125000J0D01*
G01*
X141975000Y-87600000D01*
G75*
G02*
X142100000Y-87725000I0J-125000D01*
G01*
X142100000Y-88975000D01*
G75*
G02*
X141975000Y-89100000I-125000J0D01*
G01*
G37*
%TD.AperFunction*%
%TO.P,U6,3*%
%TA.AperFunction,SMDPad,CuDef*%
G36*
G01*
X141175000Y-89100000D02*
X140925000Y-89100000D01*
G75*
G02*
X140800000Y-88975000I0J125000D01*
G01*
X140800000Y-87725000D01*
G75*
G02*
X140925000Y-87600000I125000J0D01*
G01*
X141175000Y-87600000D01*
G75*
G02*
X141300000Y-87725000I0J-125000D01*
G01*
X141300000Y-88975000D01*
G75*
G02*
X141175000Y-89100000I-125000J0D01*
G01*
G37*
%TD.AperFunction*%
%TO.P,U6,2*%
%TO.N,GND*%
%TA.AperFunction,SMDPad,CuDef*%
G36*
G01*
X140375000Y-89100000D02*
X140125000Y-89100000D01*
G75*
G02*
X140000000Y-88975000I0J125000D01*
G01*
X140000000Y-87725000D01*
G75*
G02*
X140125000Y-87600000I125000J0D01*
G01*
X140375000Y-87600000D01*
G75*
G02*
X140500000Y-87725000I0J-125000D01*
G01*
X140500000Y-88975000D01*
G75*
G02*
X140375000Y-89100000I-125000J0D01*
G01*
G37*
%TD.AperFunction*%
%TO.P,U6,1*%
%TO.N,Net-(U6-Pad1)*%
%TA.AperFunction,SMDPad,CuDef*%
G36*
G01*
X139575000Y-89100000D02*
X139325000Y-89100000D01*
G75*
G02*
X139200000Y-88975000I0J125000D01*
G01*
X139200000Y-87725000D01*
G75*
G02*
X139325000Y-87600000I125000J0D01*
G01*
X139575000Y-87600000D01*
G75*
G02*
X139700000Y-87725000I0J-125000D01*
G01*
X139700000Y-88975000D01*
G75*
G02*
X139575000Y-89100000I-125000J0D01*
G01*
G37*
%TD.AperFunction*%
%TD*%
%TO.P,C6,2*%
%TO.N,GND*%
%TA.AperFunction,SMDPad,CuDef*%
G36*
G01*
X137012500Y-93100000D02*
X137487500Y-93100000D01*
G75*
G02*
X137725000Y-93337500I0J-237500D01*
G01*
X137725000Y-93912500D01*
G75*
G02*
X137487500Y-94150000I-237500J0D01*
G01*
X137012500Y-94150000D01*
G75*
G02*
X136775000Y-93912500I0J237500D01*
G01*
X136775000Y-93337500D01*
G75*
G02*
X137012500Y-93100000I237500J0D01*
G01*
G37*
%TD.AperFunction*%
%TO.P,C6,1*%
%TO.N,+3V3*%
%TA.AperFunction,SMDPad,CuDef*%
G36*
G01*
X137012500Y-91350000D02*
X137487500Y-91350000D01*
G75*
G02*
X137725000Y-91587500I0J-237500D01*
G01*
X137725000Y-92162500D01*
G75*
G02*
X137487500Y-92400000I-237500J0D01*
G01*
X137012500Y-92400000D01*
G75*
G02*
X136775000Y-92162500I0J237500D01*
G01*
X136775000Y-91587500D01*
G75*
G02*
X137012500Y-91350000I237500J0D01*
G01*
G37*
%TD.AperFunction*%
%TD*%
%TO.P,C5,2*%
%TO.N,GND*%
%TA.AperFunction,SMDPad,CuDef*%
G36*
G01*
X135012500Y-93100000D02*
X135487500Y-93100000D01*
G75*
G02*
X135725000Y-93337500I0J-237500D01*
G01*
X135725000Y-93912500D01*
G75*
G02*
X135487500Y-94150000I-237500J0D01*
G01*
X135012500Y-94150000D01*
G75*
G02*
X134775000Y-93912500I0J237500D01*
G01*
X134775000Y-93337500D01*
G75*
G02*
X135012500Y-93100000I237500J0D01*
G01*
G37*
%TD.AperFunction*%
%TO.P,C5,1*%
%TO.N,+3V3*%
%TA.AperFunction,SMDPad,CuDef*%
G36*
G01*
X135012500Y-91350000D02*
X135487500Y-91350000D01*
G75*
G02*
X135725000Y-91587500I0J-237500D01*
G01*
X135725000Y-92162500D01*
G75*
G02*
X135487500Y-92400000I-237500J0D01*
G01*
X135012500Y-92400000D01*
G75*
G02*
X134775000Y-92162500I0J237500D01*
G01*
X134775000Y-91587500D01*
G75*
G02*
X135012500Y-91350000I237500J0D01*
G01*
G37*
%TD.AperFunction*%
%TD*%
%TO.P,R5,2*%
%TO.N,VFB*%
%TA.AperFunction,SMDPad,CuDef*%
G36*
G01*
X151512500Y-84100000D02*
X151987500Y-84100000D01*
G75*
G02*
X152225000Y-84337500I0J-237500D01*
G01*
X152225000Y-84912500D01*
G75*
G02*
X151987500Y-85150000I-237500J0D01*
G01*
X151512500Y-85150000D01*
G75*
G02*
X151275000Y-84912500I0J237500D01*
G01*
X151275000Y-84337500D01*
G75*
G02*
X151512500Y-84100000I237500J0D01*
G01*
G37*
%TD.AperFunction*%
%TO.P,R5,1*%
%TO.N,GND*%
%TA.AperFunction,SMDPad,CuDef*%
G36*
G01*
X151512500Y-82350000D02*
X151987500Y-82350000D01*
G75*
G02*
X152225000Y-82587500I0J-237500D01*
G01*
X152225000Y-83162500D01*
G75*
G02*
X151987500Y-83400000I-237500J0D01*
G01*
X151512500Y-83400000D01*
G75*
G02*
X151275000Y-83162500I0J237500D01*
G01*
X151275000Y-82587500D01*
G75*
G02*
X151512500Y-82350000I237500J0D01*
G01*
G37*
%TD.AperFunction*%
%TD*%
%TO.P,R4,2*%
%TO.N,+3V3*%
%TA.AperFunction,SMDPad,CuDef*%
G36*
G01*
X151512500Y-87975000D02*
X151987500Y-87975000D01*
G75*
G02*
X152225000Y-88212500I0J-237500D01*
G01*
X152225000Y-88787500D01*
G75*
G02*
X151987500Y-89025000I-237500J0D01*
G01*
X151512500Y-89025000D01*
G75*
G02*
X151275000Y-88787500I0J237500D01*
G01*
X151275000Y-88212500D01*
G75*
G02*
X151512500Y-87975000I237500J0D01*
G01*
G37*
%TD.AperFunction*%
%TO.P,R4,1*%
%TO.N,VFB*%
%TA.AperFunction,SMDPad,CuDef*%
G36*
G01*
X151512500Y-86225000D02*
X151987500Y-86225000D01*
G75*
G02*
X152225000Y-86462500I0J-237500D01*
G01*
X152225000Y-87037500D01*
G75*
G02*
X151987500Y-87275000I-237500J0D01*
G01*
X151512500Y-87275000D01*
G75*
G02*
X151275000Y-87037500I0J237500D01*
G01*
X151275000Y-86462500D01*
G75*
G02*
X151512500Y-86225000I237500J0D01*
G01*
G37*
%TD.AperFunction*%
%TD*%
D14*
%TO.P,L1,2*%
%TO.N,Net-(L1-Pad2)*%
X162750000Y-87300000D03*
%TO.P,L1,1*%
%TO.N,VIN*%
X162750000Y-84250000D03*
%TD*%
D12*
%TO.P,J1,8*%
%TO.N,GND*%
X175250000Y-94530000D03*
%TO.P,J1,7*%
%TO.N,A3*%
X175250000Y-91990000D03*
%TO.P,J1,6*%
%TO.N,GND*%
X175250000Y-89450000D03*
%TO.P,J1,5*%
%TO.N,A2*%
X175250000Y-86910000D03*
%TO.P,J1,4*%
%TO.N,C2_OUT*%
X175250000Y-84370000D03*
%TO.P,J1,3*%
%TO.N,C2_IN*%
X175250000Y-81830000D03*
%TO.P,J1,2*%
%TO.N,C1_OUT*%
X175250000Y-79290000D03*
D13*
%TO.P,J1,1*%
%TO.N,C1_IN*%
X175250000Y-76750000D03*
%TD*%
%TO.P,C3,2*%
%TO.N,GND*%
%TA.AperFunction,SMDPad,CuDef*%
G36*
G01*
X159775000Y-79762500D02*
X159775000Y-80237500D01*
G75*
G02*
X159537500Y-80475000I-237500J0D01*
G01*
X158962500Y-80475000D01*
G75*
G02*
X158725000Y-80237500I0J237500D01*
G01*
X158725000Y-79762500D01*
G75*
G02*
X158962500Y-79525000I237500J0D01*
G01*
X159537500Y-79525000D01*
G75*
G02*
X159775000Y-79762500I0J-237500D01*
G01*
G37*
%TD.AperFunction*%
%TO.P,C3,1*%
%TO.N,VIN*%
%TA.AperFunction,SMDPad,CuDef*%
G36*
G01*
X161525000Y-79762500D02*
X161525000Y-80237500D01*
G75*
G02*
X161287500Y-80475000I-237500J0D01*
G01*
X160712500Y-80475000D01*
G75*
G02*
X160475000Y-80237500I0J237500D01*
G01*
X160475000Y-79762500D01*
G75*
G02*
X160712500Y-79525000I237500J0D01*
G01*
X161287500Y-79525000D01*
G75*
G02*
X161525000Y-79762500I0J-237500D01*
G01*
G37*
%TD.AperFunction*%
%TD*%
%TO.P,C2,2*%
%TO.N,GND*%
%TA.AperFunction,SMDPad,CuDef*%
G36*
G01*
X155850000Y-90237500D02*
X155850000Y-89762500D01*
G75*
G02*
X156087500Y-89525000I237500J0D01*
G01*
X156662500Y-89525000D01*
G75*
G02*
X156900000Y-89762500I0J-237500D01*
G01*
X156900000Y-90237500D01*
G75*
G02*
X156662500Y-90475000I-237500J0D01*
G01*
X156087500Y-90475000D01*
G75*
G02*
X155850000Y-90237500I0J237500D01*
G01*
G37*
%TD.AperFunction*%
%TO.P,C2,1*%
%TO.N,+3V3*%
%TA.AperFunction,SMDPad,CuDef*%
G36*
G01*
X154100000Y-90237500D02*
X154100000Y-89762500D01*
G75*
G02*
X154337500Y-89525000I237500J0D01*
G01*
X154912500Y-89525000D01*
G75*
G02*
X155150000Y-89762500I0J-237500D01*
G01*
X155150000Y-90237500D01*
G75*
G02*
X154912500Y-90475000I-237500J0D01*
G01*
X154337500Y-90475000D01*
G75*
G02*
X154100000Y-90237500I0J237500D01*
G01*
G37*
%TD.AperFunction*%
%TD*%
D12*
%TO.P,Battery1,2*%
%TO.N,GND*%
X150250000Y-93500000D03*
D13*
%TO.P,Battery1,1*%
%TO.N,BATT*%
X152790000Y-93500000D03*
%TD*%
%TO.P,C4,2*%
%TO.N,GND*%
%TA.AperFunction,SMDPad,CuDef*%
G36*
G01*
X159775000Y-81512500D02*
X159775000Y-81987500D01*
G75*
G02*
X159537500Y-82225000I-237500J0D01*
G01*
X158962500Y-82225000D01*
G75*
G02*
X158725000Y-81987500I0J237500D01*
G01*
X158725000Y-81512500D01*
G75*
G02*
X158962500Y-81275000I237500J0D01*
G01*
X159537500Y-81275000D01*
G75*
G02*
X159775000Y-81512500I0J-237500D01*
G01*
G37*
%TD.AperFunction*%
%TO.P,C4,1*%
%TO.N,VIN*%
%TA.AperFunction,SMDPad,CuDef*%
G36*
G01*
X161525000Y-81512500D02*
X161525000Y-81987500D01*
G75*
G02*
X161287500Y-82225000I-237500J0D01*
G01*
X160712500Y-82225000D01*
G75*
G02*
X160475000Y-81987500I0J237500D01*
G01*
X160475000Y-81512500D01*
G75*
G02*
X160712500Y-81275000I237500J0D01*
G01*
X161287500Y-81275000D01*
G75*
G02*
X161525000Y-81512500I0J-237500D01*
G01*
G37*
%TD.AperFunction*%
%TD*%
%TO.P,C1,2*%
%TO.N,GND*%
%TA.AperFunction,SMDPad,CuDef*%
G36*
G01*
X155850000Y-88237500D02*
X155850000Y-87762500D01*
G75*
G02*
X156087500Y-87525000I237500J0D01*
G01*
X156662500Y-87525000D01*
G75*
G02*
X156900000Y-87762500I0J-237500D01*
G01*
X156900000Y-88237500D01*
G75*
G02*
X156662500Y-88475000I-237500J0D01*
G01*
X156087500Y-88475000D01*
G75*
G02*
X155850000Y-88237500I0J237500D01*
G01*
G37*
%TD.AperFunction*%
%TO.P,C1,1*%
%TO.N,+3V3*%
%TA.AperFunction,SMDPad,CuDef*%
G36*
G01*
X154100000Y-88237500D02*
X154100000Y-87762500D01*
G75*
G02*
X154337500Y-87525000I237500J0D01*
G01*
X154912500Y-87525000D01*
G75*
G02*
X155150000Y-87762500I0J-237500D01*
G01*
X155150000Y-88237500D01*
G75*
G02*
X154912500Y-88475000I-237500J0D01*
G01*
X154337500Y-88475000D01*
G75*
G02*
X154100000Y-88237500I0J237500D01*
G01*
G37*
%TD.AperFunction*%
%TD*%
D15*
%TO.P,U5,5*%
%TO.N,C2_IN*%
X169850000Y-87800000D03*
%TO.P,U5,4*%
%TO.N,C2_OUT*%
X169850000Y-89700000D03*
%TO.P,U5,3*%
%TO.N,A1*%
X167150000Y-89700000D03*
%TO.P,U5,2*%
%TO.N,GND*%
X167150000Y-88750000D03*
%TO.P,U5,1*%
X167150000Y-87800000D03*
%TD*%
%TO.P,U4,5*%
%TO.N,C1_IN*%
X169750000Y-82350000D03*
%TO.P,U4,4*%
%TO.N,C1_OUT*%
X169750000Y-84250000D03*
%TO.P,U4,3*%
%TO.N,A0*%
X167050000Y-84250000D03*
%TO.P,U4,2*%
%TO.N,GND*%
X167050000Y-83300000D03*
%TO.P,U4,1*%
X167050000Y-82350000D03*
%TD*%
D16*
%TO.P,U2,16*%
%TO.N,Net-(U2-Pad16)*%
X130862800Y-80322600D03*
%TO.P,U2,15*%
%TO.N,Net-(U2-Pad15)*%
X130862800Y-81822600D03*
%TO.P,U2,14*%
%TO.N,Net-(U2-Pad14)*%
X130862800Y-83322600D03*
%TO.P,U2,13*%
%TO.N,Net-(U2-Pad13)*%
X130862800Y-84822600D03*
%TO.P,U2,12*%
%TO.N,Net-(U2-Pad12)*%
X130862800Y-86322600D03*
%TO.P,U2,11*%
%TO.N,Net-(U2-Pad11)*%
X130862800Y-87822600D03*
%TO.P,U2,10*%
%TO.N,Net-(U2-Pad10)*%
X130862800Y-89322600D03*
D17*
%TO.P,U2,8*%
%TO.N,Net-(U2-Pad8)*%
X129762800Y-92642600D03*
%TO.P,U2,17*%
%TO.N,Net-(U2-Pad17)*%
X129762800Y-78502600D03*
%TO.P,U2,18*%
%TO.N,Net-(U2-Pad18)*%
X128262800Y-78502600D03*
%TO.P,U2,7*%
%TO.N,Net-(U2-Pad7)*%
X128262800Y-92642600D03*
%TO.P,U2,6*%
%TO.N,STATUS*%
X126762800Y-92642600D03*
%TO.P,U2,19*%
%TO.N,ARD_RX*%
X126762800Y-78502600D03*
%TO.P,U2,20*%
%TO.N,ARD_TX*%
X125262800Y-78502600D03*
%TO.P,U2,5*%
%TO.N,N/C*%
X125262800Y-92642600D03*
%TO.P,U2,4*%
X123762800Y-92642600D03*
%TO.P,U2,21*%
%TO.N,Net-(U2-Pad21)*%
X123762800Y-78502600D03*
%TO.P,U2,22*%
%TO.N,PWRC*%
X122262800Y-78502600D03*
%TO.P,U2,3*%
%TO.N,Net-(U2-Pad3)*%
X122262800Y-92642600D03*
%TO.P,U2,2*%
%TO.N,Net-(U2-Pad2)*%
X120762800Y-92642600D03*
%TO.P,U2,23*%
%TO.N,Net-(U2-Pad23)*%
X120762800Y-78502600D03*
%TO.P,U2,24*%
%TO.N,GND*%
X119262800Y-78502600D03*
D16*
%TO.P,U2,9*%
%TO.N,Net-(U2-Pad9)*%
X130862800Y-90822600D03*
D17*
%TO.P,U2,1*%
%TO.N,+3V3*%
X119262800Y-92642600D03*
%TD*%
%TO.P,R2,2*%
%TO.N,C1_OUT*%
%TA.AperFunction,SMDPad,CuDef*%
G36*
G01*
X171799999Y-83675000D02*
X172700001Y-83675000D01*
G75*
G02*
X172950000Y-83924999I0J-249999D01*
G01*
X172950000Y-84575001D01*
G75*
G02*
X172700001Y-84825000I-249999J0D01*
G01*
X171799999Y-84825000D01*
G75*
G02*
X171550000Y-84575001I0J249999D01*
G01*
X171550000Y-83924999D01*
G75*
G02*
X171799999Y-83675000I249999J0D01*
G01*
G37*
%TD.AperFunction*%
%TO.P,R2,1*%
%TO.N,C1_IN*%
%TA.AperFunction,SMDPad,CuDef*%
G36*
G01*
X171799999Y-81625000D02*
X172700001Y-81625000D01*
G75*
G02*
X172950000Y-81874999I0J-249999D01*
G01*
X172950000Y-82525001D01*
G75*
G02*
X172700001Y-82775000I-249999J0D01*
G01*
X171799999Y-82775000D01*
G75*
G02*
X171550000Y-82525001I0J249999D01*
G01*
X171550000Y-81874999D01*
G75*
G02*
X171799999Y-81625000I249999J0D01*
G01*
G37*
%TD.AperFunction*%
%TD*%
%TO.P,R1,2*%
%TO.N,C2_OUT*%
%TA.AperFunction,SMDPad,CuDef*%
G36*
G01*
X171799999Y-89200000D02*
X172700001Y-89200000D01*
G75*
G02*
X172950000Y-89449999I0J-249999D01*
G01*
X172950000Y-90100001D01*
G75*
G02*
X172700001Y-90350000I-249999J0D01*
G01*
X171799999Y-90350000D01*
G75*
G02*
X171550000Y-90100001I0J249999D01*
G01*
X171550000Y-89449999D01*
G75*
G02*
X171799999Y-89200000I249999J0D01*
G01*
G37*
%TD.AperFunction*%
%TO.P,R1,1*%
%TO.N,C2_IN*%
%TA.AperFunction,SMDPad,CuDef*%
G36*
G01*
X171799999Y-87150000D02*
X172700001Y-87150000D01*
G75*
G02*
X172950000Y-87399999I0J-249999D01*
G01*
X172950000Y-88050001D01*
G75*
G02*
X172700001Y-88300000I-249999J0D01*
G01*
X171799999Y-88300000D01*
G75*
G02*
X171550000Y-88050001I0J249999D01*
G01*
X171550000Y-87399999D01*
G75*
G02*
X171799999Y-87150000I249999J0D01*
G01*
G37*
%TD.AperFunction*%
%TD*%
%TO.P,D1,1*%
%TO.N,Net-(D1-Pad1)*%
%TA.AperFunction,SMDPad,CuDef*%
G36*
G01*
X138062500Y-77006250D02*
X138062500Y-76493750D01*
G75*
G02*
X138281250Y-76275000I218750J0D01*
G01*
X138718750Y-76275000D01*
G75*
G02*
X138937500Y-76493750I0J-218750D01*
G01*
X138937500Y-77006250D01*
G75*
G02*
X138718750Y-77225000I-218750J0D01*
G01*
X138281250Y-77225000D01*
G75*
G02*
X138062500Y-77006250I0J218750D01*
G01*
G37*
%TD.AperFunction*%
%TO.P,D1,2*%
%TO.N,Net-(D1-Pad2)*%
%TA.AperFunction,SMDPad,CuDef*%
G36*
G01*
X139637500Y-77006250D02*
X139637500Y-76493750D01*
G75*
G02*
X139856250Y-76275000I218750J0D01*
G01*
X140293750Y-76275000D01*
G75*
G02*
X140512500Y-76493750I0J-218750D01*
G01*
X140512500Y-77006250D01*
G75*
G02*
X140293750Y-77225000I-218750J0D01*
G01*
X139856250Y-77225000D01*
G75*
G02*
X139637500Y-77006250I0J218750D01*
G01*
G37*
%TD.AperFunction*%
%TD*%
%TO.P,R3,1*%
%TO.N,Net-(D1-Pad1)*%
%TA.AperFunction,SMDPad,CuDef*%
G36*
G01*
X136775000Y-76512500D02*
X136775000Y-76987500D01*
G75*
G02*
X136537500Y-77225000I-237500J0D01*
G01*
X135962500Y-77225000D01*
G75*
G02*
X135725000Y-76987500I0J237500D01*
G01*
X135725000Y-76512500D01*
G75*
G02*
X135962500Y-76275000I237500J0D01*
G01*
X136537500Y-76275000D01*
G75*
G02*
X136775000Y-76512500I0J-237500D01*
G01*
G37*
%TD.AperFunction*%
%TO.P,R3,2*%
%TO.N,GND*%
%TA.AperFunction,SMDPad,CuDef*%
G36*
G01*
X135025000Y-76512500D02*
X135025000Y-76987500D01*
G75*
G02*
X134787500Y-77225000I-237500J0D01*
G01*
X134212500Y-77225000D01*
G75*
G02*
X133975000Y-76987500I0J237500D01*
G01*
X133975000Y-76512500D01*
G75*
G02*
X134212500Y-76275000I237500J0D01*
G01*
X134787500Y-76275000D01*
G75*
G02*
X135025000Y-76512500I0J-237500D01*
G01*
G37*
%TD.AperFunction*%
%TD*%
D18*
%TO.P,H1,1*%
%TO.N,Net-(H1-Pad1)*%
X170000000Y-94000000D03*
%TD*%
%TO.P,H2,1*%
%TO.N,Net-(H2-Pad1)*%
X170000000Y-77250000D03*
%TD*%
D19*
%TO.N,A2*%
X143237347Y-76737347D03*
%TO.N,GND*%
X156500000Y-85000000D03*
X141500000Y-84750000D03*
%TO.N,A3*%
X142500000Y-76000000D03*
X166000000Y-79500000D03*
X166000000Y-76750000D03*
%TO.N,+3V3*%
X120250000Y-90250000D03*
X152250000Y-90250000D03*
X138250000Y-90250000D03*
%TO.N,ARD_RX*%
X135750000Y-83500000D03*
X126750000Y-83250000D03*
%TO.N,A1*%
X143899462Y-77575232D03*
X160500000Y-77500000D03*
X167250000Y-91500000D03*
%TO.N,A0*%
X146000000Y-78300232D03*
X167050000Y-85700000D03*
%TO.N,PWRC*%
X122500000Y-81000000D03*
X140750000Y-78250000D03*
%TO.N,ARD_TX*%
X126000000Y-84750000D03*
X135500000Y-84750000D03*
%TO.N,VIN*%
X159500000Y-88500000D03*
X163500000Y-81000000D03*
%TO.N,C2_IN*%
X172250000Y-86000000D03*
%TO.N,Net-(L1-Pad2)*%
X157250000Y-86000000D03*
%TO.N,STATUS*%
X128000000Y-81000000D03*
X140750000Y-82250000D03*
%TD*%
D20*
%TO.N,A2*%
X142650000Y-80000000D02*
X142650000Y-77350000D01*
X142650000Y-77350000D02*
X143250000Y-76750000D01*
X143250000Y-76750000D02*
X143237347Y-76737347D01*
%TO.N,GND*%
X140250000Y-88350000D02*
X140250000Y-89250000D01*
X158950000Y-85000000D02*
X156500000Y-85000000D01*
X158950000Y-85500000D02*
X158950000Y-85000000D01*
D21*
X166550000Y-82250000D02*
X165250000Y-82250000D01*
X166550000Y-82250000D02*
X166550000Y-83200000D01*
X167150000Y-87800000D02*
X167150000Y-88750000D01*
X168280001Y-86669999D02*
X167150000Y-87800000D01*
X168280001Y-83564999D02*
X168280001Y-86669999D01*
X168015002Y-83300000D02*
X168280001Y-83564999D01*
X167050000Y-83300000D02*
X168015002Y-83300000D01*
D20*
X137250000Y-93625000D02*
X135250000Y-93625000D01*
X140250000Y-89250000D02*
X139750000Y-89750000D01*
X139463588Y-89750000D02*
X138463588Y-88750000D01*
X139750000Y-89750000D02*
X139463588Y-89750000D01*
X138463588Y-88750000D02*
X137750000Y-88750000D01*
X140250000Y-88350000D02*
X140250000Y-86000000D01*
X140250000Y-86000000D02*
X141500000Y-84750000D01*
%TO.N,A3*%
X141850000Y-80000000D02*
X141850000Y-76650000D01*
X141850000Y-76650000D02*
X142500000Y-76000000D01*
X166000000Y-79500000D02*
X166000000Y-77500000D01*
X166000000Y-77500000D02*
X166000000Y-76750000D01*
D21*
%TO.N,+3V3*%
X141850000Y-88350000D02*
X141050000Y-88350000D01*
X119262800Y-92642600D02*
X119262800Y-91237200D01*
X119262800Y-91237200D02*
X120250000Y-90250000D01*
X152250000Y-90250000D02*
X152900001Y-90250000D01*
X152250000Y-89000000D02*
X151750000Y-88500000D01*
X152250000Y-90250000D02*
X152250000Y-89000000D01*
D20*
X154550000Y-87925000D02*
X154625000Y-88000000D01*
X154550000Y-86000000D02*
X154550000Y-87925000D01*
X154625000Y-88000000D02*
X154625000Y-90000000D01*
X153150001Y-90000000D02*
X152900001Y-90250000D01*
X154625000Y-90000000D02*
X153150001Y-90000000D01*
X135250000Y-91875000D02*
X137250000Y-91875000D01*
X137250000Y-91875000D02*
X137250000Y-91250000D01*
X137250000Y-91250000D02*
X138250000Y-90250000D01*
X141050000Y-88350000D02*
X141050000Y-89450000D01*
X140250000Y-90250000D02*
X138250000Y-90250000D01*
X141050000Y-89450000D02*
X140250000Y-90250000D01*
%TO.N,ARD_RX*%
X138075000Y-83775000D02*
X136025000Y-83775000D01*
X136025000Y-83775000D02*
X135750000Y-83500000D01*
X126750000Y-78515400D02*
X126762800Y-78502600D01*
X126750000Y-83250000D02*
X126750000Y-78515400D01*
%TO.N,A1*%
X143450000Y-78300000D02*
X144000000Y-77750000D01*
X143450000Y-80000000D02*
X143450000Y-78300000D01*
X144000000Y-77750000D02*
X144000000Y-77675770D01*
X144000000Y-77675770D02*
X143899462Y-77575232D01*
X167150000Y-89700000D02*
X167150000Y-91400000D01*
X167150000Y-91400000D02*
X167250000Y-91500000D01*
%TO.N,A0*%
X144250000Y-78250000D02*
X144750000Y-77750000D01*
X144750000Y-77750000D02*
X145449768Y-77750000D01*
X145449768Y-77750000D02*
X146000000Y-78300232D01*
X144250000Y-80000000D02*
X144250000Y-78250000D01*
X167050000Y-84250000D02*
X167050000Y-85700000D01*
%TO.N,PWRC*%
X122262800Y-78502600D02*
X122262800Y-80762800D01*
X122262800Y-80762800D02*
X122500000Y-81000000D01*
X140250000Y-78750000D02*
X140250000Y-80000000D01*
X140750000Y-78250000D02*
X140250000Y-78750000D01*
%TO.N,ARD_TX*%
X125262800Y-78502600D02*
X125262800Y-84012800D01*
X125262800Y-84012800D02*
X126000000Y-84750000D01*
X135675000Y-84575000D02*
X135500000Y-84750000D01*
X138075000Y-84575000D02*
X135675000Y-84575000D01*
%TO.N,VIN*%
X158950000Y-84500000D02*
X160000000Y-84500000D01*
X158950000Y-84500000D02*
X158000000Y-84500000D01*
X158950000Y-84000000D02*
X158950000Y-84500000D01*
X158450000Y-84000000D02*
X158950000Y-84500000D01*
X154550000Y-84000000D02*
X158450000Y-84000000D01*
X160250000Y-84250000D02*
X160000000Y-84500000D01*
D21*
X164000000Y-84250000D02*
X162750000Y-84250000D01*
X161000000Y-80000000D02*
X161000000Y-81750000D01*
X161000000Y-84000000D02*
X160750000Y-84250000D01*
X161000000Y-81750000D02*
X161000000Y-84000000D01*
D20*
X162750000Y-84250000D02*
X160750000Y-84250000D01*
X160750000Y-84250000D02*
X160250000Y-84250000D01*
D21*
X161250000Y-91500000D02*
X161250000Y-90250000D01*
X161250000Y-90250000D02*
X159500000Y-88500000D01*
X161750000Y-81000000D02*
X161000000Y-81750000D01*
X163500000Y-81000000D02*
X161750000Y-81000000D01*
%TO.N,C2_OUT*%
X173949999Y-88075001D02*
X172250000Y-89775000D01*
X173949999Y-85670001D02*
X173949999Y-88075001D01*
X175250000Y-84370000D02*
X173949999Y-85670001D01*
X169925000Y-89775000D02*
X169850000Y-89700000D01*
X172250000Y-89775000D02*
X169925000Y-89775000D01*
%TO.N,C2_IN*%
X172250000Y-86000000D02*
X172250000Y-87725000D01*
X172175000Y-87800000D02*
X172250000Y-87725000D01*
X169850000Y-87800000D02*
X172175000Y-87800000D01*
%TO.N,C1_OUT*%
X173949999Y-82550001D02*
X172250000Y-84250000D01*
X173949999Y-80590001D02*
X173949999Y-82550001D01*
X175250000Y-79290000D02*
X173949999Y-80590001D01*
X169750000Y-84250000D02*
X172250000Y-84250000D01*
%TO.N,C1_IN*%
X172250000Y-79750000D02*
X172250000Y-82200000D01*
X175250000Y-76750000D02*
X172250000Y-79750000D01*
X169900000Y-82200000D02*
X169750000Y-82350000D01*
X172250000Y-82200000D02*
X169900000Y-82200000D01*
D20*
%TO.N,Net-(L1-Pad2)*%
X158950000Y-86000000D02*
X157250000Y-86000000D01*
X161450000Y-86000000D02*
X162750000Y-87300000D01*
X158950000Y-86000000D02*
X161450000Y-86000000D01*
%TO.N,VFB*%
X151750000Y-84625000D02*
X151750000Y-86750000D01*
X152625000Y-85500000D02*
X151750000Y-84625000D01*
X154550000Y-85500000D02*
X152625000Y-85500000D01*
%TO.N,STATUS*%
X126762800Y-91392600D02*
X128000000Y-90155400D01*
X126762800Y-92642600D02*
X126762800Y-91392600D01*
X128000000Y-90155400D02*
X128000000Y-81000000D01*
X141050000Y-81950000D02*
X140750000Y-82250000D01*
X141050000Y-80000000D02*
X141050000Y-81950000D01*
%TO.N,C2D*%
X143450000Y-93410000D02*
X143540000Y-93500000D01*
X143450000Y-88350000D02*
X143450000Y-93410000D01*
%TO.N,C2CK*%
X141000000Y-90586412D02*
X141000000Y-93500000D01*
X142650000Y-88936412D02*
X141000000Y-90586412D01*
X142650000Y-88350000D02*
X142650000Y-88936412D01*
%TO.N,Net-(D1-Pad1)*%
X138500000Y-76750000D02*
X136250000Y-76750000D01*
%TO.N,Net-(D1-Pad2)*%
X138075000Y-81375000D02*
X138075000Y-79675000D01*
X140075000Y-77675000D02*
X140075000Y-76750000D01*
X138075000Y-79675000D02*
X140075000Y-77675000D01*
D21*
%TO.N,BATT*%
X152790000Y-93500000D02*
X154250000Y-93500000D01*
X156250000Y-91500000D02*
X158750000Y-91500000D01*
X154250000Y-93500000D02*
X156250000Y-91500000D01*
%TO.N,Net-(SW1-Pad3)*%
X163750000Y-91250000D02*
X163500000Y-91000000D01*
X163750000Y-91500000D02*
X163750000Y-91250000D01*
X163500000Y-91000000D02*
X163750000Y-91000000D01*
%TD*%
D22*
%TO.N,GND*%
G36*
X133620506Y-75744463D02*
G01*
X133523815Y-75823815D01*
X133444463Y-75920506D01*
X133385498Y-76030820D01*
X133349188Y-76150518D01*
X133336928Y-76275000D01*
X133340000Y-76464250D01*
X133498750Y-76623000D01*
X134373000Y-76623000D01*
X134373000Y-76603000D01*
X134627000Y-76603000D01*
X134627000Y-76623000D01*
X134647000Y-76623000D01*
X134647000Y-76877000D01*
X134627000Y-76877000D01*
X134627000Y-77701250D01*
X134785750Y-77860000D01*
X135025000Y-77863072D01*
X135149482Y-77850812D01*
X135269180Y-77814502D01*
X135379494Y-77755537D01*
X135452161Y-77695901D01*
X135476058Y-77715512D01*
X135627433Y-77796423D01*
X135791684Y-77846248D01*
X135962500Y-77863072D01*
X136537500Y-77863072D01*
X136708316Y-77846248D01*
X136872567Y-77796423D01*
X137023942Y-77715512D01*
X137156623Y-77606623D01*
X137235920Y-77510000D01*
X137591582Y-77510000D01*
X137675385Y-77612115D01*
X137805225Y-77718671D01*
X137953358Y-77797850D01*
X138114092Y-77846608D01*
X138281250Y-77863072D01*
X138718750Y-77863072D01*
X138822328Y-77852870D01*
X137563998Y-79111201D01*
X137535000Y-79134999D01*
X137511202Y-79163997D01*
X137511201Y-79163998D01*
X137440026Y-79250724D01*
X137369454Y-79382754D01*
X137353224Y-79436260D01*
X137333101Y-79502600D01*
X137325998Y-79526015D01*
X137311324Y-79675000D01*
X137315001Y-79712332D01*
X137315001Y-80500224D01*
X137301132Y-80501590D01*
X137157985Y-80545013D01*
X137026060Y-80615529D01*
X136910427Y-80710427D01*
X136815529Y-80826060D01*
X136745013Y-80957985D01*
X136701590Y-81101132D01*
X136686928Y-81250000D01*
X136686928Y-81500000D01*
X136701590Y-81648868D01*
X136739852Y-81775000D01*
X136701590Y-81901132D01*
X136686928Y-82050000D01*
X136686928Y-82300000D01*
X136701590Y-82448868D01*
X136739852Y-82575000D01*
X136701590Y-82701132D01*
X136686928Y-82850000D01*
X136686928Y-83015000D01*
X136669382Y-83015000D01*
X136667205Y-83009744D01*
X136553937Y-82840226D01*
X136409774Y-82696063D01*
X136240256Y-82582795D01*
X136051898Y-82504774D01*
X135851939Y-82465000D01*
X135648061Y-82465000D01*
X135448102Y-82504774D01*
X135259744Y-82582795D01*
X135090226Y-82696063D01*
X134946063Y-82840226D01*
X134832795Y-83009744D01*
X134754774Y-83198102D01*
X134715000Y-83398061D01*
X134715000Y-83601939D01*
X134754774Y-83801898D01*
X134822028Y-83964261D01*
X134696063Y-84090226D01*
X134582795Y-84259744D01*
X134504774Y-84448102D01*
X134465000Y-84648061D01*
X134465000Y-84851939D01*
X134504774Y-85051898D01*
X134582795Y-85240256D01*
X134696063Y-85409774D01*
X134840226Y-85553937D01*
X135009744Y-85667205D01*
X135198102Y-85745226D01*
X135398061Y-85785000D01*
X135601939Y-85785000D01*
X135801898Y-85745226D01*
X135990256Y-85667205D01*
X136159774Y-85553937D01*
X136303937Y-85409774D01*
X136353899Y-85335000D01*
X136686928Y-85335000D01*
X136686928Y-85500000D01*
X136701590Y-85648868D01*
X136739852Y-85775000D01*
X136701590Y-85901132D01*
X136686928Y-86050000D01*
X136686928Y-86300000D01*
X136701590Y-86448868D01*
X136739852Y-86575000D01*
X136701590Y-86701132D01*
X136686928Y-86850000D01*
X136686928Y-87100000D01*
X136701590Y-87248868D01*
X136745013Y-87392015D01*
X136815529Y-87523940D01*
X136910427Y-87639573D01*
X137026060Y-87734471D01*
X137157985Y-87804987D01*
X137301132Y-87848410D01*
X137450000Y-87863072D01*
X138561928Y-87863072D01*
X138561928Y-88975000D01*
X138576590Y-89123868D01*
X138620013Y-89267015D01*
X138630979Y-89287531D01*
X138551898Y-89254774D01*
X138351939Y-89215000D01*
X138148061Y-89215000D01*
X137948102Y-89254774D01*
X137759744Y-89332795D01*
X137590226Y-89446063D01*
X137446063Y-89590226D01*
X137332795Y-89759744D01*
X137254774Y-89948102D01*
X137215000Y-90148061D01*
X137215000Y-90210198D01*
X136738998Y-90686201D01*
X136710000Y-90709999D01*
X136686202Y-90738997D01*
X136686201Y-90738998D01*
X136635187Y-90801158D01*
X136526058Y-90859488D01*
X136393377Y-90968377D01*
X136284488Y-91101058D01*
X136277036Y-91115000D01*
X136222964Y-91115000D01*
X136215512Y-91101058D01*
X136106623Y-90968377D01*
X135973942Y-90859488D01*
X135822567Y-90778577D01*
X135658316Y-90728752D01*
X135487500Y-90711928D01*
X135012500Y-90711928D01*
X134841684Y-90728752D01*
X134677433Y-90778577D01*
X134526058Y-90859488D01*
X134393377Y-90968377D01*
X134284488Y-91101058D01*
X134203577Y-91252433D01*
X134153752Y-91416684D01*
X134136928Y-91587500D01*
X134136928Y-92162500D01*
X134153752Y-92333316D01*
X134203577Y-92497567D01*
X134284488Y-92648942D01*
X134304099Y-92672839D01*
X134244463Y-92745506D01*
X134185498Y-92855820D01*
X134149188Y-92975518D01*
X134136928Y-93100000D01*
X134140000Y-93339250D01*
X134298750Y-93498000D01*
X135123000Y-93498000D01*
X135123000Y-93478000D01*
X135377000Y-93478000D01*
X135377000Y-93498000D01*
X136201250Y-93498000D01*
X136250000Y-93449250D01*
X136298750Y-93498000D01*
X137123000Y-93498000D01*
X137123000Y-93478000D01*
X137377000Y-93478000D01*
X137377000Y-93498000D01*
X138201250Y-93498000D01*
X138360000Y-93339250D01*
X138363072Y-93100000D01*
X138350812Y-92975518D01*
X138314502Y-92855820D01*
X138255537Y-92745506D01*
X138195901Y-92672839D01*
X138215512Y-92648942D01*
X138296423Y-92497567D01*
X138346248Y-92333316D01*
X138363072Y-92162500D01*
X138363072Y-91587500D01*
X138346248Y-91416684D01*
X138306302Y-91285000D01*
X138351939Y-91285000D01*
X138551898Y-91245226D01*
X138740256Y-91167205D01*
X138909774Y-91053937D01*
X138953711Y-91010000D01*
X140212678Y-91010000D01*
X140240000Y-91012691D01*
X140240000Y-92011928D01*
X140150000Y-92011928D01*
X140025518Y-92024188D01*
X139905820Y-92060498D01*
X139795506Y-92119463D01*
X139698815Y-92198815D01*
X139619463Y-92295506D01*
X139560498Y-92405820D01*
X139524188Y-92525518D01*
X139511928Y-92650000D01*
X139511928Y-94350000D01*
X139524188Y-94474482D01*
X139560498Y-94594180D01*
X139619463Y-94704494D01*
X139698815Y-94801185D01*
X139795506Y-94880537D01*
X139905820Y-94939502D01*
X140025518Y-94975812D01*
X140150000Y-94988072D01*
X141850000Y-94988072D01*
X141974482Y-94975812D01*
X142094180Y-94939502D01*
X142204494Y-94880537D01*
X142301185Y-94801185D01*
X142380537Y-94704494D01*
X142439502Y-94594180D01*
X142461513Y-94521620D01*
X142593368Y-94653475D01*
X142836589Y-94815990D01*
X143106842Y-94927932D01*
X143393740Y-94985000D01*
X143686260Y-94985000D01*
X143973158Y-94927932D01*
X144243411Y-94815990D01*
X144486632Y-94653475D01*
X144693475Y-94446632D01*
X144815195Y-94264466D01*
X144884822Y-94381355D01*
X145079731Y-94597588D01*
X145313080Y-94771641D01*
X145575901Y-94896825D01*
X145723110Y-94941476D01*
X145953000Y-94820155D01*
X145953000Y-93627000D01*
X146207000Y-93627000D01*
X146207000Y-94820155D01*
X146436890Y-94941476D01*
X146584099Y-94896825D01*
X146846920Y-94771641D01*
X147080269Y-94597588D01*
X147275178Y-94381355D01*
X147424157Y-94131252D01*
X147521481Y-93856891D01*
X148808519Y-93856891D01*
X148905843Y-94131252D01*
X149054822Y-94381355D01*
X149249731Y-94597588D01*
X149483080Y-94771641D01*
X149745901Y-94896825D01*
X149893110Y-94941476D01*
X150123000Y-94820155D01*
X150123000Y-93627000D01*
X148929186Y-93627000D01*
X148808519Y-93856891D01*
X147521481Y-93856891D01*
X147400814Y-93627000D01*
X146207000Y-93627000D01*
X145953000Y-93627000D01*
X145933000Y-93627000D01*
X145933000Y-93373000D01*
X145953000Y-93373000D01*
X145953000Y-92179845D01*
X146207000Y-92179845D01*
X146207000Y-93373000D01*
X147400814Y-93373000D01*
X147521481Y-93143109D01*
X148808519Y-93143109D01*
X148929186Y-93373000D01*
X150123000Y-93373000D01*
X150123000Y-92179845D01*
X150377000Y-92179845D01*
X150377000Y-93373000D01*
X150397000Y-93373000D01*
X150397000Y-93627000D01*
X150377000Y-93627000D01*
X150377000Y-94820155D01*
X150606890Y-94941476D01*
X150754099Y-94896825D01*
X151016920Y-94771641D01*
X151250269Y-94597588D01*
X151326034Y-94513534D01*
X151350498Y-94594180D01*
X151409463Y-94704494D01*
X151488815Y-94801185D01*
X151585506Y-94880537D01*
X151695820Y-94939502D01*
X151815518Y-94975812D01*
X151940000Y-94988072D01*
X153640000Y-94988072D01*
X153764482Y-94975812D01*
X153884180Y-94939502D01*
X153994494Y-94880537D01*
X154091185Y-94801185D01*
X154170537Y-94704494D01*
X154229502Y-94594180D01*
X154265812Y-94474482D01*
X154274440Y-94386874D01*
X154293469Y-94385000D01*
X154293477Y-94385000D01*
X154423490Y-94372195D01*
X154590313Y-94321589D01*
X154744059Y-94239411D01*
X154878817Y-94128817D01*
X154906534Y-94095044D01*
X156616579Y-92385000D01*
X157486928Y-92385000D01*
X157486928Y-92750000D01*
X157499188Y-92874482D01*
X157535498Y-92994180D01*
X157594463Y-93104494D01*
X157658014Y-93181932D01*
X157533517Y-93206696D01*
X157336060Y-93288485D01*
X157158353Y-93407225D01*
X157007225Y-93558353D01*
X156888485Y-93736060D01*
X156806696Y-93933517D01*
X156765000Y-94143137D01*
X156765000Y-94356863D01*
X156806696Y-94566483D01*
X156888485Y-94763940D01*
X157007225Y-94941647D01*
X157158353Y-95092775D01*
X157336060Y-95211515D01*
X157533517Y-95293304D01*
X157743137Y-95335000D01*
X157956863Y-95335000D01*
X158166483Y-95293304D01*
X158363940Y-95211515D01*
X158541647Y-95092775D01*
X158692775Y-94941647D01*
X158811515Y-94763940D01*
X158893304Y-94566483D01*
X158935000Y-94356863D01*
X158935000Y-94143137D01*
X158893304Y-93933517D01*
X158811515Y-93736060D01*
X158692775Y-93558353D01*
X158541647Y-93407225D01*
X158512983Y-93388072D01*
X159375000Y-93388072D01*
X159499482Y-93375812D01*
X159619180Y-93339502D01*
X159729494Y-93280537D01*
X159826185Y-93201185D01*
X159905537Y-93104494D01*
X159964502Y-92994180D01*
X160000000Y-92877159D01*
X160035498Y-92994180D01*
X160094463Y-93104494D01*
X160173815Y-93201185D01*
X160270506Y-93280537D01*
X160380820Y-93339502D01*
X160500518Y-93375812D01*
X160625000Y-93388072D01*
X161875000Y-93388072D01*
X161999482Y-93375812D01*
X162119180Y-93339502D01*
X162229494Y-93280537D01*
X162326185Y-93201185D01*
X162405537Y-93104494D01*
X162464502Y-92994180D01*
X162500000Y-92877159D01*
X162535498Y-92994180D01*
X162594463Y-93104494D01*
X162673815Y-93201185D01*
X162770506Y-93280537D01*
X162880820Y-93339502D01*
X163000518Y-93375812D01*
X163125000Y-93388072D01*
X163987017Y-93388072D01*
X163958353Y-93407225D01*
X163807225Y-93558353D01*
X163688485Y-93736060D01*
X163606696Y-93933517D01*
X163565000Y-94143137D01*
X163565000Y-94356863D01*
X163606696Y-94566483D01*
X163688485Y-94763940D01*
X163807225Y-94941647D01*
X163958353Y-95092775D01*
X164136060Y-95211515D01*
X164333517Y-95293304D01*
X164543137Y-95335000D01*
X164756863Y-95335000D01*
X164966483Y-95293304D01*
X165163940Y-95211515D01*
X165341647Y-95092775D01*
X165492775Y-94941647D01*
X165611515Y-94763940D01*
X165693304Y-94566483D01*
X165735000Y-94356863D01*
X165735000Y-94143137D01*
X165693304Y-93933517D01*
X165611515Y-93736060D01*
X165492775Y-93558353D01*
X165341647Y-93407225D01*
X165163940Y-93288485D01*
X164966483Y-93206696D01*
X164841986Y-93181932D01*
X164905537Y-93104494D01*
X164964502Y-92994180D01*
X165000812Y-92874482D01*
X165013072Y-92750000D01*
X165013072Y-90250000D01*
X165000812Y-90125518D01*
X164964502Y-90005820D01*
X164905537Y-89895506D01*
X164826185Y-89798815D01*
X164729494Y-89719463D01*
X164619180Y-89660498D01*
X164499482Y-89624188D01*
X164375000Y-89611928D01*
X163125000Y-89611928D01*
X163000518Y-89624188D01*
X162880820Y-89660498D01*
X162770506Y-89719463D01*
X162673815Y-89798815D01*
X162594463Y-89895506D01*
X162535498Y-90005820D01*
X162500000Y-90122841D01*
X162464502Y-90005820D01*
X162405537Y-89895506D01*
X162326185Y-89798815D01*
X162229494Y-89719463D01*
X162119180Y-89660498D01*
X161999482Y-89624188D01*
X161875000Y-89611928D01*
X161867540Y-89611928D01*
X161845049Y-89593470D01*
X160938520Y-88686941D01*
X160950000Y-88688072D01*
X164550000Y-88688072D01*
X164674482Y-88675812D01*
X164794180Y-88639502D01*
X164904494Y-88580537D01*
X165001185Y-88501185D01*
X165080537Y-88404494D01*
X165139502Y-88294180D01*
X165175812Y-88174482D01*
X165188072Y-88050000D01*
X165188072Y-87475000D01*
X165731928Y-87475000D01*
X165735000Y-87514250D01*
X165893750Y-87673000D01*
X167023000Y-87673000D01*
X167023000Y-86998750D01*
X166864250Y-86840000D01*
X166370000Y-86836928D01*
X166245518Y-86849188D01*
X166125820Y-86885498D01*
X166015506Y-86944463D01*
X165918815Y-87023815D01*
X165839463Y-87120506D01*
X165780498Y-87230820D01*
X165744188Y-87350518D01*
X165731928Y-87475000D01*
X165188072Y-87475000D01*
X165188072Y-86550000D01*
X165175812Y-86425518D01*
X165139502Y-86305820D01*
X165080537Y-86195506D01*
X165001185Y-86098815D01*
X164904494Y-86019463D01*
X164794180Y-85960498D01*
X164674482Y-85924188D01*
X164550000Y-85911928D01*
X162436729Y-85911928D01*
X162162873Y-85638072D01*
X164550000Y-85638072D01*
X164674482Y-85625812D01*
X164794180Y-85589502D01*
X164904494Y-85530537D01*
X165001185Y-85451185D01*
X165080537Y-85354494D01*
X165139502Y-85244180D01*
X165175812Y-85124482D01*
X165188072Y-85000000D01*
X165188072Y-83500000D01*
X165175812Y-83375518D01*
X165139502Y-83255820D01*
X165080537Y-83145506D01*
X165001185Y-83048815D01*
X164904494Y-82969463D01*
X164794180Y-82910498D01*
X164674482Y-82874188D01*
X164550000Y-82861928D01*
X161885000Y-82861928D01*
X161885000Y-82624369D01*
X161906623Y-82606623D01*
X162015512Y-82473942D01*
X162096423Y-82322567D01*
X162146248Y-82158316D01*
X162163072Y-81987500D01*
X162163072Y-81885000D01*
X162961546Y-81885000D01*
X163009744Y-81917205D01*
X163198102Y-81995226D01*
X163398061Y-82035000D01*
X163601939Y-82035000D01*
X163652212Y-82025000D01*
X165631928Y-82025000D01*
X165635000Y-82064250D01*
X165793750Y-82223000D01*
X166923000Y-82223000D01*
X166923000Y-81548750D01*
X166764250Y-81390000D01*
X166270000Y-81386928D01*
X166145518Y-81399188D01*
X166025820Y-81435498D01*
X165915506Y-81494463D01*
X165818815Y-81573815D01*
X165739463Y-81670506D01*
X165680498Y-81780820D01*
X165644188Y-81900518D01*
X165631928Y-82025000D01*
X163652212Y-82025000D01*
X163801898Y-81995226D01*
X163990256Y-81917205D01*
X164159774Y-81803937D01*
X164303937Y-81659774D01*
X164417205Y-81490256D01*
X164495226Y-81301898D01*
X164535000Y-81101939D01*
X164535000Y-80898061D01*
X164495226Y-80698102D01*
X164417205Y-80509744D01*
X164303937Y-80340226D01*
X164159774Y-80196063D01*
X163990256Y-80082795D01*
X163801898Y-80004774D01*
X163601939Y-79965000D01*
X163398061Y-79965000D01*
X163198102Y-80004774D01*
X163009744Y-80082795D01*
X162961546Y-80115000D01*
X162163072Y-80115000D01*
X162163072Y-79762500D01*
X162146248Y-79591684D01*
X162096423Y-79427433D01*
X162015512Y-79276058D01*
X161906623Y-79143377D01*
X161773942Y-79034488D01*
X161622567Y-78953577D01*
X161458316Y-78903752D01*
X161287500Y-78886928D01*
X160712500Y-78886928D01*
X160541684Y-78903752D01*
X160377433Y-78953577D01*
X160226058Y-79034488D01*
X160202161Y-79054099D01*
X160129494Y-78994463D01*
X160019180Y-78935498D01*
X159899482Y-78899188D01*
X159775000Y-78886928D01*
X159535750Y-78890000D01*
X159377000Y-79048750D01*
X159377000Y-79873000D01*
X159397000Y-79873000D01*
X159397000Y-80127000D01*
X159377000Y-80127000D01*
X159377000Y-81623000D01*
X159397000Y-81623000D01*
X159397000Y-81877000D01*
X159377000Y-81877000D01*
X159377000Y-82701250D01*
X159535750Y-82860000D01*
X159775000Y-82863072D01*
X159899482Y-82850812D01*
X160019180Y-82814502D01*
X160115000Y-82763284D01*
X160115001Y-83415650D01*
X160101185Y-83398815D01*
X160004494Y-83319463D01*
X159894180Y-83260498D01*
X159774482Y-83224188D01*
X159650000Y-83211928D01*
X158250000Y-83211928D01*
X158125518Y-83224188D01*
X158073393Y-83240000D01*
X155426607Y-83240000D01*
X155374482Y-83224188D01*
X155250000Y-83211928D01*
X153850000Y-83211928D01*
X153725518Y-83224188D01*
X153605820Y-83260498D01*
X153495506Y-83319463D01*
X153398815Y-83398815D01*
X153319463Y-83495506D01*
X153260498Y-83605820D01*
X153224188Y-83725518D01*
X153211928Y-83850000D01*
X153211928Y-84150000D01*
X153221777Y-84250000D01*
X153211928Y-84350000D01*
X153211928Y-84650000D01*
X153220792Y-84740000D01*
X152939802Y-84740000D01*
X152863072Y-84663270D01*
X152863072Y-84337500D01*
X152846248Y-84166684D01*
X152796423Y-84002433D01*
X152715512Y-83851058D01*
X152695901Y-83827161D01*
X152755537Y-83754494D01*
X152814502Y-83644180D01*
X152850812Y-83524482D01*
X152863072Y-83400000D01*
X152860000Y-83160750D01*
X152701250Y-83002000D01*
X151877000Y-83002000D01*
X151877000Y-83022000D01*
X151623000Y-83022000D01*
X151623000Y-83002000D01*
X150798750Y-83002000D01*
X150640000Y-83160750D01*
X150636928Y-83400000D01*
X150649188Y-83524482D01*
X150685498Y-83644180D01*
X150744463Y-83754494D01*
X150804099Y-83827161D01*
X150784488Y-83851058D01*
X150703577Y-84002433D01*
X150653752Y-84166684D01*
X150636928Y-84337500D01*
X150636928Y-84912500D01*
X150653752Y-85083316D01*
X150703577Y-85247567D01*
X150784488Y-85398942D01*
X150893377Y-85531623D01*
X150990000Y-85610920D01*
X150990001Y-85764080D01*
X150893377Y-85843377D01*
X150784488Y-85976058D01*
X150703577Y-86127433D01*
X150653752Y-86291684D01*
X150636928Y-86462500D01*
X150636928Y-87037500D01*
X150653752Y-87208316D01*
X150703577Y-87372567D01*
X150784488Y-87523942D01*
X150867425Y-87625000D01*
X150784488Y-87726058D01*
X150703577Y-87877433D01*
X150653752Y-88041684D01*
X150636928Y-88212500D01*
X150636928Y-88787500D01*
X150653752Y-88958316D01*
X150703577Y-89122567D01*
X150784488Y-89273942D01*
X150893377Y-89406623D01*
X151026058Y-89515512D01*
X151177433Y-89596423D01*
X151341684Y-89646248D01*
X151365000Y-89648544D01*
X151365000Y-89711545D01*
X151332795Y-89759744D01*
X151254774Y-89948102D01*
X151215000Y-90148061D01*
X151215000Y-90351939D01*
X151254774Y-90551898D01*
X151332795Y-90740256D01*
X151446063Y-90909774D01*
X151590226Y-91053937D01*
X151759744Y-91167205D01*
X151948102Y-91245226D01*
X152148061Y-91285000D01*
X152351939Y-91285000D01*
X152551898Y-91245226D01*
X152740256Y-91167205D01*
X152788454Y-91135000D01*
X152943478Y-91135000D01*
X153073491Y-91122195D01*
X153240314Y-91071589D01*
X153394060Y-90989411D01*
X153528818Y-90878817D01*
X153626329Y-90760000D01*
X153639080Y-90760000D01*
X153718377Y-90856623D01*
X153851058Y-90965512D01*
X154002433Y-91046423D01*
X154166684Y-91096248D01*
X154337500Y-91113072D01*
X154912500Y-91113072D01*
X155083316Y-91096248D01*
X155247567Y-91046423D01*
X155398942Y-90965512D01*
X155422839Y-90945901D01*
X155494066Y-91004355D01*
X154181815Y-92316606D01*
X154170537Y-92295506D01*
X154091185Y-92198815D01*
X153994494Y-92119463D01*
X153884180Y-92060498D01*
X153764482Y-92024188D01*
X153640000Y-92011928D01*
X151940000Y-92011928D01*
X151815518Y-92024188D01*
X151695820Y-92060498D01*
X151585506Y-92119463D01*
X151488815Y-92198815D01*
X151409463Y-92295506D01*
X151350498Y-92405820D01*
X151326034Y-92486466D01*
X151250269Y-92402412D01*
X151016920Y-92228359D01*
X150754099Y-92103175D01*
X150606890Y-92058524D01*
X150377000Y-92179845D01*
X150123000Y-92179845D01*
X149893110Y-92058524D01*
X149745901Y-92103175D01*
X149483080Y-92228359D01*
X149249731Y-92402412D01*
X149054822Y-92618645D01*
X148905843Y-92868748D01*
X148808519Y-93143109D01*
X147521481Y-93143109D01*
X147424157Y-92868748D01*
X147275178Y-92618645D01*
X147080269Y-92402412D01*
X146846920Y-92228359D01*
X146584099Y-92103175D01*
X146436890Y-92058524D01*
X146207000Y-92179845D01*
X145953000Y-92179845D01*
X145723110Y-92058524D01*
X145575901Y-92103175D01*
X145313080Y-92228359D01*
X145079731Y-92402412D01*
X144884822Y-92618645D01*
X144815195Y-92735534D01*
X144693475Y-92553368D01*
X144486632Y-92346525D01*
X144243411Y-92184010D01*
X144210000Y-92170171D01*
X144210000Y-89738072D01*
X144375000Y-89738072D01*
X144523868Y-89723410D01*
X144650000Y-89685148D01*
X144776132Y-89723410D01*
X144925000Y-89738072D01*
X145175000Y-89738072D01*
X145323868Y-89723410D01*
X145467015Y-89679987D01*
X145598940Y-89609471D01*
X145714573Y-89514573D01*
X145809471Y-89398940D01*
X145879987Y-89267015D01*
X145923410Y-89123868D01*
X145938072Y-88975000D01*
X145938072Y-87863072D01*
X147050000Y-87863072D01*
X147198868Y-87848410D01*
X147342015Y-87804987D01*
X147473940Y-87734471D01*
X147589573Y-87639573D01*
X147684471Y-87523940D01*
X147754987Y-87392015D01*
X147798410Y-87248868D01*
X147813072Y-87100000D01*
X147813072Y-86850000D01*
X147798410Y-86701132D01*
X147760148Y-86575000D01*
X147798410Y-86448868D01*
X147813072Y-86300000D01*
X147813072Y-86050000D01*
X147798410Y-85901132D01*
X147760148Y-85775000D01*
X147798410Y-85648868D01*
X147813072Y-85500000D01*
X147813072Y-85250000D01*
X147798410Y-85101132D01*
X147760148Y-84975000D01*
X147798410Y-84848868D01*
X147813072Y-84700000D01*
X147813072Y-84450000D01*
X147798410Y-84301132D01*
X147760148Y-84175000D01*
X147798410Y-84048868D01*
X147813072Y-83900000D01*
X147813072Y-83650000D01*
X147798410Y-83501132D01*
X147760148Y-83375000D01*
X147798410Y-83248868D01*
X147813072Y-83100000D01*
X147813072Y-82850000D01*
X147798410Y-82701132D01*
X147760148Y-82575000D01*
X147798410Y-82448868D01*
X147808147Y-82350000D01*
X150636928Y-82350000D01*
X150640000Y-82589250D01*
X150798750Y-82748000D01*
X151623000Y-82748000D01*
X151623000Y-81873750D01*
X151877000Y-81873750D01*
X151877000Y-82748000D01*
X152701250Y-82748000D01*
X152860000Y-82589250D01*
X152863072Y-82350000D01*
X152850812Y-82225518D01*
X152850655Y-82225000D01*
X158086928Y-82225000D01*
X158099188Y-82349482D01*
X158135498Y-82469180D01*
X158194463Y-82579494D01*
X158273815Y-82676185D01*
X158370506Y-82755537D01*
X158480820Y-82814502D01*
X158600518Y-82850812D01*
X158725000Y-82863072D01*
X158964250Y-82860000D01*
X159123000Y-82701250D01*
X159123000Y-81877000D01*
X158248750Y-81877000D01*
X158090000Y-82035750D01*
X158086928Y-82225000D01*
X152850655Y-82225000D01*
X152814502Y-82105820D01*
X152755537Y-81995506D01*
X152676185Y-81898815D01*
X152579494Y-81819463D01*
X152469180Y-81760498D01*
X152349482Y-81724188D01*
X152225000Y-81711928D01*
X152035750Y-81715000D01*
X151877000Y-81873750D01*
X151623000Y-81873750D01*
X151464250Y-81715000D01*
X151275000Y-81711928D01*
X151150518Y-81724188D01*
X151030820Y-81760498D01*
X150920506Y-81819463D01*
X150823815Y-81898815D01*
X150744463Y-81995506D01*
X150685498Y-82105820D01*
X150649188Y-82225518D01*
X150636928Y-82350000D01*
X147808147Y-82350000D01*
X147813072Y-82300000D01*
X147813072Y-82050000D01*
X147798410Y-81901132D01*
X147760148Y-81775000D01*
X147798410Y-81648868D01*
X147813072Y-81500000D01*
X147813072Y-81250000D01*
X147798410Y-81101132D01*
X147754987Y-80957985D01*
X147684471Y-80826060D01*
X147589573Y-80710427D01*
X147473940Y-80615529D01*
X147342015Y-80545013D01*
X147198868Y-80501590D01*
X147050000Y-80486928D01*
X145938072Y-80486928D01*
X145938072Y-80475000D01*
X158086928Y-80475000D01*
X158099188Y-80599482D01*
X158135498Y-80719180D01*
X158194463Y-80829494D01*
X158231809Y-80875000D01*
X158194463Y-80920506D01*
X158135498Y-81030820D01*
X158099188Y-81150518D01*
X158086928Y-81275000D01*
X158090000Y-81464250D01*
X158248750Y-81623000D01*
X159123000Y-81623000D01*
X159123000Y-80127000D01*
X158248750Y-80127000D01*
X158090000Y-80285750D01*
X158086928Y-80475000D01*
X145938072Y-80475000D01*
X145938072Y-79525000D01*
X158086928Y-79525000D01*
X158090000Y-79714250D01*
X158248750Y-79873000D01*
X159123000Y-79873000D01*
X159123000Y-79048750D01*
X158964250Y-78890000D01*
X158725000Y-78886928D01*
X158600518Y-78899188D01*
X158480820Y-78935498D01*
X158370506Y-78994463D01*
X158273815Y-79073815D01*
X158194463Y-79170506D01*
X158135498Y-79280820D01*
X158099188Y-79400518D01*
X158086928Y-79525000D01*
X145938072Y-79525000D01*
X145938072Y-79375000D01*
X145934155Y-79335232D01*
X146101939Y-79335232D01*
X146301898Y-79295458D01*
X146490256Y-79217437D01*
X146659774Y-79104169D01*
X146803937Y-78960006D01*
X146917205Y-78790488D01*
X146995226Y-78602130D01*
X147035000Y-78402171D01*
X147035000Y-78198293D01*
X146995226Y-77998334D01*
X146917205Y-77809976D01*
X146803937Y-77640458D01*
X146659774Y-77496295D01*
X146512757Y-77398061D01*
X159465000Y-77398061D01*
X159465000Y-77601939D01*
X159504774Y-77801898D01*
X159582795Y-77990256D01*
X159696063Y-78159774D01*
X159840226Y-78303937D01*
X160009744Y-78417205D01*
X160198102Y-78495226D01*
X160398061Y-78535000D01*
X160601939Y-78535000D01*
X160801898Y-78495226D01*
X160990256Y-78417205D01*
X161159774Y-78303937D01*
X161303937Y-78159774D01*
X161417205Y-77990256D01*
X161495226Y-77801898D01*
X161535000Y-77601939D01*
X161535000Y-77398061D01*
X161495226Y-77198102D01*
X161417205Y-77009744D01*
X161303937Y-76840226D01*
X161159774Y-76696063D01*
X161087934Y-76648061D01*
X164965000Y-76648061D01*
X164965000Y-76851939D01*
X165004774Y-77051898D01*
X165082795Y-77240256D01*
X165196063Y-77409774D01*
X165240000Y-77453711D01*
X165240000Y-77537332D01*
X165240001Y-77537342D01*
X165240000Y-78796289D01*
X165196063Y-78840226D01*
X165082795Y-79009744D01*
X165004774Y-79198102D01*
X164965000Y-79398061D01*
X164965000Y-79601939D01*
X165004774Y-79801898D01*
X165082795Y-79990256D01*
X165196063Y-80159774D01*
X165340226Y-80303937D01*
X165509744Y-80417205D01*
X165698102Y-80495226D01*
X165898061Y-80535000D01*
X166101939Y-80535000D01*
X166301898Y-80495226D01*
X166490256Y-80417205D01*
X166659774Y-80303937D01*
X166803937Y-80159774D01*
X166917205Y-79990256D01*
X166995226Y-79801898D01*
X167035000Y-79601939D01*
X167035000Y-79398061D01*
X166995226Y-79198102D01*
X166917205Y-79009744D01*
X166803937Y-78840226D01*
X166760000Y-78796289D01*
X166760000Y-77453711D01*
X166803937Y-77409774D01*
X166917205Y-77240256D01*
X166995226Y-77051898D01*
X167035000Y-76851939D01*
X167035000Y-76648061D01*
X166995226Y-76448102D01*
X166917205Y-76259744D01*
X166803937Y-76090226D01*
X166659774Y-75946063D01*
X166490256Y-75832795D01*
X166301898Y-75754774D01*
X166101939Y-75715000D01*
X165898061Y-75715000D01*
X165698102Y-75754774D01*
X165509744Y-75832795D01*
X165340226Y-75946063D01*
X165196063Y-76090226D01*
X165082795Y-76259744D01*
X165004774Y-76448102D01*
X164965000Y-76648061D01*
X161087934Y-76648061D01*
X160990256Y-76582795D01*
X160801898Y-76504774D01*
X160601939Y-76465000D01*
X160398061Y-76465000D01*
X160198102Y-76504774D01*
X160009744Y-76582795D01*
X159840226Y-76696063D01*
X159696063Y-76840226D01*
X159582795Y-77009744D01*
X159504774Y-77198102D01*
X159465000Y-77398061D01*
X146512757Y-77398061D01*
X146490256Y-77383027D01*
X146301898Y-77305006D01*
X146101939Y-77265232D01*
X146039801Y-77265232D01*
X146013571Y-77239002D01*
X145989769Y-77209999D01*
X145874044Y-77115026D01*
X145742015Y-77044454D01*
X145598754Y-77000997D01*
X145487101Y-76990000D01*
X145487090Y-76990000D01*
X145449768Y-76986324D01*
X145412446Y-76990000D01*
X144787325Y-76990000D01*
X144750803Y-76986403D01*
X144703399Y-76915458D01*
X144559236Y-76771295D01*
X144389718Y-76658027D01*
X144266711Y-76607076D01*
X144232573Y-76435449D01*
X144154552Y-76247091D01*
X144041284Y-76077573D01*
X143897121Y-75933410D01*
X143727603Y-75820142D01*
X143539245Y-75742121D01*
X143502529Y-75734818D01*
X143497593Y-75710000D01*
X168167101Y-75710000D01*
X168147450Y-75729651D01*
X167886440Y-76120279D01*
X167706654Y-76554321D01*
X167615000Y-77015098D01*
X167615000Y-77484902D01*
X167706654Y-77945679D01*
X167886440Y-78379721D01*
X168147450Y-78770349D01*
X168479651Y-79102550D01*
X168870279Y-79363560D01*
X169304321Y-79543346D01*
X169765098Y-79635000D01*
X170234902Y-79635000D01*
X170695679Y-79543346D01*
X171129721Y-79363560D01*
X171520349Y-79102550D01*
X171852550Y-78770349D01*
X172113560Y-78379721D01*
X172293346Y-77945679D01*
X172385000Y-77484902D01*
X172385000Y-77015098D01*
X172293346Y-76554321D01*
X172113560Y-76120279D01*
X171852550Y-75729651D01*
X171832899Y-75710000D01*
X173794063Y-75710000D01*
X173774188Y-75775518D01*
X173761928Y-75900000D01*
X173761928Y-76986493D01*
X171654956Y-79093466D01*
X171621183Y-79121183D01*
X171510589Y-79255942D01*
X171428411Y-79409688D01*
X171400226Y-79502600D01*
X171378044Y-79575724D01*
X171377805Y-79576511D01*
X171365000Y-79706524D01*
X171365000Y-79706531D01*
X171360719Y-79750000D01*
X171365000Y-79793469D01*
X171365001Y-81105386D01*
X171306613Y-81136595D01*
X171172038Y-81247038D01*
X171116263Y-81315000D01*
X169943466Y-81315000D01*
X169899999Y-81310719D01*
X169856533Y-81315000D01*
X169856523Y-81315000D01*
X169726510Y-81327805D01*
X169559687Y-81378411D01*
X169543753Y-81386928D01*
X168970000Y-81386928D01*
X168845518Y-81399188D01*
X168725820Y-81435498D01*
X168615506Y-81494463D01*
X168518815Y-81573815D01*
X168439463Y-81670506D01*
X168400000Y-81744335D01*
X168360537Y-81670506D01*
X168281185Y-81573815D01*
X168184494Y-81494463D01*
X168074180Y-81435498D01*
X167954482Y-81399188D01*
X167830000Y-81386928D01*
X167335750Y-81390000D01*
X167177000Y-81548750D01*
X167177000Y-82223000D01*
X167197000Y-82223000D01*
X167197000Y-82477000D01*
X167177000Y-82477000D01*
X167177000Y-82497000D01*
X166923000Y-82497000D01*
X166923000Y-82477000D01*
X166901250Y-82477000D01*
X166764250Y-82340000D01*
X166270000Y-82336928D01*
X166145518Y-82349188D01*
X166025820Y-82385498D01*
X165915506Y-82444463D01*
X165875859Y-82477000D01*
X165793750Y-82477000D01*
X165635000Y-82635750D01*
X165631928Y-82675000D01*
X165644188Y-82799482D01*
X165651929Y-82825000D01*
X165644188Y-82850518D01*
X165631928Y-82975000D01*
X165635000Y-83014250D01*
X165793750Y-83173000D01*
X165875859Y-83173000D01*
X165915506Y-83205537D01*
X166025820Y-83264502D01*
X166142841Y-83300000D01*
X166025820Y-83335498D01*
X165915506Y-83394463D01*
X165875859Y-83427000D01*
X165793750Y-83427000D01*
X165635000Y-83585750D01*
X165631928Y-83625000D01*
X165644188Y-83749482D01*
X165651929Y-83775000D01*
X165644188Y-83800518D01*
X165631928Y-83925000D01*
X165631928Y-84575000D01*
X165644188Y-84699482D01*
X165680498Y-84819180D01*
X165739463Y-84929494D01*
X165818815Y-85026185D01*
X165915506Y-85105537D01*
X166025820Y-85164502D01*
X166139902Y-85199108D01*
X166132795Y-85209744D01*
X166054774Y-85398102D01*
X166015000Y-85598061D01*
X166015000Y-85801939D01*
X166054774Y-86001898D01*
X166132795Y-86190256D01*
X166246063Y-86359774D01*
X166390226Y-86503937D01*
X166559744Y-86617205D01*
X166748102Y-86695226D01*
X166948061Y-86735000D01*
X167151939Y-86735000D01*
X167351898Y-86695226D01*
X167540256Y-86617205D01*
X167709774Y-86503937D01*
X167853937Y-86359774D01*
X167967205Y-86190256D01*
X168045226Y-86001898D01*
X168085000Y-85801939D01*
X168085000Y-85598061D01*
X168045226Y-85398102D01*
X167967205Y-85209744D01*
X167960098Y-85199108D01*
X168074180Y-85164502D01*
X168184494Y-85105537D01*
X168281185Y-85026185D01*
X168360537Y-84929494D01*
X168400000Y-84855665D01*
X168439463Y-84929494D01*
X168518815Y-85026185D01*
X168615506Y-85105537D01*
X168725820Y-85164502D01*
X168845518Y-85200812D01*
X168970000Y-85213072D01*
X170530000Y-85213072D01*
X170654482Y-85200812D01*
X170774180Y-85164502D01*
X170829373Y-85135000D01*
X171116263Y-85135000D01*
X171172038Y-85202962D01*
X171306613Y-85313405D01*
X171422570Y-85375386D01*
X171332795Y-85509744D01*
X171254774Y-85698102D01*
X171215000Y-85898061D01*
X171215000Y-86101939D01*
X171254774Y-86301898D01*
X171332795Y-86490256D01*
X171365000Y-86538455D01*
X171365000Y-86630386D01*
X171306613Y-86661595D01*
X171172038Y-86772038D01*
X171061595Y-86906613D01*
X171057112Y-86915000D01*
X170929373Y-86915000D01*
X170874180Y-86885498D01*
X170754482Y-86849188D01*
X170630000Y-86836928D01*
X169070000Y-86836928D01*
X168945518Y-86849188D01*
X168825820Y-86885498D01*
X168715506Y-86944463D01*
X168618815Y-87023815D01*
X168539463Y-87120506D01*
X168500000Y-87194335D01*
X168460537Y-87120506D01*
X168381185Y-87023815D01*
X168284494Y-86944463D01*
X168174180Y-86885498D01*
X168054482Y-86849188D01*
X167930000Y-86836928D01*
X167435750Y-86840000D01*
X167277000Y-86998750D01*
X167277000Y-87673000D01*
X167297000Y-87673000D01*
X167297000Y-87927000D01*
X167277000Y-87927000D01*
X167277000Y-87947000D01*
X167023000Y-87947000D01*
X167023000Y-87927000D01*
X167001250Y-87927000D01*
X166864250Y-87790000D01*
X166370000Y-87786928D01*
X166245518Y-87799188D01*
X166125820Y-87835498D01*
X166015506Y-87894463D01*
X165975859Y-87927000D01*
X165893750Y-87927000D01*
X165735000Y-88085750D01*
X165731928Y-88125000D01*
X165744188Y-88249482D01*
X165751929Y-88275000D01*
X165744188Y-88300518D01*
X165731928Y-88425000D01*
X165735000Y-88464250D01*
X165893750Y-88623000D01*
X165975859Y-88623000D01*
X166015506Y-88655537D01*
X166125820Y-88714502D01*
X166242841Y-88750000D01*
X166125820Y-88785498D01*
X166015506Y-88844463D01*
X165975859Y-88877000D01*
X165893750Y-88877000D01*
X165735000Y-89035750D01*
X165731928Y-89075000D01*
X165744188Y-89199482D01*
X165751929Y-89225000D01*
X165744188Y-89250518D01*
X165731928Y-89375000D01*
X165731928Y-90025000D01*
X165744188Y-90149482D01*
X165780498Y-90269180D01*
X165839463Y-90379494D01*
X165918815Y-90476185D01*
X166015506Y-90555537D01*
X166125820Y-90614502D01*
X166245518Y-90650812D01*
X166370000Y-90663072D01*
X166390001Y-90663072D01*
X166390001Y-90924129D01*
X166332795Y-91009744D01*
X166254774Y-91198102D01*
X166215000Y-91398061D01*
X166215000Y-91601939D01*
X166254774Y-91801898D01*
X166332795Y-91990256D01*
X166446063Y-92159774D01*
X166590226Y-92303937D01*
X166759744Y-92417205D01*
X166948102Y-92495226D01*
X167148061Y-92535000D01*
X167351939Y-92535000D01*
X167551898Y-92495226D01*
X167740256Y-92417205D01*
X167909774Y-92303937D01*
X168053937Y-92159774D01*
X168167205Y-91990256D01*
X168245226Y-91801898D01*
X168285000Y-91601939D01*
X168285000Y-91398061D01*
X168245226Y-91198102D01*
X168167205Y-91009744D01*
X168053937Y-90840226D01*
X167910000Y-90696289D01*
X167910000Y-90663072D01*
X167930000Y-90663072D01*
X168054482Y-90650812D01*
X168174180Y-90614502D01*
X168284494Y-90555537D01*
X168381185Y-90476185D01*
X168460537Y-90379494D01*
X168500000Y-90305665D01*
X168539463Y-90379494D01*
X168618815Y-90476185D01*
X168715506Y-90555537D01*
X168825820Y-90614502D01*
X168945518Y-90650812D01*
X169070000Y-90663072D01*
X169912724Y-90663072D01*
X169924999Y-90664281D01*
X169937274Y-90663072D01*
X170630000Y-90663072D01*
X170661192Y-90660000D01*
X171116263Y-90660000D01*
X171172038Y-90727962D01*
X171306613Y-90838405D01*
X171460149Y-90920472D01*
X171626745Y-90971008D01*
X171799999Y-90988072D01*
X172700001Y-90988072D01*
X172873255Y-90971008D01*
X173039851Y-90920472D01*
X173193387Y-90838405D01*
X173327962Y-90727962D01*
X173438405Y-90593387D01*
X173520472Y-90439851D01*
X173571008Y-90273255D01*
X173588072Y-90100001D01*
X173588072Y-89688506D01*
X173765000Y-89511578D01*
X173765000Y-89577002D01*
X173929844Y-89577002D01*
X173808524Y-89806890D01*
X173853175Y-89954099D01*
X173978359Y-90216920D01*
X174152412Y-90450269D01*
X174368645Y-90645178D01*
X174485534Y-90714805D01*
X174303368Y-90836525D01*
X174096525Y-91043368D01*
X173934010Y-91286589D01*
X173822068Y-91556842D01*
X173765000Y-91843740D01*
X173765000Y-92136260D01*
X173822068Y-92423158D01*
X173934010Y-92693411D01*
X174096525Y-92936632D01*
X174303368Y-93143475D01*
X174485534Y-93265195D01*
X174368645Y-93334822D01*
X174152412Y-93529731D01*
X173978359Y-93763080D01*
X173853175Y-94025901D01*
X173808524Y-94173110D01*
X173929845Y-94403000D01*
X175123000Y-94403000D01*
X175123000Y-94383000D01*
X175377000Y-94383000D01*
X175377000Y-94403000D01*
X176570155Y-94403000D01*
X176691476Y-94173110D01*
X176646825Y-94025901D01*
X176521641Y-93763080D01*
X176347588Y-93529731D01*
X176131355Y-93334822D01*
X176014466Y-93265195D01*
X176196632Y-93143475D01*
X176403475Y-92936632D01*
X176565990Y-92693411D01*
X176677932Y-92423158D01*
X176735000Y-92136260D01*
X176735000Y-91843740D01*
X176677932Y-91556842D01*
X176565990Y-91286589D01*
X176403475Y-91043368D01*
X176196632Y-90836525D01*
X176014466Y-90714805D01*
X176131355Y-90645178D01*
X176347588Y-90450269D01*
X176521641Y-90216920D01*
X176646825Y-89954099D01*
X176691476Y-89806890D01*
X176570155Y-89577000D01*
X175377000Y-89577000D01*
X175377000Y-89597000D01*
X175123000Y-89597000D01*
X175123000Y-89577000D01*
X175103000Y-89577000D01*
X175103000Y-89323000D01*
X175123000Y-89323000D01*
X175123000Y-89303000D01*
X175377000Y-89303000D01*
X175377000Y-89323000D01*
X176570155Y-89323000D01*
X176691476Y-89093110D01*
X176646825Y-88945901D01*
X176521641Y-88683080D01*
X176347588Y-88449731D01*
X176131355Y-88254822D01*
X176014466Y-88185195D01*
X176196632Y-88063475D01*
X176403475Y-87856632D01*
X176565990Y-87613411D01*
X176677932Y-87343158D01*
X176735000Y-87056260D01*
X176735000Y-86763740D01*
X176677932Y-86476842D01*
X176565990Y-86206589D01*
X176403475Y-85963368D01*
X176196632Y-85756525D01*
X176022240Y-85640000D01*
X176196632Y-85523475D01*
X176403475Y-85316632D01*
X176565990Y-85073411D01*
X176677932Y-84803158D01*
X176735000Y-84516260D01*
X176735000Y-84223740D01*
X176677932Y-83936842D01*
X176565990Y-83666589D01*
X176403475Y-83423368D01*
X176196632Y-83216525D01*
X176022240Y-83100000D01*
X176196632Y-82983475D01*
X176403475Y-82776632D01*
X176565990Y-82533411D01*
X176677932Y-82263158D01*
X176735000Y-81976260D01*
X176735000Y-81683740D01*
X176677932Y-81396842D01*
X176565990Y-81126589D01*
X176403475Y-80883368D01*
X176196632Y-80676525D01*
X176022240Y-80560000D01*
X176196632Y-80443475D01*
X176403475Y-80236632D01*
X176565990Y-79993411D01*
X176677932Y-79723158D01*
X176735000Y-79436260D01*
X176735000Y-79143740D01*
X176677932Y-78856842D01*
X176565990Y-78586589D01*
X176403475Y-78343368D01*
X176271620Y-78211513D01*
X176344180Y-78189502D01*
X176454494Y-78130537D01*
X176551185Y-78051185D01*
X176630537Y-77954494D01*
X176689502Y-77844180D01*
X176725812Y-77724482D01*
X176738072Y-77600000D01*
X176738072Y-75900000D01*
X176725812Y-75775518D01*
X176705937Y-75710000D01*
X179290000Y-75710000D01*
X179290001Y-95540000D01*
X176336792Y-95540000D01*
X176347588Y-95530269D01*
X176521641Y-95296920D01*
X176646825Y-95034099D01*
X176691476Y-94886890D01*
X176570155Y-94657000D01*
X175377000Y-94657000D01*
X175377000Y-94677000D01*
X175123000Y-94677000D01*
X175123000Y-94657000D01*
X173929845Y-94657000D01*
X173808524Y-94886890D01*
X173853175Y-95034099D01*
X173978359Y-95296920D01*
X174152412Y-95530269D01*
X174163208Y-95540000D01*
X171832899Y-95540000D01*
X171852550Y-95520349D01*
X172113560Y-95129721D01*
X172293346Y-94695679D01*
X172385000Y-94234902D01*
X172385000Y-93765098D01*
X172293346Y-93304321D01*
X172113560Y-92870279D01*
X171852550Y-92479651D01*
X171520349Y-92147450D01*
X171129721Y-91886440D01*
X170695679Y-91706654D01*
X170234902Y-91615000D01*
X169765098Y-91615000D01*
X169304321Y-91706654D01*
X168870279Y-91886440D01*
X168479651Y-92147450D01*
X168147450Y-92479651D01*
X167886440Y-92870279D01*
X167706654Y-93304321D01*
X167615000Y-93765098D01*
X167615000Y-94234902D01*
X167706654Y-94695679D01*
X167886440Y-95129721D01*
X168147450Y-95520349D01*
X168167101Y-95540000D01*
X118127000Y-95540000D01*
X118127000Y-91642600D01*
X118224728Y-91642600D01*
X118224728Y-93642600D01*
X118236988Y-93767082D01*
X118273298Y-93886780D01*
X118332263Y-93997094D01*
X118411615Y-94093785D01*
X118508306Y-94173137D01*
X118618620Y-94232102D01*
X118738318Y-94268412D01*
X118862800Y-94280672D01*
X119662800Y-94280672D01*
X119787282Y-94268412D01*
X119906980Y-94232102D01*
X120012800Y-94175539D01*
X120118620Y-94232102D01*
X120238318Y-94268412D01*
X120362800Y-94280672D01*
X121162800Y-94280672D01*
X121287282Y-94268412D01*
X121406980Y-94232102D01*
X121512800Y-94175539D01*
X121618620Y-94232102D01*
X121738318Y-94268412D01*
X121862800Y-94280672D01*
X122662800Y-94280672D01*
X122787282Y-94268412D01*
X122906980Y-94232102D01*
X123012800Y-94175539D01*
X123118620Y-94232102D01*
X123238318Y-94268412D01*
X123362800Y-94280672D01*
X124162800Y-94280672D01*
X124287282Y-94268412D01*
X124406980Y-94232102D01*
X124512800Y-94175539D01*
X124618620Y-94232102D01*
X124738318Y-94268412D01*
X124862800Y-94280672D01*
X125662800Y-94280672D01*
X125787282Y-94268412D01*
X125906980Y-94232102D01*
X126012800Y-94175539D01*
X126118620Y-94232102D01*
X126238318Y-94268412D01*
X126362800Y-94280672D01*
X127162800Y-94280672D01*
X127287282Y-94268412D01*
X127406980Y-94232102D01*
X127512800Y-94175539D01*
X127618620Y-94232102D01*
X127738318Y-94268412D01*
X127862800Y-94280672D01*
X128662800Y-94280672D01*
X128787282Y-94268412D01*
X128906980Y-94232102D01*
X129012800Y-94175539D01*
X129118620Y-94232102D01*
X129238318Y-94268412D01*
X129362800Y-94280672D01*
X130162800Y-94280672D01*
X130287282Y-94268412D01*
X130406980Y-94232102D01*
X130517294Y-94173137D01*
X130545486Y-94150000D01*
X134136928Y-94150000D01*
X134149188Y-94274482D01*
X134185498Y-94394180D01*
X134244463Y-94504494D01*
X134323815Y-94601185D01*
X134420506Y-94680537D01*
X134530820Y-94739502D01*
X134650518Y-94775812D01*
X134775000Y-94788072D01*
X134964250Y-94785000D01*
X135123000Y-94626250D01*
X135123000Y-93752000D01*
X135377000Y-93752000D01*
X135377000Y-94626250D01*
X135535750Y-94785000D01*
X135725000Y-94788072D01*
X135849482Y-94775812D01*
X135969180Y-94739502D01*
X136079494Y-94680537D01*
X136176185Y-94601185D01*
X136250000Y-94511241D01*
X136323815Y-94601185D01*
X136420506Y-94680537D01*
X136530820Y-94739502D01*
X136650518Y-94775812D01*
X136775000Y-94788072D01*
X136964250Y-94785000D01*
X137123000Y-94626250D01*
X137123000Y-93752000D01*
X137377000Y-93752000D01*
X137377000Y-94626250D01*
X137535750Y-94785000D01*
X137725000Y-94788072D01*
X137849482Y-94775812D01*
X137969180Y-94739502D01*
X138079494Y-94680537D01*
X138176185Y-94601185D01*
X138255537Y-94504494D01*
X138314502Y-94394180D01*
X138350812Y-94274482D01*
X138363072Y-94150000D01*
X138360000Y-93910750D01*
X138201250Y-93752000D01*
X137377000Y-93752000D01*
X137123000Y-93752000D01*
X136298750Y-93752000D01*
X136250000Y-93800750D01*
X136201250Y-93752000D01*
X135377000Y-93752000D01*
X135123000Y-93752000D01*
X134298750Y-93752000D01*
X134140000Y-93910750D01*
X134136928Y-94150000D01*
X130545486Y-94150000D01*
X130613985Y-94093785D01*
X130693337Y-93997094D01*
X130752302Y-93886780D01*
X130788612Y-93767082D01*
X130800872Y-93642600D01*
X130800872Y-91860672D01*
X131862800Y-91860672D01*
X131987282Y-91848412D01*
X132106980Y-91812102D01*
X132217294Y-91753137D01*
X132313985Y-91673785D01*
X132393337Y-91577094D01*
X132452302Y-91466780D01*
X132488612Y-91347082D01*
X132500872Y-91222600D01*
X132500872Y-90422600D01*
X132488612Y-90298118D01*
X132452302Y-90178420D01*
X132395739Y-90072600D01*
X132452302Y-89966780D01*
X132488612Y-89847082D01*
X132500872Y-89722600D01*
X132500872Y-88922600D01*
X132488612Y-88798118D01*
X132452302Y-88678420D01*
X132395739Y-88572600D01*
X132452302Y-88466780D01*
X132488612Y-88347082D01*
X132500872Y-88222600D01*
X132500872Y-87422600D01*
X132488612Y-87298118D01*
X132452302Y-87178420D01*
X132395739Y-87072600D01*
X132452302Y-86966780D01*
X132488612Y-86847082D01*
X132500872Y-86722600D01*
X132500872Y-85922600D01*
X132488612Y-85798118D01*
X132452302Y-85678420D01*
X132395739Y-85572600D01*
X132452302Y-85466780D01*
X132488612Y-85347082D01*
X132500872Y-85222600D01*
X132500872Y-84422600D01*
X132488612Y-84298118D01*
X132452302Y-84178420D01*
X132395739Y-84072600D01*
X132452302Y-83966780D01*
X132488612Y-83847082D01*
X132500872Y-83722600D01*
X132500872Y-82922600D01*
X132488612Y-82798118D01*
X132452302Y-82678420D01*
X132395739Y-82572600D01*
X132452302Y-82466780D01*
X132488612Y-82347082D01*
X132500872Y-82222600D01*
X132500872Y-81422600D01*
X132488612Y-81298118D01*
X132452302Y-81178420D01*
X132395739Y-81072600D01*
X132452302Y-80966780D01*
X132488612Y-80847082D01*
X132500872Y-80722600D01*
X132500872Y-79922600D01*
X132488612Y-79798118D01*
X132452302Y-79678420D01*
X132393337Y-79568106D01*
X132313985Y-79471415D01*
X132217294Y-79392063D01*
X132106980Y-79333098D01*
X131987282Y-79296788D01*
X131862800Y-79284528D01*
X130800872Y-79284528D01*
X130800872Y-77502600D01*
X130788612Y-77378118D01*
X130752302Y-77258420D01*
X130734439Y-77225000D01*
X133336928Y-77225000D01*
X133349188Y-77349482D01*
X133385498Y-77469180D01*
X133444463Y-77579494D01*
X133523815Y-77676185D01*
X133620506Y-77755537D01*
X133730820Y-77814502D01*
X133850518Y-77850812D01*
X133975000Y-77863072D01*
X134214250Y-77860000D01*
X134373000Y-77701250D01*
X134373000Y-76877000D01*
X133498750Y-76877000D01*
X133340000Y-77035750D01*
X133336928Y-77225000D01*
X130734439Y-77225000D01*
X130693337Y-77148106D01*
X130613985Y-77051415D01*
X130517294Y-76972063D01*
X130406980Y-76913098D01*
X130287282Y-76876788D01*
X130162800Y-76864528D01*
X129362800Y-76864528D01*
X129238318Y-76876788D01*
X129118620Y-76913098D01*
X129012800Y-76969661D01*
X128906980Y-76913098D01*
X128787282Y-76876788D01*
X128662800Y-76864528D01*
X127862800Y-76864528D01*
X127738318Y-76876788D01*
X127618620Y-76913098D01*
X127512800Y-76969661D01*
X127406980Y-76913098D01*
X127287282Y-76876788D01*
X127162800Y-76864528D01*
X126362800Y-76864528D01*
X126238318Y-76876788D01*
X126118620Y-76913098D01*
X126012800Y-76969661D01*
X125906980Y-76913098D01*
X125787282Y-76876788D01*
X125662800Y-76864528D01*
X124862800Y-76864528D01*
X124738318Y-76876788D01*
X124618620Y-76913098D01*
X124512800Y-76969661D01*
X124406980Y-76913098D01*
X124287282Y-76876788D01*
X124162800Y-76864528D01*
X123362800Y-76864528D01*
X123238318Y-76876788D01*
X123118620Y-76913098D01*
X123012800Y-76969661D01*
X122906980Y-76913098D01*
X122787282Y-76876788D01*
X122662800Y-76864528D01*
X121862800Y-76864528D01*
X121738318Y-76876788D01*
X121618620Y-76913098D01*
X121512800Y-76969661D01*
X121406980Y-76913098D01*
X121287282Y-76876788D01*
X121162800Y-76864528D01*
X120362800Y-76864528D01*
X120238318Y-76876788D01*
X120118620Y-76913098D01*
X120012800Y-76969661D01*
X119906980Y-76913098D01*
X119787282Y-76876788D01*
X119662800Y-76864528D01*
X119548550Y-76867600D01*
X119389800Y-77026350D01*
X119389800Y-78375600D01*
X119409800Y-78375600D01*
X119409800Y-78629600D01*
X119389800Y-78629600D01*
X119389800Y-79978850D01*
X119548550Y-80137600D01*
X119662800Y-80140672D01*
X119787282Y-80128412D01*
X119906980Y-80092102D01*
X120012800Y-80035539D01*
X120118620Y-80092102D01*
X120238318Y-80128412D01*
X120362800Y-80140672D01*
X121162800Y-80140672D01*
X121287282Y-80128412D01*
X121406980Y-80092102D01*
X121502801Y-80040884D01*
X121502801Y-80708021D01*
X121465000Y-80898061D01*
X121465000Y-81101939D01*
X121504774Y-81301898D01*
X121582795Y-81490256D01*
X121696063Y-81659774D01*
X121840226Y-81803937D01*
X122009744Y-81917205D01*
X122198102Y-81995226D01*
X122398061Y-82035000D01*
X122601939Y-82035000D01*
X122801898Y-81995226D01*
X122990256Y-81917205D01*
X123159774Y-81803937D01*
X123303937Y-81659774D01*
X123417205Y-81490256D01*
X123495226Y-81301898D01*
X123535000Y-81101939D01*
X123535000Y-80898061D01*
X123495226Y-80698102D01*
X123417205Y-80509744D01*
X123303937Y-80340226D01*
X123159774Y-80196063D01*
X123022800Y-80104540D01*
X123022800Y-80040884D01*
X123118620Y-80092102D01*
X123238318Y-80128412D01*
X123362800Y-80140672D01*
X124162800Y-80140672D01*
X124287282Y-80128412D01*
X124406980Y-80092102D01*
X124502800Y-80040884D01*
X124502801Y-83975468D01*
X124499124Y-84012800D01*
X124502801Y-84050133D01*
X124513798Y-84161786D01*
X124517349Y-84173491D01*
X124557254Y-84305046D01*
X124627826Y-84437076D01*
X124699001Y-84523802D01*
X124722800Y-84552801D01*
X124751798Y-84576599D01*
X124965000Y-84789801D01*
X124965000Y-84851939D01*
X125004774Y-85051898D01*
X125082795Y-85240256D01*
X125196063Y-85409774D01*
X125340226Y-85553937D01*
X125509744Y-85667205D01*
X125698102Y-85745226D01*
X125898061Y-85785000D01*
X126101939Y-85785000D01*
X126301898Y-85745226D01*
X126490256Y-85667205D01*
X126659774Y-85553937D01*
X126803937Y-85409774D01*
X126917205Y-85240256D01*
X126995226Y-85051898D01*
X127035000Y-84851939D01*
X127035000Y-84648061D01*
X126995226Y-84448102D01*
X126921902Y-84271084D01*
X127051898Y-84245226D01*
X127240001Y-84167311D01*
X127240000Y-89840598D01*
X126251798Y-90828801D01*
X126222800Y-90852599D01*
X126199002Y-90881597D01*
X126199001Y-90881598D01*
X126127826Y-90968324D01*
X126068071Y-91080118D01*
X126012800Y-91109661D01*
X125906980Y-91053098D01*
X125787282Y-91016788D01*
X125662800Y-91004528D01*
X124862800Y-91004528D01*
X124738318Y-91016788D01*
X124618620Y-91053098D01*
X124512800Y-91109661D01*
X124406980Y-91053098D01*
X124287282Y-91016788D01*
X124162800Y-91004528D01*
X123362800Y-91004528D01*
X123238318Y-91016788D01*
X123118620Y-91053098D01*
X123012800Y-91109661D01*
X122906980Y-91053098D01*
X122787282Y-91016788D01*
X122662800Y-91004528D01*
X121862800Y-91004528D01*
X121738318Y-91016788D01*
X121618620Y-91053098D01*
X121512800Y-91109661D01*
X121406980Y-91053098D01*
X121287282Y-91016788D01*
X121162800Y-91004528D01*
X120959183Y-91004528D01*
X121053937Y-90909774D01*
X121167205Y-90740256D01*
X121245226Y-90551898D01*
X121285000Y-90351939D01*
X121285000Y-90148061D01*
X121245226Y-89948102D01*
X121167205Y-89759744D01*
X121053937Y-89590226D01*
X120909774Y-89446063D01*
X120740256Y-89332795D01*
X120551898Y-89254774D01*
X120351939Y-89215000D01*
X120148061Y-89215000D01*
X119948102Y-89254774D01*
X119759744Y-89332795D01*
X119590226Y-89446063D01*
X119446063Y-89590226D01*
X119332795Y-89759744D01*
X119254774Y-89948102D01*
X119243465Y-90004956D01*
X118667751Y-90580671D01*
X118633984Y-90608383D01*
X118606271Y-90642151D01*
X118606268Y-90642154D01*
X118523390Y-90743141D01*
X118441212Y-90896887D01*
X118390605Y-91063710D01*
X118373519Y-91237200D01*
X118373575Y-91237767D01*
X118332263Y-91288106D01*
X118273298Y-91398420D01*
X118236988Y-91518118D01*
X118224728Y-91642600D01*
X118127000Y-91642600D01*
X118127000Y-79502600D01*
X118224728Y-79502600D01*
X118236988Y-79627082D01*
X118273298Y-79746780D01*
X118332263Y-79857094D01*
X118411615Y-79953785D01*
X118508306Y-80033137D01*
X118618620Y-80092102D01*
X118738318Y-80128412D01*
X118862800Y-80140672D01*
X118977050Y-80137600D01*
X119135800Y-79978850D01*
X119135800Y-78629600D01*
X118386550Y-78629600D01*
X118227800Y-78788350D01*
X118224728Y-79502600D01*
X118127000Y-79502600D01*
X118127000Y-77502600D01*
X118224728Y-77502600D01*
X118227800Y-78216850D01*
X118386550Y-78375600D01*
X119135800Y-78375600D01*
X119135800Y-77026350D01*
X118977050Y-76867600D01*
X118862800Y-76864528D01*
X118738318Y-76876788D01*
X118618620Y-76913098D01*
X118508306Y-76972063D01*
X118411615Y-77051415D01*
X118332263Y-77148106D01*
X118273298Y-77258420D01*
X118236988Y-77378118D01*
X118224728Y-77502600D01*
X118127000Y-77502600D01*
X118127000Y-75710000D01*
X133684981Y-75710000D01*
X133620506Y-75744463D01*
G37*
X133620506Y-75744463D02*
X133523815Y-75823815D01*
X133444463Y-75920506D01*
X133385498Y-76030820D01*
X133349188Y-76150518D01*
X133336928Y-76275000D01*
X133340000Y-76464250D01*
X133498750Y-76623000D01*
X134373000Y-76623000D01*
X134373000Y-76603000D01*
X134627000Y-76603000D01*
X134627000Y-76623000D01*
X134647000Y-76623000D01*
X134647000Y-76877000D01*
X134627000Y-76877000D01*
X134627000Y-77701250D01*
X134785750Y-77860000D01*
X135025000Y-77863072D01*
X135149482Y-77850812D01*
X135269180Y-77814502D01*
X135379494Y-77755537D01*
X135452161Y-77695901D01*
X135476058Y-77715512D01*
X135627433Y-77796423D01*
X135791684Y-77846248D01*
X135962500Y-77863072D01*
X136537500Y-77863072D01*
X136708316Y-77846248D01*
X136872567Y-77796423D01*
X137023942Y-77715512D01*
X137156623Y-77606623D01*
X137235920Y-77510000D01*
X137591582Y-77510000D01*
X137675385Y-77612115D01*
X137805225Y-77718671D01*
X137953358Y-77797850D01*
X138114092Y-77846608D01*
X138281250Y-77863072D01*
X138718750Y-77863072D01*
X138822328Y-77852870D01*
X137563998Y-79111201D01*
X137535000Y-79134999D01*
X137511202Y-79163997D01*
X137511201Y-79163998D01*
X137440026Y-79250724D01*
X137369454Y-79382754D01*
X137353224Y-79436260D01*
X137333101Y-79502600D01*
X137325998Y-79526015D01*
X137311324Y-79675000D01*
X137315001Y-79712332D01*
X137315001Y-80500224D01*
X137301132Y-80501590D01*
X137157985Y-80545013D01*
X137026060Y-80615529D01*
X136910427Y-80710427D01*
X136815529Y-80826060D01*
X136745013Y-80957985D01*
X136701590Y-81101132D01*
X136686928Y-81250000D01*
X136686928Y-81500000D01*
X136701590Y-81648868D01*
X136739852Y-81775000D01*
X136701590Y-81901132D01*
X136686928Y-82050000D01*
X136686928Y-82300000D01*
X136701590Y-82448868D01*
X136739852Y-82575000D01*
X136701590Y-82701132D01*
X136686928Y-82850000D01*
X136686928Y-83015000D01*
X136669382Y-83015000D01*
X136667205Y-83009744D01*
X136553937Y-82840226D01*
X136409774Y-82696063D01*
X136240256Y-82582795D01*
X136051898Y-82504774D01*
X135851939Y-82465000D01*
X135648061Y-82465000D01*
X135448102Y-82504774D01*
X135259744Y-82582795D01*
X135090226Y-82696063D01*
X134946063Y-82840226D01*
X134832795Y-83009744D01*
X134754774Y-83198102D01*
X134715000Y-83398061D01*
X134715000Y-83601939D01*
X134754774Y-83801898D01*
X134822028Y-83964261D01*
X134696063Y-84090226D01*
X134582795Y-84259744D01*
X134504774Y-84448102D01*
X134465000Y-84648061D01*
X134465000Y-84851939D01*
X134504774Y-85051898D01*
X134582795Y-85240256D01*
X134696063Y-85409774D01*
X134840226Y-85553937D01*
X135009744Y-85667205D01*
X135198102Y-85745226D01*
X135398061Y-85785000D01*
X135601939Y-85785000D01*
X135801898Y-85745226D01*
X135990256Y-85667205D01*
X136159774Y-85553937D01*
X136303937Y-85409774D01*
X136353899Y-85335000D01*
X136686928Y-85335000D01*
X136686928Y-85500000D01*
X136701590Y-85648868D01*
X136739852Y-85775000D01*
X136701590Y-85901132D01*
X136686928Y-86050000D01*
X136686928Y-86300000D01*
X136701590Y-86448868D01*
X136739852Y-86575000D01*
X136701590Y-86701132D01*
X136686928Y-86850000D01*
X136686928Y-87100000D01*
X136701590Y-87248868D01*
X136745013Y-87392015D01*
X136815529Y-87523940D01*
X136910427Y-87639573D01*
X137026060Y-87734471D01*
X137157985Y-87804987D01*
X137301132Y-87848410D01*
X137450000Y-87863072D01*
X138561928Y-87863072D01*
X138561928Y-88975000D01*
X138576590Y-89123868D01*
X138620013Y-89267015D01*
X138630979Y-89287531D01*
X138551898Y-89254774D01*
X138351939Y-89215000D01*
X138148061Y-89215000D01*
X137948102Y-89254774D01*
X137759744Y-89332795D01*
X137590226Y-89446063D01*
X137446063Y-89590226D01*
X137332795Y-89759744D01*
X137254774Y-89948102D01*
X137215000Y-90148061D01*
X137215000Y-90210198D01*
X136738998Y-90686201D01*
X136710000Y-90709999D01*
X136686202Y-90738997D01*
X136686201Y-90738998D01*
X136635187Y-90801158D01*
X136526058Y-90859488D01*
X136393377Y-90968377D01*
X136284488Y-91101058D01*
X136277036Y-91115000D01*
X136222964Y-91115000D01*
X136215512Y-91101058D01*
X136106623Y-90968377D01*
X135973942Y-90859488D01*
X135822567Y-90778577D01*
X135658316Y-90728752D01*
X135487500Y-90711928D01*
X135012500Y-90711928D01*
X134841684Y-90728752D01*
X134677433Y-90778577D01*
X134526058Y-90859488D01*
X134393377Y-90968377D01*
X134284488Y-91101058D01*
X134203577Y-91252433D01*
X134153752Y-91416684D01*
X134136928Y-91587500D01*
X134136928Y-92162500D01*
X134153752Y-92333316D01*
X134203577Y-92497567D01*
X134284488Y-92648942D01*
X134304099Y-92672839D01*
X134244463Y-92745506D01*
X134185498Y-92855820D01*
X134149188Y-92975518D01*
X134136928Y-93100000D01*
X134140000Y-93339250D01*
X134298750Y-93498000D01*
X135123000Y-93498000D01*
X135123000Y-93478000D01*
X135377000Y-93478000D01*
X135377000Y-93498000D01*
X136201250Y-93498000D01*
X136250000Y-93449250D01*
X136298750Y-93498000D01*
X137123000Y-93498000D01*
X137123000Y-93478000D01*
X137377000Y-93478000D01*
X137377000Y-93498000D01*
X138201250Y-93498000D01*
X138360000Y-93339250D01*
X138363072Y-93100000D01*
X138350812Y-92975518D01*
X138314502Y-92855820D01*
X138255537Y-92745506D01*
X138195901Y-92672839D01*
X138215512Y-92648942D01*
X138296423Y-92497567D01*
X138346248Y-92333316D01*
X138363072Y-92162500D01*
X138363072Y-91587500D01*
X138346248Y-91416684D01*
X138306302Y-91285000D01*
X138351939Y-91285000D01*
X138551898Y-91245226D01*
X138740256Y-91167205D01*
X138909774Y-91053937D01*
X138953711Y-91010000D01*
X140212678Y-91010000D01*
X140240000Y-91012691D01*
X140240000Y-92011928D01*
X140150000Y-92011928D01*
X140025518Y-92024188D01*
X139905820Y-92060498D01*
X139795506Y-92119463D01*
X139698815Y-92198815D01*
X139619463Y-92295506D01*
X139560498Y-92405820D01*
X139524188Y-92525518D01*
X139511928Y-92650000D01*
X139511928Y-94350000D01*
X139524188Y-94474482D01*
X139560498Y-94594180D01*
X139619463Y-94704494D01*
X139698815Y-94801185D01*
X139795506Y-94880537D01*
X139905820Y-94939502D01*
X140025518Y-94975812D01*
X140150000Y-94988072D01*
X141850000Y-94988072D01*
X141974482Y-94975812D01*
X142094180Y-94939502D01*
X142204494Y-94880537D01*
X142301185Y-94801185D01*
X142380537Y-94704494D01*
X142439502Y-94594180D01*
X142461513Y-94521620D01*
X142593368Y-94653475D01*
X142836589Y-94815990D01*
X143106842Y-94927932D01*
X143393740Y-94985000D01*
X143686260Y-94985000D01*
X143973158Y-94927932D01*
X144243411Y-94815990D01*
X144486632Y-94653475D01*
X144693475Y-94446632D01*
X144815195Y-94264466D01*
X144884822Y-94381355D01*
X145079731Y-94597588D01*
X145313080Y-94771641D01*
X145575901Y-94896825D01*
X145723110Y-94941476D01*
X145953000Y-94820155D01*
X145953000Y-93627000D01*
X146207000Y-93627000D01*
X146207000Y-94820155D01*
X146436890Y-94941476D01*
X146584099Y-94896825D01*
X146846920Y-94771641D01*
X147080269Y-94597588D01*
X147275178Y-94381355D01*
X147424157Y-94131252D01*
X147521481Y-93856891D01*
X148808519Y-93856891D01*
X148905843Y-94131252D01*
X149054822Y-94381355D01*
X149249731Y-94597588D01*
X149483080Y-94771641D01*
X149745901Y-94896825D01*
X149893110Y-94941476D01*
X150123000Y-94820155D01*
X150123000Y-93627000D01*
X148929186Y-93627000D01*
X148808519Y-93856891D01*
X147521481Y-93856891D01*
X147400814Y-93627000D01*
X146207000Y-93627000D01*
X145953000Y-93627000D01*
X145933000Y-93627000D01*
X145933000Y-93373000D01*
X145953000Y-93373000D01*
X145953000Y-92179845D01*
X146207000Y-92179845D01*
X146207000Y-93373000D01*
X147400814Y-93373000D01*
X147521481Y-93143109D01*
X148808519Y-93143109D01*
X148929186Y-93373000D01*
X150123000Y-93373000D01*
X150123000Y-92179845D01*
X150377000Y-92179845D01*
X150377000Y-93373000D01*
X150397000Y-93373000D01*
X150397000Y-93627000D01*
X150377000Y-93627000D01*
X150377000Y-94820155D01*
X150606890Y-94941476D01*
X150754099Y-94896825D01*
X151016920Y-94771641D01*
X151250269Y-94597588D01*
X151326034Y-94513534D01*
X151350498Y-94594180D01*
X151409463Y-94704494D01*
X151488815Y-94801185D01*
X151585506Y-94880537D01*
X151695820Y-94939502D01*
X151815518Y-94975812D01*
X151940000Y-94988072D01*
X153640000Y-94988072D01*
X153764482Y-94975812D01*
X153884180Y-94939502D01*
X153994494Y-94880537D01*
X154091185Y-94801185D01*
X154170537Y-94704494D01*
X154229502Y-94594180D01*
X154265812Y-94474482D01*
X154274440Y-94386874D01*
X154293469Y-94385000D01*
X154293477Y-94385000D01*
X154423490Y-94372195D01*
X154590313Y-94321589D01*
X154744059Y-94239411D01*
X154878817Y-94128817D01*
X154906534Y-94095044D01*
X156616579Y-92385000D01*
X157486928Y-92385000D01*
X157486928Y-92750000D01*
X157499188Y-92874482D01*
X157535498Y-92994180D01*
X157594463Y-93104494D01*
X157658014Y-93181932D01*
X157533517Y-93206696D01*
X157336060Y-93288485D01*
X157158353Y-93407225D01*
X157007225Y-93558353D01*
X156888485Y-93736060D01*
X156806696Y-93933517D01*
X156765000Y-94143137D01*
X156765000Y-94356863D01*
X156806696Y-94566483D01*
X156888485Y-94763940D01*
X157007225Y-94941647D01*
X157158353Y-95092775D01*
X157336060Y-95211515D01*
X157533517Y-95293304D01*
X157743137Y-95335000D01*
X157956863Y-95335000D01*
X158166483Y-95293304D01*
X158363940Y-95211515D01*
X158541647Y-95092775D01*
X158692775Y-94941647D01*
X158811515Y-94763940D01*
X158893304Y-94566483D01*
X158935000Y-94356863D01*
X158935000Y-94143137D01*
X158893304Y-93933517D01*
X158811515Y-93736060D01*
X158692775Y-93558353D01*
X158541647Y-93407225D01*
X158512983Y-93388072D01*
X159375000Y-93388072D01*
X159499482Y-93375812D01*
X159619180Y-93339502D01*
X159729494Y-93280537D01*
X159826185Y-93201185D01*
X159905537Y-93104494D01*
X159964502Y-92994180D01*
X160000000Y-92877159D01*
X160035498Y-92994180D01*
X160094463Y-93104494D01*
X160173815Y-93201185D01*
X160270506Y-93280537D01*
X160380820Y-93339502D01*
X160500518Y-93375812D01*
X160625000Y-93388072D01*
X161875000Y-93388072D01*
X161999482Y-93375812D01*
X162119180Y-93339502D01*
X162229494Y-93280537D01*
X162326185Y-93201185D01*
X162405537Y-93104494D01*
X162464502Y-92994180D01*
X162500000Y-92877159D01*
X162535498Y-92994180D01*
X162594463Y-93104494D01*
X162673815Y-93201185D01*
X162770506Y-93280537D01*
X162880820Y-93339502D01*
X163000518Y-93375812D01*
X163125000Y-93388072D01*
X163987017Y-93388072D01*
X163958353Y-93407225D01*
X163807225Y-93558353D01*
X163688485Y-93736060D01*
X163606696Y-93933517D01*
X163565000Y-94143137D01*
X163565000Y-94356863D01*
X163606696Y-94566483D01*
X163688485Y-94763940D01*
X163807225Y-94941647D01*
X163958353Y-95092775D01*
X164136060Y-95211515D01*
X164333517Y-95293304D01*
X164543137Y-95335000D01*
X164756863Y-95335000D01*
X164966483Y-95293304D01*
X165163940Y-95211515D01*
X165341647Y-95092775D01*
X165492775Y-94941647D01*
X165611515Y-94763940D01*
X165693304Y-94566483D01*
X165735000Y-94356863D01*
X165735000Y-94143137D01*
X165693304Y-93933517D01*
X165611515Y-93736060D01*
X165492775Y-93558353D01*
X165341647Y-93407225D01*
X165163940Y-93288485D01*
X164966483Y-93206696D01*
X164841986Y-93181932D01*
X164905537Y-93104494D01*
X164964502Y-92994180D01*
X165000812Y-92874482D01*
X165013072Y-92750000D01*
X165013072Y-90250000D01*
X165000812Y-90125518D01*
X164964502Y-90005820D01*
X164905537Y-89895506D01*
X164826185Y-89798815D01*
X164729494Y-89719463D01*
X164619180Y-89660498D01*
X164499482Y-89624188D01*
X164375000Y-89611928D01*
X163125000Y-89611928D01*
X163000518Y-89624188D01*
X162880820Y-89660498D01*
X162770506Y-89719463D01*
X162673815Y-89798815D01*
X162594463Y-89895506D01*
X162535498Y-90005820D01*
X162500000Y-90122841D01*
X162464502Y-90005820D01*
X162405537Y-89895506D01*
X162326185Y-89798815D01*
X162229494Y-89719463D01*
X162119180Y-89660498D01*
X161999482Y-89624188D01*
X161875000Y-89611928D01*
X161867540Y-89611928D01*
X161845049Y-89593470D01*
X160938520Y-88686941D01*
X160950000Y-88688072D01*
X164550000Y-88688072D01*
X164674482Y-88675812D01*
X164794180Y-88639502D01*
X164904494Y-88580537D01*
X165001185Y-88501185D01*
X165080537Y-88404494D01*
X165139502Y-88294180D01*
X165175812Y-88174482D01*
X165188072Y-88050000D01*
X165188072Y-87475000D01*
X165731928Y-87475000D01*
X165735000Y-87514250D01*
X165893750Y-87673000D01*
X167023000Y-87673000D01*
X167023000Y-86998750D01*
X166864250Y-86840000D01*
X166370000Y-86836928D01*
X166245518Y-86849188D01*
X166125820Y-86885498D01*
X166015506Y-86944463D01*
X165918815Y-87023815D01*
X165839463Y-87120506D01*
X165780498Y-87230820D01*
X165744188Y-87350518D01*
X165731928Y-87475000D01*
X165188072Y-87475000D01*
X165188072Y-86550000D01*
X165175812Y-86425518D01*
X165139502Y-86305820D01*
X165080537Y-86195506D01*
X165001185Y-86098815D01*
X164904494Y-86019463D01*
X164794180Y-85960498D01*
X164674482Y-85924188D01*
X164550000Y-85911928D01*
X162436729Y-85911928D01*
X162162873Y-85638072D01*
X164550000Y-85638072D01*
X164674482Y-85625812D01*
X164794180Y-85589502D01*
X164904494Y-85530537D01*
X165001185Y-85451185D01*
X165080537Y-85354494D01*
X165139502Y-85244180D01*
X165175812Y-85124482D01*
X165188072Y-85000000D01*
X165188072Y-83500000D01*
X165175812Y-83375518D01*
X165139502Y-83255820D01*
X165080537Y-83145506D01*
X165001185Y-83048815D01*
X164904494Y-82969463D01*
X164794180Y-82910498D01*
X164674482Y-82874188D01*
X164550000Y-82861928D01*
X161885000Y-82861928D01*
X161885000Y-82624369D01*
X161906623Y-82606623D01*
X162015512Y-82473942D01*
X162096423Y-82322567D01*
X162146248Y-82158316D01*
X162163072Y-81987500D01*
X162163072Y-81885000D01*
X162961546Y-81885000D01*
X163009744Y-81917205D01*
X163198102Y-81995226D01*
X163398061Y-82035000D01*
X163601939Y-82035000D01*
X163652212Y-82025000D01*
X165631928Y-82025000D01*
X165635000Y-82064250D01*
X165793750Y-82223000D01*
X166923000Y-82223000D01*
X166923000Y-81548750D01*
X166764250Y-81390000D01*
X166270000Y-81386928D01*
X166145518Y-81399188D01*
X166025820Y-81435498D01*
X165915506Y-81494463D01*
X165818815Y-81573815D01*
X165739463Y-81670506D01*
X165680498Y-81780820D01*
X165644188Y-81900518D01*
X165631928Y-82025000D01*
X163652212Y-82025000D01*
X163801898Y-81995226D01*
X163990256Y-81917205D01*
X164159774Y-81803937D01*
X164303937Y-81659774D01*
X164417205Y-81490256D01*
X164495226Y-81301898D01*
X164535000Y-81101939D01*
X164535000Y-80898061D01*
X164495226Y-80698102D01*
X164417205Y-80509744D01*
X164303937Y-80340226D01*
X164159774Y-80196063D01*
X163990256Y-80082795D01*
X163801898Y-80004774D01*
X163601939Y-79965000D01*
X163398061Y-79965000D01*
X163198102Y-80004774D01*
X163009744Y-80082795D01*
X162961546Y-80115000D01*
X162163072Y-80115000D01*
X162163072Y-79762500D01*
X162146248Y-79591684D01*
X162096423Y-79427433D01*
X162015512Y-79276058D01*
X161906623Y-79143377D01*
X161773942Y-79034488D01*
X161622567Y-78953577D01*
X161458316Y-78903752D01*
X161287500Y-78886928D01*
X160712500Y-78886928D01*
X160541684Y-78903752D01*
X160377433Y-78953577D01*
X160226058Y-79034488D01*
X160202161Y-79054099D01*
X160129494Y-78994463D01*
X160019180Y-78935498D01*
X159899482Y-78899188D01*
X159775000Y-78886928D01*
X159535750Y-78890000D01*
X159377000Y-79048750D01*
X159377000Y-79873000D01*
X159397000Y-79873000D01*
X159397000Y-80127000D01*
X159377000Y-80127000D01*
X159377000Y-81623000D01*
X159397000Y-81623000D01*
X159397000Y-81877000D01*
X159377000Y-81877000D01*
X159377000Y-82701250D01*
X159535750Y-82860000D01*
X159775000Y-82863072D01*
X159899482Y-82850812D01*
X160019180Y-82814502D01*
X160115000Y-82763284D01*
X160115001Y-83415650D01*
X160101185Y-83398815D01*
X160004494Y-83319463D01*
X159894180Y-83260498D01*
X159774482Y-83224188D01*
X159650000Y-83211928D01*
X158250000Y-83211928D01*
X158125518Y-83224188D01*
X158073393Y-83240000D01*
X155426607Y-83240000D01*
X155374482Y-83224188D01*
X155250000Y-83211928D01*
X153850000Y-83211928D01*
X153725518Y-83224188D01*
X153605820Y-83260498D01*
X153495506Y-83319463D01*
X153398815Y-83398815D01*
X153319463Y-83495506D01*
X153260498Y-83605820D01*
X153224188Y-83725518D01*
X153211928Y-83850000D01*
X153211928Y-84150000D01*
X153221777Y-84250000D01*
X153211928Y-84350000D01*
X153211928Y-84650000D01*
X153220792Y-84740000D01*
X152939802Y-84740000D01*
X152863072Y-84663270D01*
X152863072Y-84337500D01*
X152846248Y-84166684D01*
X152796423Y-84002433D01*
X152715512Y-83851058D01*
X152695901Y-83827161D01*
X152755537Y-83754494D01*
X152814502Y-83644180D01*
X152850812Y-83524482D01*
X152863072Y-83400000D01*
X152860000Y-83160750D01*
X152701250Y-83002000D01*
X151877000Y-83002000D01*
X151877000Y-83022000D01*
X151623000Y-83022000D01*
X151623000Y-83002000D01*
X150798750Y-83002000D01*
X150640000Y-83160750D01*
X150636928Y-83400000D01*
X150649188Y-83524482D01*
X150685498Y-83644180D01*
X150744463Y-83754494D01*
X150804099Y-83827161D01*
X150784488Y-83851058D01*
X150703577Y-84002433D01*
X150653752Y-84166684D01*
X150636928Y-84337500D01*
X150636928Y-84912500D01*
X150653752Y-85083316D01*
X150703577Y-85247567D01*
X150784488Y-85398942D01*
X150893377Y-85531623D01*
X150990000Y-85610920D01*
X150990001Y-85764080D01*
X150893377Y-85843377D01*
X150784488Y-85976058D01*
X150703577Y-86127433D01*
X150653752Y-86291684D01*
X150636928Y-86462500D01*
X150636928Y-87037500D01*
X150653752Y-87208316D01*
X150703577Y-87372567D01*
X150784488Y-87523942D01*
X150867425Y-87625000D01*
X150784488Y-87726058D01*
X150703577Y-87877433D01*
X150653752Y-88041684D01*
X150636928Y-88212500D01*
X150636928Y-88787500D01*
X150653752Y-88958316D01*
X150703577Y-89122567D01*
X150784488Y-89273942D01*
X150893377Y-89406623D01*
X151026058Y-89515512D01*
X151177433Y-89596423D01*
X151341684Y-89646248D01*
X151365000Y-89648544D01*
X151365000Y-89711545D01*
X151332795Y-89759744D01*
X151254774Y-89948102D01*
X151215000Y-90148061D01*
X151215000Y-90351939D01*
X151254774Y-90551898D01*
X151332795Y-90740256D01*
X151446063Y-90909774D01*
X151590226Y-91053937D01*
X151759744Y-91167205D01*
X151948102Y-91245226D01*
X152148061Y-91285000D01*
X152351939Y-91285000D01*
X152551898Y-91245226D01*
X152740256Y-91167205D01*
X152788454Y-91135000D01*
X152943478Y-91135000D01*
X153073491Y-91122195D01*
X153240314Y-91071589D01*
X153394060Y-90989411D01*
X153528818Y-90878817D01*
X153626329Y-90760000D01*
X153639080Y-90760000D01*
X153718377Y-90856623D01*
X153851058Y-90965512D01*
X154002433Y-91046423D01*
X154166684Y-91096248D01*
X154337500Y-91113072D01*
X154912500Y-91113072D01*
X155083316Y-91096248D01*
X155247567Y-91046423D01*
X155398942Y-90965512D01*
X155422839Y-90945901D01*
X155494066Y-91004355D01*
X154181815Y-92316606D01*
X154170537Y-92295506D01*
X154091185Y-92198815D01*
X153994494Y-92119463D01*
X153884180Y-92060498D01*
X153764482Y-92024188D01*
X153640000Y-92011928D01*
X151940000Y-92011928D01*
X151815518Y-92024188D01*
X151695820Y-92060498D01*
X151585506Y-92119463D01*
X151488815Y-92198815D01*
X151409463Y-92295506D01*
X151350498Y-92405820D01*
X151326034Y-92486466D01*
X151250269Y-92402412D01*
X151016920Y-92228359D01*
X150754099Y-92103175D01*
X150606890Y-92058524D01*
X150377000Y-92179845D01*
X150123000Y-92179845D01*
X149893110Y-92058524D01*
X149745901Y-92103175D01*
X149483080Y-92228359D01*
X149249731Y-92402412D01*
X149054822Y-92618645D01*
X148905843Y-92868748D01*
X148808519Y-93143109D01*
X147521481Y-93143109D01*
X147424157Y-92868748D01*
X147275178Y-92618645D01*
X147080269Y-92402412D01*
X146846920Y-92228359D01*
X146584099Y-92103175D01*
X146436890Y-92058524D01*
X146207000Y-92179845D01*
X145953000Y-92179845D01*
X145723110Y-92058524D01*
X145575901Y-92103175D01*
X145313080Y-92228359D01*
X145079731Y-92402412D01*
X144884822Y-92618645D01*
X144815195Y-92735534D01*
X144693475Y-92553368D01*
X144486632Y-92346525D01*
X144243411Y-92184010D01*
X144210000Y-92170171D01*
X144210000Y-89738072D01*
X144375000Y-89738072D01*
X144523868Y-89723410D01*
X144650000Y-89685148D01*
X144776132Y-89723410D01*
X144925000Y-89738072D01*
X145175000Y-89738072D01*
X145323868Y-89723410D01*
X145467015Y-89679987D01*
X145598940Y-89609471D01*
X145714573Y-89514573D01*
X145809471Y-89398940D01*
X145879987Y-89267015D01*
X145923410Y-89123868D01*
X145938072Y-88975000D01*
X145938072Y-87863072D01*
X147050000Y-87863072D01*
X147198868Y-87848410D01*
X147342015Y-87804987D01*
X147473940Y-87734471D01*
X147589573Y-87639573D01*
X147684471Y-87523940D01*
X147754987Y-87392015D01*
X147798410Y-87248868D01*
X147813072Y-87100000D01*
X147813072Y-86850000D01*
X147798410Y-86701132D01*
X147760148Y-86575000D01*
X147798410Y-86448868D01*
X147813072Y-86300000D01*
X147813072Y-86050000D01*
X147798410Y-85901132D01*
X147760148Y-85775000D01*
X147798410Y-85648868D01*
X147813072Y-85500000D01*
X147813072Y-85250000D01*
X147798410Y-85101132D01*
X147760148Y-84975000D01*
X147798410Y-84848868D01*
X147813072Y-84700000D01*
X147813072Y-84450000D01*
X147798410Y-84301132D01*
X147760148Y-84175000D01*
X147798410Y-84048868D01*
X147813072Y-83900000D01*
X147813072Y-83650000D01*
X147798410Y-83501132D01*
X147760148Y-83375000D01*
X147798410Y-83248868D01*
X147813072Y-83100000D01*
X147813072Y-82850000D01*
X147798410Y-82701132D01*
X147760148Y-82575000D01*
X147798410Y-82448868D01*
X147808147Y-82350000D01*
X150636928Y-82350000D01*
X150640000Y-82589250D01*
X150798750Y-82748000D01*
X151623000Y-82748000D01*
X151623000Y-81873750D01*
X151877000Y-81873750D01*
X151877000Y-82748000D01*
X152701250Y-82748000D01*
X152860000Y-82589250D01*
X152863072Y-82350000D01*
X152850812Y-82225518D01*
X152850655Y-82225000D01*
X158086928Y-82225000D01*
X158099188Y-82349482D01*
X158135498Y-82469180D01*
X158194463Y-82579494D01*
X158273815Y-82676185D01*
X158370506Y-82755537D01*
X158480820Y-82814502D01*
X158600518Y-82850812D01*
X158725000Y-82863072D01*
X158964250Y-82860000D01*
X159123000Y-82701250D01*
X159123000Y-81877000D01*
X158248750Y-81877000D01*
X158090000Y-82035750D01*
X158086928Y-82225000D01*
X152850655Y-82225000D01*
X152814502Y-82105820D01*
X152755537Y-81995506D01*
X152676185Y-81898815D01*
X152579494Y-81819463D01*
X152469180Y-81760498D01*
X152349482Y-81724188D01*
X152225000Y-81711928D01*
X152035750Y-81715000D01*
X151877000Y-81873750D01*
X151623000Y-81873750D01*
X151464250Y-81715000D01*
X151275000Y-81711928D01*
X151150518Y-81724188D01*
X151030820Y-81760498D01*
X150920506Y-81819463D01*
X150823815Y-81898815D01*
X150744463Y-81995506D01*
X150685498Y-82105820D01*
X150649188Y-82225518D01*
X150636928Y-82350000D01*
X147808147Y-82350000D01*
X147813072Y-82300000D01*
X147813072Y-82050000D01*
X147798410Y-81901132D01*
X147760148Y-81775000D01*
X147798410Y-81648868D01*
X147813072Y-81500000D01*
X147813072Y-81250000D01*
X147798410Y-81101132D01*
X147754987Y-80957985D01*
X147684471Y-80826060D01*
X147589573Y-80710427D01*
X147473940Y-80615529D01*
X147342015Y-80545013D01*
X147198868Y-80501590D01*
X147050000Y-80486928D01*
X145938072Y-80486928D01*
X145938072Y-80475000D01*
X158086928Y-80475000D01*
X158099188Y-80599482D01*
X158135498Y-80719180D01*
X158194463Y-80829494D01*
X158231809Y-80875000D01*
X158194463Y-80920506D01*
X158135498Y-81030820D01*
X158099188Y-81150518D01*
X158086928Y-81275000D01*
X158090000Y-81464250D01*
X158248750Y-81623000D01*
X159123000Y-81623000D01*
X159123000Y-80127000D01*
X158248750Y-80127000D01*
X158090000Y-80285750D01*
X158086928Y-80475000D01*
X145938072Y-80475000D01*
X145938072Y-79525000D01*
X158086928Y-79525000D01*
X158090000Y-79714250D01*
X158248750Y-79873000D01*
X159123000Y-79873000D01*
X159123000Y-79048750D01*
X158964250Y-78890000D01*
X158725000Y-78886928D01*
X158600518Y-78899188D01*
X158480820Y-78935498D01*
X158370506Y-78994463D01*
X158273815Y-79073815D01*
X158194463Y-79170506D01*
X158135498Y-79280820D01*
X158099188Y-79400518D01*
X158086928Y-79525000D01*
X145938072Y-79525000D01*
X145938072Y-79375000D01*
X145934155Y-79335232D01*
X146101939Y-79335232D01*
X146301898Y-79295458D01*
X146490256Y-79217437D01*
X146659774Y-79104169D01*
X146803937Y-78960006D01*
X146917205Y-78790488D01*
X146995226Y-78602130D01*
X147035000Y-78402171D01*
X147035000Y-78198293D01*
X146995226Y-77998334D01*
X146917205Y-77809976D01*
X146803937Y-77640458D01*
X146659774Y-77496295D01*
X146512757Y-77398061D01*
X159465000Y-77398061D01*
X159465000Y-77601939D01*
X159504774Y-77801898D01*
X159582795Y-77990256D01*
X159696063Y-78159774D01*
X159840226Y-78303937D01*
X160009744Y-78417205D01*
X160198102Y-78495226D01*
X160398061Y-78535000D01*
X160601939Y-78535000D01*
X160801898Y-78495226D01*
X160990256Y-78417205D01*
X161159774Y-78303937D01*
X161303937Y-78159774D01*
X161417205Y-77990256D01*
X161495226Y-77801898D01*
X161535000Y-77601939D01*
X161535000Y-77398061D01*
X161495226Y-77198102D01*
X161417205Y-77009744D01*
X161303937Y-76840226D01*
X161159774Y-76696063D01*
X161087934Y-76648061D01*
X164965000Y-76648061D01*
X164965000Y-76851939D01*
X165004774Y-77051898D01*
X165082795Y-77240256D01*
X165196063Y-77409774D01*
X165240000Y-77453711D01*
X165240000Y-77537332D01*
X165240001Y-77537342D01*
X165240000Y-78796289D01*
X165196063Y-78840226D01*
X165082795Y-79009744D01*
X165004774Y-79198102D01*
X164965000Y-79398061D01*
X164965000Y-79601939D01*
X165004774Y-79801898D01*
X165082795Y-79990256D01*
X165196063Y-80159774D01*
X165340226Y-80303937D01*
X165509744Y-80417205D01*
X165698102Y-80495226D01*
X165898061Y-80535000D01*
X166101939Y-80535000D01*
X166301898Y-80495226D01*
X166490256Y-80417205D01*
X166659774Y-80303937D01*
X166803937Y-80159774D01*
X166917205Y-79990256D01*
X166995226Y-79801898D01*
X167035000Y-79601939D01*
X167035000Y-79398061D01*
X166995226Y-79198102D01*
X166917205Y-79009744D01*
X166803937Y-78840226D01*
X166760000Y-78796289D01*
X166760000Y-77453711D01*
X166803937Y-77409774D01*
X166917205Y-77240256D01*
X166995226Y-77051898D01*
X167035000Y-76851939D01*
X167035000Y-76648061D01*
X166995226Y-76448102D01*
X166917205Y-76259744D01*
X166803937Y-76090226D01*
X166659774Y-75946063D01*
X166490256Y-75832795D01*
X166301898Y-75754774D01*
X166101939Y-75715000D01*
X165898061Y-75715000D01*
X165698102Y-75754774D01*
X165509744Y-75832795D01*
X165340226Y-75946063D01*
X165196063Y-76090226D01*
X165082795Y-76259744D01*
X165004774Y-76448102D01*
X164965000Y-76648061D01*
X161087934Y-76648061D01*
X160990256Y-76582795D01*
X160801898Y-76504774D01*
X160601939Y-76465000D01*
X160398061Y-76465000D01*
X160198102Y-76504774D01*
X160009744Y-76582795D01*
X159840226Y-76696063D01*
X159696063Y-76840226D01*
X159582795Y-77009744D01*
X159504774Y-77198102D01*
X159465000Y-77398061D01*
X146512757Y-77398061D01*
X146490256Y-77383027D01*
X146301898Y-77305006D01*
X146101939Y-77265232D01*
X146039801Y-77265232D01*
X146013571Y-77239002D01*
X145989769Y-77209999D01*
X145874044Y-77115026D01*
X145742015Y-77044454D01*
X145598754Y-77000997D01*
X145487101Y-76990000D01*
X145487090Y-76990000D01*
X145449768Y-76986324D01*
X145412446Y-76990000D01*
X144787325Y-76990000D01*
X144750803Y-76986403D01*
X144703399Y-76915458D01*
X144559236Y-76771295D01*
X144389718Y-76658027D01*
X144266711Y-76607076D01*
X144232573Y-76435449D01*
X144154552Y-76247091D01*
X144041284Y-76077573D01*
X143897121Y-75933410D01*
X143727603Y-75820142D01*
X143539245Y-75742121D01*
X143502529Y-75734818D01*
X143497593Y-75710000D01*
X168167101Y-75710000D01*
X168147450Y-75729651D01*
X167886440Y-76120279D01*
X167706654Y-76554321D01*
X167615000Y-77015098D01*
X167615000Y-77484902D01*
X167706654Y-77945679D01*
X167886440Y-78379721D01*
X168147450Y-78770349D01*
X168479651Y-79102550D01*
X168870279Y-79363560D01*
X169304321Y-79543346D01*
X169765098Y-79635000D01*
X170234902Y-79635000D01*
X170695679Y-79543346D01*
X171129721Y-79363560D01*
X171520349Y-79102550D01*
X171852550Y-78770349D01*
X172113560Y-78379721D01*
X172293346Y-77945679D01*
X172385000Y-77484902D01*
X172385000Y-77015098D01*
X172293346Y-76554321D01*
X172113560Y-76120279D01*
X171852550Y-75729651D01*
X171832899Y-75710000D01*
X173794063Y-75710000D01*
X173774188Y-75775518D01*
X173761928Y-75900000D01*
X173761928Y-76986493D01*
X171654956Y-79093466D01*
X171621183Y-79121183D01*
X171510589Y-79255942D01*
X171428411Y-79409688D01*
X171400226Y-79502600D01*
X171378044Y-79575724D01*
X171377805Y-79576511D01*
X171365000Y-79706524D01*
X171365000Y-79706531D01*
X171360719Y-79750000D01*
X171365000Y-79793469D01*
X171365001Y-81105386D01*
X171306613Y-81136595D01*
X171172038Y-81247038D01*
X171116263Y-81315000D01*
X169943466Y-81315000D01*
X169899999Y-81310719D01*
X169856533Y-81315000D01*
X169856523Y-81315000D01*
X169726510Y-81327805D01*
X169559687Y-81378411D01*
X169543753Y-81386928D01*
X168970000Y-81386928D01*
X168845518Y-81399188D01*
X168725820Y-81435498D01*
X168615506Y-81494463D01*
X168518815Y-81573815D01*
X168439463Y-81670506D01*
X168400000Y-81744335D01*
X168360537Y-81670506D01*
X168281185Y-81573815D01*
X168184494Y-81494463D01*
X168074180Y-81435498D01*
X167954482Y-81399188D01*
X167830000Y-81386928D01*
X167335750Y-81390000D01*
X167177000Y-81548750D01*
X167177000Y-82223000D01*
X167197000Y-82223000D01*
X167197000Y-82477000D01*
X167177000Y-82477000D01*
X167177000Y-82497000D01*
X166923000Y-82497000D01*
X166923000Y-82477000D01*
X166901250Y-82477000D01*
X166764250Y-82340000D01*
X166270000Y-82336928D01*
X166145518Y-82349188D01*
X166025820Y-82385498D01*
X165915506Y-82444463D01*
X165875859Y-82477000D01*
X165793750Y-82477000D01*
X165635000Y-82635750D01*
X165631928Y-82675000D01*
X165644188Y-82799482D01*
X165651929Y-82825000D01*
X165644188Y-82850518D01*
X165631928Y-82975000D01*
X165635000Y-83014250D01*
X165793750Y-83173000D01*
X165875859Y-83173000D01*
X165915506Y-83205537D01*
X166025820Y-83264502D01*
X166142841Y-83300000D01*
X166025820Y-83335498D01*
X165915506Y-83394463D01*
X165875859Y-83427000D01*
X165793750Y-83427000D01*
X165635000Y-83585750D01*
X165631928Y-83625000D01*
X165644188Y-83749482D01*
X165651929Y-83775000D01*
X165644188Y-83800518D01*
X165631928Y-83925000D01*
X165631928Y-84575000D01*
X165644188Y-84699482D01*
X165680498Y-84819180D01*
X165739463Y-84929494D01*
X165818815Y-85026185D01*
X165915506Y-85105537D01*
X166025820Y-85164502D01*
X166139902Y-85199108D01*
X166132795Y-85209744D01*
X166054774Y-85398102D01*
X166015000Y-85598061D01*
X166015000Y-85801939D01*
X166054774Y-86001898D01*
X166132795Y-86190256D01*
X166246063Y-86359774D01*
X166390226Y-86503937D01*
X166559744Y-86617205D01*
X166748102Y-86695226D01*
X166948061Y-86735000D01*
X167151939Y-86735000D01*
X167351898Y-86695226D01*
X167540256Y-86617205D01*
X167709774Y-86503937D01*
X167853937Y-86359774D01*
X167967205Y-86190256D01*
X168045226Y-86001898D01*
X168085000Y-85801939D01*
X168085000Y-85598061D01*
X168045226Y-85398102D01*
X167967205Y-85209744D01*
X167960098Y-85199108D01*
X168074180Y-85164502D01*
X168184494Y-85105537D01*
X168281185Y-85026185D01*
X168360537Y-84929494D01*
X168400000Y-84855665D01*
X168439463Y-84929494D01*
X168518815Y-85026185D01*
X168615506Y-85105537D01*
X168725820Y-85164502D01*
X168845518Y-85200812D01*
X168970000Y-85213072D01*
X170530000Y-85213072D01*
X170654482Y-85200812D01*
X170774180Y-85164502D01*
X170829373Y-85135000D01*
X171116263Y-85135000D01*
X171172038Y-85202962D01*
X171306613Y-85313405D01*
X171422570Y-85375386D01*
X171332795Y-85509744D01*
X171254774Y-85698102D01*
X171215000Y-85898061D01*
X171215000Y-86101939D01*
X171254774Y-86301898D01*
X171332795Y-86490256D01*
X171365000Y-86538455D01*
X171365000Y-86630386D01*
X171306613Y-86661595D01*
X171172038Y-86772038D01*
X171061595Y-86906613D01*
X171057112Y-86915000D01*
X170929373Y-86915000D01*
X170874180Y-86885498D01*
X170754482Y-86849188D01*
X170630000Y-86836928D01*
X169070000Y-86836928D01*
X168945518Y-86849188D01*
X168825820Y-86885498D01*
X168715506Y-86944463D01*
X168618815Y-87023815D01*
X168539463Y-87120506D01*
X168500000Y-87194335D01*
X168460537Y-87120506D01*
X168381185Y-87023815D01*
X168284494Y-86944463D01*
X168174180Y-86885498D01*
X168054482Y-86849188D01*
X167930000Y-86836928D01*
X167435750Y-86840000D01*
X167277000Y-86998750D01*
X167277000Y-87673000D01*
X167297000Y-87673000D01*
X167297000Y-87927000D01*
X167277000Y-87927000D01*
X167277000Y-87947000D01*
X167023000Y-87947000D01*
X167023000Y-87927000D01*
X167001250Y-87927000D01*
X166864250Y-87790000D01*
X166370000Y-87786928D01*
X166245518Y-87799188D01*
X166125820Y-87835498D01*
X166015506Y-87894463D01*
X165975859Y-87927000D01*
X165893750Y-87927000D01*
X165735000Y-88085750D01*
X165731928Y-88125000D01*
X165744188Y-88249482D01*
X165751929Y-88275000D01*
X165744188Y-88300518D01*
X165731928Y-88425000D01*
X165735000Y-88464250D01*
X165893750Y-88623000D01*
X165975859Y-88623000D01*
X166015506Y-88655537D01*
X166125820Y-88714502D01*
X166242841Y-88750000D01*
X166125820Y-88785498D01*
X166015506Y-88844463D01*
X165975859Y-88877000D01*
X165893750Y-88877000D01*
X165735000Y-89035750D01*
X165731928Y-89075000D01*
X165744188Y-89199482D01*
X165751929Y-89225000D01*
X165744188Y-89250518D01*
X165731928Y-89375000D01*
X165731928Y-90025000D01*
X165744188Y-90149482D01*
X165780498Y-90269180D01*
X165839463Y-90379494D01*
X165918815Y-90476185D01*
X166015506Y-90555537D01*
X166125820Y-90614502D01*
X166245518Y-90650812D01*
X166370000Y-90663072D01*
X166390001Y-90663072D01*
X166390001Y-90924129D01*
X166332795Y-91009744D01*
X166254774Y-91198102D01*
X166215000Y-91398061D01*
X166215000Y-91601939D01*
X166254774Y-91801898D01*
X166332795Y-91990256D01*
X166446063Y-92159774D01*
X166590226Y-92303937D01*
X166759744Y-92417205D01*
X166948102Y-92495226D01*
X167148061Y-92535000D01*
X167351939Y-92535000D01*
X167551898Y-92495226D01*
X167740256Y-92417205D01*
X167909774Y-92303937D01*
X168053937Y-92159774D01*
X168167205Y-91990256D01*
X168245226Y-91801898D01*
X168285000Y-91601939D01*
X168285000Y-91398061D01*
X168245226Y-91198102D01*
X168167205Y-91009744D01*
X168053937Y-90840226D01*
X167910000Y-90696289D01*
X167910000Y-90663072D01*
X167930000Y-90663072D01*
X168054482Y-90650812D01*
X168174180Y-90614502D01*
X168284494Y-90555537D01*
X168381185Y-90476185D01*
X168460537Y-90379494D01*
X168500000Y-90305665D01*
X168539463Y-90379494D01*
X168618815Y-90476185D01*
X168715506Y-90555537D01*
X168825820Y-90614502D01*
X168945518Y-90650812D01*
X169070000Y-90663072D01*
X169912724Y-90663072D01*
X169924999Y-90664281D01*
X169937274Y-90663072D01*
X170630000Y-90663072D01*
X170661192Y-90660000D01*
X171116263Y-90660000D01*
X171172038Y-90727962D01*
X171306613Y-90838405D01*
X171460149Y-90920472D01*
X171626745Y-90971008D01*
X171799999Y-90988072D01*
X172700001Y-90988072D01*
X172873255Y-90971008D01*
X173039851Y-90920472D01*
X173193387Y-90838405D01*
X173327962Y-90727962D01*
X173438405Y-90593387D01*
X173520472Y-90439851D01*
X173571008Y-90273255D01*
X173588072Y-90100001D01*
X173588072Y-89688506D01*
X173765000Y-89511578D01*
X173765000Y-89577002D01*
X173929844Y-89577002D01*
X173808524Y-89806890D01*
X173853175Y-89954099D01*
X173978359Y-90216920D01*
X174152412Y-90450269D01*
X174368645Y-90645178D01*
X174485534Y-90714805D01*
X174303368Y-90836525D01*
X174096525Y-91043368D01*
X173934010Y-91286589D01*
X173822068Y-91556842D01*
X173765000Y-91843740D01*
X173765000Y-92136260D01*
X173822068Y-92423158D01*
X173934010Y-92693411D01*
X174096525Y-92936632D01*
X174303368Y-93143475D01*
X174485534Y-93265195D01*
X174368645Y-93334822D01*
X174152412Y-93529731D01*
X173978359Y-93763080D01*
X173853175Y-94025901D01*
X173808524Y-94173110D01*
X173929845Y-94403000D01*
X175123000Y-94403000D01*
X175123000Y-94383000D01*
X175377000Y-94383000D01*
X175377000Y-94403000D01*
X176570155Y-94403000D01*
X176691476Y-94173110D01*
X176646825Y-94025901D01*
X176521641Y-93763080D01*
X176347588Y-93529731D01*
X176131355Y-93334822D01*
X176014466Y-93265195D01*
X176196632Y-93143475D01*
X176403475Y-92936632D01*
X176565990Y-92693411D01*
X176677932Y-92423158D01*
X176735000Y-92136260D01*
X176735000Y-91843740D01*
X176677932Y-91556842D01*
X176565990Y-91286589D01*
X176403475Y-91043368D01*
X176196632Y-90836525D01*
X176014466Y-90714805D01*
X176131355Y-90645178D01*
X176347588Y-90450269D01*
X176521641Y-90216920D01*
X176646825Y-89954099D01*
X176691476Y-89806890D01*
X176570155Y-89577000D01*
X175377000Y-89577000D01*
X175377000Y-89597000D01*
X175123000Y-89597000D01*
X175123000Y-89577000D01*
X175103000Y-89577000D01*
X175103000Y-89323000D01*
X175123000Y-89323000D01*
X175123000Y-89303000D01*
X175377000Y-89303000D01*
X175377000Y-89323000D01*
X176570155Y-89323000D01*
X176691476Y-89093110D01*
X176646825Y-88945901D01*
X176521641Y-88683080D01*
X176347588Y-88449731D01*
X176131355Y-88254822D01*
X176014466Y-88185195D01*
X176196632Y-88063475D01*
X176403475Y-87856632D01*
X176565990Y-87613411D01*
X176677932Y-87343158D01*
X176735000Y-87056260D01*
X176735000Y-86763740D01*
X176677932Y-86476842D01*
X176565990Y-86206589D01*
X176403475Y-85963368D01*
X176196632Y-85756525D01*
X176022240Y-85640000D01*
X176196632Y-85523475D01*
X176403475Y-85316632D01*
X176565990Y-85073411D01*
X176677932Y-84803158D01*
X176735000Y-84516260D01*
X176735000Y-84223740D01*
X176677932Y-83936842D01*
X176565990Y-83666589D01*
X176403475Y-83423368D01*
X176196632Y-83216525D01*
X176022240Y-83100000D01*
X176196632Y-82983475D01*
X176403475Y-82776632D01*
X176565990Y-82533411D01*
X176677932Y-82263158D01*
X176735000Y-81976260D01*
X176735000Y-81683740D01*
X176677932Y-81396842D01*
X176565990Y-81126589D01*
X176403475Y-80883368D01*
X176196632Y-80676525D01*
X176022240Y-80560000D01*
X176196632Y-80443475D01*
X176403475Y-80236632D01*
X176565990Y-79993411D01*
X176677932Y-79723158D01*
X176735000Y-79436260D01*
X176735000Y-79143740D01*
X176677932Y-78856842D01*
X176565990Y-78586589D01*
X176403475Y-78343368D01*
X176271620Y-78211513D01*
X176344180Y-78189502D01*
X176454494Y-78130537D01*
X176551185Y-78051185D01*
X176630537Y-77954494D01*
X176689502Y-77844180D01*
X176725812Y-77724482D01*
X176738072Y-77600000D01*
X176738072Y-75900000D01*
X176725812Y-75775518D01*
X176705937Y-75710000D01*
X179290000Y-75710000D01*
X179290001Y-95540000D01*
X176336792Y-95540000D01*
X176347588Y-95530269D01*
X176521641Y-95296920D01*
X176646825Y-95034099D01*
X176691476Y-94886890D01*
X176570155Y-94657000D01*
X175377000Y-94657000D01*
X175377000Y-94677000D01*
X175123000Y-94677000D01*
X175123000Y-94657000D01*
X173929845Y-94657000D01*
X173808524Y-94886890D01*
X173853175Y-95034099D01*
X173978359Y-95296920D01*
X174152412Y-95530269D01*
X174163208Y-95540000D01*
X171832899Y-95540000D01*
X171852550Y-95520349D01*
X172113560Y-95129721D01*
X172293346Y-94695679D01*
X172385000Y-94234902D01*
X172385000Y-93765098D01*
X172293346Y-93304321D01*
X172113560Y-92870279D01*
X171852550Y-92479651D01*
X171520349Y-92147450D01*
X171129721Y-91886440D01*
X170695679Y-91706654D01*
X170234902Y-91615000D01*
X169765098Y-91615000D01*
X169304321Y-91706654D01*
X168870279Y-91886440D01*
X168479651Y-92147450D01*
X168147450Y-92479651D01*
X167886440Y-92870279D01*
X167706654Y-93304321D01*
X167615000Y-93765098D01*
X167615000Y-94234902D01*
X167706654Y-94695679D01*
X167886440Y-95129721D01*
X168147450Y-95520349D01*
X168167101Y-95540000D01*
X118127000Y-95540000D01*
X118127000Y-91642600D01*
X118224728Y-91642600D01*
X118224728Y-93642600D01*
X118236988Y-93767082D01*
X118273298Y-93886780D01*
X118332263Y-93997094D01*
X118411615Y-94093785D01*
X118508306Y-94173137D01*
X118618620Y-94232102D01*
X118738318Y-94268412D01*
X118862800Y-94280672D01*
X119662800Y-94280672D01*
X119787282Y-94268412D01*
X119906980Y-94232102D01*
X120012800Y-94175539D01*
X120118620Y-94232102D01*
X120238318Y-94268412D01*
X120362800Y-94280672D01*
X121162800Y-94280672D01*
X121287282Y-94268412D01*
X121406980Y-94232102D01*
X121512800Y-94175539D01*
X121618620Y-94232102D01*
X121738318Y-94268412D01*
X121862800Y-94280672D01*
X122662800Y-94280672D01*
X122787282Y-94268412D01*
X122906980Y-94232102D01*
X123012800Y-94175539D01*
X123118620Y-94232102D01*
X123238318Y-94268412D01*
X123362800Y-94280672D01*
X124162800Y-94280672D01*
X124287282Y-94268412D01*
X124406980Y-94232102D01*
X124512800Y-94175539D01*
X124618620Y-94232102D01*
X124738318Y-94268412D01*
X124862800Y-94280672D01*
X125662800Y-94280672D01*
X125787282Y-94268412D01*
X125906980Y-94232102D01*
X126012800Y-94175539D01*
X126118620Y-94232102D01*
X126238318Y-94268412D01*
X126362800Y-94280672D01*
X127162800Y-94280672D01*
X127287282Y-94268412D01*
X127406980Y-94232102D01*
X127512800Y-94175539D01*
X127618620Y-94232102D01*
X127738318Y-94268412D01*
X127862800Y-94280672D01*
X128662800Y-94280672D01*
X128787282Y-94268412D01*
X128906980Y-94232102D01*
X129012800Y-94175539D01*
X129118620Y-94232102D01*
X129238318Y-94268412D01*
X129362800Y-94280672D01*
X130162800Y-94280672D01*
X130287282Y-94268412D01*
X130406980Y-94232102D01*
X130517294Y-94173137D01*
X130545486Y-94150000D01*
X134136928Y-94150000D01*
X134149188Y-94274482D01*
X134185498Y-94394180D01*
X134244463Y-94504494D01*
X134323815Y-94601185D01*
X134420506Y-94680537D01*
X134530820Y-94739502D01*
X134650518Y-94775812D01*
X134775000Y-94788072D01*
X134964250Y-94785000D01*
X135123000Y-94626250D01*
X135123000Y-93752000D01*
X135377000Y-93752000D01*
X135377000Y-94626250D01*
X135535750Y-94785000D01*
X135725000Y-94788072D01*
X135849482Y-94775812D01*
X135969180Y-94739502D01*
X136079494Y-94680537D01*
X136176185Y-94601185D01*
X136250000Y-94511241D01*
X136323815Y-94601185D01*
X136420506Y-94680537D01*
X136530820Y-94739502D01*
X136650518Y-94775812D01*
X136775000Y-94788072D01*
X136964250Y-94785000D01*
X137123000Y-94626250D01*
X137123000Y-93752000D01*
X137377000Y-93752000D01*
X137377000Y-94626250D01*
X137535750Y-94785000D01*
X137725000Y-94788072D01*
X137849482Y-94775812D01*
X137969180Y-94739502D01*
X138079494Y-94680537D01*
X138176185Y-94601185D01*
X138255537Y-94504494D01*
X138314502Y-94394180D01*
X138350812Y-94274482D01*
X138363072Y-94150000D01*
X138360000Y-93910750D01*
X138201250Y-93752000D01*
X137377000Y-93752000D01*
X137123000Y-93752000D01*
X136298750Y-93752000D01*
X136250000Y-93800750D01*
X136201250Y-93752000D01*
X135377000Y-93752000D01*
X135123000Y-93752000D01*
X134298750Y-93752000D01*
X134140000Y-93910750D01*
X134136928Y-94150000D01*
X130545486Y-94150000D01*
X130613985Y-94093785D01*
X130693337Y-93997094D01*
X130752302Y-93886780D01*
X130788612Y-93767082D01*
X130800872Y-93642600D01*
X130800872Y-91860672D01*
X131862800Y-91860672D01*
X131987282Y-91848412D01*
X132106980Y-91812102D01*
X132217294Y-91753137D01*
X132313985Y-91673785D01*
X132393337Y-91577094D01*
X132452302Y-91466780D01*
X132488612Y-91347082D01*
X132500872Y-91222600D01*
X132500872Y-90422600D01*
X132488612Y-90298118D01*
X132452302Y-90178420D01*
X132395739Y-90072600D01*
X132452302Y-89966780D01*
X132488612Y-89847082D01*
X132500872Y-89722600D01*
X132500872Y-88922600D01*
X132488612Y-88798118D01*
X132452302Y-88678420D01*
X132395739Y-88572600D01*
X132452302Y-88466780D01*
X132488612Y-88347082D01*
X132500872Y-88222600D01*
X132500872Y-87422600D01*
X132488612Y-87298118D01*
X132452302Y-87178420D01*
X132395739Y-87072600D01*
X132452302Y-86966780D01*
X132488612Y-86847082D01*
X132500872Y-86722600D01*
X132500872Y-85922600D01*
X132488612Y-85798118D01*
X132452302Y-85678420D01*
X132395739Y-85572600D01*
X132452302Y-85466780D01*
X132488612Y-85347082D01*
X132500872Y-85222600D01*
X132500872Y-84422600D01*
X132488612Y-84298118D01*
X132452302Y-84178420D01*
X132395739Y-84072600D01*
X132452302Y-83966780D01*
X132488612Y-83847082D01*
X132500872Y-83722600D01*
X132500872Y-82922600D01*
X132488612Y-82798118D01*
X132452302Y-82678420D01*
X132395739Y-82572600D01*
X132452302Y-82466780D01*
X132488612Y-82347082D01*
X132500872Y-82222600D01*
X132500872Y-81422600D01*
X132488612Y-81298118D01*
X132452302Y-81178420D01*
X132395739Y-81072600D01*
X132452302Y-80966780D01*
X132488612Y-80847082D01*
X132500872Y-80722600D01*
X132500872Y-79922600D01*
X132488612Y-79798118D01*
X132452302Y-79678420D01*
X132393337Y-79568106D01*
X132313985Y-79471415D01*
X132217294Y-79392063D01*
X132106980Y-79333098D01*
X131987282Y-79296788D01*
X131862800Y-79284528D01*
X130800872Y-79284528D01*
X130800872Y-77502600D01*
X130788612Y-77378118D01*
X130752302Y-77258420D01*
X130734439Y-77225000D01*
X133336928Y-77225000D01*
X133349188Y-77349482D01*
X133385498Y-77469180D01*
X133444463Y-77579494D01*
X133523815Y-77676185D01*
X133620506Y-77755537D01*
X133730820Y-77814502D01*
X133850518Y-77850812D01*
X133975000Y-77863072D01*
X134214250Y-77860000D01*
X134373000Y-77701250D01*
X134373000Y-76877000D01*
X133498750Y-76877000D01*
X133340000Y-77035750D01*
X133336928Y-77225000D01*
X130734439Y-77225000D01*
X130693337Y-77148106D01*
X130613985Y-77051415D01*
X130517294Y-76972063D01*
X130406980Y-76913098D01*
X130287282Y-76876788D01*
X130162800Y-76864528D01*
X129362800Y-76864528D01*
X129238318Y-76876788D01*
X129118620Y-76913098D01*
X129012800Y-76969661D01*
X128906980Y-76913098D01*
X128787282Y-76876788D01*
X128662800Y-76864528D01*
X127862800Y-76864528D01*
X127738318Y-76876788D01*
X127618620Y-76913098D01*
X127512800Y-76969661D01*
X127406980Y-76913098D01*
X127287282Y-76876788D01*
X127162800Y-76864528D01*
X126362800Y-76864528D01*
X126238318Y-76876788D01*
X126118620Y-76913098D01*
X126012800Y-76969661D01*
X125906980Y-76913098D01*
X125787282Y-76876788D01*
X125662800Y-76864528D01*
X124862800Y-76864528D01*
X124738318Y-76876788D01*
X124618620Y-76913098D01*
X124512800Y-76969661D01*
X124406980Y-76913098D01*
X124287282Y-76876788D01*
X124162800Y-76864528D01*
X123362800Y-76864528D01*
X123238318Y-76876788D01*
X123118620Y-76913098D01*
X123012800Y-76969661D01*
X122906980Y-76913098D01*
X122787282Y-76876788D01*
X122662800Y-76864528D01*
X121862800Y-76864528D01*
X121738318Y-76876788D01*
X121618620Y-76913098D01*
X121512800Y-76969661D01*
X121406980Y-76913098D01*
X121287282Y-76876788D01*
X121162800Y-76864528D01*
X120362800Y-76864528D01*
X120238318Y-76876788D01*
X120118620Y-76913098D01*
X120012800Y-76969661D01*
X119906980Y-76913098D01*
X119787282Y-76876788D01*
X119662800Y-76864528D01*
X119548550Y-76867600D01*
X119389800Y-77026350D01*
X119389800Y-78375600D01*
X119409800Y-78375600D01*
X119409800Y-78629600D01*
X119389800Y-78629600D01*
X119389800Y-79978850D01*
X119548550Y-80137600D01*
X119662800Y-80140672D01*
X119787282Y-80128412D01*
X119906980Y-80092102D01*
X120012800Y-80035539D01*
X120118620Y-80092102D01*
X120238318Y-80128412D01*
X120362800Y-80140672D01*
X121162800Y-80140672D01*
X121287282Y-80128412D01*
X121406980Y-80092102D01*
X121502801Y-80040884D01*
X121502801Y-80708021D01*
X121465000Y-80898061D01*
X121465000Y-81101939D01*
X121504774Y-81301898D01*
X121582795Y-81490256D01*
X121696063Y-81659774D01*
X121840226Y-81803937D01*
X122009744Y-81917205D01*
X122198102Y-81995226D01*
X122398061Y-82035000D01*
X122601939Y-82035000D01*
X122801898Y-81995226D01*
X122990256Y-81917205D01*
X123159774Y-81803937D01*
X123303937Y-81659774D01*
X123417205Y-81490256D01*
X123495226Y-81301898D01*
X123535000Y-81101939D01*
X123535000Y-80898061D01*
X123495226Y-80698102D01*
X123417205Y-80509744D01*
X123303937Y-80340226D01*
X123159774Y-80196063D01*
X123022800Y-80104540D01*
X123022800Y-80040884D01*
X123118620Y-80092102D01*
X123238318Y-80128412D01*
X123362800Y-80140672D01*
X124162800Y-80140672D01*
X124287282Y-80128412D01*
X124406980Y-80092102D01*
X124502800Y-80040884D01*
X124502801Y-83975468D01*
X124499124Y-84012800D01*
X124502801Y-84050133D01*
X124513798Y-84161786D01*
X124517349Y-84173491D01*
X124557254Y-84305046D01*
X124627826Y-84437076D01*
X124699001Y-84523802D01*
X124722800Y-84552801D01*
X124751798Y-84576599D01*
X124965000Y-84789801D01*
X124965000Y-84851939D01*
X125004774Y-85051898D01*
X125082795Y-85240256D01*
X125196063Y-85409774D01*
X125340226Y-85553937D01*
X125509744Y-85667205D01*
X125698102Y-85745226D01*
X125898061Y-85785000D01*
X126101939Y-85785000D01*
X126301898Y-85745226D01*
X126490256Y-85667205D01*
X126659774Y-85553937D01*
X126803937Y-85409774D01*
X126917205Y-85240256D01*
X126995226Y-85051898D01*
X127035000Y-84851939D01*
X127035000Y-84648061D01*
X126995226Y-84448102D01*
X126921902Y-84271084D01*
X127051898Y-84245226D01*
X127240001Y-84167311D01*
X127240000Y-89840598D01*
X126251798Y-90828801D01*
X126222800Y-90852599D01*
X126199002Y-90881597D01*
X126199001Y-90881598D01*
X126127826Y-90968324D01*
X126068071Y-91080118D01*
X126012800Y-91109661D01*
X125906980Y-91053098D01*
X125787282Y-91016788D01*
X125662800Y-91004528D01*
X124862800Y-91004528D01*
X124738318Y-91016788D01*
X124618620Y-91053098D01*
X124512800Y-91109661D01*
X124406980Y-91053098D01*
X124287282Y-91016788D01*
X124162800Y-91004528D01*
X123362800Y-91004528D01*
X123238318Y-91016788D01*
X123118620Y-91053098D01*
X123012800Y-91109661D01*
X122906980Y-91053098D01*
X122787282Y-91016788D01*
X122662800Y-91004528D01*
X121862800Y-91004528D01*
X121738318Y-91016788D01*
X121618620Y-91053098D01*
X121512800Y-91109661D01*
X121406980Y-91053098D01*
X121287282Y-91016788D01*
X121162800Y-91004528D01*
X120959183Y-91004528D01*
X121053937Y-90909774D01*
X121167205Y-90740256D01*
X121245226Y-90551898D01*
X121285000Y-90351939D01*
X121285000Y-90148061D01*
X121245226Y-89948102D01*
X121167205Y-89759744D01*
X121053937Y-89590226D01*
X120909774Y-89446063D01*
X120740256Y-89332795D01*
X120551898Y-89254774D01*
X120351939Y-89215000D01*
X120148061Y-89215000D01*
X119948102Y-89254774D01*
X119759744Y-89332795D01*
X119590226Y-89446063D01*
X119446063Y-89590226D01*
X119332795Y-89759744D01*
X119254774Y-89948102D01*
X119243465Y-90004956D01*
X118667751Y-90580671D01*
X118633984Y-90608383D01*
X118606271Y-90642151D01*
X118606268Y-90642154D01*
X118523390Y-90743141D01*
X118441212Y-90896887D01*
X118390605Y-91063710D01*
X118373519Y-91237200D01*
X118373575Y-91237767D01*
X118332263Y-91288106D01*
X118273298Y-91398420D01*
X118236988Y-91518118D01*
X118224728Y-91642600D01*
X118127000Y-91642600D01*
X118127000Y-79502600D01*
X118224728Y-79502600D01*
X118236988Y-79627082D01*
X118273298Y-79746780D01*
X118332263Y-79857094D01*
X118411615Y-79953785D01*
X118508306Y-80033137D01*
X118618620Y-80092102D01*
X118738318Y-80128412D01*
X118862800Y-80140672D01*
X118977050Y-80137600D01*
X119135800Y-79978850D01*
X119135800Y-78629600D01*
X118386550Y-78629600D01*
X118227800Y-78788350D01*
X118224728Y-79502600D01*
X118127000Y-79502600D01*
X118127000Y-77502600D01*
X118224728Y-77502600D01*
X118227800Y-78216850D01*
X118386550Y-78375600D01*
X119135800Y-78375600D01*
X119135800Y-77026350D01*
X118977050Y-76867600D01*
X118862800Y-76864528D01*
X118738318Y-76876788D01*
X118618620Y-76913098D01*
X118508306Y-76972063D01*
X118411615Y-77051415D01*
X118332263Y-77148106D01*
X118273298Y-77258420D01*
X118236988Y-77378118D01*
X118224728Y-77502600D01*
X118127000Y-77502600D01*
X118127000Y-75710000D01*
X133684981Y-75710000D01*
X133620506Y-75744463D01*
G36*
X157294454Y-84792247D02*
G01*
X157365026Y-84924276D01*
X157407521Y-84976056D01*
X157351939Y-84965000D01*
X157148061Y-84965000D01*
X156948102Y-85004774D01*
X156759744Y-85082795D01*
X156590226Y-85196063D01*
X156446063Y-85340226D01*
X156332795Y-85509744D01*
X156254774Y-85698102D01*
X156215000Y-85898061D01*
X156215000Y-86101939D01*
X156254774Y-86301898D01*
X156332795Y-86490256D01*
X156446063Y-86659774D01*
X156590226Y-86803937D01*
X156717930Y-86889266D01*
X156660750Y-86890000D01*
X156502000Y-87048750D01*
X156502000Y-87873000D01*
X157376250Y-87873000D01*
X157535000Y-87714250D01*
X157538072Y-87525000D01*
X157525812Y-87400518D01*
X157489502Y-87280820D01*
X157430537Y-87170506D01*
X157351185Y-87073815D01*
X157303889Y-87035000D01*
X157351939Y-87035000D01*
X157551898Y-86995226D01*
X157740256Y-86917205D01*
X157909774Y-86803937D01*
X157953711Y-86760000D01*
X158073393Y-86760000D01*
X158125518Y-86775812D01*
X158250000Y-86788072D01*
X159650000Y-86788072D01*
X159774482Y-86775812D01*
X159826607Y-86760000D01*
X160311928Y-86760000D01*
X160311928Y-87852185D01*
X160303937Y-87840226D01*
X160159774Y-87696063D01*
X159990256Y-87582795D01*
X159801898Y-87504774D01*
X159601939Y-87465000D01*
X159398061Y-87465000D01*
X159198102Y-87504774D01*
X159009744Y-87582795D01*
X158840226Y-87696063D01*
X158696063Y-87840226D01*
X158582795Y-88009744D01*
X158504774Y-88198102D01*
X158465000Y-88398061D01*
X158465000Y-88601939D01*
X158504774Y-88801898D01*
X158582795Y-88990256D01*
X158696063Y-89159774D01*
X158840226Y-89303937D01*
X159009744Y-89417205D01*
X159198102Y-89495226D01*
X159254957Y-89506535D01*
X159360350Y-89611928D01*
X158125000Y-89611928D01*
X158000518Y-89624188D01*
X157880820Y-89660498D01*
X157770506Y-89719463D01*
X157673815Y-89798815D01*
X157594463Y-89895506D01*
X157535498Y-90005820D01*
X157499188Y-90125518D01*
X157488033Y-90238783D01*
X157376250Y-90127000D01*
X156502000Y-90127000D01*
X156502000Y-90147000D01*
X156248000Y-90147000D01*
X156248000Y-90127000D01*
X156228000Y-90127000D01*
X156228000Y-89873000D01*
X156248000Y-89873000D01*
X156248000Y-89048750D01*
X156199250Y-89000000D01*
X156248000Y-88951250D01*
X156248000Y-88127000D01*
X156502000Y-88127000D01*
X156502000Y-88951250D01*
X156550750Y-89000000D01*
X156502000Y-89048750D01*
X156502000Y-89873000D01*
X157376250Y-89873000D01*
X157535000Y-89714250D01*
X157538072Y-89525000D01*
X157525812Y-89400518D01*
X157489502Y-89280820D01*
X157430537Y-89170506D01*
X157351185Y-89073815D01*
X157261241Y-89000000D01*
X157351185Y-88926185D01*
X157430537Y-88829494D01*
X157489502Y-88719180D01*
X157525812Y-88599482D01*
X157538072Y-88475000D01*
X157535000Y-88285750D01*
X157376250Y-88127000D01*
X156502000Y-88127000D01*
X156248000Y-88127000D01*
X156228000Y-88127000D01*
X156228000Y-87873000D01*
X156248000Y-87873000D01*
X156248000Y-87048750D01*
X156089250Y-86890000D01*
X155850000Y-86886928D01*
X155725518Y-86899188D01*
X155605820Y-86935498D01*
X155495506Y-86994463D01*
X155422839Y-87054099D01*
X155398942Y-87034488D01*
X155310000Y-86986948D01*
X155310000Y-86782163D01*
X155374482Y-86775812D01*
X155494180Y-86739502D01*
X155604494Y-86680537D01*
X155701185Y-86601185D01*
X155780537Y-86504494D01*
X155839502Y-86394180D01*
X155875812Y-86274482D01*
X155888072Y-86150000D01*
X155888072Y-85850000D01*
X155878223Y-85750000D01*
X155888072Y-85650000D01*
X155888072Y-85350000D01*
X155878223Y-85250000D01*
X155888072Y-85150000D01*
X155888072Y-84850000D01*
X155879208Y-84760000D01*
X157284672Y-84760000D01*
X157294454Y-84792247D01*
G37*
X157294454Y-84792247D02*
X157365026Y-84924276D01*
X157407521Y-84976056D01*
X157351939Y-84965000D01*
X157148061Y-84965000D01*
X156948102Y-85004774D01*
X156759744Y-85082795D01*
X156590226Y-85196063D01*
X156446063Y-85340226D01*
X156332795Y-85509744D01*
X156254774Y-85698102D01*
X156215000Y-85898061D01*
X156215000Y-86101939D01*
X156254774Y-86301898D01*
X156332795Y-86490256D01*
X156446063Y-86659774D01*
X156590226Y-86803937D01*
X156717930Y-86889266D01*
X156660750Y-86890000D01*
X156502000Y-87048750D01*
X156502000Y-87873000D01*
X157376250Y-87873000D01*
X157535000Y-87714250D01*
X157538072Y-87525000D01*
X157525812Y-87400518D01*
X157489502Y-87280820D01*
X157430537Y-87170506D01*
X157351185Y-87073815D01*
X157303889Y-87035000D01*
X157351939Y-87035000D01*
X157551898Y-86995226D01*
X157740256Y-86917205D01*
X157909774Y-86803937D01*
X157953711Y-86760000D01*
X158073393Y-86760000D01*
X158125518Y-86775812D01*
X158250000Y-86788072D01*
X159650000Y-86788072D01*
X159774482Y-86775812D01*
X159826607Y-86760000D01*
X160311928Y-86760000D01*
X160311928Y-87852185D01*
X160303937Y-87840226D01*
X160159774Y-87696063D01*
X159990256Y-87582795D01*
X159801898Y-87504774D01*
X159601939Y-87465000D01*
X159398061Y-87465000D01*
X159198102Y-87504774D01*
X159009744Y-87582795D01*
X158840226Y-87696063D01*
X158696063Y-87840226D01*
X158582795Y-88009744D01*
X158504774Y-88198102D01*
X158465000Y-88398061D01*
X158465000Y-88601939D01*
X158504774Y-88801898D01*
X158582795Y-88990256D01*
X158696063Y-89159774D01*
X158840226Y-89303937D01*
X159009744Y-89417205D01*
X159198102Y-89495226D01*
X159254957Y-89506535D01*
X159360350Y-89611928D01*
X158125000Y-89611928D01*
X158000518Y-89624188D01*
X157880820Y-89660498D01*
X157770506Y-89719463D01*
X157673815Y-89798815D01*
X157594463Y-89895506D01*
X157535498Y-90005820D01*
X157499188Y-90125518D01*
X157488033Y-90238783D01*
X157376250Y-90127000D01*
X156502000Y-90127000D01*
X156502000Y-90147000D01*
X156248000Y-90147000D01*
X156248000Y-90127000D01*
X156228000Y-90127000D01*
X156228000Y-89873000D01*
X156248000Y-89873000D01*
X156248000Y-89048750D01*
X156199250Y-89000000D01*
X156248000Y-88951250D01*
X156248000Y-88127000D01*
X156502000Y-88127000D01*
X156502000Y-88951250D01*
X156550750Y-89000000D01*
X156502000Y-89048750D01*
X156502000Y-89873000D01*
X157376250Y-89873000D01*
X157535000Y-89714250D01*
X157538072Y-89525000D01*
X157525812Y-89400518D01*
X157489502Y-89280820D01*
X157430537Y-89170506D01*
X157351185Y-89073815D01*
X157261241Y-89000000D01*
X157351185Y-88926185D01*
X157430537Y-88829494D01*
X157489502Y-88719180D01*
X157525812Y-88599482D01*
X157538072Y-88475000D01*
X157535000Y-88285750D01*
X157376250Y-88127000D01*
X156502000Y-88127000D01*
X156248000Y-88127000D01*
X156228000Y-88127000D01*
X156228000Y-87873000D01*
X156248000Y-87873000D01*
X156248000Y-87048750D01*
X156089250Y-86890000D01*
X155850000Y-86886928D01*
X155725518Y-86899188D01*
X155605820Y-86935498D01*
X155495506Y-86994463D01*
X155422839Y-87054099D01*
X155398942Y-87034488D01*
X155310000Y-86986948D01*
X155310000Y-86782163D01*
X155374482Y-86775812D01*
X155494180Y-86739502D01*
X155604494Y-86680537D01*
X155701185Y-86601185D01*
X155780537Y-86504494D01*
X155839502Y-86394180D01*
X155875812Y-86274482D01*
X155888072Y-86150000D01*
X155888072Y-85850000D01*
X155878223Y-85750000D01*
X155888072Y-85650000D01*
X155888072Y-85350000D01*
X155878223Y-85250000D01*
X155888072Y-85150000D01*
X155888072Y-84850000D01*
X155879208Y-84760000D01*
X157284672Y-84760000D01*
X157294454Y-84792247D01*
G36*
X144776132Y-81373410D02*
G01*
X144925000Y-81388072D01*
X145036928Y-81388072D01*
X145036928Y-81500000D01*
X145051590Y-81648868D01*
X145089852Y-81775000D01*
X145051590Y-81901132D01*
X145036928Y-82050000D01*
X145036928Y-82300000D01*
X145051590Y-82448868D01*
X145089852Y-82575000D01*
X145051590Y-82701132D01*
X145036928Y-82850000D01*
X145036928Y-83100000D01*
X145051590Y-83248868D01*
X145089852Y-83375000D01*
X145051590Y-83501132D01*
X145036928Y-83650000D01*
X145036928Y-83900000D01*
X145051590Y-84048868D01*
X145089852Y-84175000D01*
X145051590Y-84301132D01*
X145036928Y-84450000D01*
X145036928Y-84700000D01*
X145051590Y-84848868D01*
X145089852Y-84975000D01*
X145051590Y-85101132D01*
X145036928Y-85250000D01*
X145036928Y-85500000D01*
X145051590Y-85648868D01*
X145089852Y-85775000D01*
X145051590Y-85901132D01*
X145036928Y-86050000D01*
X145036928Y-86300000D01*
X145051590Y-86448868D01*
X145089852Y-86575000D01*
X145051590Y-86701132D01*
X145036928Y-86850000D01*
X145036928Y-86961928D01*
X144925000Y-86961928D01*
X144776132Y-86976590D01*
X144650000Y-87014852D01*
X144523868Y-86976590D01*
X144375000Y-86961928D01*
X144125000Y-86961928D01*
X143976132Y-86976590D01*
X143850000Y-87014852D01*
X143723868Y-86976590D01*
X143575000Y-86961928D01*
X143325000Y-86961928D01*
X143176132Y-86976590D01*
X143050000Y-87014852D01*
X142923868Y-86976590D01*
X142775000Y-86961928D01*
X142525000Y-86961928D01*
X142376132Y-86976590D01*
X142250000Y-87014852D01*
X142123868Y-86976590D01*
X141975000Y-86961928D01*
X141725000Y-86961928D01*
X141576132Y-86976590D01*
X141450000Y-87014852D01*
X141323868Y-86976590D01*
X141175000Y-86961928D01*
X140925000Y-86961928D01*
X140776132Y-86976590D01*
X140703861Y-86998513D01*
X140633773Y-86976109D01*
X140531750Y-86965000D01*
X140373000Y-87123750D01*
X140373000Y-87200569D01*
X140290529Y-87301060D01*
X140250000Y-87376884D01*
X140209471Y-87301060D01*
X140127000Y-87200569D01*
X140127000Y-87123750D01*
X139968250Y-86965000D01*
X139866227Y-86976109D01*
X139796139Y-86998513D01*
X139723868Y-86976590D01*
X139575000Y-86961928D01*
X139463072Y-86961928D01*
X139463072Y-86850000D01*
X139448410Y-86701132D01*
X139410148Y-86575000D01*
X139448410Y-86448868D01*
X139463072Y-86300000D01*
X139463072Y-86050000D01*
X139448410Y-85901132D01*
X139410148Y-85775000D01*
X139448410Y-85648868D01*
X139463072Y-85500000D01*
X139463072Y-85250000D01*
X139448410Y-85101132D01*
X139410148Y-84975000D01*
X139448410Y-84848868D01*
X139463072Y-84700000D01*
X139463072Y-84450000D01*
X139448410Y-84301132D01*
X139410148Y-84175000D01*
X139448410Y-84048868D01*
X139463072Y-83900000D01*
X139463072Y-83650000D01*
X139448410Y-83501132D01*
X139410148Y-83375000D01*
X139448410Y-83248868D01*
X139463072Y-83100000D01*
X139463072Y-82850000D01*
X139448410Y-82701132D01*
X139410148Y-82575000D01*
X139448410Y-82448868D01*
X139463072Y-82300000D01*
X139463072Y-82050000D01*
X139448410Y-81901132D01*
X139410148Y-81775000D01*
X139448410Y-81648868D01*
X139463072Y-81500000D01*
X139463072Y-81388072D01*
X139575000Y-81388072D01*
X139723868Y-81373410D01*
X139850000Y-81335148D01*
X139976132Y-81373410D01*
X140125000Y-81388072D01*
X140177016Y-81388072D01*
X140090226Y-81446063D01*
X139946063Y-81590226D01*
X139832795Y-81759744D01*
X139754774Y-81948102D01*
X139715000Y-82148061D01*
X139715000Y-82351939D01*
X139754774Y-82551898D01*
X139832795Y-82740256D01*
X139946063Y-82909774D01*
X140090226Y-83053937D01*
X140259744Y-83167205D01*
X140448102Y-83245226D01*
X140648061Y-83285000D01*
X140851939Y-83285000D01*
X141051898Y-83245226D01*
X141240256Y-83167205D01*
X141409774Y-83053937D01*
X141553937Y-82909774D01*
X141667205Y-82740256D01*
X141745226Y-82551898D01*
X141785000Y-82351939D01*
X141785000Y-82148061D01*
X141784650Y-82146302D01*
X141799003Y-82098986D01*
X141810000Y-81987333D01*
X141810000Y-81987324D01*
X141813676Y-81950001D01*
X141810000Y-81912678D01*
X141810000Y-81388072D01*
X141975000Y-81388072D01*
X142123868Y-81373410D01*
X142250000Y-81335148D01*
X142376132Y-81373410D01*
X142525000Y-81388072D01*
X142775000Y-81388072D01*
X142923868Y-81373410D01*
X143050000Y-81335148D01*
X143176132Y-81373410D01*
X143325000Y-81388072D01*
X143575000Y-81388072D01*
X143723868Y-81373410D01*
X143850000Y-81335148D01*
X143976132Y-81373410D01*
X144125000Y-81388072D01*
X144375000Y-81388072D01*
X144523868Y-81373410D01*
X144650000Y-81335148D01*
X144776132Y-81373410D01*
G37*
X144776132Y-81373410D02*
X144925000Y-81388072D01*
X145036928Y-81388072D01*
X145036928Y-81500000D01*
X145051590Y-81648868D01*
X145089852Y-81775000D01*
X145051590Y-81901132D01*
X145036928Y-82050000D01*
X145036928Y-82300000D01*
X145051590Y-82448868D01*
X145089852Y-82575000D01*
X145051590Y-82701132D01*
X145036928Y-82850000D01*
X145036928Y-83100000D01*
X145051590Y-83248868D01*
X145089852Y-83375000D01*
X145051590Y-83501132D01*
X145036928Y-83650000D01*
X145036928Y-83900000D01*
X145051590Y-84048868D01*
X145089852Y-84175000D01*
X145051590Y-84301132D01*
X145036928Y-84450000D01*
X145036928Y-84700000D01*
X145051590Y-84848868D01*
X145089852Y-84975000D01*
X145051590Y-85101132D01*
X145036928Y-85250000D01*
X145036928Y-85500000D01*
X145051590Y-85648868D01*
X145089852Y-85775000D01*
X145051590Y-85901132D01*
X145036928Y-86050000D01*
X145036928Y-86300000D01*
X145051590Y-86448868D01*
X145089852Y-86575000D01*
X145051590Y-86701132D01*
X145036928Y-86850000D01*
X145036928Y-86961928D01*
X144925000Y-86961928D01*
X144776132Y-86976590D01*
X144650000Y-87014852D01*
X144523868Y-86976590D01*
X144375000Y-86961928D01*
X144125000Y-86961928D01*
X143976132Y-86976590D01*
X143850000Y-87014852D01*
X143723868Y-86976590D01*
X143575000Y-86961928D01*
X143325000Y-86961928D01*
X143176132Y-86976590D01*
X143050000Y-87014852D01*
X142923868Y-86976590D01*
X142775000Y-86961928D01*
X142525000Y-86961928D01*
X142376132Y-86976590D01*
X142250000Y-87014852D01*
X142123868Y-86976590D01*
X141975000Y-86961928D01*
X141725000Y-86961928D01*
X141576132Y-86976590D01*
X141450000Y-87014852D01*
X141323868Y-86976590D01*
X141175000Y-86961928D01*
X140925000Y-86961928D01*
X140776132Y-86976590D01*
X140703861Y-86998513D01*
X140633773Y-86976109D01*
X140531750Y-86965000D01*
X140373000Y-87123750D01*
X140373000Y-87200569D01*
X140290529Y-87301060D01*
X140250000Y-87376884D01*
X140209471Y-87301060D01*
X140127000Y-87200569D01*
X140127000Y-87123750D01*
X139968250Y-86965000D01*
X139866227Y-86976109D01*
X139796139Y-86998513D01*
X139723868Y-86976590D01*
X139575000Y-86961928D01*
X139463072Y-86961928D01*
X139463072Y-86850000D01*
X139448410Y-86701132D01*
X139410148Y-86575000D01*
X139448410Y-86448868D01*
X139463072Y-86300000D01*
X139463072Y-86050000D01*
X139448410Y-85901132D01*
X139410148Y-85775000D01*
X139448410Y-85648868D01*
X139463072Y-85500000D01*
X139463072Y-85250000D01*
X139448410Y-85101132D01*
X139410148Y-84975000D01*
X139448410Y-84848868D01*
X139463072Y-84700000D01*
X139463072Y-84450000D01*
X139448410Y-84301132D01*
X139410148Y-84175000D01*
X139448410Y-84048868D01*
X139463072Y-83900000D01*
X139463072Y-83650000D01*
X139448410Y-83501132D01*
X139410148Y-83375000D01*
X139448410Y-83248868D01*
X139463072Y-83100000D01*
X139463072Y-82850000D01*
X139448410Y-82701132D01*
X139410148Y-82575000D01*
X139448410Y-82448868D01*
X139463072Y-82300000D01*
X139463072Y-82050000D01*
X139448410Y-81901132D01*
X139410148Y-81775000D01*
X139448410Y-81648868D01*
X139463072Y-81500000D01*
X139463072Y-81388072D01*
X139575000Y-81388072D01*
X139723868Y-81373410D01*
X139850000Y-81335148D01*
X139976132Y-81373410D01*
X140125000Y-81388072D01*
X140177016Y-81388072D01*
X140090226Y-81446063D01*
X139946063Y-81590226D01*
X139832795Y-81759744D01*
X139754774Y-81948102D01*
X139715000Y-82148061D01*
X139715000Y-82351939D01*
X139754774Y-82551898D01*
X139832795Y-82740256D01*
X139946063Y-82909774D01*
X140090226Y-83053937D01*
X140259744Y-83167205D01*
X140448102Y-83245226D01*
X140648061Y-83285000D01*
X140851939Y-83285000D01*
X141051898Y-83245226D01*
X141240256Y-83167205D01*
X141409774Y-83053937D01*
X141553937Y-82909774D01*
X141667205Y-82740256D01*
X141745226Y-82551898D01*
X141785000Y-82351939D01*
X141785000Y-82148061D01*
X141784650Y-82146302D01*
X141799003Y-82098986D01*
X141810000Y-81987333D01*
X141810000Y-81987324D01*
X141813676Y-81950001D01*
X141810000Y-81912678D01*
X141810000Y-81388072D01*
X141975000Y-81388072D01*
X142123868Y-81373410D01*
X142250000Y-81335148D01*
X142376132Y-81373410D01*
X142525000Y-81388072D01*
X142775000Y-81388072D01*
X142923868Y-81373410D01*
X143050000Y-81335148D01*
X143176132Y-81373410D01*
X143325000Y-81388072D01*
X143575000Y-81388072D01*
X143723868Y-81373410D01*
X143850000Y-81335148D01*
X143976132Y-81373410D01*
X144125000Y-81388072D01*
X144375000Y-81388072D01*
X144523868Y-81373410D01*
X144650000Y-81335148D01*
X144776132Y-81373410D01*
G36*
X168518815Y-83126185D02*
G01*
X168615506Y-83205537D01*
X168725820Y-83264502D01*
X168842841Y-83300000D01*
X168725820Y-83335498D01*
X168615506Y-83394463D01*
X168518815Y-83473815D01*
X168444103Y-83564853D01*
X168306250Y-83427000D01*
X168224141Y-83427000D01*
X168184494Y-83394463D01*
X168074180Y-83335498D01*
X167957159Y-83300000D01*
X168074180Y-83264502D01*
X168184494Y-83205537D01*
X168224141Y-83173000D01*
X168306250Y-83173000D01*
X168444103Y-83035147D01*
X168518815Y-83126185D01*
G37*
X168518815Y-83126185D02*
X168615506Y-83205537D01*
X168725820Y-83264502D01*
X168842841Y-83300000D01*
X168725820Y-83335498D01*
X168615506Y-83394463D01*
X168518815Y-83473815D01*
X168444103Y-83564853D01*
X168306250Y-83427000D01*
X168224141Y-83427000D01*
X168184494Y-83394463D01*
X168074180Y-83335498D01*
X167957159Y-83300000D01*
X168074180Y-83264502D01*
X168184494Y-83205537D01*
X168224141Y-83173000D01*
X168306250Y-83173000D01*
X168444103Y-83035147D01*
X168518815Y-83126185D01*
%TD*%
M02*
