%TF.GenerationSoftware,KiCad,Pcbnew,(5.1.6)-1*%
%TF.CreationDate,2021-08-02T23:36:40+08:00*%
%TF.ProjectId,wireless_measurement_ard,77697265-6c65-4737-935f-6d6561737572,rev?*%
%TF.SameCoordinates,Original*%
%TF.FileFunction,Legend,Top*%
%TF.FilePolarity,Positive*%
%FSLAX46Y46*%
G04 Gerber Fmt 4.6, Leading zero omitted, Abs format (unit mm)*
G04 Created by KiCad (PCBNEW (5.1.6)-1) date 2021-08-02 23:36:40*
%MOMM*%
%LPD*%
G01*
G04 APERTURE LIST*
%ADD10C,0.300000*%
%ADD11C,0.120000*%
%ADD12C,0.150000*%
G04 APERTURE END LIST*
D10*
X144285714Y-76653571D02*
X144642857Y-77653571D01*
X145000000Y-76653571D01*
X146357142Y-77653571D02*
X145500000Y-77653571D01*
X145928571Y-77653571D02*
X145928571Y-76153571D01*
X145785714Y-76367857D01*
X145642857Y-76510714D01*
X145500000Y-76582142D01*
X148071428Y-77582142D02*
X148285714Y-77653571D01*
X148642857Y-77653571D01*
X148785714Y-77582142D01*
X148857142Y-77510714D01*
X148928571Y-77367857D01*
X148928571Y-77225000D01*
X148857142Y-77082142D01*
X148785714Y-77010714D01*
X148642857Y-76939285D01*
X148357142Y-76867857D01*
X148214285Y-76796428D01*
X148142857Y-76725000D01*
X148071428Y-76582142D01*
X148071428Y-76439285D01*
X148142857Y-76296428D01*
X148214285Y-76225000D01*
X148357142Y-76153571D01*
X148714285Y-76153571D01*
X148928571Y-76225000D01*
X149428571Y-76153571D02*
X149785714Y-77653571D01*
X150071428Y-76582142D01*
X150357142Y-77653571D01*
X150714285Y-76153571D01*
X151285714Y-77653571D02*
X151285714Y-76153571D01*
X151785714Y-77225000D01*
X152285714Y-76153571D01*
X152285714Y-77653571D01*
X154642857Y-76867857D02*
X154857142Y-76939285D01*
X154928571Y-77010714D01*
X155000000Y-77153571D01*
X155000000Y-77367857D01*
X154928571Y-77510714D01*
X154857142Y-77582142D01*
X154714285Y-77653571D01*
X154142857Y-77653571D01*
X154142857Y-76153571D01*
X154642857Y-76153571D01*
X154785714Y-76225000D01*
X154857142Y-76296428D01*
X154928571Y-76439285D01*
X154928571Y-76582142D01*
X154857142Y-76725000D01*
X154785714Y-76796428D01*
X154642857Y-76867857D01*
X154142857Y-76867857D01*
X155857142Y-77653571D02*
X155714285Y-77582142D01*
X155642857Y-77510714D01*
X155571428Y-77367857D01*
X155571428Y-76939285D01*
X155642857Y-76796428D01*
X155714285Y-76725000D01*
X155857142Y-76653571D01*
X156071428Y-76653571D01*
X156214285Y-76725000D01*
X156285714Y-76796428D01*
X156357142Y-76939285D01*
X156357142Y-77367857D01*
X156285714Y-77510714D01*
X156214285Y-77582142D01*
X156071428Y-77653571D01*
X155857142Y-77653571D01*
X157642857Y-77653571D02*
X157642857Y-76867857D01*
X157571428Y-76725000D01*
X157428571Y-76653571D01*
X157142857Y-76653571D01*
X157000000Y-76725000D01*
X157642857Y-77582142D02*
X157500000Y-77653571D01*
X157142857Y-77653571D01*
X157000000Y-77582142D01*
X156928571Y-77439285D01*
X156928571Y-77296428D01*
X157000000Y-77153571D01*
X157142857Y-77082142D01*
X157500000Y-77082142D01*
X157642857Y-77010714D01*
X158357142Y-77653571D02*
X158357142Y-76653571D01*
X158357142Y-76939285D02*
X158428571Y-76796428D01*
X158500000Y-76725000D01*
X158642857Y-76653571D01*
X158785714Y-76653571D01*
X159928571Y-77653571D02*
X159928571Y-76153571D01*
X159928571Y-77582142D02*
X159785714Y-77653571D01*
X159500000Y-77653571D01*
X159357142Y-77582142D01*
X159285714Y-77510714D01*
X159214285Y-77367857D01*
X159214285Y-76939285D01*
X159285714Y-76796428D01*
X159357142Y-76725000D01*
X159500000Y-76653571D01*
X159785714Y-76653571D01*
X159928571Y-76725000D01*
X149892857Y-78703571D02*
X149892857Y-79775000D01*
X149821428Y-79989285D01*
X149678571Y-80132142D01*
X149464285Y-80203571D01*
X149321428Y-80203571D01*
X151250000Y-79203571D02*
X151250000Y-80203571D01*
X150607142Y-79203571D02*
X150607142Y-79989285D01*
X150678571Y-80132142D01*
X150821428Y-80203571D01*
X151035714Y-80203571D01*
X151178571Y-80132142D01*
X151250000Y-80060714D01*
X152178571Y-80203571D02*
X152035714Y-80132142D01*
X151964285Y-79989285D01*
X151964285Y-78703571D01*
X153821428Y-78846428D02*
X153892857Y-78775000D01*
X154035714Y-78703571D01*
X154392857Y-78703571D01*
X154535714Y-78775000D01*
X154607142Y-78846428D01*
X154678571Y-78989285D01*
X154678571Y-79132142D01*
X154607142Y-79346428D01*
X153750000Y-80203571D01*
X154678571Y-80203571D01*
X156107142Y-80203571D02*
X155250000Y-80203571D01*
X155678571Y-80203571D02*
X155678571Y-78703571D01*
X155535714Y-78917857D01*
X155392857Y-79060714D01*
X155250000Y-79132142D01*
D11*
%TO.C,SW1*%
X164450000Y-92350000D02*
X165850000Y-92350000D01*
X165850000Y-92350000D02*
X165850000Y-96150000D01*
X156650000Y-96150000D02*
X156650000Y-92350000D01*
X156650000Y-92350000D02*
X158050000Y-92350000D01*
X163050000Y-92350000D02*
X161950000Y-92350000D01*
X161950000Y-92350000D02*
X161950000Y-92350000D01*
X160550000Y-92350000D02*
X159450000Y-92350000D01*
X159450000Y-92350000D02*
X159450000Y-92350000D01*
X165850000Y-96150000D02*
X164150000Y-96150000D01*
X164150000Y-96150000D02*
X164150000Y-96450000D01*
X164150000Y-96450000D02*
X163350000Y-96450000D01*
X163350000Y-96450000D02*
X163350000Y-96150000D01*
X163350000Y-96150000D02*
X161650000Y-96150000D01*
X161650000Y-96150000D02*
X161650000Y-96450000D01*
X161650000Y-96450000D02*
X160850000Y-96450000D01*
X160850000Y-96450000D02*
X160850000Y-96150000D01*
X160850000Y-96150000D02*
X159150000Y-96150000D01*
X159150000Y-96150000D02*
X159150000Y-96450000D01*
X159150000Y-96450000D02*
X158350000Y-96450000D01*
X158350000Y-96450000D02*
X158350000Y-96150000D01*
X158350000Y-96150000D02*
X156650000Y-96150000D01*
X156650000Y-96150000D02*
X156650000Y-96150000D01*
X159250000Y-98050000D02*
X159250000Y-97550000D01*
X159250000Y-97550000D02*
X159250000Y-97550000D01*
X159250000Y-98050000D02*
X159750000Y-98050000D01*
X159750000Y-98050000D02*
X159750000Y-98050000D01*
X163250000Y-98050000D02*
X162750000Y-98050000D01*
X162750000Y-98050000D02*
X162750000Y-98050000D01*
X163250000Y-98050000D02*
X163250000Y-97550000D01*
X163250000Y-97550000D02*
X163250000Y-97550000D01*
X163250000Y-97250000D02*
X163250000Y-96750000D01*
X163250000Y-96750000D02*
X163250000Y-96750000D01*
X159250000Y-97250000D02*
X159250000Y-96750000D01*
X159250000Y-96750000D02*
X159250000Y-96750000D01*
X160050000Y-98050000D02*
X160550000Y-98050000D01*
X160550000Y-98050000D02*
X160550000Y-98050000D01*
X162450000Y-98050000D02*
X161950000Y-98050000D01*
X161950000Y-98050000D02*
X161950000Y-98050000D01*
X161650000Y-98050000D02*
X160850000Y-98050000D01*
X160850000Y-98050000D02*
X160850000Y-98050000D01*
D12*
%TO.C,U3*%
X155075000Y-83325000D02*
X155075000Y-83550000D01*
X158425000Y-83325000D02*
X158425000Y-83625000D01*
X158425000Y-86675000D02*
X158425000Y-86375000D01*
X155075000Y-86675000D02*
X155075000Y-86375000D01*
X155075000Y-83325000D02*
X158425000Y-83325000D01*
X155075000Y-86675000D02*
X158425000Y-86675000D01*
X155075000Y-83550000D02*
X153850000Y-83550000D01*
D11*
%TO.C,EFM8_Prog1*%
X147410000Y-94830000D02*
X147410000Y-92170000D01*
X142270000Y-94830000D02*
X147410000Y-94830000D01*
X142270000Y-92170000D02*
X147410000Y-92170000D01*
X142270000Y-94830000D02*
X142270000Y-92170000D01*
X141000000Y-94830000D02*
X139670000Y-94830000D01*
X139670000Y-94830000D02*
X139670000Y-93500000D01*
%TO.C,U6*%
X145860000Y-80865000D02*
X145860000Y-80565000D01*
X145860000Y-80565000D02*
X145560000Y-80565000D01*
X145860000Y-87485000D02*
X145860000Y-87785000D01*
X145860000Y-87785000D02*
X145560000Y-87785000D01*
X138640000Y-80865000D02*
X138640000Y-80565000D01*
X138640000Y-80565000D02*
X138940000Y-80565000D01*
X138640000Y-87485000D02*
X138640000Y-87785000D01*
X138640000Y-87785000D02*
X138940000Y-87785000D01*
X138940000Y-87785000D02*
X138940000Y-89100000D01*
%TO.C,C6*%
X137760000Y-92578733D02*
X137760000Y-92921267D01*
X136740000Y-92578733D02*
X136740000Y-92921267D01*
%TO.C,C5*%
X135760000Y-92578733D02*
X135760000Y-92921267D01*
X134740000Y-92578733D02*
X134740000Y-92921267D01*
%TO.C,R5*%
X152260000Y-83578733D02*
X152260000Y-83921267D01*
X151240000Y-83578733D02*
X151240000Y-83921267D01*
%TO.C,R4*%
X152260000Y-87453733D02*
X152260000Y-87796267D01*
X151240000Y-87453733D02*
X151240000Y-87796267D01*
%TO.C,L1*%
X164860000Y-83390000D02*
X163835000Y-83390000D01*
X164860000Y-83390000D02*
X164860000Y-84415000D01*
X164860000Y-88160000D02*
X164860000Y-87135000D01*
X164860000Y-88160000D02*
X163835000Y-88160000D01*
X160640000Y-88160000D02*
X161665000Y-88160000D01*
X160640000Y-83390000D02*
X161665000Y-83390000D01*
X160640000Y-88160000D02*
X160640000Y-87135000D01*
X160640000Y-83390000D02*
X160640000Y-84415000D01*
%TO.C,J1*%
X176690000Y-75420000D02*
X176690000Y-95860000D01*
X176690000Y-95860000D02*
X179350000Y-95860000D01*
X179350000Y-95860000D02*
X179350000Y-75420000D01*
X179350000Y-75420000D02*
X176690000Y-75420000D01*
X179350000Y-76370000D02*
X185350000Y-76370000D01*
X185350000Y-76370000D02*
X185350000Y-77130000D01*
X185350000Y-77130000D02*
X179350000Y-77130000D01*
X179350000Y-76430000D02*
X185350000Y-76430000D01*
X179350000Y-76550000D02*
X185350000Y-76550000D01*
X179350000Y-76670000D02*
X185350000Y-76670000D01*
X179350000Y-76790000D02*
X185350000Y-76790000D01*
X179350000Y-76910000D02*
X185350000Y-76910000D01*
X179350000Y-77030000D02*
X185350000Y-77030000D01*
X176360000Y-76370000D02*
X176690000Y-76370000D01*
X176360000Y-77130000D02*
X176690000Y-77130000D01*
X176690000Y-78020000D02*
X179350000Y-78020000D01*
X179350000Y-78910000D02*
X185350000Y-78910000D01*
X185350000Y-78910000D02*
X185350000Y-79670000D01*
X185350000Y-79670000D02*
X179350000Y-79670000D01*
X176292929Y-78910000D02*
X176690000Y-78910000D01*
X176292929Y-79670000D02*
X176690000Y-79670000D01*
X176690000Y-80560000D02*
X179350000Y-80560000D01*
X179350000Y-81450000D02*
X185350000Y-81450000D01*
X185350000Y-81450000D02*
X185350000Y-82210000D01*
X185350000Y-82210000D02*
X179350000Y-82210000D01*
X176292929Y-81450000D02*
X176690000Y-81450000D01*
X176292929Y-82210000D02*
X176690000Y-82210000D01*
X176690000Y-83100000D02*
X179350000Y-83100000D01*
X179350000Y-83990000D02*
X185350000Y-83990000D01*
X185350000Y-83990000D02*
X185350000Y-84750000D01*
X185350000Y-84750000D02*
X179350000Y-84750000D01*
X176292929Y-83990000D02*
X176690000Y-83990000D01*
X176292929Y-84750000D02*
X176690000Y-84750000D01*
X176690000Y-85640000D02*
X179350000Y-85640000D01*
X179350000Y-86530000D02*
X185350000Y-86530000D01*
X185350000Y-86530000D02*
X185350000Y-87290000D01*
X185350000Y-87290000D02*
X179350000Y-87290000D01*
X176292929Y-86530000D02*
X176690000Y-86530000D01*
X176292929Y-87290000D02*
X176690000Y-87290000D01*
X176690000Y-88180000D02*
X179350000Y-88180000D01*
X179350000Y-89070000D02*
X185350000Y-89070000D01*
X185350000Y-89070000D02*
X185350000Y-89830000D01*
X185350000Y-89830000D02*
X179350000Y-89830000D01*
X176292929Y-89070000D02*
X176690000Y-89070000D01*
X176292929Y-89830000D02*
X176690000Y-89830000D01*
X176690000Y-90720000D02*
X179350000Y-90720000D01*
X179350000Y-91610000D02*
X185350000Y-91610000D01*
X185350000Y-91610000D02*
X185350000Y-92370000D01*
X185350000Y-92370000D02*
X179350000Y-92370000D01*
X176292929Y-91610000D02*
X176690000Y-91610000D01*
X176292929Y-92370000D02*
X176690000Y-92370000D01*
X176690000Y-93260000D02*
X179350000Y-93260000D01*
X179350000Y-94150000D02*
X185350000Y-94150000D01*
X185350000Y-94150000D02*
X185350000Y-94910000D01*
X185350000Y-94910000D02*
X179350000Y-94910000D01*
X176292929Y-94150000D02*
X176690000Y-94150000D01*
X176292929Y-94910000D02*
X176690000Y-94910000D01*
X173980000Y-76750000D02*
X173980000Y-75480000D01*
X173980000Y-75480000D02*
X175250000Y-75480000D01*
%TO.C,C3*%
X160296267Y-80510000D02*
X159953733Y-80510000D01*
X160296267Y-79490000D02*
X159953733Y-79490000D01*
%TO.C,C2*%
X155328733Y-89490000D02*
X155671267Y-89490000D01*
X155328733Y-90510000D02*
X155671267Y-90510000D01*
%TO.C,Battery1*%
X151520000Y-92170000D02*
X151520000Y-94830000D01*
X151520000Y-92170000D02*
X148920000Y-92170000D01*
X148920000Y-92170000D02*
X148920000Y-94830000D01*
X151520000Y-94830000D02*
X148920000Y-94830000D01*
X154120000Y-94830000D02*
X152790000Y-94830000D01*
X154120000Y-93500000D02*
X154120000Y-94830000D01*
%TO.C,C4*%
X160296267Y-82260000D02*
X159953733Y-82260000D01*
X160296267Y-81240000D02*
X159953733Y-81240000D01*
%TO.C,C1*%
X155328733Y-87490000D02*
X155671267Y-87490000D01*
X155328733Y-88510000D02*
X155671267Y-88510000D01*
%TO.C,U5*%
X167600000Y-90360000D02*
X169400000Y-90360000D01*
X169400000Y-87140000D02*
X166950000Y-87140000D01*
%TO.C,U4*%
X167500000Y-84910000D02*
X169300000Y-84910000D01*
X169300000Y-81690000D02*
X166850000Y-81690000D01*
%TO.C,U2*%
X131322800Y-78042600D02*
X130362800Y-78042600D01*
X131322800Y-79672600D02*
X131322800Y-78042600D01*
X131322800Y-93102600D02*
X131322800Y-91472600D01*
X130362800Y-93102600D02*
X131322800Y-93102600D01*
X111602800Y-78042600D02*
X118462800Y-78042600D01*
X111602800Y-93102600D02*
X111602800Y-78042600D01*
X118462800Y-93102600D02*
X111602800Y-93102600D01*
%TO.C,R2*%
X172960000Y-82963748D02*
X172960000Y-83486252D01*
X171540000Y-82963748D02*
X171540000Y-83486252D01*
%TO.C,R1*%
X172960000Y-88488748D02*
X172960000Y-89011252D01*
X171540000Y-88488748D02*
X171540000Y-89011252D01*
%TO.C,D1*%
X140087500Y-76015000D02*
X137802500Y-76015000D01*
X137802500Y-76015000D02*
X137802500Y-77485000D01*
X137802500Y-77485000D02*
X140087500Y-77485000D01*
%TO.C,R3*%
X135546267Y-77260000D02*
X135203733Y-77260000D01*
X135546267Y-76240000D02*
X135203733Y-76240000D01*
%TO.C,SW1*%
D12*
X159916666Y-89854761D02*
X160059523Y-89902380D01*
X160297619Y-89902380D01*
X160392857Y-89854761D01*
X160440476Y-89807142D01*
X160488095Y-89711904D01*
X160488095Y-89616666D01*
X160440476Y-89521428D01*
X160392857Y-89473809D01*
X160297619Y-89426190D01*
X160107142Y-89378571D01*
X160011904Y-89330952D01*
X159964285Y-89283333D01*
X159916666Y-89188095D01*
X159916666Y-89092857D01*
X159964285Y-88997619D01*
X160011904Y-88950000D01*
X160107142Y-88902380D01*
X160345238Y-88902380D01*
X160488095Y-88950000D01*
X160821428Y-88902380D02*
X161059523Y-89902380D01*
X161250000Y-89188095D01*
X161440476Y-89902380D01*
X161678571Y-88902380D01*
X162583333Y-89902380D02*
X162011904Y-89902380D01*
X162297619Y-89902380D02*
X162297619Y-88902380D01*
X162202380Y-89045238D01*
X162107142Y-89140476D01*
X162011904Y-89188095D01*
%TO.C,U3*%
X155988095Y-81852380D02*
X155988095Y-82661904D01*
X156035714Y-82757142D01*
X156083333Y-82804761D01*
X156178571Y-82852380D01*
X156369047Y-82852380D01*
X156464285Y-82804761D01*
X156511904Y-82757142D01*
X156559523Y-82661904D01*
X156559523Y-81852380D01*
X156940476Y-81852380D02*
X157559523Y-81852380D01*
X157226190Y-82233333D01*
X157369047Y-82233333D01*
X157464285Y-82280952D01*
X157511904Y-82328571D01*
X157559523Y-82423809D01*
X157559523Y-82661904D01*
X157511904Y-82757142D01*
X157464285Y-82804761D01*
X157369047Y-82852380D01*
X157083333Y-82852380D01*
X156988095Y-82804761D01*
X156940476Y-82757142D01*
%TO.C,EFM8_Prog1*%
X138818095Y-90428571D02*
X139151428Y-90428571D01*
X139294285Y-90952380D02*
X138818095Y-90952380D01*
X138818095Y-89952380D01*
X139294285Y-89952380D01*
X140056190Y-90428571D02*
X139722857Y-90428571D01*
X139722857Y-90952380D02*
X139722857Y-89952380D01*
X140199047Y-89952380D01*
X140580000Y-90952380D02*
X140580000Y-89952380D01*
X140913333Y-90666666D01*
X141246666Y-89952380D01*
X141246666Y-90952380D01*
X141865714Y-90380952D02*
X141770476Y-90333333D01*
X141722857Y-90285714D01*
X141675238Y-90190476D01*
X141675238Y-90142857D01*
X141722857Y-90047619D01*
X141770476Y-90000000D01*
X141865714Y-89952380D01*
X142056190Y-89952380D01*
X142151428Y-90000000D01*
X142199047Y-90047619D01*
X142246666Y-90142857D01*
X142246666Y-90190476D01*
X142199047Y-90285714D01*
X142151428Y-90333333D01*
X142056190Y-90380952D01*
X141865714Y-90380952D01*
X141770476Y-90428571D01*
X141722857Y-90476190D01*
X141675238Y-90571428D01*
X141675238Y-90761904D01*
X141722857Y-90857142D01*
X141770476Y-90904761D01*
X141865714Y-90952380D01*
X142056190Y-90952380D01*
X142151428Y-90904761D01*
X142199047Y-90857142D01*
X142246666Y-90761904D01*
X142246666Y-90571428D01*
X142199047Y-90476190D01*
X142151428Y-90428571D01*
X142056190Y-90380952D01*
X142437142Y-91047619D02*
X143199047Y-91047619D01*
X143437142Y-90952380D02*
X143437142Y-89952380D01*
X143818095Y-89952380D01*
X143913333Y-90000000D01*
X143960952Y-90047619D01*
X144008571Y-90142857D01*
X144008571Y-90285714D01*
X143960952Y-90380952D01*
X143913333Y-90428571D01*
X143818095Y-90476190D01*
X143437142Y-90476190D01*
X144437142Y-90952380D02*
X144437142Y-90285714D01*
X144437142Y-90476190D02*
X144484761Y-90380952D01*
X144532380Y-90333333D01*
X144627619Y-90285714D01*
X144722857Y-90285714D01*
X145199047Y-90952380D02*
X145103809Y-90904761D01*
X145056190Y-90857142D01*
X145008571Y-90761904D01*
X145008571Y-90476190D01*
X145056190Y-90380952D01*
X145103809Y-90333333D01*
X145199047Y-90285714D01*
X145341904Y-90285714D01*
X145437142Y-90333333D01*
X145484761Y-90380952D01*
X145532380Y-90476190D01*
X145532380Y-90761904D01*
X145484761Y-90857142D01*
X145437142Y-90904761D01*
X145341904Y-90952380D01*
X145199047Y-90952380D01*
X146389523Y-90285714D02*
X146389523Y-91095238D01*
X146341904Y-91190476D01*
X146294285Y-91238095D01*
X146199047Y-91285714D01*
X146056190Y-91285714D01*
X145960952Y-91238095D01*
X146389523Y-90904761D02*
X146294285Y-90952380D01*
X146103809Y-90952380D01*
X146008571Y-90904761D01*
X145960952Y-90857142D01*
X145913333Y-90761904D01*
X145913333Y-90476190D01*
X145960952Y-90380952D01*
X146008571Y-90333333D01*
X146103809Y-90285714D01*
X146294285Y-90285714D01*
X146389523Y-90333333D01*
X147389523Y-90952380D02*
X146818095Y-90952380D01*
X147103809Y-90952380D02*
X147103809Y-89952380D01*
X147008571Y-90095238D01*
X146913333Y-90190476D01*
X146818095Y-90238095D01*
%TO.C,U6*%
X147702380Y-84936904D02*
X148511904Y-84936904D01*
X148607142Y-84889285D01*
X148654761Y-84841666D01*
X148702380Y-84746428D01*
X148702380Y-84555952D01*
X148654761Y-84460714D01*
X148607142Y-84413095D01*
X148511904Y-84365476D01*
X147702380Y-84365476D01*
X147702380Y-83460714D02*
X147702380Y-83651190D01*
X147750000Y-83746428D01*
X147797619Y-83794047D01*
X147940476Y-83889285D01*
X148130952Y-83936904D01*
X148511904Y-83936904D01*
X148607142Y-83889285D01*
X148654761Y-83841666D01*
X148702380Y-83746428D01*
X148702380Y-83555952D01*
X148654761Y-83460714D01*
X148607142Y-83413095D01*
X148511904Y-83365476D01*
X148273809Y-83365476D01*
X148178571Y-83413095D01*
X148130952Y-83460714D01*
X148083333Y-83555952D01*
X148083333Y-83746428D01*
X148130952Y-83841666D01*
X148178571Y-83889285D01*
X148273809Y-83936904D01*
%TO.C,C6*%
X137083333Y-95732142D02*
X137035714Y-95779761D01*
X136892857Y-95827380D01*
X136797619Y-95827380D01*
X136654761Y-95779761D01*
X136559523Y-95684523D01*
X136511904Y-95589285D01*
X136464285Y-95398809D01*
X136464285Y-95255952D01*
X136511904Y-95065476D01*
X136559523Y-94970238D01*
X136654761Y-94875000D01*
X136797619Y-94827380D01*
X136892857Y-94827380D01*
X137035714Y-94875000D01*
X137083333Y-94922619D01*
X137940476Y-94827380D02*
X137750000Y-94827380D01*
X137654761Y-94875000D01*
X137607142Y-94922619D01*
X137511904Y-95065476D01*
X137464285Y-95255952D01*
X137464285Y-95636904D01*
X137511904Y-95732142D01*
X137559523Y-95779761D01*
X137654761Y-95827380D01*
X137845238Y-95827380D01*
X137940476Y-95779761D01*
X137988095Y-95732142D01*
X138035714Y-95636904D01*
X138035714Y-95398809D01*
X137988095Y-95303571D01*
X137940476Y-95255952D01*
X137845238Y-95208333D01*
X137654761Y-95208333D01*
X137559523Y-95255952D01*
X137511904Y-95303571D01*
X137464285Y-95398809D01*
%TO.C,C5*%
X134833333Y-95732142D02*
X134785714Y-95779761D01*
X134642857Y-95827380D01*
X134547619Y-95827380D01*
X134404761Y-95779761D01*
X134309523Y-95684523D01*
X134261904Y-95589285D01*
X134214285Y-95398809D01*
X134214285Y-95255952D01*
X134261904Y-95065476D01*
X134309523Y-94970238D01*
X134404761Y-94875000D01*
X134547619Y-94827380D01*
X134642857Y-94827380D01*
X134785714Y-94875000D01*
X134833333Y-94922619D01*
X135738095Y-94827380D02*
X135261904Y-94827380D01*
X135214285Y-95303571D01*
X135261904Y-95255952D01*
X135357142Y-95208333D01*
X135595238Y-95208333D01*
X135690476Y-95255952D01*
X135738095Y-95303571D01*
X135785714Y-95398809D01*
X135785714Y-95636904D01*
X135738095Y-95732142D01*
X135690476Y-95779761D01*
X135595238Y-95827380D01*
X135357142Y-95827380D01*
X135261904Y-95779761D01*
X135214285Y-95732142D01*
%TO.C,R5*%
X150702380Y-84166666D02*
X150226190Y-84500000D01*
X150702380Y-84738095D02*
X149702380Y-84738095D01*
X149702380Y-84357142D01*
X149750000Y-84261904D01*
X149797619Y-84214285D01*
X149892857Y-84166666D01*
X150035714Y-84166666D01*
X150130952Y-84214285D01*
X150178571Y-84261904D01*
X150226190Y-84357142D01*
X150226190Y-84738095D01*
X149702380Y-83261904D02*
X149702380Y-83738095D01*
X150178571Y-83785714D01*
X150130952Y-83738095D01*
X150083333Y-83642857D01*
X150083333Y-83404761D01*
X150130952Y-83309523D01*
X150178571Y-83261904D01*
X150273809Y-83214285D01*
X150511904Y-83214285D01*
X150607142Y-83261904D01*
X150654761Y-83309523D01*
X150702380Y-83404761D01*
X150702380Y-83642857D01*
X150654761Y-83738095D01*
X150607142Y-83785714D01*
%TO.C,R4*%
X150702380Y-87666666D02*
X150226190Y-88000000D01*
X150702380Y-88238095D02*
X149702380Y-88238095D01*
X149702380Y-87857142D01*
X149750000Y-87761904D01*
X149797619Y-87714285D01*
X149892857Y-87666666D01*
X150035714Y-87666666D01*
X150130952Y-87714285D01*
X150178571Y-87761904D01*
X150226190Y-87857142D01*
X150226190Y-88238095D01*
X150035714Y-86809523D02*
X150702380Y-86809523D01*
X149654761Y-87047619D02*
X150369047Y-87285714D01*
X150369047Y-86666666D01*
%TO.C,L1*%
X166452380Y-85916666D02*
X166452380Y-86392857D01*
X165452380Y-86392857D01*
X166452380Y-85059523D02*
X166452380Y-85630952D01*
X166452380Y-85345238D02*
X165452380Y-85345238D01*
X165595238Y-85440476D01*
X165690476Y-85535714D01*
X165738095Y-85630952D01*
%TO.C,J1*%
X171916666Y-79202380D02*
X171916666Y-79916666D01*
X171869047Y-80059523D01*
X171773809Y-80154761D01*
X171630952Y-80202380D01*
X171535714Y-80202380D01*
X172916666Y-80202380D02*
X172345238Y-80202380D01*
X172630952Y-80202380D02*
X172630952Y-79202380D01*
X172535714Y-79345238D01*
X172440476Y-79440476D01*
X172345238Y-79488095D01*
%TO.C,C3*%
X162833333Y-80357142D02*
X162785714Y-80404761D01*
X162642857Y-80452380D01*
X162547619Y-80452380D01*
X162404761Y-80404761D01*
X162309523Y-80309523D01*
X162261904Y-80214285D01*
X162214285Y-80023809D01*
X162214285Y-79880952D01*
X162261904Y-79690476D01*
X162309523Y-79595238D01*
X162404761Y-79500000D01*
X162547619Y-79452380D01*
X162642857Y-79452380D01*
X162785714Y-79500000D01*
X162833333Y-79547619D01*
X163166666Y-79452380D02*
X163785714Y-79452380D01*
X163452380Y-79833333D01*
X163595238Y-79833333D01*
X163690476Y-79880952D01*
X163738095Y-79928571D01*
X163785714Y-80023809D01*
X163785714Y-80261904D01*
X163738095Y-80357142D01*
X163690476Y-80404761D01*
X163595238Y-80452380D01*
X163309523Y-80452380D01*
X163214285Y-80404761D01*
X163166666Y-80357142D01*
%TO.C,C2*%
X153607142Y-90416666D02*
X153654761Y-90464285D01*
X153702380Y-90607142D01*
X153702380Y-90702380D01*
X153654761Y-90845238D01*
X153559523Y-90940476D01*
X153464285Y-90988095D01*
X153273809Y-91035714D01*
X153130952Y-91035714D01*
X152940476Y-90988095D01*
X152845238Y-90940476D01*
X152750000Y-90845238D01*
X152702380Y-90702380D01*
X152702380Y-90607142D01*
X152750000Y-90464285D01*
X152797619Y-90416666D01*
X152797619Y-90035714D02*
X152750000Y-89988095D01*
X152702380Y-89892857D01*
X152702380Y-89654761D01*
X152750000Y-89559523D01*
X152797619Y-89511904D01*
X152892857Y-89464285D01*
X152988095Y-89464285D01*
X153130952Y-89511904D01*
X153702380Y-90083333D01*
X153702380Y-89464285D01*
%TO.C,Battery1*%
X148952380Y-91178571D02*
X149095238Y-91226190D01*
X149142857Y-91273809D01*
X149190476Y-91369047D01*
X149190476Y-91511904D01*
X149142857Y-91607142D01*
X149095238Y-91654761D01*
X149000000Y-91702380D01*
X148619047Y-91702380D01*
X148619047Y-90702380D01*
X148952380Y-90702380D01*
X149047619Y-90750000D01*
X149095238Y-90797619D01*
X149142857Y-90892857D01*
X149142857Y-90988095D01*
X149095238Y-91083333D01*
X149047619Y-91130952D01*
X148952380Y-91178571D01*
X148619047Y-91178571D01*
X150047619Y-91702380D02*
X150047619Y-91178571D01*
X150000000Y-91083333D01*
X149904761Y-91035714D01*
X149714285Y-91035714D01*
X149619047Y-91083333D01*
X150047619Y-91654761D02*
X149952380Y-91702380D01*
X149714285Y-91702380D01*
X149619047Y-91654761D01*
X149571428Y-91559523D01*
X149571428Y-91464285D01*
X149619047Y-91369047D01*
X149714285Y-91321428D01*
X149952380Y-91321428D01*
X150047619Y-91273809D01*
X150380952Y-91035714D02*
X150761904Y-91035714D01*
X150523809Y-90702380D02*
X150523809Y-91559523D01*
X150571428Y-91654761D01*
X150666666Y-91702380D01*
X150761904Y-91702380D01*
X150952380Y-91035714D02*
X151333333Y-91035714D01*
X151095238Y-90702380D02*
X151095238Y-91559523D01*
X151142857Y-91654761D01*
X151238095Y-91702380D01*
X151333333Y-91702380D01*
X152047619Y-91654761D02*
X151952380Y-91702380D01*
X151761904Y-91702380D01*
X151666666Y-91654761D01*
X151619047Y-91559523D01*
X151619047Y-91178571D01*
X151666666Y-91083333D01*
X151761904Y-91035714D01*
X151952380Y-91035714D01*
X152047619Y-91083333D01*
X152095238Y-91178571D01*
X152095238Y-91273809D01*
X151619047Y-91369047D01*
X152523809Y-91702380D02*
X152523809Y-91035714D01*
X152523809Y-91226190D02*
X152571428Y-91130952D01*
X152619047Y-91083333D01*
X152714285Y-91035714D01*
X152809523Y-91035714D01*
X153047619Y-91035714D02*
X153285714Y-91702380D01*
X153523809Y-91035714D02*
X153285714Y-91702380D01*
X153190476Y-91940476D01*
X153142857Y-91988095D01*
X153047619Y-92035714D01*
X154428571Y-91702380D02*
X153857142Y-91702380D01*
X154142857Y-91702380D02*
X154142857Y-90702380D01*
X154047619Y-90845238D01*
X153952380Y-90940476D01*
X153857142Y-90988095D01*
%TO.C,C4*%
X162833333Y-82107142D02*
X162785714Y-82154761D01*
X162642857Y-82202380D01*
X162547619Y-82202380D01*
X162404761Y-82154761D01*
X162309523Y-82059523D01*
X162261904Y-81964285D01*
X162214285Y-81773809D01*
X162214285Y-81630952D01*
X162261904Y-81440476D01*
X162309523Y-81345238D01*
X162404761Y-81250000D01*
X162547619Y-81202380D01*
X162642857Y-81202380D01*
X162785714Y-81250000D01*
X162833333Y-81297619D01*
X163690476Y-81535714D02*
X163690476Y-82202380D01*
X163452380Y-81154761D02*
X163214285Y-81869047D01*
X163833333Y-81869047D01*
%TO.C,C1*%
X153607142Y-88166666D02*
X153654761Y-88214285D01*
X153702380Y-88357142D01*
X153702380Y-88452380D01*
X153654761Y-88595238D01*
X153559523Y-88690476D01*
X153464285Y-88738095D01*
X153273809Y-88785714D01*
X153130952Y-88785714D01*
X152940476Y-88738095D01*
X152845238Y-88690476D01*
X152750000Y-88595238D01*
X152702380Y-88452380D01*
X152702380Y-88357142D01*
X152750000Y-88214285D01*
X152797619Y-88166666D01*
X153702380Y-87214285D02*
X153702380Y-87785714D01*
X153702380Y-87500000D02*
X152702380Y-87500000D01*
X152845238Y-87595238D01*
X152940476Y-87690476D01*
X152988095Y-87785714D01*
%TO.C,U5*%
X166738095Y-90952380D02*
X166738095Y-91761904D01*
X166785714Y-91857142D01*
X166833333Y-91904761D01*
X166928571Y-91952380D01*
X167119047Y-91952380D01*
X167214285Y-91904761D01*
X167261904Y-91857142D01*
X167309523Y-91761904D01*
X167309523Y-90952380D01*
X168261904Y-90952380D02*
X167785714Y-90952380D01*
X167738095Y-91428571D01*
X167785714Y-91380952D01*
X167880952Y-91333333D01*
X168119047Y-91333333D01*
X168214285Y-91380952D01*
X168261904Y-91428571D01*
X168309523Y-91523809D01*
X168309523Y-91761904D01*
X168261904Y-91857142D01*
X168214285Y-91904761D01*
X168119047Y-91952380D01*
X167880952Y-91952380D01*
X167785714Y-91904761D01*
X167738095Y-91857142D01*
%TO.C,U4*%
X167738095Y-85302380D02*
X167738095Y-86111904D01*
X167785714Y-86207142D01*
X167833333Y-86254761D01*
X167928571Y-86302380D01*
X168119047Y-86302380D01*
X168214285Y-86254761D01*
X168261904Y-86207142D01*
X168309523Y-86111904D01*
X168309523Y-85302380D01*
X169214285Y-85635714D02*
X169214285Y-86302380D01*
X168976190Y-85254761D02*
X168738095Y-85969047D01*
X169357142Y-85969047D01*
%TO.C,U2*%
X132952380Y-86511904D02*
X133761904Y-86511904D01*
X133857142Y-86464285D01*
X133904761Y-86416666D01*
X133952380Y-86321428D01*
X133952380Y-86130952D01*
X133904761Y-86035714D01*
X133857142Y-85988095D01*
X133761904Y-85940476D01*
X132952380Y-85940476D01*
X133047619Y-85511904D02*
X133000000Y-85464285D01*
X132952380Y-85369047D01*
X132952380Y-85130952D01*
X133000000Y-85035714D01*
X133047619Y-84988095D01*
X133142857Y-84940476D01*
X133238095Y-84940476D01*
X133380952Y-84988095D01*
X133952380Y-85559523D01*
X133952380Y-84940476D01*
%TO.C,R2*%
X172083333Y-86402380D02*
X171750000Y-85926190D01*
X171511904Y-86402380D02*
X171511904Y-85402380D01*
X171892857Y-85402380D01*
X171988095Y-85450000D01*
X172035714Y-85497619D01*
X172083333Y-85592857D01*
X172083333Y-85735714D01*
X172035714Y-85830952D01*
X171988095Y-85878571D01*
X171892857Y-85926190D01*
X171511904Y-85926190D01*
X172464285Y-85497619D02*
X172511904Y-85450000D01*
X172607142Y-85402380D01*
X172845238Y-85402380D01*
X172940476Y-85450000D01*
X172988095Y-85497619D01*
X173035714Y-85592857D01*
X173035714Y-85688095D01*
X172988095Y-85830952D01*
X172416666Y-86402380D01*
X173035714Y-86402380D01*
%TO.C,R1*%
X172083333Y-91952380D02*
X171750000Y-91476190D01*
X171511904Y-91952380D02*
X171511904Y-90952380D01*
X171892857Y-90952380D01*
X171988095Y-91000000D01*
X172035714Y-91047619D01*
X172083333Y-91142857D01*
X172083333Y-91285714D01*
X172035714Y-91380952D01*
X171988095Y-91428571D01*
X171892857Y-91476190D01*
X171511904Y-91476190D01*
X173035714Y-91952380D02*
X172464285Y-91952380D01*
X172750000Y-91952380D02*
X172750000Y-90952380D01*
X172654761Y-91095238D01*
X172559523Y-91190476D01*
X172464285Y-91238095D01*
%TO.C,D1*%
X138511904Y-78702380D02*
X138511904Y-77702380D01*
X138750000Y-77702380D01*
X138892857Y-77750000D01*
X138988095Y-77845238D01*
X139035714Y-77940476D01*
X139083333Y-78130952D01*
X139083333Y-78273809D01*
X139035714Y-78464285D01*
X138988095Y-78559523D01*
X138892857Y-78654761D01*
X138750000Y-78702380D01*
X138511904Y-78702380D01*
X140035714Y-78702380D02*
X139464285Y-78702380D01*
X139750000Y-78702380D02*
X139750000Y-77702380D01*
X139654761Y-77845238D01*
X139559523Y-77940476D01*
X139464285Y-77988095D01*
%TO.C,R3*%
X135208333Y-78632380D02*
X134875000Y-78156190D01*
X134636904Y-78632380D02*
X134636904Y-77632380D01*
X135017857Y-77632380D01*
X135113095Y-77680000D01*
X135160714Y-77727619D01*
X135208333Y-77822857D01*
X135208333Y-77965714D01*
X135160714Y-78060952D01*
X135113095Y-78108571D01*
X135017857Y-78156190D01*
X134636904Y-78156190D01*
X135541666Y-77632380D02*
X136160714Y-77632380D01*
X135827380Y-78013333D01*
X135970238Y-78013333D01*
X136065476Y-78060952D01*
X136113095Y-78108571D01*
X136160714Y-78203809D01*
X136160714Y-78441904D01*
X136113095Y-78537142D01*
X136065476Y-78584761D01*
X135970238Y-78632380D01*
X135684523Y-78632380D01*
X135589285Y-78584761D01*
X135541666Y-78537142D01*
%TD*%
M02*
