%TF.GenerationSoftware,KiCad,Pcbnew,(5.1.6)-1*%
%TF.CreationDate,2021-07-30T23:56:05+08:00*%
%TF.ProjectId,wireless_measurement_ard,77697265-6c65-4737-935f-6d6561737572,rev?*%
%TF.SameCoordinates,Original*%
%TF.FileFunction,Copper,L1,Top*%
%TF.FilePolarity,Positive*%
%FSLAX46Y46*%
G04 Gerber Fmt 4.6, Leading zero omitted, Abs format (unit mm)*
G04 Created by KiCad (PCBNEW (5.1.6)-1) date 2021-07-30 23:56:05*
%MOMM*%
%LPD*%
G01*
G04 APERTURE LIST*
%TA.AperFunction,SMDPad,CuDef*%
%ADD10R,1.250000X2.500000*%
%TD*%
%TA.AperFunction,SMDPad,CuDef*%
%ADD11R,1.400000X0.300000*%
%TD*%
%TA.AperFunction,ComponentPad*%
%ADD12O,1.700000X1.700000*%
%TD*%
%TA.AperFunction,ComponentPad*%
%ADD13R,1.700000X1.700000*%
%TD*%
%TA.AperFunction,SMDPad,CuDef*%
%ADD14R,3.600000X1.500000*%
%TD*%
%TA.AperFunction,SMDPad,CuDef*%
%ADD15R,1.560000X0.650000*%
%TD*%
%TA.AperFunction,SMDPad,CuDef*%
%ADD16R,2.000000X0.800000*%
%TD*%
%TA.AperFunction,SMDPad,CuDef*%
%ADD17R,0.800000X2.000000*%
%TD*%
%TA.AperFunction,ViaPad*%
%ADD18C,0.800000*%
%TD*%
%TA.AperFunction,Conductor*%
%ADD19C,0.250000*%
%TD*%
%TA.AperFunction,Conductor*%
%ADD20C,0.500000*%
%TD*%
%TA.AperFunction,Conductor*%
%ADD21C,0.254000*%
%TD*%
G04 APERTURE END LIST*
D10*
%TO.P,SW1,3*%
%TO.N,Net-(SW1-Pad3)*%
X168750000Y-91500000D03*
%TO.P,SW1,2*%
%TO.N,VIN*%
X166250000Y-91500000D03*
%TO.P,SW1,1*%
%TO.N,BATT*%
X163750000Y-91500000D03*
%TD*%
D11*
%TO.P,U3,10*%
%TO.N,VIN*%
X158950000Y-84000000D03*
%TO.P,U3,9*%
X158950000Y-84500000D03*
%TO.P,U3,8*%
%TO.N,GND*%
X158950000Y-85000000D03*
%TO.P,U3,7*%
X158950000Y-85500000D03*
%TO.P,U3,6*%
%TO.N,Net-(L1-Pad2)*%
X158950000Y-86000000D03*
%TO.P,U3,5*%
%TO.N,+3V3*%
X154550000Y-86000000D03*
%TO.P,U3,4*%
%TO.N,VFB*%
X154550000Y-85500000D03*
%TO.P,U3,3*%
%TO.N,PGT*%
X154550000Y-85000000D03*
%TO.P,U3,2*%
%TO.N,LBO*%
X154550000Y-84500000D03*
%TO.P,U3,1*%
%TO.N,VIN*%
X154550000Y-84000000D03*
%TD*%
D12*
%TO.P,EFM8_Prog1,3*%
%TO.N,GND*%
X150500000Y-93500000D03*
%TO.P,EFM8_Prog1,2*%
%TO.N,C2D*%
X147960000Y-93500000D03*
D13*
%TO.P,EFM8_Prog1,1*%
%TO.N,C2CK*%
X145420000Y-93500000D03*
%TD*%
%TO.P,U6,32*%
%TO.N,Net-(U6-Pad32)*%
%TA.AperFunction,SMDPad,CuDef*%
G36*
G01*
X138700000Y-87225000D02*
X137450000Y-87225000D01*
G75*
G02*
X137325000Y-87100000I0J125000D01*
G01*
X137325000Y-86850000D01*
G75*
G02*
X137450000Y-86725000I125000J0D01*
G01*
X138700000Y-86725000D01*
G75*
G02*
X138825000Y-86850000I0J-125000D01*
G01*
X138825000Y-87100000D01*
G75*
G02*
X138700000Y-87225000I-125000J0D01*
G01*
G37*
%TD.AperFunction*%
%TO.P,U6,31*%
%TO.N,Net-(U6-Pad31)*%
%TA.AperFunction,SMDPad,CuDef*%
G36*
G01*
X138700000Y-86425000D02*
X137450000Y-86425000D01*
G75*
G02*
X137325000Y-86300000I0J125000D01*
G01*
X137325000Y-86050000D01*
G75*
G02*
X137450000Y-85925000I125000J0D01*
G01*
X138700000Y-85925000D01*
G75*
G02*
X138825000Y-86050000I0J-125000D01*
G01*
X138825000Y-86300000D01*
G75*
G02*
X138700000Y-86425000I-125000J0D01*
G01*
G37*
%TD.AperFunction*%
%TO.P,U6,30*%
%TO.N,Net-(U6-Pad30)*%
%TA.AperFunction,SMDPad,CuDef*%
G36*
G01*
X138700000Y-85625000D02*
X137450000Y-85625000D01*
G75*
G02*
X137325000Y-85500000I0J125000D01*
G01*
X137325000Y-85250000D01*
G75*
G02*
X137450000Y-85125000I125000J0D01*
G01*
X138700000Y-85125000D01*
G75*
G02*
X138825000Y-85250000I0J-125000D01*
G01*
X138825000Y-85500000D01*
G75*
G02*
X138700000Y-85625000I-125000J0D01*
G01*
G37*
%TD.AperFunction*%
%TO.P,U6,29*%
%TO.N,ARD_TX*%
%TA.AperFunction,SMDPad,CuDef*%
G36*
G01*
X138700000Y-84825000D02*
X137450000Y-84825000D01*
G75*
G02*
X137325000Y-84700000I0J125000D01*
G01*
X137325000Y-84450000D01*
G75*
G02*
X137450000Y-84325000I125000J0D01*
G01*
X138700000Y-84325000D01*
G75*
G02*
X138825000Y-84450000I0J-125000D01*
G01*
X138825000Y-84700000D01*
G75*
G02*
X138700000Y-84825000I-125000J0D01*
G01*
G37*
%TD.AperFunction*%
%TO.P,U6,28*%
%TO.N,ARD_RX*%
%TA.AperFunction,SMDPad,CuDef*%
G36*
G01*
X138700000Y-84025000D02*
X137450000Y-84025000D01*
G75*
G02*
X137325000Y-83900000I0J125000D01*
G01*
X137325000Y-83650000D01*
G75*
G02*
X137450000Y-83525000I125000J0D01*
G01*
X138700000Y-83525000D01*
G75*
G02*
X138825000Y-83650000I0J-125000D01*
G01*
X138825000Y-83900000D01*
G75*
G02*
X138700000Y-84025000I-125000J0D01*
G01*
G37*
%TD.AperFunction*%
%TO.P,U6,27*%
%TO.N,Net-(U6-Pad27)*%
%TA.AperFunction,SMDPad,CuDef*%
G36*
G01*
X138700000Y-83225000D02*
X137450000Y-83225000D01*
G75*
G02*
X137325000Y-83100000I0J125000D01*
G01*
X137325000Y-82850000D01*
G75*
G02*
X137450000Y-82725000I125000J0D01*
G01*
X138700000Y-82725000D01*
G75*
G02*
X138825000Y-82850000I0J-125000D01*
G01*
X138825000Y-83100000D01*
G75*
G02*
X138700000Y-83225000I-125000J0D01*
G01*
G37*
%TD.AperFunction*%
%TO.P,U6,26*%
%TO.N,Net-(U6-Pad26)*%
%TA.AperFunction,SMDPad,CuDef*%
G36*
G01*
X138700000Y-82425000D02*
X137450000Y-82425000D01*
G75*
G02*
X137325000Y-82300000I0J125000D01*
G01*
X137325000Y-82050000D01*
G75*
G02*
X137450000Y-81925000I125000J0D01*
G01*
X138700000Y-81925000D01*
G75*
G02*
X138825000Y-82050000I0J-125000D01*
G01*
X138825000Y-82300000D01*
G75*
G02*
X138700000Y-82425000I-125000J0D01*
G01*
G37*
%TD.AperFunction*%
%TO.P,U6,25*%
%TO.N,Net-(D1-Pad2)*%
%TA.AperFunction,SMDPad,CuDef*%
G36*
G01*
X138700000Y-81625000D02*
X137450000Y-81625000D01*
G75*
G02*
X137325000Y-81500000I0J125000D01*
G01*
X137325000Y-81250000D01*
G75*
G02*
X137450000Y-81125000I125000J0D01*
G01*
X138700000Y-81125000D01*
G75*
G02*
X138825000Y-81250000I0J-125000D01*
G01*
X138825000Y-81500000D01*
G75*
G02*
X138700000Y-81625000I-125000J0D01*
G01*
G37*
%TD.AperFunction*%
%TO.P,U6,24*%
%TO.N,Net-(U6-Pad24)*%
%TA.AperFunction,SMDPad,CuDef*%
G36*
G01*
X139575000Y-80750000D02*
X139325000Y-80750000D01*
G75*
G02*
X139200000Y-80625000I0J125000D01*
G01*
X139200000Y-79375000D01*
G75*
G02*
X139325000Y-79250000I125000J0D01*
G01*
X139575000Y-79250000D01*
G75*
G02*
X139700000Y-79375000I0J-125000D01*
G01*
X139700000Y-80625000D01*
G75*
G02*
X139575000Y-80750000I-125000J0D01*
G01*
G37*
%TD.AperFunction*%
%TO.P,U6,23*%
%TO.N,PWRC*%
%TA.AperFunction,SMDPad,CuDef*%
G36*
G01*
X140375000Y-80750000D02*
X140125000Y-80750000D01*
G75*
G02*
X140000000Y-80625000I0J125000D01*
G01*
X140000000Y-79375000D01*
G75*
G02*
X140125000Y-79250000I125000J0D01*
G01*
X140375000Y-79250000D01*
G75*
G02*
X140500000Y-79375000I0J-125000D01*
G01*
X140500000Y-80625000D01*
G75*
G02*
X140375000Y-80750000I-125000J0D01*
G01*
G37*
%TD.AperFunction*%
%TO.P,U6,22*%
%TO.N,STATUS*%
%TA.AperFunction,SMDPad,CuDef*%
G36*
G01*
X141175000Y-80750000D02*
X140925000Y-80750000D01*
G75*
G02*
X140800000Y-80625000I0J125000D01*
G01*
X140800000Y-79375000D01*
G75*
G02*
X140925000Y-79250000I125000J0D01*
G01*
X141175000Y-79250000D01*
G75*
G02*
X141300000Y-79375000I0J-125000D01*
G01*
X141300000Y-80625000D01*
G75*
G02*
X141175000Y-80750000I-125000J0D01*
G01*
G37*
%TD.AperFunction*%
%TO.P,U6,21*%
%TO.N,A3*%
%TA.AperFunction,SMDPad,CuDef*%
G36*
G01*
X141975000Y-80750000D02*
X141725000Y-80750000D01*
G75*
G02*
X141600000Y-80625000I0J125000D01*
G01*
X141600000Y-79375000D01*
G75*
G02*
X141725000Y-79250000I125000J0D01*
G01*
X141975000Y-79250000D01*
G75*
G02*
X142100000Y-79375000I0J-125000D01*
G01*
X142100000Y-80625000D01*
G75*
G02*
X141975000Y-80750000I-125000J0D01*
G01*
G37*
%TD.AperFunction*%
%TO.P,U6,20*%
%TO.N,A2*%
%TA.AperFunction,SMDPad,CuDef*%
G36*
G01*
X142775000Y-80750000D02*
X142525000Y-80750000D01*
G75*
G02*
X142400000Y-80625000I0J125000D01*
G01*
X142400000Y-79375000D01*
G75*
G02*
X142525000Y-79250000I125000J0D01*
G01*
X142775000Y-79250000D01*
G75*
G02*
X142900000Y-79375000I0J-125000D01*
G01*
X142900000Y-80625000D01*
G75*
G02*
X142775000Y-80750000I-125000J0D01*
G01*
G37*
%TD.AperFunction*%
%TO.P,U6,19*%
%TO.N,A1*%
%TA.AperFunction,SMDPad,CuDef*%
G36*
G01*
X143575000Y-80750000D02*
X143325000Y-80750000D01*
G75*
G02*
X143200000Y-80625000I0J125000D01*
G01*
X143200000Y-79375000D01*
G75*
G02*
X143325000Y-79250000I125000J0D01*
G01*
X143575000Y-79250000D01*
G75*
G02*
X143700000Y-79375000I0J-125000D01*
G01*
X143700000Y-80625000D01*
G75*
G02*
X143575000Y-80750000I-125000J0D01*
G01*
G37*
%TD.AperFunction*%
%TO.P,U6,18*%
%TO.N,A0*%
%TA.AperFunction,SMDPad,CuDef*%
G36*
G01*
X144375000Y-80750000D02*
X144125000Y-80750000D01*
G75*
G02*
X144000000Y-80625000I0J125000D01*
G01*
X144000000Y-79375000D01*
G75*
G02*
X144125000Y-79250000I125000J0D01*
G01*
X144375000Y-79250000D01*
G75*
G02*
X144500000Y-79375000I0J-125000D01*
G01*
X144500000Y-80625000D01*
G75*
G02*
X144375000Y-80750000I-125000J0D01*
G01*
G37*
%TD.AperFunction*%
%TO.P,U6,17*%
%TO.N,Net-(U6-Pad17)*%
%TA.AperFunction,SMDPad,CuDef*%
G36*
G01*
X145175000Y-80750000D02*
X144925000Y-80750000D01*
G75*
G02*
X144800000Y-80625000I0J125000D01*
G01*
X144800000Y-79375000D01*
G75*
G02*
X144925000Y-79250000I125000J0D01*
G01*
X145175000Y-79250000D01*
G75*
G02*
X145300000Y-79375000I0J-125000D01*
G01*
X145300000Y-80625000D01*
G75*
G02*
X145175000Y-80750000I-125000J0D01*
G01*
G37*
%TD.AperFunction*%
%TO.P,U6,16*%
%TO.N,Net-(U6-Pad16)*%
%TA.AperFunction,SMDPad,CuDef*%
G36*
G01*
X147050000Y-81625000D02*
X145800000Y-81625000D01*
G75*
G02*
X145675000Y-81500000I0J125000D01*
G01*
X145675000Y-81250000D01*
G75*
G02*
X145800000Y-81125000I125000J0D01*
G01*
X147050000Y-81125000D01*
G75*
G02*
X147175000Y-81250000I0J-125000D01*
G01*
X147175000Y-81500000D01*
G75*
G02*
X147050000Y-81625000I-125000J0D01*
G01*
G37*
%TD.AperFunction*%
%TO.P,U6,15*%
%TO.N,Net-(U6-Pad15)*%
%TA.AperFunction,SMDPad,CuDef*%
G36*
G01*
X147050000Y-82425000D02*
X145800000Y-82425000D01*
G75*
G02*
X145675000Y-82300000I0J125000D01*
G01*
X145675000Y-82050000D01*
G75*
G02*
X145800000Y-81925000I125000J0D01*
G01*
X147050000Y-81925000D01*
G75*
G02*
X147175000Y-82050000I0J-125000D01*
G01*
X147175000Y-82300000D01*
G75*
G02*
X147050000Y-82425000I-125000J0D01*
G01*
G37*
%TD.AperFunction*%
%TO.P,U6,14*%
%TO.N,Net-(U6-Pad14)*%
%TA.AperFunction,SMDPad,CuDef*%
G36*
G01*
X147050000Y-83225000D02*
X145800000Y-83225000D01*
G75*
G02*
X145675000Y-83100000I0J125000D01*
G01*
X145675000Y-82850000D01*
G75*
G02*
X145800000Y-82725000I125000J0D01*
G01*
X147050000Y-82725000D01*
G75*
G02*
X147175000Y-82850000I0J-125000D01*
G01*
X147175000Y-83100000D01*
G75*
G02*
X147050000Y-83225000I-125000J0D01*
G01*
G37*
%TD.AperFunction*%
%TO.P,U6,13*%
%TO.N,Net-(U6-Pad13)*%
%TA.AperFunction,SMDPad,CuDef*%
G36*
G01*
X147050000Y-84025000D02*
X145800000Y-84025000D01*
G75*
G02*
X145675000Y-83900000I0J125000D01*
G01*
X145675000Y-83650000D01*
G75*
G02*
X145800000Y-83525000I125000J0D01*
G01*
X147050000Y-83525000D01*
G75*
G02*
X147175000Y-83650000I0J-125000D01*
G01*
X147175000Y-83900000D01*
G75*
G02*
X147050000Y-84025000I-125000J0D01*
G01*
G37*
%TD.AperFunction*%
%TO.P,U6,12*%
%TO.N,Net-(U6-Pad12)*%
%TA.AperFunction,SMDPad,CuDef*%
G36*
G01*
X147050000Y-84825000D02*
X145800000Y-84825000D01*
G75*
G02*
X145675000Y-84700000I0J125000D01*
G01*
X145675000Y-84450000D01*
G75*
G02*
X145800000Y-84325000I125000J0D01*
G01*
X147050000Y-84325000D01*
G75*
G02*
X147175000Y-84450000I0J-125000D01*
G01*
X147175000Y-84700000D01*
G75*
G02*
X147050000Y-84825000I-125000J0D01*
G01*
G37*
%TD.AperFunction*%
%TO.P,U6,11*%
%TO.N,Net-(U6-Pad11)*%
%TA.AperFunction,SMDPad,CuDef*%
G36*
G01*
X147050000Y-85625000D02*
X145800000Y-85625000D01*
G75*
G02*
X145675000Y-85500000I0J125000D01*
G01*
X145675000Y-85250000D01*
G75*
G02*
X145800000Y-85125000I125000J0D01*
G01*
X147050000Y-85125000D01*
G75*
G02*
X147175000Y-85250000I0J-125000D01*
G01*
X147175000Y-85500000D01*
G75*
G02*
X147050000Y-85625000I-125000J0D01*
G01*
G37*
%TD.AperFunction*%
%TO.P,U6,10*%
%TO.N,Net-(U6-Pad10)*%
%TA.AperFunction,SMDPad,CuDef*%
G36*
G01*
X147050000Y-86425000D02*
X145800000Y-86425000D01*
G75*
G02*
X145675000Y-86300000I0J125000D01*
G01*
X145675000Y-86050000D01*
G75*
G02*
X145800000Y-85925000I125000J0D01*
G01*
X147050000Y-85925000D01*
G75*
G02*
X147175000Y-86050000I0J-125000D01*
G01*
X147175000Y-86300000D01*
G75*
G02*
X147050000Y-86425000I-125000J0D01*
G01*
G37*
%TD.AperFunction*%
%TO.P,U6,9*%
%TO.N,Net-(U6-Pad9)*%
%TA.AperFunction,SMDPad,CuDef*%
G36*
G01*
X147050000Y-87225000D02*
X145800000Y-87225000D01*
G75*
G02*
X145675000Y-87100000I0J125000D01*
G01*
X145675000Y-86850000D01*
G75*
G02*
X145800000Y-86725000I125000J0D01*
G01*
X147050000Y-86725000D01*
G75*
G02*
X147175000Y-86850000I0J-125000D01*
G01*
X147175000Y-87100000D01*
G75*
G02*
X147050000Y-87225000I-125000J0D01*
G01*
G37*
%TD.AperFunction*%
%TO.P,U6,8*%
%TO.N,Net-(U6-Pad8)*%
%TA.AperFunction,SMDPad,CuDef*%
G36*
G01*
X145175000Y-89100000D02*
X144925000Y-89100000D01*
G75*
G02*
X144800000Y-88975000I0J125000D01*
G01*
X144800000Y-87725000D01*
G75*
G02*
X144925000Y-87600000I125000J0D01*
G01*
X145175000Y-87600000D01*
G75*
G02*
X145300000Y-87725000I0J-125000D01*
G01*
X145300000Y-88975000D01*
G75*
G02*
X145175000Y-89100000I-125000J0D01*
G01*
G37*
%TD.AperFunction*%
%TO.P,U6,7*%
%TO.N,Net-(U6-Pad7)*%
%TA.AperFunction,SMDPad,CuDef*%
G36*
G01*
X144375000Y-89100000D02*
X144125000Y-89100000D01*
G75*
G02*
X144000000Y-88975000I0J125000D01*
G01*
X144000000Y-87725000D01*
G75*
G02*
X144125000Y-87600000I125000J0D01*
G01*
X144375000Y-87600000D01*
G75*
G02*
X144500000Y-87725000I0J-125000D01*
G01*
X144500000Y-88975000D01*
G75*
G02*
X144375000Y-89100000I-125000J0D01*
G01*
G37*
%TD.AperFunction*%
%TO.P,U6,6*%
%TO.N,C2D*%
%TA.AperFunction,SMDPad,CuDef*%
G36*
G01*
X143575000Y-89100000D02*
X143325000Y-89100000D01*
G75*
G02*
X143200000Y-88975000I0J125000D01*
G01*
X143200000Y-87725000D01*
G75*
G02*
X143325000Y-87600000I125000J0D01*
G01*
X143575000Y-87600000D01*
G75*
G02*
X143700000Y-87725000I0J-125000D01*
G01*
X143700000Y-88975000D01*
G75*
G02*
X143575000Y-89100000I-125000J0D01*
G01*
G37*
%TD.AperFunction*%
%TO.P,U6,5*%
%TO.N,C2CK*%
%TA.AperFunction,SMDPad,CuDef*%
G36*
G01*
X142775000Y-89100000D02*
X142525000Y-89100000D01*
G75*
G02*
X142400000Y-88975000I0J125000D01*
G01*
X142400000Y-87725000D01*
G75*
G02*
X142525000Y-87600000I125000J0D01*
G01*
X142775000Y-87600000D01*
G75*
G02*
X142900000Y-87725000I0J-125000D01*
G01*
X142900000Y-88975000D01*
G75*
G02*
X142775000Y-89100000I-125000J0D01*
G01*
G37*
%TD.AperFunction*%
%TO.P,U6,4*%
%TO.N,+3V3*%
%TA.AperFunction,SMDPad,CuDef*%
G36*
G01*
X141975000Y-89100000D02*
X141725000Y-89100000D01*
G75*
G02*
X141600000Y-88975000I0J125000D01*
G01*
X141600000Y-87725000D01*
G75*
G02*
X141725000Y-87600000I125000J0D01*
G01*
X141975000Y-87600000D01*
G75*
G02*
X142100000Y-87725000I0J-125000D01*
G01*
X142100000Y-88975000D01*
G75*
G02*
X141975000Y-89100000I-125000J0D01*
G01*
G37*
%TD.AperFunction*%
%TO.P,U6,3*%
%TA.AperFunction,SMDPad,CuDef*%
G36*
G01*
X141175000Y-89100000D02*
X140925000Y-89100000D01*
G75*
G02*
X140800000Y-88975000I0J125000D01*
G01*
X140800000Y-87725000D01*
G75*
G02*
X140925000Y-87600000I125000J0D01*
G01*
X141175000Y-87600000D01*
G75*
G02*
X141300000Y-87725000I0J-125000D01*
G01*
X141300000Y-88975000D01*
G75*
G02*
X141175000Y-89100000I-125000J0D01*
G01*
G37*
%TD.AperFunction*%
%TO.P,U6,2*%
%TO.N,GND*%
%TA.AperFunction,SMDPad,CuDef*%
G36*
G01*
X140375000Y-89100000D02*
X140125000Y-89100000D01*
G75*
G02*
X140000000Y-88975000I0J125000D01*
G01*
X140000000Y-87725000D01*
G75*
G02*
X140125000Y-87600000I125000J0D01*
G01*
X140375000Y-87600000D01*
G75*
G02*
X140500000Y-87725000I0J-125000D01*
G01*
X140500000Y-88975000D01*
G75*
G02*
X140375000Y-89100000I-125000J0D01*
G01*
G37*
%TD.AperFunction*%
%TO.P,U6,1*%
%TO.N,Net-(U6-Pad1)*%
%TA.AperFunction,SMDPad,CuDef*%
G36*
G01*
X139575000Y-89100000D02*
X139325000Y-89100000D01*
G75*
G02*
X139200000Y-88975000I0J125000D01*
G01*
X139200000Y-87725000D01*
G75*
G02*
X139325000Y-87600000I125000J0D01*
G01*
X139575000Y-87600000D01*
G75*
G02*
X139700000Y-87725000I0J-125000D01*
G01*
X139700000Y-88975000D01*
G75*
G02*
X139575000Y-89100000I-125000J0D01*
G01*
G37*
%TD.AperFunction*%
%TD*%
%TO.P,C6,2*%
%TO.N,GND*%
%TA.AperFunction,SMDPad,CuDef*%
G36*
G01*
X141762500Y-92725000D02*
X142237500Y-92725000D01*
G75*
G02*
X142475000Y-92962500I0J-237500D01*
G01*
X142475000Y-93537500D01*
G75*
G02*
X142237500Y-93775000I-237500J0D01*
G01*
X141762500Y-93775000D01*
G75*
G02*
X141525000Y-93537500I0J237500D01*
G01*
X141525000Y-92962500D01*
G75*
G02*
X141762500Y-92725000I237500J0D01*
G01*
G37*
%TD.AperFunction*%
%TO.P,C6,1*%
%TO.N,+3V3*%
%TA.AperFunction,SMDPad,CuDef*%
G36*
G01*
X141762500Y-90975000D02*
X142237500Y-90975000D01*
G75*
G02*
X142475000Y-91212500I0J-237500D01*
G01*
X142475000Y-91787500D01*
G75*
G02*
X142237500Y-92025000I-237500J0D01*
G01*
X141762500Y-92025000D01*
G75*
G02*
X141525000Y-91787500I0J237500D01*
G01*
X141525000Y-91212500D01*
G75*
G02*
X141762500Y-90975000I237500J0D01*
G01*
G37*
%TD.AperFunction*%
%TD*%
%TO.P,C5,2*%
%TO.N,GND*%
%TA.AperFunction,SMDPad,CuDef*%
G36*
G01*
X139762500Y-92725000D02*
X140237500Y-92725000D01*
G75*
G02*
X140475000Y-92962500I0J-237500D01*
G01*
X140475000Y-93537500D01*
G75*
G02*
X140237500Y-93775000I-237500J0D01*
G01*
X139762500Y-93775000D01*
G75*
G02*
X139525000Y-93537500I0J237500D01*
G01*
X139525000Y-92962500D01*
G75*
G02*
X139762500Y-92725000I237500J0D01*
G01*
G37*
%TD.AperFunction*%
%TO.P,C5,1*%
%TO.N,+3V3*%
%TA.AperFunction,SMDPad,CuDef*%
G36*
G01*
X139762500Y-90975000D02*
X140237500Y-90975000D01*
G75*
G02*
X140475000Y-91212500I0J-237500D01*
G01*
X140475000Y-91787500D01*
G75*
G02*
X140237500Y-92025000I-237500J0D01*
G01*
X139762500Y-92025000D01*
G75*
G02*
X139525000Y-91787500I0J237500D01*
G01*
X139525000Y-91212500D01*
G75*
G02*
X139762500Y-90975000I237500J0D01*
G01*
G37*
%TD.AperFunction*%
%TD*%
%TO.P,R5,2*%
%TO.N,VFB*%
%TA.AperFunction,SMDPad,CuDef*%
G36*
G01*
X151512500Y-84100000D02*
X151987500Y-84100000D01*
G75*
G02*
X152225000Y-84337500I0J-237500D01*
G01*
X152225000Y-84912500D01*
G75*
G02*
X151987500Y-85150000I-237500J0D01*
G01*
X151512500Y-85150000D01*
G75*
G02*
X151275000Y-84912500I0J237500D01*
G01*
X151275000Y-84337500D01*
G75*
G02*
X151512500Y-84100000I237500J0D01*
G01*
G37*
%TD.AperFunction*%
%TO.P,R5,1*%
%TO.N,GND*%
%TA.AperFunction,SMDPad,CuDef*%
G36*
G01*
X151512500Y-82350000D02*
X151987500Y-82350000D01*
G75*
G02*
X152225000Y-82587500I0J-237500D01*
G01*
X152225000Y-83162500D01*
G75*
G02*
X151987500Y-83400000I-237500J0D01*
G01*
X151512500Y-83400000D01*
G75*
G02*
X151275000Y-83162500I0J237500D01*
G01*
X151275000Y-82587500D01*
G75*
G02*
X151512500Y-82350000I237500J0D01*
G01*
G37*
%TD.AperFunction*%
%TD*%
%TO.P,R4,2*%
%TO.N,+3V3*%
%TA.AperFunction,SMDPad,CuDef*%
G36*
G01*
X151512500Y-87975000D02*
X151987500Y-87975000D01*
G75*
G02*
X152225000Y-88212500I0J-237500D01*
G01*
X152225000Y-88787500D01*
G75*
G02*
X151987500Y-89025000I-237500J0D01*
G01*
X151512500Y-89025000D01*
G75*
G02*
X151275000Y-88787500I0J237500D01*
G01*
X151275000Y-88212500D01*
G75*
G02*
X151512500Y-87975000I237500J0D01*
G01*
G37*
%TD.AperFunction*%
%TO.P,R4,1*%
%TO.N,VFB*%
%TA.AperFunction,SMDPad,CuDef*%
G36*
G01*
X151512500Y-86225000D02*
X151987500Y-86225000D01*
G75*
G02*
X152225000Y-86462500I0J-237500D01*
G01*
X152225000Y-87037500D01*
G75*
G02*
X151987500Y-87275000I-237500J0D01*
G01*
X151512500Y-87275000D01*
G75*
G02*
X151275000Y-87037500I0J237500D01*
G01*
X151275000Y-86462500D01*
G75*
G02*
X151512500Y-86225000I237500J0D01*
G01*
G37*
%TD.AperFunction*%
%TD*%
D14*
%TO.P,L1,2*%
%TO.N,Net-(L1-Pad2)*%
X162750000Y-87300000D03*
%TO.P,L1,1*%
%TO.N,VIN*%
X162750000Y-84250000D03*
%TD*%
D12*
%TO.P,J1,8*%
%TO.N,GND*%
X175250000Y-94530000D03*
%TO.P,J1,7*%
%TO.N,A3*%
X175250000Y-91990000D03*
%TO.P,J1,6*%
%TO.N,GND*%
X175250000Y-89450000D03*
%TO.P,J1,5*%
%TO.N,A2*%
X175250000Y-86910000D03*
%TO.P,J1,4*%
%TO.N,C2_OUT*%
X175250000Y-84370000D03*
%TO.P,J1,3*%
%TO.N,C2_IN*%
X175250000Y-81830000D03*
%TO.P,J1,2*%
%TO.N,C1_OUT*%
X175250000Y-79290000D03*
D13*
%TO.P,J1,1*%
%TO.N,C1_IN*%
X175250000Y-76750000D03*
%TD*%
%TO.P,C3,2*%
%TO.N,GND*%
%TA.AperFunction,SMDPad,CuDef*%
G36*
G01*
X159775000Y-79762500D02*
X159775000Y-80237500D01*
G75*
G02*
X159537500Y-80475000I-237500J0D01*
G01*
X158962500Y-80475000D01*
G75*
G02*
X158725000Y-80237500I0J237500D01*
G01*
X158725000Y-79762500D01*
G75*
G02*
X158962500Y-79525000I237500J0D01*
G01*
X159537500Y-79525000D01*
G75*
G02*
X159775000Y-79762500I0J-237500D01*
G01*
G37*
%TD.AperFunction*%
%TO.P,C3,1*%
%TO.N,VIN*%
%TA.AperFunction,SMDPad,CuDef*%
G36*
G01*
X161525000Y-79762500D02*
X161525000Y-80237500D01*
G75*
G02*
X161287500Y-80475000I-237500J0D01*
G01*
X160712500Y-80475000D01*
G75*
G02*
X160475000Y-80237500I0J237500D01*
G01*
X160475000Y-79762500D01*
G75*
G02*
X160712500Y-79525000I237500J0D01*
G01*
X161287500Y-79525000D01*
G75*
G02*
X161525000Y-79762500I0J-237500D01*
G01*
G37*
%TD.AperFunction*%
%TD*%
%TO.P,C2,2*%
%TO.N,GND*%
%TA.AperFunction,SMDPad,CuDef*%
G36*
G01*
X155850000Y-90237500D02*
X155850000Y-89762500D01*
G75*
G02*
X156087500Y-89525000I237500J0D01*
G01*
X156662500Y-89525000D01*
G75*
G02*
X156900000Y-89762500I0J-237500D01*
G01*
X156900000Y-90237500D01*
G75*
G02*
X156662500Y-90475000I-237500J0D01*
G01*
X156087500Y-90475000D01*
G75*
G02*
X155850000Y-90237500I0J237500D01*
G01*
G37*
%TD.AperFunction*%
%TO.P,C2,1*%
%TO.N,+3V3*%
%TA.AperFunction,SMDPad,CuDef*%
G36*
G01*
X154100000Y-90237500D02*
X154100000Y-89762500D01*
G75*
G02*
X154337500Y-89525000I237500J0D01*
G01*
X154912500Y-89525000D01*
G75*
G02*
X155150000Y-89762500I0J-237500D01*
G01*
X155150000Y-90237500D01*
G75*
G02*
X154912500Y-90475000I-237500J0D01*
G01*
X154337500Y-90475000D01*
G75*
G02*
X154100000Y-90237500I0J237500D01*
G01*
G37*
%TD.AperFunction*%
%TD*%
D12*
%TO.P,Battery1,2*%
%TO.N,GND*%
X155750000Y-93500000D03*
D13*
%TO.P,Battery1,1*%
%TO.N,BATT*%
X158290000Y-93500000D03*
%TD*%
%TO.P,C4,2*%
%TO.N,GND*%
%TA.AperFunction,SMDPad,CuDef*%
G36*
G01*
X159775000Y-81512500D02*
X159775000Y-81987500D01*
G75*
G02*
X159537500Y-82225000I-237500J0D01*
G01*
X158962500Y-82225000D01*
G75*
G02*
X158725000Y-81987500I0J237500D01*
G01*
X158725000Y-81512500D01*
G75*
G02*
X158962500Y-81275000I237500J0D01*
G01*
X159537500Y-81275000D01*
G75*
G02*
X159775000Y-81512500I0J-237500D01*
G01*
G37*
%TD.AperFunction*%
%TO.P,C4,1*%
%TO.N,VIN*%
%TA.AperFunction,SMDPad,CuDef*%
G36*
G01*
X161525000Y-81512500D02*
X161525000Y-81987500D01*
G75*
G02*
X161287500Y-82225000I-237500J0D01*
G01*
X160712500Y-82225000D01*
G75*
G02*
X160475000Y-81987500I0J237500D01*
G01*
X160475000Y-81512500D01*
G75*
G02*
X160712500Y-81275000I237500J0D01*
G01*
X161287500Y-81275000D01*
G75*
G02*
X161525000Y-81512500I0J-237500D01*
G01*
G37*
%TD.AperFunction*%
%TD*%
%TO.P,C1,2*%
%TO.N,GND*%
%TA.AperFunction,SMDPad,CuDef*%
G36*
G01*
X155850000Y-88237500D02*
X155850000Y-87762500D01*
G75*
G02*
X156087500Y-87525000I237500J0D01*
G01*
X156662500Y-87525000D01*
G75*
G02*
X156900000Y-87762500I0J-237500D01*
G01*
X156900000Y-88237500D01*
G75*
G02*
X156662500Y-88475000I-237500J0D01*
G01*
X156087500Y-88475000D01*
G75*
G02*
X155850000Y-88237500I0J237500D01*
G01*
G37*
%TD.AperFunction*%
%TO.P,C1,1*%
%TO.N,+3V3*%
%TA.AperFunction,SMDPad,CuDef*%
G36*
G01*
X154100000Y-88237500D02*
X154100000Y-87762500D01*
G75*
G02*
X154337500Y-87525000I237500J0D01*
G01*
X154912500Y-87525000D01*
G75*
G02*
X155150000Y-87762500I0J-237500D01*
G01*
X155150000Y-88237500D01*
G75*
G02*
X154912500Y-88475000I-237500J0D01*
G01*
X154337500Y-88475000D01*
G75*
G02*
X154100000Y-88237500I0J237500D01*
G01*
G37*
%TD.AperFunction*%
%TD*%
D15*
%TO.P,U5,5*%
%TO.N,C2_IN*%
X169250000Y-82250000D03*
%TO.P,U5,4*%
%TO.N,C2_OUT*%
X169250000Y-84150000D03*
%TO.P,U5,3*%
%TO.N,A1*%
X166550000Y-84150000D03*
%TO.P,U5,2*%
%TO.N,GND*%
X166550000Y-83200000D03*
%TO.P,U5,1*%
X166550000Y-82250000D03*
%TD*%
%TO.P,U4,5*%
%TO.N,C1_IN*%
X169250000Y-77000000D03*
%TO.P,U4,4*%
%TO.N,C1_OUT*%
X169250000Y-78900000D03*
%TO.P,U4,3*%
%TO.N,A0*%
X166550000Y-78900000D03*
%TO.P,U4,2*%
%TO.N,GND*%
X166550000Y-77950000D03*
%TO.P,U4,1*%
X166550000Y-77000000D03*
%TD*%
D16*
%TO.P,U2,16*%
%TO.N,Net-(U2-Pad16)*%
X130862800Y-80322600D03*
%TO.P,U2,15*%
%TO.N,Net-(U2-Pad15)*%
X130862800Y-81822600D03*
%TO.P,U2,14*%
%TO.N,Net-(U2-Pad14)*%
X130862800Y-83322600D03*
%TO.P,U2,13*%
%TO.N,Net-(U2-Pad13)*%
X130862800Y-84822600D03*
%TO.P,U2,12*%
%TO.N,Net-(U2-Pad12)*%
X130862800Y-86322600D03*
%TO.P,U2,11*%
%TO.N,Net-(U2-Pad11)*%
X130862800Y-87822600D03*
%TO.P,U2,10*%
%TO.N,Net-(U2-Pad10)*%
X130862800Y-89322600D03*
D17*
%TO.P,U2,8*%
%TO.N,Net-(U2-Pad8)*%
X129762800Y-92642600D03*
%TO.P,U2,17*%
%TO.N,Net-(U2-Pad17)*%
X129762800Y-78502600D03*
%TO.P,U2,18*%
%TO.N,Net-(U2-Pad18)*%
X128262800Y-78502600D03*
%TO.P,U2,7*%
%TO.N,Net-(U2-Pad7)*%
X128262800Y-92642600D03*
%TO.P,U2,6*%
%TO.N,STATUS*%
X126762800Y-92642600D03*
%TO.P,U2,19*%
%TO.N,ARD_RX*%
X126762800Y-78502600D03*
%TO.P,U2,20*%
%TO.N,ARD_TX*%
X125262800Y-78502600D03*
%TO.P,U2,5*%
%TO.N,N/C*%
X125262800Y-92642600D03*
%TO.P,U2,4*%
X123762800Y-92642600D03*
%TO.P,U2,21*%
%TO.N,Net-(U2-Pad21)*%
X123762800Y-78502600D03*
%TO.P,U2,22*%
%TO.N,PWRC*%
X122262800Y-78502600D03*
%TO.P,U2,3*%
%TO.N,Net-(U2-Pad3)*%
X122262800Y-92642600D03*
%TO.P,U2,2*%
%TO.N,Net-(U2-Pad2)*%
X120762800Y-92642600D03*
%TO.P,U2,23*%
%TO.N,Net-(U2-Pad23)*%
X120762800Y-78502600D03*
%TO.P,U2,24*%
%TO.N,GND*%
X119262800Y-78502600D03*
D16*
%TO.P,U2,9*%
%TO.N,Net-(U2-Pad9)*%
X130862800Y-90822600D03*
D17*
%TO.P,U2,1*%
%TO.N,+3V3*%
X119262800Y-92642600D03*
%TD*%
%TO.P,R2,2*%
%TO.N,C1_OUT*%
%TA.AperFunction,SMDPad,CuDef*%
G36*
G01*
X171549999Y-78475000D02*
X172450001Y-78475000D01*
G75*
G02*
X172700000Y-78724999I0J-249999D01*
G01*
X172700000Y-79375001D01*
G75*
G02*
X172450001Y-79625000I-249999J0D01*
G01*
X171549999Y-79625000D01*
G75*
G02*
X171300000Y-79375001I0J249999D01*
G01*
X171300000Y-78724999D01*
G75*
G02*
X171549999Y-78475000I249999J0D01*
G01*
G37*
%TD.AperFunction*%
%TO.P,R2,1*%
%TO.N,C1_IN*%
%TA.AperFunction,SMDPad,CuDef*%
G36*
G01*
X171549999Y-76425000D02*
X172450001Y-76425000D01*
G75*
G02*
X172700000Y-76674999I0J-249999D01*
G01*
X172700000Y-77325001D01*
G75*
G02*
X172450001Y-77575000I-249999J0D01*
G01*
X171549999Y-77575000D01*
G75*
G02*
X171300000Y-77325001I0J249999D01*
G01*
X171300000Y-76674999D01*
G75*
G02*
X171549999Y-76425000I249999J0D01*
G01*
G37*
%TD.AperFunction*%
%TD*%
%TO.P,R1,2*%
%TO.N,C2_OUT*%
%TA.AperFunction,SMDPad,CuDef*%
G36*
G01*
X171549999Y-83700000D02*
X172450001Y-83700000D01*
G75*
G02*
X172700000Y-83949999I0J-249999D01*
G01*
X172700000Y-84600001D01*
G75*
G02*
X172450001Y-84850000I-249999J0D01*
G01*
X171549999Y-84850000D01*
G75*
G02*
X171300000Y-84600001I0J249999D01*
G01*
X171300000Y-83949999D01*
G75*
G02*
X171549999Y-83700000I249999J0D01*
G01*
G37*
%TD.AperFunction*%
%TO.P,R1,1*%
%TO.N,C2_IN*%
%TA.AperFunction,SMDPad,CuDef*%
G36*
G01*
X171549999Y-81650000D02*
X172450001Y-81650000D01*
G75*
G02*
X172700000Y-81899999I0J-249999D01*
G01*
X172700000Y-82550001D01*
G75*
G02*
X172450001Y-82800000I-249999J0D01*
G01*
X171549999Y-82800000D01*
G75*
G02*
X171300000Y-82550001I0J249999D01*
G01*
X171300000Y-81899999D01*
G75*
G02*
X171549999Y-81650000I249999J0D01*
G01*
G37*
%TD.AperFunction*%
%TD*%
%TO.P,D1,1*%
%TO.N,Net-(D1-Pad1)*%
%TA.AperFunction,SMDPad,CuDef*%
G36*
G01*
X138062500Y-77006250D02*
X138062500Y-76493750D01*
G75*
G02*
X138281250Y-76275000I218750J0D01*
G01*
X138718750Y-76275000D01*
G75*
G02*
X138937500Y-76493750I0J-218750D01*
G01*
X138937500Y-77006250D01*
G75*
G02*
X138718750Y-77225000I-218750J0D01*
G01*
X138281250Y-77225000D01*
G75*
G02*
X138062500Y-77006250I0J218750D01*
G01*
G37*
%TD.AperFunction*%
%TO.P,D1,2*%
%TO.N,Net-(D1-Pad2)*%
%TA.AperFunction,SMDPad,CuDef*%
G36*
G01*
X139637500Y-77006250D02*
X139637500Y-76493750D01*
G75*
G02*
X139856250Y-76275000I218750J0D01*
G01*
X140293750Y-76275000D01*
G75*
G02*
X140512500Y-76493750I0J-218750D01*
G01*
X140512500Y-77006250D01*
G75*
G02*
X140293750Y-77225000I-218750J0D01*
G01*
X139856250Y-77225000D01*
G75*
G02*
X139637500Y-77006250I0J218750D01*
G01*
G37*
%TD.AperFunction*%
%TD*%
%TO.P,R3,1*%
%TO.N,Net-(D1-Pad1)*%
%TA.AperFunction,SMDPad,CuDef*%
G36*
G01*
X136775000Y-76512500D02*
X136775000Y-76987500D01*
G75*
G02*
X136537500Y-77225000I-237500J0D01*
G01*
X135962500Y-77225000D01*
G75*
G02*
X135725000Y-76987500I0J237500D01*
G01*
X135725000Y-76512500D01*
G75*
G02*
X135962500Y-76275000I237500J0D01*
G01*
X136537500Y-76275000D01*
G75*
G02*
X136775000Y-76512500I0J-237500D01*
G01*
G37*
%TD.AperFunction*%
%TO.P,R3,2*%
%TO.N,GND*%
%TA.AperFunction,SMDPad,CuDef*%
G36*
G01*
X135025000Y-76512500D02*
X135025000Y-76987500D01*
G75*
G02*
X134787500Y-77225000I-237500J0D01*
G01*
X134212500Y-77225000D01*
G75*
G02*
X133975000Y-76987500I0J237500D01*
G01*
X133975000Y-76512500D01*
G75*
G02*
X134212500Y-76275000I237500J0D01*
G01*
X134787500Y-76275000D01*
G75*
G02*
X135025000Y-76512500I0J-237500D01*
G01*
G37*
%TD.AperFunction*%
%TD*%
D18*
%TO.N,A2*%
X143237347Y-76737347D03*
X170250000Y-86750000D03*
%TO.N,GND*%
X156500000Y-85000000D03*
%TO.N,A3*%
X142500000Y-76000000D03*
%TO.N,+3V3*%
X120250000Y-90250000D03*
X152250000Y-90250000D03*
X141000000Y-90250000D03*
%TO.N,ARD_RX*%
X135750000Y-83500000D03*
X126750000Y-83250000D03*
%TO.N,A1*%
X143899462Y-77575232D03*
X160500000Y-77500000D03*
%TO.N,A0*%
X146000000Y-78300232D03*
X164000000Y-78750006D03*
%TO.N,PWRC*%
X122500000Y-81000000D03*
X140750000Y-78250000D03*
%TO.N,ARD_TX*%
X126000000Y-84750000D03*
X135500000Y-84750000D03*
%TO.N,Net-(L1-Pad2)*%
X157250000Y-86000000D03*
%TO.N,STATUS*%
X128000000Y-81000000D03*
X140750000Y-82250000D03*
%TD*%
D19*
%TO.N,A2*%
X142650000Y-80000000D02*
X142650000Y-77350000D01*
X142650000Y-77350000D02*
X143250000Y-76750000D01*
X143250000Y-76750000D02*
X143237347Y-76737347D01*
X175250000Y-86910000D02*
X170410000Y-86910000D01*
X170410000Y-86910000D02*
X170250000Y-86750000D01*
%TO.N,GND*%
X140250000Y-88350000D02*
X140250000Y-89250000D01*
X140250000Y-89250000D02*
X139750000Y-89750000D01*
X158950000Y-85000000D02*
X156500000Y-85000000D01*
X158950000Y-85500000D02*
X158950000Y-85000000D01*
X166550000Y-77000000D02*
X166550000Y-77950000D01*
D20*
X166550000Y-82250000D02*
X165250000Y-82250000D01*
X166550000Y-77950000D02*
X165050000Y-77950000D01*
X166550000Y-77000000D02*
X165000000Y-77000000D01*
X166550000Y-82250000D02*
X166550000Y-83200000D01*
D19*
%TO.N,A3*%
X141850000Y-80000000D02*
X141850000Y-76650000D01*
X141850000Y-76650000D02*
X142500000Y-76000000D01*
D20*
%TO.N,+3V3*%
X141850000Y-88350000D02*
X141050000Y-88350000D01*
X141050000Y-91450000D02*
X141000000Y-91500000D01*
X140000000Y-91500000D02*
X141000000Y-91500000D01*
X141000000Y-91500000D02*
X142000000Y-91500000D01*
X119262800Y-92642600D02*
X119262800Y-91237200D01*
X119262800Y-91237200D02*
X120250000Y-90250000D01*
X152250000Y-90250000D02*
X152900001Y-90250000D01*
X152250000Y-89000000D02*
X151750000Y-88500000D01*
X152250000Y-90250000D02*
X152250000Y-89000000D01*
D19*
X154550000Y-87925000D02*
X154625000Y-88000000D01*
X154550000Y-86000000D02*
X154550000Y-87925000D01*
X154625000Y-88000000D02*
X154625000Y-90000000D01*
X153150001Y-90000000D02*
X152900001Y-90250000D01*
X154625000Y-90000000D02*
X153150001Y-90000000D01*
X141050000Y-90450000D02*
X141050000Y-90300000D01*
X141050000Y-90300000D02*
X141000000Y-90250000D01*
D20*
X141050000Y-90450000D02*
X141050000Y-91450000D01*
X141050000Y-88350000D02*
X141050000Y-90450000D01*
D19*
%TO.N,ARD_RX*%
X138075000Y-83775000D02*
X136025000Y-83775000D01*
X136025000Y-83775000D02*
X135750000Y-83500000D01*
X126750000Y-78515400D02*
X126762800Y-78502600D01*
X126750000Y-83250000D02*
X126750000Y-78515400D01*
%TO.N,A1*%
X143450000Y-78300000D02*
X144000000Y-77750000D01*
X143450000Y-80000000D02*
X143450000Y-78300000D01*
X144000000Y-77750000D02*
X144000000Y-77675770D01*
X144000000Y-77675770D02*
X143899462Y-77575232D01*
X165809998Y-84150000D02*
X166550000Y-84150000D01*
X164000000Y-82340002D02*
X165809998Y-84150000D01*
X160500000Y-77500000D02*
X164000000Y-81000000D01*
X164000000Y-81000000D02*
X164000000Y-82340002D01*
%TO.N,A0*%
X144250000Y-80000000D02*
X144250000Y-78250000D01*
X144250000Y-78250000D02*
X144750000Y-77750000D01*
X144750000Y-77750000D02*
X145449768Y-77750000D01*
X145449768Y-77750000D02*
X146000000Y-78300232D01*
X164149994Y-78900000D02*
X164000000Y-78750006D01*
X166550000Y-78900000D02*
X164149994Y-78900000D01*
%TO.N,PWRC*%
X122262800Y-78502600D02*
X122262800Y-80762800D01*
X122262800Y-80762800D02*
X122500000Y-81000000D01*
X140250000Y-78750000D02*
X140250000Y-80000000D01*
X140750000Y-78250000D02*
X140250000Y-78750000D01*
%TO.N,ARD_TX*%
X125262800Y-78502600D02*
X125262800Y-84012800D01*
X125262800Y-84012800D02*
X126000000Y-84750000D01*
X135675000Y-84575000D02*
X135500000Y-84750000D01*
X138075000Y-84575000D02*
X135675000Y-84575000D01*
D20*
%TO.N,BATT*%
X158290000Y-93500000D02*
X158500000Y-93500000D01*
D19*
%TO.N,VIN*%
X158950000Y-84500000D02*
X160000000Y-84500000D01*
X158950000Y-84500000D02*
X158000000Y-84500000D01*
X158950000Y-84000000D02*
X158950000Y-84500000D01*
X158450000Y-84000000D02*
X158950000Y-84500000D01*
X154550000Y-84000000D02*
X158450000Y-84000000D01*
X160250000Y-84250000D02*
X160000000Y-84500000D01*
D20*
X164000000Y-84250000D02*
X162750000Y-84250000D01*
X166250000Y-86500000D02*
X164000000Y-84250000D01*
X161000000Y-80000000D02*
X161000000Y-81750000D01*
X161000000Y-84000000D02*
X160750000Y-84250000D01*
X161000000Y-81750000D02*
X161000000Y-84000000D01*
D19*
X162750000Y-84250000D02*
X160750000Y-84250000D01*
X160750000Y-84250000D02*
X160250000Y-84250000D01*
D20*
X166250000Y-91500000D02*
X166250000Y-90500000D01*
X166250000Y-91000000D02*
X166250000Y-90500000D01*
X166250000Y-90500000D02*
X166250000Y-86500000D01*
%TO.N,C2_OUT*%
X171875000Y-84150000D02*
X172000000Y-84275000D01*
X169250000Y-84150000D02*
X171875000Y-84150000D01*
X172095000Y-84370000D02*
X172000000Y-84275000D01*
X175250000Y-84370000D02*
X172095000Y-84370000D01*
%TO.N,C2_IN*%
X172395000Y-81830000D02*
X172000000Y-82225000D01*
X175250000Y-81830000D02*
X172395000Y-81830000D01*
X169275000Y-82225000D02*
X169250000Y-82250000D01*
X172000000Y-82225000D02*
X169275000Y-82225000D01*
%TO.N,C1_OUT*%
X172240000Y-79290000D02*
X172000000Y-79050000D01*
X175250000Y-79290000D02*
X172240000Y-79290000D01*
X169400000Y-79050000D02*
X169250000Y-78900000D01*
X172000000Y-79050000D02*
X169400000Y-79050000D01*
%TO.N,C1_IN*%
X172250000Y-76750000D02*
X172000000Y-77000000D01*
X175250000Y-76750000D02*
X172250000Y-76750000D01*
X172000000Y-77000000D02*
X169250000Y-77000000D01*
D19*
%TO.N,Net-(L1-Pad2)*%
X158950000Y-86000000D02*
X157250000Y-86000000D01*
X161450000Y-86000000D02*
X162750000Y-87300000D01*
X158950000Y-86000000D02*
X161450000Y-86000000D01*
%TO.N,VFB*%
X151750000Y-84625000D02*
X151750000Y-86750000D01*
X152625000Y-85500000D02*
X151750000Y-84625000D01*
X154550000Y-85500000D02*
X152625000Y-85500000D01*
%TO.N,STATUS*%
X126762800Y-91392600D02*
X128000000Y-90155400D01*
X126762800Y-92642600D02*
X126762800Y-91392600D01*
X128000000Y-90155400D02*
X128000000Y-81000000D01*
X141050000Y-81950000D02*
X140750000Y-82250000D01*
X141050000Y-80000000D02*
X141050000Y-81950000D01*
%TO.N,C2D*%
X143450000Y-88350000D02*
X143450000Y-89450000D01*
X143450000Y-89450000D02*
X145750000Y-91750000D01*
X145750000Y-91750000D02*
X147500000Y-91750000D01*
X147960000Y-92210000D02*
X147500000Y-91750000D01*
X147960000Y-93500000D02*
X147960000Y-92210000D01*
%TO.N,C2CK*%
X142650000Y-88350000D02*
X142650000Y-89900000D01*
X145420000Y-92670000D02*
X145420000Y-93500000D01*
X142650000Y-89900000D02*
X145420000Y-92670000D01*
%TO.N,Net-(D1-Pad1)*%
X138500000Y-76750000D02*
X136250000Y-76750000D01*
%TO.N,Net-(D1-Pad2)*%
X138075000Y-81375000D02*
X138075000Y-79675000D01*
X140075000Y-77675000D02*
X140075000Y-76750000D01*
X138075000Y-79675000D02*
X140075000Y-77675000D01*
D20*
%TO.N,BATT*%
X158290000Y-93500000D02*
X158290000Y-93460000D01*
X158290000Y-93460000D02*
X160750000Y-91000000D01*
X163750000Y-91250000D02*
X163500000Y-91000000D01*
X163750000Y-91500000D02*
X163750000Y-91250000D01*
X160750000Y-91000000D02*
X163500000Y-91000000D01*
X163500000Y-91000000D02*
X163750000Y-91000000D01*
%TD*%
D21*
%TO.N,GND*%
G36*
X133620506Y-75744463D02*
G01*
X133523815Y-75823815D01*
X133444463Y-75920506D01*
X133385498Y-76030820D01*
X133349188Y-76150518D01*
X133336928Y-76275000D01*
X133340000Y-76464250D01*
X133498750Y-76623000D01*
X134373000Y-76623000D01*
X134373000Y-76603000D01*
X134627000Y-76603000D01*
X134627000Y-76623000D01*
X134647000Y-76623000D01*
X134647000Y-76877000D01*
X134627000Y-76877000D01*
X134627000Y-77701250D01*
X134785750Y-77860000D01*
X135025000Y-77863072D01*
X135149482Y-77850812D01*
X135269180Y-77814502D01*
X135379494Y-77755537D01*
X135452161Y-77695901D01*
X135476058Y-77715512D01*
X135627433Y-77796423D01*
X135791684Y-77846248D01*
X135962500Y-77863072D01*
X136537500Y-77863072D01*
X136708316Y-77846248D01*
X136872567Y-77796423D01*
X137023942Y-77715512D01*
X137156623Y-77606623D01*
X137235920Y-77510000D01*
X137591582Y-77510000D01*
X137675385Y-77612115D01*
X137805225Y-77718671D01*
X137953358Y-77797850D01*
X138114092Y-77846608D01*
X138281250Y-77863072D01*
X138718750Y-77863072D01*
X138822328Y-77852870D01*
X137563998Y-79111201D01*
X137535000Y-79134999D01*
X137511202Y-79163997D01*
X137511201Y-79163998D01*
X137440026Y-79250724D01*
X137369454Y-79382754D01*
X137353224Y-79436260D01*
X137325998Y-79526014D01*
X137323247Y-79553943D01*
X137311324Y-79675000D01*
X137315001Y-79712332D01*
X137315001Y-80500224D01*
X137301132Y-80501590D01*
X137157985Y-80545013D01*
X137026060Y-80615529D01*
X136910427Y-80710427D01*
X136815529Y-80826060D01*
X136745013Y-80957985D01*
X136701590Y-81101132D01*
X136686928Y-81250000D01*
X136686928Y-81500000D01*
X136701590Y-81648868D01*
X136739852Y-81775000D01*
X136701590Y-81901132D01*
X136686928Y-82050000D01*
X136686928Y-82300000D01*
X136701590Y-82448868D01*
X136739852Y-82575000D01*
X136701590Y-82701132D01*
X136686928Y-82850000D01*
X136686928Y-83015000D01*
X136669382Y-83015000D01*
X136667205Y-83009744D01*
X136553937Y-82840226D01*
X136409774Y-82696063D01*
X136240256Y-82582795D01*
X136051898Y-82504774D01*
X135851939Y-82465000D01*
X135648061Y-82465000D01*
X135448102Y-82504774D01*
X135259744Y-82582795D01*
X135090226Y-82696063D01*
X134946063Y-82840226D01*
X134832795Y-83009744D01*
X134754774Y-83198102D01*
X134715000Y-83398061D01*
X134715000Y-83601939D01*
X134754774Y-83801898D01*
X134822028Y-83964261D01*
X134696063Y-84090226D01*
X134582795Y-84259744D01*
X134504774Y-84448102D01*
X134465000Y-84648061D01*
X134465000Y-84851939D01*
X134504774Y-85051898D01*
X134582795Y-85240256D01*
X134696063Y-85409774D01*
X134840226Y-85553937D01*
X135009744Y-85667205D01*
X135198102Y-85745226D01*
X135398061Y-85785000D01*
X135601939Y-85785000D01*
X135801898Y-85745226D01*
X135990256Y-85667205D01*
X136159774Y-85553937D01*
X136303937Y-85409774D01*
X136353899Y-85335000D01*
X136686928Y-85335000D01*
X136686928Y-85500000D01*
X136701590Y-85648868D01*
X136739852Y-85775000D01*
X136701590Y-85901132D01*
X136686928Y-86050000D01*
X136686928Y-86300000D01*
X136701590Y-86448868D01*
X136739852Y-86575000D01*
X136701590Y-86701132D01*
X136686928Y-86850000D01*
X136686928Y-87100000D01*
X136701590Y-87248868D01*
X136745013Y-87392015D01*
X136815529Y-87523940D01*
X136910427Y-87639573D01*
X137026060Y-87734471D01*
X137157985Y-87804987D01*
X137301132Y-87848410D01*
X137450000Y-87863072D01*
X138561928Y-87863072D01*
X138561928Y-88975000D01*
X138576590Y-89123868D01*
X138620013Y-89267015D01*
X138690529Y-89398940D01*
X138785427Y-89514573D01*
X138901060Y-89609471D01*
X139032985Y-89679987D01*
X139176132Y-89723410D01*
X139325000Y-89738072D01*
X139575000Y-89738072D01*
X139723868Y-89723410D01*
X139796139Y-89701487D01*
X139866227Y-89723891D01*
X139968250Y-89735000D01*
X140122998Y-89580252D01*
X140122998Y-89699576D01*
X140082795Y-89759744D01*
X140004774Y-89948102D01*
X139965000Y-90148061D01*
X139965000Y-90336928D01*
X139762500Y-90336928D01*
X139591684Y-90353752D01*
X139427433Y-90403577D01*
X139276058Y-90484488D01*
X139143377Y-90593377D01*
X139034488Y-90726058D01*
X138953577Y-90877433D01*
X138903752Y-91041684D01*
X138886928Y-91212500D01*
X138886928Y-91787500D01*
X138903752Y-91958316D01*
X138953577Y-92122567D01*
X139034488Y-92273942D01*
X139054099Y-92297839D01*
X138994463Y-92370506D01*
X138935498Y-92480820D01*
X138899188Y-92600518D01*
X138886928Y-92725000D01*
X138890000Y-92964250D01*
X139048750Y-93123000D01*
X139873000Y-93123000D01*
X139873000Y-93103000D01*
X140127000Y-93103000D01*
X140127000Y-93123000D01*
X140951250Y-93123000D01*
X141000000Y-93074250D01*
X141048750Y-93123000D01*
X141873000Y-93123000D01*
X141873000Y-93103000D01*
X142127000Y-93103000D01*
X142127000Y-93123000D01*
X142951250Y-93123000D01*
X143110000Y-92964250D01*
X143113072Y-92725000D01*
X143100812Y-92600518D01*
X143064502Y-92480820D01*
X143005537Y-92370506D01*
X142945901Y-92297839D01*
X142965512Y-92273942D01*
X143046423Y-92122567D01*
X143096248Y-91958316D01*
X143113072Y-91787500D01*
X143113072Y-91437873D01*
X144015512Y-92340314D01*
X143980498Y-92405820D01*
X143944188Y-92525518D01*
X143931928Y-92650000D01*
X143931928Y-94350000D01*
X143944188Y-94474482D01*
X143980498Y-94594180D01*
X144039463Y-94704494D01*
X144118815Y-94801185D01*
X144215506Y-94880537D01*
X144325820Y-94939502D01*
X144445518Y-94975812D01*
X144570000Y-94988072D01*
X146270000Y-94988072D01*
X146394482Y-94975812D01*
X146514180Y-94939502D01*
X146624494Y-94880537D01*
X146721185Y-94801185D01*
X146800537Y-94704494D01*
X146859502Y-94594180D01*
X146881513Y-94521620D01*
X147013368Y-94653475D01*
X147256589Y-94815990D01*
X147526842Y-94927932D01*
X147813740Y-94985000D01*
X148106260Y-94985000D01*
X148393158Y-94927932D01*
X148663411Y-94815990D01*
X148906632Y-94653475D01*
X149113475Y-94446632D01*
X149235195Y-94264466D01*
X149304822Y-94381355D01*
X149499731Y-94597588D01*
X149733080Y-94771641D01*
X149995901Y-94896825D01*
X150143110Y-94941476D01*
X150373000Y-94820155D01*
X150373000Y-93627000D01*
X150627000Y-93627000D01*
X150627000Y-94820155D01*
X150856890Y-94941476D01*
X151004099Y-94896825D01*
X151266920Y-94771641D01*
X151500269Y-94597588D01*
X151695178Y-94381355D01*
X151844157Y-94131252D01*
X151941481Y-93856891D01*
X154308519Y-93856891D01*
X154405843Y-94131252D01*
X154554822Y-94381355D01*
X154749731Y-94597588D01*
X154983080Y-94771641D01*
X155245901Y-94896825D01*
X155393110Y-94941476D01*
X155623000Y-94820155D01*
X155623000Y-93627000D01*
X154429186Y-93627000D01*
X154308519Y-93856891D01*
X151941481Y-93856891D01*
X151820814Y-93627000D01*
X150627000Y-93627000D01*
X150373000Y-93627000D01*
X150353000Y-93627000D01*
X150353000Y-93373000D01*
X150373000Y-93373000D01*
X150373000Y-92179845D01*
X150627000Y-92179845D01*
X150627000Y-93373000D01*
X151820814Y-93373000D01*
X151941481Y-93143109D01*
X154308519Y-93143109D01*
X154429186Y-93373000D01*
X155623000Y-93373000D01*
X155623000Y-92179845D01*
X155393110Y-92058524D01*
X155245901Y-92103175D01*
X154983080Y-92228359D01*
X154749731Y-92402412D01*
X154554822Y-92618645D01*
X154405843Y-92868748D01*
X154308519Y-93143109D01*
X151941481Y-93143109D01*
X151844157Y-92868748D01*
X151695178Y-92618645D01*
X151500269Y-92402412D01*
X151266920Y-92228359D01*
X151004099Y-92103175D01*
X150856890Y-92058524D01*
X150627000Y-92179845D01*
X150373000Y-92179845D01*
X150143110Y-92058524D01*
X149995901Y-92103175D01*
X149733080Y-92228359D01*
X149499731Y-92402412D01*
X149304822Y-92618645D01*
X149235195Y-92735534D01*
X149113475Y-92553368D01*
X148906632Y-92346525D01*
X148722356Y-92223396D01*
X148723676Y-92209999D01*
X148720000Y-92172676D01*
X148720000Y-92172667D01*
X148709003Y-92061014D01*
X148665546Y-91917753D01*
X148594974Y-91785724D01*
X148500001Y-91669999D01*
X148470997Y-91646196D01*
X148063804Y-91239003D01*
X148040001Y-91209999D01*
X147924276Y-91115026D01*
X147792247Y-91044454D01*
X147648986Y-91000997D01*
X147537333Y-90990000D01*
X147537322Y-90990000D01*
X147500000Y-90986324D01*
X147462678Y-90990000D01*
X146064802Y-90990000D01*
X144800624Y-89725822D01*
X144925000Y-89738072D01*
X145175000Y-89738072D01*
X145323868Y-89723410D01*
X145467015Y-89679987D01*
X145598940Y-89609471D01*
X145714573Y-89514573D01*
X145809471Y-89398940D01*
X145879987Y-89267015D01*
X145923410Y-89123868D01*
X145938072Y-88975000D01*
X145938072Y-87863072D01*
X147050000Y-87863072D01*
X147198868Y-87848410D01*
X147342015Y-87804987D01*
X147473940Y-87734471D01*
X147589573Y-87639573D01*
X147684471Y-87523940D01*
X147754987Y-87392015D01*
X147798410Y-87248868D01*
X147813072Y-87100000D01*
X147813072Y-86850000D01*
X147798410Y-86701132D01*
X147760148Y-86575000D01*
X147798410Y-86448868D01*
X147813072Y-86300000D01*
X147813072Y-86050000D01*
X147798410Y-85901132D01*
X147760148Y-85775000D01*
X147798410Y-85648868D01*
X147813072Y-85500000D01*
X147813072Y-85250000D01*
X147798410Y-85101132D01*
X147760148Y-84975000D01*
X147798410Y-84848868D01*
X147813072Y-84700000D01*
X147813072Y-84450000D01*
X147798410Y-84301132D01*
X147760148Y-84175000D01*
X147798410Y-84048868D01*
X147813072Y-83900000D01*
X147813072Y-83650000D01*
X147798410Y-83501132D01*
X147760148Y-83375000D01*
X147798410Y-83248868D01*
X147813072Y-83100000D01*
X147813072Y-82850000D01*
X147798410Y-82701132D01*
X147760148Y-82575000D01*
X147798410Y-82448868D01*
X147808147Y-82350000D01*
X150636928Y-82350000D01*
X150640000Y-82589250D01*
X150798750Y-82748000D01*
X151623000Y-82748000D01*
X151623000Y-81873750D01*
X151877000Y-81873750D01*
X151877000Y-82748000D01*
X152701250Y-82748000D01*
X152860000Y-82589250D01*
X152863072Y-82350000D01*
X152850812Y-82225518D01*
X152850655Y-82225000D01*
X158086928Y-82225000D01*
X158099188Y-82349482D01*
X158135498Y-82469180D01*
X158194463Y-82579494D01*
X158273815Y-82676185D01*
X158370506Y-82755537D01*
X158480820Y-82814502D01*
X158600518Y-82850812D01*
X158725000Y-82863072D01*
X158964250Y-82860000D01*
X159123000Y-82701250D01*
X159123000Y-81877000D01*
X158248750Y-81877000D01*
X158090000Y-82035750D01*
X158086928Y-82225000D01*
X152850655Y-82225000D01*
X152814502Y-82105820D01*
X152755537Y-81995506D01*
X152676185Y-81898815D01*
X152579494Y-81819463D01*
X152469180Y-81760498D01*
X152349482Y-81724188D01*
X152225000Y-81711928D01*
X152035750Y-81715000D01*
X151877000Y-81873750D01*
X151623000Y-81873750D01*
X151464250Y-81715000D01*
X151275000Y-81711928D01*
X151150518Y-81724188D01*
X151030820Y-81760498D01*
X150920506Y-81819463D01*
X150823815Y-81898815D01*
X150744463Y-81995506D01*
X150685498Y-82105820D01*
X150649188Y-82225518D01*
X150636928Y-82350000D01*
X147808147Y-82350000D01*
X147813072Y-82300000D01*
X147813072Y-82050000D01*
X147798410Y-81901132D01*
X147760148Y-81775000D01*
X147798410Y-81648868D01*
X147813072Y-81500000D01*
X147813072Y-81250000D01*
X147798410Y-81101132D01*
X147754987Y-80957985D01*
X147684471Y-80826060D01*
X147589573Y-80710427D01*
X147473940Y-80615529D01*
X147342015Y-80545013D01*
X147198868Y-80501590D01*
X147050000Y-80486928D01*
X145938072Y-80486928D01*
X145938072Y-80475000D01*
X158086928Y-80475000D01*
X158099188Y-80599482D01*
X158135498Y-80719180D01*
X158194463Y-80829494D01*
X158231809Y-80875000D01*
X158194463Y-80920506D01*
X158135498Y-81030820D01*
X158099188Y-81150518D01*
X158086928Y-81275000D01*
X158090000Y-81464250D01*
X158248750Y-81623000D01*
X159123000Y-81623000D01*
X159123000Y-80127000D01*
X158248750Y-80127000D01*
X158090000Y-80285750D01*
X158086928Y-80475000D01*
X145938072Y-80475000D01*
X145938072Y-79525000D01*
X158086928Y-79525000D01*
X158090000Y-79714250D01*
X158248750Y-79873000D01*
X159123000Y-79873000D01*
X159123000Y-79048750D01*
X158964250Y-78890000D01*
X158725000Y-78886928D01*
X158600518Y-78899188D01*
X158480820Y-78935498D01*
X158370506Y-78994463D01*
X158273815Y-79073815D01*
X158194463Y-79170506D01*
X158135498Y-79280820D01*
X158099188Y-79400518D01*
X158086928Y-79525000D01*
X145938072Y-79525000D01*
X145938072Y-79375000D01*
X145934155Y-79335232D01*
X146101939Y-79335232D01*
X146301898Y-79295458D01*
X146490256Y-79217437D01*
X146659774Y-79104169D01*
X146803937Y-78960006D01*
X146917205Y-78790488D01*
X146995226Y-78602130D01*
X147035000Y-78402171D01*
X147035000Y-78198293D01*
X146995226Y-77998334D01*
X146917205Y-77809976D01*
X146803937Y-77640458D01*
X146659774Y-77496295D01*
X146490256Y-77383027D01*
X146301898Y-77305006D01*
X146101939Y-77265232D01*
X146039801Y-77265232D01*
X146013571Y-77239002D01*
X145989769Y-77209999D01*
X145874044Y-77115026D01*
X145742015Y-77044454D01*
X145598754Y-77000997D01*
X145487101Y-76990000D01*
X145487090Y-76990000D01*
X145449768Y-76986324D01*
X145412446Y-76990000D01*
X144787325Y-76990000D01*
X144750803Y-76986403D01*
X144703399Y-76915458D01*
X144559236Y-76771295D01*
X144389718Y-76658027D01*
X144266711Y-76607076D01*
X144232573Y-76435449D01*
X144154552Y-76247091D01*
X144041284Y-76077573D01*
X143897121Y-75933410D01*
X143727603Y-75820142D01*
X143539245Y-75742121D01*
X143502529Y-75734818D01*
X143497593Y-75710000D01*
X173794063Y-75710000D01*
X173774188Y-75775518D01*
X173765375Y-75865000D01*
X172809443Y-75865000D01*
X172789851Y-75854528D01*
X172623255Y-75803992D01*
X172450001Y-75786928D01*
X171549999Y-75786928D01*
X171376745Y-75803992D01*
X171210149Y-75854528D01*
X171056613Y-75936595D01*
X170922038Y-76047038D01*
X170866263Y-76115000D01*
X170329373Y-76115000D01*
X170274180Y-76085498D01*
X170154482Y-76049188D01*
X170030000Y-76036928D01*
X168470000Y-76036928D01*
X168345518Y-76049188D01*
X168225820Y-76085498D01*
X168115506Y-76144463D01*
X168018815Y-76223815D01*
X167939463Y-76320506D01*
X167900000Y-76394335D01*
X167860537Y-76320506D01*
X167781185Y-76223815D01*
X167684494Y-76144463D01*
X167574180Y-76085498D01*
X167454482Y-76049188D01*
X167330000Y-76036928D01*
X166835750Y-76040000D01*
X166677000Y-76198750D01*
X166677000Y-76873000D01*
X166697000Y-76873000D01*
X166697000Y-77127000D01*
X166677000Y-77127000D01*
X166677000Y-77147000D01*
X166423000Y-77147000D01*
X166423000Y-77127000D01*
X166401250Y-77127000D01*
X166264250Y-76990000D01*
X165770000Y-76986928D01*
X165645518Y-76999188D01*
X165525820Y-77035498D01*
X165415506Y-77094463D01*
X165375859Y-77127000D01*
X165293750Y-77127000D01*
X165135000Y-77285750D01*
X165131928Y-77325000D01*
X165144188Y-77449482D01*
X165151929Y-77475000D01*
X165144188Y-77500518D01*
X165131928Y-77625000D01*
X165135000Y-77664250D01*
X165293750Y-77823000D01*
X165375859Y-77823000D01*
X165415506Y-77855537D01*
X165525820Y-77914502D01*
X165642841Y-77950000D01*
X165525820Y-77985498D01*
X165415506Y-78044463D01*
X165375859Y-78077000D01*
X165293750Y-78077000D01*
X165230750Y-78140000D01*
X164837191Y-78140000D01*
X164803937Y-78090232D01*
X164659774Y-77946069D01*
X164490256Y-77832801D01*
X164301898Y-77754780D01*
X164101939Y-77715006D01*
X163898061Y-77715006D01*
X163698102Y-77754780D01*
X163509744Y-77832801D01*
X163340226Y-77946069D01*
X163196063Y-78090232D01*
X163082795Y-78259750D01*
X163004774Y-78448108D01*
X162965000Y-78648067D01*
X162965000Y-78851945D01*
X162974498Y-78899696D01*
X161535000Y-77460199D01*
X161535000Y-77398061D01*
X161495226Y-77198102D01*
X161417205Y-77009744D01*
X161303937Y-76840226D01*
X161159774Y-76696063D01*
X161128251Y-76675000D01*
X165131928Y-76675000D01*
X165135000Y-76714250D01*
X165293750Y-76873000D01*
X166423000Y-76873000D01*
X166423000Y-76198750D01*
X166264250Y-76040000D01*
X165770000Y-76036928D01*
X165645518Y-76049188D01*
X165525820Y-76085498D01*
X165415506Y-76144463D01*
X165318815Y-76223815D01*
X165239463Y-76320506D01*
X165180498Y-76430820D01*
X165144188Y-76550518D01*
X165131928Y-76675000D01*
X161128251Y-76675000D01*
X160990256Y-76582795D01*
X160801898Y-76504774D01*
X160601939Y-76465000D01*
X160398061Y-76465000D01*
X160198102Y-76504774D01*
X160009744Y-76582795D01*
X159840226Y-76696063D01*
X159696063Y-76840226D01*
X159582795Y-77009744D01*
X159504774Y-77198102D01*
X159465000Y-77398061D01*
X159465000Y-77601939D01*
X159504774Y-77801898D01*
X159582795Y-77990256D01*
X159696063Y-78159774D01*
X159840226Y-78303937D01*
X160009744Y-78417205D01*
X160198102Y-78495226D01*
X160398061Y-78535000D01*
X160460199Y-78535000D01*
X160812127Y-78886928D01*
X160712500Y-78886928D01*
X160541684Y-78903752D01*
X160377433Y-78953577D01*
X160226058Y-79034488D01*
X160202161Y-79054099D01*
X160129494Y-78994463D01*
X160019180Y-78935498D01*
X159899482Y-78899188D01*
X159775000Y-78886928D01*
X159535750Y-78890000D01*
X159377000Y-79048750D01*
X159377000Y-79873000D01*
X159397000Y-79873000D01*
X159397000Y-80127000D01*
X159377000Y-80127000D01*
X159377000Y-81623000D01*
X159397000Y-81623000D01*
X159397000Y-81877000D01*
X159377000Y-81877000D01*
X159377000Y-82701250D01*
X159535750Y-82860000D01*
X159775000Y-82863072D01*
X159899482Y-82850812D01*
X160019180Y-82814502D01*
X160115000Y-82763284D01*
X160115001Y-83415650D01*
X160101185Y-83398815D01*
X160004494Y-83319463D01*
X159894180Y-83260498D01*
X159774482Y-83224188D01*
X159650000Y-83211928D01*
X158250000Y-83211928D01*
X158125518Y-83224188D01*
X158073393Y-83240000D01*
X155426607Y-83240000D01*
X155374482Y-83224188D01*
X155250000Y-83211928D01*
X153850000Y-83211928D01*
X153725518Y-83224188D01*
X153605820Y-83260498D01*
X153495506Y-83319463D01*
X153398815Y-83398815D01*
X153319463Y-83495506D01*
X153260498Y-83605820D01*
X153224188Y-83725518D01*
X153211928Y-83850000D01*
X153211928Y-84150000D01*
X153221777Y-84250000D01*
X153211928Y-84350000D01*
X153211928Y-84650000D01*
X153220792Y-84740000D01*
X152939802Y-84740000D01*
X152863072Y-84663270D01*
X152863072Y-84337500D01*
X152846248Y-84166684D01*
X152796423Y-84002433D01*
X152715512Y-83851058D01*
X152695901Y-83827161D01*
X152755537Y-83754494D01*
X152814502Y-83644180D01*
X152850812Y-83524482D01*
X152863072Y-83400000D01*
X152860000Y-83160750D01*
X152701250Y-83002000D01*
X151877000Y-83002000D01*
X151877000Y-83022000D01*
X151623000Y-83022000D01*
X151623000Y-83002000D01*
X150798750Y-83002000D01*
X150640000Y-83160750D01*
X150636928Y-83400000D01*
X150649188Y-83524482D01*
X150685498Y-83644180D01*
X150744463Y-83754494D01*
X150804099Y-83827161D01*
X150784488Y-83851058D01*
X150703577Y-84002433D01*
X150653752Y-84166684D01*
X150636928Y-84337500D01*
X150636928Y-84912500D01*
X150653752Y-85083316D01*
X150703577Y-85247567D01*
X150784488Y-85398942D01*
X150893377Y-85531623D01*
X150990000Y-85610920D01*
X150990001Y-85764080D01*
X150893377Y-85843377D01*
X150784488Y-85976058D01*
X150703577Y-86127433D01*
X150653752Y-86291684D01*
X150636928Y-86462500D01*
X150636928Y-87037500D01*
X150653752Y-87208316D01*
X150703577Y-87372567D01*
X150784488Y-87523942D01*
X150867425Y-87625000D01*
X150784488Y-87726058D01*
X150703577Y-87877433D01*
X150653752Y-88041684D01*
X150636928Y-88212500D01*
X150636928Y-88787500D01*
X150653752Y-88958316D01*
X150703577Y-89122567D01*
X150784488Y-89273942D01*
X150893377Y-89406623D01*
X151026058Y-89515512D01*
X151177433Y-89596423D01*
X151341684Y-89646248D01*
X151365000Y-89648544D01*
X151365000Y-89711545D01*
X151332795Y-89759744D01*
X151254774Y-89948102D01*
X151215000Y-90148061D01*
X151215000Y-90351939D01*
X151254774Y-90551898D01*
X151332795Y-90740256D01*
X151446063Y-90909774D01*
X151590226Y-91053937D01*
X151759744Y-91167205D01*
X151948102Y-91245226D01*
X152148061Y-91285000D01*
X152351939Y-91285000D01*
X152551898Y-91245226D01*
X152740256Y-91167205D01*
X152788454Y-91135000D01*
X152943478Y-91135000D01*
X153073491Y-91122195D01*
X153240314Y-91071589D01*
X153394060Y-90989411D01*
X153528818Y-90878817D01*
X153626329Y-90760000D01*
X153639080Y-90760000D01*
X153718377Y-90856623D01*
X153851058Y-90965512D01*
X154002433Y-91046423D01*
X154166684Y-91096248D01*
X154337500Y-91113072D01*
X154912500Y-91113072D01*
X155083316Y-91096248D01*
X155247567Y-91046423D01*
X155398942Y-90965512D01*
X155422839Y-90945901D01*
X155495506Y-91005537D01*
X155605820Y-91064502D01*
X155725518Y-91100812D01*
X155850000Y-91113072D01*
X156089250Y-91110000D01*
X156248000Y-90951250D01*
X156248000Y-90127000D01*
X156502000Y-90127000D01*
X156502000Y-90951250D01*
X156660750Y-91110000D01*
X156900000Y-91113072D01*
X157024482Y-91100812D01*
X157144180Y-91064502D01*
X157254494Y-91005537D01*
X157351185Y-90926185D01*
X157430537Y-90829494D01*
X157489502Y-90719180D01*
X157525812Y-90599482D01*
X157538072Y-90475000D01*
X157535000Y-90285750D01*
X157376250Y-90127000D01*
X156502000Y-90127000D01*
X156248000Y-90127000D01*
X156228000Y-90127000D01*
X156228000Y-89873000D01*
X156248000Y-89873000D01*
X156248000Y-89048750D01*
X156199250Y-89000000D01*
X156248000Y-88951250D01*
X156248000Y-88127000D01*
X156502000Y-88127000D01*
X156502000Y-88951250D01*
X156550750Y-89000000D01*
X156502000Y-89048750D01*
X156502000Y-89873000D01*
X157376250Y-89873000D01*
X157535000Y-89714250D01*
X157538072Y-89525000D01*
X157525812Y-89400518D01*
X157489502Y-89280820D01*
X157430537Y-89170506D01*
X157351185Y-89073815D01*
X157261241Y-89000000D01*
X157351185Y-88926185D01*
X157430537Y-88829494D01*
X157489502Y-88719180D01*
X157525812Y-88599482D01*
X157538072Y-88475000D01*
X157535000Y-88285750D01*
X157376250Y-88127000D01*
X156502000Y-88127000D01*
X156248000Y-88127000D01*
X156228000Y-88127000D01*
X156228000Y-87873000D01*
X156248000Y-87873000D01*
X156248000Y-87048750D01*
X156089250Y-86890000D01*
X155850000Y-86886928D01*
X155725518Y-86899188D01*
X155605820Y-86935498D01*
X155495506Y-86994463D01*
X155422839Y-87054099D01*
X155398942Y-87034488D01*
X155310000Y-86986948D01*
X155310000Y-86782163D01*
X155374482Y-86775812D01*
X155494180Y-86739502D01*
X155604494Y-86680537D01*
X155701185Y-86601185D01*
X155780537Y-86504494D01*
X155839502Y-86394180D01*
X155875812Y-86274482D01*
X155888072Y-86150000D01*
X155888072Y-85850000D01*
X155878223Y-85750000D01*
X155888072Y-85650000D01*
X155888072Y-85350000D01*
X155878223Y-85250000D01*
X155888072Y-85150000D01*
X155888072Y-84850000D01*
X155879208Y-84760000D01*
X157284672Y-84760000D01*
X157294454Y-84792247D01*
X157365026Y-84924276D01*
X157407521Y-84976056D01*
X157351939Y-84965000D01*
X157148061Y-84965000D01*
X156948102Y-85004774D01*
X156759744Y-85082795D01*
X156590226Y-85196063D01*
X156446063Y-85340226D01*
X156332795Y-85509744D01*
X156254774Y-85698102D01*
X156215000Y-85898061D01*
X156215000Y-86101939D01*
X156254774Y-86301898D01*
X156332795Y-86490256D01*
X156446063Y-86659774D01*
X156590226Y-86803937D01*
X156717930Y-86889266D01*
X156660750Y-86890000D01*
X156502000Y-87048750D01*
X156502000Y-87873000D01*
X157376250Y-87873000D01*
X157535000Y-87714250D01*
X157538072Y-87525000D01*
X157525812Y-87400518D01*
X157489502Y-87280820D01*
X157430537Y-87170506D01*
X157351185Y-87073815D01*
X157303889Y-87035000D01*
X157351939Y-87035000D01*
X157551898Y-86995226D01*
X157740256Y-86917205D01*
X157909774Y-86803937D01*
X157953711Y-86760000D01*
X158073393Y-86760000D01*
X158125518Y-86775812D01*
X158250000Y-86788072D01*
X159650000Y-86788072D01*
X159774482Y-86775812D01*
X159826607Y-86760000D01*
X160311928Y-86760000D01*
X160311928Y-88050000D01*
X160324188Y-88174482D01*
X160360498Y-88294180D01*
X160419463Y-88404494D01*
X160498815Y-88501185D01*
X160595506Y-88580537D01*
X160705820Y-88639502D01*
X160825518Y-88675812D01*
X160950000Y-88688072D01*
X164550000Y-88688072D01*
X164674482Y-88675812D01*
X164794180Y-88639502D01*
X164904494Y-88580537D01*
X165001185Y-88501185D01*
X165080537Y-88404494D01*
X165139502Y-88294180D01*
X165175812Y-88174482D01*
X165188072Y-88050000D01*
X165188072Y-86689651D01*
X165365001Y-86866580D01*
X165365000Y-89668954D01*
X165270506Y-89719463D01*
X165173815Y-89798815D01*
X165094463Y-89895506D01*
X165035498Y-90005820D01*
X165000000Y-90122841D01*
X164964502Y-90005820D01*
X164905537Y-89895506D01*
X164826185Y-89798815D01*
X164729494Y-89719463D01*
X164619180Y-89660498D01*
X164499482Y-89624188D01*
X164375000Y-89611928D01*
X163125000Y-89611928D01*
X163000518Y-89624188D01*
X162880820Y-89660498D01*
X162770506Y-89719463D01*
X162673815Y-89798815D01*
X162594463Y-89895506D01*
X162535498Y-90005820D01*
X162502379Y-90115000D01*
X160793465Y-90115000D01*
X160749999Y-90110719D01*
X160706533Y-90115000D01*
X160706523Y-90115000D01*
X160576510Y-90127805D01*
X160409687Y-90178411D01*
X160255941Y-90260589D01*
X160255939Y-90260590D01*
X160255940Y-90260590D01*
X160154953Y-90343468D01*
X160154951Y-90343470D01*
X160121183Y-90371183D01*
X160093470Y-90404951D01*
X158486494Y-92011928D01*
X157440000Y-92011928D01*
X157315518Y-92024188D01*
X157195820Y-92060498D01*
X157085506Y-92119463D01*
X156988815Y-92198815D01*
X156909463Y-92295506D01*
X156850498Y-92405820D01*
X156826034Y-92486466D01*
X156750269Y-92402412D01*
X156516920Y-92228359D01*
X156254099Y-92103175D01*
X156106890Y-92058524D01*
X155877000Y-92179845D01*
X155877000Y-93373000D01*
X155897000Y-93373000D01*
X155897000Y-93627000D01*
X155877000Y-93627000D01*
X155877000Y-94820155D01*
X156106890Y-94941476D01*
X156254099Y-94896825D01*
X156516920Y-94771641D01*
X156750269Y-94597588D01*
X156826034Y-94513534D01*
X156850498Y-94594180D01*
X156909463Y-94704494D01*
X156988815Y-94801185D01*
X157085506Y-94880537D01*
X157195820Y-94939502D01*
X157315518Y-94975812D01*
X157440000Y-94988072D01*
X159140000Y-94988072D01*
X159264482Y-94975812D01*
X159384180Y-94939502D01*
X159494494Y-94880537D01*
X159591185Y-94801185D01*
X159670537Y-94704494D01*
X159729502Y-94594180D01*
X159765812Y-94474482D01*
X159778072Y-94350000D01*
X159778072Y-93223506D01*
X161116579Y-91885000D01*
X162486928Y-91885000D01*
X162486928Y-92750000D01*
X162499188Y-92874482D01*
X162535498Y-92994180D01*
X162594463Y-93104494D01*
X162658014Y-93181932D01*
X162533517Y-93206696D01*
X162336060Y-93288485D01*
X162158353Y-93407225D01*
X162007225Y-93558353D01*
X161888485Y-93736060D01*
X161806696Y-93933517D01*
X161765000Y-94143137D01*
X161765000Y-94356863D01*
X161806696Y-94566483D01*
X161888485Y-94763940D01*
X162007225Y-94941647D01*
X162158353Y-95092775D01*
X162336060Y-95211515D01*
X162533517Y-95293304D01*
X162743137Y-95335000D01*
X162956863Y-95335000D01*
X163166483Y-95293304D01*
X163363940Y-95211515D01*
X163541647Y-95092775D01*
X163692775Y-94941647D01*
X163811515Y-94763940D01*
X163893304Y-94566483D01*
X163935000Y-94356863D01*
X163935000Y-94143137D01*
X163893304Y-93933517D01*
X163811515Y-93736060D01*
X163692775Y-93558353D01*
X163541647Y-93407225D01*
X163512983Y-93388072D01*
X164375000Y-93388072D01*
X164499482Y-93375812D01*
X164619180Y-93339502D01*
X164729494Y-93280537D01*
X164826185Y-93201185D01*
X164905537Y-93104494D01*
X164964502Y-92994180D01*
X165000000Y-92877159D01*
X165035498Y-92994180D01*
X165094463Y-93104494D01*
X165173815Y-93201185D01*
X165270506Y-93280537D01*
X165380820Y-93339502D01*
X165500518Y-93375812D01*
X165625000Y-93388072D01*
X166875000Y-93388072D01*
X166999482Y-93375812D01*
X167119180Y-93339502D01*
X167229494Y-93280537D01*
X167326185Y-93201185D01*
X167405537Y-93104494D01*
X167464502Y-92994180D01*
X167500000Y-92877159D01*
X167535498Y-92994180D01*
X167594463Y-93104494D01*
X167673815Y-93201185D01*
X167770506Y-93280537D01*
X167880820Y-93339502D01*
X168000518Y-93375812D01*
X168125000Y-93388072D01*
X168987017Y-93388072D01*
X168958353Y-93407225D01*
X168807225Y-93558353D01*
X168688485Y-93736060D01*
X168606696Y-93933517D01*
X168565000Y-94143137D01*
X168565000Y-94356863D01*
X168606696Y-94566483D01*
X168688485Y-94763940D01*
X168807225Y-94941647D01*
X168958353Y-95092775D01*
X169136060Y-95211515D01*
X169333517Y-95293304D01*
X169543137Y-95335000D01*
X169756863Y-95335000D01*
X169966483Y-95293304D01*
X170163940Y-95211515D01*
X170341647Y-95092775D01*
X170492775Y-94941647D01*
X170611515Y-94763940D01*
X170693304Y-94566483D01*
X170735000Y-94356863D01*
X170735000Y-94143137D01*
X170693304Y-93933517D01*
X170611515Y-93736060D01*
X170492775Y-93558353D01*
X170341647Y-93407225D01*
X170163940Y-93288485D01*
X169966483Y-93206696D01*
X169841986Y-93181932D01*
X169905537Y-93104494D01*
X169964502Y-92994180D01*
X170000812Y-92874482D01*
X170013072Y-92750000D01*
X170013072Y-91843740D01*
X173765000Y-91843740D01*
X173765000Y-92136260D01*
X173822068Y-92423158D01*
X173934010Y-92693411D01*
X174096525Y-92936632D01*
X174303368Y-93143475D01*
X174485534Y-93265195D01*
X174368645Y-93334822D01*
X174152412Y-93529731D01*
X173978359Y-93763080D01*
X173853175Y-94025901D01*
X173808524Y-94173110D01*
X173929845Y-94403000D01*
X175123000Y-94403000D01*
X175123000Y-94383000D01*
X175377000Y-94383000D01*
X175377000Y-94403000D01*
X176570155Y-94403000D01*
X176691476Y-94173110D01*
X176646825Y-94025901D01*
X176521641Y-93763080D01*
X176347588Y-93529731D01*
X176131355Y-93334822D01*
X176014466Y-93265195D01*
X176196632Y-93143475D01*
X176403475Y-92936632D01*
X176565990Y-92693411D01*
X176677932Y-92423158D01*
X176735000Y-92136260D01*
X176735000Y-91843740D01*
X176677932Y-91556842D01*
X176565990Y-91286589D01*
X176403475Y-91043368D01*
X176196632Y-90836525D01*
X176014466Y-90714805D01*
X176131355Y-90645178D01*
X176347588Y-90450269D01*
X176521641Y-90216920D01*
X176646825Y-89954099D01*
X176691476Y-89806890D01*
X176570155Y-89577000D01*
X175377000Y-89577000D01*
X175377000Y-89597000D01*
X175123000Y-89597000D01*
X175123000Y-89577000D01*
X173929845Y-89577000D01*
X173808524Y-89806890D01*
X173853175Y-89954099D01*
X173978359Y-90216920D01*
X174152412Y-90450269D01*
X174368645Y-90645178D01*
X174485534Y-90714805D01*
X174303368Y-90836525D01*
X174096525Y-91043368D01*
X173934010Y-91286589D01*
X173822068Y-91556842D01*
X173765000Y-91843740D01*
X170013072Y-91843740D01*
X170013072Y-90250000D01*
X170000812Y-90125518D01*
X169964502Y-90005820D01*
X169905537Y-89895506D01*
X169826185Y-89798815D01*
X169729494Y-89719463D01*
X169619180Y-89660498D01*
X169499482Y-89624188D01*
X169375000Y-89611928D01*
X168125000Y-89611928D01*
X168000518Y-89624188D01*
X167880820Y-89660498D01*
X167770506Y-89719463D01*
X167673815Y-89798815D01*
X167594463Y-89895506D01*
X167535498Y-90005820D01*
X167500000Y-90122841D01*
X167464502Y-90005820D01*
X167405537Y-89895506D01*
X167326185Y-89798815D01*
X167229494Y-89719463D01*
X167135000Y-89668954D01*
X167135000Y-86543469D01*
X167139281Y-86500000D01*
X167135000Y-86456531D01*
X167135000Y-86456523D01*
X167122195Y-86326510D01*
X167111801Y-86292246D01*
X167071589Y-86159686D01*
X166989411Y-86005941D01*
X166906532Y-85904953D01*
X166906530Y-85904951D01*
X166878817Y-85871183D01*
X166845049Y-85843470D01*
X166114651Y-85113072D01*
X167330000Y-85113072D01*
X167454482Y-85100812D01*
X167574180Y-85064502D01*
X167684494Y-85005537D01*
X167781185Y-84926185D01*
X167860537Y-84829494D01*
X167900000Y-84755665D01*
X167939463Y-84829494D01*
X168018815Y-84926185D01*
X168115506Y-85005537D01*
X168225820Y-85064502D01*
X168345518Y-85100812D01*
X168470000Y-85113072D01*
X170030000Y-85113072D01*
X170154482Y-85100812D01*
X170274180Y-85064502D01*
X170329373Y-85035000D01*
X170780386Y-85035000D01*
X170811595Y-85093387D01*
X170922038Y-85227962D01*
X171056613Y-85338405D01*
X171210149Y-85420472D01*
X171376745Y-85471008D01*
X171549999Y-85488072D01*
X172450001Y-85488072D01*
X172623255Y-85471008D01*
X172789851Y-85420472D01*
X172943387Y-85338405D01*
X173045016Y-85255000D01*
X174055344Y-85255000D01*
X174096525Y-85316632D01*
X174303368Y-85523475D01*
X174477760Y-85640000D01*
X174303368Y-85756525D01*
X174096525Y-85963368D01*
X173971822Y-86150000D01*
X171093877Y-86150000D01*
X171053937Y-86090226D01*
X170909774Y-85946063D01*
X170740256Y-85832795D01*
X170551898Y-85754774D01*
X170351939Y-85715000D01*
X170148061Y-85715000D01*
X169948102Y-85754774D01*
X169759744Y-85832795D01*
X169590226Y-85946063D01*
X169446063Y-86090226D01*
X169332795Y-86259744D01*
X169254774Y-86448102D01*
X169215000Y-86648061D01*
X169215000Y-86851939D01*
X169254774Y-87051898D01*
X169332795Y-87240256D01*
X169446063Y-87409774D01*
X169590226Y-87553937D01*
X169759744Y-87667205D01*
X169948102Y-87745226D01*
X170148061Y-87785000D01*
X170351939Y-87785000D01*
X170551898Y-87745226D01*
X170733508Y-87670000D01*
X173971822Y-87670000D01*
X174096525Y-87856632D01*
X174303368Y-88063475D01*
X174485534Y-88185195D01*
X174368645Y-88254822D01*
X174152412Y-88449731D01*
X173978359Y-88683080D01*
X173853175Y-88945901D01*
X173808524Y-89093110D01*
X173929845Y-89323000D01*
X175123000Y-89323000D01*
X175123000Y-89303000D01*
X175377000Y-89303000D01*
X175377000Y-89323000D01*
X176570155Y-89323000D01*
X176691476Y-89093110D01*
X176646825Y-88945901D01*
X176521641Y-88683080D01*
X176347588Y-88449731D01*
X176131355Y-88254822D01*
X176014466Y-88185195D01*
X176196632Y-88063475D01*
X176403475Y-87856632D01*
X176565990Y-87613411D01*
X176677932Y-87343158D01*
X176735000Y-87056260D01*
X176735000Y-86763740D01*
X176677932Y-86476842D01*
X176565990Y-86206589D01*
X176403475Y-85963368D01*
X176196632Y-85756525D01*
X176022240Y-85640000D01*
X176196632Y-85523475D01*
X176403475Y-85316632D01*
X176565990Y-85073411D01*
X176677932Y-84803158D01*
X176735000Y-84516260D01*
X176735000Y-84223740D01*
X176677932Y-83936842D01*
X176565990Y-83666589D01*
X176403475Y-83423368D01*
X176196632Y-83216525D01*
X176022240Y-83100000D01*
X176196632Y-82983475D01*
X176403475Y-82776632D01*
X176565990Y-82533411D01*
X176677932Y-82263158D01*
X176735000Y-81976260D01*
X176735000Y-81683740D01*
X176677932Y-81396842D01*
X176565990Y-81126589D01*
X176403475Y-80883368D01*
X176196632Y-80676525D01*
X176022240Y-80560000D01*
X176196632Y-80443475D01*
X176403475Y-80236632D01*
X176565990Y-79993411D01*
X176677932Y-79723158D01*
X176735000Y-79436260D01*
X176735000Y-79143740D01*
X176677932Y-78856842D01*
X176565990Y-78586589D01*
X176403475Y-78343368D01*
X176271620Y-78211513D01*
X176344180Y-78189502D01*
X176454494Y-78130537D01*
X176551185Y-78051185D01*
X176630537Y-77954494D01*
X176689502Y-77844180D01*
X176725812Y-77724482D01*
X176738072Y-77600000D01*
X176738072Y-75900000D01*
X176725812Y-75775518D01*
X176705937Y-75710000D01*
X179290000Y-75710000D01*
X179290001Y-95540000D01*
X176336792Y-95540000D01*
X176347588Y-95530269D01*
X176521641Y-95296920D01*
X176646825Y-95034099D01*
X176691476Y-94886890D01*
X176570155Y-94657000D01*
X175377000Y-94657000D01*
X175377000Y-94677000D01*
X175123000Y-94677000D01*
X175123000Y-94657000D01*
X173929845Y-94657000D01*
X173808524Y-94886890D01*
X173853175Y-95034099D01*
X173978359Y-95296920D01*
X174152412Y-95530269D01*
X174163208Y-95540000D01*
X118127000Y-95540000D01*
X118127000Y-91642600D01*
X118224728Y-91642600D01*
X118224728Y-93642600D01*
X118236988Y-93767082D01*
X118273298Y-93886780D01*
X118332263Y-93997094D01*
X118411615Y-94093785D01*
X118508306Y-94173137D01*
X118618620Y-94232102D01*
X118738318Y-94268412D01*
X118862800Y-94280672D01*
X119662800Y-94280672D01*
X119787282Y-94268412D01*
X119906980Y-94232102D01*
X120012800Y-94175539D01*
X120118620Y-94232102D01*
X120238318Y-94268412D01*
X120362800Y-94280672D01*
X121162800Y-94280672D01*
X121287282Y-94268412D01*
X121406980Y-94232102D01*
X121512800Y-94175539D01*
X121618620Y-94232102D01*
X121738318Y-94268412D01*
X121862800Y-94280672D01*
X122662800Y-94280672D01*
X122787282Y-94268412D01*
X122906980Y-94232102D01*
X123012800Y-94175539D01*
X123118620Y-94232102D01*
X123238318Y-94268412D01*
X123362800Y-94280672D01*
X124162800Y-94280672D01*
X124287282Y-94268412D01*
X124406980Y-94232102D01*
X124512800Y-94175539D01*
X124618620Y-94232102D01*
X124738318Y-94268412D01*
X124862800Y-94280672D01*
X125662800Y-94280672D01*
X125787282Y-94268412D01*
X125906980Y-94232102D01*
X126012800Y-94175539D01*
X126118620Y-94232102D01*
X126238318Y-94268412D01*
X126362800Y-94280672D01*
X127162800Y-94280672D01*
X127287282Y-94268412D01*
X127406980Y-94232102D01*
X127512800Y-94175539D01*
X127618620Y-94232102D01*
X127738318Y-94268412D01*
X127862800Y-94280672D01*
X128662800Y-94280672D01*
X128787282Y-94268412D01*
X128906980Y-94232102D01*
X129012800Y-94175539D01*
X129118620Y-94232102D01*
X129238318Y-94268412D01*
X129362800Y-94280672D01*
X130162800Y-94280672D01*
X130287282Y-94268412D01*
X130406980Y-94232102D01*
X130517294Y-94173137D01*
X130613985Y-94093785D01*
X130693337Y-93997094D01*
X130752302Y-93886780D01*
X130786210Y-93775000D01*
X138886928Y-93775000D01*
X138899188Y-93899482D01*
X138935498Y-94019180D01*
X138994463Y-94129494D01*
X139073815Y-94226185D01*
X139170506Y-94305537D01*
X139280820Y-94364502D01*
X139400518Y-94400812D01*
X139525000Y-94413072D01*
X139714250Y-94410000D01*
X139873000Y-94251250D01*
X139873000Y-93377000D01*
X140127000Y-93377000D01*
X140127000Y-94251250D01*
X140285750Y-94410000D01*
X140475000Y-94413072D01*
X140599482Y-94400812D01*
X140719180Y-94364502D01*
X140829494Y-94305537D01*
X140926185Y-94226185D01*
X141000000Y-94136241D01*
X141073815Y-94226185D01*
X141170506Y-94305537D01*
X141280820Y-94364502D01*
X141400518Y-94400812D01*
X141525000Y-94413072D01*
X141714250Y-94410000D01*
X141873000Y-94251250D01*
X141873000Y-93377000D01*
X142127000Y-93377000D01*
X142127000Y-94251250D01*
X142285750Y-94410000D01*
X142475000Y-94413072D01*
X142599482Y-94400812D01*
X142719180Y-94364502D01*
X142829494Y-94305537D01*
X142926185Y-94226185D01*
X143005537Y-94129494D01*
X143064502Y-94019180D01*
X143100812Y-93899482D01*
X143113072Y-93775000D01*
X143110000Y-93535750D01*
X142951250Y-93377000D01*
X142127000Y-93377000D01*
X141873000Y-93377000D01*
X141048750Y-93377000D01*
X141000000Y-93425750D01*
X140951250Y-93377000D01*
X140127000Y-93377000D01*
X139873000Y-93377000D01*
X139048750Y-93377000D01*
X138890000Y-93535750D01*
X138886928Y-93775000D01*
X130786210Y-93775000D01*
X130788612Y-93767082D01*
X130800872Y-93642600D01*
X130800872Y-91860672D01*
X131862800Y-91860672D01*
X131987282Y-91848412D01*
X132106980Y-91812102D01*
X132217294Y-91753137D01*
X132313985Y-91673785D01*
X132393337Y-91577094D01*
X132452302Y-91466780D01*
X132488612Y-91347082D01*
X132500872Y-91222600D01*
X132500872Y-90422600D01*
X132488612Y-90298118D01*
X132452302Y-90178420D01*
X132395739Y-90072600D01*
X132452302Y-89966780D01*
X132488612Y-89847082D01*
X132500872Y-89722600D01*
X132500872Y-88922600D01*
X132488612Y-88798118D01*
X132452302Y-88678420D01*
X132395739Y-88572600D01*
X132452302Y-88466780D01*
X132488612Y-88347082D01*
X132500872Y-88222600D01*
X132500872Y-87422600D01*
X132488612Y-87298118D01*
X132452302Y-87178420D01*
X132395739Y-87072600D01*
X132452302Y-86966780D01*
X132488612Y-86847082D01*
X132500872Y-86722600D01*
X132500872Y-85922600D01*
X132488612Y-85798118D01*
X132452302Y-85678420D01*
X132395739Y-85572600D01*
X132452302Y-85466780D01*
X132488612Y-85347082D01*
X132500872Y-85222600D01*
X132500872Y-84422600D01*
X132488612Y-84298118D01*
X132452302Y-84178420D01*
X132395739Y-84072600D01*
X132452302Y-83966780D01*
X132488612Y-83847082D01*
X132500872Y-83722600D01*
X132500872Y-82922600D01*
X132488612Y-82798118D01*
X132452302Y-82678420D01*
X132395739Y-82572600D01*
X132452302Y-82466780D01*
X132488612Y-82347082D01*
X132500872Y-82222600D01*
X132500872Y-81422600D01*
X132488612Y-81298118D01*
X132452302Y-81178420D01*
X132395739Y-81072600D01*
X132452302Y-80966780D01*
X132488612Y-80847082D01*
X132500872Y-80722600D01*
X132500872Y-79922600D01*
X132488612Y-79798118D01*
X132452302Y-79678420D01*
X132393337Y-79568106D01*
X132313985Y-79471415D01*
X132217294Y-79392063D01*
X132106980Y-79333098D01*
X131987282Y-79296788D01*
X131862800Y-79284528D01*
X130800872Y-79284528D01*
X130800872Y-77502600D01*
X130788612Y-77378118D01*
X130752302Y-77258420D01*
X130734439Y-77225000D01*
X133336928Y-77225000D01*
X133349188Y-77349482D01*
X133385498Y-77469180D01*
X133444463Y-77579494D01*
X133523815Y-77676185D01*
X133620506Y-77755537D01*
X133730820Y-77814502D01*
X133850518Y-77850812D01*
X133975000Y-77863072D01*
X134214250Y-77860000D01*
X134373000Y-77701250D01*
X134373000Y-76877000D01*
X133498750Y-76877000D01*
X133340000Y-77035750D01*
X133336928Y-77225000D01*
X130734439Y-77225000D01*
X130693337Y-77148106D01*
X130613985Y-77051415D01*
X130517294Y-76972063D01*
X130406980Y-76913098D01*
X130287282Y-76876788D01*
X130162800Y-76864528D01*
X129362800Y-76864528D01*
X129238318Y-76876788D01*
X129118620Y-76913098D01*
X129012800Y-76969661D01*
X128906980Y-76913098D01*
X128787282Y-76876788D01*
X128662800Y-76864528D01*
X127862800Y-76864528D01*
X127738318Y-76876788D01*
X127618620Y-76913098D01*
X127512800Y-76969661D01*
X127406980Y-76913098D01*
X127287282Y-76876788D01*
X127162800Y-76864528D01*
X126362800Y-76864528D01*
X126238318Y-76876788D01*
X126118620Y-76913098D01*
X126012800Y-76969661D01*
X125906980Y-76913098D01*
X125787282Y-76876788D01*
X125662800Y-76864528D01*
X124862800Y-76864528D01*
X124738318Y-76876788D01*
X124618620Y-76913098D01*
X124512800Y-76969661D01*
X124406980Y-76913098D01*
X124287282Y-76876788D01*
X124162800Y-76864528D01*
X123362800Y-76864528D01*
X123238318Y-76876788D01*
X123118620Y-76913098D01*
X123012800Y-76969661D01*
X122906980Y-76913098D01*
X122787282Y-76876788D01*
X122662800Y-76864528D01*
X121862800Y-76864528D01*
X121738318Y-76876788D01*
X121618620Y-76913098D01*
X121512800Y-76969661D01*
X121406980Y-76913098D01*
X121287282Y-76876788D01*
X121162800Y-76864528D01*
X120362800Y-76864528D01*
X120238318Y-76876788D01*
X120118620Y-76913098D01*
X120012800Y-76969661D01*
X119906980Y-76913098D01*
X119787282Y-76876788D01*
X119662800Y-76864528D01*
X119548550Y-76867600D01*
X119389800Y-77026350D01*
X119389800Y-78375600D01*
X119409800Y-78375600D01*
X119409800Y-78629600D01*
X119389800Y-78629600D01*
X119389800Y-79978850D01*
X119548550Y-80137600D01*
X119662800Y-80140672D01*
X119787282Y-80128412D01*
X119906980Y-80092102D01*
X120012800Y-80035539D01*
X120118620Y-80092102D01*
X120238318Y-80128412D01*
X120362800Y-80140672D01*
X121162800Y-80140672D01*
X121287282Y-80128412D01*
X121406980Y-80092102D01*
X121502801Y-80040884D01*
X121502801Y-80708021D01*
X121465000Y-80898061D01*
X121465000Y-81101939D01*
X121504774Y-81301898D01*
X121582795Y-81490256D01*
X121696063Y-81659774D01*
X121840226Y-81803937D01*
X122009744Y-81917205D01*
X122198102Y-81995226D01*
X122398061Y-82035000D01*
X122601939Y-82035000D01*
X122801898Y-81995226D01*
X122990256Y-81917205D01*
X123159774Y-81803937D01*
X123303937Y-81659774D01*
X123417205Y-81490256D01*
X123495226Y-81301898D01*
X123535000Y-81101939D01*
X123535000Y-80898061D01*
X123495226Y-80698102D01*
X123417205Y-80509744D01*
X123303937Y-80340226D01*
X123159774Y-80196063D01*
X123022800Y-80104540D01*
X123022800Y-80040884D01*
X123118620Y-80092102D01*
X123238318Y-80128412D01*
X123362800Y-80140672D01*
X124162800Y-80140672D01*
X124287282Y-80128412D01*
X124406980Y-80092102D01*
X124502800Y-80040884D01*
X124502801Y-83975468D01*
X124499124Y-84012800D01*
X124502801Y-84050133D01*
X124513798Y-84161786D01*
X124517349Y-84173491D01*
X124557254Y-84305046D01*
X124627826Y-84437076D01*
X124699001Y-84523802D01*
X124722800Y-84552801D01*
X124751798Y-84576599D01*
X124965000Y-84789801D01*
X124965000Y-84851939D01*
X125004774Y-85051898D01*
X125082795Y-85240256D01*
X125196063Y-85409774D01*
X125340226Y-85553937D01*
X125509744Y-85667205D01*
X125698102Y-85745226D01*
X125898061Y-85785000D01*
X126101939Y-85785000D01*
X126301898Y-85745226D01*
X126490256Y-85667205D01*
X126659774Y-85553937D01*
X126803937Y-85409774D01*
X126917205Y-85240256D01*
X126995226Y-85051898D01*
X127035000Y-84851939D01*
X127035000Y-84648061D01*
X126995226Y-84448102D01*
X126921902Y-84271084D01*
X127051898Y-84245226D01*
X127240001Y-84167311D01*
X127240000Y-89840598D01*
X126251798Y-90828801D01*
X126222800Y-90852599D01*
X126199002Y-90881597D01*
X126199001Y-90881598D01*
X126127826Y-90968324D01*
X126068071Y-91080118D01*
X126012800Y-91109661D01*
X125906980Y-91053098D01*
X125787282Y-91016788D01*
X125662800Y-91004528D01*
X124862800Y-91004528D01*
X124738318Y-91016788D01*
X124618620Y-91053098D01*
X124512800Y-91109661D01*
X124406980Y-91053098D01*
X124287282Y-91016788D01*
X124162800Y-91004528D01*
X123362800Y-91004528D01*
X123238318Y-91016788D01*
X123118620Y-91053098D01*
X123012800Y-91109661D01*
X122906980Y-91053098D01*
X122787282Y-91016788D01*
X122662800Y-91004528D01*
X121862800Y-91004528D01*
X121738318Y-91016788D01*
X121618620Y-91053098D01*
X121512800Y-91109661D01*
X121406980Y-91053098D01*
X121287282Y-91016788D01*
X121162800Y-91004528D01*
X120959183Y-91004528D01*
X121053937Y-90909774D01*
X121167205Y-90740256D01*
X121245226Y-90551898D01*
X121285000Y-90351939D01*
X121285000Y-90148061D01*
X121245226Y-89948102D01*
X121167205Y-89759744D01*
X121053937Y-89590226D01*
X120909774Y-89446063D01*
X120740256Y-89332795D01*
X120551898Y-89254774D01*
X120351939Y-89215000D01*
X120148061Y-89215000D01*
X119948102Y-89254774D01*
X119759744Y-89332795D01*
X119590226Y-89446063D01*
X119446063Y-89590226D01*
X119332795Y-89759744D01*
X119254774Y-89948102D01*
X119243465Y-90004956D01*
X118667751Y-90580671D01*
X118633984Y-90608383D01*
X118606271Y-90642151D01*
X118606268Y-90642154D01*
X118523390Y-90743141D01*
X118441212Y-90896887D01*
X118390605Y-91063710D01*
X118373519Y-91237200D01*
X118373575Y-91237767D01*
X118332263Y-91288106D01*
X118273298Y-91398420D01*
X118236988Y-91518118D01*
X118224728Y-91642600D01*
X118127000Y-91642600D01*
X118127000Y-79502600D01*
X118224728Y-79502600D01*
X118236988Y-79627082D01*
X118273298Y-79746780D01*
X118332263Y-79857094D01*
X118411615Y-79953785D01*
X118508306Y-80033137D01*
X118618620Y-80092102D01*
X118738318Y-80128412D01*
X118862800Y-80140672D01*
X118977050Y-80137600D01*
X119135800Y-79978850D01*
X119135800Y-78629600D01*
X118386550Y-78629600D01*
X118227800Y-78788350D01*
X118224728Y-79502600D01*
X118127000Y-79502600D01*
X118127000Y-77502600D01*
X118224728Y-77502600D01*
X118227800Y-78216850D01*
X118386550Y-78375600D01*
X119135800Y-78375600D01*
X119135800Y-77026350D01*
X118977050Y-76867600D01*
X118862800Y-76864528D01*
X118738318Y-76876788D01*
X118618620Y-76913098D01*
X118508306Y-76972063D01*
X118411615Y-77051415D01*
X118332263Y-77148106D01*
X118273298Y-77258420D01*
X118236988Y-77378118D01*
X118224728Y-77502600D01*
X118127000Y-77502600D01*
X118127000Y-75710000D01*
X133684981Y-75710000D01*
X133620506Y-75744463D01*
G37*
X133620506Y-75744463D02*
X133523815Y-75823815D01*
X133444463Y-75920506D01*
X133385498Y-76030820D01*
X133349188Y-76150518D01*
X133336928Y-76275000D01*
X133340000Y-76464250D01*
X133498750Y-76623000D01*
X134373000Y-76623000D01*
X134373000Y-76603000D01*
X134627000Y-76603000D01*
X134627000Y-76623000D01*
X134647000Y-76623000D01*
X134647000Y-76877000D01*
X134627000Y-76877000D01*
X134627000Y-77701250D01*
X134785750Y-77860000D01*
X135025000Y-77863072D01*
X135149482Y-77850812D01*
X135269180Y-77814502D01*
X135379494Y-77755537D01*
X135452161Y-77695901D01*
X135476058Y-77715512D01*
X135627433Y-77796423D01*
X135791684Y-77846248D01*
X135962500Y-77863072D01*
X136537500Y-77863072D01*
X136708316Y-77846248D01*
X136872567Y-77796423D01*
X137023942Y-77715512D01*
X137156623Y-77606623D01*
X137235920Y-77510000D01*
X137591582Y-77510000D01*
X137675385Y-77612115D01*
X137805225Y-77718671D01*
X137953358Y-77797850D01*
X138114092Y-77846608D01*
X138281250Y-77863072D01*
X138718750Y-77863072D01*
X138822328Y-77852870D01*
X137563998Y-79111201D01*
X137535000Y-79134999D01*
X137511202Y-79163997D01*
X137511201Y-79163998D01*
X137440026Y-79250724D01*
X137369454Y-79382754D01*
X137353224Y-79436260D01*
X137325998Y-79526014D01*
X137323247Y-79553943D01*
X137311324Y-79675000D01*
X137315001Y-79712332D01*
X137315001Y-80500224D01*
X137301132Y-80501590D01*
X137157985Y-80545013D01*
X137026060Y-80615529D01*
X136910427Y-80710427D01*
X136815529Y-80826060D01*
X136745013Y-80957985D01*
X136701590Y-81101132D01*
X136686928Y-81250000D01*
X136686928Y-81500000D01*
X136701590Y-81648868D01*
X136739852Y-81775000D01*
X136701590Y-81901132D01*
X136686928Y-82050000D01*
X136686928Y-82300000D01*
X136701590Y-82448868D01*
X136739852Y-82575000D01*
X136701590Y-82701132D01*
X136686928Y-82850000D01*
X136686928Y-83015000D01*
X136669382Y-83015000D01*
X136667205Y-83009744D01*
X136553937Y-82840226D01*
X136409774Y-82696063D01*
X136240256Y-82582795D01*
X136051898Y-82504774D01*
X135851939Y-82465000D01*
X135648061Y-82465000D01*
X135448102Y-82504774D01*
X135259744Y-82582795D01*
X135090226Y-82696063D01*
X134946063Y-82840226D01*
X134832795Y-83009744D01*
X134754774Y-83198102D01*
X134715000Y-83398061D01*
X134715000Y-83601939D01*
X134754774Y-83801898D01*
X134822028Y-83964261D01*
X134696063Y-84090226D01*
X134582795Y-84259744D01*
X134504774Y-84448102D01*
X134465000Y-84648061D01*
X134465000Y-84851939D01*
X134504774Y-85051898D01*
X134582795Y-85240256D01*
X134696063Y-85409774D01*
X134840226Y-85553937D01*
X135009744Y-85667205D01*
X135198102Y-85745226D01*
X135398061Y-85785000D01*
X135601939Y-85785000D01*
X135801898Y-85745226D01*
X135990256Y-85667205D01*
X136159774Y-85553937D01*
X136303937Y-85409774D01*
X136353899Y-85335000D01*
X136686928Y-85335000D01*
X136686928Y-85500000D01*
X136701590Y-85648868D01*
X136739852Y-85775000D01*
X136701590Y-85901132D01*
X136686928Y-86050000D01*
X136686928Y-86300000D01*
X136701590Y-86448868D01*
X136739852Y-86575000D01*
X136701590Y-86701132D01*
X136686928Y-86850000D01*
X136686928Y-87100000D01*
X136701590Y-87248868D01*
X136745013Y-87392015D01*
X136815529Y-87523940D01*
X136910427Y-87639573D01*
X137026060Y-87734471D01*
X137157985Y-87804987D01*
X137301132Y-87848410D01*
X137450000Y-87863072D01*
X138561928Y-87863072D01*
X138561928Y-88975000D01*
X138576590Y-89123868D01*
X138620013Y-89267015D01*
X138690529Y-89398940D01*
X138785427Y-89514573D01*
X138901060Y-89609471D01*
X139032985Y-89679987D01*
X139176132Y-89723410D01*
X139325000Y-89738072D01*
X139575000Y-89738072D01*
X139723868Y-89723410D01*
X139796139Y-89701487D01*
X139866227Y-89723891D01*
X139968250Y-89735000D01*
X140122998Y-89580252D01*
X140122998Y-89699576D01*
X140082795Y-89759744D01*
X140004774Y-89948102D01*
X139965000Y-90148061D01*
X139965000Y-90336928D01*
X139762500Y-90336928D01*
X139591684Y-90353752D01*
X139427433Y-90403577D01*
X139276058Y-90484488D01*
X139143377Y-90593377D01*
X139034488Y-90726058D01*
X138953577Y-90877433D01*
X138903752Y-91041684D01*
X138886928Y-91212500D01*
X138886928Y-91787500D01*
X138903752Y-91958316D01*
X138953577Y-92122567D01*
X139034488Y-92273942D01*
X139054099Y-92297839D01*
X138994463Y-92370506D01*
X138935498Y-92480820D01*
X138899188Y-92600518D01*
X138886928Y-92725000D01*
X138890000Y-92964250D01*
X139048750Y-93123000D01*
X139873000Y-93123000D01*
X139873000Y-93103000D01*
X140127000Y-93103000D01*
X140127000Y-93123000D01*
X140951250Y-93123000D01*
X141000000Y-93074250D01*
X141048750Y-93123000D01*
X141873000Y-93123000D01*
X141873000Y-93103000D01*
X142127000Y-93103000D01*
X142127000Y-93123000D01*
X142951250Y-93123000D01*
X143110000Y-92964250D01*
X143113072Y-92725000D01*
X143100812Y-92600518D01*
X143064502Y-92480820D01*
X143005537Y-92370506D01*
X142945901Y-92297839D01*
X142965512Y-92273942D01*
X143046423Y-92122567D01*
X143096248Y-91958316D01*
X143113072Y-91787500D01*
X143113072Y-91437873D01*
X144015512Y-92340314D01*
X143980498Y-92405820D01*
X143944188Y-92525518D01*
X143931928Y-92650000D01*
X143931928Y-94350000D01*
X143944188Y-94474482D01*
X143980498Y-94594180D01*
X144039463Y-94704494D01*
X144118815Y-94801185D01*
X144215506Y-94880537D01*
X144325820Y-94939502D01*
X144445518Y-94975812D01*
X144570000Y-94988072D01*
X146270000Y-94988072D01*
X146394482Y-94975812D01*
X146514180Y-94939502D01*
X146624494Y-94880537D01*
X146721185Y-94801185D01*
X146800537Y-94704494D01*
X146859502Y-94594180D01*
X146881513Y-94521620D01*
X147013368Y-94653475D01*
X147256589Y-94815990D01*
X147526842Y-94927932D01*
X147813740Y-94985000D01*
X148106260Y-94985000D01*
X148393158Y-94927932D01*
X148663411Y-94815990D01*
X148906632Y-94653475D01*
X149113475Y-94446632D01*
X149235195Y-94264466D01*
X149304822Y-94381355D01*
X149499731Y-94597588D01*
X149733080Y-94771641D01*
X149995901Y-94896825D01*
X150143110Y-94941476D01*
X150373000Y-94820155D01*
X150373000Y-93627000D01*
X150627000Y-93627000D01*
X150627000Y-94820155D01*
X150856890Y-94941476D01*
X151004099Y-94896825D01*
X151266920Y-94771641D01*
X151500269Y-94597588D01*
X151695178Y-94381355D01*
X151844157Y-94131252D01*
X151941481Y-93856891D01*
X154308519Y-93856891D01*
X154405843Y-94131252D01*
X154554822Y-94381355D01*
X154749731Y-94597588D01*
X154983080Y-94771641D01*
X155245901Y-94896825D01*
X155393110Y-94941476D01*
X155623000Y-94820155D01*
X155623000Y-93627000D01*
X154429186Y-93627000D01*
X154308519Y-93856891D01*
X151941481Y-93856891D01*
X151820814Y-93627000D01*
X150627000Y-93627000D01*
X150373000Y-93627000D01*
X150353000Y-93627000D01*
X150353000Y-93373000D01*
X150373000Y-93373000D01*
X150373000Y-92179845D01*
X150627000Y-92179845D01*
X150627000Y-93373000D01*
X151820814Y-93373000D01*
X151941481Y-93143109D01*
X154308519Y-93143109D01*
X154429186Y-93373000D01*
X155623000Y-93373000D01*
X155623000Y-92179845D01*
X155393110Y-92058524D01*
X155245901Y-92103175D01*
X154983080Y-92228359D01*
X154749731Y-92402412D01*
X154554822Y-92618645D01*
X154405843Y-92868748D01*
X154308519Y-93143109D01*
X151941481Y-93143109D01*
X151844157Y-92868748D01*
X151695178Y-92618645D01*
X151500269Y-92402412D01*
X151266920Y-92228359D01*
X151004099Y-92103175D01*
X150856890Y-92058524D01*
X150627000Y-92179845D01*
X150373000Y-92179845D01*
X150143110Y-92058524D01*
X149995901Y-92103175D01*
X149733080Y-92228359D01*
X149499731Y-92402412D01*
X149304822Y-92618645D01*
X149235195Y-92735534D01*
X149113475Y-92553368D01*
X148906632Y-92346525D01*
X148722356Y-92223396D01*
X148723676Y-92209999D01*
X148720000Y-92172676D01*
X148720000Y-92172667D01*
X148709003Y-92061014D01*
X148665546Y-91917753D01*
X148594974Y-91785724D01*
X148500001Y-91669999D01*
X148470997Y-91646196D01*
X148063804Y-91239003D01*
X148040001Y-91209999D01*
X147924276Y-91115026D01*
X147792247Y-91044454D01*
X147648986Y-91000997D01*
X147537333Y-90990000D01*
X147537322Y-90990000D01*
X147500000Y-90986324D01*
X147462678Y-90990000D01*
X146064802Y-90990000D01*
X144800624Y-89725822D01*
X144925000Y-89738072D01*
X145175000Y-89738072D01*
X145323868Y-89723410D01*
X145467015Y-89679987D01*
X145598940Y-89609471D01*
X145714573Y-89514573D01*
X145809471Y-89398940D01*
X145879987Y-89267015D01*
X145923410Y-89123868D01*
X145938072Y-88975000D01*
X145938072Y-87863072D01*
X147050000Y-87863072D01*
X147198868Y-87848410D01*
X147342015Y-87804987D01*
X147473940Y-87734471D01*
X147589573Y-87639573D01*
X147684471Y-87523940D01*
X147754987Y-87392015D01*
X147798410Y-87248868D01*
X147813072Y-87100000D01*
X147813072Y-86850000D01*
X147798410Y-86701132D01*
X147760148Y-86575000D01*
X147798410Y-86448868D01*
X147813072Y-86300000D01*
X147813072Y-86050000D01*
X147798410Y-85901132D01*
X147760148Y-85775000D01*
X147798410Y-85648868D01*
X147813072Y-85500000D01*
X147813072Y-85250000D01*
X147798410Y-85101132D01*
X147760148Y-84975000D01*
X147798410Y-84848868D01*
X147813072Y-84700000D01*
X147813072Y-84450000D01*
X147798410Y-84301132D01*
X147760148Y-84175000D01*
X147798410Y-84048868D01*
X147813072Y-83900000D01*
X147813072Y-83650000D01*
X147798410Y-83501132D01*
X147760148Y-83375000D01*
X147798410Y-83248868D01*
X147813072Y-83100000D01*
X147813072Y-82850000D01*
X147798410Y-82701132D01*
X147760148Y-82575000D01*
X147798410Y-82448868D01*
X147808147Y-82350000D01*
X150636928Y-82350000D01*
X150640000Y-82589250D01*
X150798750Y-82748000D01*
X151623000Y-82748000D01*
X151623000Y-81873750D01*
X151877000Y-81873750D01*
X151877000Y-82748000D01*
X152701250Y-82748000D01*
X152860000Y-82589250D01*
X152863072Y-82350000D01*
X152850812Y-82225518D01*
X152850655Y-82225000D01*
X158086928Y-82225000D01*
X158099188Y-82349482D01*
X158135498Y-82469180D01*
X158194463Y-82579494D01*
X158273815Y-82676185D01*
X158370506Y-82755537D01*
X158480820Y-82814502D01*
X158600518Y-82850812D01*
X158725000Y-82863072D01*
X158964250Y-82860000D01*
X159123000Y-82701250D01*
X159123000Y-81877000D01*
X158248750Y-81877000D01*
X158090000Y-82035750D01*
X158086928Y-82225000D01*
X152850655Y-82225000D01*
X152814502Y-82105820D01*
X152755537Y-81995506D01*
X152676185Y-81898815D01*
X152579494Y-81819463D01*
X152469180Y-81760498D01*
X152349482Y-81724188D01*
X152225000Y-81711928D01*
X152035750Y-81715000D01*
X151877000Y-81873750D01*
X151623000Y-81873750D01*
X151464250Y-81715000D01*
X151275000Y-81711928D01*
X151150518Y-81724188D01*
X151030820Y-81760498D01*
X150920506Y-81819463D01*
X150823815Y-81898815D01*
X150744463Y-81995506D01*
X150685498Y-82105820D01*
X150649188Y-82225518D01*
X150636928Y-82350000D01*
X147808147Y-82350000D01*
X147813072Y-82300000D01*
X147813072Y-82050000D01*
X147798410Y-81901132D01*
X147760148Y-81775000D01*
X147798410Y-81648868D01*
X147813072Y-81500000D01*
X147813072Y-81250000D01*
X147798410Y-81101132D01*
X147754987Y-80957985D01*
X147684471Y-80826060D01*
X147589573Y-80710427D01*
X147473940Y-80615529D01*
X147342015Y-80545013D01*
X147198868Y-80501590D01*
X147050000Y-80486928D01*
X145938072Y-80486928D01*
X145938072Y-80475000D01*
X158086928Y-80475000D01*
X158099188Y-80599482D01*
X158135498Y-80719180D01*
X158194463Y-80829494D01*
X158231809Y-80875000D01*
X158194463Y-80920506D01*
X158135498Y-81030820D01*
X158099188Y-81150518D01*
X158086928Y-81275000D01*
X158090000Y-81464250D01*
X158248750Y-81623000D01*
X159123000Y-81623000D01*
X159123000Y-80127000D01*
X158248750Y-80127000D01*
X158090000Y-80285750D01*
X158086928Y-80475000D01*
X145938072Y-80475000D01*
X145938072Y-79525000D01*
X158086928Y-79525000D01*
X158090000Y-79714250D01*
X158248750Y-79873000D01*
X159123000Y-79873000D01*
X159123000Y-79048750D01*
X158964250Y-78890000D01*
X158725000Y-78886928D01*
X158600518Y-78899188D01*
X158480820Y-78935498D01*
X158370506Y-78994463D01*
X158273815Y-79073815D01*
X158194463Y-79170506D01*
X158135498Y-79280820D01*
X158099188Y-79400518D01*
X158086928Y-79525000D01*
X145938072Y-79525000D01*
X145938072Y-79375000D01*
X145934155Y-79335232D01*
X146101939Y-79335232D01*
X146301898Y-79295458D01*
X146490256Y-79217437D01*
X146659774Y-79104169D01*
X146803937Y-78960006D01*
X146917205Y-78790488D01*
X146995226Y-78602130D01*
X147035000Y-78402171D01*
X147035000Y-78198293D01*
X146995226Y-77998334D01*
X146917205Y-77809976D01*
X146803937Y-77640458D01*
X146659774Y-77496295D01*
X146490256Y-77383027D01*
X146301898Y-77305006D01*
X146101939Y-77265232D01*
X146039801Y-77265232D01*
X146013571Y-77239002D01*
X145989769Y-77209999D01*
X145874044Y-77115026D01*
X145742015Y-77044454D01*
X145598754Y-77000997D01*
X145487101Y-76990000D01*
X145487090Y-76990000D01*
X145449768Y-76986324D01*
X145412446Y-76990000D01*
X144787325Y-76990000D01*
X144750803Y-76986403D01*
X144703399Y-76915458D01*
X144559236Y-76771295D01*
X144389718Y-76658027D01*
X144266711Y-76607076D01*
X144232573Y-76435449D01*
X144154552Y-76247091D01*
X144041284Y-76077573D01*
X143897121Y-75933410D01*
X143727603Y-75820142D01*
X143539245Y-75742121D01*
X143502529Y-75734818D01*
X143497593Y-75710000D01*
X173794063Y-75710000D01*
X173774188Y-75775518D01*
X173765375Y-75865000D01*
X172809443Y-75865000D01*
X172789851Y-75854528D01*
X172623255Y-75803992D01*
X172450001Y-75786928D01*
X171549999Y-75786928D01*
X171376745Y-75803992D01*
X171210149Y-75854528D01*
X171056613Y-75936595D01*
X170922038Y-76047038D01*
X170866263Y-76115000D01*
X170329373Y-76115000D01*
X170274180Y-76085498D01*
X170154482Y-76049188D01*
X170030000Y-76036928D01*
X168470000Y-76036928D01*
X168345518Y-76049188D01*
X168225820Y-76085498D01*
X168115506Y-76144463D01*
X168018815Y-76223815D01*
X167939463Y-76320506D01*
X167900000Y-76394335D01*
X167860537Y-76320506D01*
X167781185Y-76223815D01*
X167684494Y-76144463D01*
X167574180Y-76085498D01*
X167454482Y-76049188D01*
X167330000Y-76036928D01*
X166835750Y-76040000D01*
X166677000Y-76198750D01*
X166677000Y-76873000D01*
X166697000Y-76873000D01*
X166697000Y-77127000D01*
X166677000Y-77127000D01*
X166677000Y-77147000D01*
X166423000Y-77147000D01*
X166423000Y-77127000D01*
X166401250Y-77127000D01*
X166264250Y-76990000D01*
X165770000Y-76986928D01*
X165645518Y-76999188D01*
X165525820Y-77035498D01*
X165415506Y-77094463D01*
X165375859Y-77127000D01*
X165293750Y-77127000D01*
X165135000Y-77285750D01*
X165131928Y-77325000D01*
X165144188Y-77449482D01*
X165151929Y-77475000D01*
X165144188Y-77500518D01*
X165131928Y-77625000D01*
X165135000Y-77664250D01*
X165293750Y-77823000D01*
X165375859Y-77823000D01*
X165415506Y-77855537D01*
X165525820Y-77914502D01*
X165642841Y-77950000D01*
X165525820Y-77985498D01*
X165415506Y-78044463D01*
X165375859Y-78077000D01*
X165293750Y-78077000D01*
X165230750Y-78140000D01*
X164837191Y-78140000D01*
X164803937Y-78090232D01*
X164659774Y-77946069D01*
X164490256Y-77832801D01*
X164301898Y-77754780D01*
X164101939Y-77715006D01*
X163898061Y-77715006D01*
X163698102Y-77754780D01*
X163509744Y-77832801D01*
X163340226Y-77946069D01*
X163196063Y-78090232D01*
X163082795Y-78259750D01*
X163004774Y-78448108D01*
X162965000Y-78648067D01*
X162965000Y-78851945D01*
X162974498Y-78899696D01*
X161535000Y-77460199D01*
X161535000Y-77398061D01*
X161495226Y-77198102D01*
X161417205Y-77009744D01*
X161303937Y-76840226D01*
X161159774Y-76696063D01*
X161128251Y-76675000D01*
X165131928Y-76675000D01*
X165135000Y-76714250D01*
X165293750Y-76873000D01*
X166423000Y-76873000D01*
X166423000Y-76198750D01*
X166264250Y-76040000D01*
X165770000Y-76036928D01*
X165645518Y-76049188D01*
X165525820Y-76085498D01*
X165415506Y-76144463D01*
X165318815Y-76223815D01*
X165239463Y-76320506D01*
X165180498Y-76430820D01*
X165144188Y-76550518D01*
X165131928Y-76675000D01*
X161128251Y-76675000D01*
X160990256Y-76582795D01*
X160801898Y-76504774D01*
X160601939Y-76465000D01*
X160398061Y-76465000D01*
X160198102Y-76504774D01*
X160009744Y-76582795D01*
X159840226Y-76696063D01*
X159696063Y-76840226D01*
X159582795Y-77009744D01*
X159504774Y-77198102D01*
X159465000Y-77398061D01*
X159465000Y-77601939D01*
X159504774Y-77801898D01*
X159582795Y-77990256D01*
X159696063Y-78159774D01*
X159840226Y-78303937D01*
X160009744Y-78417205D01*
X160198102Y-78495226D01*
X160398061Y-78535000D01*
X160460199Y-78535000D01*
X160812127Y-78886928D01*
X160712500Y-78886928D01*
X160541684Y-78903752D01*
X160377433Y-78953577D01*
X160226058Y-79034488D01*
X160202161Y-79054099D01*
X160129494Y-78994463D01*
X160019180Y-78935498D01*
X159899482Y-78899188D01*
X159775000Y-78886928D01*
X159535750Y-78890000D01*
X159377000Y-79048750D01*
X159377000Y-79873000D01*
X159397000Y-79873000D01*
X159397000Y-80127000D01*
X159377000Y-80127000D01*
X159377000Y-81623000D01*
X159397000Y-81623000D01*
X159397000Y-81877000D01*
X159377000Y-81877000D01*
X159377000Y-82701250D01*
X159535750Y-82860000D01*
X159775000Y-82863072D01*
X159899482Y-82850812D01*
X160019180Y-82814502D01*
X160115000Y-82763284D01*
X160115001Y-83415650D01*
X160101185Y-83398815D01*
X160004494Y-83319463D01*
X159894180Y-83260498D01*
X159774482Y-83224188D01*
X159650000Y-83211928D01*
X158250000Y-83211928D01*
X158125518Y-83224188D01*
X158073393Y-83240000D01*
X155426607Y-83240000D01*
X155374482Y-83224188D01*
X155250000Y-83211928D01*
X153850000Y-83211928D01*
X153725518Y-83224188D01*
X153605820Y-83260498D01*
X153495506Y-83319463D01*
X153398815Y-83398815D01*
X153319463Y-83495506D01*
X153260498Y-83605820D01*
X153224188Y-83725518D01*
X153211928Y-83850000D01*
X153211928Y-84150000D01*
X153221777Y-84250000D01*
X153211928Y-84350000D01*
X153211928Y-84650000D01*
X153220792Y-84740000D01*
X152939802Y-84740000D01*
X152863072Y-84663270D01*
X152863072Y-84337500D01*
X152846248Y-84166684D01*
X152796423Y-84002433D01*
X152715512Y-83851058D01*
X152695901Y-83827161D01*
X152755537Y-83754494D01*
X152814502Y-83644180D01*
X152850812Y-83524482D01*
X152863072Y-83400000D01*
X152860000Y-83160750D01*
X152701250Y-83002000D01*
X151877000Y-83002000D01*
X151877000Y-83022000D01*
X151623000Y-83022000D01*
X151623000Y-83002000D01*
X150798750Y-83002000D01*
X150640000Y-83160750D01*
X150636928Y-83400000D01*
X150649188Y-83524482D01*
X150685498Y-83644180D01*
X150744463Y-83754494D01*
X150804099Y-83827161D01*
X150784488Y-83851058D01*
X150703577Y-84002433D01*
X150653752Y-84166684D01*
X150636928Y-84337500D01*
X150636928Y-84912500D01*
X150653752Y-85083316D01*
X150703577Y-85247567D01*
X150784488Y-85398942D01*
X150893377Y-85531623D01*
X150990000Y-85610920D01*
X150990001Y-85764080D01*
X150893377Y-85843377D01*
X150784488Y-85976058D01*
X150703577Y-86127433D01*
X150653752Y-86291684D01*
X150636928Y-86462500D01*
X150636928Y-87037500D01*
X150653752Y-87208316D01*
X150703577Y-87372567D01*
X150784488Y-87523942D01*
X150867425Y-87625000D01*
X150784488Y-87726058D01*
X150703577Y-87877433D01*
X150653752Y-88041684D01*
X150636928Y-88212500D01*
X150636928Y-88787500D01*
X150653752Y-88958316D01*
X150703577Y-89122567D01*
X150784488Y-89273942D01*
X150893377Y-89406623D01*
X151026058Y-89515512D01*
X151177433Y-89596423D01*
X151341684Y-89646248D01*
X151365000Y-89648544D01*
X151365000Y-89711545D01*
X151332795Y-89759744D01*
X151254774Y-89948102D01*
X151215000Y-90148061D01*
X151215000Y-90351939D01*
X151254774Y-90551898D01*
X151332795Y-90740256D01*
X151446063Y-90909774D01*
X151590226Y-91053937D01*
X151759744Y-91167205D01*
X151948102Y-91245226D01*
X152148061Y-91285000D01*
X152351939Y-91285000D01*
X152551898Y-91245226D01*
X152740256Y-91167205D01*
X152788454Y-91135000D01*
X152943478Y-91135000D01*
X153073491Y-91122195D01*
X153240314Y-91071589D01*
X153394060Y-90989411D01*
X153528818Y-90878817D01*
X153626329Y-90760000D01*
X153639080Y-90760000D01*
X153718377Y-90856623D01*
X153851058Y-90965512D01*
X154002433Y-91046423D01*
X154166684Y-91096248D01*
X154337500Y-91113072D01*
X154912500Y-91113072D01*
X155083316Y-91096248D01*
X155247567Y-91046423D01*
X155398942Y-90965512D01*
X155422839Y-90945901D01*
X155495506Y-91005537D01*
X155605820Y-91064502D01*
X155725518Y-91100812D01*
X155850000Y-91113072D01*
X156089250Y-91110000D01*
X156248000Y-90951250D01*
X156248000Y-90127000D01*
X156502000Y-90127000D01*
X156502000Y-90951250D01*
X156660750Y-91110000D01*
X156900000Y-91113072D01*
X157024482Y-91100812D01*
X157144180Y-91064502D01*
X157254494Y-91005537D01*
X157351185Y-90926185D01*
X157430537Y-90829494D01*
X157489502Y-90719180D01*
X157525812Y-90599482D01*
X157538072Y-90475000D01*
X157535000Y-90285750D01*
X157376250Y-90127000D01*
X156502000Y-90127000D01*
X156248000Y-90127000D01*
X156228000Y-90127000D01*
X156228000Y-89873000D01*
X156248000Y-89873000D01*
X156248000Y-89048750D01*
X156199250Y-89000000D01*
X156248000Y-88951250D01*
X156248000Y-88127000D01*
X156502000Y-88127000D01*
X156502000Y-88951250D01*
X156550750Y-89000000D01*
X156502000Y-89048750D01*
X156502000Y-89873000D01*
X157376250Y-89873000D01*
X157535000Y-89714250D01*
X157538072Y-89525000D01*
X157525812Y-89400518D01*
X157489502Y-89280820D01*
X157430537Y-89170506D01*
X157351185Y-89073815D01*
X157261241Y-89000000D01*
X157351185Y-88926185D01*
X157430537Y-88829494D01*
X157489502Y-88719180D01*
X157525812Y-88599482D01*
X157538072Y-88475000D01*
X157535000Y-88285750D01*
X157376250Y-88127000D01*
X156502000Y-88127000D01*
X156248000Y-88127000D01*
X156228000Y-88127000D01*
X156228000Y-87873000D01*
X156248000Y-87873000D01*
X156248000Y-87048750D01*
X156089250Y-86890000D01*
X155850000Y-86886928D01*
X155725518Y-86899188D01*
X155605820Y-86935498D01*
X155495506Y-86994463D01*
X155422839Y-87054099D01*
X155398942Y-87034488D01*
X155310000Y-86986948D01*
X155310000Y-86782163D01*
X155374482Y-86775812D01*
X155494180Y-86739502D01*
X155604494Y-86680537D01*
X155701185Y-86601185D01*
X155780537Y-86504494D01*
X155839502Y-86394180D01*
X155875812Y-86274482D01*
X155888072Y-86150000D01*
X155888072Y-85850000D01*
X155878223Y-85750000D01*
X155888072Y-85650000D01*
X155888072Y-85350000D01*
X155878223Y-85250000D01*
X155888072Y-85150000D01*
X155888072Y-84850000D01*
X155879208Y-84760000D01*
X157284672Y-84760000D01*
X157294454Y-84792247D01*
X157365026Y-84924276D01*
X157407521Y-84976056D01*
X157351939Y-84965000D01*
X157148061Y-84965000D01*
X156948102Y-85004774D01*
X156759744Y-85082795D01*
X156590226Y-85196063D01*
X156446063Y-85340226D01*
X156332795Y-85509744D01*
X156254774Y-85698102D01*
X156215000Y-85898061D01*
X156215000Y-86101939D01*
X156254774Y-86301898D01*
X156332795Y-86490256D01*
X156446063Y-86659774D01*
X156590226Y-86803937D01*
X156717930Y-86889266D01*
X156660750Y-86890000D01*
X156502000Y-87048750D01*
X156502000Y-87873000D01*
X157376250Y-87873000D01*
X157535000Y-87714250D01*
X157538072Y-87525000D01*
X157525812Y-87400518D01*
X157489502Y-87280820D01*
X157430537Y-87170506D01*
X157351185Y-87073815D01*
X157303889Y-87035000D01*
X157351939Y-87035000D01*
X157551898Y-86995226D01*
X157740256Y-86917205D01*
X157909774Y-86803937D01*
X157953711Y-86760000D01*
X158073393Y-86760000D01*
X158125518Y-86775812D01*
X158250000Y-86788072D01*
X159650000Y-86788072D01*
X159774482Y-86775812D01*
X159826607Y-86760000D01*
X160311928Y-86760000D01*
X160311928Y-88050000D01*
X160324188Y-88174482D01*
X160360498Y-88294180D01*
X160419463Y-88404494D01*
X160498815Y-88501185D01*
X160595506Y-88580537D01*
X160705820Y-88639502D01*
X160825518Y-88675812D01*
X160950000Y-88688072D01*
X164550000Y-88688072D01*
X164674482Y-88675812D01*
X164794180Y-88639502D01*
X164904494Y-88580537D01*
X165001185Y-88501185D01*
X165080537Y-88404494D01*
X165139502Y-88294180D01*
X165175812Y-88174482D01*
X165188072Y-88050000D01*
X165188072Y-86689651D01*
X165365001Y-86866580D01*
X165365000Y-89668954D01*
X165270506Y-89719463D01*
X165173815Y-89798815D01*
X165094463Y-89895506D01*
X165035498Y-90005820D01*
X165000000Y-90122841D01*
X164964502Y-90005820D01*
X164905537Y-89895506D01*
X164826185Y-89798815D01*
X164729494Y-89719463D01*
X164619180Y-89660498D01*
X164499482Y-89624188D01*
X164375000Y-89611928D01*
X163125000Y-89611928D01*
X163000518Y-89624188D01*
X162880820Y-89660498D01*
X162770506Y-89719463D01*
X162673815Y-89798815D01*
X162594463Y-89895506D01*
X162535498Y-90005820D01*
X162502379Y-90115000D01*
X160793465Y-90115000D01*
X160749999Y-90110719D01*
X160706533Y-90115000D01*
X160706523Y-90115000D01*
X160576510Y-90127805D01*
X160409687Y-90178411D01*
X160255941Y-90260589D01*
X160255939Y-90260590D01*
X160255940Y-90260590D01*
X160154953Y-90343468D01*
X160154951Y-90343470D01*
X160121183Y-90371183D01*
X160093470Y-90404951D01*
X158486494Y-92011928D01*
X157440000Y-92011928D01*
X157315518Y-92024188D01*
X157195820Y-92060498D01*
X157085506Y-92119463D01*
X156988815Y-92198815D01*
X156909463Y-92295506D01*
X156850498Y-92405820D01*
X156826034Y-92486466D01*
X156750269Y-92402412D01*
X156516920Y-92228359D01*
X156254099Y-92103175D01*
X156106890Y-92058524D01*
X155877000Y-92179845D01*
X155877000Y-93373000D01*
X155897000Y-93373000D01*
X155897000Y-93627000D01*
X155877000Y-93627000D01*
X155877000Y-94820155D01*
X156106890Y-94941476D01*
X156254099Y-94896825D01*
X156516920Y-94771641D01*
X156750269Y-94597588D01*
X156826034Y-94513534D01*
X156850498Y-94594180D01*
X156909463Y-94704494D01*
X156988815Y-94801185D01*
X157085506Y-94880537D01*
X157195820Y-94939502D01*
X157315518Y-94975812D01*
X157440000Y-94988072D01*
X159140000Y-94988072D01*
X159264482Y-94975812D01*
X159384180Y-94939502D01*
X159494494Y-94880537D01*
X159591185Y-94801185D01*
X159670537Y-94704494D01*
X159729502Y-94594180D01*
X159765812Y-94474482D01*
X159778072Y-94350000D01*
X159778072Y-93223506D01*
X161116579Y-91885000D01*
X162486928Y-91885000D01*
X162486928Y-92750000D01*
X162499188Y-92874482D01*
X162535498Y-92994180D01*
X162594463Y-93104494D01*
X162658014Y-93181932D01*
X162533517Y-93206696D01*
X162336060Y-93288485D01*
X162158353Y-93407225D01*
X162007225Y-93558353D01*
X161888485Y-93736060D01*
X161806696Y-93933517D01*
X161765000Y-94143137D01*
X161765000Y-94356863D01*
X161806696Y-94566483D01*
X161888485Y-94763940D01*
X162007225Y-94941647D01*
X162158353Y-95092775D01*
X162336060Y-95211515D01*
X162533517Y-95293304D01*
X162743137Y-95335000D01*
X162956863Y-95335000D01*
X163166483Y-95293304D01*
X163363940Y-95211515D01*
X163541647Y-95092775D01*
X163692775Y-94941647D01*
X163811515Y-94763940D01*
X163893304Y-94566483D01*
X163935000Y-94356863D01*
X163935000Y-94143137D01*
X163893304Y-93933517D01*
X163811515Y-93736060D01*
X163692775Y-93558353D01*
X163541647Y-93407225D01*
X163512983Y-93388072D01*
X164375000Y-93388072D01*
X164499482Y-93375812D01*
X164619180Y-93339502D01*
X164729494Y-93280537D01*
X164826185Y-93201185D01*
X164905537Y-93104494D01*
X164964502Y-92994180D01*
X165000000Y-92877159D01*
X165035498Y-92994180D01*
X165094463Y-93104494D01*
X165173815Y-93201185D01*
X165270506Y-93280537D01*
X165380820Y-93339502D01*
X165500518Y-93375812D01*
X165625000Y-93388072D01*
X166875000Y-93388072D01*
X166999482Y-93375812D01*
X167119180Y-93339502D01*
X167229494Y-93280537D01*
X167326185Y-93201185D01*
X167405537Y-93104494D01*
X167464502Y-92994180D01*
X167500000Y-92877159D01*
X167535498Y-92994180D01*
X167594463Y-93104494D01*
X167673815Y-93201185D01*
X167770506Y-93280537D01*
X167880820Y-93339502D01*
X168000518Y-93375812D01*
X168125000Y-93388072D01*
X168987017Y-93388072D01*
X168958353Y-93407225D01*
X168807225Y-93558353D01*
X168688485Y-93736060D01*
X168606696Y-93933517D01*
X168565000Y-94143137D01*
X168565000Y-94356863D01*
X168606696Y-94566483D01*
X168688485Y-94763940D01*
X168807225Y-94941647D01*
X168958353Y-95092775D01*
X169136060Y-95211515D01*
X169333517Y-95293304D01*
X169543137Y-95335000D01*
X169756863Y-95335000D01*
X169966483Y-95293304D01*
X170163940Y-95211515D01*
X170341647Y-95092775D01*
X170492775Y-94941647D01*
X170611515Y-94763940D01*
X170693304Y-94566483D01*
X170735000Y-94356863D01*
X170735000Y-94143137D01*
X170693304Y-93933517D01*
X170611515Y-93736060D01*
X170492775Y-93558353D01*
X170341647Y-93407225D01*
X170163940Y-93288485D01*
X169966483Y-93206696D01*
X169841986Y-93181932D01*
X169905537Y-93104494D01*
X169964502Y-92994180D01*
X170000812Y-92874482D01*
X170013072Y-92750000D01*
X170013072Y-91843740D01*
X173765000Y-91843740D01*
X173765000Y-92136260D01*
X173822068Y-92423158D01*
X173934010Y-92693411D01*
X174096525Y-92936632D01*
X174303368Y-93143475D01*
X174485534Y-93265195D01*
X174368645Y-93334822D01*
X174152412Y-93529731D01*
X173978359Y-93763080D01*
X173853175Y-94025901D01*
X173808524Y-94173110D01*
X173929845Y-94403000D01*
X175123000Y-94403000D01*
X175123000Y-94383000D01*
X175377000Y-94383000D01*
X175377000Y-94403000D01*
X176570155Y-94403000D01*
X176691476Y-94173110D01*
X176646825Y-94025901D01*
X176521641Y-93763080D01*
X176347588Y-93529731D01*
X176131355Y-93334822D01*
X176014466Y-93265195D01*
X176196632Y-93143475D01*
X176403475Y-92936632D01*
X176565990Y-92693411D01*
X176677932Y-92423158D01*
X176735000Y-92136260D01*
X176735000Y-91843740D01*
X176677932Y-91556842D01*
X176565990Y-91286589D01*
X176403475Y-91043368D01*
X176196632Y-90836525D01*
X176014466Y-90714805D01*
X176131355Y-90645178D01*
X176347588Y-90450269D01*
X176521641Y-90216920D01*
X176646825Y-89954099D01*
X176691476Y-89806890D01*
X176570155Y-89577000D01*
X175377000Y-89577000D01*
X175377000Y-89597000D01*
X175123000Y-89597000D01*
X175123000Y-89577000D01*
X173929845Y-89577000D01*
X173808524Y-89806890D01*
X173853175Y-89954099D01*
X173978359Y-90216920D01*
X174152412Y-90450269D01*
X174368645Y-90645178D01*
X174485534Y-90714805D01*
X174303368Y-90836525D01*
X174096525Y-91043368D01*
X173934010Y-91286589D01*
X173822068Y-91556842D01*
X173765000Y-91843740D01*
X170013072Y-91843740D01*
X170013072Y-90250000D01*
X170000812Y-90125518D01*
X169964502Y-90005820D01*
X169905537Y-89895506D01*
X169826185Y-89798815D01*
X169729494Y-89719463D01*
X169619180Y-89660498D01*
X169499482Y-89624188D01*
X169375000Y-89611928D01*
X168125000Y-89611928D01*
X168000518Y-89624188D01*
X167880820Y-89660498D01*
X167770506Y-89719463D01*
X167673815Y-89798815D01*
X167594463Y-89895506D01*
X167535498Y-90005820D01*
X167500000Y-90122841D01*
X167464502Y-90005820D01*
X167405537Y-89895506D01*
X167326185Y-89798815D01*
X167229494Y-89719463D01*
X167135000Y-89668954D01*
X167135000Y-86543469D01*
X167139281Y-86500000D01*
X167135000Y-86456531D01*
X167135000Y-86456523D01*
X167122195Y-86326510D01*
X167111801Y-86292246D01*
X167071589Y-86159686D01*
X166989411Y-86005941D01*
X166906532Y-85904953D01*
X166906530Y-85904951D01*
X166878817Y-85871183D01*
X166845049Y-85843470D01*
X166114651Y-85113072D01*
X167330000Y-85113072D01*
X167454482Y-85100812D01*
X167574180Y-85064502D01*
X167684494Y-85005537D01*
X167781185Y-84926185D01*
X167860537Y-84829494D01*
X167900000Y-84755665D01*
X167939463Y-84829494D01*
X168018815Y-84926185D01*
X168115506Y-85005537D01*
X168225820Y-85064502D01*
X168345518Y-85100812D01*
X168470000Y-85113072D01*
X170030000Y-85113072D01*
X170154482Y-85100812D01*
X170274180Y-85064502D01*
X170329373Y-85035000D01*
X170780386Y-85035000D01*
X170811595Y-85093387D01*
X170922038Y-85227962D01*
X171056613Y-85338405D01*
X171210149Y-85420472D01*
X171376745Y-85471008D01*
X171549999Y-85488072D01*
X172450001Y-85488072D01*
X172623255Y-85471008D01*
X172789851Y-85420472D01*
X172943387Y-85338405D01*
X173045016Y-85255000D01*
X174055344Y-85255000D01*
X174096525Y-85316632D01*
X174303368Y-85523475D01*
X174477760Y-85640000D01*
X174303368Y-85756525D01*
X174096525Y-85963368D01*
X173971822Y-86150000D01*
X171093877Y-86150000D01*
X171053937Y-86090226D01*
X170909774Y-85946063D01*
X170740256Y-85832795D01*
X170551898Y-85754774D01*
X170351939Y-85715000D01*
X170148061Y-85715000D01*
X169948102Y-85754774D01*
X169759744Y-85832795D01*
X169590226Y-85946063D01*
X169446063Y-86090226D01*
X169332795Y-86259744D01*
X169254774Y-86448102D01*
X169215000Y-86648061D01*
X169215000Y-86851939D01*
X169254774Y-87051898D01*
X169332795Y-87240256D01*
X169446063Y-87409774D01*
X169590226Y-87553937D01*
X169759744Y-87667205D01*
X169948102Y-87745226D01*
X170148061Y-87785000D01*
X170351939Y-87785000D01*
X170551898Y-87745226D01*
X170733508Y-87670000D01*
X173971822Y-87670000D01*
X174096525Y-87856632D01*
X174303368Y-88063475D01*
X174485534Y-88185195D01*
X174368645Y-88254822D01*
X174152412Y-88449731D01*
X173978359Y-88683080D01*
X173853175Y-88945901D01*
X173808524Y-89093110D01*
X173929845Y-89323000D01*
X175123000Y-89323000D01*
X175123000Y-89303000D01*
X175377000Y-89303000D01*
X175377000Y-89323000D01*
X176570155Y-89323000D01*
X176691476Y-89093110D01*
X176646825Y-88945901D01*
X176521641Y-88683080D01*
X176347588Y-88449731D01*
X176131355Y-88254822D01*
X176014466Y-88185195D01*
X176196632Y-88063475D01*
X176403475Y-87856632D01*
X176565990Y-87613411D01*
X176677932Y-87343158D01*
X176735000Y-87056260D01*
X176735000Y-86763740D01*
X176677932Y-86476842D01*
X176565990Y-86206589D01*
X176403475Y-85963368D01*
X176196632Y-85756525D01*
X176022240Y-85640000D01*
X176196632Y-85523475D01*
X176403475Y-85316632D01*
X176565990Y-85073411D01*
X176677932Y-84803158D01*
X176735000Y-84516260D01*
X176735000Y-84223740D01*
X176677932Y-83936842D01*
X176565990Y-83666589D01*
X176403475Y-83423368D01*
X176196632Y-83216525D01*
X176022240Y-83100000D01*
X176196632Y-82983475D01*
X176403475Y-82776632D01*
X176565990Y-82533411D01*
X176677932Y-82263158D01*
X176735000Y-81976260D01*
X176735000Y-81683740D01*
X176677932Y-81396842D01*
X176565990Y-81126589D01*
X176403475Y-80883368D01*
X176196632Y-80676525D01*
X176022240Y-80560000D01*
X176196632Y-80443475D01*
X176403475Y-80236632D01*
X176565990Y-79993411D01*
X176677932Y-79723158D01*
X176735000Y-79436260D01*
X176735000Y-79143740D01*
X176677932Y-78856842D01*
X176565990Y-78586589D01*
X176403475Y-78343368D01*
X176271620Y-78211513D01*
X176344180Y-78189502D01*
X176454494Y-78130537D01*
X176551185Y-78051185D01*
X176630537Y-77954494D01*
X176689502Y-77844180D01*
X176725812Y-77724482D01*
X176738072Y-77600000D01*
X176738072Y-75900000D01*
X176725812Y-75775518D01*
X176705937Y-75710000D01*
X179290000Y-75710000D01*
X179290001Y-95540000D01*
X176336792Y-95540000D01*
X176347588Y-95530269D01*
X176521641Y-95296920D01*
X176646825Y-95034099D01*
X176691476Y-94886890D01*
X176570155Y-94657000D01*
X175377000Y-94657000D01*
X175377000Y-94677000D01*
X175123000Y-94677000D01*
X175123000Y-94657000D01*
X173929845Y-94657000D01*
X173808524Y-94886890D01*
X173853175Y-95034099D01*
X173978359Y-95296920D01*
X174152412Y-95530269D01*
X174163208Y-95540000D01*
X118127000Y-95540000D01*
X118127000Y-91642600D01*
X118224728Y-91642600D01*
X118224728Y-93642600D01*
X118236988Y-93767082D01*
X118273298Y-93886780D01*
X118332263Y-93997094D01*
X118411615Y-94093785D01*
X118508306Y-94173137D01*
X118618620Y-94232102D01*
X118738318Y-94268412D01*
X118862800Y-94280672D01*
X119662800Y-94280672D01*
X119787282Y-94268412D01*
X119906980Y-94232102D01*
X120012800Y-94175539D01*
X120118620Y-94232102D01*
X120238318Y-94268412D01*
X120362800Y-94280672D01*
X121162800Y-94280672D01*
X121287282Y-94268412D01*
X121406980Y-94232102D01*
X121512800Y-94175539D01*
X121618620Y-94232102D01*
X121738318Y-94268412D01*
X121862800Y-94280672D01*
X122662800Y-94280672D01*
X122787282Y-94268412D01*
X122906980Y-94232102D01*
X123012800Y-94175539D01*
X123118620Y-94232102D01*
X123238318Y-94268412D01*
X123362800Y-94280672D01*
X124162800Y-94280672D01*
X124287282Y-94268412D01*
X124406980Y-94232102D01*
X124512800Y-94175539D01*
X124618620Y-94232102D01*
X124738318Y-94268412D01*
X124862800Y-94280672D01*
X125662800Y-94280672D01*
X125787282Y-94268412D01*
X125906980Y-94232102D01*
X126012800Y-94175539D01*
X126118620Y-94232102D01*
X126238318Y-94268412D01*
X126362800Y-94280672D01*
X127162800Y-94280672D01*
X127287282Y-94268412D01*
X127406980Y-94232102D01*
X127512800Y-94175539D01*
X127618620Y-94232102D01*
X127738318Y-94268412D01*
X127862800Y-94280672D01*
X128662800Y-94280672D01*
X128787282Y-94268412D01*
X128906980Y-94232102D01*
X129012800Y-94175539D01*
X129118620Y-94232102D01*
X129238318Y-94268412D01*
X129362800Y-94280672D01*
X130162800Y-94280672D01*
X130287282Y-94268412D01*
X130406980Y-94232102D01*
X130517294Y-94173137D01*
X130613985Y-94093785D01*
X130693337Y-93997094D01*
X130752302Y-93886780D01*
X130786210Y-93775000D01*
X138886928Y-93775000D01*
X138899188Y-93899482D01*
X138935498Y-94019180D01*
X138994463Y-94129494D01*
X139073815Y-94226185D01*
X139170506Y-94305537D01*
X139280820Y-94364502D01*
X139400518Y-94400812D01*
X139525000Y-94413072D01*
X139714250Y-94410000D01*
X139873000Y-94251250D01*
X139873000Y-93377000D01*
X140127000Y-93377000D01*
X140127000Y-94251250D01*
X140285750Y-94410000D01*
X140475000Y-94413072D01*
X140599482Y-94400812D01*
X140719180Y-94364502D01*
X140829494Y-94305537D01*
X140926185Y-94226185D01*
X141000000Y-94136241D01*
X141073815Y-94226185D01*
X141170506Y-94305537D01*
X141280820Y-94364502D01*
X141400518Y-94400812D01*
X141525000Y-94413072D01*
X141714250Y-94410000D01*
X141873000Y-94251250D01*
X141873000Y-93377000D01*
X142127000Y-93377000D01*
X142127000Y-94251250D01*
X142285750Y-94410000D01*
X142475000Y-94413072D01*
X142599482Y-94400812D01*
X142719180Y-94364502D01*
X142829494Y-94305537D01*
X142926185Y-94226185D01*
X143005537Y-94129494D01*
X143064502Y-94019180D01*
X143100812Y-93899482D01*
X143113072Y-93775000D01*
X143110000Y-93535750D01*
X142951250Y-93377000D01*
X142127000Y-93377000D01*
X141873000Y-93377000D01*
X141048750Y-93377000D01*
X141000000Y-93425750D01*
X140951250Y-93377000D01*
X140127000Y-93377000D01*
X139873000Y-93377000D01*
X139048750Y-93377000D01*
X138890000Y-93535750D01*
X138886928Y-93775000D01*
X130786210Y-93775000D01*
X130788612Y-93767082D01*
X130800872Y-93642600D01*
X130800872Y-91860672D01*
X131862800Y-91860672D01*
X131987282Y-91848412D01*
X132106980Y-91812102D01*
X132217294Y-91753137D01*
X132313985Y-91673785D01*
X132393337Y-91577094D01*
X132452302Y-91466780D01*
X132488612Y-91347082D01*
X132500872Y-91222600D01*
X132500872Y-90422600D01*
X132488612Y-90298118D01*
X132452302Y-90178420D01*
X132395739Y-90072600D01*
X132452302Y-89966780D01*
X132488612Y-89847082D01*
X132500872Y-89722600D01*
X132500872Y-88922600D01*
X132488612Y-88798118D01*
X132452302Y-88678420D01*
X132395739Y-88572600D01*
X132452302Y-88466780D01*
X132488612Y-88347082D01*
X132500872Y-88222600D01*
X132500872Y-87422600D01*
X132488612Y-87298118D01*
X132452302Y-87178420D01*
X132395739Y-87072600D01*
X132452302Y-86966780D01*
X132488612Y-86847082D01*
X132500872Y-86722600D01*
X132500872Y-85922600D01*
X132488612Y-85798118D01*
X132452302Y-85678420D01*
X132395739Y-85572600D01*
X132452302Y-85466780D01*
X132488612Y-85347082D01*
X132500872Y-85222600D01*
X132500872Y-84422600D01*
X132488612Y-84298118D01*
X132452302Y-84178420D01*
X132395739Y-84072600D01*
X132452302Y-83966780D01*
X132488612Y-83847082D01*
X132500872Y-83722600D01*
X132500872Y-82922600D01*
X132488612Y-82798118D01*
X132452302Y-82678420D01*
X132395739Y-82572600D01*
X132452302Y-82466780D01*
X132488612Y-82347082D01*
X132500872Y-82222600D01*
X132500872Y-81422600D01*
X132488612Y-81298118D01*
X132452302Y-81178420D01*
X132395739Y-81072600D01*
X132452302Y-80966780D01*
X132488612Y-80847082D01*
X132500872Y-80722600D01*
X132500872Y-79922600D01*
X132488612Y-79798118D01*
X132452302Y-79678420D01*
X132393337Y-79568106D01*
X132313985Y-79471415D01*
X132217294Y-79392063D01*
X132106980Y-79333098D01*
X131987282Y-79296788D01*
X131862800Y-79284528D01*
X130800872Y-79284528D01*
X130800872Y-77502600D01*
X130788612Y-77378118D01*
X130752302Y-77258420D01*
X130734439Y-77225000D01*
X133336928Y-77225000D01*
X133349188Y-77349482D01*
X133385498Y-77469180D01*
X133444463Y-77579494D01*
X133523815Y-77676185D01*
X133620506Y-77755537D01*
X133730820Y-77814502D01*
X133850518Y-77850812D01*
X133975000Y-77863072D01*
X134214250Y-77860000D01*
X134373000Y-77701250D01*
X134373000Y-76877000D01*
X133498750Y-76877000D01*
X133340000Y-77035750D01*
X133336928Y-77225000D01*
X130734439Y-77225000D01*
X130693337Y-77148106D01*
X130613985Y-77051415D01*
X130517294Y-76972063D01*
X130406980Y-76913098D01*
X130287282Y-76876788D01*
X130162800Y-76864528D01*
X129362800Y-76864528D01*
X129238318Y-76876788D01*
X129118620Y-76913098D01*
X129012800Y-76969661D01*
X128906980Y-76913098D01*
X128787282Y-76876788D01*
X128662800Y-76864528D01*
X127862800Y-76864528D01*
X127738318Y-76876788D01*
X127618620Y-76913098D01*
X127512800Y-76969661D01*
X127406980Y-76913098D01*
X127287282Y-76876788D01*
X127162800Y-76864528D01*
X126362800Y-76864528D01*
X126238318Y-76876788D01*
X126118620Y-76913098D01*
X126012800Y-76969661D01*
X125906980Y-76913098D01*
X125787282Y-76876788D01*
X125662800Y-76864528D01*
X124862800Y-76864528D01*
X124738318Y-76876788D01*
X124618620Y-76913098D01*
X124512800Y-76969661D01*
X124406980Y-76913098D01*
X124287282Y-76876788D01*
X124162800Y-76864528D01*
X123362800Y-76864528D01*
X123238318Y-76876788D01*
X123118620Y-76913098D01*
X123012800Y-76969661D01*
X122906980Y-76913098D01*
X122787282Y-76876788D01*
X122662800Y-76864528D01*
X121862800Y-76864528D01*
X121738318Y-76876788D01*
X121618620Y-76913098D01*
X121512800Y-76969661D01*
X121406980Y-76913098D01*
X121287282Y-76876788D01*
X121162800Y-76864528D01*
X120362800Y-76864528D01*
X120238318Y-76876788D01*
X120118620Y-76913098D01*
X120012800Y-76969661D01*
X119906980Y-76913098D01*
X119787282Y-76876788D01*
X119662800Y-76864528D01*
X119548550Y-76867600D01*
X119389800Y-77026350D01*
X119389800Y-78375600D01*
X119409800Y-78375600D01*
X119409800Y-78629600D01*
X119389800Y-78629600D01*
X119389800Y-79978850D01*
X119548550Y-80137600D01*
X119662800Y-80140672D01*
X119787282Y-80128412D01*
X119906980Y-80092102D01*
X120012800Y-80035539D01*
X120118620Y-80092102D01*
X120238318Y-80128412D01*
X120362800Y-80140672D01*
X121162800Y-80140672D01*
X121287282Y-80128412D01*
X121406980Y-80092102D01*
X121502801Y-80040884D01*
X121502801Y-80708021D01*
X121465000Y-80898061D01*
X121465000Y-81101939D01*
X121504774Y-81301898D01*
X121582795Y-81490256D01*
X121696063Y-81659774D01*
X121840226Y-81803937D01*
X122009744Y-81917205D01*
X122198102Y-81995226D01*
X122398061Y-82035000D01*
X122601939Y-82035000D01*
X122801898Y-81995226D01*
X122990256Y-81917205D01*
X123159774Y-81803937D01*
X123303937Y-81659774D01*
X123417205Y-81490256D01*
X123495226Y-81301898D01*
X123535000Y-81101939D01*
X123535000Y-80898061D01*
X123495226Y-80698102D01*
X123417205Y-80509744D01*
X123303937Y-80340226D01*
X123159774Y-80196063D01*
X123022800Y-80104540D01*
X123022800Y-80040884D01*
X123118620Y-80092102D01*
X123238318Y-80128412D01*
X123362800Y-80140672D01*
X124162800Y-80140672D01*
X124287282Y-80128412D01*
X124406980Y-80092102D01*
X124502800Y-80040884D01*
X124502801Y-83975468D01*
X124499124Y-84012800D01*
X124502801Y-84050133D01*
X124513798Y-84161786D01*
X124517349Y-84173491D01*
X124557254Y-84305046D01*
X124627826Y-84437076D01*
X124699001Y-84523802D01*
X124722800Y-84552801D01*
X124751798Y-84576599D01*
X124965000Y-84789801D01*
X124965000Y-84851939D01*
X125004774Y-85051898D01*
X125082795Y-85240256D01*
X125196063Y-85409774D01*
X125340226Y-85553937D01*
X125509744Y-85667205D01*
X125698102Y-85745226D01*
X125898061Y-85785000D01*
X126101939Y-85785000D01*
X126301898Y-85745226D01*
X126490256Y-85667205D01*
X126659774Y-85553937D01*
X126803937Y-85409774D01*
X126917205Y-85240256D01*
X126995226Y-85051898D01*
X127035000Y-84851939D01*
X127035000Y-84648061D01*
X126995226Y-84448102D01*
X126921902Y-84271084D01*
X127051898Y-84245226D01*
X127240001Y-84167311D01*
X127240000Y-89840598D01*
X126251798Y-90828801D01*
X126222800Y-90852599D01*
X126199002Y-90881597D01*
X126199001Y-90881598D01*
X126127826Y-90968324D01*
X126068071Y-91080118D01*
X126012800Y-91109661D01*
X125906980Y-91053098D01*
X125787282Y-91016788D01*
X125662800Y-91004528D01*
X124862800Y-91004528D01*
X124738318Y-91016788D01*
X124618620Y-91053098D01*
X124512800Y-91109661D01*
X124406980Y-91053098D01*
X124287282Y-91016788D01*
X124162800Y-91004528D01*
X123362800Y-91004528D01*
X123238318Y-91016788D01*
X123118620Y-91053098D01*
X123012800Y-91109661D01*
X122906980Y-91053098D01*
X122787282Y-91016788D01*
X122662800Y-91004528D01*
X121862800Y-91004528D01*
X121738318Y-91016788D01*
X121618620Y-91053098D01*
X121512800Y-91109661D01*
X121406980Y-91053098D01*
X121287282Y-91016788D01*
X121162800Y-91004528D01*
X120959183Y-91004528D01*
X121053937Y-90909774D01*
X121167205Y-90740256D01*
X121245226Y-90551898D01*
X121285000Y-90351939D01*
X121285000Y-90148061D01*
X121245226Y-89948102D01*
X121167205Y-89759744D01*
X121053937Y-89590226D01*
X120909774Y-89446063D01*
X120740256Y-89332795D01*
X120551898Y-89254774D01*
X120351939Y-89215000D01*
X120148061Y-89215000D01*
X119948102Y-89254774D01*
X119759744Y-89332795D01*
X119590226Y-89446063D01*
X119446063Y-89590226D01*
X119332795Y-89759744D01*
X119254774Y-89948102D01*
X119243465Y-90004956D01*
X118667751Y-90580671D01*
X118633984Y-90608383D01*
X118606271Y-90642151D01*
X118606268Y-90642154D01*
X118523390Y-90743141D01*
X118441212Y-90896887D01*
X118390605Y-91063710D01*
X118373519Y-91237200D01*
X118373575Y-91237767D01*
X118332263Y-91288106D01*
X118273298Y-91398420D01*
X118236988Y-91518118D01*
X118224728Y-91642600D01*
X118127000Y-91642600D01*
X118127000Y-79502600D01*
X118224728Y-79502600D01*
X118236988Y-79627082D01*
X118273298Y-79746780D01*
X118332263Y-79857094D01*
X118411615Y-79953785D01*
X118508306Y-80033137D01*
X118618620Y-80092102D01*
X118738318Y-80128412D01*
X118862800Y-80140672D01*
X118977050Y-80137600D01*
X119135800Y-79978850D01*
X119135800Y-78629600D01*
X118386550Y-78629600D01*
X118227800Y-78788350D01*
X118224728Y-79502600D01*
X118127000Y-79502600D01*
X118127000Y-77502600D01*
X118224728Y-77502600D01*
X118227800Y-78216850D01*
X118386550Y-78375600D01*
X119135800Y-78375600D01*
X119135800Y-77026350D01*
X118977050Y-76867600D01*
X118862800Y-76864528D01*
X118738318Y-76876788D01*
X118618620Y-76913098D01*
X118508306Y-76972063D01*
X118411615Y-77051415D01*
X118332263Y-77148106D01*
X118273298Y-77258420D01*
X118236988Y-77378118D01*
X118224728Y-77502600D01*
X118127000Y-77502600D01*
X118127000Y-75710000D01*
X133684981Y-75710000D01*
X133620506Y-75744463D01*
G36*
X167939463Y-79579494D02*
G01*
X168018815Y-79676185D01*
X168115506Y-79755537D01*
X168225820Y-79814502D01*
X168345518Y-79850812D01*
X168470000Y-79863072D01*
X169043753Y-79863072D01*
X169059687Y-79871589D01*
X169226510Y-79922195D01*
X169356523Y-79935000D01*
X169356533Y-79935000D01*
X169399999Y-79939281D01*
X169443466Y-79935000D01*
X170866263Y-79935000D01*
X170922038Y-80002962D01*
X171056613Y-80113405D01*
X171210149Y-80195472D01*
X171376745Y-80246008D01*
X171549999Y-80263072D01*
X172450001Y-80263072D01*
X172623255Y-80246008D01*
X172789851Y-80195472D01*
X172828151Y-80175000D01*
X174055344Y-80175000D01*
X174096525Y-80236632D01*
X174303368Y-80443475D01*
X174477760Y-80560000D01*
X174303368Y-80676525D01*
X174096525Y-80883368D01*
X174055344Y-80945000D01*
X172438465Y-80945000D01*
X172394999Y-80940719D01*
X172351533Y-80945000D01*
X172351523Y-80945000D01*
X172221510Y-80957805D01*
X172054687Y-81008411D01*
X172048107Y-81011928D01*
X171549999Y-81011928D01*
X171376745Y-81028992D01*
X171210149Y-81079528D01*
X171056613Y-81161595D01*
X170922038Y-81272038D01*
X170866263Y-81340000D01*
X170282603Y-81340000D01*
X170274180Y-81335498D01*
X170154482Y-81299188D01*
X170030000Y-81286928D01*
X168470000Y-81286928D01*
X168345518Y-81299188D01*
X168225820Y-81335498D01*
X168115506Y-81394463D01*
X168018815Y-81473815D01*
X167939463Y-81570506D01*
X167900000Y-81644335D01*
X167860537Y-81570506D01*
X167781185Y-81473815D01*
X167684494Y-81394463D01*
X167574180Y-81335498D01*
X167454482Y-81299188D01*
X167330000Y-81286928D01*
X166835750Y-81290000D01*
X166677000Y-81448750D01*
X166677000Y-82123000D01*
X166697000Y-82123000D01*
X166697000Y-82377000D01*
X166677000Y-82377000D01*
X166677000Y-82397000D01*
X166423000Y-82397000D01*
X166423000Y-82377000D01*
X166401250Y-82377000D01*
X166264250Y-82240000D01*
X165770000Y-82236928D01*
X165645518Y-82249188D01*
X165525820Y-82285498D01*
X165415506Y-82344463D01*
X165375859Y-82377000D01*
X165293750Y-82377000D01*
X165202775Y-82467975D01*
X164760000Y-82025201D01*
X164760000Y-81925000D01*
X165131928Y-81925000D01*
X165135000Y-81964250D01*
X165293750Y-82123000D01*
X166423000Y-82123000D01*
X166423000Y-81448750D01*
X166264250Y-81290000D01*
X165770000Y-81286928D01*
X165645518Y-81299188D01*
X165525820Y-81335498D01*
X165415506Y-81394463D01*
X165318815Y-81473815D01*
X165239463Y-81570506D01*
X165180498Y-81680820D01*
X165144188Y-81800518D01*
X165131928Y-81925000D01*
X164760000Y-81925000D01*
X164760000Y-81037322D01*
X164763676Y-80999999D01*
X164760000Y-80962676D01*
X164760000Y-80962667D01*
X164749003Y-80851014D01*
X164705546Y-80707753D01*
X164634974Y-80575724D01*
X164574134Y-80501590D01*
X164563799Y-80488996D01*
X164563795Y-80488992D01*
X164540001Y-80459999D01*
X164511009Y-80436206D01*
X163850311Y-79775508D01*
X163898061Y-79785006D01*
X164101939Y-79785006D01*
X164301898Y-79745232D01*
X164490256Y-79667211D01*
X164501048Y-79660000D01*
X165305532Y-79660000D01*
X165318815Y-79676185D01*
X165415506Y-79755537D01*
X165525820Y-79814502D01*
X165645518Y-79850812D01*
X165770000Y-79863072D01*
X167330000Y-79863072D01*
X167454482Y-79850812D01*
X167574180Y-79814502D01*
X167684494Y-79755537D01*
X167781185Y-79676185D01*
X167860537Y-79579494D01*
X167900000Y-79505665D01*
X167939463Y-79579494D01*
G37*
X167939463Y-79579494D02*
X168018815Y-79676185D01*
X168115506Y-79755537D01*
X168225820Y-79814502D01*
X168345518Y-79850812D01*
X168470000Y-79863072D01*
X169043753Y-79863072D01*
X169059687Y-79871589D01*
X169226510Y-79922195D01*
X169356523Y-79935000D01*
X169356533Y-79935000D01*
X169399999Y-79939281D01*
X169443466Y-79935000D01*
X170866263Y-79935000D01*
X170922038Y-80002962D01*
X171056613Y-80113405D01*
X171210149Y-80195472D01*
X171376745Y-80246008D01*
X171549999Y-80263072D01*
X172450001Y-80263072D01*
X172623255Y-80246008D01*
X172789851Y-80195472D01*
X172828151Y-80175000D01*
X174055344Y-80175000D01*
X174096525Y-80236632D01*
X174303368Y-80443475D01*
X174477760Y-80560000D01*
X174303368Y-80676525D01*
X174096525Y-80883368D01*
X174055344Y-80945000D01*
X172438465Y-80945000D01*
X172394999Y-80940719D01*
X172351533Y-80945000D01*
X172351523Y-80945000D01*
X172221510Y-80957805D01*
X172054687Y-81008411D01*
X172048107Y-81011928D01*
X171549999Y-81011928D01*
X171376745Y-81028992D01*
X171210149Y-81079528D01*
X171056613Y-81161595D01*
X170922038Y-81272038D01*
X170866263Y-81340000D01*
X170282603Y-81340000D01*
X170274180Y-81335498D01*
X170154482Y-81299188D01*
X170030000Y-81286928D01*
X168470000Y-81286928D01*
X168345518Y-81299188D01*
X168225820Y-81335498D01*
X168115506Y-81394463D01*
X168018815Y-81473815D01*
X167939463Y-81570506D01*
X167900000Y-81644335D01*
X167860537Y-81570506D01*
X167781185Y-81473815D01*
X167684494Y-81394463D01*
X167574180Y-81335498D01*
X167454482Y-81299188D01*
X167330000Y-81286928D01*
X166835750Y-81290000D01*
X166677000Y-81448750D01*
X166677000Y-82123000D01*
X166697000Y-82123000D01*
X166697000Y-82377000D01*
X166677000Y-82377000D01*
X166677000Y-82397000D01*
X166423000Y-82397000D01*
X166423000Y-82377000D01*
X166401250Y-82377000D01*
X166264250Y-82240000D01*
X165770000Y-82236928D01*
X165645518Y-82249188D01*
X165525820Y-82285498D01*
X165415506Y-82344463D01*
X165375859Y-82377000D01*
X165293750Y-82377000D01*
X165202775Y-82467975D01*
X164760000Y-82025201D01*
X164760000Y-81925000D01*
X165131928Y-81925000D01*
X165135000Y-81964250D01*
X165293750Y-82123000D01*
X166423000Y-82123000D01*
X166423000Y-81448750D01*
X166264250Y-81290000D01*
X165770000Y-81286928D01*
X165645518Y-81299188D01*
X165525820Y-81335498D01*
X165415506Y-81394463D01*
X165318815Y-81473815D01*
X165239463Y-81570506D01*
X165180498Y-81680820D01*
X165144188Y-81800518D01*
X165131928Y-81925000D01*
X164760000Y-81925000D01*
X164760000Y-81037322D01*
X164763676Y-80999999D01*
X164760000Y-80962676D01*
X164760000Y-80962667D01*
X164749003Y-80851014D01*
X164705546Y-80707753D01*
X164634974Y-80575724D01*
X164574134Y-80501590D01*
X164563799Y-80488996D01*
X164563795Y-80488992D01*
X164540001Y-80459999D01*
X164511009Y-80436206D01*
X163850311Y-79775508D01*
X163898061Y-79785006D01*
X164101939Y-79785006D01*
X164301898Y-79745232D01*
X164490256Y-79667211D01*
X164501048Y-79660000D01*
X165305532Y-79660000D01*
X165318815Y-79676185D01*
X165415506Y-79755537D01*
X165525820Y-79814502D01*
X165645518Y-79850812D01*
X165770000Y-79863072D01*
X167330000Y-79863072D01*
X167454482Y-79850812D01*
X167574180Y-79814502D01*
X167684494Y-79755537D01*
X167781185Y-79676185D01*
X167860537Y-79579494D01*
X167900000Y-79505665D01*
X167939463Y-79579494D01*
%TD*%
M02*
